G04 #@! TF.GenerationSoftware,KiCad,Pcbnew,(5.1.5)-3*
G04 #@! TF.CreationDate,2020-05-17T23:13:09+01:00*
G04 #@! TF.ProjectId,cypher,63797068-6572-42e6-9b69-6361645f7063,rev?*
G04 #@! TF.SameCoordinates,Original*
G04 #@! TF.FileFunction,Legend,Top*
G04 #@! TF.FilePolarity,Positive*
%FSLAX46Y46*%
G04 Gerber Fmt 4.6, Leading zero omitted, Abs format (unit mm)*
G04 Created by KiCad (PCBNEW (5.1.5)-3) date 2020-05-17 23:13:09*
%MOMM*%
%LPD*%
G04 APERTURE LIST*
%ADD10C,0.300000*%
%ADD11C,0.100000*%
%ADD12C,0.120000*%
%ADD13C,0.150000*%
G04 APERTURE END LIST*
D10*
X319224492Y-138256800D02*
X319081635Y-138185371D01*
X318867350Y-138185371D01*
X318653064Y-138256800D01*
X318510207Y-138399657D01*
X318438778Y-138542514D01*
X318367350Y-138828228D01*
X318367350Y-139042514D01*
X318438778Y-139328228D01*
X318510207Y-139471085D01*
X318653064Y-139613942D01*
X318867350Y-139685371D01*
X319010207Y-139685371D01*
X319224492Y-139613942D01*
X319295921Y-139542514D01*
X319295921Y-139042514D01*
X319010207Y-139042514D01*
X319938778Y-139685371D02*
X319938778Y-138185371D01*
X320795921Y-139685371D01*
X320795921Y-138185371D01*
X321510207Y-139685371D02*
X321510207Y-138185371D01*
X321867350Y-138185371D01*
X322081635Y-138256800D01*
X322224492Y-138399657D01*
X322295921Y-138542514D01*
X322367350Y-138828228D01*
X322367350Y-139042514D01*
X322295921Y-139328228D01*
X322224492Y-139471085D01*
X322081635Y-139613942D01*
X321867350Y-139685371D01*
X321510207Y-139685371D01*
X318151778Y-136407942D02*
X319294635Y-136407942D01*
X318723207Y-136979371D02*
X318723207Y-135836514D01*
X320723207Y-135479371D02*
X320008921Y-135479371D01*
X319937492Y-136193657D01*
X320008921Y-136122228D01*
X320151778Y-136050800D01*
X320508921Y-136050800D01*
X320651778Y-136122228D01*
X320723207Y-136193657D01*
X320794635Y-136336514D01*
X320794635Y-136693657D01*
X320723207Y-136836514D01*
X320651778Y-136907942D01*
X320508921Y-136979371D01*
X320151778Y-136979371D01*
X320008921Y-136907942D01*
X319937492Y-136836514D01*
X321223207Y-135479371D02*
X321723207Y-136979371D01*
X322223207Y-135479371D01*
X318972571Y-133668657D02*
X319186857Y-133740085D01*
X319258285Y-133811514D01*
X319329714Y-133954371D01*
X319329714Y-134168657D01*
X319258285Y-134311514D01*
X319186857Y-134382942D01*
X319044000Y-134454371D01*
X318472571Y-134454371D01*
X318472571Y-132954371D01*
X318972571Y-132954371D01*
X319115428Y-133025800D01*
X319186857Y-133097228D01*
X319258285Y-133240085D01*
X319258285Y-133382942D01*
X319186857Y-133525800D01*
X319115428Y-133597228D01*
X318972571Y-133668657D01*
X318472571Y-133668657D01*
X320758285Y-134454371D02*
X319901142Y-134454371D01*
X320329714Y-134454371D02*
X320329714Y-132954371D01*
X320186857Y-133168657D01*
X320044000Y-133311514D01*
X319901142Y-133382942D01*
X322115428Y-132954371D02*
X321401142Y-132954371D01*
X321329714Y-133668657D01*
X321401142Y-133597228D01*
X321544000Y-133525800D01*
X321901142Y-133525800D01*
X322044000Y-133597228D01*
X322115428Y-133668657D01*
X322186857Y-133811514D01*
X322186857Y-134168657D01*
X322115428Y-134311514D01*
X322044000Y-134382942D01*
X321901142Y-134454371D01*
X321544000Y-134454371D01*
X321401142Y-134382942D01*
X321329714Y-134311514D01*
D11*
G36*
X315810900Y-112157000D02*
G01*
X316310900Y-112157000D01*
X316310900Y-114157000D01*
X315810900Y-114157000D01*
X315810900Y-112157000D01*
G37*
G36*
X315747400Y-115395500D02*
G01*
X316247400Y-115395500D01*
X316247400Y-117395500D01*
X315747400Y-117395500D01*
X315747400Y-115395500D01*
G37*
G36*
X315747400Y-118507000D02*
G01*
X316247400Y-118507000D01*
X316247400Y-120507000D01*
X315747400Y-120507000D01*
X315747400Y-118507000D01*
G37*
G36*
X277968472Y-195128040D02*
G01*
X273005047Y-195648241D01*
X277968472Y-195648241D01*
X278248603Y-195704827D01*
X278477645Y-195859227D01*
X278632529Y-196088393D01*
X278690187Y-196369279D01*
X278690187Y-198805662D01*
X278632608Y-199087034D01*
X278477848Y-199316884D01*
X278248829Y-199472205D01*
X277968472Y-199529992D01*
X273005047Y-199529992D01*
X272725176Y-199472126D01*
X272496837Y-199316680D01*
X272342995Y-199086808D01*
X272286613Y-198805662D01*
X272286613Y-196369279D01*
X272343934Y-196089188D01*
X272497991Y-195860385D01*
X272725968Y-195705769D01*
X273005047Y-195648241D01*
X277968472Y-195128040D01*
X276124821Y-195128040D01*
X276728436Y-194505774D01*
X276834636Y-194297390D01*
X276810449Y-194064591D01*
X276662075Y-193885215D01*
X276439751Y-193817661D01*
X275747561Y-193817661D01*
X275747561Y-193103208D01*
X278949348Y-193103208D01*
X279078928Y-193068361D01*
X279173788Y-192973157D01*
X279208509Y-192843107D01*
X279173788Y-192713057D01*
X279078928Y-192617854D01*
X278949348Y-192583007D01*
X272027452Y-192583007D01*
X271844198Y-192659188D01*
X271768291Y-192843107D01*
X271844198Y-193027026D01*
X272027452Y-193103208D01*
X275229239Y-193103208D01*
X275229239Y-193817661D01*
X274218839Y-193817661D01*
X274089259Y-193852508D01*
X273994399Y-193947711D01*
X273959678Y-194077761D01*
X273994399Y-194207811D01*
X274089259Y-194303015D01*
X274218839Y-194337862D01*
X276167468Y-194337862D01*
X275399826Y-195128040D01*
X273005047Y-195128040D01*
X272755798Y-195153258D01*
X272523646Y-195225583D01*
X272130529Y-195491590D01*
X271865482Y-195886133D01*
X271793418Y-196119126D01*
X271768291Y-196369279D01*
X271768291Y-198805662D01*
X271793395Y-199056036D01*
X271865406Y-199289293D01*
X272130329Y-199684517D01*
X272523422Y-199951446D01*
X272755645Y-200024335D01*
X273005047Y-200050193D01*
X277968472Y-200050193D01*
X278218094Y-200024358D01*
X278450582Y-199951522D01*
X278844354Y-199684718D01*
X279110195Y-199289518D01*
X279182767Y-199056188D01*
X279208509Y-198805662D01*
X279208509Y-196369279D01*
X279182744Y-196118973D01*
X279110118Y-195885908D01*
X278844153Y-195491390D01*
X278450356Y-195225507D01*
X278217942Y-195153235D01*
X277968472Y-195128040D01*
G37*
X277968472Y-195128040D02*
X273005047Y-195648241D01*
X277968472Y-195648241D01*
X278248603Y-195704827D01*
X278477645Y-195859227D01*
X278632529Y-196088393D01*
X278690187Y-196369279D01*
X278690187Y-198805662D01*
X278632608Y-199087034D01*
X278477848Y-199316884D01*
X278248829Y-199472205D01*
X277968472Y-199529992D01*
X273005047Y-199529992D01*
X272725176Y-199472126D01*
X272496837Y-199316680D01*
X272342995Y-199086808D01*
X272286613Y-198805662D01*
X272286613Y-196369279D01*
X272343934Y-196089188D01*
X272497991Y-195860385D01*
X272725968Y-195705769D01*
X273005047Y-195648241D01*
X277968472Y-195128040D01*
X276124821Y-195128040D01*
X276728436Y-194505774D01*
X276834636Y-194297390D01*
X276810449Y-194064591D01*
X276662075Y-193885215D01*
X276439751Y-193817661D01*
X275747561Y-193817661D01*
X275747561Y-193103208D01*
X278949348Y-193103208D01*
X279078928Y-193068361D01*
X279173788Y-192973157D01*
X279208509Y-192843107D01*
X279173788Y-192713057D01*
X279078928Y-192617854D01*
X278949348Y-192583007D01*
X272027452Y-192583007D01*
X271844198Y-192659188D01*
X271768291Y-192843107D01*
X271844198Y-193027026D01*
X272027452Y-193103208D01*
X275229239Y-193103208D01*
X275229239Y-193817661D01*
X274218839Y-193817661D01*
X274089259Y-193852508D01*
X273994399Y-193947711D01*
X273959678Y-194077761D01*
X273994399Y-194207811D01*
X274089259Y-194303015D01*
X274218839Y-194337862D01*
X276167468Y-194337862D01*
X275399826Y-195128040D01*
X273005047Y-195128040D01*
X272755798Y-195153258D01*
X272523646Y-195225583D01*
X272130529Y-195491590D01*
X271865482Y-195886133D01*
X271793418Y-196119126D01*
X271768291Y-196369279D01*
X271768291Y-198805662D01*
X271793395Y-199056036D01*
X271865406Y-199289293D01*
X272130329Y-199684517D01*
X272523422Y-199951446D01*
X272755645Y-200024335D01*
X273005047Y-200050193D01*
X277968472Y-200050193D01*
X278218094Y-200024358D01*
X278450582Y-199951522D01*
X278844354Y-199684718D01*
X279110195Y-199289518D01*
X279182767Y-199056188D01*
X279208509Y-198805662D01*
X279208509Y-196369279D01*
X279182744Y-196118973D01*
X279110118Y-195885908D01*
X278844153Y-195491390D01*
X278450356Y-195225507D01*
X278217942Y-195153235D01*
X277968472Y-195128040D01*
G36*
X276708753Y-196026868D02*
G01*
X273871716Y-196630492D01*
X274268047Y-196550361D01*
X275527766Y-196550361D01*
X273690676Y-198446789D01*
X273505309Y-198282658D01*
X273366359Y-198081671D01*
X273278850Y-197853352D01*
X273247805Y-197607225D01*
X273247805Y-197571008D01*
X273328924Y-197173501D01*
X273547785Y-196849101D01*
X273871716Y-196630492D01*
X276708753Y-196026868D01*
X274231961Y-198624580D01*
X276246200Y-196550361D01*
X276702192Y-196550361D01*
X276826852Y-196550361D01*
X274829016Y-198627872D01*
X274238522Y-198627872D01*
X274231962Y-198624580D01*
X274231961Y-198624580D01*
X276708753Y-196026868D01*
X277345175Y-196780830D01*
X277505424Y-196942090D01*
X277624710Y-197132618D01*
X277699363Y-197344797D01*
X277725715Y-197571008D01*
X277719155Y-197607225D01*
X277719154Y-197607225D01*
X277641742Y-197997810D01*
X277421293Y-198328932D01*
X277091367Y-198550180D01*
X276702193Y-198627872D01*
X275554011Y-198627872D01*
X277345175Y-196780830D01*
X276708753Y-196026868D01*
X274268047Y-196026868D01*
X273958262Y-196058790D01*
X273669738Y-196149084D01*
X273408626Y-196291577D01*
X273181076Y-196480097D01*
X272993236Y-196708472D01*
X272851258Y-196970531D01*
X272761290Y-197260100D01*
X272729483Y-197571008D01*
X272729483Y-197607225D01*
X272761313Y-197917913D01*
X272851334Y-198207217D01*
X272993378Y-198468962D01*
X273181276Y-198696969D01*
X273408861Y-198885061D01*
X273669963Y-199027061D01*
X273958414Y-199116791D01*
X274268047Y-199148072D01*
X276708753Y-199148072D01*
X277017877Y-199116218D01*
X277305785Y-199026116D01*
X277566339Y-198883927D01*
X277793405Y-198695808D01*
X277980844Y-198467920D01*
X278122519Y-198206421D01*
X278212296Y-197917470D01*
X278244036Y-197607225D01*
X278244036Y-197571008D01*
X278212867Y-197260253D01*
X278123461Y-196970756D01*
X277981974Y-196708708D01*
X277794562Y-196480299D01*
X277567378Y-196291719D01*
X277306579Y-196149161D01*
X277018319Y-196058813D01*
X276708753Y-196026868D01*
G37*
X276708753Y-196026868D02*
X273871716Y-196630492D01*
X274268047Y-196550361D01*
X275527766Y-196550361D01*
X273690676Y-198446789D01*
X273505309Y-198282658D01*
X273366359Y-198081671D01*
X273278850Y-197853352D01*
X273247805Y-197607225D01*
X273247805Y-197571008D01*
X273328924Y-197173501D01*
X273547785Y-196849101D01*
X273871716Y-196630492D01*
X276708753Y-196026868D01*
X274231961Y-198624580D01*
X276246200Y-196550361D01*
X276702192Y-196550361D01*
X276826852Y-196550361D01*
X274829016Y-198627872D01*
X274238522Y-198627872D01*
X274231962Y-198624580D01*
X274231961Y-198624580D01*
X276708753Y-196026868D01*
X277345175Y-196780830D01*
X277505424Y-196942090D01*
X277624710Y-197132618D01*
X277699363Y-197344797D01*
X277725715Y-197571008D01*
X277719155Y-197607225D01*
X277719154Y-197607225D01*
X277641742Y-197997810D01*
X277421293Y-198328932D01*
X277091367Y-198550180D01*
X276702193Y-198627872D01*
X275554011Y-198627872D01*
X277345175Y-196780830D01*
X276708753Y-196026868D01*
X274268047Y-196026868D01*
X273958262Y-196058790D01*
X273669738Y-196149084D01*
X273408626Y-196291577D01*
X273181076Y-196480097D01*
X272993236Y-196708472D01*
X272851258Y-196970531D01*
X272761290Y-197260100D01*
X272729483Y-197571008D01*
X272729483Y-197607225D01*
X272761313Y-197917913D01*
X272851334Y-198207217D01*
X272993378Y-198468962D01*
X273181276Y-198696969D01*
X273408861Y-198885061D01*
X273669963Y-199027061D01*
X273958414Y-199116791D01*
X274268047Y-199148072D01*
X276708753Y-199148072D01*
X277017877Y-199116218D01*
X277305785Y-199026116D01*
X277566339Y-198883927D01*
X277793405Y-198695808D01*
X277980844Y-198467920D01*
X278122519Y-198206421D01*
X278212296Y-197917470D01*
X278244036Y-197607225D01*
X278244036Y-197571008D01*
X278212867Y-197260253D01*
X278123461Y-196970756D01*
X277981974Y-196708708D01*
X277794562Y-196480299D01*
X277567378Y-196291719D01*
X277306579Y-196149161D01*
X277018319Y-196058813D01*
X276708753Y-196026868D01*
D12*
X314480900Y-139252000D02*
X317140900Y-139252000D01*
X314480900Y-134112000D02*
X314480900Y-139252000D01*
X317140900Y-134112000D02*
X317140900Y-139252000D01*
X314480900Y-134112000D02*
X317140900Y-134112000D01*
X314480900Y-132842000D02*
X314480900Y-131512000D01*
X314480900Y-131512000D02*
X315810900Y-131512000D01*
D13*
X314104280Y-113895095D02*
X313104280Y-113895095D01*
X313104280Y-113657000D01*
X313151900Y-113514142D01*
X313247138Y-113418904D01*
X313342376Y-113371285D01*
X313532852Y-113323666D01*
X313675709Y-113323666D01*
X313866185Y-113371285D01*
X313961423Y-113418904D01*
X314056661Y-113514142D01*
X314104280Y-113657000D01*
X314104280Y-113895095D01*
X314104280Y-112371285D02*
X314104280Y-112942714D01*
X314104280Y-112657000D02*
X313104280Y-112657000D01*
X313247138Y-112752238D01*
X313342376Y-112847476D01*
X313389995Y-112942714D01*
X314040780Y-117133595D02*
X313040780Y-117133595D01*
X313040780Y-116895500D01*
X313088400Y-116752642D01*
X313183638Y-116657404D01*
X313278876Y-116609785D01*
X313469352Y-116562166D01*
X313612209Y-116562166D01*
X313802685Y-116609785D01*
X313897923Y-116657404D01*
X313993161Y-116752642D01*
X314040780Y-116895500D01*
X314040780Y-117133595D01*
X313136019Y-116181214D02*
X313088400Y-116133595D01*
X313040780Y-116038357D01*
X313040780Y-115800261D01*
X313088400Y-115705023D01*
X313136019Y-115657404D01*
X313231257Y-115609785D01*
X313326495Y-115609785D01*
X313469352Y-115657404D01*
X314040780Y-116228833D01*
X314040780Y-115609785D01*
X314040780Y-120245095D02*
X313040780Y-120245095D01*
X313040780Y-120007000D01*
X313088400Y-119864142D01*
X313183638Y-119768904D01*
X313278876Y-119721285D01*
X313469352Y-119673666D01*
X313612209Y-119673666D01*
X313802685Y-119721285D01*
X313897923Y-119768904D01*
X313993161Y-119864142D01*
X314040780Y-120007000D01*
X314040780Y-120245095D01*
X313040780Y-119340333D02*
X313040780Y-118721285D01*
X313421733Y-119054619D01*
X313421733Y-118911761D01*
X313469352Y-118816523D01*
X313516971Y-118768904D01*
X313612209Y-118721285D01*
X313850304Y-118721285D01*
X313945542Y-118768904D01*
X313993161Y-118816523D01*
X314040780Y-118911761D01*
X314040780Y-119197476D01*
X313993161Y-119292714D01*
X313945542Y-119340333D01*
X175523161Y-196325785D02*
X175570780Y-196182928D01*
X175570780Y-195944833D01*
X175523161Y-195849595D01*
X175475542Y-195801976D01*
X175380304Y-195754357D01*
X175285066Y-195754357D01*
X175189828Y-195801976D01*
X175142209Y-195849595D01*
X175094590Y-195944833D01*
X175046971Y-196135309D01*
X174999352Y-196230547D01*
X174951733Y-196278166D01*
X174856495Y-196325785D01*
X174761257Y-196325785D01*
X174666019Y-196278166D01*
X174618400Y-196230547D01*
X174570780Y-196135309D01*
X174570780Y-195897214D01*
X174618400Y-195754357D01*
X175570780Y-195325785D02*
X174570780Y-195325785D01*
X175570780Y-194897214D02*
X175046971Y-194897214D01*
X174951733Y-194944833D01*
X174904114Y-195040071D01*
X174904114Y-195182928D01*
X174951733Y-195278166D01*
X174999352Y-195325785D01*
X175570780Y-194278166D02*
X175523161Y-194373404D01*
X175475542Y-194421023D01*
X175380304Y-194468642D01*
X175094590Y-194468642D01*
X174999352Y-194421023D01*
X174951733Y-194373404D01*
X174904114Y-194278166D01*
X174904114Y-194135309D01*
X174951733Y-194040071D01*
X174999352Y-193992452D01*
X175094590Y-193944833D01*
X175380304Y-193944833D01*
X175475542Y-193992452D01*
X175523161Y-194040071D01*
X175570780Y-194135309D01*
X175570780Y-194278166D01*
X175570780Y-193516261D02*
X174904114Y-193516261D01*
X175094590Y-193516261D02*
X174999352Y-193468642D01*
X174951733Y-193421023D01*
X174904114Y-193325785D01*
X174904114Y-193230547D01*
X174904114Y-193040071D02*
X174904114Y-192659119D01*
X174570780Y-192897214D02*
X175427923Y-192897214D01*
X175523161Y-192849595D01*
X175570780Y-192754357D01*
X175570780Y-192659119D01*
X174904114Y-191563880D02*
X175904114Y-191563880D01*
X174951733Y-191563880D02*
X174904114Y-191468642D01*
X174904114Y-191278166D01*
X174951733Y-191182928D01*
X174999352Y-191135309D01*
X175094590Y-191087690D01*
X175380304Y-191087690D01*
X175475542Y-191135309D01*
X175523161Y-191182928D01*
X175570780Y-191278166D01*
X175570780Y-191468642D01*
X175523161Y-191563880D01*
X175570780Y-190659119D02*
X174904114Y-190659119D01*
X174570780Y-190659119D02*
X174618400Y-190706738D01*
X174666019Y-190659119D01*
X174618400Y-190611500D01*
X174570780Y-190659119D01*
X174666019Y-190659119D01*
X174904114Y-190182928D02*
X175570780Y-190182928D01*
X174999352Y-190182928D02*
X174951733Y-190135309D01*
X174904114Y-190040071D01*
X174904114Y-189897214D01*
X174951733Y-189801976D01*
X175046971Y-189754357D01*
X175570780Y-189754357D01*
X175523161Y-189325785D02*
X175570780Y-189230547D01*
X175570780Y-189040071D01*
X175523161Y-188944833D01*
X175427923Y-188897214D01*
X175380304Y-188897214D01*
X175285066Y-188944833D01*
X175237447Y-189040071D01*
X175237447Y-189182928D01*
X175189828Y-189278166D01*
X175094590Y-189325785D01*
X175046971Y-189325785D01*
X174951733Y-189278166D01*
X174904114Y-189182928D01*
X174904114Y-189040071D01*
X174951733Y-188944833D01*
X176404114Y-195492452D02*
X176404114Y-195111500D01*
X176070780Y-195349595D02*
X176927923Y-195349595D01*
X177023161Y-195301976D01*
X177070780Y-195206738D01*
X177070780Y-195111500D01*
X177070780Y-194635309D02*
X177023161Y-194730547D01*
X176975542Y-194778166D01*
X176880304Y-194825785D01*
X176594590Y-194825785D01*
X176499352Y-194778166D01*
X176451733Y-194730547D01*
X176404114Y-194635309D01*
X176404114Y-194492452D01*
X176451733Y-194397214D01*
X176499352Y-194349595D01*
X176594590Y-194301976D01*
X176880304Y-194301976D01*
X176975542Y-194349595D01*
X177023161Y-194397214D01*
X177070780Y-194492452D01*
X177070780Y-194635309D01*
X177070780Y-193111500D02*
X176404114Y-193111500D01*
X176594590Y-193111500D02*
X176499352Y-193063880D01*
X176451733Y-193016261D01*
X176404114Y-192921023D01*
X176404114Y-192825785D01*
X177023161Y-192111500D02*
X177070780Y-192206738D01*
X177070780Y-192397214D01*
X177023161Y-192492452D01*
X176927923Y-192540071D01*
X176546971Y-192540071D01*
X176451733Y-192492452D01*
X176404114Y-192397214D01*
X176404114Y-192206738D01*
X176451733Y-192111500D01*
X176546971Y-192063880D01*
X176642209Y-192063880D01*
X176737447Y-192540071D01*
X177023161Y-191682928D02*
X177070780Y-191587690D01*
X177070780Y-191397214D01*
X177023161Y-191301976D01*
X176927923Y-191254357D01*
X176880304Y-191254357D01*
X176785066Y-191301976D01*
X176737447Y-191397214D01*
X176737447Y-191540071D01*
X176689828Y-191635309D01*
X176594590Y-191682928D01*
X176546971Y-191682928D01*
X176451733Y-191635309D01*
X176404114Y-191540071D01*
X176404114Y-191397214D01*
X176451733Y-191301976D01*
X177023161Y-190444833D02*
X177070780Y-190540071D01*
X177070780Y-190730547D01*
X177023161Y-190825785D01*
X176927923Y-190873404D01*
X176546971Y-190873404D01*
X176451733Y-190825785D01*
X176404114Y-190730547D01*
X176404114Y-190540071D01*
X176451733Y-190444833D01*
X176546971Y-190397214D01*
X176642209Y-190397214D01*
X176737447Y-190873404D01*
X176404114Y-190111500D02*
X176404114Y-189730547D01*
X176070780Y-189968642D02*
X176927923Y-189968642D01*
X177023161Y-189921023D01*
X177070780Y-189825785D01*
X177070780Y-189730547D01*
M02*
