M48
; DRILL file {KiCad (6.0.6)} date Sun Jul 24 17:02:13 2022
; FORMAT={-:-/ absolute / metric / decimal}
; #@! TF.CreationDate,2022-07-24T17:02:13+01:00
; #@! TF.GenerationSoftware,Kicad,Pcbnew,(6.0.6)
; #@! TF.FileFunction,Plated,1,2,PTH
FMAT,2
METRIC
; #@! TA.AperFunction,Plated,PTH,ViaDrill
T1C0.400
; #@! TA.AperFunction,Plated,PTH,ComponentDrill
T2C0.600
; #@! TA.AperFunction,Plated,PTH,ComponentDrill
T3C0.800
; #@! TA.AperFunction,Plated,PTH,ComponentDrill
T4C1.000
; #@! TA.AperFunction,Plated,PTH,ComponentDrill
T5C1.040
; #@! TA.AperFunction,Plated,PTH,ComponentDrill
T6C1.470
%
G90
G05
T1
X36.014Y-125.857
X38.395Y-143.716
X38.395Y-162.766
X38.395Y-181.816
X49.936Y-183.515
X50.19Y-197.739
X64.589Y-181.816
X199.288Y-112.776
X204.876Y-109.093
X205.819Y-112.575
X209.194Y-109.601
X212.319Y-110.825
X214.02Y-119.253
X214.02Y-120.269
X214.02Y-123.063
X215.319Y-117.825
X215.569Y-109.075
X216.619Y-117.125
X217.322Y-119.253
X217.322Y-120.269
X218.211Y-112.014
X218.846Y-142.113
X219.354Y-123.063
X219.608Y-109.093
X223.926Y-161.163
X224.019Y-107.998
X229.133Y-167.259
X233.324Y-180.213
X242.367Y-200.177
X269.392Y-188.976
X272.059Y-146.05
X272.313Y-188.849
X272.948Y-123.063
X283.108Y-147.828
X283.82Y-190.983
X284.632Y-174.371
X286.664Y-122.809
X286.766Y-178.384
X287.045Y-162.814
X287.579Y-183.109
X288.569Y-150.495
X289.712Y-162.306
X289.712Y-163.322
X289.712Y-164.338
X289.839Y-149.86
X293.903Y-172.085
X293.903Y-175.387
X294.691Y-177.267
X295.046Y-148.209
X295.351Y-190.83
X295.427Y-129.667
X295.935Y-147.828
X296.062Y-184.404
X296.57Y-155.321
X296.57Y-156.337
X296.824Y-179.832
X296.824Y-182.372
X297.459Y-154.051
X297.586Y-193.802
X298.348Y-180.213
X301.396Y-181.61
X302.285Y-130.81
X303.428Y-173.609
X304.952Y-121.285
X308.0Y-137.668
X308.0Y-150.622
X308.889Y-156.845
X309.143Y-159.004
X309.143Y-160.147
X309.143Y-161.29
X309.651Y-169.926
X309.905Y-111.633
X310.794Y-169.926
X311.048Y-188.468
X311.81Y-169.926
X312.064Y-127.508
X312.064Y-145.669
X312.776Y-108.534
X312.826Y-169.926
X314.35Y-172.847
X314.858Y-129.921
X315.366Y-160.401
X315.62Y-163.195
X316.509Y-152.4
X316.89Y-144.907
X317.652Y-159.766
X318.287Y-179.959
X318.414Y-112.268
X318.541Y-115.824
X318.541Y-119.38
X318.795Y-162.179
X319.557Y-153.416
X320.192Y-123.317
X320.573Y-152.527
X320.7Y-179.324
X320.954Y-180.467
X321.081Y-141.478
X321.335Y-154.178
X321.462Y-112.649
X321.716Y-155.067
X321.97Y-139.954
X321.97Y-156.083
X322.351Y-187.833
X322.605Y-156.845
X323.113Y-137.795
X323.24Y-121.539
X323.748Y-124.206
X324.256Y-171.069
X325.526Y-123.317
X338.48Y-123.063
X338.988Y-142.113
X340.258Y-204.089
X340.766Y-162.941
X340.766Y-178.943
X340.766Y-186.309
X359.864Y-187.769
X363.436Y-181.816
X373.913Y-175.641
X374.548Y-182.753
X376.784Y-141.859
X377.342Y-137.033
X378.419Y-178.125
X380.105Y-144.907
X380.619Y-176.125
X384.019Y-141.325
X385.47Y-180.594
X387.248Y-124.666
X393.202Y-107.998
T3
X172.618Y-191.611
X172.618Y-193.611
T4
X315.811Y-132.842
X315.811Y-135.382
X315.811Y-137.922
T5
X33.549Y-121.405
X35.929Y-159.505
X35.929Y-178.555
X35.929Y-197.605
X36.089Y-121.405
X38.31Y-197.605
X38.311Y-140.455
X38.469Y-159.505
X38.469Y-178.555
X38.469Y-197.605
X40.691Y-159.505
X40.85Y-197.605
X40.851Y-140.455
X43.231Y-159.505
X45.454Y-178.555
X47.994Y-178.555
X52.599Y-121.405
X55.139Y-121.405
X57.359Y-178.555
X57.36Y-197.605
X59.741Y-197.605
X59.899Y-178.555
X59.9Y-197.605
X62.121Y-140.455
X62.281Y-197.605
X64.661Y-140.455
X66.884Y-159.505
X66.885Y-197.605
X69.424Y-159.505
X69.425Y-197.605
X71.649Y-121.405
X74.189Y-121.405
X76.409Y-178.555
X78.791Y-197.605
X78.949Y-178.555
X81.171Y-140.455
X81.331Y-197.605
X83.554Y-197.605
X83.711Y-140.455
X85.934Y-159.505
X86.094Y-197.605
X88.474Y-159.505
X90.699Y-121.405
X93.239Y-121.405
X95.459Y-178.555
X97.999Y-178.555
X100.221Y-140.455
X102.761Y-140.455
X104.984Y-159.505
X107.524Y-159.505
X109.749Y-121.405
X112.289Y-121.405
X114.509Y-178.555
X116.897Y-197.612
X117.049Y-178.555
X119.271Y-140.455
X119.437Y-197.612
X121.66Y-197.612
X121.811Y-140.455
X124.034Y-159.505
X124.2Y-197.612
X126.574Y-159.505
X128.799Y-121.405
X131.339Y-121.405
X133.559Y-178.555
X136.099Y-178.555
X138.321Y-140.455
X140.861Y-140.455
X143.089Y-159.505
X145.629Y-159.505
X147.848Y-197.605
X147.849Y-121.405
X150.235Y-197.612
X150.388Y-197.605
X150.389Y-121.405
X152.609Y-178.555
X152.775Y-197.612
X154.991Y-197.605
X155.149Y-178.555
X157.371Y-140.455
X157.373Y-197.605
X157.531Y-197.605
X159.911Y-140.455
X159.913Y-197.605
X160.26Y-197.612
X162.139Y-159.505
X162.8Y-197.612
X164.679Y-159.505
X166.899Y-121.405
X169.439Y-121.405
X171.659Y-178.555
X174.199Y-178.555
X176.421Y-140.455
X178.961Y-140.455
X181.189Y-159.505
X183.729Y-159.505
X185.949Y-121.405
X188.335Y-197.612
X188.489Y-121.405
X190.709Y-178.555
X190.875Y-197.612
X193.097Y-197.612
X193.249Y-178.555
X195.471Y-140.455
X195.637Y-197.612
X198.011Y-140.455
X200.239Y-159.505
X202.779Y-159.505
X204.999Y-121.405
X207.539Y-121.405
X209.759Y-178.555
X212.299Y-178.555
X214.521Y-140.455
X216.904Y-197.605
X217.061Y-140.455
X219.289Y-159.505
X219.444Y-197.605
X221.829Y-159.505
X224.049Y-121.405
X226.589Y-121.405
X228.809Y-178.555
X228.81Y-197.605
X231.349Y-178.555
X231.35Y-197.605
X233.571Y-140.455
X236.111Y-140.455
X238.335Y-197.605
X238.339Y-159.505
X240.875Y-197.605
X240.879Y-159.505
X243.099Y-121.405
X245.639Y-121.405
X247.859Y-178.555
X250.399Y-178.555
X252.621Y-140.455
X255.161Y-140.455
X257.385Y-197.605
X257.389Y-159.505
X259.766Y-197.605
X259.925Y-197.605
X259.929Y-159.505
X262.149Y-121.405
X262.306Y-197.605
X264.689Y-121.405
X271.67Y-140.455
X274.052Y-178.555
X274.21Y-140.455
X276.439Y-159.505
X276.592Y-178.555
X278.979Y-159.505
X281.199Y-121.405
X283.739Y-121.405
X285.959Y-202.365
X288.345Y-159.505
X288.499Y-202.365
X290.723Y-121.405
X290.885Y-159.505
X293.263Y-121.405
X295.483Y-139.455
X297.87Y-149.98
X298.023Y-139.455
X300.249Y-121.405
X300.41Y-149.98
X302.789Y-121.405
X304.849Y-183.205
X305.009Y-202.365
X307.389Y-183.205
X307.549Y-202.365
X324.059Y-202.365
X326.599Y-202.365
X328.829Y-121.405
X328.829Y-140.455
X328.829Y-159.505
X328.829Y-178.555
X331.369Y-121.405
X331.369Y-140.455
X331.369Y-159.505
X331.369Y-178.555
X347.879Y-121.405
X347.879Y-140.455
X347.879Y-159.505
X347.879Y-178.555
X347.879Y-197.605
X350.419Y-121.405
X350.419Y-140.455
X350.419Y-159.505
X350.419Y-178.555
X350.419Y-197.605
X366.929Y-121.405
X366.929Y-140.455
X366.929Y-159.505
X366.929Y-178.555
X366.929Y-197.605
X369.469Y-121.405
X369.469Y-140.455
X369.469Y-159.505
X369.469Y-178.555
X369.469Y-197.605
X385.979Y-121.405
X385.979Y-140.452
X385.979Y-159.505
X385.979Y-178.555
X385.979Y-197.605
X388.519Y-121.405
X388.519Y-140.452
X388.519Y-159.505
X388.519Y-178.555
X388.519Y-197.605
X392.329Y-143.625
X392.329Y-146.165
X392.329Y-181.725
X392.329Y-184.265
T6
X31.009Y-113.785
X33.389Y-151.885
X33.389Y-170.935
X33.389Y-189.985
X35.77Y-189.985
X35.771Y-132.835
X37.359Y-111.245
X38.151Y-151.885
X39.739Y-149.345
X39.739Y-168.395
X39.739Y-187.445
X42.12Y-187.445
X42.121Y-130.295
X42.914Y-170.935
X44.501Y-149.345
X49.264Y-168.395
X50.059Y-113.785
X54.819Y-170.935
X54.82Y-189.985
X56.409Y-111.245
X57.201Y-189.985
X59.581Y-132.835
X61.169Y-168.395
X61.17Y-187.445
X63.551Y-187.445
X64.344Y-151.885
X64.345Y-189.985
X65.931Y-130.295
X69.109Y-113.785
X70.694Y-149.345
X70.695Y-187.445
X73.869Y-170.935
X75.459Y-111.245
X76.251Y-189.985
X78.631Y-132.835
X80.219Y-168.395
X81.014Y-189.985
X82.601Y-187.445
X83.394Y-151.885
X84.981Y-130.295
X87.364Y-187.445
X88.159Y-113.785
X89.744Y-149.345
X92.919Y-170.935
X94.509Y-111.245
X97.681Y-132.835
X99.269Y-168.395
X102.444Y-151.885
X104.031Y-130.295
X107.209Y-113.785
X108.794Y-149.345
X111.969Y-170.935
X113.559Y-111.245
X114.357Y-189.992
X116.731Y-132.835
X118.319Y-168.395
X119.12Y-189.992
X120.707Y-187.452
X121.494Y-151.885
X123.081Y-130.295
X125.47Y-187.452
X126.259Y-113.785
X127.844Y-149.345
X131.019Y-170.935
X132.609Y-111.245
X135.781Y-132.835
X137.369Y-168.395
X140.549Y-151.885
X142.131Y-130.295
X145.308Y-189.985
X145.309Y-113.785
X146.899Y-149.345
X147.695Y-189.992
X150.069Y-170.935
X151.658Y-187.445
X151.659Y-111.245
X152.451Y-189.985
X154.045Y-187.452
X154.831Y-132.835
X154.833Y-189.985
X156.419Y-168.395
X157.22Y-189.992
X158.801Y-187.445
X159.599Y-151.885
X161.181Y-130.295
X161.183Y-187.445
X163.57Y-187.452
X164.359Y-113.785
X165.949Y-149.345
X169.119Y-170.935
X170.709Y-111.245
X173.881Y-132.835
X175.469Y-168.395
X178.649Y-151.885
X180.231Y-130.295
X183.409Y-113.785
X184.999Y-149.345
X185.795Y-189.992
X188.169Y-170.935
X189.759Y-111.245
X190.557Y-189.992
X192.145Y-187.452
X192.931Y-132.835
X194.519Y-168.395
X196.907Y-187.452
X197.699Y-151.885
X199.281Y-130.295
X202.459Y-113.785
X204.049Y-149.345
X207.219Y-170.935
X208.809Y-111.245
X211.981Y-132.835
X213.569Y-168.395
X214.364Y-189.985
X216.749Y-151.885
X218.331Y-130.295
X220.714Y-187.445
X221.509Y-113.785
X223.099Y-149.345
X226.269Y-170.935
X226.27Y-189.985
X227.859Y-111.245
X231.031Y-132.835
X232.619Y-168.395
X232.62Y-187.445
X235.795Y-189.985
X235.799Y-151.885
X237.381Y-130.295
X240.559Y-113.785
X242.145Y-187.445
X242.149Y-149.345
X245.319Y-170.935
X246.909Y-111.245
X250.081Y-132.835
X251.669Y-168.395
X254.845Y-189.985
X254.849Y-151.885
X256.431Y-130.295
X257.226Y-189.985
X259.609Y-113.785
X261.195Y-187.445
X261.199Y-149.345
X263.576Y-187.445
X265.959Y-111.245
X269.13Y-132.835
X271.512Y-170.935
X273.899Y-151.885
X275.48Y-130.295
X277.862Y-168.395
X278.659Y-113.785
X280.249Y-149.345
X283.419Y-194.745
X285.009Y-111.245
X285.805Y-151.885
X288.183Y-113.785
X289.769Y-192.205
X292.155Y-149.345
X292.943Y-132.835
X294.533Y-111.245
X295.33Y-142.36
X297.709Y-113.785
X299.293Y-130.295
X301.68Y-139.82
X302.309Y-175.585
X302.469Y-194.745
X304.059Y-111.245
X308.659Y-173.045
X308.819Y-192.205
X321.519Y-194.745
X326.289Y-113.785
X326.289Y-132.835
X326.289Y-151.885
X326.289Y-170.935
X327.869Y-192.205
X332.639Y-111.245
X332.639Y-130.295
X332.639Y-149.345
X332.639Y-168.395
X345.339Y-113.785
X345.339Y-132.835
X345.339Y-151.885
X345.339Y-170.935
X345.339Y-189.985
X351.689Y-111.245
X351.689Y-130.295
X351.689Y-149.345
X351.689Y-168.395
X351.689Y-187.445
X364.389Y-113.785
X364.389Y-132.835
X364.389Y-151.885
X364.389Y-170.935
X364.389Y-189.985
X370.739Y-111.245
X370.739Y-130.295
X370.739Y-149.345
X370.739Y-168.395
X370.739Y-187.445
X382.169Y-142.355
X382.169Y-180.455
X383.439Y-113.785
X383.439Y-132.832
X383.439Y-151.885
X383.439Y-170.935
X383.439Y-189.985
X384.709Y-148.705
X384.709Y-186.805
X389.789Y-111.245
X389.789Y-130.292
X389.789Y-149.345
X389.789Y-168.395
X389.789Y-187.445
T2
G00X206.405Y-102.741
M15
G01X206.405Y-103.341
M16
G05
G00X206.405Y-106.671
M15
G01X206.405Y-107.771
M16
G05
G00X215.045Y-102.741
M15
G01X215.045Y-103.341
M16
G05
G00X215.045Y-106.671
M15
G01X215.045Y-107.771
M16
G05
T0
M30
