M48
METRIC,TZ
T1C1.750
T2C3.048
T3C3.988
%
G90
G05
T1
X34.5Y-163.95
X44.66Y-163.95
X32.12Y-106.8
X42.28Y-106.8
X113.08Y-163.95
X123.24Y-163.95
X215.475Y-183.
X225.635Y-183.
X122.605Y-144.9
X132.765Y-144.9
X194.042Y-125.85
X204.202Y-125.85
X136.892Y-125.85
X147.052Y-125.85
X289.294Y-106.8
X299.454Y-106.8
X322.63Y-187.76
X332.79Y-187.76
X198.81Y-144.9
X208.97Y-144.9
X327.4Y-163.95
X337.56Y-163.95
X155.942Y-125.85
X166.102Y-125.85
X365.5Y-125.85
X375.66Y-125.85
X346.45Y-125.85
X356.61Y-125.85
X39.262Y-144.9
X49.422Y-144.9
X44.025Y-163.95
X54.185Y-163.95
X55.931Y-183.
X66.091Y-183.
X70.22Y-106.8
X80.38Y-106.8
X117.843Y-125.85
X128.002Y-125.85
X284.53Y-187.76
X294.69Y-187.76
X79.742Y-125.85
X89.902Y-125.85
X232.142Y-125.85
X242.302Y-125.85
X103.555Y-144.9
X113.715Y-144.9
X279.77Y-106.8
X289.93Y-106.8
X222.62Y-106.8
X232.78Y-106.8
X298.82Y-106.8
X308.98Y-106.8
X213.093Y-125.85
X223.252Y-125.85
X327.4Y-144.9
X337.56Y-144.9
X389.63Y-168.39
X389.63Y-178.55
X60.692Y-125.85
X70.852Y-125.85
X89.27Y-106.8
X99.43Y-106.8
X275.01Y-144.9
X285.17Y-144.9
X98.792Y-125.85
X108.953Y-125.85
X189.28Y-163.95
X199.44Y-163.95
X84.505Y-144.9
X94.665Y-144.9
X270.241Y-125.85
X280.401Y-125.85
X208.33Y-163.95
X218.49Y-163.95
X365.5Y-163.95
X375.66Y-163.95
X174.992Y-125.85
X185.153Y-125.85
X303.58Y-187.76
X313.74Y-187.76
X82.125Y-183.
X92.285Y-183.
X301.522Y-130.295
X301.522Y-140.455
X55.93Y-163.95
X66.09Y-163.95
X146.42Y-106.8
X156.58Y-106.8
X246.43Y-163.95
X256.59Y-163.95
X132.13Y-163.95
X142.29Y-163.95
X155.944Y-183.
X166.104Y-183.
X108.32Y-106.8
X118.48Y-106.8
X260.72Y-106.8
X270.88Y-106.8
X255.956Y-183.
X266.116Y-183.
X365.5Y-106.8
X375.66Y-106.8
X272.623Y-163.95
X282.784Y-163.95
X36.883Y-125.85
X47.042Y-125.85
X153.562Y-183.
X163.722Y-183.
X258.337Y-183.
X268.497Y-183.
X51.17Y-106.8
X61.33Y-106.8
X77.362Y-183.
X87.522Y-183.
X179.76Y-144.9
X189.92Y-144.9
X346.45Y-144.9
X356.61Y-144.9
X127.37Y-106.8
X137.53Y-106.8
X227.381Y-183.
X237.541Y-183.
X384.55Y-163.95
X394.71Y-163.95
X251.192Y-125.85
X261.352Y-125.85
X384.55Y-125.847
X394.71Y-125.847
X217.86Y-144.9
X228.02Y-144.9
X286.916Y-144.9
X297.076Y-144.9
X241.67Y-106.8
X251.83Y-106.8
X365.5Y-183.
X375.66Y-183.
X389.63Y-130.29
X389.63Y-140.45
X58.312Y-183.
X68.472Y-183.
X65.455Y-144.9
X75.615Y-144.9
X227.38Y-163.95
X237.54Y-163.95
X146.419Y-183.
X156.579Y-183.
X151.18Y-163.95
X161.34Y-163.95
X303.42Y-168.6
X313.58Y-168.6
X94.03Y-163.95
X104.19Y-163.95
X165.47Y-106.8
X175.63Y-106.8
X346.45Y-183.
X356.61Y-183.
X170.23Y-163.95
X180.39Y-163.95
X384.55Y-144.9
X394.71Y-144.9
X184.52Y-106.8
X194.68Y-106.8
X384.55Y-183.
X394.71Y-183.
X203.57Y-106.8
X213.73Y-106.8
X346.45Y-106.8
X356.61Y-106.8
X34.5Y-183.
X44.66Y-183.
X65.456Y-183.
X75.617Y-183.
X34.5Y-144.9
X44.66Y-144.9
X294.054Y-125.85
X304.214Y-125.85
X74.98Y-163.95
X85.141Y-163.95
X236.906Y-183.
X247.066Y-183.
X346.45Y-163.95
X356.61Y-163.95
X141.66Y-144.9
X151.82Y-144.9
X255.96Y-144.9
X266.12Y-144.9
X327.4Y-106.8
X337.56Y-106.8
X160.71Y-144.9
X170.87Y-144.9
X384.55Y-106.8
X394.71Y-106.8
X236.91Y-144.9
X247.07Y-144.9
X365.5Y-144.9
X375.66Y-144.9
X327.4Y-125.85
X337.56Y-125.85
X36.881Y-183.
X47.041Y-183.
T2
X280.058Y-137.915
X303.934Y-137.915
X396.615Y-123.432
X396.615Y-147.308
X94.349Y-189.985
X208.649Y-189.985
X282.436Y-99.815
X306.312Y-99.815
X37.167Y-156.965
X61.043Y-156.965
X396.615Y-161.532
X396.615Y-185.408
X308.506Y-123.437
X308.506Y-147.313
X103.874Y-189.985
X199.124Y-189.985
X108.643Y-189.985
X208.642Y-189.985
T3
X37.167Y-172.205
X49.105Y-163.95
X61.043Y-172.205
X61.011Y-183.
X75.3Y-106.8
X122.922Y-125.85
X289.61Y-187.76
X84.822Y-125.85
X237.222Y-125.85
X108.635Y-144.9
X284.85Y-106.8
X227.7Y-106.8
X303.9Y-106.8
X218.172Y-125.85
X332.48Y-144.9
X381.375Y-161.532
X381.375Y-185.408
X389.63Y-173.47
X65.772Y-125.85
X94.35Y-106.8
X280.09Y-144.9
X103.873Y-125.85
X194.36Y-163.95
X89.585Y-144.9
X275.322Y-125.85
X213.41Y-163.95
X370.58Y-163.95
X180.072Y-125.85
X308.66Y-187.76
X87.205Y-183.
X293.267Y-123.437
X293.267Y-147.313
X301.522Y-135.375
X61.01Y-163.95
X151.5Y-106.8
X251.51Y-163.95
X137.21Y-163.95
X103.874Y-174.745
X161.024Y-183.
X199.124Y-174.745
X113.4Y-106.8
X265.8Y-106.8
X261.036Y-183.
X370.58Y-106.8
X277.703Y-163.95
X41.962Y-125.85
X108.643Y-174.745
X158.642Y-183.
X208.642Y-174.745
X263.417Y-183.
X56.25Y-106.8
X82.442Y-183.
X184.84Y-144.9
X351.53Y-144.9
X132.45Y-106.8
X232.462Y-183.
X389.63Y-163.95
X256.272Y-125.85
X389.63Y-125.847
X222.94Y-144.9
X280.058Y-153.155
X291.996Y-144.9
X303.934Y-153.155
X246.75Y-106.8
X370.58Y-183.
X381.375Y-123.432
X381.375Y-147.308
X389.63Y-135.37
X63.392Y-183.
X70.535Y-144.9
X232.46Y-163.95
X94.349Y-174.745
X151.499Y-183.
X208.649Y-174.745
X156.26Y-163.95
X308.5Y-168.6
X99.11Y-163.95
X170.55Y-106.8
X351.53Y-183.
X175.31Y-163.95
X389.63Y-144.9
X189.6Y-106.8
X389.63Y-183.
X208.65Y-106.8
X351.53Y-106.8
X39.58Y-183.
X70.537Y-183.
X39.58Y-144.9
X299.134Y-125.85
X80.06Y-163.95
X241.986Y-183.
X351.53Y-163.95
X146.74Y-144.9
X261.04Y-144.9
X332.48Y-106.8
X165.79Y-144.9
X389.63Y-106.8
X241.99Y-144.9
X370.58Y-144.9
X332.48Y-125.85
X41.962Y-183.
X39.58Y-163.95
X37.2Y-106.8
X118.16Y-163.95
X220.555Y-183.
X127.685Y-144.9
X199.123Y-125.85
X141.972Y-125.85
X282.436Y-115.055
X294.375Y-106.8
X306.312Y-115.055
X327.71Y-187.76
X203.89Y-144.9
X332.48Y-163.95
X161.022Y-125.85
X370.58Y-125.85
X351.53Y-125.85
X44.343Y-144.9
T0
M30
