M48
; DRILL file {KiCad (5.1.0)-1} date 07/17/19 20:21:05
; FORMAT={-:-/ absolute / inch / decimal}
; #@! TF.CreationDate,2019-07-17T20:21:05+01:00
; #@! TF.GenerationSoftware,Kicad,Pcbnew,(5.1.0)-1
; #@! TF.FileFunction,Plated,1,2,PTH
FMAT,2
INCH
T1C0.0157
T2C0.0236
T3C0.0354
T4C0.0394
T5C0.0409
T6C0.0579
%
G90
G05
T1
X1.2772Y-4.955
X1.5897Y-4.9863
X1.5897Y-5.705
X1.681Y-5.27
X1.6835Y-6.4863
X1.7939Y-5.5979
X1.8929Y-7.8519
X2.0119Y-6.3509
X2.071Y-7.1
X2.1582Y-6.4228
X2.7147Y-6.5175
X8.2985Y-4.385
X8.321Y-4.85
X8.5685Y-4.32
X8.616Y-4.42
X8.64Y-4.695
X8.691Y-4.85
X8.776Y-4.295
X9.2834Y-6.3274
X9.5585Y-5.1425
X9.691Y-7.665
X10.002Y-6.386
X10.246Y-5.1113
X10.591Y-6.405
X10.671Y-4.66
X10.821Y-6.37
X10.891Y-7.515
X10.981Y-4.655
X10.996Y-5.1113
X11.026Y-6.18
X11.066Y-6.42
X11.176Y-6.775
X11.181Y-6.245
X11.186Y-6.46
X11.226Y-6.435
X11.246Y-5.5175
X11.3398Y-4.2988
X11.378Y-6.835
X11.482Y-7.023
X11.4885Y-6.835
X11.502Y-6.689
X11.518Y-6.609
X11.526Y-6.835
X11.5635Y-6.6075
X11.601Y-6.835
X11.606Y-6.6075
X11.6285Y-6.6975
X11.638Y-5.941
X11.6485Y-6.6075
X11.654Y-6.449
X11.658Y-6.049
X11.691Y-6.6075
X11.696Y-7.435
X11.7435Y-6.6075
X11.748Y-6.355
X11.7622Y-6.9087
X11.7685Y-6.705
X11.774Y-6.165
X11.8135Y-6.71
X11.842Y-6.093
X11.861Y-6.705
X11.906Y-6.031
X11.921Y-5.63
X11.936Y-7.355
X11.956Y-6.157
X11.964Y-5.995
X11.986Y-5.861
X12.036Y-6.885
X12.056Y-6.287
X12.092Y-6.471
X12.1149Y-4.9361
X12.121Y-5.9325
X12.156Y-5.44
X12.1835Y-7.4238
X12.1874Y-6.0664
X12.208Y-6.283
X12.216Y-4.975
X12.216Y-6.215
X12.241Y-4.765
X12.256Y-5.915
X12.26Y-6.243
X12.29Y-6.213
X12.292Y-6.171
X12.306Y-6.1325
X12.306Y-6.72
X12.331Y-4.3
X12.361Y-5.865
X12.366Y-6.735
X12.385Y-6.141
X12.426Y-5.095
X12.426Y-6.138
X12.466Y-6.08
X12.486Y-5.98
X12.536Y-7.003
X12.5435Y-6.775
X12.5515Y-5.9855
X12.57Y-7.285
X12.586Y-6.775
X12.616Y-6.08
X12.626Y-6.775
X12.64Y-6.495
X12.641Y-5.64
X12.666Y-5.976
X12.666Y-6.774
X12.68Y-5.579
X12.681Y-6.4275
X12.686Y-5.44
X12.686Y-5.633
X12.708Y-6.775
X12.7336Y-5.0424
X12.776Y-7.03
X12.808Y-7.295
X12.811Y-6.925
X12.816Y-7.149
X12.876Y-5.625
X12.876Y-6.385
X12.876Y-7.155
X12.876Y-7.4
X12.951Y-5.11
X13.256Y-8.04
X13.301Y-6.485
X13.356Y-4.98
X13.406Y-4.45
X13.4335Y-7.1738
X13.472Y-7.439
X13.562Y-7.237
X13.5898Y-7.955
X13.746Y-5.775
X13.838Y-5.649
X13.996Y-7.2988
X14.346Y-7.285
X14.832Y-7.145
X14.838Y-6.885
X14.841Y-5.385
X14.861Y-5.595
X14.966Y-6.945
X15.114Y-5.435
X15.116Y-7.085
X15.136Y-4.85
X15.146Y-7.241
X15.456Y-4.285
T3
X12.3826Y-4.4537
X12.4826Y-4.4537
X12.3826Y-4.5797
X12.4826Y-4.5797
X12.3826Y-4.7057
X12.4826Y-4.7057
T4
X4.012Y-7.58
X4.112Y-7.58
X13.296Y-7.325
X13.296Y-7.425
X13.296Y-7.525
X11.521Y-7.135
X11.521Y-7.235
X11.521Y-7.335
X11.621Y-7.135
X11.621Y-7.235
X11.621Y-7.335
T5
X11.6332Y-5.4904
X11.7332Y-5.4904
X5.8208Y-4.7797
X5.9208Y-4.7797
X8.8208Y-4.7797
X8.9208Y-4.7797
X1.602Y-6.2797
X1.702Y-6.2797
X9.3833Y-7.7797
X9.4833Y-7.7797
X6.0082Y-7.0297
X6.1082Y-7.0297
X12.946Y-6.2797
X13.046Y-6.2797
X3.0082Y-7.0297
X3.1082Y-7.0297
X12.0082Y-7.9671
X12.1082Y-7.9671
X6.5708Y-4.7797
X6.6708Y-4.7797
X13.696Y-4.7797
X13.796Y-4.7797
X8.5395Y-7.7797
X8.6395Y-7.7797
X4.3208Y-4.7797
X4.4208Y-4.7797
X14.446Y-6.2797
X14.546Y-6.2797
X13.696Y-7.7797
X13.796Y-7.7797
X7.6957Y-5.5297
X7.7957Y-5.5297
X14.446Y-5.5297
X14.546Y-5.5297
X11.4458Y-4.7797
X11.5458Y-4.7797
X8.0708Y-4.7797
X8.1708Y-4.7797
X7.6022Y-7.78
X7.7023Y-7.78
X1.4145Y-7.7797
X1.5145Y-7.7797
X12.946Y-4.7797
X13.046Y-4.7797
X1.3208Y-4.7797
X1.4208Y-4.7797
X6.1957Y-5.5297
X6.2957Y-5.5297
X3.5708Y-4.7797
X3.6708Y-4.7797
X8.2582Y-7.0297
X8.3582Y-7.0297
X5.8208Y-7.7797
X5.9208Y-7.7797
X2.4457Y-5.5297
X2.5457Y-5.5297
X9.0083Y-7.7797
X9.1083Y-7.7797
X5.9147Y-7.78
X6.0148Y-7.78
X3.2895Y-7.7797
X3.3895Y-7.7797
X10.7895Y-7.0297
X10.8895Y-7.0297
X2.6332Y-6.2797
X2.7332Y-6.2797
X9.9457Y-5.5297
X10.0457Y-5.5297
X4.5082Y-7.0297
X4.6082Y-7.0297
X10.1333Y-7.7797
X10.2333Y-7.7797
X9.0082Y-7.0297
X9.1082Y-7.0297
X4.6957Y-5.5297
X4.7957Y-5.5297
X9.7582Y-7.0297
X9.8582Y-7.0297
X3.3832Y-6.2797
X3.4832Y-6.2797
X10.227Y-7.7797
X10.327Y-7.7797
X6.1958Y-7.7797
X6.2958Y-7.7797
X12.946Y-7.0297
X13.046Y-7.0297
X1.7895Y-7.0297
X1.8895Y-7.0297
X15.446Y-5.6545
X15.446Y-5.7545
X7.1334Y-6.2797
X7.2334Y-6.2797
X13.696Y-5.5297
X13.796Y-5.5297
X15.196Y-5.5296
X15.296Y-5.5296
X7.3208Y-4.7797
X7.4208Y-4.7797
X14.446Y-7.7797
X14.546Y-7.7797
X1.4145Y-7.0297
X1.5145Y-7.0297
X14.446Y-7.0297
X14.546Y-7.0297
X7.8834Y-6.2797
X7.9834Y-6.2797
X15.196Y-7.7797
X15.296Y-7.7797
X2.352Y-7.7797
X2.452Y-7.7797
X11.0708Y-4.7797
X11.1708Y-4.7797
X5.4457Y-5.5297
X5.5457Y-5.5297
X2.6333Y-7.7797
X2.7333Y-7.7797
X13.696Y-6.2797
X13.796Y-6.2797
X7.4147Y-7.78
X7.5148Y-7.78
X1.5083Y-5.5297
X1.6083Y-5.5297
X6.102Y-7.7797
X6.202Y-7.7797
X3.9457Y-5.5297
X4.0457Y-5.5297
X9.3834Y-6.2797
X9.4834Y-6.2797
X12.946Y-5.5297
X13.046Y-5.5297
X4.8832Y-6.2797
X4.9832Y-6.2797
X11.7272Y-5.9047
X11.8272Y-5.9047
X4.7897Y-7.78
X4.8898Y-7.78
X2.2582Y-7.0297
X2.3582Y-7.0297
X8.4457Y-5.5297
X8.5457Y-5.5297
X5.0708Y-4.7797
X5.1708Y-4.7797
X8.6334Y-6.2797
X8.7334Y-6.2797
X2.2583Y-7.7797
X2.3583Y-7.7797
X9.5708Y-4.7797
X9.6708Y-4.7797
X5.2582Y-7.0297
X5.3582Y-7.0297
X12.0019Y-7.2128
X12.1019Y-7.2128
X1.5083Y-7.7797
X1.6083Y-7.7797
X11.2582Y-7.9671
X11.3582Y-7.9671
X3.7582Y-7.0297
X3.8582Y-7.0297
X12.7582Y-7.9671
X12.8582Y-7.9671
X15.446Y-7.1545
X15.446Y-7.2545
X6.7582Y-7.0297
X6.8582Y-7.0297
X14.446Y-4.7797
X14.546Y-4.7797
X10.8834Y-6.2797
X10.9834Y-6.2797
X3.102Y-7.7797
X3.202Y-7.7797
X6.9457Y-5.5297
X7.0457Y-5.5297
X15.196Y-7.0297
X15.296Y-7.0297
X4.6022Y-7.78
X4.7023Y-7.78
X2.8208Y-4.7797
X2.9208Y-4.7797
X15.196Y-4.7797
X15.296Y-4.7797
X7.5082Y-7.0297
X7.6082Y-7.0297
X15.196Y-6.2797
X15.296Y-6.2797
X11.3522Y-6.2797
X11.4522Y-6.2797
X1.4145Y-6.2797
X1.5145Y-6.2797
X6.3834Y-6.2797
X6.4834Y-6.2797
X3.1957Y-5.5297
X3.2957Y-5.5297
X13.696Y-7.0297
X13.796Y-7.0297
X2.0708Y-4.7797
X2.1708Y-4.7797
X10.1334Y-6.2797
X10.2334Y-6.2797
X4.1332Y-6.2797
X4.2332Y-6.2797
X10.3208Y-4.7797
X10.4208Y-4.7797
X9.1957Y-5.5297
X9.2957Y-5.5297
X5.6334Y-6.2797
X5.7334Y-6.2797
X11.8208Y-4.7797
X11.9208Y-4.7797
X6.3094Y-7.78
X6.4094Y-7.78
X10.6957Y-5.5297
X10.7957Y-5.5297
T6
X1.3145Y-7.4797
X1.5645Y-7.3797
X12.846Y-4.4797
X13.096Y-4.3797
X1.2208Y-4.4797
X1.4708Y-4.3797
X6.0957Y-5.2297
X6.3457Y-5.1297
X3.4708Y-4.4797
X3.7208Y-4.3797
X8.1582Y-6.7297
X8.4082Y-6.6297
X5.7208Y-7.4797
X5.9708Y-7.3797
X2.3457Y-5.2297
X2.5957Y-5.1297
X8.9083Y-7.4797
X9.1583Y-7.3797
X5.8148Y-7.48
X6.0648Y-7.38
X3.1895Y-7.4797
X3.4395Y-7.3797
X10.6895Y-6.7297
X10.9395Y-6.6297
X2.5332Y-5.9797
X2.7832Y-5.8797
X9.8457Y-5.2297
X10.0957Y-5.1297
X4.4082Y-6.7297
X4.6582Y-6.6297
X10.0333Y-7.4797
X10.2833Y-7.3797
X8.9082Y-6.7297
X9.1582Y-6.6297
X4.5957Y-5.2297
X4.8457Y-5.1297
X9.6582Y-6.7297
X9.9082Y-6.6297
X3.2832Y-5.9797
X3.5332Y-5.8797
X10.127Y-7.4797
X10.377Y-7.3797
X6.0958Y-7.4797
X6.3458Y-7.3797
X12.846Y-6.7297
X13.096Y-6.6297
X1.6895Y-6.7297
X1.9395Y-6.6297
X15.046Y-5.6045
X15.146Y-5.8545
X7.0334Y-5.9797
X7.2834Y-5.8797
X13.596Y-5.2297
X13.846Y-5.1297
X15.096Y-5.2296
X15.346Y-5.1296
X7.2208Y-4.4797
X7.4708Y-4.3797
X14.346Y-7.4797
X14.596Y-7.3797
X1.3145Y-6.7297
X1.5645Y-6.6297
X14.346Y-6.7297
X14.596Y-6.6297
X7.7834Y-5.9797
X8.0334Y-5.8797
X15.096Y-7.4797
X15.346Y-7.3797
X2.252Y-7.4797
X2.502Y-7.3797
X10.9708Y-4.4797
X11.2208Y-4.3797
X5.3457Y-5.2297
X5.5957Y-5.1297
X2.5333Y-7.4797
X2.7833Y-7.3797
X13.596Y-5.9797
X13.846Y-5.8797
X7.3148Y-7.48
X7.5648Y-7.38
X1.4083Y-5.2297
X1.6583Y-5.1297
X6.002Y-7.4797
X6.252Y-7.3797
X3.8457Y-5.2297
X4.0957Y-5.1297
X9.2834Y-5.9797
X9.5334Y-5.8797
X12.846Y-5.2297
X13.096Y-5.1297
X4.7832Y-5.9797
X5.0332Y-5.8797
X11.6272Y-5.6047
X11.8772Y-5.5047
X4.6898Y-7.48
X4.9398Y-7.38
X2.1582Y-6.7297
X2.4082Y-6.6297
X8.3457Y-5.2297
X8.5957Y-5.1297
X4.9708Y-4.4797
X5.2208Y-4.3797
X8.5334Y-5.9797
X8.7834Y-5.8797
X2.1583Y-7.4797
X2.4083Y-7.3797
X9.4708Y-4.4797
X9.7208Y-4.3797
X5.1582Y-6.7297
X5.4082Y-6.6297
X11.9019Y-6.9128
X12.1519Y-6.8128
X1.4083Y-7.4797
X1.6583Y-7.3797
X11.1582Y-7.6671
X11.4082Y-7.5671
X3.6582Y-6.7297
X3.9082Y-6.6297
X12.6582Y-7.6671
X12.9082Y-7.5671
X15.046Y-7.1045
X15.146Y-7.3545
X6.6582Y-6.7297
X6.9082Y-6.6297
X14.346Y-4.4797
X14.596Y-4.3797
X10.7834Y-5.9797
X11.0334Y-5.8797
X3.002Y-7.4797
X3.252Y-7.3797
X6.8457Y-5.2297
X7.0957Y-5.1297
X15.096Y-6.7297
X15.346Y-6.6297
X4.5023Y-7.48
X4.7523Y-7.38
X2.7208Y-4.4797
X2.9708Y-4.3797
X15.096Y-4.4797
X15.346Y-4.3797
X7.4082Y-6.7297
X7.6582Y-6.6297
X15.096Y-5.9797
X15.346Y-5.8797
X11.2522Y-5.9797
X11.5022Y-5.8797
X1.3145Y-5.9797
X1.5645Y-5.8797
X6.2834Y-5.9797
X6.5334Y-5.8797
X3.0957Y-5.2297
X3.3457Y-5.1297
X13.596Y-6.7297
X13.846Y-6.6297
X1.9708Y-4.4797
X2.2208Y-4.3797
X10.0334Y-5.9797
X10.2834Y-5.8797
X4.0332Y-5.9797
X4.2832Y-5.8797
X10.2208Y-4.4797
X10.4708Y-4.3797
X9.0957Y-5.2297
X9.3457Y-5.1297
X5.5334Y-5.9797
X5.7834Y-5.8797
X11.7208Y-4.4797
X11.9708Y-4.3797
X6.1898Y-7.48
X6.4398Y-7.38
X10.5957Y-5.2297
X10.8457Y-5.1297
X11.5332Y-5.2297
X11.7832Y-5.1297
X5.7208Y-4.4797
X5.9708Y-4.3797
X8.7208Y-4.4797
X8.9708Y-4.3797
X1.502Y-5.9797
X1.752Y-5.8797
X9.2833Y-7.4797
X9.5333Y-7.3797
X5.9082Y-6.7297
X6.1582Y-6.6297
X12.846Y-5.9797
X13.096Y-5.8797
X2.9082Y-6.7297
X3.1582Y-6.6297
X11.9082Y-7.6671
X12.1582Y-7.5671
X6.4708Y-4.4797
X6.7208Y-4.3797
X13.596Y-4.4797
X13.846Y-4.3797
X8.4395Y-7.4797
X8.6895Y-7.3797
X4.2208Y-4.4797
X4.4708Y-4.3797
X14.346Y-5.9797
X14.596Y-5.8797
X13.596Y-7.4797
X13.846Y-7.3797
X7.5957Y-5.2297
X7.8457Y-5.1297
X14.346Y-5.2297
X14.596Y-5.1297
X11.3458Y-4.4797
X11.5958Y-4.3797
X7.9708Y-4.4797
X8.2208Y-4.3797
X7.5023Y-7.48
X7.7523Y-7.38
T2
G00X8.1262Y-4.0449
M15
G01X8.1262Y-4.0685
M16
G05
G00X8.1262Y-4.1996
M15
G01X8.1262Y-4.243
M16
G05
G00X8.4663Y-4.0449
M15
G01X8.4663Y-4.0685
M16
G05
G00X8.4663Y-4.1996
M15
G01X8.4663Y-4.243
M16
G05
T0
M30
