G04 #@! TF.GenerationSoftware,KiCad,Pcbnew,(6.0.6)*
G04 #@! TF.CreationDate,2022-07-24T17:02:04+01:00*
G04 #@! TF.ProjectId,cypher,63797068-6572-42e6-9b69-6361645f7063,rev?*
G04 #@! TF.SameCoordinates,Original*
G04 #@! TF.FileFunction,Soldermask,Top*
G04 #@! TF.FilePolarity,Negative*
%FSLAX46Y46*%
G04 Gerber Fmt 4.6, Leading zero omitted, Abs format (unit mm)*
G04 Created by KiCad (PCBNEW (6.0.6)) date 2022-07-24 17:02:04*
%MOMM*%
%LPD*%
G01*
G04 APERTURE LIST*
G04 Aperture macros list*
%AMRoundRect*
0 Rectangle with rounded corners*
0 $1 Rounding radius*
0 $2 $3 $4 $5 $6 $7 $8 $9 X,Y pos of 4 corners*
0 Add a 4 corners polygon primitive as box body*
4,1,4,$2,$3,$4,$5,$6,$7,$8,$9,$2,$3,0*
0 Add four circle primitives for the rounded corners*
1,1,$1+$1,$2,$3*
1,1,$1+$1,$4,$5*
1,1,$1+$1,$6,$7*
1,1,$1+$1,$8,$9*
0 Add four rect primitives between the rounded corners*
20,1,$1+$1,$2,$3,$4,$5,0*
20,1,$1+$1,$4,$5,$6,$7,0*
20,1,$1+$1,$6,$7,$8,$9,0*
20,1,$1+$1,$8,$9,$2,$3,0*%
G04 Aperture macros list end*
%ADD10R,1.700000X1.700000*%
%ADD11O,1.700000X1.700000*%
%ADD12C,3.987800*%
%ADD13C,3.048000*%
%ADD14C,1.750000*%
%ADD15C,1.350000*%
%ADD16O,1.350000X1.350000*%
%ADD17R,0.700000X0.700000*%
%ADD18RoundRect,0.225000X-0.250000X0.225000X-0.250000X-0.225000X0.250000X-0.225000X0.250000X0.225000X0*%
%ADD19C,0.650000*%
%ADD20O,1.000000X2.100000*%
%ADD21O,1.000000X1.600000*%
G04 APERTURE END LIST*
D10*
X315810900Y-132842000D03*
D11*
X315810900Y-135382000D03*
X315810900Y-137922000D03*
D12*
X58661750Y-181730000D03*
X34785750Y-181730000D03*
D13*
X58661750Y-166490000D03*
D14*
X51803750Y-173475000D03*
D13*
X34785750Y-166490000D03*
D12*
X46723750Y-173475000D03*
D14*
X41643750Y-173475000D03*
X34500250Y-192525000D03*
D12*
X39580250Y-192525000D03*
D14*
X44660250Y-192525000D03*
X32118750Y-154425000D03*
D12*
X37198750Y-154425000D03*
D14*
X42278750Y-154425000D03*
X29738750Y-116325000D03*
D12*
X34818750Y-116325000D03*
D14*
X39898750Y-116325000D03*
X34501250Y-135375000D03*
X44661250Y-135375000D03*
D12*
X39581250Y-135375000D03*
D14*
X36881250Y-154425000D03*
D12*
X41961250Y-154425000D03*
D14*
X47041250Y-154425000D03*
X32118750Y-173475000D03*
X42278750Y-173475000D03*
D12*
X37198750Y-173475000D03*
D14*
X42278750Y-192525000D03*
X32118750Y-192525000D03*
D12*
X37198750Y-192525000D03*
D14*
X58948750Y-116325000D03*
D12*
X53868750Y-116325000D03*
D14*
X48788750Y-116325000D03*
D12*
X63391250Y-135375000D03*
D14*
X68471250Y-135375000D03*
X58311250Y-135375000D03*
X63073750Y-154425000D03*
D12*
X68153750Y-154425000D03*
D14*
X73233750Y-154425000D03*
D12*
X58628750Y-173475000D03*
D14*
X63708750Y-173475000D03*
X53548750Y-173475000D03*
X63709950Y-192525000D03*
D12*
X58629950Y-192525000D03*
D14*
X53549950Y-192525000D03*
D12*
X68155250Y-192525000D03*
D14*
X63075250Y-192525000D03*
X73235250Y-192525000D03*
X77998750Y-116325000D03*
X67838750Y-116325000D03*
D12*
X72918750Y-116325000D03*
D14*
X77361250Y-135375000D03*
X87521250Y-135375000D03*
D12*
X82441250Y-135375000D03*
X87203750Y-154425000D03*
D14*
X82123750Y-154425000D03*
X92283750Y-154425000D03*
X72599250Y-173475000D03*
X82759250Y-173475000D03*
D12*
X77679250Y-173475000D03*
X80061250Y-192525000D03*
D14*
X74981250Y-192525000D03*
X85141250Y-192525000D03*
X86888750Y-116325000D03*
D12*
X91968750Y-116325000D03*
D14*
X97048750Y-116325000D03*
X96411250Y-135375000D03*
D12*
X101491250Y-135375000D03*
D14*
X106571250Y-135375000D03*
D12*
X106253750Y-154425000D03*
D14*
X111333750Y-154425000D03*
X101173750Y-154425000D03*
D12*
X96728750Y-173475000D03*
D14*
X101808750Y-173475000D03*
X91648750Y-173475000D03*
X89903750Y-192525000D03*
X79743750Y-192525000D03*
D12*
X84823750Y-192525000D03*
D14*
X116098750Y-116325000D03*
D12*
X111018750Y-116325000D03*
D14*
X105938750Y-116325000D03*
X125621250Y-135375000D03*
X115461250Y-135375000D03*
D12*
X120541250Y-135375000D03*
D14*
X120223750Y-154425000D03*
D12*
X125303750Y-154425000D03*
D14*
X130383750Y-154425000D03*
X120858750Y-173475000D03*
X110698750Y-173475000D03*
D12*
X115778750Y-173475000D03*
D14*
X135148750Y-116325000D03*
D12*
X130068750Y-116325000D03*
D14*
X124988750Y-116325000D03*
X134511250Y-135375000D03*
D12*
X139591250Y-135375000D03*
D14*
X144671250Y-135375000D03*
X139278750Y-154425000D03*
X149438750Y-154425000D03*
D12*
X144358750Y-154425000D03*
D14*
X139908750Y-173475000D03*
D12*
X134828750Y-173475000D03*
D14*
X129748750Y-173475000D03*
D13*
X206261150Y-199510000D03*
D12*
X206261150Y-184270000D03*
D13*
X106261350Y-199510000D03*
D12*
X156261250Y-192525000D03*
D14*
X151181250Y-192525000D03*
X161341250Y-192525000D03*
D12*
X106261350Y-184270000D03*
X149118750Y-116325000D03*
D14*
X144038750Y-116325000D03*
X154198750Y-116325000D03*
X153561250Y-135375000D03*
X163721250Y-135375000D03*
D12*
X158641250Y-135375000D03*
X163408750Y-154425000D03*
D14*
X158328750Y-154425000D03*
X168488750Y-154425000D03*
X158958750Y-173475000D03*
X148798750Y-173475000D03*
D12*
X153878750Y-173475000D03*
D13*
X101492750Y-199510000D03*
D12*
X196742750Y-184270000D03*
D13*
X196742750Y-199510000D03*
D14*
X163722750Y-192525000D03*
X153562750Y-192525000D03*
D12*
X158642750Y-192525000D03*
X101492750Y-184270000D03*
X168168750Y-116325000D03*
D14*
X163088750Y-116325000D03*
X173248750Y-116325000D03*
X182771250Y-135375000D03*
D12*
X177691250Y-135375000D03*
D14*
X172611250Y-135375000D03*
X187538750Y-154425000D03*
D12*
X182458750Y-154425000D03*
D14*
X177378750Y-154425000D03*
D12*
X172928750Y-173475000D03*
D14*
X167848750Y-173475000D03*
X178008750Y-173475000D03*
X182138750Y-116325000D03*
X192298750Y-116325000D03*
D12*
X187218750Y-116325000D03*
D14*
X191661250Y-135375000D03*
D12*
X196741250Y-135375000D03*
D14*
X201821250Y-135375000D03*
D12*
X201508750Y-154425000D03*
D14*
X206588750Y-154425000D03*
X196428750Y-154425000D03*
D12*
X191978750Y-173475000D03*
D14*
X186898750Y-173475000D03*
X197058750Y-173475000D03*
X211348750Y-116325000D03*
X201188750Y-116325000D03*
D12*
X206268750Y-116325000D03*
D14*
X220871250Y-135375000D03*
X210711250Y-135375000D03*
D12*
X215791250Y-135375000D03*
D14*
X215478750Y-154425000D03*
X225638750Y-154425000D03*
D12*
X220558750Y-154425000D03*
D14*
X216108750Y-173475000D03*
D12*
X211028750Y-173475000D03*
D14*
X205948750Y-173475000D03*
X223253750Y-192525000D03*
X213093750Y-192525000D03*
D12*
X218173750Y-192525000D03*
X230080250Y-192525000D03*
D14*
X235160250Y-192525000D03*
X225000250Y-192525000D03*
X220238750Y-116325000D03*
D12*
X225318750Y-116325000D03*
D14*
X230398750Y-116325000D03*
X239921250Y-135375000D03*
X229761250Y-135375000D03*
D12*
X234841250Y-135375000D03*
D14*
X234528750Y-154425000D03*
D12*
X239608750Y-154425000D03*
D14*
X244688750Y-154425000D03*
D12*
X230078750Y-173475000D03*
D14*
X224998750Y-173475000D03*
X235158750Y-173475000D03*
X244684750Y-192525000D03*
D12*
X239604750Y-192525000D03*
D14*
X234524750Y-192525000D03*
D12*
X258655250Y-192525000D03*
D14*
X253575250Y-192525000D03*
X263735250Y-192525000D03*
X239288750Y-116325000D03*
X249448750Y-116325000D03*
D12*
X244368750Y-116325000D03*
D14*
X258971250Y-135375000D03*
D12*
X253891250Y-135375000D03*
D14*
X248811250Y-135375000D03*
X263738750Y-154425000D03*
X253578750Y-154425000D03*
D12*
X258658750Y-154425000D03*
D14*
X254208750Y-173475000D03*
D12*
X249128750Y-173475000D03*
D14*
X244048750Y-173475000D03*
X255955750Y-192525000D03*
D12*
X261035750Y-192525000D03*
D14*
X266115750Y-192525000D03*
D12*
X263418750Y-116325000D03*
D14*
X268498750Y-116325000D03*
X258338750Y-116325000D03*
D12*
X272940250Y-135375000D03*
D14*
X267860250Y-135375000D03*
X278020250Y-135375000D03*
D12*
X277708750Y-154425000D03*
D14*
X282788750Y-154425000D03*
X272628750Y-154425000D03*
D12*
X275322250Y-173475000D03*
D14*
X280402250Y-173475000D03*
X270242250Y-173475000D03*
D12*
X287228750Y-197285000D03*
D14*
X292308750Y-197285000D03*
X282148750Y-197285000D03*
X277388750Y-116325000D03*
D12*
X282468750Y-116325000D03*
D14*
X287548750Y-116325000D03*
D12*
X290885250Y-156838000D03*
X299140250Y-144900000D03*
D14*
X304220250Y-144900000D03*
D13*
X306125250Y-156838000D03*
D14*
X294060250Y-144900000D03*
D13*
X306125250Y-132962000D03*
D12*
X290885250Y-132962000D03*
D14*
X286913250Y-116325000D03*
D13*
X303931250Y-109340000D03*
D12*
X291993250Y-116325000D03*
X303931250Y-124580000D03*
X280055250Y-124580000D03*
D13*
X280055250Y-109340000D03*
D14*
X297073250Y-116325000D03*
X301832750Y-135375000D03*
D12*
X296752750Y-135375000D03*
D14*
X291672750Y-135375000D03*
D13*
X301552750Y-147440000D03*
D12*
X301552750Y-162680000D03*
X277676750Y-162680000D03*
D14*
X284534750Y-154425000D03*
X294694750Y-154425000D03*
D13*
X277676750Y-147440000D03*
D12*
X289614750Y-154425000D03*
D14*
X311198750Y-178125000D03*
D12*
X306118750Y-178125000D03*
D14*
X301038750Y-178125000D03*
D12*
X306278750Y-197285000D03*
D14*
X301198750Y-197285000D03*
X311358750Y-197285000D03*
X296438750Y-116325000D03*
D12*
X301518750Y-116325000D03*
D14*
X306598750Y-116325000D03*
D12*
X330098750Y-116325000D03*
D14*
X325018750Y-116325000D03*
X335178750Y-116325000D03*
X325018750Y-135375000D03*
X335178750Y-135375000D03*
D12*
X330098750Y-135375000D03*
X330098750Y-154425000D03*
D14*
X335178750Y-154425000D03*
X325018750Y-154425000D03*
D12*
X330098750Y-173475000D03*
D14*
X335178750Y-173475000D03*
X325018750Y-173475000D03*
D12*
X325328750Y-197285000D03*
D14*
X320248750Y-197285000D03*
X330408750Y-197285000D03*
D12*
X349148750Y-116325000D03*
D14*
X344068750Y-116325000D03*
X354228750Y-116325000D03*
X354228750Y-135375000D03*
D12*
X349148750Y-135375000D03*
D14*
X344068750Y-135375000D03*
D12*
X349148750Y-154425000D03*
D14*
X344068750Y-154425000D03*
X354228750Y-154425000D03*
D12*
X349148750Y-173475000D03*
D14*
X354228750Y-173475000D03*
X344068750Y-173475000D03*
X344068750Y-192525000D03*
X354228750Y-192525000D03*
D12*
X349148750Y-192525000D03*
D14*
X373278750Y-116325000D03*
X363118750Y-116325000D03*
D12*
X368198750Y-116325000D03*
X368198750Y-135375000D03*
D14*
X373278750Y-135375000D03*
X363118750Y-135375000D03*
X363118750Y-154425000D03*
X373278750Y-154425000D03*
D12*
X368198750Y-154425000D03*
D14*
X363118750Y-173475000D03*
X373278750Y-173475000D03*
D12*
X368198750Y-173475000D03*
X368198750Y-192525000D03*
D14*
X373278750Y-192525000D03*
X363118750Y-192525000D03*
X392328750Y-135372000D03*
X382168750Y-135372000D03*
D12*
X387248750Y-135372000D03*
D14*
X382168750Y-173475000D03*
X392328750Y-173475000D03*
D12*
X387248750Y-173475000D03*
D14*
X392328750Y-192525000D03*
D12*
X387248750Y-192525000D03*
D14*
X382168750Y-192525000D03*
X392328750Y-116325000D03*
X382168750Y-116325000D03*
D12*
X387248750Y-116325000D03*
X378993750Y-156833000D03*
D13*
X394233750Y-156833000D03*
D12*
X378993750Y-132957000D03*
D13*
X394233750Y-132957000D03*
D14*
X387248750Y-149975000D03*
X387248750Y-139815000D03*
D12*
X387248750Y-144895000D03*
X387248750Y-154425000D03*
D14*
X392328750Y-154425000D03*
X382168750Y-154425000D03*
D12*
X130105150Y-184277000D03*
X106229150Y-184277000D03*
D13*
X106229150Y-199517000D03*
D12*
X118167150Y-192532000D03*
D13*
X130105150Y-199517000D03*
D14*
X113087150Y-192532000D03*
X123247150Y-192532000D03*
X146424650Y-192532000D03*
D12*
X151504650Y-192532000D03*
D14*
X156584650Y-192532000D03*
D12*
X378993750Y-171057000D03*
D14*
X387248750Y-188075000D03*
D13*
X394233750Y-171057000D03*
D12*
X387248750Y-182995000D03*
D13*
X394233750Y-194933000D03*
D14*
X387248750Y-177915000D03*
D12*
X378993750Y-194933000D03*
D14*
X189287150Y-192532000D03*
D12*
X194367150Y-192532000D03*
D13*
X182429150Y-199517000D03*
D12*
X206305150Y-184277000D03*
D14*
X199447150Y-192532000D03*
D12*
X182429150Y-184277000D03*
D13*
X206305150Y-199517000D03*
D12*
X206267750Y-184270000D03*
D14*
X154197750Y-192525000D03*
D13*
X206267750Y-199510000D03*
D14*
X144037750Y-192525000D03*
D12*
X149117750Y-192525000D03*
X91967750Y-184270000D03*
D13*
X91967750Y-199510000D03*
X177666650Y-199517000D03*
X201542650Y-199517000D03*
D12*
X177666650Y-184277000D03*
X189604650Y-192532000D03*
D14*
X194684650Y-192532000D03*
X184524650Y-192532000D03*
D12*
X201542650Y-184277000D03*
D14*
X155949650Y-192532000D03*
D12*
X161029650Y-192532000D03*
D14*
X166109650Y-192532000D03*
D13*
X110991650Y-199517000D03*
D12*
X122929650Y-192532000D03*
D13*
X134867650Y-199517000D03*
D14*
X117849650Y-192532000D03*
D12*
X134867650Y-184277000D03*
X110991650Y-184277000D03*
D14*
X128009650Y-192532000D03*
X66090750Y-192525000D03*
D12*
X61010750Y-192525000D03*
D14*
X55930750Y-192525000D03*
D15*
X172618400Y-193611500D03*
D16*
X172618400Y-191611500D03*
D17*
X314895900Y-113707000D03*
X316725900Y-113707000D03*
X316725900Y-112607000D03*
X314895900Y-112607000D03*
X314832400Y-116945500D03*
X316662400Y-116945500D03*
X316662400Y-115845500D03*
X314832400Y-115845500D03*
X314832400Y-120057000D03*
X316662400Y-120057000D03*
X316662400Y-118957000D03*
X314832400Y-118957000D03*
D18*
X320065400Y-112382000D03*
X320065400Y-113932000D03*
X320065400Y-115684000D03*
X320065400Y-117234000D03*
X320065400Y-118732000D03*
X320065400Y-120282000D03*
D19*
X207834750Y-106691000D03*
X213614750Y-106691000D03*
D20*
X215044750Y-107221000D03*
X206404750Y-107221000D03*
D21*
X206404750Y-103041000D03*
X215044750Y-103041000D03*
M02*
