M48
METRIC,TZ
T1C0.400
T2C0.700
T3C0.900
T4C1.000
T5C1.040
T6C1.470
%
G90
G05
T1
X47.8Y-174.4
X51.4Y-190.15
X53.986Y-184.594
X60.5Y-137.8
X73.8Y-183.3
X76.2Y-189.8
X80.7Y-178.8
X84.8Y-193.1
X91.92Y-181.274
X97.8Y-189.8
X108.6Y-186.7
X114.2Y-183.6
X114.3Y-179.9
X120.5Y-189.7
X124.Y-182.6
X124.5Y-180.9
X135.023Y-185.125
X135.1Y-171.6
X138.4Y-185.4
X138.816Y-186.494
X139.7Y-171.3
X140.253Y-182.515
X147.Y-186.4
X154.4Y-190.6
X168.8Y-196.5
X169.735Y-196.146
X169.794Y-194.025
X170.635Y-194.71
X170.8Y-195.7
X170.959Y-193.764
X171.2Y-189.2
X171.8Y-186.8
X172.1Y-182.3
X172.276Y-180.051
X172.4Y-164.7
X172.4Y-191.5
X172.607Y-192.932
X173.576Y-181.108
X174.061Y-192.113
X174.3Y-179.2
X175.229Y-192.26
X175.85Y-191.414
X175.9Y-185.
X176.6Y-178.1
X176.9Y-191.7
X177.6Y-182.9
X177.624Y-181.9
X181.488Y-180.435
X181.5Y-177.8
X181.822Y-183.276
X181.827Y-181.376
X182.3Y-178.7
X183.849Y-171.526
X183.954Y-177.525
X184.2Y-182.
X184.564Y-173.353
X184.58Y-168.76
X185.3Y-155.4
X185.391Y-184.85
X185.404Y-177.724
X185.5Y-168.3
X185.5Y-187.9
X185.518Y-173.055
X185.956Y-171.209
X186.2Y-176.395
X186.3Y-181.8
X186.404Y-177.695
X186.467Y-173.37
X186.6Y-168.4
X187.3Y-166.6
X187.464Y-173.296
X187.499Y-178.95
X187.659Y-183.864
X187.7Y-176.6
X187.8Y-181.8
X188.187Y-184.913
X188.7Y-178.5
X188.8Y-128.2
X188.9Y-169.8
X189.2Y-158.8
X189.2Y-172.6
X190.2Y-165.9
X191.Y-168.9
X191.6Y-154.525
X191.9Y-121.1
X192.32Y-172.125
X192.6Y-183.
X193.5Y-155.8
X193.6Y-159.3
X193.914Y-182.096
X194.177Y-183.061
X194.4Y-188.7
X194.8Y-150.5
X195.3Y-152.9
X195.432Y-154.058
X195.635Y-182.6
X195.8Y-139.3
X196.1Y-173.2
X196.373Y-186.173
X196.7Y-146.5
X197.Y-152.3
X197.051Y-184.459
X197.199Y-182.754
X197.3Y-161.
X197.619Y-187.729
X198.1Y-109.7
X199.884Y-149.075
X200.013Y-186.487
X200.264Y-152.062
X200.395Y-171.3
X201.9Y-113.95
X202.3Y-147.9
X202.4Y-153.7
X202.8Y-166.2
X202.8Y-183.725
X202.925Y-168.963
X203.2Y-160.
X203.5Y-155.8
X203.5Y-175.1
X203.991Y-182.181
X204.4Y-165.6
X205.125Y-166.544
X205.832Y-183.725
X206.193Y-181.771
X206.2Y-131.9
X206.235Y-182.81
X206.8Y-147.4
X206.9Y-196.6
X206.912Y-166.814
X208.042Y-167.125
X208.394Y-131.9
X208.64Y-167.926
X209.618Y-191.875
X209.7Y-116.2
X209.7Y-196.707
X210.1Y-183.9
X210.4Y-180.8
X211.2Y-171.4
X211.3Y-185.7
X213.Y-139.
X213.2Y-119.1
X213.3Y-128.6
X213.5Y-183.
X213.6Y-115.475
X215.9Y-109.3
X218.3Y-178.3
X218.6Y-133.3
X222.4Y-108.9
X223.9Y-159.9
X224.9Y-114.1
X224.9Y-127.3
X227.4Y-137.9
X228.2Y-118.1
X228.4Y-155.9
X231.5Y-191.6
X231.9Y-158.9
X232.3Y-130.6
X237.519Y-109.119
X240.1Y-115.4
X241.6Y-160.4
X242.269Y-166.269
X242.7Y-173.4
X243.8Y-119.4
X246.8Y-135.5
X248.5Y-177.
X252.4Y-147.3
X261.3Y-158.7
X269.3Y-184.7
X269.4Y-173.8
X271.8Y-193.5
X273.9Y-184.3
X275.6Y-188.6
X279.Y-192.3
X283.9Y-148.3
X288.4Y-131.2
X288.9Y-117.374
X289.7Y-159.9
X293.4Y-137.3
X296.3Y-155.
X296.9Y-168.6
X300.5Y-145.6
X305.Y-163.4
X308.8Y-128.4
X310.6Y-109.5
X310.9Y-152.9
X311.1Y-137.7
X311.2Y-148.4
X312.Y-153.3
X313.3Y-128.4
X313.9Y-113.4
X315.1Y-120.5
X316.Y-121.
X316.725Y-123.9
X317.8Y-179.1
X318.625Y-148.716
X319.1Y-153.9
X319.5Y-141.4
X319.8Y-113.3
X321.9Y-167.4
X322.Y-113.4
X324.Y-113.9
X325.9Y-171.
X329.6Y-147.5
X331.1Y-133.9
X336.7Y-129.1
X341.8Y-118.1
X341.8Y-191.5
X341.9Y-101.2
X344.5Y-168.8
X346.8Y-129.3
X359.5Y-175.7
X361.6Y-156.6
X363.5Y-136.4
X372.4Y-171.3
X374.5Y-134.9
X375.2Y-167.8
X379.Y-127.
X379.2Y-165.5
X379.3Y-169.
X379.6Y-171.1
X381.Y-130.8
X382.6Y-116.5
X385.3Y-168.1
X385.6Y-128.9
X387.Y-114.4
X387.7Y-128.6
X391.6Y-114.
T3
X316.9Y-103.6
X319.44Y-103.6
X316.9Y-110.
X319.44Y-110.
X316.9Y-106.8
X319.44Y-106.8
T4
X212.93Y-186.76
X212.93Y-189.3
X212.93Y-191.84
X215.47Y-186.76
X215.47Y-189.3
X215.47Y-191.84
T5
X38.31Y-188.08
X40.85Y-188.08
X350.26Y-169.03
X352.8Y-169.03
X145.47Y-149.98
X148.01Y-149.98
X35.93Y-111.88
X38.47Y-111.88
X135.94Y-169.03
X138.48Y-169.03
X231.19Y-169.03
X233.73Y-169.03
X283.58Y-111.88
X286.12Y-111.88
X245.48Y-111.88
X248.02Y-111.88
X97.84Y-169.03
X100.38Y-169.03
X302.63Y-111.88
X305.17Y-111.88
X188.33Y-111.88
X190.87Y-111.88
X221.67Y-149.98
X224.21Y-149.98
X78.79Y-169.03
X81.331Y-169.03
X43.072Y-149.98
X45.612Y-149.98
X296.441Y-134.105
X296.441Y-136.645
X38.31Y-169.03
X40.85Y-169.03
X331.21Y-111.88
X333.75Y-111.88
X202.62Y-149.98
X205.16Y-149.98
X293.104Y-111.88
X295.644Y-111.88
X193.09Y-169.03
X195.63Y-169.03
X264.53Y-111.88
X267.07Y-111.88
X388.36Y-188.08
X390.9Y-188.08
X259.767Y-188.08
X262.306Y-188.08
X107.365Y-149.98
X109.905Y-149.98
X307.23Y-173.68
X309.77Y-173.68
X240.72Y-149.98
X243.26Y-149.98
X69.266Y-188.08
X71.806Y-188.08
X394.71Y-134.1
X394.71Y-136.64
X47.835Y-169.03
X50.375Y-169.03
X307.39Y-192.84
X309.93Y-192.84
X178.802Y-130.93
X181.343Y-130.93
X216.903Y-130.93
X219.442Y-130.93
X250.24Y-169.03
X252.78Y-169.03
X388.36Y-169.03
X390.9Y-169.03
X197.852Y-130.93
X200.392Y-130.93
X112.13Y-111.88
X114.67Y-111.88
X350.26Y-130.93
X352.8Y-130.93
X235.952Y-130.93
X238.492Y-130.93
X59.741Y-188.08
X62.281Y-188.08
X62.122Y-188.08
X64.662Y-188.08
X276.433Y-169.03
X278.974Y-169.03
X159.752Y-130.93
X162.292Y-130.93
X278.82Y-149.98
X281.36Y-149.98
X388.36Y-149.98
X390.9Y-149.98
X259.77Y-149.98
X262.31Y-149.98
X102.602Y-130.93
X105.142Y-130.93
X290.726Y-149.98
X293.266Y-149.98
X140.702Y-130.93
X143.243Y-130.93
X121.652Y-130.93
X124.192Y-130.93
X369.31Y-130.93
X371.85Y-130.93
X183.57Y-149.98
X186.11Y-149.98
X74.03Y-111.88
X76.57Y-111.88
X394.71Y-172.2
X394.71Y-174.74
X350.26Y-149.98
X352.8Y-149.98
X169.28Y-111.88
X171.82Y-111.88
X326.44Y-192.84
X328.98Y-192.84
X274.051Y-130.93
X276.591Y-130.93
X350.26Y-111.88
X352.8Y-111.88
X154.99Y-169.03
X157.53Y-169.03
X131.18Y-111.88
X133.72Y-111.88
X369.31Y-169.03
X371.85Y-169.03
X240.716Y-188.08
X243.256Y-188.08
X93.08Y-111.88
X95.62Y-111.88
X331.21Y-149.98
X333.75Y-149.98
X226.43Y-111.88
X228.97Y-111.88
X59.74Y-169.03
X62.28Y-169.03
X88.315Y-149.98
X90.855Y-149.98
X40.692Y-130.93
X43.232Y-130.93
X85.935Y-188.08
X88.475Y-188.08
X38.31Y-149.98
X40.85Y-149.98
X331.21Y-130.93
X333.75Y-130.93
X150.229Y-188.08
X152.769Y-188.08
X369.31Y-111.88
X371.85Y-111.88
X207.38Y-111.88
X209.92Y-111.88
X388.36Y-111.88
X390.9Y-111.88
X159.754Y-188.08
X162.294Y-188.08
X116.89Y-169.03
X119.43Y-169.03
X369.31Y-149.98
X371.85Y-149.98
X174.04Y-169.03
X176.58Y-169.03
X288.34Y-192.84
X290.88Y-192.84
X231.191Y-188.08
X233.731Y-188.08
X69.265Y-149.98
X71.805Y-149.98
X157.373Y-188.08
X159.912Y-188.08
X83.552Y-130.93
X86.093Y-130.93
X262.147Y-188.08
X264.687Y-188.08
X40.691Y-188.08
X43.231Y-188.08
X54.98Y-111.88
X57.52Y-111.88
X388.36Y-130.927
X390.9Y-130.927
X64.502Y-130.93
X67.043Y-130.93
X369.31Y-188.08
X371.85Y-188.08
X150.23Y-111.88
X152.77Y-111.88
X297.864Y-130.93
X300.404Y-130.93
X164.52Y-149.98
X167.06Y-149.98
X331.21Y-169.03
X333.75Y-169.03
X255.002Y-130.93
X257.542Y-130.93
X126.415Y-149.98
X128.955Y-149.98
X350.26Y-188.08
X352.8Y-188.08
X219.285Y-188.08
X221.825Y-188.08
X212.14Y-169.03
X214.68Y-169.03
X81.172Y-188.08
X83.712Y-188.08
T6
X35.77Y-161.41
X42.12Y-158.87
X328.67Y-104.26
X335.02Y-101.72
X200.08Y-142.36
X206.43Y-139.82
X290.565Y-104.26
X296.914Y-101.72
X190.55Y-161.41
X196.9Y-158.87
X261.99Y-104.26
X268.34Y-101.72
X385.82Y-180.46
X392.17Y-177.92
X257.226Y-180.46
X263.577Y-177.92
X104.825Y-142.36
X111.175Y-139.82
X304.69Y-166.06
X311.04Y-163.52
X238.18Y-142.36
X244.53Y-139.82
X66.727Y-180.46
X73.076Y-177.92
X384.55Y-132.83
X387.09Y-139.18
X45.295Y-161.41
X51.645Y-158.87
X304.85Y-185.22
X311.2Y-182.68
X176.262Y-123.31
X182.612Y-120.77
X214.362Y-123.31
X220.712Y-120.77
X247.7Y-161.41
X254.05Y-158.87
X385.82Y-161.41
X392.17Y-158.87
X195.312Y-123.31
X201.662Y-120.77
X109.59Y-104.26
X115.94Y-101.72
X347.72Y-123.31
X354.07Y-120.77
X233.412Y-123.31
X239.762Y-120.77
X57.201Y-180.46
X63.551Y-177.92
X59.582Y-180.46
X65.932Y-177.92
X273.893Y-161.41
X280.243Y-158.87
X157.213Y-123.31
X163.562Y-120.77
X276.28Y-142.36
X282.63Y-139.82
X385.82Y-142.36
X392.17Y-139.82
X257.23Y-142.36
X263.58Y-139.82
X100.062Y-123.31
X106.412Y-120.77
X288.186Y-142.36
X294.536Y-139.82
X138.162Y-123.31
X144.512Y-120.77
X119.112Y-123.31
X125.462Y-120.77
X366.77Y-123.31
X373.12Y-120.77
X181.03Y-142.36
X187.38Y-139.82
X71.49Y-104.26
X77.84Y-101.72
X384.55Y-170.93
X387.09Y-177.28
X347.72Y-142.36
X354.07Y-139.82
X166.74Y-104.26
X173.09Y-101.72
X323.9Y-185.22
X330.25Y-182.68
X271.512Y-123.31
X277.861Y-120.77
X347.72Y-104.26
X354.07Y-101.72
X152.45Y-161.41
X158.8Y-158.87
X128.64Y-104.26
X134.99Y-101.72
X366.77Y-161.41
X373.12Y-158.87
X238.176Y-180.46
X244.526Y-177.92
X90.54Y-104.26
X96.89Y-101.72
X328.67Y-142.36
X335.02Y-139.82
X223.89Y-104.26
X230.24Y-101.72
X57.2Y-161.41
X63.55Y-158.87
X85.775Y-142.36
X92.125Y-139.82
X38.152Y-123.31
X44.502Y-120.77
X83.395Y-180.46
X89.745Y-177.92
X35.77Y-142.36
X42.12Y-139.82
X328.67Y-123.31
X335.02Y-120.77
X147.689Y-180.46
X154.039Y-177.92
X366.77Y-104.26
X373.12Y-101.72
X204.84Y-104.26
X211.19Y-101.72
X385.82Y-104.26
X392.17Y-101.72
X157.214Y-180.46
X163.564Y-177.92
X114.35Y-161.41
X120.7Y-158.87
X366.77Y-142.36
X373.12Y-139.82
X171.5Y-161.41
X177.85Y-158.87
X285.8Y-185.22
X292.15Y-182.68
X228.651Y-180.46
X235.001Y-177.92
X66.725Y-142.36
X73.075Y-139.82
X154.832Y-180.46
X161.183Y-177.92
X81.013Y-123.31
X87.362Y-120.77
X259.607Y-180.46
X265.957Y-177.92
X38.151Y-180.46
X44.502Y-177.92
X52.44Y-104.26
X58.79Y-101.72
X385.82Y-123.307
X392.17Y-120.767
X61.962Y-123.31
X68.312Y-120.77
X366.77Y-180.46
X373.12Y-177.92
X147.69Y-104.26
X154.04Y-101.72
X295.324Y-123.31
X301.674Y-120.77
X161.98Y-142.36
X168.33Y-139.82
X328.67Y-161.41
X335.02Y-158.87
X252.462Y-123.31
X258.812Y-120.77
X123.875Y-142.36
X130.225Y-139.82
X347.72Y-180.46
X354.07Y-177.92
X216.745Y-180.46
X223.095Y-177.92
X209.6Y-161.41
X215.95Y-158.87
X78.632Y-180.46
X84.983Y-177.92
X35.77Y-180.46
X42.12Y-177.92
X347.72Y-161.41
X354.07Y-158.87
X142.93Y-142.36
X149.28Y-139.82
X33.39Y-104.26
X39.74Y-101.72
X133.4Y-161.41
X139.75Y-158.87
X228.65Y-161.41
X235.Y-158.87
X281.04Y-104.26
X287.39Y-101.72
X242.94Y-104.26
X249.29Y-101.72
X95.3Y-161.41
X101.65Y-158.87
X300.09Y-104.26
X306.44Y-101.72
X185.79Y-104.26
X192.14Y-101.72
X219.13Y-142.36
X225.48Y-139.82
X76.251Y-161.41
X82.6Y-158.87
X40.532Y-142.36
X46.883Y-139.82
X304.061Y-131.565
X306.601Y-137.915
T2
X209.53Y-93.075G85X209.53Y-94.075
G05
X209.53Y-97.875G85X209.53Y-98.875
G05
X216.83Y-93.075G85X216.83Y-94.075
G05
X216.83Y-97.875G85X216.83Y-98.875
G05
T0
M30
