G04 #@! TF.GenerationSoftware,KiCad,Pcbnew,(5.1.8-0-10_14)*
G04 #@! TF.CreationDate,2021-04-06T12:11:46+01:00*
G04 #@! TF.ProjectId,cypher,63797068-6572-42e6-9b69-6361645f7063,rev?*
G04 #@! TF.SameCoordinates,Original*
G04 #@! TF.FileFunction,Soldermask,Top*
G04 #@! TF.FilePolarity,Negative*
%FSLAX46Y46*%
G04 Gerber Fmt 4.6, Leading zero omitted, Abs format (unit mm)*
G04 Created by KiCad (PCBNEW (5.1.8-0-10_14)) date 2021-04-06 12:11:46*
%MOMM*%
%LPD*%
G01*
G04 APERTURE LIST*
%ADD10C,3.987800*%
%ADD11C,1.750000*%
%ADD12C,3.048000*%
%ADD13R,1.700000X1.700000*%
%ADD14O,1.700000X1.700000*%
%ADD15O,1.000000X1.600000*%
%ADD16O,1.000000X2.100000*%
%ADD17C,0.650000*%
%ADD18R,0.700000X0.700000*%
G04 APERTURE END LIST*
D10*
X296752750Y-135375000D03*
D11*
X291672750Y-135375000D03*
X301832750Y-135375000D03*
D10*
X161029650Y-192532000D03*
D11*
X155949650Y-192532000D03*
X166109650Y-192532000D03*
D10*
X118167150Y-192532000D03*
D11*
X113087150Y-192532000D03*
X123247150Y-192532000D03*
D12*
X106229150Y-199517000D03*
X130105150Y-199517000D03*
D10*
X106229150Y-184277000D03*
X130105150Y-184277000D03*
D13*
X337718400Y-186055000D03*
D14*
X337718400Y-188595000D03*
X337718400Y-191135000D03*
D13*
X295173400Y-181229000D03*
D14*
X292633400Y-181229000D03*
X295173400Y-183769000D03*
X292633400Y-183769000D03*
X295173400Y-186309000D03*
X292633400Y-186309000D03*
D10*
X58661750Y-181730000D03*
X34785750Y-181730000D03*
D12*
X58661750Y-166490000D03*
X34785750Y-166490000D03*
D11*
X51803750Y-173475000D03*
X41643750Y-173475000D03*
D10*
X46723750Y-173475000D03*
X39580250Y-192525000D03*
D11*
X34500250Y-192525000D03*
X44660250Y-192525000D03*
X42278750Y-154425000D03*
X32118750Y-154425000D03*
D10*
X37198750Y-154425000D03*
D11*
X39898750Y-116325000D03*
X29738750Y-116325000D03*
D10*
X34818750Y-116325000D03*
X39581250Y-135375000D03*
D11*
X34501250Y-135375000D03*
X44661250Y-135375000D03*
D10*
X41961250Y-154425000D03*
D11*
X36881250Y-154425000D03*
X47041250Y-154425000D03*
X42278750Y-173475000D03*
X32118750Y-173475000D03*
D10*
X37198750Y-173475000D03*
D11*
X42278750Y-192525000D03*
X32118750Y-192525000D03*
D10*
X37198750Y-192525000D03*
D11*
X58948750Y-116325000D03*
X48788750Y-116325000D03*
D10*
X53868750Y-116325000D03*
X63391250Y-135375000D03*
D11*
X58311250Y-135375000D03*
X68471250Y-135375000D03*
D10*
X68153750Y-154425000D03*
D11*
X63073750Y-154425000D03*
X73233750Y-154425000D03*
X63708750Y-173475000D03*
X53548750Y-173475000D03*
D10*
X58628750Y-173475000D03*
X58629950Y-192525000D03*
D11*
X53549950Y-192525000D03*
X63709950Y-192525000D03*
X73235250Y-192525000D03*
X63075250Y-192525000D03*
D10*
X68155250Y-192525000D03*
X72918750Y-116325000D03*
D11*
X67838750Y-116325000D03*
X77998750Y-116325000D03*
X87521250Y-135375000D03*
X77361250Y-135375000D03*
D10*
X82441250Y-135375000D03*
D11*
X92283750Y-154425000D03*
X82123750Y-154425000D03*
D10*
X87203750Y-154425000D03*
X77679250Y-173475000D03*
D11*
X72599250Y-173475000D03*
X82759250Y-173475000D03*
D10*
X80061250Y-192525000D03*
D11*
X74981250Y-192525000D03*
X85141250Y-192525000D03*
X97048750Y-116325000D03*
X86888750Y-116325000D03*
D10*
X91968750Y-116325000D03*
X101491250Y-135375000D03*
D11*
X96411250Y-135375000D03*
X106571250Y-135375000D03*
D10*
X106253750Y-154425000D03*
D11*
X101173750Y-154425000D03*
X111333750Y-154425000D03*
D10*
X96728750Y-173475000D03*
D11*
X91648750Y-173475000D03*
X101808750Y-173475000D03*
X89903750Y-192525000D03*
X79743750Y-192525000D03*
D10*
X84823750Y-192525000D03*
X111018750Y-116325000D03*
D11*
X105938750Y-116325000D03*
X116098750Y-116325000D03*
X125621250Y-135375000D03*
X115461250Y-135375000D03*
D10*
X120541250Y-135375000D03*
D11*
X130383750Y-154425000D03*
X120223750Y-154425000D03*
D10*
X125303750Y-154425000D03*
D11*
X120858750Y-173475000D03*
X110698750Y-173475000D03*
D10*
X115778750Y-173475000D03*
D11*
X135148750Y-116325000D03*
X124988750Y-116325000D03*
D10*
X130068750Y-116325000D03*
X139591250Y-135375000D03*
D11*
X134511250Y-135375000D03*
X144671250Y-135375000D03*
D10*
X144358750Y-154425000D03*
D11*
X139278750Y-154425000D03*
X149438750Y-154425000D03*
X139908750Y-173475000D03*
X129748750Y-173475000D03*
D10*
X134828750Y-173475000D03*
X156261250Y-192525000D03*
D11*
X151181250Y-192525000D03*
X161341250Y-192525000D03*
D12*
X106261350Y-199510000D03*
X206261150Y-199510000D03*
D10*
X106261350Y-184270000D03*
X206261150Y-184270000D03*
X149118750Y-116325000D03*
D11*
X144038750Y-116325000D03*
X154198750Y-116325000D03*
D10*
X158641250Y-135375000D03*
D11*
X153561250Y-135375000D03*
X163721250Y-135375000D03*
X168488750Y-154425000D03*
X158328750Y-154425000D03*
D10*
X163408750Y-154425000D03*
X153878750Y-173475000D03*
D11*
X148798750Y-173475000D03*
X158958750Y-173475000D03*
D10*
X158642750Y-192525000D03*
D11*
X153562750Y-192525000D03*
X163722750Y-192525000D03*
D12*
X101492750Y-199510000D03*
X196742750Y-199510000D03*
D10*
X101492750Y-184270000D03*
X196742750Y-184270000D03*
D11*
X173248750Y-116325000D03*
X163088750Y-116325000D03*
D10*
X168168750Y-116325000D03*
D11*
X182771250Y-135375000D03*
X172611250Y-135375000D03*
D10*
X177691250Y-135375000D03*
X182458750Y-154425000D03*
D11*
X177378750Y-154425000D03*
X187538750Y-154425000D03*
X178008750Y-173475000D03*
X167848750Y-173475000D03*
D10*
X172928750Y-173475000D03*
X187218750Y-116325000D03*
D11*
X182138750Y-116325000D03*
X192298750Y-116325000D03*
D10*
X196741250Y-135375000D03*
D11*
X191661250Y-135375000D03*
X201821250Y-135375000D03*
X206588750Y-154425000D03*
X196428750Y-154425000D03*
D10*
X201508750Y-154425000D03*
X191978750Y-173475000D03*
D11*
X186898750Y-173475000D03*
X197058750Y-173475000D03*
X211348750Y-116325000D03*
X201188750Y-116325000D03*
D10*
X206268750Y-116325000D03*
D11*
X220871250Y-135375000D03*
X210711250Y-135375000D03*
D10*
X215791250Y-135375000D03*
X220558750Y-154425000D03*
D11*
X215478750Y-154425000D03*
X225638750Y-154425000D03*
X216108750Y-173475000D03*
X205948750Y-173475000D03*
D10*
X211028750Y-173475000D03*
X218173750Y-192525000D03*
D11*
X213093750Y-192525000D03*
X223253750Y-192525000D03*
X235160250Y-192525000D03*
X225000250Y-192525000D03*
D10*
X230080250Y-192525000D03*
X225318750Y-116325000D03*
D11*
X220238750Y-116325000D03*
X230398750Y-116325000D03*
D10*
X234841250Y-135375000D03*
D11*
X229761250Y-135375000D03*
X239921250Y-135375000D03*
X244688750Y-154425000D03*
X234528750Y-154425000D03*
D10*
X239608750Y-154425000D03*
D11*
X235158750Y-173475000D03*
X224998750Y-173475000D03*
D10*
X230078750Y-173475000D03*
X239604750Y-192525000D03*
D11*
X234524750Y-192525000D03*
X244684750Y-192525000D03*
D10*
X258655250Y-192525000D03*
D11*
X253575250Y-192525000D03*
X263735250Y-192525000D03*
X249448750Y-116325000D03*
X239288750Y-116325000D03*
D10*
X244368750Y-116325000D03*
D11*
X258971250Y-135375000D03*
X248811250Y-135375000D03*
D10*
X253891250Y-135375000D03*
D11*
X263738750Y-154425000D03*
X253578750Y-154425000D03*
D10*
X258658750Y-154425000D03*
X249128750Y-173475000D03*
D11*
X244048750Y-173475000D03*
X254208750Y-173475000D03*
D10*
X261035750Y-192525000D03*
D11*
X255955750Y-192525000D03*
X266115750Y-192525000D03*
X268498750Y-116325000D03*
X258338750Y-116325000D03*
D10*
X263418750Y-116325000D03*
X272940250Y-135375000D03*
D11*
X267860250Y-135375000D03*
X278020250Y-135375000D03*
X282788750Y-154425000D03*
X272628750Y-154425000D03*
D10*
X277708750Y-154425000D03*
X275322250Y-173475000D03*
D11*
X270242250Y-173475000D03*
X280402250Y-173475000D03*
X292308750Y-197285000D03*
X282148750Y-197285000D03*
D10*
X287228750Y-197285000D03*
X282468750Y-116325000D03*
D11*
X277388750Y-116325000D03*
X287548750Y-116325000D03*
D10*
X299140250Y-144900000D03*
D11*
X294060250Y-144900000D03*
X304220250Y-144900000D03*
D12*
X306125250Y-156838000D03*
X306125250Y-132962000D03*
D10*
X290885250Y-156838000D03*
X290885250Y-132962000D03*
X291993250Y-116325000D03*
D11*
X286913250Y-116325000D03*
X297073250Y-116325000D03*
D12*
X280055250Y-109340000D03*
X303931250Y-109340000D03*
D10*
X280055250Y-124580000D03*
X303931250Y-124580000D03*
X289614750Y-154425000D03*
D11*
X284534750Y-154425000D03*
X294694750Y-154425000D03*
D12*
X277676750Y-147440000D03*
X301552750Y-147440000D03*
D10*
X277676750Y-162680000D03*
X301552750Y-162680000D03*
D11*
X311198750Y-178125000D03*
X301038750Y-178125000D03*
D10*
X306118750Y-178125000D03*
X306278750Y-197285000D03*
D11*
X301198750Y-197285000D03*
X311358750Y-197285000D03*
X306598750Y-116325000D03*
X296438750Y-116325000D03*
D10*
X301518750Y-116325000D03*
X330098750Y-116325000D03*
D11*
X325018750Y-116325000D03*
X335178750Y-116325000D03*
X335178750Y-135375000D03*
X325018750Y-135375000D03*
D10*
X330098750Y-135375000D03*
D11*
X335178750Y-154425000D03*
X325018750Y-154425000D03*
D10*
X330098750Y-154425000D03*
X330098750Y-173475000D03*
D11*
X325018750Y-173475000D03*
X335178750Y-173475000D03*
D10*
X325328750Y-197285000D03*
D11*
X320248750Y-197285000D03*
X330408750Y-197285000D03*
X354228750Y-116325000D03*
X344068750Y-116325000D03*
D10*
X349148750Y-116325000D03*
X349148750Y-135375000D03*
D11*
X344068750Y-135375000D03*
X354228750Y-135375000D03*
D10*
X349148750Y-154425000D03*
D11*
X344068750Y-154425000D03*
X354228750Y-154425000D03*
D10*
X349148750Y-173475000D03*
D11*
X344068750Y-173475000D03*
X354228750Y-173475000D03*
X354228750Y-192525000D03*
X344068750Y-192525000D03*
D10*
X349148750Y-192525000D03*
X368198750Y-116325000D03*
D11*
X363118750Y-116325000D03*
X373278750Y-116325000D03*
X373278750Y-135375000D03*
X363118750Y-135375000D03*
D10*
X368198750Y-135375000D03*
X368198750Y-154425000D03*
D11*
X363118750Y-154425000D03*
X373278750Y-154425000D03*
D10*
X368198750Y-173475000D03*
D11*
X363118750Y-173475000D03*
X373278750Y-173475000D03*
X373278750Y-192525000D03*
X363118750Y-192525000D03*
D10*
X368198750Y-192525000D03*
D11*
X392328750Y-135372000D03*
X382168750Y-135372000D03*
D10*
X387248750Y-135372000D03*
X387248750Y-173475000D03*
D11*
X382168750Y-173475000D03*
X392328750Y-173475000D03*
D10*
X387248750Y-192525000D03*
D11*
X382168750Y-192525000D03*
X392328750Y-192525000D03*
X392328750Y-116325000D03*
X382168750Y-116325000D03*
D10*
X387248750Y-116325000D03*
X387248750Y-144895000D03*
D11*
X387248750Y-149975000D03*
X387248750Y-139815000D03*
D12*
X394233750Y-156833000D03*
X394233750Y-132957000D03*
D10*
X378993750Y-156833000D03*
X378993750Y-132957000D03*
X387248750Y-154425000D03*
D11*
X382168750Y-154425000D03*
X392328750Y-154425000D03*
D10*
X378993750Y-171057000D03*
X378993750Y-194933000D03*
D12*
X394233750Y-171057000D03*
X394233750Y-194933000D03*
D11*
X387248750Y-177915000D03*
X387248750Y-188075000D03*
D10*
X387248750Y-182995000D03*
X151504650Y-192532000D03*
D11*
X146424650Y-192532000D03*
X156584650Y-192532000D03*
D10*
X206305150Y-184277000D03*
X182429150Y-184277000D03*
D12*
X206305150Y-199517000D03*
X182429150Y-199517000D03*
D11*
X199447150Y-192532000D03*
X189287150Y-192532000D03*
D10*
X194367150Y-192532000D03*
D13*
X104444800Y-192532000D03*
D14*
X101904800Y-192532000D03*
D15*
X215044750Y-103041000D03*
X206404750Y-103041000D03*
D16*
X215044750Y-107221000D03*
X206404750Y-107221000D03*
D17*
X207834750Y-106691000D03*
X213614750Y-106691000D03*
D10*
X149117750Y-192525000D03*
D11*
X144037750Y-192525000D03*
X154197750Y-192525000D03*
D12*
X91967750Y-199510000D03*
X206267750Y-199510000D03*
D10*
X91967750Y-184270000D03*
X206267750Y-184270000D03*
X189604650Y-192532000D03*
D11*
X184524650Y-192532000D03*
X194684650Y-192532000D03*
D12*
X177666650Y-199517000D03*
X201542650Y-199517000D03*
D10*
X177666650Y-184277000D03*
X201542650Y-184277000D03*
X122929650Y-192532000D03*
D11*
X117849650Y-192532000D03*
X128009650Y-192532000D03*
D12*
X110991650Y-199517000D03*
X134867650Y-199517000D03*
D10*
X110991650Y-184277000D03*
X134867650Y-184277000D03*
X61010750Y-192525000D03*
D11*
X55930750Y-192525000D03*
X66090750Y-192525000D03*
G36*
G01*
X319839050Y-114585200D02*
X319326550Y-114585200D01*
G75*
G02*
X319107800Y-114366450I0J218750D01*
G01*
X319107800Y-113928950D01*
G75*
G02*
X319326550Y-113710200I218750J0D01*
G01*
X319839050Y-113710200D01*
G75*
G02*
X320057800Y-113928950I0J-218750D01*
G01*
X320057800Y-114366450D01*
G75*
G02*
X319839050Y-114585200I-218750J0D01*
G01*
G37*
G36*
G01*
X319839050Y-113010200D02*
X319326550Y-113010200D01*
G75*
G02*
X319107800Y-112791450I0J218750D01*
G01*
X319107800Y-112353950D01*
G75*
G02*
X319326550Y-112135200I218750J0D01*
G01*
X319839050Y-112135200D01*
G75*
G02*
X320057800Y-112353950I0J-218750D01*
G01*
X320057800Y-112791450D01*
G75*
G02*
X319839050Y-113010200I-218750J0D01*
G01*
G37*
G36*
G01*
X319839050Y-117734800D02*
X319326550Y-117734800D01*
G75*
G02*
X319107800Y-117516050I0J218750D01*
G01*
X319107800Y-117078550D01*
G75*
G02*
X319326550Y-116859800I218750J0D01*
G01*
X319839050Y-116859800D01*
G75*
G02*
X320057800Y-117078550I0J-218750D01*
G01*
X320057800Y-117516050D01*
G75*
G02*
X319839050Y-117734800I-218750J0D01*
G01*
G37*
G36*
G01*
X319839050Y-116159800D02*
X319326550Y-116159800D01*
G75*
G02*
X319107800Y-115941050I0J218750D01*
G01*
X319107800Y-115503550D01*
G75*
G02*
X319326550Y-115284800I218750J0D01*
G01*
X319839050Y-115284800D01*
G75*
G02*
X320057800Y-115503550I0J-218750D01*
G01*
X320057800Y-115941050D01*
G75*
G02*
X319839050Y-116159800I-218750J0D01*
G01*
G37*
G36*
G01*
X319839050Y-119309400D02*
X319326550Y-119309400D01*
G75*
G02*
X319107800Y-119090650I0J218750D01*
G01*
X319107800Y-118653150D01*
G75*
G02*
X319326550Y-118434400I218750J0D01*
G01*
X319839050Y-118434400D01*
G75*
G02*
X320057800Y-118653150I0J-218750D01*
G01*
X320057800Y-119090650D01*
G75*
G02*
X319839050Y-119309400I-218750J0D01*
G01*
G37*
G36*
G01*
X319839050Y-120884400D02*
X319326550Y-120884400D01*
G75*
G02*
X319107800Y-120665650I0J218750D01*
G01*
X319107800Y-120228150D01*
G75*
G02*
X319326550Y-120009400I218750J0D01*
G01*
X319839050Y-120009400D01*
G75*
G02*
X320057800Y-120228150I0J-218750D01*
G01*
X320057800Y-120665650D01*
G75*
G02*
X319839050Y-120884400I-218750J0D01*
G01*
G37*
D18*
X316738600Y-113707000D03*
X316738600Y-112607000D03*
X314908600Y-112607000D03*
X314908600Y-113707000D03*
X314895900Y-116882000D03*
X314895900Y-115782000D03*
X316725900Y-115782000D03*
X316725900Y-116882000D03*
X316738600Y-120057000D03*
X316738600Y-118957000D03*
X314908600Y-118957000D03*
X314908600Y-120057000D03*
M02*
