M48
; DRILL file {KiCad (5.1.8-0-10_14)} date Tuesday, April 06, 2021 at 12:11:48 PM
; FORMAT={-:-/ absolute / metric / decimal}
; #@! TF.CreationDate,2021-04-06T12:11:48+01:00
; #@! TF.GenerationSoftware,Kicad,Pcbnew,(5.1.8-0-10_14)
; #@! TF.FileFunction,NonPlated,1,2,NPTH
FMAT,2
METRIC
T1C0.650
T2C1.750
T3C3.048
T4C3.988
%
G90
G05
T1
X207.835Y-106.691
X213.615Y-106.691
T2
X382.169Y-173.475
X392.329Y-173.475
X255.956Y-192.525
X266.116Y-192.525
X146.425Y-192.532
X156.585Y-192.532
X153.563Y-192.525
X163.723Y-192.525
X191.661Y-135.375
X201.821Y-135.375
X117.85Y-192.532
X128.01Y-192.532
X91.649Y-173.475
X101.809Y-173.475
X325.019Y-116.325
X335.179Y-116.325
X387.249Y-139.815
X387.249Y-149.975
X220.239Y-116.325
X230.399Y-116.325
X48.789Y-116.325
X58.949Y-116.325
X363.119Y-135.375
X373.279Y-135.375
X284.535Y-154.425
X294.695Y-154.425
X201.189Y-116.325
X211.349Y-116.325
X248.811Y-135.375
X258.971Y-135.375
X229.761Y-135.375
X239.921Y-135.375
X325.019Y-173.475
X335.179Y-173.475
X277.389Y-116.325
X287.549Y-116.325
X363.119Y-192.525
X373.279Y-192.525
X86.889Y-116.325
X97.049Y-116.325
X205.949Y-173.475
X216.109Y-173.475
X36.881Y-154.425
X47.041Y-154.425
X74.981Y-192.525
X85.141Y-192.525
X344.069Y-173.475
X354.229Y-173.475
X120.224Y-154.425
X130.384Y-154.425
X129.749Y-173.475
X139.909Y-173.475
X53.55Y-192.525
X63.71Y-192.525
X32.119Y-173.475
X42.279Y-173.475
X110.699Y-173.475
X120.859Y-173.475
X77.361Y-135.375
X87.521Y-135.375
X325.019Y-135.375
X335.179Y-135.375
X153.561Y-135.375
X163.721Y-135.375
X270.242Y-173.475
X280.402Y-173.475
X382.169Y-154.425
X392.329Y-154.425
X29.739Y-116.325
X39.899Y-116.325
X167.849Y-173.475
X178.009Y-173.475
X234.529Y-154.425
X244.689Y-154.425
X234.525Y-192.525
X244.685Y-192.525
X294.06Y-144.9
X304.22Y-144.9
X344.069Y-135.375
X354.229Y-135.375
X184.525Y-192.532
X194.685Y-192.532
X96.411Y-135.375
X106.571Y-135.375
X301.199Y-197.285
X311.359Y-197.285
X382.169Y-192.525
X392.329Y-192.525
X258.339Y-116.325
X268.499Y-116.325
X113.087Y-192.532
X123.247Y-192.532
X41.644Y-173.475
X51.804Y-173.475
X189.287Y-192.532
X199.447Y-192.532
X151.181Y-192.525
X161.341Y-192.525
X196.429Y-154.425
X206.589Y-154.425
X253.575Y-192.525
X263.735Y-192.525
X63.075Y-192.525
X73.235Y-192.525
X163.089Y-116.325
X173.249Y-116.325
X267.86Y-135.375
X278.02Y-135.375
X55.931Y-192.525
X66.091Y-192.525
X79.744Y-192.525
X89.904Y-192.525
X291.673Y-135.375
X301.833Y-135.375
X58.311Y-135.375
X68.471Y-135.375
X34.5Y-192.525
X44.66Y-192.525
X210.711Y-135.375
X220.871Y-135.375
X253.579Y-154.425
X263.739Y-154.425
X82.124Y-154.425
X92.284Y-154.425
X301.039Y-178.125
X311.199Y-178.125
X105.939Y-116.325
X116.099Y-116.325
X320.249Y-197.285
X330.409Y-197.285
X382.169Y-135.372
X392.329Y-135.372
X213.094Y-192.525
X223.254Y-192.525
X344.069Y-192.525
X354.229Y-192.525
X182.139Y-116.325
X192.299Y-116.325
X286.913Y-116.325
X297.073Y-116.325
X296.439Y-116.325
X306.599Y-116.325
X32.119Y-192.525
X42.279Y-192.525
X363.119Y-116.325
X373.279Y-116.325
X124.989Y-116.325
X135.149Y-116.325
X363.119Y-154.425
X373.279Y-154.425
X239.289Y-116.325
X249.449Y-116.325
X172.611Y-135.375
X182.771Y-135.375
X325.019Y-154.425
X335.179Y-154.425
X158.329Y-154.425
X168.489Y-154.425
X282.149Y-197.285
X292.309Y-197.285
X155.95Y-192.532
X166.11Y-192.532
X387.249Y-177.915
X387.249Y-188.075
X215.479Y-154.425
X225.639Y-154.425
X244.049Y-173.475
X254.209Y-173.475
X34.501Y-135.375
X44.661Y-135.375
X344.069Y-154.425
X354.229Y-154.425
X144.038Y-192.525
X154.198Y-192.525
X115.461Y-135.375
X125.621Y-135.375
X53.549Y-173.475
X63.709Y-173.475
X101.174Y-154.425
X111.334Y-154.425
X382.169Y-116.325
X392.329Y-116.325
X225.0Y-192.525
X235.16Y-192.525
X186.899Y-173.475
X197.059Y-173.475
X67.839Y-116.325
X77.999Y-116.325
X144.039Y-116.325
X154.199Y-116.325
X272.629Y-154.425
X282.789Y-154.425
X134.511Y-135.375
X144.671Y-135.375
X63.074Y-154.425
X73.234Y-154.425
X363.119Y-173.475
X373.279Y-173.475
X32.119Y-154.425
X42.279Y-154.425
X72.599Y-173.475
X82.759Y-173.475
X177.379Y-154.425
X187.539Y-154.425
X139.279Y-154.425
X149.439Y-154.425
X148.799Y-173.475
X158.959Y-173.475
X224.999Y-173.475
X235.159Y-173.475
X344.069Y-116.325
X354.229Y-116.325
T3
X306.125Y-132.962
X306.125Y-156.838
X177.667Y-199.517
X201.543Y-199.517
X106.229Y-199.517
X130.105Y-199.517
X34.786Y-166.49
X58.662Y-166.49
X182.429Y-199.517
X206.305Y-199.517
X106.261Y-199.51
X206.261Y-199.51
X280.055Y-109.34
X303.931Y-109.34
X394.234Y-171.057
X394.234Y-194.933
X91.968Y-199.51
X206.268Y-199.51
X101.493Y-199.51
X196.743Y-199.51
X110.992Y-199.517
X134.868Y-199.517
X394.234Y-132.957
X394.234Y-156.833
X277.677Y-147.44
X301.553Y-147.44
T4
X177.691Y-135.375
X330.099Y-154.425
X163.409Y-154.425
X287.229Y-197.285
X161.03Y-192.532
X378.994Y-171.057
X378.994Y-194.933
X387.249Y-182.995
X220.559Y-154.425
X249.129Y-173.475
X39.581Y-135.375
X349.149Y-154.425
X91.968Y-184.27
X149.118Y-192.525
X206.268Y-184.27
X120.541Y-135.375
X58.629Y-173.475
X106.254Y-154.425
X387.249Y-116.325
X230.08Y-192.525
X191.979Y-173.475
X72.919Y-116.325
X149.119Y-116.325
X277.709Y-154.425
X139.591Y-135.375
X68.154Y-154.425
X368.199Y-173.475
X37.199Y-154.425
X77.679Y-173.475
X182.459Y-154.425
X144.359Y-154.425
X153.879Y-173.475
X230.079Y-173.475
X349.149Y-116.325
X387.249Y-173.475
X261.036Y-192.525
X151.505Y-192.532
X101.493Y-184.27
X158.643Y-192.525
X196.743Y-184.27
X196.741Y-135.375
X110.992Y-184.277
X122.93Y-192.532
X134.868Y-184.277
X96.729Y-173.475
X330.099Y-116.325
X378.994Y-132.957
X378.994Y-156.833
X387.249Y-144.895
X225.319Y-116.325
X53.869Y-116.325
X368.199Y-135.375
X277.677Y-162.68
X289.615Y-154.425
X301.553Y-162.68
X206.269Y-116.325
X253.891Y-135.375
X234.841Y-135.375
X330.099Y-173.475
X282.469Y-116.325
X368.199Y-192.525
X91.969Y-116.325
X211.029Y-173.475
X41.961Y-154.425
X80.061Y-192.525
X349.149Y-173.475
X125.304Y-154.425
X134.829Y-173.475
X58.63Y-192.525
X37.199Y-173.475
X115.779Y-173.475
X82.441Y-135.375
X330.099Y-135.375
X158.641Y-135.375
X275.322Y-173.475
X387.249Y-154.425
X34.819Y-116.325
X172.929Y-173.475
X239.609Y-154.425
X239.605Y-192.525
X290.885Y-132.962
X290.885Y-156.838
X299.14Y-144.9
X349.149Y-135.375
X177.667Y-184.277
X189.605Y-192.532
X201.543Y-184.277
X101.491Y-135.375
X306.279Y-197.285
X387.249Y-192.525
X263.419Y-116.325
X106.229Y-184.277
X118.167Y-192.532
X130.105Y-184.277
X34.786Y-181.73
X46.724Y-173.475
X58.662Y-181.73
X182.429Y-184.277
X194.367Y-192.532
X206.305Y-184.277
X106.261Y-184.27
X156.261Y-192.525
X206.261Y-184.27
X201.509Y-154.425
X258.655Y-192.525
X68.155Y-192.525
X168.169Y-116.325
X272.94Y-135.375
X61.011Y-192.525
X84.824Y-192.525
X296.753Y-135.375
X63.391Y-135.375
X39.58Y-192.525
X215.791Y-135.375
X258.659Y-154.425
X87.204Y-154.425
X306.119Y-178.125
X111.019Y-116.325
X325.329Y-197.285
X387.249Y-135.372
X218.174Y-192.525
X349.149Y-192.525
X187.219Y-116.325
X280.055Y-124.58
X291.993Y-116.325
X303.931Y-124.58
X301.519Y-116.325
X37.199Y-192.525
X368.199Y-116.325
X130.069Y-116.325
X368.199Y-154.425
X244.369Y-116.325
T0
M30
