G04 #@! TF.GenerationSoftware,KiCad,Pcbnew,(6.0.6)*
G04 #@! TF.CreationDate,2022-07-24T17:02:04+01:00*
G04 #@! TF.ProjectId,cypher,63797068-6572-42e6-9b69-6361645f7063,rev?*
G04 #@! TF.SameCoordinates,Original*
G04 #@! TF.FileFunction,Legend,Top*
G04 #@! TF.FilePolarity,Positive*
%FSLAX46Y46*%
G04 Gerber Fmt 4.6, Leading zero omitted, Abs format (unit mm)*
G04 Created by KiCad (PCBNEW (6.0.6)) date 2022-07-24 17:02:04*
%MOMM*%
%LPD*%
G01*
G04 APERTURE LIST*
%ADD10C,0.300000*%
%ADD11C,0.150000*%
%ADD12C,0.120000*%
%ADD13C,0.100000*%
G04 APERTURE END LIST*
D10*
X318151778Y-136407942D02*
X319294635Y-136407942D01*
X318723207Y-136979371D02*
X318723207Y-135836514D01*
X320723207Y-135479371D02*
X320008921Y-135479371D01*
X319937492Y-136193657D01*
X320008921Y-136122228D01*
X320151778Y-136050800D01*
X320508921Y-136050800D01*
X320651778Y-136122228D01*
X320723207Y-136193657D01*
X320794635Y-136336514D01*
X320794635Y-136693657D01*
X320723207Y-136836514D01*
X320651778Y-136907942D01*
X320508921Y-136979371D01*
X320151778Y-136979371D01*
X320008921Y-136907942D01*
X319937492Y-136836514D01*
X321223207Y-135479371D02*
X321723207Y-136979371D01*
X322223207Y-135479371D01*
X319224492Y-138256800D02*
X319081635Y-138185371D01*
X318867350Y-138185371D01*
X318653064Y-138256800D01*
X318510207Y-138399657D01*
X318438778Y-138542514D01*
X318367350Y-138828228D01*
X318367350Y-139042514D01*
X318438778Y-139328228D01*
X318510207Y-139471085D01*
X318653064Y-139613942D01*
X318867350Y-139685371D01*
X319010207Y-139685371D01*
X319224492Y-139613942D01*
X319295921Y-139542514D01*
X319295921Y-139042514D01*
X319010207Y-139042514D01*
X319938778Y-139685371D02*
X319938778Y-138185371D01*
X320795921Y-139685371D01*
X320795921Y-138185371D01*
X321510207Y-139685371D02*
X321510207Y-138185371D01*
X321867350Y-138185371D01*
X322081635Y-138256800D01*
X322224492Y-138399657D01*
X322295921Y-138542514D01*
X322367350Y-138828228D01*
X322367350Y-139042514D01*
X322295921Y-139328228D01*
X322224492Y-139471085D01*
X322081635Y-139613942D01*
X321867350Y-139685371D01*
X321510207Y-139685371D01*
X318972571Y-133668657D02*
X319186857Y-133740085D01*
X319258285Y-133811514D01*
X319329714Y-133954371D01*
X319329714Y-134168657D01*
X319258285Y-134311514D01*
X319186857Y-134382942D01*
X319044000Y-134454371D01*
X318472571Y-134454371D01*
X318472571Y-132954371D01*
X318972571Y-132954371D01*
X319115428Y-133025800D01*
X319186857Y-133097228D01*
X319258285Y-133240085D01*
X319258285Y-133382942D01*
X319186857Y-133525800D01*
X319115428Y-133597228D01*
X318972571Y-133668657D01*
X318472571Y-133668657D01*
X320758285Y-134454371D02*
X319901142Y-134454371D01*
X320329714Y-134454371D02*
X320329714Y-132954371D01*
X320186857Y-133168657D01*
X320044000Y-133311514D01*
X319901142Y-133382942D01*
X322115428Y-132954371D02*
X321401142Y-132954371D01*
X321329714Y-133668657D01*
X321401142Y-133597228D01*
X321544000Y-133525800D01*
X321901142Y-133525800D01*
X322044000Y-133597228D01*
X322115428Y-133668657D01*
X322186857Y-133811514D01*
X322186857Y-134168657D01*
X322115428Y-134311514D01*
X322044000Y-134382942D01*
X321901142Y-134454371D01*
X321544000Y-134454371D01*
X321401142Y-134382942D01*
X321329714Y-134311514D01*
D11*
X176404114Y-195492452D02*
X176404114Y-195111500D01*
X176070780Y-195349595D02*
X176927923Y-195349595D01*
X177023161Y-195301976D01*
X177070780Y-195206738D01*
X177070780Y-195111500D01*
X177070780Y-194635309D02*
X177023161Y-194730547D01*
X176975542Y-194778166D01*
X176880304Y-194825785D01*
X176594590Y-194825785D01*
X176499352Y-194778166D01*
X176451733Y-194730547D01*
X176404114Y-194635309D01*
X176404114Y-194492452D01*
X176451733Y-194397214D01*
X176499352Y-194349595D01*
X176594590Y-194301976D01*
X176880304Y-194301976D01*
X176975542Y-194349595D01*
X177023161Y-194397214D01*
X177070780Y-194492452D01*
X177070780Y-194635309D01*
X177070780Y-193111500D02*
X176404114Y-193111500D01*
X176594590Y-193111500D02*
X176499352Y-193063880D01*
X176451733Y-193016261D01*
X176404114Y-192921023D01*
X176404114Y-192825785D01*
X177023161Y-192111500D02*
X177070780Y-192206738D01*
X177070780Y-192397214D01*
X177023161Y-192492452D01*
X176927923Y-192540071D01*
X176546971Y-192540071D01*
X176451733Y-192492452D01*
X176404114Y-192397214D01*
X176404114Y-192206738D01*
X176451733Y-192111500D01*
X176546971Y-192063880D01*
X176642209Y-192063880D01*
X176737447Y-192540071D01*
X177023161Y-191682928D02*
X177070780Y-191587690D01*
X177070780Y-191397214D01*
X177023161Y-191301976D01*
X176927923Y-191254357D01*
X176880304Y-191254357D01*
X176785066Y-191301976D01*
X176737447Y-191397214D01*
X176737447Y-191540071D01*
X176689828Y-191635309D01*
X176594590Y-191682928D01*
X176546971Y-191682928D01*
X176451733Y-191635309D01*
X176404114Y-191540071D01*
X176404114Y-191397214D01*
X176451733Y-191301976D01*
X177023161Y-190444833D02*
X177070780Y-190540071D01*
X177070780Y-190730547D01*
X177023161Y-190825785D01*
X176927923Y-190873404D01*
X176546971Y-190873404D01*
X176451733Y-190825785D01*
X176404114Y-190730547D01*
X176404114Y-190540071D01*
X176451733Y-190444833D01*
X176546971Y-190397214D01*
X176642209Y-190397214D01*
X176737447Y-190873404D01*
X176404114Y-190111500D02*
X176404114Y-189730547D01*
X176070780Y-189968642D02*
X176927923Y-189968642D01*
X177023161Y-189921023D01*
X177070780Y-189825785D01*
X177070780Y-189730547D01*
X175523161Y-196325785D02*
X175570780Y-196182928D01*
X175570780Y-195944833D01*
X175523161Y-195849595D01*
X175475542Y-195801976D01*
X175380304Y-195754357D01*
X175285066Y-195754357D01*
X175189828Y-195801976D01*
X175142209Y-195849595D01*
X175094590Y-195944833D01*
X175046971Y-196135309D01*
X174999352Y-196230547D01*
X174951733Y-196278166D01*
X174856495Y-196325785D01*
X174761257Y-196325785D01*
X174666019Y-196278166D01*
X174618400Y-196230547D01*
X174570780Y-196135309D01*
X174570780Y-195897214D01*
X174618400Y-195754357D01*
X175570780Y-195325785D02*
X174570780Y-195325785D01*
X175570780Y-194897214D02*
X175046971Y-194897214D01*
X174951733Y-194944833D01*
X174904114Y-195040071D01*
X174904114Y-195182928D01*
X174951733Y-195278166D01*
X174999352Y-195325785D01*
X175570780Y-194278166D02*
X175523161Y-194373404D01*
X175475542Y-194421023D01*
X175380304Y-194468642D01*
X175094590Y-194468642D01*
X174999352Y-194421023D01*
X174951733Y-194373404D01*
X174904114Y-194278166D01*
X174904114Y-194135309D01*
X174951733Y-194040071D01*
X174999352Y-193992452D01*
X175094590Y-193944833D01*
X175380304Y-193944833D01*
X175475542Y-193992452D01*
X175523161Y-194040071D01*
X175570780Y-194135309D01*
X175570780Y-194278166D01*
X175570780Y-193516261D02*
X174904114Y-193516261D01*
X175094590Y-193516261D02*
X174999352Y-193468642D01*
X174951733Y-193421023D01*
X174904114Y-193325785D01*
X174904114Y-193230547D01*
X174904114Y-193040071D02*
X174904114Y-192659119D01*
X174570780Y-192897214D02*
X175427923Y-192897214D01*
X175523161Y-192849595D01*
X175570780Y-192754357D01*
X175570780Y-192659119D01*
X174904114Y-191563880D02*
X175904114Y-191563880D01*
X174951733Y-191563880D02*
X174904114Y-191468642D01*
X174904114Y-191278166D01*
X174951733Y-191182928D01*
X174999352Y-191135309D01*
X175094590Y-191087690D01*
X175380304Y-191087690D01*
X175475542Y-191135309D01*
X175523161Y-191182928D01*
X175570780Y-191278166D01*
X175570780Y-191468642D01*
X175523161Y-191563880D01*
X175570780Y-190659119D02*
X174904114Y-190659119D01*
X174570780Y-190659119D02*
X174618400Y-190706738D01*
X174666019Y-190659119D01*
X174618400Y-190611500D01*
X174570780Y-190659119D01*
X174666019Y-190659119D01*
X174904114Y-190182928D02*
X175570780Y-190182928D01*
X174999352Y-190182928D02*
X174951733Y-190135309D01*
X174904114Y-190040071D01*
X174904114Y-189897214D01*
X174951733Y-189801976D01*
X175046971Y-189754357D01*
X175570780Y-189754357D01*
X175523161Y-189325785D02*
X175570780Y-189230547D01*
X175570780Y-189040071D01*
X175523161Y-188944833D01*
X175427923Y-188897214D01*
X175380304Y-188897214D01*
X175285066Y-188944833D01*
X175237447Y-189040071D01*
X175237447Y-189182928D01*
X175189828Y-189278166D01*
X175094590Y-189325785D01*
X175046971Y-189325785D01*
X174951733Y-189278166D01*
X174904114Y-189182928D01*
X174904114Y-189040071D01*
X174951733Y-188944833D01*
X314104280Y-113895095D02*
X313104280Y-113895095D01*
X313104280Y-113657000D01*
X313151900Y-113514142D01*
X313247138Y-113418904D01*
X313342376Y-113371285D01*
X313532852Y-113323666D01*
X313675709Y-113323666D01*
X313866185Y-113371285D01*
X313961423Y-113418904D01*
X314056661Y-113514142D01*
X314104280Y-113657000D01*
X314104280Y-113895095D01*
X314104280Y-112371285D02*
X314104280Y-112942714D01*
X314104280Y-112657000D02*
X313104280Y-112657000D01*
X313247138Y-112752238D01*
X313342376Y-112847476D01*
X313389995Y-112942714D01*
X314040780Y-117133595D02*
X313040780Y-117133595D01*
X313040780Y-116895500D01*
X313088400Y-116752642D01*
X313183638Y-116657404D01*
X313278876Y-116609785D01*
X313469352Y-116562166D01*
X313612209Y-116562166D01*
X313802685Y-116609785D01*
X313897923Y-116657404D01*
X313993161Y-116752642D01*
X314040780Y-116895500D01*
X314040780Y-117133595D01*
X313136019Y-116181214D02*
X313088400Y-116133595D01*
X313040780Y-116038357D01*
X313040780Y-115800261D01*
X313088400Y-115705023D01*
X313136019Y-115657404D01*
X313231257Y-115609785D01*
X313326495Y-115609785D01*
X313469352Y-115657404D01*
X314040780Y-116228833D01*
X314040780Y-115609785D01*
X314040780Y-120245095D02*
X313040780Y-120245095D01*
X313040780Y-120007000D01*
X313088400Y-119864142D01*
X313183638Y-119768904D01*
X313278876Y-119721285D01*
X313469352Y-119673666D01*
X313612209Y-119673666D01*
X313802685Y-119721285D01*
X313897923Y-119768904D01*
X313993161Y-119864142D01*
X314040780Y-120007000D01*
X314040780Y-120245095D01*
X313040780Y-119340333D02*
X313040780Y-118721285D01*
X313421733Y-119054619D01*
X313421733Y-118911761D01*
X313469352Y-118816523D01*
X313516971Y-118768904D01*
X313612209Y-118721285D01*
X313850304Y-118721285D01*
X313945542Y-118768904D01*
X313993161Y-118816523D01*
X314040780Y-118911761D01*
X314040780Y-119197476D01*
X313993161Y-119292714D01*
X313945542Y-119340333D01*
X321852542Y-113323666D02*
X321900161Y-113371285D01*
X321947780Y-113514142D01*
X321947780Y-113609380D01*
X321900161Y-113752238D01*
X321804923Y-113847476D01*
X321709685Y-113895095D01*
X321519209Y-113942714D01*
X321376352Y-113942714D01*
X321185876Y-113895095D01*
X321090638Y-113847476D01*
X320995400Y-113752238D01*
X320947780Y-113609380D01*
X320947780Y-113514142D01*
X320995400Y-113371285D01*
X321043019Y-113323666D01*
X321376352Y-112752238D02*
X321328733Y-112847476D01*
X321281114Y-112895095D01*
X321185876Y-112942714D01*
X321138257Y-112942714D01*
X321043019Y-112895095D01*
X320995400Y-112847476D01*
X320947780Y-112752238D01*
X320947780Y-112561761D01*
X320995400Y-112466523D01*
X321043019Y-112418904D01*
X321138257Y-112371285D01*
X321185876Y-112371285D01*
X321281114Y-112418904D01*
X321328733Y-112466523D01*
X321376352Y-112561761D01*
X321376352Y-112752238D01*
X321423971Y-112847476D01*
X321471590Y-112895095D01*
X321566828Y-112942714D01*
X321757304Y-112942714D01*
X321852542Y-112895095D01*
X321900161Y-112847476D01*
X321947780Y-112752238D01*
X321947780Y-112561761D01*
X321900161Y-112466523D01*
X321852542Y-112418904D01*
X321757304Y-112371285D01*
X321566828Y-112371285D01*
X321471590Y-112418904D01*
X321423971Y-112466523D01*
X321376352Y-112561761D01*
X321852542Y-116625666D02*
X321900161Y-116673285D01*
X321947780Y-116816142D01*
X321947780Y-116911380D01*
X321900161Y-117054238D01*
X321804923Y-117149476D01*
X321709685Y-117197095D01*
X321519209Y-117244714D01*
X321376352Y-117244714D01*
X321185876Y-117197095D01*
X321090638Y-117149476D01*
X320995400Y-117054238D01*
X320947780Y-116911380D01*
X320947780Y-116816142D01*
X320995400Y-116673285D01*
X321043019Y-116625666D01*
X321947780Y-116149476D02*
X321947780Y-115959000D01*
X321900161Y-115863761D01*
X321852542Y-115816142D01*
X321709685Y-115720904D01*
X321519209Y-115673285D01*
X321138257Y-115673285D01*
X321043019Y-115720904D01*
X320995400Y-115768523D01*
X320947780Y-115863761D01*
X320947780Y-116054238D01*
X320995400Y-116149476D01*
X321043019Y-116197095D01*
X321138257Y-116244714D01*
X321376352Y-116244714D01*
X321471590Y-116197095D01*
X321519209Y-116149476D01*
X321566828Y-116054238D01*
X321566828Y-115863761D01*
X321519209Y-115768523D01*
X321471590Y-115720904D01*
X321376352Y-115673285D01*
X321852542Y-120149857D02*
X321900161Y-120197476D01*
X321947780Y-120340333D01*
X321947780Y-120435571D01*
X321900161Y-120578428D01*
X321804923Y-120673666D01*
X321709685Y-120721285D01*
X321519209Y-120768904D01*
X321376352Y-120768904D01*
X321185876Y-120721285D01*
X321090638Y-120673666D01*
X320995400Y-120578428D01*
X320947780Y-120435571D01*
X320947780Y-120340333D01*
X320995400Y-120197476D01*
X321043019Y-120149857D01*
X321947780Y-119197476D02*
X321947780Y-119768904D01*
X321947780Y-119483190D02*
X320947780Y-119483190D01*
X321090638Y-119578428D01*
X321185876Y-119673666D01*
X321233495Y-119768904D01*
X320947780Y-118578428D02*
X320947780Y-118483190D01*
X320995400Y-118387952D01*
X321043019Y-118340333D01*
X321138257Y-118292714D01*
X321328733Y-118245095D01*
X321566828Y-118245095D01*
X321757304Y-118292714D01*
X321852542Y-118340333D01*
X321900161Y-118387952D01*
X321947780Y-118483190D01*
X321947780Y-118578428D01*
X321900161Y-118673666D01*
X321852542Y-118721285D01*
X321757304Y-118768904D01*
X321566828Y-118816523D01*
X321328733Y-118816523D01*
X321138257Y-118768904D01*
X321043019Y-118721285D01*
X320995400Y-118673666D01*
X320947780Y-118578428D01*
D12*
X314480900Y-131512000D02*
X315810900Y-131512000D01*
X314480900Y-134112000D02*
X314480900Y-139252000D01*
X317140900Y-134112000D02*
X317140900Y-139252000D01*
X314480900Y-139252000D02*
X317140900Y-139252000D01*
X314480900Y-132842000D02*
X314480900Y-131512000D01*
X314480900Y-134112000D02*
X317140900Y-134112000D01*
X171118400Y-190111500D02*
X174118400Y-190111500D01*
X174118400Y-195111500D02*
X171118400Y-195111500D01*
X173893400Y-191611500D02*
X173893400Y-193636500D01*
X174118400Y-190111500D02*
X174118400Y-195111500D01*
X171343400Y-191611500D02*
X173893400Y-191611500D01*
X171118400Y-195111500D02*
X171118400Y-190111500D01*
X171343400Y-193636500D02*
X171343400Y-191611500D01*
X173893400Y-193636500D02*
X171343400Y-193636500D01*
G36*
X316310900Y-114157000D02*
G01*
X315810900Y-114157000D01*
X315810900Y-112157000D01*
X316310900Y-112157000D01*
X316310900Y-114157000D01*
G37*
G36*
X316247400Y-117395500D02*
G01*
X315747400Y-117395500D01*
X315747400Y-115395500D01*
X316247400Y-115395500D01*
X316247400Y-117395500D01*
G37*
G36*
X316247400Y-120507000D02*
G01*
X315747400Y-120507000D01*
X315747400Y-118507000D01*
X316247400Y-118507000D01*
X316247400Y-120507000D01*
G37*
X319555400Y-113016420D02*
X319555400Y-113297580D01*
X320575400Y-113016420D02*
X320575400Y-113297580D01*
X319555400Y-116318420D02*
X319555400Y-116599580D01*
X320575400Y-116318420D02*
X320575400Y-116599580D01*
X320575400Y-119366420D02*
X320575400Y-119647580D01*
X319555400Y-119366420D02*
X319555400Y-119647580D01*
G36*
X109009278Y-188026254D02*
G01*
X109104138Y-188121457D01*
X109138859Y-188251507D01*
X109104138Y-188381557D01*
X109009278Y-188476761D01*
X108879698Y-188511608D01*
X105677911Y-188511608D01*
X105677911Y-189226061D01*
X106370101Y-189226061D01*
X106592425Y-189293615D01*
X106740799Y-189472991D01*
X106764986Y-189705790D01*
X106658786Y-189914174D01*
X106055171Y-190536440D01*
X107898822Y-190536440D01*
X108148292Y-190561635D01*
X108380706Y-190633907D01*
X108774503Y-190899790D01*
X109040468Y-191294308D01*
X109113094Y-191527373D01*
X109138859Y-191777679D01*
X109138859Y-194214062D01*
X109113117Y-194464588D01*
X109040545Y-194697918D01*
X108774704Y-195093118D01*
X108380932Y-195359922D01*
X108148444Y-195432758D01*
X107898822Y-195458593D01*
X102935397Y-195458593D01*
X102685995Y-195432735D01*
X102453772Y-195359846D01*
X102060679Y-195092917D01*
X101795756Y-194697693D01*
X101723745Y-194464436D01*
X101698641Y-194214062D01*
X102216963Y-194214062D01*
X102273345Y-194495208D01*
X102427187Y-194725080D01*
X102655526Y-194880526D01*
X102935397Y-194938392D01*
X107898822Y-194938392D01*
X108179179Y-194880605D01*
X108408198Y-194725284D01*
X108562958Y-194495434D01*
X108620537Y-194214062D01*
X108620537Y-191777679D01*
X108562879Y-191496793D01*
X108407995Y-191267627D01*
X108178953Y-191113227D01*
X107898822Y-191056641D01*
X102935397Y-191056641D01*
X102656318Y-191114169D01*
X102428341Y-191268785D01*
X102274284Y-191497588D01*
X102216963Y-191777679D01*
X102216963Y-194214062D01*
X101698641Y-194214062D01*
X101698641Y-191777679D01*
X101723768Y-191527526D01*
X101795832Y-191294533D01*
X102060879Y-190899990D01*
X102453996Y-190633983D01*
X102686148Y-190561658D01*
X102935397Y-190536440D01*
X105330176Y-190536440D01*
X106097818Y-189746262D01*
X104149189Y-189746262D01*
X104019609Y-189711415D01*
X103924749Y-189616211D01*
X103890028Y-189486161D01*
X103924749Y-189356111D01*
X104019609Y-189260908D01*
X104149189Y-189226061D01*
X105159589Y-189226061D01*
X105159589Y-188511608D01*
X101957802Y-188511608D01*
X101774548Y-188435426D01*
X101698641Y-188251507D01*
X101774548Y-188067588D01*
X101957802Y-187991407D01*
X108879698Y-187991407D01*
X109009278Y-188026254D01*
G37*
D13*
X109009278Y-188026254D02*
X109104138Y-188121457D01*
X109138859Y-188251507D01*
X109104138Y-188381557D01*
X109009278Y-188476761D01*
X108879698Y-188511608D01*
X105677911Y-188511608D01*
X105677911Y-189226061D01*
X106370101Y-189226061D01*
X106592425Y-189293615D01*
X106740799Y-189472991D01*
X106764986Y-189705790D01*
X106658786Y-189914174D01*
X106055171Y-190536440D01*
X107898822Y-190536440D01*
X108148292Y-190561635D01*
X108380706Y-190633907D01*
X108774503Y-190899790D01*
X109040468Y-191294308D01*
X109113094Y-191527373D01*
X109138859Y-191777679D01*
X109138859Y-194214062D01*
X109113117Y-194464588D01*
X109040545Y-194697918D01*
X108774704Y-195093118D01*
X108380932Y-195359922D01*
X108148444Y-195432758D01*
X107898822Y-195458593D01*
X102935397Y-195458593D01*
X102685995Y-195432735D01*
X102453772Y-195359846D01*
X102060679Y-195092917D01*
X101795756Y-194697693D01*
X101723745Y-194464436D01*
X101698641Y-194214062D01*
X102216963Y-194214062D01*
X102273345Y-194495208D01*
X102427187Y-194725080D01*
X102655526Y-194880526D01*
X102935397Y-194938392D01*
X107898822Y-194938392D01*
X108179179Y-194880605D01*
X108408198Y-194725284D01*
X108562958Y-194495434D01*
X108620537Y-194214062D01*
X108620537Y-191777679D01*
X108562879Y-191496793D01*
X108407995Y-191267627D01*
X108178953Y-191113227D01*
X107898822Y-191056641D01*
X102935397Y-191056641D01*
X102656318Y-191114169D01*
X102428341Y-191268785D01*
X102274284Y-191497588D01*
X102216963Y-191777679D01*
X102216963Y-194214062D01*
X101698641Y-194214062D01*
X101698641Y-191777679D01*
X101723768Y-191527526D01*
X101795832Y-191294533D01*
X102060879Y-190899990D01*
X102453996Y-190633983D01*
X102686148Y-190561658D01*
X102935397Y-190536440D01*
X105330176Y-190536440D01*
X106097818Y-189746262D01*
X104149189Y-189746262D01*
X104019609Y-189711415D01*
X103924749Y-189616211D01*
X103890028Y-189486161D01*
X103924749Y-189356111D01*
X104019609Y-189260908D01*
X104149189Y-189226061D01*
X105159589Y-189226061D01*
X105159589Y-188511608D01*
X101957802Y-188511608D01*
X101774548Y-188435426D01*
X101698641Y-188251507D01*
X101774548Y-188067588D01*
X101957802Y-187991407D01*
X108879698Y-187991407D01*
X109009278Y-188026254D01*
G36*
X107236929Y-191557561D02*
G01*
X107497728Y-191700119D01*
X107724912Y-191888699D01*
X107912324Y-192117108D01*
X108053811Y-192379156D01*
X108143217Y-192668653D01*
X108174386Y-192979408D01*
X108174386Y-193015625D01*
X108142646Y-193325870D01*
X108052869Y-193614821D01*
X107911194Y-193876320D01*
X107723755Y-194104208D01*
X107496689Y-194292327D01*
X107236135Y-194434516D01*
X106948227Y-194524618D01*
X106639103Y-194556472D01*
X104198397Y-194556472D01*
X103888764Y-194525191D01*
X103600313Y-194435461D01*
X103339211Y-194293461D01*
X103111626Y-194105369D01*
X103051971Y-194032980D01*
X104162311Y-194032980D01*
X104162312Y-194032980D01*
X104168872Y-194036272D01*
X104759366Y-194036272D01*
X105484361Y-194036272D01*
X106632543Y-194036272D01*
X107021717Y-193958580D01*
X107351643Y-193737332D01*
X107572092Y-193406210D01*
X107649504Y-193015625D01*
X107649505Y-193015625D01*
X107656065Y-192979408D01*
X107629713Y-192753197D01*
X107555060Y-192541018D01*
X107435774Y-192350490D01*
X107275525Y-192189230D01*
X105484361Y-194036272D01*
X104759366Y-194036272D01*
X106757202Y-191958761D01*
X106176550Y-191958761D01*
X104162311Y-194032980D01*
X103051971Y-194032980D01*
X102923728Y-193877362D01*
X102781684Y-193615617D01*
X102691663Y-193326313D01*
X102659833Y-193015625D01*
X103178155Y-193015625D01*
X103209200Y-193261752D01*
X103296709Y-193490071D01*
X103435659Y-193691058D01*
X103621026Y-193855189D01*
X105458116Y-191958761D01*
X104198397Y-191958761D01*
X103802066Y-192038892D01*
X103478135Y-192257501D01*
X103259274Y-192581901D01*
X103178155Y-192979408D01*
X103178155Y-193015625D01*
X102659833Y-193015625D01*
X102659833Y-192979408D01*
X102691640Y-192668500D01*
X102781608Y-192378931D01*
X102923586Y-192116872D01*
X103111426Y-191888497D01*
X103338976Y-191699977D01*
X103600088Y-191557484D01*
X103888612Y-191467190D01*
X104198397Y-191435268D01*
X106639103Y-191435268D01*
X106948669Y-191467213D01*
X107236929Y-191557561D01*
G37*
X107236929Y-191557561D02*
X107497728Y-191700119D01*
X107724912Y-191888699D01*
X107912324Y-192117108D01*
X108053811Y-192379156D01*
X108143217Y-192668653D01*
X108174386Y-192979408D01*
X108174386Y-193015625D01*
X108142646Y-193325870D01*
X108052869Y-193614821D01*
X107911194Y-193876320D01*
X107723755Y-194104208D01*
X107496689Y-194292327D01*
X107236135Y-194434516D01*
X106948227Y-194524618D01*
X106639103Y-194556472D01*
X104198397Y-194556472D01*
X103888764Y-194525191D01*
X103600313Y-194435461D01*
X103339211Y-194293461D01*
X103111626Y-194105369D01*
X103051971Y-194032980D01*
X104162311Y-194032980D01*
X104162312Y-194032980D01*
X104168872Y-194036272D01*
X104759366Y-194036272D01*
X105484361Y-194036272D01*
X106632543Y-194036272D01*
X107021717Y-193958580D01*
X107351643Y-193737332D01*
X107572092Y-193406210D01*
X107649504Y-193015625D01*
X107649505Y-193015625D01*
X107656065Y-192979408D01*
X107629713Y-192753197D01*
X107555060Y-192541018D01*
X107435774Y-192350490D01*
X107275525Y-192189230D01*
X105484361Y-194036272D01*
X104759366Y-194036272D01*
X106757202Y-191958761D01*
X106176550Y-191958761D01*
X104162311Y-194032980D01*
X103051971Y-194032980D01*
X102923728Y-193877362D01*
X102781684Y-193615617D01*
X102691663Y-193326313D01*
X102659833Y-193015625D01*
X103178155Y-193015625D01*
X103209200Y-193261752D01*
X103296709Y-193490071D01*
X103435659Y-193691058D01*
X103621026Y-193855189D01*
X105458116Y-191958761D01*
X104198397Y-191958761D01*
X103802066Y-192038892D01*
X103478135Y-192257501D01*
X103259274Y-192581901D01*
X103178155Y-192979408D01*
X103178155Y-193015625D01*
X102659833Y-193015625D01*
X102659833Y-192979408D01*
X102691640Y-192668500D01*
X102781608Y-192378931D01*
X102923586Y-192116872D01*
X103111426Y-191888497D01*
X103338976Y-191699977D01*
X103600088Y-191557484D01*
X103888612Y-191467190D01*
X104198397Y-191435268D01*
X106639103Y-191435268D01*
X106948669Y-191467213D01*
X107236929Y-191557561D01*
M02*
