M48
; DRILL file {KiCad (5.1.0)-1} date 07/17/19 20:21:05
; FORMAT={-:-/ absolute / inch / decimal}
; #@! TF.CreationDate,2019-07-17T20:21:05+01:00
; #@! TF.GenerationSoftware,Kicad,Pcbnew,(5.1.0)-1
; #@! TF.FileFunction,NonPlated,1,2,NPTH
FMAT,2
INCH
T1C0.0256
T2C0.0689
T3C0.1200
T4C0.1570
%
G90
G05
T1
X8.1825Y-4.2004
X8.41Y-4.2004
T2
X10.9208Y-4.5797
X11.3208Y-4.5797
X5.2957Y-5.3297
X5.6957Y-5.3297
X2.4833Y-7.5797
X2.8833Y-7.5797
X13.546Y-6.0797
X13.946Y-6.0797
X7.2648Y-7.58
X7.6647Y-7.58
X1.3583Y-5.3297
X1.7583Y-5.3297
X5.952Y-7.5797
X6.352Y-7.5797
X3.7957Y-5.3297
X4.1957Y-5.3297
X9.2334Y-6.0797
X9.6334Y-6.0797
X12.796Y-5.3297
X13.196Y-5.3297
X4.7332Y-6.0797
X5.1332Y-6.0797
X11.5772Y-5.7047
X11.9772Y-5.7047
X4.6398Y-7.58
X5.0397Y-7.58
X2.1082Y-6.8297
X2.5082Y-6.8297
X8.2957Y-5.3297
X8.6957Y-5.3297
X4.9208Y-4.5797
X5.3208Y-4.5797
X8.4834Y-6.0797
X8.8834Y-6.0797
X2.1083Y-7.5797
X2.5083Y-7.5797
X9.4208Y-4.5797
X9.8208Y-4.5797
X5.1082Y-6.8297
X5.5082Y-6.8297
X11.8519Y-7.0128
X12.2519Y-7.0128
X1.3583Y-7.5797
X1.7583Y-7.5797
X11.1082Y-7.7671
X11.5082Y-7.7671
X3.6082Y-6.8297
X4.0082Y-6.8297
X12.6082Y-7.7671
X13.0082Y-7.7671
X15.246Y-7.0045
X15.246Y-7.4045
X6.6082Y-6.8297
X7.0082Y-6.8297
X14.296Y-4.5797
X14.696Y-4.5797
X10.7334Y-6.0797
X11.1334Y-6.0797
X2.952Y-7.5797
X3.352Y-7.5797
X6.7957Y-5.3297
X7.1957Y-5.3297
X15.046Y-6.8297
X15.446Y-6.8297
X4.4523Y-7.58
X4.8522Y-7.58
X2.6708Y-4.5797
X3.0708Y-4.5797
X15.046Y-4.5797
X15.446Y-4.5797
X7.3582Y-6.8297
X7.7582Y-6.8297
X15.046Y-6.0797
X15.446Y-6.0797
X11.2022Y-6.0797
X11.6022Y-6.0797
X1.2645Y-6.0797
X1.6645Y-6.0797
X6.2334Y-6.0797
X6.6334Y-6.0797
X3.0457Y-5.3297
X3.4457Y-5.3297
X13.546Y-6.8297
X13.946Y-6.8297
X1.9208Y-4.5797
X2.3208Y-4.5797
X9.9834Y-6.0797
X10.3834Y-6.0797
X3.9832Y-6.0797
X4.3832Y-6.0797
X10.1708Y-4.5797
X10.5708Y-4.5797
X9.0457Y-5.3297
X9.4457Y-5.3297
X5.4834Y-6.0797
X5.8834Y-6.0797
X11.6708Y-4.5797
X12.0708Y-4.5797
X6.1398Y-7.58
X6.5397Y-7.58
X10.5457Y-5.3297
X10.9457Y-5.3297
X11.4832Y-5.3297
X11.8832Y-5.3297
X5.6708Y-4.5797
X6.0708Y-4.5797
X8.6708Y-4.5797
X9.0708Y-4.5797
X1.452Y-6.0797
X1.852Y-6.0797
X9.2333Y-7.5797
X9.6333Y-7.5797
X5.8582Y-6.8297
X6.2582Y-6.8297
X12.796Y-6.0797
X13.196Y-6.0797
X2.8582Y-6.8297
X3.2582Y-6.8297
X11.8582Y-7.7671
X12.2582Y-7.7671
X6.4208Y-4.5797
X6.8208Y-4.5797
X13.546Y-4.5797
X13.946Y-4.5797
X8.3895Y-7.5797
X8.7895Y-7.5797
X4.1708Y-4.5797
X4.5708Y-4.5797
X14.296Y-6.0797
X14.696Y-6.0797
X13.546Y-7.5797
X13.946Y-7.5797
X7.5457Y-5.3297
X7.9457Y-5.3297
X14.296Y-5.3297
X14.696Y-5.3297
X11.2958Y-4.5797
X11.6958Y-4.5797
X7.9208Y-4.5797
X8.3208Y-4.5797
X7.4523Y-7.58
X7.8522Y-7.58
X1.2645Y-7.5797
X1.6645Y-7.5797
X12.796Y-4.5797
X13.196Y-4.5797
X1.1708Y-4.5797
X1.5708Y-4.5797
X6.0457Y-5.3297
X6.4457Y-5.3297
X3.4208Y-4.5797
X3.8208Y-4.5797
X8.1082Y-6.8297
X8.5082Y-6.8297
X5.6708Y-7.5797
X6.0708Y-7.5797
X2.2957Y-5.3297
X2.6957Y-5.3297
X8.8583Y-7.5797
X9.2583Y-7.5797
X5.7648Y-7.58
X6.1647Y-7.58
X3.1395Y-7.5797
X3.5395Y-7.5797
X10.6395Y-6.8297
X11.0395Y-6.8297
X2.4832Y-6.0797
X2.8832Y-6.0797
X9.7957Y-5.3297
X10.1957Y-5.3297
X4.3582Y-6.8297
X4.7582Y-6.8297
X9.9833Y-7.5797
X10.3833Y-7.5797
X8.8582Y-6.8297
X9.2582Y-6.8297
X4.5457Y-5.3297
X4.9457Y-5.3297
X9.6082Y-6.8297
X10.0082Y-6.8297
X3.2332Y-6.0797
X3.6332Y-6.0797
X10.077Y-7.5797
X10.477Y-7.5797
X6.0458Y-7.5797
X6.4458Y-7.5797
X12.796Y-6.8297
X13.196Y-6.8297
X1.6395Y-6.8297
X2.0395Y-6.8297
X15.246Y-5.5045
X15.246Y-5.9045
X6.9834Y-6.0797
X7.3834Y-6.0797
X13.546Y-5.3297
X13.946Y-5.3297
X15.046Y-5.3296
X15.446Y-5.3296
X7.1708Y-4.5797
X7.5708Y-4.5797
X14.296Y-7.5797
X14.696Y-7.5797
X1.2645Y-6.8297
X1.6645Y-6.8297
X14.296Y-6.8297
X14.696Y-6.8297
X7.7334Y-6.0797
X8.1334Y-6.0797
X15.046Y-7.5797
X15.446Y-7.5797
X2.202Y-7.5797
X2.602Y-7.5797
T3
X11.0258Y-4.3047
X11.9658Y-4.3047
X7.1822Y-7.855
X8.1222Y-7.855
X3.6208Y-7.8547
X8.1208Y-7.8547
X3.9958Y-7.8547
X7.7458Y-7.8547
X1.3695Y-6.5547
X2.3095Y-6.5547
X15.521Y-5.2345
X15.521Y-6.1745
X6.9947Y-7.855
X7.9348Y-7.855
X4.1835Y-7.8547
X8.1205Y-7.8547
X12.0522Y-5.2347
X12.0522Y-6.1747
X4.3697Y-7.855
X5.3098Y-7.855
X15.521Y-6.7345
X15.521Y-7.6745
X4.1822Y-7.855
X5.1223Y-7.855
X10.9322Y-5.8047
X11.8722Y-5.8047
T4
X13.746Y-7.5797
X7.7457Y-5.3297
X14.496Y-5.3297
X11.0258Y-4.9047
X11.4958Y-4.5797
X11.9658Y-4.9047
X8.1208Y-4.5797
X7.1822Y-7.255
X7.6522Y-7.58
X8.1222Y-7.255
X1.4645Y-7.5797
X12.996Y-4.5797
X1.3708Y-4.5797
X6.2457Y-5.3297
X3.6208Y-4.5797
X8.3082Y-6.8297
X3.6208Y-7.2547
X5.8708Y-7.5797
X8.1208Y-7.2547
X2.4957Y-5.3297
X9.0583Y-7.5797
X5.9647Y-7.58
X3.3395Y-7.5797
X10.8395Y-6.8297
X2.6832Y-6.0797
X9.9957Y-5.3297
X4.5582Y-6.8297
X10.1833Y-7.5797
X9.0582Y-6.8297
X4.7457Y-5.3297
X9.8082Y-6.8297
X3.4332Y-6.0797
X10.277Y-7.5797
X3.9958Y-7.2547
X6.2458Y-7.5797
X7.7458Y-7.2547
X12.996Y-6.8297
X1.3695Y-7.1547
X1.8395Y-6.8297
X2.3095Y-7.1547
X14.921Y-5.2345
X14.921Y-6.1745
X15.246Y-5.7045
X7.1834Y-6.0797
X13.746Y-5.3297
X15.246Y-5.3296
X7.3708Y-4.5797
X14.496Y-7.5797
X1.4645Y-6.8297
X14.496Y-6.8297
X7.9334Y-6.0797
X15.246Y-7.5797
X2.402Y-7.5797
X11.1208Y-4.5797
X5.4957Y-5.3297
X2.6833Y-7.5797
X13.746Y-6.0797
X6.9947Y-7.255
X7.4647Y-7.58
X7.9348Y-7.255
X1.5583Y-5.3297
X4.1835Y-7.2547
X6.152Y-7.5797
X8.1205Y-7.2547
X3.9957Y-5.3297
X9.4334Y-6.0797
X12.996Y-5.3297
X4.9332Y-6.0797
X11.4522Y-5.2347
X11.4522Y-6.1747
X11.7772Y-5.7047
X4.3697Y-7.255
X4.8397Y-7.58
X5.3098Y-7.255
X2.3082Y-6.8297
X8.4957Y-5.3297
X5.1208Y-4.5797
X8.6834Y-6.0797
X2.3083Y-7.5797
X9.6208Y-4.5797
X5.3082Y-6.8297
X12.0519Y-7.0128
X1.5583Y-7.5797
X11.3082Y-7.7671
X3.8082Y-6.8297
X12.8082Y-7.7671
X14.921Y-6.7345
X14.921Y-7.6745
X15.246Y-7.2045
X6.8082Y-6.8297
X14.496Y-4.5797
X10.9334Y-6.0797
X3.152Y-7.5797
X6.9957Y-5.3297
X15.246Y-6.8297
X4.1822Y-7.255
X4.6522Y-7.58
X5.1223Y-7.255
X2.8708Y-4.5797
X15.246Y-4.5797
X7.5582Y-6.8297
X15.246Y-6.0797
X10.9322Y-6.4047
X11.4022Y-6.0797
X11.8722Y-6.4047
X1.4645Y-6.0797
X6.4334Y-6.0797
X3.2457Y-5.3297
X13.746Y-6.8297
X2.1208Y-4.5797
X10.1834Y-6.0797
X4.1832Y-6.0797
X10.3708Y-4.5797
X9.2457Y-5.3297
X5.6834Y-6.0797
X11.8708Y-4.5797
X6.3397Y-7.58
X10.7457Y-5.3297
X11.6832Y-5.3297
X5.8708Y-4.5797
X8.8708Y-4.5797
X1.652Y-6.0797
X9.4333Y-7.5797
X6.0582Y-6.8297
X12.996Y-6.0797
X3.0582Y-6.8297
X12.0582Y-7.7671
X6.6208Y-4.5797
X13.746Y-4.5797
X8.5895Y-7.5797
X4.3708Y-4.5797
X14.496Y-6.0797
T0
M30
