M48
; DRILL file {KiCad (5.1.5)-3} date 05/17/20 23:13:11
; FORMAT={-:-/ absolute / inch / decimal}
; #@! TF.CreationDate,2020-05-17T23:13:11+01:00
; #@! TF.GenerationSoftware,Kicad,Pcbnew,(5.1.5)-3
; #@! TF.FileFunction,Plated,1,2,PTH
FMAT,2
INCH
T1C0.0157
T2C0.0236
T3C0.0315
T4C0.0394
T5C0.0409
T6C0.0579
%
G90
G05
T1
X1.4179Y-4.955
X1.5116Y-5.6581
X1.5116Y-6.4081
X1.5116Y-7.1581
X1.966Y-7.225
X1.976Y-7.785
X2.5429Y-7.1581
X7.846Y-4.44
X8.066Y-4.295
X8.236Y-4.315
X8.426Y-4.695
X8.426Y-4.735
X8.426Y-4.845
X8.556Y-4.695
X8.556Y-4.735
X8.591Y-4.41
X8.616Y-5.595
X8.636Y-4.845
X8.646Y-4.295
X8.7773Y-4.2519
X8.816Y-6.345
X9.021Y-6.585
X9.186Y-7.095
X9.542Y-7.881
X10.606Y-7.44
X10.711Y-5.75
X10.721Y-7.435
X10.746Y-4.845
X11.146Y-5.82
X11.174Y-7.519
X11.206Y-6.865
X11.286Y-4.835
X11.29Y-7.023
X11.301Y-6.41
X11.322Y-7.209
X11.361Y-5.925
X11.406Y-6.39
X11.406Y-6.43
X11.406Y-6.47
X11.411Y-5.9
X11.571Y-6.775
X11.571Y-6.905
X11.602Y-6.979
X11.616Y-5.835
X11.628Y-7.513
X11.631Y-5.105
X11.651Y-5.82
X11.656Y-7.26
X11.676Y-6.115
X11.676Y-6.155
X11.686Y-7.08
X11.686Y-7.18
X11.711Y-6.065
X11.716Y-7.63
X11.746Y-7.095
X11.866Y-7.15
X11.901Y-5.15
X11.946Y-6.835
X12.006Y-4.775
X12.126Y-5.42
X12.126Y-5.93
X12.161Y-6.175
X12.171Y-6.26
X12.171Y-6.305
X12.171Y-6.35
X12.191Y-6.69
X12.201Y-4.395
X12.236Y-6.69
X12.246Y-7.42
X12.276Y-6.69
X12.286Y-5.02
X12.286Y-5.735
X12.314Y-4.273
X12.316Y-6.69
X12.376Y-6.805
X12.396Y-5.115
X12.416Y-6.315
X12.426Y-6.425
X12.461Y-6.0
X12.476Y-5.705
X12.506Y-6.29
X12.516Y-4.44
X12.531Y-7.085
X12.541Y-4.575
X12.541Y-4.7
X12.551Y-6.385
X12.581Y-6.04
X12.606Y-4.855
X12.621Y-6.005
X12.626Y-7.06
X12.636Y-7.105
X12.641Y-5.57
X12.651Y-6.07
X12.656Y-4.435
X12.666Y-6.105
X12.676Y-5.51
X12.676Y-6.145
X12.691Y-7.395
X12.701Y-6.175
X12.721Y-5.425
X12.726Y-4.785
X12.746Y-4.89
X12.766Y-6.735
X12.816Y-4.855
X13.326Y-4.845
X13.346Y-5.595
X13.396Y-8.035
X13.416Y-6.415
X13.416Y-7.045
X13.416Y-7.335
X14.1679Y-7.3925
X14.3085Y-7.1581
X14.721Y-6.915
X14.746Y-7.195
X14.834Y-5.585
X14.856Y-5.395
X14.866Y-7.025
X14.896Y-6.935
X14.9648Y-5.705
X15.162Y-5.605
X15.176Y-7.11
X15.246Y-4.9081
X15.4804Y-4.2519
T3
X6.796Y-7.5438
X6.796Y-7.6225
T4
X12.4335Y-5.23
X12.4335Y-5.33
X12.4335Y-5.43
T5
X4.1332Y-6.2797
X4.2332Y-6.2797
X15.196Y-6.2797
X15.296Y-6.2797
X2.6332Y-6.2797
X2.7332Y-6.2797
X5.9147Y-7.78
X6.0148Y-7.78
X1.4145Y-7.0297
X1.5145Y-7.0297
X4.7897Y-7.78
X4.8898Y-7.78
X13.696Y-7.7797
X13.796Y-7.7797
X4.6022Y-7.78
X4.7023Y-7.78
X12.946Y-6.2797
X13.046Y-6.2797
X11.0708Y-4.7797
X11.1708Y-4.7797
X8.6334Y-6.2797
X8.7334Y-6.2797
X4.6957Y-5.5297
X4.7957Y-5.5297
X9.0082Y-7.0297
X9.1082Y-7.0297
X8.2582Y-7.0297
X8.3582Y-7.0297
X6.1957Y-5.5297
X6.2957Y-5.5297
X8.5395Y-7.7797
X8.6395Y-7.7797
X3.102Y-7.7797
X3.202Y-7.7797
X15.196Y-5.5296
X15.296Y-5.5296
X1.602Y-6.2797
X1.702Y-6.2797
X14.446Y-6.2797
X14.546Y-6.2797
X1.4145Y-7.7797
X1.5145Y-7.7797
X7.4147Y-7.78
X7.5148Y-7.78
X13.696Y-7.0297
X13.796Y-7.0297
X6.3094Y-7.78
X6.4094Y-7.78
X12.946Y-5.5297
X13.046Y-5.5297
X10.7895Y-7.0297
X10.8895Y-7.0297
X8.0708Y-4.7797
X8.1708Y-4.7797
X6.7582Y-7.0297
X6.8582Y-7.0297
X8.4457Y-5.5297
X8.5457Y-5.5297
X7.8834Y-6.2797
X7.9834Y-6.2797
X11.2582Y-7.9671
X11.3582Y-7.9671
X5.6334Y-6.2797
X5.7334Y-6.2797
X3.9457Y-5.5297
X4.0457Y-5.5297
X15.446Y-5.6545
X15.446Y-5.7545
X2.6333Y-7.7797
X2.7333Y-7.7797
X2.352Y-7.7797
X2.452Y-7.7797
X14.446Y-5.5297
X14.546Y-5.5297
X1.3208Y-4.7797
X1.4208Y-4.7797
X11.4458Y-4.7797
X11.5458Y-4.7797
X12.946Y-4.7797
X13.046Y-4.7797
X9.7582Y-7.0297
X9.8582Y-7.0297
X7.5082Y-7.0297
X7.6082Y-7.0297
X5.4457Y-5.5297
X5.5457Y-5.5297
X4.8832Y-6.2797
X4.9832Y-6.2797
X7.3208Y-4.7797
X7.4208Y-4.7797
X10.3208Y-4.7797
X10.4208Y-4.7797
X3.0082Y-7.0297
X3.1082Y-7.0297
X3.3832Y-6.2797
X3.4832Y-6.2797
X15.196Y-4.7797
X15.296Y-4.7797
X2.2583Y-7.7797
X2.3583Y-7.7797
X13.696Y-6.2797
X13.796Y-6.2797
X1.5083Y-7.7797
X1.6083Y-7.7797
X11.3522Y-6.2797
X11.4522Y-6.2797
X11.8208Y-4.7797
X11.9208Y-4.7797
X10.1333Y-7.7797
X10.2333Y-7.7797
X1.5083Y-5.5297
X1.6083Y-5.5297
X6.9457Y-5.5297
X7.0457Y-5.5297
X10.8834Y-6.2797
X10.9834Y-6.2797
X6.3834Y-6.2797
X6.4834Y-6.2797
X6.102Y-7.7797
X6.202Y-7.7797
X7.6022Y-7.78
X7.7023Y-7.78
X9.5708Y-4.7797
X9.6708Y-4.7797
X4.3208Y-4.7797
X4.4208Y-4.7797
X3.5708Y-4.7797
X3.6708Y-4.7797
X15.196Y-7.0297
X15.296Y-7.0297
X2.2582Y-7.0297
X2.3582Y-7.0297
X14.446Y-7.0297
X14.546Y-7.0297
X1.4145Y-6.2797
X1.5145Y-6.2797
X13.696Y-4.7797
X13.796Y-4.7797
X12.0082Y-7.9671
X12.1082Y-7.9671
X9.3833Y-7.7797
X9.4833Y-7.7797
X5.2582Y-7.0297
X5.3582Y-7.0297
X7.1334Y-6.2797
X7.2334Y-6.2797
X5.0708Y-4.7797
X5.1708Y-4.7797
X6.5708Y-4.7797
X6.6708Y-4.7797
X7.6957Y-5.5297
X7.7957Y-5.5297
X3.2895Y-7.7797
X3.3895Y-7.7797
X3.1957Y-5.5297
X3.2957Y-5.5297
X14.446Y-7.7797
X14.546Y-7.7797
X2.4457Y-5.5297
X2.5457Y-5.5297
X12.7582Y-7.9671
X12.8582Y-7.9671
X1.7895Y-7.0297
X1.8895Y-7.0297
X5.8208Y-7.7797
X5.9208Y-7.7797
X13.696Y-5.5297
X13.796Y-5.5297
X11.6332Y-5.4904
X11.7332Y-5.4904
X12.0019Y-7.2128
X12.1019Y-7.2128
X9.1957Y-5.5297
X9.2957Y-5.5297
X4.5082Y-7.0297
X4.6082Y-7.0297
X10.6957Y-5.5297
X10.7957Y-5.5297
X8.8208Y-4.7797
X8.9208Y-4.7797
X9.9457Y-5.5297
X10.0457Y-5.5297
X9.3834Y-6.2797
X9.4834Y-6.2797
X3.7582Y-7.0297
X3.8582Y-7.0297
X15.446Y-7.1545
X15.446Y-7.2545
X2.8208Y-4.7797
X2.9208Y-4.7797
X15.196Y-7.7797
X15.296Y-7.7797
X2.0708Y-4.7797
X2.1708Y-4.7797
X14.446Y-4.7797
X14.546Y-4.7797
X12.946Y-7.0297
X13.046Y-7.0297
X11.7272Y-5.9047
X11.8272Y-5.9047
X9.0083Y-7.7797
X9.1083Y-7.7797
X6.0082Y-7.0297
X6.1082Y-7.0297
X10.1334Y-6.2797
X10.2334Y-6.2797
X6.1958Y-7.7797
X6.2958Y-7.7797
X10.227Y-7.7797
X10.327Y-7.7797
X5.8208Y-4.7797
X5.9208Y-4.7797
T6
X13.596Y-4.4797
X13.846Y-4.3797
X11.9082Y-7.6671
X12.1582Y-7.5671
X9.2833Y-7.4797
X9.5333Y-7.3797
X5.1582Y-6.7297
X5.4082Y-6.6297
X7.0334Y-5.9797
X7.2834Y-5.8797
X4.9708Y-4.4797
X5.2208Y-4.3797
X6.4708Y-4.4797
X6.7208Y-4.3797
X7.5957Y-5.2297
X7.8457Y-5.1297
X3.1895Y-7.4797
X3.4395Y-7.3797
X3.0957Y-5.2297
X3.3457Y-5.1297
X14.346Y-7.4797
X14.596Y-7.3797
X2.3457Y-5.2297
X2.5957Y-5.1297
X12.6582Y-7.6671
X12.9082Y-7.5671
X1.6895Y-6.7297
X1.9395Y-6.6297
X5.7208Y-7.4797
X5.9708Y-7.3797
X13.596Y-5.2297
X13.846Y-5.1297
X11.5332Y-5.2297
X11.7832Y-5.1297
X11.9019Y-6.9128
X12.1519Y-6.8128
X9.0957Y-5.2297
X9.3457Y-5.1297
X4.4082Y-6.7297
X4.6582Y-6.6297
X10.5957Y-5.2297
X10.8457Y-5.1297
X8.7208Y-4.4797
X8.9708Y-4.3797
X9.8457Y-5.2297
X10.0957Y-5.1297
X9.2834Y-5.9797
X9.5334Y-5.8797
X3.6582Y-6.7297
X3.9082Y-6.6297
X15.046Y-7.1045
X15.146Y-7.3545
X2.7208Y-4.4797
X2.9708Y-4.3797
X15.096Y-7.4797
X15.346Y-7.3797
X1.9708Y-4.4797
X2.2208Y-4.3797
X14.346Y-4.4797
X14.596Y-4.3797
X12.846Y-6.7297
X13.096Y-6.6297
X11.6272Y-5.6047
X11.8772Y-5.5047
X8.9083Y-7.4797
X9.1583Y-7.3797
X5.9082Y-6.7297
X6.1582Y-6.6297
X10.0334Y-5.9797
X10.2834Y-5.8797
X6.0958Y-7.4797
X6.3458Y-7.3797
X10.127Y-7.4797
X10.377Y-7.3797
X5.7208Y-4.4797
X5.9708Y-4.3797
X4.0332Y-5.9797
X4.2832Y-5.8797
X15.096Y-5.9797
X15.346Y-5.8797
X2.5332Y-5.9797
X2.7832Y-5.8797
X5.8148Y-7.48
X6.0648Y-7.38
X1.3145Y-6.7297
X1.5645Y-6.6297
X4.6898Y-7.48
X4.9398Y-7.38
X13.596Y-7.4797
X13.846Y-7.3797
X4.5023Y-7.48
X4.7523Y-7.38
X12.846Y-5.9797
X13.096Y-5.8797
X10.9708Y-4.4797
X11.2208Y-4.3797
X8.5334Y-5.9797
X8.7834Y-5.8797
X4.5957Y-5.2297
X4.8457Y-5.1297
X8.9082Y-6.7297
X9.1582Y-6.6297
X8.1582Y-6.7297
X8.4082Y-6.6297
X6.0957Y-5.2297
X6.3457Y-5.1297
X8.4395Y-7.4797
X8.6895Y-7.3797
X3.002Y-7.4797
X3.252Y-7.3797
X15.096Y-5.2296
X15.346Y-5.1296
X1.502Y-5.9797
X1.752Y-5.8797
X14.346Y-5.9797
X14.596Y-5.8797
X1.3145Y-7.4797
X1.5645Y-7.3797
X7.3148Y-7.48
X7.5648Y-7.38
X13.596Y-6.7297
X13.846Y-6.6297
X6.1898Y-7.48
X6.4398Y-7.38
X12.846Y-5.2297
X13.096Y-5.1297
X10.6895Y-6.7297
X10.9395Y-6.6297
X7.9708Y-4.4797
X8.2208Y-4.3797
X6.6582Y-6.7297
X6.9082Y-6.6297
X8.3457Y-5.2297
X8.5957Y-5.1297
X7.7834Y-5.9797
X8.0334Y-5.8797
X11.1582Y-7.6671
X11.4082Y-7.5671
X5.5334Y-5.9797
X5.7834Y-5.8797
X3.8457Y-5.2297
X4.0957Y-5.1297
X15.046Y-5.6045
X15.146Y-5.8545
X2.5333Y-7.4797
X2.7833Y-7.3797
X2.252Y-7.4797
X2.502Y-7.3797
X14.346Y-5.2297
X14.596Y-5.1297
X1.2208Y-4.4797
X1.4708Y-4.3797
X11.3458Y-4.4797
X11.5958Y-4.3797
X12.846Y-4.4797
X13.096Y-4.3797
X9.6582Y-6.7297
X9.9082Y-6.6297
X7.4082Y-6.7297
X7.6582Y-6.6297
X5.3457Y-5.2297
X5.5957Y-5.1297
X4.7832Y-5.9797
X5.0332Y-5.8797
X7.2208Y-4.4797
X7.4708Y-4.3797
X10.2208Y-4.4797
X10.4708Y-4.3797
X2.9082Y-6.7297
X3.1582Y-6.6297
X3.2832Y-5.9797
X3.5332Y-5.8797
X15.096Y-4.4797
X15.346Y-4.3797
X2.1583Y-7.4797
X2.4083Y-7.3797
X13.596Y-5.9797
X13.846Y-5.8797
X1.4083Y-7.4797
X1.6583Y-7.3797
X11.2522Y-5.9797
X11.5022Y-5.8797
X11.7208Y-4.4797
X11.9708Y-4.3797
X10.0333Y-7.4797
X10.2833Y-7.3797
X1.4083Y-5.2297
X1.6583Y-5.1297
X6.8457Y-5.2297
X7.0957Y-5.1297
X10.7834Y-5.9797
X11.0334Y-5.8797
X6.2834Y-5.9797
X6.5334Y-5.8797
X6.002Y-7.4797
X6.252Y-7.3797
X7.5023Y-7.48
X7.7523Y-7.38
X9.4708Y-4.4797
X9.7208Y-4.3797
X4.2208Y-4.4797
X4.4708Y-4.3797
X3.4708Y-4.4797
X3.7208Y-4.3797
X15.096Y-6.7297
X15.346Y-6.6297
X2.1582Y-6.7297
X2.4082Y-6.6297
X14.346Y-6.7297
X14.596Y-6.6297
X1.3145Y-5.9797
X1.5645Y-5.8797
T2
G00X8.1262Y-4.0449
M15
G01X8.1262Y-4.0685
M16
G05
G00X8.1262Y-4.1996
M15
G01X8.1262Y-4.243
M16
G05
G00X8.4663Y-4.0449
M15
G01X8.4663Y-4.0685
M16
G05
G00X8.4663Y-4.1996
M15
G01X8.4663Y-4.243
M16
G05
T0
M30
