G04 #@! TF.GenerationSoftware,KiCad,Pcbnew,(5.0.0)*
G04 #@! TF.CreationDate,2019-01-20T13:24:14+01:00*
G04 #@! TF.ProjectId,cypher,6379706865722E6B696361645F706362,rev?*
G04 #@! TF.SameCoordinates,Original*
G04 #@! TF.FileFunction,Legend,Bot*
G04 #@! TF.FilePolarity,Positive*
%FSLAX46Y46*%
G04 Gerber Fmt 4.6, Leading zero omitted, Abs format (unit mm)*
G04 Created by KiCad (PCBNEW (5.0.0)) date 01/20/19 13:24:14*
%MOMM*%
%LPD*%
G01*
G04 APERTURE LIST*
%ADD10C,0.300000*%
%ADD11C,0.120000*%
%ADD12C,0.075000*%
%ADD13C,0.250000*%
%ADD14C,0.150000*%
%ADD15C,0.100000*%
G04 APERTURE END LIST*
D10*
X129817857Y-181878571D02*
X130317857Y-181164285D01*
X130675000Y-181878571D02*
X130675000Y-180378571D01*
X130103571Y-180378571D01*
X129960714Y-180450000D01*
X129889285Y-180521428D01*
X129817857Y-180664285D01*
X129817857Y-180878571D01*
X129889285Y-181021428D01*
X129960714Y-181092857D01*
X130103571Y-181164285D01*
X130675000Y-181164285D01*
X128603571Y-181807142D02*
X128746428Y-181878571D01*
X129032142Y-181878571D01*
X129175000Y-181807142D01*
X129246428Y-181664285D01*
X129246428Y-181092857D01*
X129175000Y-180950000D01*
X129032142Y-180878571D01*
X128746428Y-180878571D01*
X128603571Y-180950000D01*
X128532142Y-181092857D01*
X128532142Y-181235714D01*
X129246428Y-181378571D01*
X128032142Y-180878571D02*
X127675000Y-181878571D01*
X127317857Y-180878571D01*
X126746428Y-181735714D02*
X126675000Y-181807142D01*
X126746428Y-181878571D01*
X126817857Y-181807142D01*
X126746428Y-181735714D01*
X126746428Y-181878571D01*
X125032142Y-180378571D02*
X124103571Y-180378571D01*
X124603571Y-180950000D01*
X124389285Y-180950000D01*
X124246428Y-181021428D01*
X124175000Y-181092857D01*
X124103571Y-181235714D01*
X124103571Y-181592857D01*
X124175000Y-181735714D01*
X124246428Y-181807142D01*
X124389285Y-181878571D01*
X124817857Y-181878571D01*
X124960714Y-181807142D01*
X125032142Y-181735714D01*
X130720357Y-178478571D02*
X130559642Y-179478571D01*
X130184642Y-178764285D01*
X129988214Y-179478571D01*
X129577500Y-178478571D01*
X128550714Y-179407142D02*
X128702500Y-179478571D01*
X128988214Y-179478571D01*
X129122142Y-179407142D01*
X129175714Y-179264285D01*
X129104285Y-178692857D01*
X129015000Y-178550000D01*
X128863214Y-178478571D01*
X128577500Y-178478571D01*
X128443571Y-178550000D01*
X128390000Y-178692857D01*
X128407857Y-178835714D01*
X129140000Y-178978571D01*
X127907857Y-179407142D02*
X127773928Y-179478571D01*
X127488214Y-179478571D01*
X127336428Y-179407142D01*
X127247142Y-179264285D01*
X127238214Y-179192857D01*
X127291785Y-179050000D01*
X127425714Y-178978571D01*
X127640000Y-178978571D01*
X127773928Y-178907142D01*
X127827500Y-178764285D01*
X127818571Y-178692857D01*
X127729285Y-178550000D01*
X127577500Y-178478571D01*
X127363214Y-178478571D01*
X127229285Y-178550000D01*
X126720357Y-178478571D02*
X126148928Y-178478571D01*
X126443571Y-177978571D02*
X126604285Y-179264285D01*
X126550714Y-179407142D01*
X126416785Y-179478571D01*
X126273928Y-179478571D01*
X125863214Y-178478571D02*
X125291785Y-178478571D01*
X125773928Y-179478571D02*
X125613214Y-178192857D01*
X125523928Y-178050000D01*
X125372142Y-177978571D01*
X125229285Y-177978571D01*
X124702500Y-179478571D02*
X124836428Y-179407142D01*
X124898928Y-179335714D01*
X124952500Y-179192857D01*
X124898928Y-178764285D01*
X124809642Y-178621428D01*
X124729285Y-178550000D01*
X124577500Y-178478571D01*
X124363214Y-178478571D01*
X124229285Y-178550000D01*
X124166785Y-178621428D01*
X124113214Y-178764285D01*
X124166785Y-179192857D01*
X124256071Y-179335714D01*
X124336428Y-179407142D01*
X124488214Y-179478571D01*
X124702500Y-179478571D01*
X123702500Y-179478571D02*
X122791785Y-178478571D01*
X123577500Y-178478571D02*
X122916785Y-179478571D01*
X122434642Y-178478571D02*
X121863214Y-178478571D01*
X122157857Y-177978571D02*
X122318571Y-179264285D01*
X122265000Y-179407142D01*
X122131071Y-179478571D01*
X121988214Y-179478571D01*
X121488214Y-179478571D02*
X121363214Y-178478571D01*
X121398928Y-178764285D02*
X121309642Y-178621428D01*
X121229285Y-178550000D01*
X121077500Y-178478571D01*
X120934642Y-178478571D01*
X120345357Y-179478571D02*
X120479285Y-179407142D01*
X120541785Y-179335714D01*
X120595357Y-179192857D01*
X120541785Y-178764285D01*
X120452500Y-178621428D01*
X120372142Y-178550000D01*
X120220357Y-178478571D01*
X120006071Y-178478571D01*
X119872142Y-178550000D01*
X119809642Y-178621428D01*
X119756071Y-178764285D01*
X119809642Y-179192857D01*
X119898928Y-179335714D01*
X119979285Y-179407142D01*
X120131071Y-179478571D01*
X120345357Y-179478571D01*
X119291785Y-178478571D02*
X118720357Y-178478571D01*
X119015000Y-177978571D02*
X119175714Y-179264285D01*
X119122142Y-179407142D01*
X118988214Y-179478571D01*
X118845357Y-179478571D01*
X129817857Y-176935714D02*
X129889285Y-177007142D01*
X130103571Y-177078571D01*
X130246428Y-177078571D01*
X130460714Y-177007142D01*
X130603571Y-176864285D01*
X130675000Y-176721428D01*
X130746428Y-176435714D01*
X130746428Y-176221428D01*
X130675000Y-175935714D01*
X130603571Y-175792857D01*
X130460714Y-175650000D01*
X130246428Y-175578571D01*
X130103571Y-175578571D01*
X129889285Y-175650000D01*
X129817857Y-175721428D01*
X129317857Y-176078571D02*
X128960714Y-177078571D01*
X128603571Y-176078571D02*
X128960714Y-177078571D01*
X129103571Y-177435714D01*
X129175000Y-177507142D01*
X129317857Y-177578571D01*
X128032142Y-176078571D02*
X128032142Y-177578571D01*
X128032142Y-176150000D02*
X127889285Y-176078571D01*
X127603571Y-176078571D01*
X127460714Y-176150000D01*
X127389285Y-176221428D01*
X127317857Y-176364285D01*
X127317857Y-176792857D01*
X127389285Y-176935714D01*
X127460714Y-177007142D01*
X127603571Y-177078571D01*
X127889285Y-177078571D01*
X128032142Y-177007142D01*
X126675000Y-177078571D02*
X126675000Y-175578571D01*
X126032142Y-177078571D02*
X126032142Y-176292857D01*
X126103571Y-176150000D01*
X126246428Y-176078571D01*
X126460714Y-176078571D01*
X126603571Y-176150000D01*
X126675000Y-176221428D01*
X124746428Y-177007142D02*
X124889285Y-177078571D01*
X125175000Y-177078571D01*
X125317857Y-177007142D01*
X125389285Y-176864285D01*
X125389285Y-176292857D01*
X125317857Y-176150000D01*
X125175000Y-176078571D01*
X124889285Y-176078571D01*
X124746428Y-176150000D01*
X124675000Y-176292857D01*
X124675000Y-176435714D01*
X125389285Y-176578571D01*
X124032142Y-177078571D02*
X124032142Y-176078571D01*
X124032142Y-176364285D02*
X123960714Y-176221428D01*
X123889285Y-176150000D01*
X123746428Y-176078571D01*
X123603571Y-176078571D01*
X121960714Y-177078571D02*
X121960714Y-175578571D01*
X121389285Y-175578571D01*
X121246428Y-175650000D01*
X121175000Y-175721428D01*
X121103571Y-175864285D01*
X121103571Y-176078571D01*
X121175000Y-176221428D01*
X121246428Y-176292857D01*
X121389285Y-176364285D01*
X121960714Y-176364285D01*
X119603571Y-176935714D02*
X119675000Y-177007142D01*
X119889285Y-177078571D01*
X120032142Y-177078571D01*
X120246428Y-177007142D01*
X120389285Y-176864285D01*
X120460714Y-176721428D01*
X120532142Y-176435714D01*
X120532142Y-176221428D01*
X120460714Y-175935714D01*
X120389285Y-175792857D01*
X120246428Y-175650000D01*
X120032142Y-175578571D01*
X119889285Y-175578571D01*
X119675000Y-175650000D01*
X119603571Y-175721428D01*
X118460714Y-176292857D02*
X118246428Y-176364285D01*
X118175000Y-176435714D01*
X118103571Y-176578571D01*
X118103571Y-176792857D01*
X118175000Y-176935714D01*
X118246428Y-177007142D01*
X118389285Y-177078571D01*
X118960714Y-177078571D01*
X118960714Y-175578571D01*
X118460714Y-175578571D01*
X118317857Y-175650000D01*
X118246428Y-175721428D01*
X118175000Y-175864285D01*
X118175000Y-176007142D01*
X118246428Y-176150000D01*
X118317857Y-176221428D01*
X118460714Y-176292857D01*
X118960714Y-176292857D01*
D11*
G04 #@! TO.C,R13*
X46747500Y-188863748D02*
X46747500Y-189386252D01*
X45327500Y-188863748D02*
X45327500Y-189386252D01*
G04 #@! TO.C,C8*
X198190000Y-180661252D02*
X198190000Y-180138748D01*
X199610000Y-180661252D02*
X199610000Y-180138748D01*
G04 #@! TO.C,C1*
X195782000Y-175760748D02*
X195782000Y-176283252D01*
X194362000Y-175760748D02*
X194362000Y-176283252D01*
G04 #@! TO.C,C2*
X181035000Y-191613748D02*
X181035000Y-192136252D01*
X179615000Y-191613748D02*
X179615000Y-192136252D01*
G04 #@! TO.C,C3*
X191860000Y-191563748D02*
X191860000Y-192086252D01*
X190440000Y-191563748D02*
X190440000Y-192086252D01*
G04 #@! TO.C,C4*
X172790000Y-184861252D02*
X172790000Y-184338748D01*
X174210000Y-184861252D02*
X174210000Y-184338748D01*
G04 #@! TO.C,C5*
X198190000Y-184636252D02*
X198190000Y-184113748D01*
X199610000Y-184636252D02*
X199610000Y-184113748D01*
G04 #@! TO.C,C6*
X183210000Y-169863748D02*
X183210000Y-170386252D01*
X181790000Y-169863748D02*
X181790000Y-170386252D01*
G04 #@! TO.C,C7*
X194690000Y-191936252D02*
X194690000Y-191413748D01*
X196110000Y-191936252D02*
X196110000Y-191413748D01*
D12*
G04 #@! TO.C,D4*
X51243750Y-145106250D02*
X51593750Y-145406250D01*
X51943750Y-145106250D02*
X51243750Y-145106250D01*
X51593750Y-145406250D02*
X51943750Y-145106250D01*
X51943750Y-145406250D02*
X51243750Y-145406250D01*
G04 #@! TO.C,D5*
X67912500Y-159393750D02*
X68262500Y-159693750D01*
X68612500Y-159393750D02*
X67912500Y-159393750D01*
X68262500Y-159693750D02*
X68612500Y-159393750D01*
X68612500Y-159693750D02*
X67912500Y-159693750D01*
G04 #@! TO.C,D6*
X48862500Y-183206250D02*
X49212500Y-183506250D01*
X49562500Y-183206250D02*
X48862500Y-183206250D01*
X49212500Y-183506250D02*
X49562500Y-183206250D01*
X49562500Y-183506250D02*
X48862500Y-183506250D01*
G04 #@! TO.C,D7*
X46386000Y-106750000D02*
X46736000Y-107050000D01*
X47086000Y-106750000D02*
X46386000Y-106750000D01*
X46736000Y-107050000D02*
X47086000Y-106750000D01*
X47086000Y-107050000D02*
X46386000Y-107050000D01*
G04 #@! TO.C,D8*
X48862500Y-125900000D02*
X49212500Y-126200000D01*
X49562500Y-125900000D02*
X48862500Y-125900000D01*
X49212500Y-126200000D02*
X49562500Y-125900000D01*
X49562500Y-126200000D02*
X48862500Y-126200000D01*
G04 #@! TO.C,D9*
X96487500Y-183206250D02*
X96837500Y-183506250D01*
X97187500Y-183206250D02*
X96487500Y-183206250D01*
X96837500Y-183506250D02*
X97187500Y-183206250D01*
X97187500Y-183506250D02*
X96487500Y-183506250D01*
G04 #@! TO.C,D10*
X67912500Y-164156250D02*
X68262500Y-164456250D01*
X68612500Y-164156250D02*
X67912500Y-164156250D01*
X68262500Y-164456250D02*
X68612500Y-164156250D01*
X68612500Y-164456250D02*
X67912500Y-164456250D01*
G04 #@! TO.C,D11*
X63150000Y-106775000D02*
X63500000Y-107075000D01*
X63850000Y-106775000D02*
X63150000Y-106775000D01*
X63500000Y-107075000D02*
X63850000Y-106775000D01*
X63850000Y-107075000D02*
X63150000Y-107075000D01*
G04 #@! TO.C,D12*
X72675000Y-126056250D02*
X73025000Y-126356250D01*
X73375000Y-126056250D02*
X72675000Y-126056250D01*
X73025000Y-126356250D02*
X73375000Y-126056250D01*
X73375000Y-126356250D02*
X72675000Y-126356250D01*
G04 #@! TO.C,D13*
X77437500Y-145106250D02*
X77787500Y-145406250D01*
X78137500Y-145106250D02*
X77437500Y-145106250D01*
X77787500Y-145406250D02*
X78137500Y-145106250D01*
X78137500Y-145406250D02*
X77437500Y-145406250D01*
G04 #@! TO.C,D14*
X94106250Y-183206250D02*
X94456250Y-183506250D01*
X94806250Y-183206250D02*
X94106250Y-183206250D01*
X94456250Y-183506250D02*
X94806250Y-183206250D01*
X94806250Y-183506250D02*
X94106250Y-183506250D01*
G04 #@! TO.C,D15*
X82200000Y-106725000D02*
X82550000Y-107025000D01*
X82900000Y-106725000D02*
X82200000Y-106725000D01*
X82550000Y-107025000D02*
X82900000Y-106725000D01*
X82900000Y-107025000D02*
X82200000Y-107025000D01*
G04 #@! TO.C,D16*
X91725000Y-126056250D02*
X92075000Y-126356250D01*
X92425000Y-126056250D02*
X91725000Y-126056250D01*
X92075000Y-126356250D02*
X92425000Y-126056250D01*
X92425000Y-126356250D02*
X91725000Y-126356250D01*
G04 #@! TO.C,D17*
X96487500Y-145106250D02*
X96837500Y-145406250D01*
X97187500Y-145106250D02*
X96487500Y-145106250D01*
X96837500Y-145406250D02*
X97187500Y-145106250D01*
X97187500Y-145406250D02*
X96487500Y-145406250D01*
G04 #@! TO.C,D18*
X86962500Y-164156250D02*
X87312500Y-164456250D01*
X87662500Y-164156250D02*
X86962500Y-164156250D01*
X87312500Y-164456250D02*
X87662500Y-164156250D01*
X87662500Y-164456250D02*
X86962500Y-164456250D01*
G04 #@! TO.C,D19*
X115537500Y-145106250D02*
X115887500Y-145406250D01*
X116237500Y-145106250D02*
X115537500Y-145106250D01*
X115887500Y-145406250D02*
X116237500Y-145106250D01*
X116237500Y-145406250D02*
X115537500Y-145406250D01*
G04 #@! TO.C,D21*
X101250000Y-106875000D02*
X101600000Y-107175000D01*
X101950000Y-106875000D02*
X101250000Y-106875000D01*
X101600000Y-107175000D02*
X101950000Y-106875000D01*
X101950000Y-107175000D02*
X101250000Y-107175000D01*
G04 #@! TO.C,D22*
X110775000Y-126056250D02*
X111125000Y-126356250D01*
X111475000Y-126056250D02*
X110775000Y-126056250D01*
X111125000Y-126356250D02*
X111475000Y-126056250D01*
X111475000Y-126356250D02*
X110775000Y-126356250D01*
G04 #@! TO.C,D23*
X106012500Y-164156250D02*
X106362500Y-164456250D01*
X106712500Y-164156250D02*
X106012500Y-164156250D01*
X106362500Y-164456250D02*
X106712500Y-164156250D01*
X106712500Y-164456250D02*
X106012500Y-164456250D01*
G04 #@! TO.C,D24*
X120300000Y-106725000D02*
X120650000Y-107025000D01*
X121000000Y-106725000D02*
X120300000Y-106725000D01*
X120650000Y-107025000D02*
X121000000Y-106725000D01*
X121000000Y-107025000D02*
X120300000Y-107025000D01*
G04 #@! TO.C,D25*
X129825000Y-126056250D02*
X130175000Y-126356250D01*
X130525000Y-126056250D02*
X129825000Y-126056250D01*
X130175000Y-126356250D02*
X130525000Y-126056250D01*
X130525000Y-126356250D02*
X129825000Y-126356250D01*
G04 #@! TO.C,D26*
X134587500Y-145106250D02*
X134937500Y-145406250D01*
X135287500Y-145106250D02*
X134587500Y-145106250D01*
X134937500Y-145406250D02*
X135287500Y-145106250D01*
X135287500Y-145406250D02*
X134587500Y-145406250D01*
G04 #@! TO.C,D27*
X125062500Y-163795000D02*
X125412500Y-164095000D01*
X125762500Y-163795000D02*
X125062500Y-163795000D01*
X125412500Y-164095000D02*
X125762500Y-163795000D01*
X125762500Y-164095000D02*
X125062500Y-164095000D01*
G04 #@! TO.C,D28*
X144112500Y-164156250D02*
X144462500Y-164456250D01*
X144812500Y-164156250D02*
X144112500Y-164156250D01*
X144462500Y-164456250D02*
X144812500Y-164156250D01*
X144812500Y-164456250D02*
X144112500Y-164456250D01*
G04 #@! TO.C,D29*
X139350000Y-106775000D02*
X139700000Y-107075000D01*
X140050000Y-106775000D02*
X139350000Y-106775000D01*
X139700000Y-107075000D02*
X140050000Y-106775000D01*
X140050000Y-107075000D02*
X139350000Y-107075000D01*
G04 #@! TO.C,D30*
X148875000Y-126056250D02*
X149225000Y-126356250D01*
X149575000Y-126056250D02*
X148875000Y-126056250D01*
X149225000Y-126356250D02*
X149575000Y-126056250D01*
X149575000Y-126356250D02*
X148875000Y-126356250D01*
G04 #@! TO.C,D31*
X153637500Y-145106250D02*
X153987500Y-145406250D01*
X154337500Y-145106250D02*
X153637500Y-145106250D01*
X153987500Y-145406250D02*
X154337500Y-145106250D01*
X154337500Y-145406250D02*
X153637500Y-145406250D01*
G04 #@! TO.C,D32*
X167925000Y-183206250D02*
X168275000Y-183506250D01*
X168625000Y-183206250D02*
X167925000Y-183206250D01*
X168275000Y-183506250D02*
X168625000Y-183206250D01*
X168625000Y-183506250D02*
X167925000Y-183506250D01*
G04 #@! TO.C,D33*
X163162500Y-164156250D02*
X163512500Y-164456250D01*
X163862500Y-164156250D02*
X163162500Y-164156250D01*
X163512500Y-164456250D02*
X163862500Y-164156250D01*
X163862500Y-164456250D02*
X163162500Y-164456250D01*
G04 #@! TO.C,D34*
X158400000Y-106825000D02*
X158750000Y-107125000D01*
X159100000Y-106825000D02*
X158400000Y-106825000D01*
X158750000Y-107125000D02*
X159100000Y-106825000D01*
X159100000Y-107125000D02*
X158400000Y-107125000D01*
G04 #@! TO.C,D35*
X167925000Y-126056250D02*
X168275000Y-126356250D01*
X168625000Y-126056250D02*
X167925000Y-126056250D01*
X168275000Y-126356250D02*
X168625000Y-126056250D01*
X168625000Y-126356250D02*
X167925000Y-126356250D01*
G04 #@! TO.C,D36*
X172687500Y-145106250D02*
X173037500Y-145406250D01*
X173387500Y-145106250D02*
X172687500Y-145106250D01*
X173037500Y-145406250D02*
X173387500Y-145106250D01*
X173387500Y-145406250D02*
X172687500Y-145406250D01*
G04 #@! TO.C,D37*
X182212500Y-164156250D02*
X182562500Y-164456250D01*
X182912500Y-164156250D02*
X182212500Y-164156250D01*
X182562500Y-164456250D02*
X182912500Y-164156250D01*
X182912500Y-164456250D02*
X182212500Y-164456250D01*
G04 #@! TO.C,D38*
X177450000Y-106825000D02*
X177800000Y-107125000D01*
X178150000Y-106825000D02*
X177450000Y-106825000D01*
X177800000Y-107125000D02*
X178150000Y-106825000D01*
X178150000Y-107125000D02*
X177450000Y-107125000D01*
G04 #@! TO.C,D39*
X186975000Y-126056250D02*
X187325000Y-126356250D01*
X187675000Y-126056250D02*
X186975000Y-126056250D01*
X187325000Y-126356250D02*
X187675000Y-126056250D01*
X187675000Y-126356250D02*
X186975000Y-126356250D01*
G04 #@! TO.C,D40*
X191737500Y-145106250D02*
X192087500Y-145406250D01*
X192437500Y-145106250D02*
X191737500Y-145106250D01*
X192087500Y-145406250D02*
X192437500Y-145106250D01*
X192437500Y-145406250D02*
X191737500Y-145406250D01*
G04 #@! TO.C,D41*
X201262500Y-164156250D02*
X201612500Y-164456250D01*
X201962500Y-164156250D02*
X201262500Y-164156250D01*
X201612500Y-164456250D02*
X201962500Y-164156250D01*
X201962500Y-164456250D02*
X201262500Y-164456250D01*
G04 #@! TO.C,D42*
X196500000Y-106850000D02*
X196850000Y-107150000D01*
X197200000Y-106850000D02*
X196500000Y-106850000D01*
X196850000Y-107150000D02*
X197200000Y-106850000D01*
X197200000Y-107150000D02*
X196500000Y-107150000D01*
G04 #@! TO.C,D43*
X206025000Y-126056250D02*
X206375000Y-126356250D01*
X206725000Y-126056250D02*
X206025000Y-126056250D01*
X206375000Y-126356250D02*
X206725000Y-126056250D01*
X206725000Y-126356250D02*
X206025000Y-126356250D01*
G04 #@! TO.C,D44*
X210787500Y-145106250D02*
X211137500Y-145406250D01*
X211487500Y-145106250D02*
X210787500Y-145106250D01*
X211137500Y-145406250D02*
X211487500Y-145106250D01*
X211487500Y-145406250D02*
X210787500Y-145406250D01*
G04 #@! TO.C,D45*
X211250000Y-182825000D02*
X211600000Y-183125000D01*
X211950000Y-182825000D02*
X211250000Y-182825000D01*
X211600000Y-183125000D02*
X211950000Y-182825000D01*
X211950000Y-183125000D02*
X211250000Y-183125000D01*
G04 #@! TO.C,D46*
X220312500Y-164156250D02*
X220662500Y-164456250D01*
X221012500Y-164156250D02*
X220312500Y-164156250D01*
X220662500Y-164456250D02*
X221012500Y-164156250D01*
X221012500Y-164456250D02*
X220312500Y-164456250D01*
G04 #@! TO.C,D47*
X229837500Y-145106250D02*
X230187500Y-145406250D01*
X230537500Y-145106250D02*
X229837500Y-145106250D01*
X230187500Y-145406250D02*
X230537500Y-145106250D01*
X230537500Y-145406250D02*
X229837500Y-145406250D01*
G04 #@! TO.C,D48*
X200468750Y-106825000D02*
X200818750Y-107125000D01*
X201168750Y-106825000D02*
X200468750Y-106825000D01*
X200818750Y-107125000D02*
X201168750Y-106825000D01*
X201168750Y-107125000D02*
X200468750Y-107125000D01*
G04 #@! TO.C,D49*
X225075000Y-126056250D02*
X225425000Y-126356250D01*
X225775000Y-126056250D02*
X225075000Y-126056250D01*
X225425000Y-126356250D02*
X225775000Y-126056250D01*
X225775000Y-126356250D02*
X225075000Y-126356250D01*
G04 #@! TO.C,D50*
X250150000Y-183025000D02*
X250500000Y-183325000D01*
X250850000Y-183025000D02*
X250150000Y-183025000D01*
X250500000Y-183325000D02*
X250850000Y-183025000D01*
X250850000Y-183325000D02*
X250150000Y-183325000D01*
G04 #@! TO.C,D51*
X234600000Y-106625000D02*
X234950000Y-106925000D01*
X235300000Y-106625000D02*
X234600000Y-106625000D01*
X234950000Y-106925000D02*
X235300000Y-106625000D01*
X235300000Y-106925000D02*
X234600000Y-106925000D01*
G04 #@! TO.C,D52*
X248887500Y-145106250D02*
X249237500Y-145406250D01*
X249587500Y-145106250D02*
X248887500Y-145106250D01*
X249237500Y-145406250D02*
X249587500Y-145106250D01*
X249587500Y-145406250D02*
X248887500Y-145406250D01*
G04 #@! TO.C,D53*
X244125000Y-126056250D02*
X244475000Y-126356250D01*
X244825000Y-126056250D02*
X244125000Y-126056250D01*
X244475000Y-126356250D02*
X244825000Y-126056250D01*
X244825000Y-126356250D02*
X244125000Y-126356250D01*
G04 #@! TO.C,D54*
X239362500Y-164156250D02*
X239712500Y-164456250D01*
X240062500Y-164156250D02*
X239362500Y-164156250D01*
X239712500Y-164456250D02*
X240062500Y-164156250D01*
X240062500Y-164456250D02*
X239362500Y-164456250D01*
G04 #@! TO.C,D55*
X271650000Y-183025000D02*
X272000000Y-183325000D01*
X272350000Y-183025000D02*
X271650000Y-183025000D01*
X272000000Y-183325000D02*
X272350000Y-183025000D01*
X272350000Y-183325000D02*
X271650000Y-183325000D01*
G04 #@! TO.C,D56*
X253650000Y-106625000D02*
X254000000Y-106925000D01*
X254350000Y-106625000D02*
X253650000Y-106625000D01*
X254000000Y-106925000D02*
X254350000Y-106625000D01*
X254350000Y-106925000D02*
X253650000Y-106925000D01*
G04 #@! TO.C,D57*
X263175000Y-126056250D02*
X263525000Y-126356250D01*
X263875000Y-126056250D02*
X263175000Y-126056250D01*
X263525000Y-126356250D02*
X263875000Y-126056250D01*
X263875000Y-126356250D02*
X263175000Y-126356250D01*
G04 #@! TO.C,D58*
X267937500Y-145106250D02*
X268287500Y-145406250D01*
X268637500Y-145106250D02*
X267937500Y-145106250D01*
X268287500Y-145406250D02*
X268637500Y-145106250D01*
X268637500Y-145406250D02*
X267937500Y-145406250D01*
G04 #@! TO.C,D59*
X259450000Y-163625000D02*
X259800000Y-163925000D01*
X260150000Y-163625000D02*
X259450000Y-163625000D01*
X259800000Y-163925000D02*
X260150000Y-163625000D01*
X260150000Y-163925000D02*
X259450000Y-163925000D01*
G04 #@! TO.C,D60*
X296512500Y-187968750D02*
X296862500Y-188268750D01*
X297212500Y-187968750D02*
X296512500Y-187968750D01*
X296862500Y-188268750D02*
X297212500Y-187968750D01*
X297212500Y-188268750D02*
X296512500Y-188268750D01*
G04 #@! TO.C,D61*
X282225000Y-126056250D02*
X282575000Y-126356250D01*
X282925000Y-126056250D02*
X282225000Y-126056250D01*
X282575000Y-126356250D02*
X282925000Y-126056250D01*
X282925000Y-126356250D02*
X282225000Y-126356250D01*
G04 #@! TO.C,D62*
X285900000Y-164400000D02*
X286250000Y-164700000D01*
X286600000Y-164400000D02*
X285900000Y-164400000D01*
X286250000Y-164700000D02*
X286600000Y-164400000D01*
X286600000Y-164700000D02*
X285900000Y-164700000D01*
G04 #@! TO.C,D63*
X272700000Y-106625000D02*
X273050000Y-106925000D01*
X273400000Y-106625000D02*
X272700000Y-106625000D01*
X273050000Y-106925000D02*
X273400000Y-106625000D01*
X273400000Y-106925000D02*
X272700000Y-106925000D01*
G04 #@! TO.C,D64*
X284606250Y-148125000D02*
X284956250Y-148425000D01*
X285306250Y-148125000D02*
X284606250Y-148125000D01*
X284956250Y-148425000D02*
X285306250Y-148125000D01*
X285306250Y-148425000D02*
X284606250Y-148425000D01*
G04 #@! TO.C,D65*
X276668750Y-106625000D02*
X277018750Y-106925000D01*
X277368750Y-106625000D02*
X276668750Y-106625000D01*
X277018750Y-106925000D02*
X277368750Y-106625000D01*
X277368750Y-106925000D02*
X276668750Y-106925000D01*
G04 #@! TO.C,D66*
X309212500Y-138756250D02*
X309562500Y-139056250D01*
X309912500Y-138756250D02*
X309212500Y-138756250D01*
X309562500Y-139056250D02*
X309912500Y-138756250D01*
X309912500Y-139056250D02*
X309212500Y-139056250D01*
G04 #@! TO.C,D67*
X315562500Y-168500000D02*
X315912500Y-168800000D01*
X316262500Y-168500000D02*
X315562500Y-168500000D01*
X315912500Y-168800000D02*
X316262500Y-168500000D01*
X316262500Y-168800000D02*
X315562500Y-168800000D01*
G04 #@! TO.C,D68*
X315562500Y-187968750D02*
X315912500Y-188268750D01*
X316262500Y-187968750D02*
X315562500Y-187968750D01*
X315912500Y-188268750D02*
X316262500Y-187968750D01*
X316262500Y-188268750D02*
X315562500Y-188268750D01*
G04 #@! TO.C,D69*
X306037500Y-126850000D02*
X306387500Y-127150000D01*
X306737500Y-126850000D02*
X306037500Y-126850000D01*
X306387500Y-127150000D02*
X306737500Y-126850000D01*
X306737500Y-127150000D02*
X306037500Y-127150000D01*
G04 #@! TO.C,D70*
X310800000Y-99862500D02*
X311150000Y-100162500D01*
X311500000Y-99862500D02*
X310800000Y-99862500D01*
X311150000Y-100162500D02*
X311500000Y-99862500D01*
X311500000Y-100162500D02*
X310800000Y-100162500D01*
G04 #@! TO.C,D71*
X339375000Y-106625000D02*
X339725000Y-106925000D01*
X340075000Y-106625000D02*
X339375000Y-106625000D01*
X339725000Y-106925000D02*
X340075000Y-106625000D01*
X340075000Y-106925000D02*
X339375000Y-106925000D01*
G04 #@! TO.C,D72*
X339375000Y-145106250D02*
X339725000Y-145406250D01*
X340075000Y-145106250D02*
X339375000Y-145106250D01*
X339725000Y-145406250D02*
X340075000Y-145106250D01*
X340075000Y-145406250D02*
X339375000Y-145406250D01*
G04 #@! TO.C,D73*
X339375000Y-126056250D02*
X339725000Y-126356250D01*
X340075000Y-126056250D02*
X339375000Y-126056250D01*
X339725000Y-126356250D02*
X340075000Y-126056250D01*
X340075000Y-126356250D02*
X339375000Y-126356250D01*
G04 #@! TO.C,D74*
X339375000Y-164156250D02*
X339725000Y-164456250D01*
X340075000Y-164156250D02*
X339375000Y-164156250D01*
X339725000Y-164456250D02*
X340075000Y-164156250D01*
X340075000Y-164456250D02*
X339375000Y-164456250D01*
G04 #@! TO.C,D75*
X334612500Y-187968750D02*
X334962500Y-188268750D01*
X335312500Y-187968750D02*
X334612500Y-187968750D01*
X334962500Y-188268750D02*
X335312500Y-187968750D01*
X335312500Y-188268750D02*
X334612500Y-188268750D01*
G04 #@! TO.C,D76*
X358425000Y-145106250D02*
X358775000Y-145406250D01*
X359125000Y-145106250D02*
X358425000Y-145106250D01*
X358775000Y-145406250D02*
X359125000Y-145106250D01*
X359125000Y-145406250D02*
X358425000Y-145406250D01*
G04 #@! TO.C,D77*
X358425000Y-106740000D02*
X358775000Y-107040000D01*
X359125000Y-106740000D02*
X358425000Y-106740000D01*
X358775000Y-107040000D02*
X359125000Y-106740000D01*
X359125000Y-107040000D02*
X358425000Y-107040000D01*
G04 #@! TO.C,D78*
X358425000Y-126056250D02*
X358775000Y-126356250D01*
X359125000Y-126056250D02*
X358425000Y-126056250D01*
X358775000Y-126356250D02*
X359125000Y-126056250D01*
X359125000Y-126356250D02*
X358425000Y-126356250D01*
G04 #@! TO.C,D79*
X358425000Y-164156250D02*
X358775000Y-164456250D01*
X359125000Y-164156250D02*
X358425000Y-164156250D01*
X358775000Y-164456250D02*
X359125000Y-164156250D01*
X359125000Y-164456250D02*
X358425000Y-164456250D01*
G04 #@! TO.C,D80*
X358425000Y-183206250D02*
X358775000Y-183506250D01*
X359125000Y-183206250D02*
X358425000Y-183206250D01*
X358775000Y-183506250D02*
X359125000Y-183206250D01*
X359125000Y-183506250D02*
X358425000Y-183506250D01*
G04 #@! TO.C,D81*
X377475000Y-126056250D02*
X377825000Y-126356250D01*
X378175000Y-126056250D02*
X377475000Y-126056250D01*
X377825000Y-126356250D02*
X378175000Y-126056250D01*
X378175000Y-126356250D02*
X377475000Y-126356250D01*
G04 #@! TO.C,D82*
X377475000Y-140343750D02*
X377825000Y-140643750D01*
X378175000Y-140343750D02*
X377475000Y-140343750D01*
X377825000Y-140643750D02*
X378175000Y-140343750D01*
X378175000Y-140643750D02*
X377475000Y-140643750D01*
G04 #@! TO.C,D83*
X377475000Y-183206250D02*
X377825000Y-183506250D01*
X378175000Y-183206250D02*
X377475000Y-183206250D01*
X377825000Y-183506250D02*
X378175000Y-183206250D01*
X378175000Y-183506250D02*
X377475000Y-183506250D01*
G04 #@! TO.C,D84*
X377475000Y-106625000D02*
X377825000Y-106925000D01*
X378175000Y-106625000D02*
X377475000Y-106625000D01*
X377825000Y-106925000D02*
X378175000Y-106625000D01*
X378175000Y-106925000D02*
X377475000Y-106925000D01*
G04 #@! TO.C,D85*
X377475000Y-164156250D02*
X377825000Y-164456250D01*
X378175000Y-164156250D02*
X377475000Y-164156250D01*
X377825000Y-164456250D02*
X378175000Y-164156250D01*
X378175000Y-164456250D02*
X377475000Y-164456250D01*
G04 #@! TO.C,D86*
X377475000Y-178443750D02*
X377825000Y-178743750D01*
X378175000Y-178443750D02*
X377475000Y-178443750D01*
X377825000Y-178743750D02*
X378175000Y-178443750D01*
X378175000Y-178743750D02*
X377475000Y-178743750D01*
G04 #@! TO.C,D87*
X382237500Y-106725000D02*
X382587500Y-107025000D01*
X382937500Y-106725000D02*
X382237500Y-106725000D01*
X382587500Y-107025000D02*
X382937500Y-106725000D01*
X382937500Y-107025000D02*
X382237500Y-107025000D01*
G04 #@! TO.C,D88*
X377475000Y-131612500D02*
X377825000Y-131912500D01*
X378175000Y-131612500D02*
X377475000Y-131612500D01*
X377825000Y-131912500D02*
X378175000Y-131612500D01*
X378175000Y-131912500D02*
X377475000Y-131912500D01*
G04 #@! TO.C,D89*
X381443750Y-140343750D02*
X381793750Y-140643750D01*
X382143750Y-140343750D02*
X381443750Y-140343750D01*
X381793750Y-140643750D02*
X382143750Y-140343750D01*
X382143750Y-140643750D02*
X381443750Y-140643750D01*
G04 #@! TO.C,D90*
X380650000Y-170506250D02*
X381000000Y-170806250D01*
X381350000Y-170506250D02*
X380650000Y-170506250D01*
X381000000Y-170806250D02*
X381350000Y-170506250D01*
X381350000Y-170806250D02*
X380650000Y-170806250D01*
D13*
G04 #@! TO.C,J2*
X216700000Y-190550000D02*
X211700000Y-190550000D01*
X211700000Y-190550000D02*
X211700000Y-193050000D01*
X211700000Y-193050000D02*
X216700000Y-193050000D01*
X216700000Y-193050000D02*
X216700000Y-190550000D01*
D11*
G04 #@! TO.C,F1*
X215983750Y-107061252D02*
X215983750Y-106538748D01*
X217403750Y-107061252D02*
X217403750Y-106538748D01*
G04 #@! TO.C,Q1*
X315790000Y-144100000D02*
X315790000Y-150110000D01*
X322610000Y-146350000D02*
X322610000Y-150110000D01*
X315790000Y-150110000D02*
X317050000Y-150110000D01*
X322610000Y-150110000D02*
X321350000Y-150110000D01*
G04 #@! TO.C,R1*
X219770000Y-103286252D02*
X219770000Y-102763748D01*
X221190000Y-103286252D02*
X221190000Y-102763748D01*
G04 #@! TO.C,R2*
X217790000Y-103286252D02*
X217790000Y-102763748D01*
X219210000Y-103286252D02*
X219210000Y-102763748D01*
G04 #@! TO.C,R3*
X135890000Y-183836252D02*
X135890000Y-183313748D01*
X137310000Y-183836252D02*
X137310000Y-183313748D01*
G04 #@! TO.C,R4*
X172915000Y-176283252D02*
X172915000Y-175760748D01*
X174335000Y-176283252D02*
X174335000Y-175760748D01*
G04 #@! TO.C,R5*
X316086252Y-141510000D02*
X315563748Y-141510000D01*
X316086252Y-140090000D02*
X315563748Y-140090000D01*
G04 #@! TO.C,R6*
X313636252Y-104310000D02*
X313113748Y-104310000D01*
X313636252Y-102890000D02*
X313113748Y-102890000D01*
G04 #@! TO.C,R7*
X313586252Y-107520000D02*
X313063748Y-107520000D01*
X313586252Y-106100000D02*
X313063748Y-106100000D01*
G04 #@! TO.C,R8*
X313586252Y-110710000D02*
X313063748Y-110710000D01*
X313586252Y-109290000D02*
X313063748Y-109290000D01*
G04 #@! TO.C,R9*
X41985000Y-112563748D02*
X41985000Y-113086252D01*
X40565000Y-112563748D02*
X40565000Y-113086252D01*
G04 #@! TO.C,R10*
X46747500Y-131613748D02*
X46747500Y-132136252D01*
X45327500Y-131613748D02*
X45327500Y-132136252D01*
G04 #@! TO.C,R11*
X49128750Y-150663748D02*
X49128750Y-151186252D01*
X47708750Y-150663748D02*
X47708750Y-151186252D01*
G04 #@! TO.C,R12*
X53891250Y-169763748D02*
X53891250Y-170286252D01*
X52471250Y-169763748D02*
X52471250Y-170286252D01*
G04 #@! TO.C,R14*
X61035000Y-112638748D02*
X61035000Y-113161252D01*
X59615000Y-112638748D02*
X59615000Y-113161252D01*
G04 #@! TO.C,R15*
X70560000Y-131663748D02*
X70560000Y-132186252D01*
X69140000Y-131663748D02*
X69140000Y-132186252D01*
G04 #@! TO.C,R16*
X75322500Y-150738748D02*
X75322500Y-151261252D01*
X73902500Y-150738748D02*
X73902500Y-151261252D01*
G04 #@! TO.C,R17*
X65797500Y-169713748D02*
X65797500Y-170236252D01*
X64377500Y-169713748D02*
X64377500Y-170236252D01*
G04 #@! TO.C,R18*
X57066250Y-188863748D02*
X57066250Y-189386252D01*
X55646250Y-188863748D02*
X55646250Y-189386252D01*
G04 #@! TO.C,R19*
X80085000Y-112663748D02*
X80085000Y-113186252D01*
X78665000Y-112663748D02*
X78665000Y-113186252D01*
G04 #@! TO.C,R20*
X89610000Y-131663748D02*
X89610000Y-132186252D01*
X88190000Y-131663748D02*
X88190000Y-132186252D01*
G04 #@! TO.C,R21*
X94372500Y-150763748D02*
X94372500Y-151286252D01*
X92952500Y-150763748D02*
X92952500Y-151286252D01*
G04 #@! TO.C,R22*
X84847500Y-169713748D02*
X84847500Y-170236252D01*
X83427500Y-169713748D02*
X83427500Y-170236252D01*
G04 #@! TO.C,R23*
X79291250Y-188838748D02*
X79291250Y-189361252D01*
X77871250Y-188838748D02*
X77871250Y-189361252D01*
G04 #@! TO.C,R24*
X99135000Y-112451248D02*
X99135000Y-112973752D01*
X97715000Y-112451248D02*
X97715000Y-112973752D01*
G04 #@! TO.C,R25*
X108660000Y-131501248D02*
X108660000Y-132023752D01*
X107240000Y-131501248D02*
X107240000Y-132023752D01*
G04 #@! TO.C,R26*
X113422500Y-150663748D02*
X113422500Y-151186252D01*
X112002500Y-150663748D02*
X112002500Y-151186252D01*
G04 #@! TO.C,R27*
X103897500Y-169753748D02*
X103897500Y-170276252D01*
X102477500Y-169753748D02*
X102477500Y-170276252D01*
G04 #@! TO.C,R29*
X118185000Y-112613748D02*
X118185000Y-113136252D01*
X116765000Y-112613748D02*
X116765000Y-113136252D01*
G04 #@! TO.C,R30*
X127710000Y-131501248D02*
X127710000Y-132023752D01*
X126290000Y-131501248D02*
X126290000Y-132023752D01*
G04 #@! TO.C,R31*
X132472500Y-150551248D02*
X132472500Y-151073752D01*
X131052500Y-150551248D02*
X131052500Y-151073752D01*
G04 #@! TO.C,R32*
X122947500Y-169863748D02*
X122947500Y-170386252D01*
X121527500Y-169863748D02*
X121527500Y-170386252D01*
G04 #@! TO.C,R33*
X137235000Y-112663748D02*
X137235000Y-113186252D01*
X135815000Y-112663748D02*
X135815000Y-113186252D01*
G04 #@! TO.C,R34*
X146760000Y-131688748D02*
X146760000Y-132211252D01*
X145340000Y-131688748D02*
X145340000Y-132211252D01*
G04 #@! TO.C,R35*
X151522500Y-150551248D02*
X151522500Y-151073752D01*
X150102500Y-150551248D02*
X150102500Y-151073752D01*
G04 #@! TO.C,R36*
X141997500Y-169713748D02*
X141997500Y-170236252D01*
X140577500Y-169713748D02*
X140577500Y-170236252D01*
G04 #@! TO.C,R37*
X156285000Y-112663748D02*
X156285000Y-113186252D01*
X154865000Y-112663748D02*
X154865000Y-113186252D01*
G04 #@! TO.C,R38*
X165810000Y-131713748D02*
X165810000Y-132236252D01*
X164390000Y-131713748D02*
X164390000Y-132236252D01*
G04 #@! TO.C,R39*
X170572500Y-150738748D02*
X170572500Y-151261252D01*
X169152500Y-150738748D02*
X169152500Y-151261252D01*
G04 #@! TO.C,R40*
X161047500Y-169813748D02*
X161047500Y-170336252D01*
X159627500Y-169813748D02*
X159627500Y-170336252D01*
G04 #@! TO.C,R41*
X165810000Y-188863748D02*
X165810000Y-189386252D01*
X164390000Y-188863748D02*
X164390000Y-189386252D01*
G04 #@! TO.C,R42*
X175335000Y-112613748D02*
X175335000Y-113136252D01*
X173915000Y-112613748D02*
X173915000Y-113136252D01*
G04 #@! TO.C,R43*
X184860000Y-131663748D02*
X184860000Y-132186252D01*
X183440000Y-131663748D02*
X183440000Y-132186252D01*
G04 #@! TO.C,R44*
X189622500Y-150551248D02*
X189622500Y-151073752D01*
X188202500Y-150551248D02*
X188202500Y-151073752D01*
G04 #@! TO.C,R45*
X180097500Y-169838748D02*
X180097500Y-170361252D01*
X178677500Y-169838748D02*
X178677500Y-170361252D01*
G04 #@! TO.C,R46*
X194385000Y-112663748D02*
X194385000Y-113186252D01*
X192965000Y-112663748D02*
X192965000Y-113186252D01*
G04 #@! TO.C,R47*
X203910000Y-131663748D02*
X203910000Y-132186252D01*
X202490000Y-131663748D02*
X202490000Y-132186252D01*
G04 #@! TO.C,R48*
X208672500Y-150763748D02*
X208672500Y-151286252D01*
X207252500Y-150763748D02*
X207252500Y-151286252D01*
G04 #@! TO.C,R49*
X199147500Y-169763748D02*
X199147500Y-170286252D01*
X197727500Y-169763748D02*
X197727500Y-170286252D01*
G04 #@! TO.C,R50*
X213435000Y-112663748D02*
X213435000Y-113186252D01*
X212015000Y-112663748D02*
X212015000Y-113186252D01*
G04 #@! TO.C,R51*
X222960000Y-131663748D02*
X222960000Y-132186252D01*
X221540000Y-131663748D02*
X221540000Y-132186252D01*
G04 #@! TO.C,R52*
X227532000Y-150738748D02*
X227532000Y-151261252D01*
X226112000Y-150738748D02*
X226112000Y-151261252D01*
G04 #@! TO.C,R53*
X218197500Y-169863748D02*
X218197500Y-170386252D01*
X216777500Y-169863748D02*
X216777500Y-170386252D01*
G04 #@! TO.C,R54*
X225341250Y-188763748D02*
X225341250Y-189286252D01*
X223921250Y-188763748D02*
X223921250Y-189286252D01*
G04 #@! TO.C,R55*
X232485000Y-112663748D02*
X232485000Y-113186252D01*
X231065000Y-112663748D02*
X231065000Y-113186252D01*
G04 #@! TO.C,R56*
X242010000Y-131663748D02*
X242010000Y-132186252D01*
X240590000Y-131663748D02*
X240590000Y-132186252D01*
G04 #@! TO.C,R57*
X246772500Y-150738748D02*
X246772500Y-151261252D01*
X245352500Y-150738748D02*
X245352500Y-151261252D01*
G04 #@! TO.C,R58*
X237247500Y-169601248D02*
X237247500Y-170123752D01*
X235827500Y-169601248D02*
X235827500Y-170123752D01*
G04 #@! TO.C,R59*
X246772500Y-188813748D02*
X246772500Y-189336252D01*
X245352500Y-188813748D02*
X245352500Y-189336252D01*
G04 #@! TO.C,R60*
X251535000Y-112588748D02*
X251535000Y-113111252D01*
X250115000Y-112588748D02*
X250115000Y-113111252D01*
G04 #@! TO.C,R61*
X261060000Y-131501248D02*
X261060000Y-132023752D01*
X259640000Y-131501248D02*
X259640000Y-132023752D01*
G04 #@! TO.C,R62*
X265822500Y-150688748D02*
X265822500Y-151211252D01*
X264402500Y-150688748D02*
X264402500Y-151211252D01*
G04 #@! TO.C,R63*
X256297500Y-169663748D02*
X256297500Y-170186252D01*
X254877500Y-169663748D02*
X254877500Y-170186252D01*
G04 #@! TO.C,R64*
X268203750Y-188838748D02*
X268203750Y-189361252D01*
X266783750Y-188838748D02*
X266783750Y-189361252D01*
G04 #@! TO.C,R65*
X270585000Y-112613748D02*
X270585000Y-113136252D01*
X269165000Y-112613748D02*
X269165000Y-113136252D01*
G04 #@! TO.C,R66*
X280110000Y-131663748D02*
X280110000Y-132186252D01*
X278690000Y-131663748D02*
X278690000Y-132186252D01*
G04 #@! TO.C,R67*
X285666250Y-152138748D02*
X285666250Y-152661252D01*
X284246250Y-152138748D02*
X284246250Y-152661252D01*
G04 #@! TO.C,R68*
X282491250Y-169738748D02*
X282491250Y-170261252D01*
X281071250Y-169738748D02*
X281071250Y-170261252D01*
G04 #@! TO.C,R69*
X294397500Y-193563748D02*
X294397500Y-194086252D01*
X292977500Y-193563748D02*
X292977500Y-194086252D01*
G04 #@! TO.C,R70*
X299160000Y-112663748D02*
X299160000Y-113186252D01*
X297740000Y-112663748D02*
X297740000Y-113186252D01*
G04 #@! TO.C,R71*
X307891250Y-131663748D02*
X307891250Y-132186252D01*
X306471250Y-131663748D02*
X306471250Y-132186252D01*
G04 #@! TO.C,R72*
X296778750Y-150763748D02*
X296778750Y-151286252D01*
X295358750Y-150763748D02*
X295358750Y-151286252D01*
G04 #@! TO.C,R73*
X313447500Y-174363748D02*
X313447500Y-174886252D01*
X312027500Y-174363748D02*
X312027500Y-174886252D01*
G04 #@! TO.C,R74*
X313447500Y-193563748D02*
X313447500Y-194086252D01*
X312027500Y-193563748D02*
X312027500Y-194086252D01*
G04 #@! TO.C,R75*
X310810000Y-112638748D02*
X310810000Y-113161252D01*
X309390000Y-112638748D02*
X309390000Y-113161252D01*
G04 #@! TO.C,R76*
X337260000Y-112563748D02*
X337260000Y-113086252D01*
X335840000Y-112563748D02*
X335840000Y-113086252D01*
G04 #@! TO.C,R77*
X337260000Y-131663748D02*
X337260000Y-132186252D01*
X335840000Y-131663748D02*
X335840000Y-132186252D01*
G04 #@! TO.C,R78*
X338110000Y-150763748D02*
X338110000Y-151286252D01*
X336690000Y-150763748D02*
X336690000Y-151286252D01*
G04 #@! TO.C,R79*
X337260000Y-169763748D02*
X337260000Y-170286252D01*
X335840000Y-169763748D02*
X335840000Y-170286252D01*
G04 #@! TO.C,R80*
X332497500Y-193538748D02*
X332497500Y-194061252D01*
X331077500Y-193538748D02*
X331077500Y-194061252D01*
G04 #@! TO.C,R81*
X356310000Y-112563748D02*
X356310000Y-113086252D01*
X354890000Y-112563748D02*
X354890000Y-113086252D01*
G04 #@! TO.C,R82*
X356310000Y-131663748D02*
X356310000Y-132186252D01*
X354890000Y-131663748D02*
X354890000Y-132186252D01*
G04 #@! TO.C,R83*
X356310000Y-150713748D02*
X356310000Y-151236252D01*
X354890000Y-150713748D02*
X354890000Y-151236252D01*
G04 #@! TO.C,R84*
X356310000Y-169763748D02*
X356310000Y-170286252D01*
X354890000Y-169763748D02*
X354890000Y-170286252D01*
G04 #@! TO.C,R85*
X356310000Y-188651248D02*
X356310000Y-189173752D01*
X354890000Y-188651248D02*
X354890000Y-189173752D01*
G04 #@! TO.C,R86*
X375360000Y-112563748D02*
X375360000Y-113086252D01*
X373940000Y-112563748D02*
X373940000Y-113086252D01*
G04 #@! TO.C,R87*
X375360000Y-131501248D02*
X375360000Y-132023752D01*
X373940000Y-131501248D02*
X373940000Y-132023752D01*
G04 #@! TO.C,R88*
X375360000Y-150738748D02*
X375360000Y-151261252D01*
X373940000Y-150738748D02*
X373940000Y-151261252D01*
G04 #@! TO.C,R89*
X375360000Y-169738748D02*
X375360000Y-170261252D01*
X373940000Y-169738748D02*
X373940000Y-170261252D01*
G04 #@! TO.C,R90*
X375360000Y-188763748D02*
X375360000Y-189286252D01*
X373940000Y-188763748D02*
X373940000Y-189286252D01*
G04 #@! TO.C,R91*
X394410000Y-188763748D02*
X394410000Y-189286252D01*
X392990000Y-188763748D02*
X392990000Y-189286252D01*
G04 #@! TO.C,R92*
X382503750Y-112663748D02*
X382503750Y-113186252D01*
X381083750Y-112663748D02*
X381083750Y-113186252D01*
G04 #@! TO.C,R93*
X382503750Y-131501248D02*
X382503750Y-132023752D01*
X381083750Y-131501248D02*
X381083750Y-132023752D01*
G04 #@! TO.C,R94*
X394410000Y-150738748D02*
X394410000Y-151261252D01*
X392990000Y-150738748D02*
X392990000Y-151261252D01*
G04 #@! TO.C,R95*
X377741250Y-169738748D02*
X377741250Y-170261252D01*
X376321250Y-169738748D02*
X376321250Y-170261252D01*
D14*
G04 #@! TO.C,U1*
X190375000Y-175900000D02*
X191650000Y-175900000D01*
X180025000Y-175325000D02*
X180700000Y-175325000D01*
X180025000Y-185675000D02*
X180700000Y-185675000D01*
X190375000Y-185675000D02*
X189700000Y-185675000D01*
X190375000Y-175325000D02*
X189700000Y-175325000D01*
X190375000Y-185675000D02*
X190375000Y-185000000D01*
X180025000Y-185675000D02*
X180025000Y-185000000D01*
X180025000Y-175325000D02*
X180025000Y-176000000D01*
X190375000Y-175325000D02*
X190375000Y-175900000D01*
D11*
G04 #@! TO.C,Y1*
X183000000Y-189650000D02*
X188400000Y-189650000D01*
X183000000Y-194150000D02*
X183000000Y-189650000D01*
D15*
G04 #@! TO.C,svg2mod*
G36*
X103945928Y-181691440D02*
X108909353Y-182211641D01*
X103945928Y-182211641D01*
X103665797Y-182268227D01*
X103436755Y-182422627D01*
X103281871Y-182651793D01*
X103224213Y-182932679D01*
X103224213Y-185369062D01*
X103281792Y-185650434D01*
X103436552Y-185880284D01*
X103665571Y-186035605D01*
X103945928Y-186093392D01*
X108909353Y-186093392D01*
X109189224Y-186035526D01*
X109417563Y-185880080D01*
X109571405Y-185650208D01*
X109627787Y-185369062D01*
X109627787Y-182932679D01*
X109570466Y-182652588D01*
X109416409Y-182423785D01*
X109188432Y-182269169D01*
X108909353Y-182211641D01*
X103945928Y-181691440D01*
X105789579Y-181691440D01*
X105185964Y-181069174D01*
X105079764Y-180860790D01*
X105103951Y-180627991D01*
X105252325Y-180448615D01*
X105474649Y-180381061D01*
X106166839Y-180381061D01*
X106166839Y-179666608D01*
X102965052Y-179666608D01*
X102835472Y-179631761D01*
X102740612Y-179536557D01*
X102705891Y-179406507D01*
X102740612Y-179276457D01*
X102835472Y-179181254D01*
X102965052Y-179146407D01*
X109886948Y-179146407D01*
X110070202Y-179222588D01*
X110146109Y-179406507D01*
X110070202Y-179590426D01*
X109886948Y-179666608D01*
X106685161Y-179666608D01*
X106685161Y-180381061D01*
X107695561Y-180381061D01*
X107825141Y-180415908D01*
X107920001Y-180511111D01*
X107954722Y-180641161D01*
X107920001Y-180771211D01*
X107825141Y-180866415D01*
X107695561Y-180901262D01*
X105746932Y-180901262D01*
X106514574Y-181691440D01*
X108909353Y-181691440D01*
X109158602Y-181716658D01*
X109390754Y-181788983D01*
X109783871Y-182054990D01*
X110048918Y-182449533D01*
X110120982Y-182682526D01*
X110146109Y-182932679D01*
X110146109Y-185369062D01*
X110121005Y-185619436D01*
X110048994Y-185852693D01*
X109784071Y-186247917D01*
X109390978Y-186514846D01*
X109158755Y-186587735D01*
X108909353Y-186613593D01*
X103945928Y-186613593D01*
X103696306Y-186587758D01*
X103463818Y-186514922D01*
X103070046Y-186248118D01*
X102804205Y-185852918D01*
X102731633Y-185619588D01*
X102705891Y-185369062D01*
X102705891Y-182932679D01*
X102731656Y-182682373D01*
X102804282Y-182449308D01*
X103070247Y-182054790D01*
X103464044Y-181788907D01*
X103696458Y-181716635D01*
X103945928Y-181691440D01*
X103945928Y-181691440D01*
G37*
X103945928Y-181691440D02*
X108909353Y-182211641D01*
X103945928Y-182211641D01*
X103665797Y-182268227D01*
X103436755Y-182422627D01*
X103281871Y-182651793D01*
X103224213Y-182932679D01*
X103224213Y-185369062D01*
X103281792Y-185650434D01*
X103436552Y-185880284D01*
X103665571Y-186035605D01*
X103945928Y-186093392D01*
X108909353Y-186093392D01*
X109189224Y-186035526D01*
X109417563Y-185880080D01*
X109571405Y-185650208D01*
X109627787Y-185369062D01*
X109627787Y-182932679D01*
X109570466Y-182652588D01*
X109416409Y-182423785D01*
X109188432Y-182269169D01*
X108909353Y-182211641D01*
X103945928Y-181691440D01*
X105789579Y-181691440D01*
X105185964Y-181069174D01*
X105079764Y-180860790D01*
X105103951Y-180627991D01*
X105252325Y-180448615D01*
X105474649Y-180381061D01*
X106166839Y-180381061D01*
X106166839Y-179666608D01*
X102965052Y-179666608D01*
X102835472Y-179631761D01*
X102740612Y-179536557D01*
X102705891Y-179406507D01*
X102740612Y-179276457D01*
X102835472Y-179181254D01*
X102965052Y-179146407D01*
X109886948Y-179146407D01*
X110070202Y-179222588D01*
X110146109Y-179406507D01*
X110070202Y-179590426D01*
X109886948Y-179666608D01*
X106685161Y-179666608D01*
X106685161Y-180381061D01*
X107695561Y-180381061D01*
X107825141Y-180415908D01*
X107920001Y-180511111D01*
X107954722Y-180641161D01*
X107920001Y-180771211D01*
X107825141Y-180866415D01*
X107695561Y-180901262D01*
X105746932Y-180901262D01*
X106514574Y-181691440D01*
X108909353Y-181691440D01*
X109158602Y-181716658D01*
X109390754Y-181788983D01*
X109783871Y-182054990D01*
X110048918Y-182449533D01*
X110120982Y-182682526D01*
X110146109Y-182932679D01*
X110146109Y-185369062D01*
X110121005Y-185619436D01*
X110048994Y-185852693D01*
X109784071Y-186247917D01*
X109390978Y-186514846D01*
X109158755Y-186587735D01*
X108909353Y-186613593D01*
X103945928Y-186613593D01*
X103696306Y-186587758D01*
X103463818Y-186514922D01*
X103070046Y-186248118D01*
X102804205Y-185852918D01*
X102731633Y-185619588D01*
X102705891Y-185369062D01*
X102705891Y-182932679D01*
X102731656Y-182682373D01*
X102804282Y-182449308D01*
X103070247Y-182054790D01*
X103464044Y-181788907D01*
X103696458Y-181716635D01*
X103945928Y-181691440D01*
G36*
X105205647Y-182590268D02*
X108042684Y-183193892D01*
X107646353Y-183113761D01*
X106386634Y-183113761D01*
X108223724Y-185010189D01*
X108409091Y-184846058D01*
X108548041Y-184645071D01*
X108635550Y-184416752D01*
X108666595Y-184170625D01*
X108666595Y-184134408D01*
X108585476Y-183736901D01*
X108366615Y-183412501D01*
X108042684Y-183193892D01*
X105205647Y-182590268D01*
X107682439Y-185187980D01*
X105668200Y-183113761D01*
X105212208Y-183113761D01*
X105087548Y-183113761D01*
X107085384Y-185191272D01*
X107675878Y-185191272D01*
X107682438Y-185187980D01*
X107682439Y-185187980D01*
X105205647Y-182590268D01*
X104569225Y-183344230D01*
X104408976Y-183505490D01*
X104289690Y-183696018D01*
X104215037Y-183908197D01*
X104188685Y-184134408D01*
X104195245Y-184170625D01*
X104195246Y-184170625D01*
X104272658Y-184561210D01*
X104493107Y-184892332D01*
X104823033Y-185113580D01*
X105212207Y-185191272D01*
X106360389Y-185191272D01*
X104569225Y-183344230D01*
X105205647Y-182590268D01*
X107646353Y-182590268D01*
X107956138Y-182622190D01*
X108244662Y-182712484D01*
X108505774Y-182854977D01*
X108733324Y-183043497D01*
X108921164Y-183271872D01*
X109063142Y-183533931D01*
X109153110Y-183823500D01*
X109184917Y-184134408D01*
X109184917Y-184170625D01*
X109153087Y-184481313D01*
X109063066Y-184770617D01*
X108921022Y-185032362D01*
X108733124Y-185260369D01*
X108505539Y-185448461D01*
X108244437Y-185590461D01*
X107955986Y-185680191D01*
X107646353Y-185711472D01*
X105205647Y-185711472D01*
X104896523Y-185679618D01*
X104608615Y-185589516D01*
X104348061Y-185447327D01*
X104120995Y-185259208D01*
X103933556Y-185031320D01*
X103791881Y-184769821D01*
X103702104Y-184480870D01*
X103670364Y-184170625D01*
X103670364Y-184134408D01*
X103701533Y-183823653D01*
X103790939Y-183534156D01*
X103932426Y-183272108D01*
X104119838Y-183043699D01*
X104347022Y-182855119D01*
X104607821Y-182712561D01*
X104896081Y-182622213D01*
X105205647Y-182590268D01*
X105205647Y-182590268D01*
G37*
X105205647Y-182590268D02*
X108042684Y-183193892D01*
X107646353Y-183113761D01*
X106386634Y-183113761D01*
X108223724Y-185010189D01*
X108409091Y-184846058D01*
X108548041Y-184645071D01*
X108635550Y-184416752D01*
X108666595Y-184170625D01*
X108666595Y-184134408D01*
X108585476Y-183736901D01*
X108366615Y-183412501D01*
X108042684Y-183193892D01*
X105205647Y-182590268D01*
X107682439Y-185187980D01*
X105668200Y-183113761D01*
X105212208Y-183113761D01*
X105087548Y-183113761D01*
X107085384Y-185191272D01*
X107675878Y-185191272D01*
X107682438Y-185187980D01*
X107682439Y-185187980D01*
X105205647Y-182590268D01*
X104569225Y-183344230D01*
X104408976Y-183505490D01*
X104289690Y-183696018D01*
X104215037Y-183908197D01*
X104188685Y-184134408D01*
X104195245Y-184170625D01*
X104195246Y-184170625D01*
X104272658Y-184561210D01*
X104493107Y-184892332D01*
X104823033Y-185113580D01*
X105212207Y-185191272D01*
X106360389Y-185191272D01*
X104569225Y-183344230D01*
X105205647Y-182590268D01*
X107646353Y-182590268D01*
X107956138Y-182622190D01*
X108244662Y-182712484D01*
X108505774Y-182854977D01*
X108733324Y-183043497D01*
X108921164Y-183271872D01*
X109063142Y-183533931D01*
X109153110Y-183823500D01*
X109184917Y-184134408D01*
X109184917Y-184170625D01*
X109153087Y-184481313D01*
X109063066Y-184770617D01*
X108921022Y-185032362D01*
X108733124Y-185260369D01*
X108505539Y-185448461D01*
X108244437Y-185590461D01*
X107955986Y-185680191D01*
X107646353Y-185711472D01*
X105205647Y-185711472D01*
X104896523Y-185679618D01*
X104608615Y-185589516D01*
X104348061Y-185447327D01*
X104120995Y-185259208D01*
X103933556Y-185031320D01*
X103791881Y-184769821D01*
X103702104Y-184480870D01*
X103670364Y-184170625D01*
X103670364Y-184134408D01*
X103701533Y-183823653D01*
X103790939Y-183534156D01*
X103932426Y-183272108D01*
X104119838Y-183043699D01*
X104347022Y-182855119D01*
X104607821Y-182712561D01*
X104896081Y-182622213D01*
X105205647Y-182590268D01*
G04 #@! TO.C,R13*
D14*
X47473214Y-188363095D02*
X48139880Y-188363095D01*
X47092261Y-188125000D02*
X47806547Y-187886904D01*
X47806547Y-188505952D01*
X47139880Y-188791666D02*
X47139880Y-189458333D01*
X48139880Y-189029761D01*
X47139880Y-190029761D02*
X47139880Y-190125000D01*
X47187500Y-190220238D01*
X47235119Y-190267857D01*
X47330357Y-190315476D01*
X47520833Y-190363095D01*
X47758928Y-190363095D01*
X47949404Y-190315476D01*
X48044642Y-190267857D01*
X48092261Y-190220238D01*
X48139880Y-190125000D01*
X48139880Y-190029761D01*
X48092261Y-189934523D01*
X48044642Y-189886904D01*
X47949404Y-189839285D01*
X47758928Y-189791666D01*
X47520833Y-189791666D01*
X47330357Y-189839285D01*
X47235119Y-189886904D01*
X47187500Y-189934523D01*
X47139880Y-190029761D01*
G04 #@! TO.C,C8*
X197702380Y-179947619D02*
X197702380Y-179376190D01*
X197702380Y-179661904D02*
X196702380Y-179661904D01*
X196845238Y-179566666D01*
X196940476Y-179471428D01*
X196988095Y-179376190D01*
X197035714Y-180804761D02*
X197702380Y-180804761D01*
X197035714Y-180376190D02*
X197559523Y-180376190D01*
X197654761Y-180423809D01*
X197702380Y-180519047D01*
X197702380Y-180661904D01*
X197654761Y-180757142D01*
X197607142Y-180804761D01*
X197035714Y-181138095D02*
X197035714Y-181519047D01*
X197702380Y-181280952D02*
X196845238Y-181280952D01*
X196750000Y-181328571D01*
X196702380Y-181423809D01*
X196702380Y-181519047D01*
G04 #@! TO.C,C1*
X193207714Y-174735095D02*
X193874380Y-174735095D01*
X192826761Y-174497000D02*
X193541047Y-174258904D01*
X193541047Y-174877952D01*
X193779142Y-175258904D02*
X193826761Y-175306523D01*
X193874380Y-175258904D01*
X193826761Y-175211285D01*
X193779142Y-175258904D01*
X193874380Y-175258904D01*
X192874380Y-175639857D02*
X192874380Y-176306523D01*
X193874380Y-175877952D01*
X193207714Y-177116047D02*
X193874380Y-177116047D01*
X193207714Y-176687476D02*
X193731523Y-176687476D01*
X193826761Y-176735095D01*
X193874380Y-176830333D01*
X193874380Y-176973190D01*
X193826761Y-177068428D01*
X193779142Y-177116047D01*
X193207714Y-177449380D02*
X193207714Y-177830333D01*
X193874380Y-177592238D02*
X193017238Y-177592238D01*
X192922000Y-177639857D01*
X192874380Y-177735095D01*
X192874380Y-177830333D01*
G04 #@! TO.C,C2*
X181522619Y-190660714D02*
X181475000Y-190708333D01*
X181427380Y-190803571D01*
X181427380Y-191041666D01*
X181475000Y-191136904D01*
X181522619Y-191184523D01*
X181617857Y-191232142D01*
X181713095Y-191232142D01*
X181855952Y-191184523D01*
X182427380Y-190613095D01*
X182427380Y-191232142D01*
X181522619Y-191613095D02*
X181475000Y-191660714D01*
X181427380Y-191755952D01*
X181427380Y-191994047D01*
X181475000Y-192089285D01*
X181522619Y-192136904D01*
X181617857Y-192184523D01*
X181713095Y-192184523D01*
X181855952Y-192136904D01*
X182427380Y-191565476D01*
X182427380Y-192184523D01*
X181760714Y-192613095D02*
X182760714Y-192613095D01*
X181808333Y-192613095D02*
X181760714Y-192708333D01*
X181760714Y-192898809D01*
X181808333Y-192994047D01*
X181855952Y-193041666D01*
X181951190Y-193089285D01*
X182236904Y-193089285D01*
X182332142Y-193041666D01*
X182379761Y-192994047D01*
X182427380Y-192898809D01*
X182427380Y-192708333D01*
X182379761Y-192613095D01*
G04 #@! TO.C,C3*
X192347619Y-190610714D02*
X192300000Y-190658333D01*
X192252380Y-190753571D01*
X192252380Y-190991666D01*
X192300000Y-191086904D01*
X192347619Y-191134523D01*
X192442857Y-191182142D01*
X192538095Y-191182142D01*
X192680952Y-191134523D01*
X193252380Y-190563095D01*
X193252380Y-191182142D01*
X192347619Y-191563095D02*
X192300000Y-191610714D01*
X192252380Y-191705952D01*
X192252380Y-191944047D01*
X192300000Y-192039285D01*
X192347619Y-192086904D01*
X192442857Y-192134523D01*
X192538095Y-192134523D01*
X192680952Y-192086904D01*
X193252380Y-191515476D01*
X193252380Y-192134523D01*
X192585714Y-192563095D02*
X193585714Y-192563095D01*
X192633333Y-192563095D02*
X192585714Y-192658333D01*
X192585714Y-192848809D01*
X192633333Y-192944047D01*
X192680952Y-192991666D01*
X192776190Y-193039285D01*
X193061904Y-193039285D01*
X193157142Y-192991666D01*
X193204761Y-192944047D01*
X193252380Y-192848809D01*
X193252380Y-192658333D01*
X193204761Y-192563095D01*
G04 #@! TO.C,C4*
X174752380Y-183125000D02*
X174752380Y-183220238D01*
X174800000Y-183315476D01*
X174847619Y-183363095D01*
X174942857Y-183410714D01*
X175133333Y-183458333D01*
X175371428Y-183458333D01*
X175561904Y-183410714D01*
X175657142Y-183363095D01*
X175704761Y-183315476D01*
X175752380Y-183220238D01*
X175752380Y-183125000D01*
X175704761Y-183029761D01*
X175657142Y-182982142D01*
X175561904Y-182934523D01*
X175371428Y-182886904D01*
X175133333Y-182886904D01*
X174942857Y-182934523D01*
X174847619Y-182982142D01*
X174800000Y-183029761D01*
X174752380Y-183125000D01*
X175657142Y-183886904D02*
X175704761Y-183934523D01*
X175752380Y-183886904D01*
X175704761Y-183839285D01*
X175657142Y-183886904D01*
X175752380Y-183886904D01*
X175752380Y-184886904D02*
X175752380Y-184315476D01*
X175752380Y-184601190D02*
X174752380Y-184601190D01*
X174895238Y-184505952D01*
X174990476Y-184410714D01*
X175038095Y-184315476D01*
X175085714Y-185744047D02*
X175752380Y-185744047D01*
X175085714Y-185315476D02*
X175609523Y-185315476D01*
X175704761Y-185363095D01*
X175752380Y-185458333D01*
X175752380Y-185601190D01*
X175704761Y-185696428D01*
X175657142Y-185744047D01*
X175085714Y-186077380D02*
X175085714Y-186458333D01*
X175752380Y-186220238D02*
X174895238Y-186220238D01*
X174800000Y-186267857D01*
X174752380Y-186363095D01*
X174752380Y-186458333D01*
G04 #@! TO.C,C5*
X196702380Y-182875000D02*
X196702380Y-182970238D01*
X196750000Y-183065476D01*
X196797619Y-183113095D01*
X196892857Y-183160714D01*
X197083333Y-183208333D01*
X197321428Y-183208333D01*
X197511904Y-183160714D01*
X197607142Y-183113095D01*
X197654761Y-183065476D01*
X197702380Y-182970238D01*
X197702380Y-182875000D01*
X197654761Y-182779761D01*
X197607142Y-182732142D01*
X197511904Y-182684523D01*
X197321428Y-182636904D01*
X197083333Y-182636904D01*
X196892857Y-182684523D01*
X196797619Y-182732142D01*
X196750000Y-182779761D01*
X196702380Y-182875000D01*
X197607142Y-183636904D02*
X197654761Y-183684523D01*
X197702380Y-183636904D01*
X197654761Y-183589285D01*
X197607142Y-183636904D01*
X197702380Y-183636904D01*
X197702380Y-184636904D02*
X197702380Y-184065476D01*
X197702380Y-184351190D02*
X196702380Y-184351190D01*
X196845238Y-184255952D01*
X196940476Y-184160714D01*
X196988095Y-184065476D01*
X197035714Y-185494047D02*
X197702380Y-185494047D01*
X197035714Y-185065476D02*
X197559523Y-185065476D01*
X197654761Y-185113095D01*
X197702380Y-185208333D01*
X197702380Y-185351190D01*
X197654761Y-185446428D01*
X197607142Y-185494047D01*
X197035714Y-185827380D02*
X197035714Y-186208333D01*
X197702380Y-185970238D02*
X196845238Y-185970238D01*
X196750000Y-186017857D01*
X196702380Y-186113095D01*
X196702380Y-186208333D01*
G04 #@! TO.C,C6*
X183602380Y-168625000D02*
X183602380Y-168720238D01*
X183650000Y-168815476D01*
X183697619Y-168863095D01*
X183792857Y-168910714D01*
X183983333Y-168958333D01*
X184221428Y-168958333D01*
X184411904Y-168910714D01*
X184507142Y-168863095D01*
X184554761Y-168815476D01*
X184602380Y-168720238D01*
X184602380Y-168625000D01*
X184554761Y-168529761D01*
X184507142Y-168482142D01*
X184411904Y-168434523D01*
X184221428Y-168386904D01*
X183983333Y-168386904D01*
X183792857Y-168434523D01*
X183697619Y-168482142D01*
X183650000Y-168529761D01*
X183602380Y-168625000D01*
X184507142Y-169386904D02*
X184554761Y-169434523D01*
X184602380Y-169386904D01*
X184554761Y-169339285D01*
X184507142Y-169386904D01*
X184602380Y-169386904D01*
X184602380Y-170386904D02*
X184602380Y-169815476D01*
X184602380Y-170101190D02*
X183602380Y-170101190D01*
X183745238Y-170005952D01*
X183840476Y-169910714D01*
X183888095Y-169815476D01*
X183935714Y-171244047D02*
X184602380Y-171244047D01*
X183935714Y-170815476D02*
X184459523Y-170815476D01*
X184554761Y-170863095D01*
X184602380Y-170958333D01*
X184602380Y-171101190D01*
X184554761Y-171196428D01*
X184507142Y-171244047D01*
X183935714Y-171577380D02*
X183935714Y-171958333D01*
X184602380Y-171720238D02*
X183745238Y-171720238D01*
X183650000Y-171767857D01*
X183602380Y-171863095D01*
X183602380Y-171958333D01*
G04 #@! TO.C,C7*
X196602380Y-190175000D02*
X196602380Y-190270238D01*
X196650000Y-190365476D01*
X196697619Y-190413095D01*
X196792857Y-190460714D01*
X196983333Y-190508333D01*
X197221428Y-190508333D01*
X197411904Y-190460714D01*
X197507142Y-190413095D01*
X197554761Y-190365476D01*
X197602380Y-190270238D01*
X197602380Y-190175000D01*
X197554761Y-190079761D01*
X197507142Y-190032142D01*
X197411904Y-189984523D01*
X197221428Y-189936904D01*
X196983333Y-189936904D01*
X196792857Y-189984523D01*
X196697619Y-190032142D01*
X196650000Y-190079761D01*
X196602380Y-190175000D01*
X197507142Y-190936904D02*
X197554761Y-190984523D01*
X197602380Y-190936904D01*
X197554761Y-190889285D01*
X197507142Y-190936904D01*
X197602380Y-190936904D01*
X197602380Y-191936904D02*
X197602380Y-191365476D01*
X197602380Y-191651190D02*
X196602380Y-191651190D01*
X196745238Y-191555952D01*
X196840476Y-191460714D01*
X196888095Y-191365476D01*
X196935714Y-192794047D02*
X197602380Y-192794047D01*
X196935714Y-192365476D02*
X197459523Y-192365476D01*
X197554761Y-192413095D01*
X197602380Y-192508333D01*
X197602380Y-192651190D01*
X197554761Y-192746428D01*
X197507142Y-192794047D01*
X196935714Y-193127380D02*
X196935714Y-193508333D01*
X197602380Y-193270238D02*
X196745238Y-193270238D01*
X196650000Y-193317857D01*
X196602380Y-193413095D01*
X196602380Y-193508333D01*
G04 #@! TO.C,J2*
X220021428Y-187252380D02*
X220021428Y-186252380D01*
X219688095Y-186966666D01*
X219354761Y-186252380D01*
X219354761Y-187252380D01*
X218878571Y-187252380D02*
X218878571Y-186252380D01*
X218450000Y-187204761D02*
X218307142Y-187252380D01*
X218069047Y-187252380D01*
X217973809Y-187204761D01*
X217926190Y-187157142D01*
X217878571Y-187061904D01*
X217878571Y-186966666D01*
X217926190Y-186871428D01*
X217973809Y-186823809D01*
X218069047Y-186776190D01*
X218259523Y-186728571D01*
X218354761Y-186680952D01*
X218402380Y-186633333D01*
X218450000Y-186538095D01*
X218450000Y-186442857D01*
X218402380Y-186347619D01*
X218354761Y-186300000D01*
X218259523Y-186252380D01*
X218021428Y-186252380D01*
X217878571Y-186300000D01*
X217259523Y-186252380D02*
X217069047Y-186252380D01*
X216973809Y-186300000D01*
X216878571Y-186395238D01*
X216830952Y-186585714D01*
X216830952Y-186919047D01*
X216878571Y-187109523D01*
X216973809Y-187204761D01*
X217069047Y-187252380D01*
X217259523Y-187252380D01*
X217354761Y-187204761D01*
X217450000Y-187109523D01*
X217497619Y-186919047D01*
X217497619Y-186585714D01*
X217450000Y-186395238D01*
X217354761Y-186300000D01*
X217259523Y-186252380D01*
X211533333Y-186252380D02*
X211200000Y-187252380D01*
X210866666Y-186252380D01*
X209961904Y-187157142D02*
X210009523Y-187204761D01*
X210152380Y-187252380D01*
X210247619Y-187252380D01*
X210390476Y-187204761D01*
X210485714Y-187109523D01*
X210533333Y-187014285D01*
X210580952Y-186823809D01*
X210580952Y-186680952D01*
X210533333Y-186490476D01*
X210485714Y-186395238D01*
X210390476Y-186300000D01*
X210247619Y-186252380D01*
X210152380Y-186252380D01*
X210009523Y-186300000D01*
X209961904Y-186347619D01*
X208961904Y-187157142D02*
X209009523Y-187204761D01*
X209152380Y-187252380D01*
X209247619Y-187252380D01*
X209390476Y-187204761D01*
X209485714Y-187109523D01*
X209533333Y-187014285D01*
X209580952Y-186823809D01*
X209580952Y-186680952D01*
X209533333Y-186490476D01*
X209485714Y-186395238D01*
X209390476Y-186300000D01*
X209247619Y-186252380D01*
X209152380Y-186252380D01*
X209009523Y-186300000D01*
X208961904Y-186347619D01*
X219485714Y-189704761D02*
X219342857Y-189752380D01*
X219104761Y-189752380D01*
X219009523Y-189704761D01*
X218961904Y-189657142D01*
X218914285Y-189561904D01*
X218914285Y-189466666D01*
X218961904Y-189371428D01*
X219009523Y-189323809D01*
X219104761Y-189276190D01*
X219295238Y-189228571D01*
X219390476Y-189180952D01*
X219438095Y-189133333D01*
X219485714Y-189038095D01*
X219485714Y-188942857D01*
X219438095Y-188847619D01*
X219390476Y-188800000D01*
X219295238Y-188752380D01*
X219057142Y-188752380D01*
X218914285Y-188800000D01*
X217914285Y-189657142D02*
X217961904Y-189704761D01*
X218104761Y-189752380D01*
X218200000Y-189752380D01*
X218342857Y-189704761D01*
X218438095Y-189609523D01*
X218485714Y-189514285D01*
X218533333Y-189323809D01*
X218533333Y-189180952D01*
X218485714Y-188990476D01*
X218438095Y-188895238D01*
X218342857Y-188800000D01*
X218200000Y-188752380D01*
X218104761Y-188752380D01*
X217961904Y-188800000D01*
X217914285Y-188847619D01*
X217485714Y-189752380D02*
X217485714Y-188752380D01*
X216914285Y-189752380D02*
X217342857Y-189180952D01*
X216914285Y-188752380D02*
X217485714Y-189323809D01*
X211521428Y-189752380D02*
X211521428Y-188752380D01*
X211188095Y-189466666D01*
X210854761Y-188752380D01*
X210854761Y-189752380D01*
X210188095Y-188752380D02*
X209997619Y-188752380D01*
X209902380Y-188800000D01*
X209807142Y-188895238D01*
X209759523Y-189085714D01*
X209759523Y-189419047D01*
X209807142Y-189609523D01*
X209902380Y-189704761D01*
X209997619Y-189752380D01*
X210188095Y-189752380D01*
X210283333Y-189704761D01*
X210378571Y-189609523D01*
X210426190Y-189419047D01*
X210426190Y-189085714D01*
X210378571Y-188895238D01*
X210283333Y-188800000D01*
X210188095Y-188752380D01*
X209378571Y-189704761D02*
X209235714Y-189752380D01*
X208997619Y-189752380D01*
X208902380Y-189704761D01*
X208854761Y-189657142D01*
X208807142Y-189561904D01*
X208807142Y-189466666D01*
X208854761Y-189371428D01*
X208902380Y-189323809D01*
X208997619Y-189276190D01*
X209188095Y-189228571D01*
X209283333Y-189180952D01*
X209330952Y-189133333D01*
X209378571Y-189038095D01*
X209378571Y-188942857D01*
X209330952Y-188847619D01*
X209283333Y-188800000D01*
X209188095Y-188752380D01*
X208950000Y-188752380D01*
X208807142Y-188800000D01*
X208378571Y-189752380D02*
X208378571Y-188752380D01*
X218997619Y-192252380D02*
X219330952Y-191776190D01*
X219569047Y-192252380D02*
X219569047Y-191252380D01*
X219188095Y-191252380D01*
X219092857Y-191300000D01*
X219045238Y-191347619D01*
X218997619Y-191442857D01*
X218997619Y-191585714D01*
X219045238Y-191680952D01*
X219092857Y-191728571D01*
X219188095Y-191776190D01*
X219569047Y-191776190D01*
X218616666Y-192204761D02*
X218473809Y-192252380D01*
X218235714Y-192252380D01*
X218140476Y-192204761D01*
X218092857Y-192157142D01*
X218045238Y-192061904D01*
X218045238Y-191966666D01*
X218092857Y-191871428D01*
X218140476Y-191823809D01*
X218235714Y-191776190D01*
X218426190Y-191728571D01*
X218521428Y-191680952D01*
X218569047Y-191633333D01*
X218616666Y-191538095D01*
X218616666Y-191442857D01*
X218569047Y-191347619D01*
X218521428Y-191300000D01*
X218426190Y-191252380D01*
X218188095Y-191252380D01*
X218045238Y-191300000D01*
X217759523Y-191252380D02*
X217188095Y-191252380D01*
X217473809Y-192252380D02*
X217473809Y-191252380D01*
X210711904Y-191300000D02*
X210807142Y-191252380D01*
X210950000Y-191252380D01*
X211092857Y-191300000D01*
X211188095Y-191395238D01*
X211235714Y-191490476D01*
X211283333Y-191680952D01*
X211283333Y-191823809D01*
X211235714Y-192014285D01*
X211188095Y-192109523D01*
X211092857Y-192204761D01*
X210950000Y-192252380D01*
X210854761Y-192252380D01*
X210711904Y-192204761D01*
X210664285Y-192157142D01*
X210664285Y-191823809D01*
X210854761Y-191823809D01*
X210235714Y-192252380D02*
X210235714Y-191252380D01*
X209664285Y-192252380D01*
X209664285Y-191252380D01*
X209188095Y-192252380D02*
X209188095Y-191252380D01*
X208950000Y-191252380D01*
X208807142Y-191300000D01*
X208711904Y-191395238D01*
X208664285Y-191490476D01*
X208616666Y-191680952D01*
X208616666Y-191823809D01*
X208664285Y-192014285D01*
X208711904Y-192109523D01*
X208807142Y-192204761D01*
X208950000Y-192252380D01*
X209188095Y-192252380D01*
G04 #@! TO.C,F1*
X218272321Y-106466666D02*
X218272321Y-106133333D01*
X218796130Y-106133333D02*
X217796130Y-106133333D01*
X217796130Y-106609523D01*
X218796130Y-107514285D02*
X218796130Y-106942857D01*
X218796130Y-107228571D02*
X217796130Y-107228571D01*
X217938988Y-107133333D01*
X218034226Y-107038095D01*
X218081845Y-106942857D01*
G04 #@! TO.C,J1*
X213513333Y-93827380D02*
X213513333Y-94541666D01*
X213560952Y-94684523D01*
X213656190Y-94779761D01*
X213799047Y-94827380D01*
X213894285Y-94827380D01*
X212513333Y-94827380D02*
X213084761Y-94827380D01*
X212799047Y-94827380D02*
X212799047Y-93827380D01*
X212894285Y-93970238D01*
X212989523Y-94065476D01*
X213084761Y-94113095D01*
G04 #@! TO.C,Q1*
X315247619Y-148104761D02*
X315200000Y-148009523D01*
X315104761Y-147914285D01*
X314961904Y-147771428D01*
X314914285Y-147676190D01*
X314914285Y-147580952D01*
X315152380Y-147628571D02*
X315104761Y-147533333D01*
X315009523Y-147438095D01*
X314819047Y-147390476D01*
X314485714Y-147390476D01*
X314295238Y-147438095D01*
X314200000Y-147533333D01*
X314152380Y-147628571D01*
X314152380Y-147819047D01*
X314200000Y-147914285D01*
X314295238Y-148009523D01*
X314485714Y-148057142D01*
X314819047Y-148057142D01*
X315009523Y-148009523D01*
X315104761Y-147914285D01*
X315152380Y-147819047D01*
X315152380Y-147628571D01*
X315152380Y-149009523D02*
X315152380Y-148438095D01*
X315152380Y-148723809D02*
X314152380Y-148723809D01*
X314295238Y-148628571D01*
X314390476Y-148533333D01*
X314438095Y-148438095D01*
G04 #@! TO.C,R1*
X221697619Y-101763095D02*
X221650000Y-101810714D01*
X221602380Y-101905952D01*
X221602380Y-102144047D01*
X221650000Y-102239285D01*
X221697619Y-102286904D01*
X221792857Y-102334523D01*
X221888095Y-102334523D01*
X222030952Y-102286904D01*
X222602380Y-101715476D01*
X222602380Y-102334523D01*
X221697619Y-102715476D02*
X221650000Y-102763095D01*
X221602380Y-102858333D01*
X221602380Y-103096428D01*
X221650000Y-103191666D01*
X221697619Y-103239285D01*
X221792857Y-103286904D01*
X221888095Y-103286904D01*
X222030952Y-103239285D01*
X222602380Y-102667857D01*
X222602380Y-103286904D01*
X222602380Y-104286904D02*
X222126190Y-103953571D01*
X222602380Y-103715476D02*
X221602380Y-103715476D01*
X221602380Y-104096428D01*
X221650000Y-104191666D01*
X221697619Y-104239285D01*
X221792857Y-104286904D01*
X221935714Y-104286904D01*
X222030952Y-104239285D01*
X222078571Y-104191666D01*
X222126190Y-104096428D01*
X222126190Y-103715476D01*
G04 #@! TO.C,R2*
X216397619Y-101763095D02*
X216350000Y-101810714D01*
X216302380Y-101905952D01*
X216302380Y-102144047D01*
X216350000Y-102239285D01*
X216397619Y-102286904D01*
X216492857Y-102334523D01*
X216588095Y-102334523D01*
X216730952Y-102286904D01*
X217302380Y-101715476D01*
X217302380Y-102334523D01*
X216397619Y-102715476D02*
X216350000Y-102763095D01*
X216302380Y-102858333D01*
X216302380Y-103096428D01*
X216350000Y-103191666D01*
X216397619Y-103239285D01*
X216492857Y-103286904D01*
X216588095Y-103286904D01*
X216730952Y-103239285D01*
X217302380Y-102667857D01*
X217302380Y-103286904D01*
X217302380Y-104286904D02*
X216826190Y-103953571D01*
X217302380Y-103715476D02*
X216302380Y-103715476D01*
X216302380Y-104096428D01*
X216350000Y-104191666D01*
X216397619Y-104239285D01*
X216492857Y-104286904D01*
X216635714Y-104286904D01*
X216730952Y-104239285D01*
X216778571Y-104191666D01*
X216826190Y-104096428D01*
X216826190Y-103715476D01*
G04 #@! TO.C,R3*
X135402380Y-182979761D02*
X135402380Y-182408333D01*
X135402380Y-182694047D02*
X134402380Y-182694047D01*
X134545238Y-182598809D01*
X134640476Y-182503571D01*
X134688095Y-182408333D01*
X134402380Y-183598809D02*
X134402380Y-183694047D01*
X134450000Y-183789285D01*
X134497619Y-183836904D01*
X134592857Y-183884523D01*
X134783333Y-183932142D01*
X135021428Y-183932142D01*
X135211904Y-183884523D01*
X135307142Y-183836904D01*
X135354761Y-183789285D01*
X135402380Y-183694047D01*
X135402380Y-183598809D01*
X135354761Y-183503571D01*
X135307142Y-183455952D01*
X135211904Y-183408333D01*
X135021428Y-183360714D01*
X134783333Y-183360714D01*
X134592857Y-183408333D01*
X134497619Y-183455952D01*
X134450000Y-183503571D01*
X134402380Y-183598809D01*
X135402380Y-184360714D02*
X134402380Y-184360714D01*
X135021428Y-184455952D02*
X135402380Y-184741666D01*
X134735714Y-184741666D02*
X135116666Y-184360714D01*
G04 #@! TO.C,R4*
X172427380Y-175331523D02*
X172427380Y-174760095D01*
X172427380Y-175045809D02*
X171427380Y-175045809D01*
X171570238Y-174950571D01*
X171665476Y-174855333D01*
X171713095Y-174760095D01*
X171427380Y-175950571D02*
X171427380Y-176045809D01*
X171475000Y-176141047D01*
X171522619Y-176188666D01*
X171617857Y-176236285D01*
X171808333Y-176283904D01*
X172046428Y-176283904D01*
X172236904Y-176236285D01*
X172332142Y-176188666D01*
X172379761Y-176141047D01*
X172427380Y-176045809D01*
X172427380Y-175950571D01*
X172379761Y-175855333D01*
X172332142Y-175807714D01*
X172236904Y-175760095D01*
X172046428Y-175712476D01*
X171808333Y-175712476D01*
X171617857Y-175760095D01*
X171522619Y-175807714D01*
X171475000Y-175855333D01*
X171427380Y-175950571D01*
X172427380Y-176712476D02*
X171427380Y-176712476D01*
X172427380Y-177283904D02*
X171855952Y-176855333D01*
X171427380Y-177283904D02*
X171998809Y-176712476D01*
G04 #@! TO.C,R5*
X316753571Y-142902380D02*
X317325000Y-142902380D01*
X317039285Y-142902380D02*
X317039285Y-141902380D01*
X317134523Y-142045238D01*
X317229761Y-142140476D01*
X317325000Y-142188095D01*
X316325000Y-142807142D02*
X316277380Y-142854761D01*
X316325000Y-142902380D01*
X316372619Y-142854761D01*
X316325000Y-142807142D01*
X316325000Y-142902380D01*
X315372619Y-141902380D02*
X315848809Y-141902380D01*
X315896428Y-142378571D01*
X315848809Y-142330952D01*
X315753571Y-142283333D01*
X315515476Y-142283333D01*
X315420238Y-142330952D01*
X315372619Y-142378571D01*
X315325000Y-142473809D01*
X315325000Y-142711904D01*
X315372619Y-142807142D01*
X315420238Y-142854761D01*
X315515476Y-142902380D01*
X315753571Y-142902380D01*
X315848809Y-142854761D01*
X315896428Y-142807142D01*
X314896428Y-142902380D02*
X314896428Y-141902380D01*
X314325000Y-142902380D02*
X314753571Y-142330952D01*
X314325000Y-141902380D02*
X314896428Y-142473809D01*
G04 #@! TO.C,R6*
X314136904Y-105035714D02*
X314136904Y-105702380D01*
X314375000Y-104654761D02*
X314613095Y-105369047D01*
X313994047Y-105369047D01*
X313708333Y-104702380D02*
X313041666Y-104702380D01*
X313470238Y-105702380D01*
X312470238Y-104702380D02*
X312375000Y-104702380D01*
X312279761Y-104750000D01*
X312232142Y-104797619D01*
X312184523Y-104892857D01*
X312136904Y-105083333D01*
X312136904Y-105321428D01*
X312184523Y-105511904D01*
X312232142Y-105607142D01*
X312279761Y-105654761D01*
X312375000Y-105702380D01*
X312470238Y-105702380D01*
X312565476Y-105654761D01*
X312613095Y-105607142D01*
X312660714Y-105511904D01*
X312708333Y-105321428D01*
X312708333Y-105083333D01*
X312660714Y-104892857D01*
X312613095Y-104797619D01*
X312565476Y-104750000D01*
X312470238Y-104702380D01*
G04 #@! TO.C,R7*
X314086904Y-108245714D02*
X314086904Y-108912380D01*
X314325000Y-107864761D02*
X314563095Y-108579047D01*
X313944047Y-108579047D01*
X313658333Y-107912380D02*
X312991666Y-107912380D01*
X313420238Y-108912380D01*
X312420238Y-107912380D02*
X312325000Y-107912380D01*
X312229761Y-107960000D01*
X312182142Y-108007619D01*
X312134523Y-108102857D01*
X312086904Y-108293333D01*
X312086904Y-108531428D01*
X312134523Y-108721904D01*
X312182142Y-108817142D01*
X312229761Y-108864761D01*
X312325000Y-108912380D01*
X312420238Y-108912380D01*
X312515476Y-108864761D01*
X312563095Y-108817142D01*
X312610714Y-108721904D01*
X312658333Y-108531428D01*
X312658333Y-108293333D01*
X312610714Y-108102857D01*
X312563095Y-108007619D01*
X312515476Y-107960000D01*
X312420238Y-107912380D01*
G04 #@! TO.C,R8*
X314086904Y-111435714D02*
X314086904Y-112102380D01*
X314325000Y-111054761D02*
X314563095Y-111769047D01*
X313944047Y-111769047D01*
X313658333Y-111102380D02*
X312991666Y-111102380D01*
X313420238Y-112102380D01*
X312420238Y-111102380D02*
X312325000Y-111102380D01*
X312229761Y-111150000D01*
X312182142Y-111197619D01*
X312134523Y-111292857D01*
X312086904Y-111483333D01*
X312086904Y-111721428D01*
X312134523Y-111911904D01*
X312182142Y-112007142D01*
X312229761Y-112054761D01*
X312325000Y-112102380D01*
X312420238Y-112102380D01*
X312515476Y-112054761D01*
X312563095Y-112007142D01*
X312610714Y-111911904D01*
X312658333Y-111721428D01*
X312658333Y-111483333D01*
X312610714Y-111292857D01*
X312563095Y-111197619D01*
X312515476Y-111150000D01*
X312420238Y-111102380D01*
G04 #@! TO.C,R9*
X42710714Y-112063095D02*
X43377380Y-112063095D01*
X42329761Y-111825000D02*
X43044047Y-111586904D01*
X43044047Y-112205952D01*
X42377380Y-112491666D02*
X42377380Y-113158333D01*
X43377380Y-112729761D01*
X42377380Y-113729761D02*
X42377380Y-113825000D01*
X42425000Y-113920238D01*
X42472619Y-113967857D01*
X42567857Y-114015476D01*
X42758333Y-114063095D01*
X42996428Y-114063095D01*
X43186904Y-114015476D01*
X43282142Y-113967857D01*
X43329761Y-113920238D01*
X43377380Y-113825000D01*
X43377380Y-113729761D01*
X43329761Y-113634523D01*
X43282142Y-113586904D01*
X43186904Y-113539285D01*
X42996428Y-113491666D01*
X42758333Y-113491666D01*
X42567857Y-113539285D01*
X42472619Y-113586904D01*
X42425000Y-113634523D01*
X42377380Y-113729761D01*
G04 #@! TO.C,R10*
X47473214Y-131113095D02*
X48139880Y-131113095D01*
X47092261Y-130875000D02*
X47806547Y-130636904D01*
X47806547Y-131255952D01*
X47139880Y-131541666D02*
X47139880Y-132208333D01*
X48139880Y-131779761D01*
X47139880Y-132779761D02*
X47139880Y-132875000D01*
X47187500Y-132970238D01*
X47235119Y-133017857D01*
X47330357Y-133065476D01*
X47520833Y-133113095D01*
X47758928Y-133113095D01*
X47949404Y-133065476D01*
X48044642Y-133017857D01*
X48092261Y-132970238D01*
X48139880Y-132875000D01*
X48139880Y-132779761D01*
X48092261Y-132684523D01*
X48044642Y-132636904D01*
X47949404Y-132589285D01*
X47758928Y-132541666D01*
X47520833Y-132541666D01*
X47330357Y-132589285D01*
X47235119Y-132636904D01*
X47187500Y-132684523D01*
X47139880Y-132779761D01*
G04 #@! TO.C,R11*
X49854464Y-150163095D02*
X50521130Y-150163095D01*
X49473511Y-149925000D02*
X50187797Y-149686904D01*
X50187797Y-150305952D01*
X49521130Y-150591666D02*
X49521130Y-151258333D01*
X50521130Y-150829761D01*
X49521130Y-151829761D02*
X49521130Y-151925000D01*
X49568750Y-152020238D01*
X49616369Y-152067857D01*
X49711607Y-152115476D01*
X49902083Y-152163095D01*
X50140178Y-152163095D01*
X50330654Y-152115476D01*
X50425892Y-152067857D01*
X50473511Y-152020238D01*
X50521130Y-151925000D01*
X50521130Y-151829761D01*
X50473511Y-151734523D01*
X50425892Y-151686904D01*
X50330654Y-151639285D01*
X50140178Y-151591666D01*
X49902083Y-151591666D01*
X49711607Y-151639285D01*
X49616369Y-151686904D01*
X49568750Y-151734523D01*
X49521130Y-151829761D01*
G04 #@! TO.C,R12*
X54616964Y-169263095D02*
X55283630Y-169263095D01*
X54236011Y-169025000D02*
X54950297Y-168786904D01*
X54950297Y-169405952D01*
X54283630Y-169691666D02*
X54283630Y-170358333D01*
X55283630Y-169929761D01*
X54283630Y-170929761D02*
X54283630Y-171025000D01*
X54331250Y-171120238D01*
X54378869Y-171167857D01*
X54474107Y-171215476D01*
X54664583Y-171263095D01*
X54902678Y-171263095D01*
X55093154Y-171215476D01*
X55188392Y-171167857D01*
X55236011Y-171120238D01*
X55283630Y-171025000D01*
X55283630Y-170929761D01*
X55236011Y-170834523D01*
X55188392Y-170786904D01*
X55093154Y-170739285D01*
X54902678Y-170691666D01*
X54664583Y-170691666D01*
X54474107Y-170739285D01*
X54378869Y-170786904D01*
X54331250Y-170834523D01*
X54283630Y-170929761D01*
G04 #@! TO.C,R14*
X61760714Y-112138095D02*
X62427380Y-112138095D01*
X61379761Y-111900000D02*
X62094047Y-111661904D01*
X62094047Y-112280952D01*
X61427380Y-112566666D02*
X61427380Y-113233333D01*
X62427380Y-112804761D01*
X61427380Y-113804761D02*
X61427380Y-113900000D01*
X61475000Y-113995238D01*
X61522619Y-114042857D01*
X61617857Y-114090476D01*
X61808333Y-114138095D01*
X62046428Y-114138095D01*
X62236904Y-114090476D01*
X62332142Y-114042857D01*
X62379761Y-113995238D01*
X62427380Y-113900000D01*
X62427380Y-113804761D01*
X62379761Y-113709523D01*
X62332142Y-113661904D01*
X62236904Y-113614285D01*
X62046428Y-113566666D01*
X61808333Y-113566666D01*
X61617857Y-113614285D01*
X61522619Y-113661904D01*
X61475000Y-113709523D01*
X61427380Y-113804761D01*
G04 #@! TO.C,R15*
X71285714Y-131163095D02*
X71952380Y-131163095D01*
X70904761Y-130925000D02*
X71619047Y-130686904D01*
X71619047Y-131305952D01*
X70952380Y-131591666D02*
X70952380Y-132258333D01*
X71952380Y-131829761D01*
X70952380Y-132829761D02*
X70952380Y-132925000D01*
X71000000Y-133020238D01*
X71047619Y-133067857D01*
X71142857Y-133115476D01*
X71333333Y-133163095D01*
X71571428Y-133163095D01*
X71761904Y-133115476D01*
X71857142Y-133067857D01*
X71904761Y-133020238D01*
X71952380Y-132925000D01*
X71952380Y-132829761D01*
X71904761Y-132734523D01*
X71857142Y-132686904D01*
X71761904Y-132639285D01*
X71571428Y-132591666D01*
X71333333Y-132591666D01*
X71142857Y-132639285D01*
X71047619Y-132686904D01*
X71000000Y-132734523D01*
X70952380Y-132829761D01*
G04 #@! TO.C,R16*
X76048214Y-150238095D02*
X76714880Y-150238095D01*
X75667261Y-150000000D02*
X76381547Y-149761904D01*
X76381547Y-150380952D01*
X75714880Y-150666666D02*
X75714880Y-151333333D01*
X76714880Y-150904761D01*
X75714880Y-151904761D02*
X75714880Y-152000000D01*
X75762500Y-152095238D01*
X75810119Y-152142857D01*
X75905357Y-152190476D01*
X76095833Y-152238095D01*
X76333928Y-152238095D01*
X76524404Y-152190476D01*
X76619642Y-152142857D01*
X76667261Y-152095238D01*
X76714880Y-152000000D01*
X76714880Y-151904761D01*
X76667261Y-151809523D01*
X76619642Y-151761904D01*
X76524404Y-151714285D01*
X76333928Y-151666666D01*
X76095833Y-151666666D01*
X75905357Y-151714285D01*
X75810119Y-151761904D01*
X75762500Y-151809523D01*
X75714880Y-151904761D01*
G04 #@! TO.C,R17*
X66523214Y-169213095D02*
X67189880Y-169213095D01*
X66142261Y-168975000D02*
X66856547Y-168736904D01*
X66856547Y-169355952D01*
X66189880Y-169641666D02*
X66189880Y-170308333D01*
X67189880Y-169879761D01*
X66189880Y-170879761D02*
X66189880Y-170975000D01*
X66237500Y-171070238D01*
X66285119Y-171117857D01*
X66380357Y-171165476D01*
X66570833Y-171213095D01*
X66808928Y-171213095D01*
X66999404Y-171165476D01*
X67094642Y-171117857D01*
X67142261Y-171070238D01*
X67189880Y-170975000D01*
X67189880Y-170879761D01*
X67142261Y-170784523D01*
X67094642Y-170736904D01*
X66999404Y-170689285D01*
X66808928Y-170641666D01*
X66570833Y-170641666D01*
X66380357Y-170689285D01*
X66285119Y-170736904D01*
X66237500Y-170784523D01*
X66189880Y-170879761D01*
G04 #@! TO.C,R18*
X57791964Y-188363095D02*
X58458630Y-188363095D01*
X57411011Y-188125000D02*
X58125297Y-187886904D01*
X58125297Y-188505952D01*
X57458630Y-188791666D02*
X57458630Y-189458333D01*
X58458630Y-189029761D01*
X57458630Y-190029761D02*
X57458630Y-190125000D01*
X57506250Y-190220238D01*
X57553869Y-190267857D01*
X57649107Y-190315476D01*
X57839583Y-190363095D01*
X58077678Y-190363095D01*
X58268154Y-190315476D01*
X58363392Y-190267857D01*
X58411011Y-190220238D01*
X58458630Y-190125000D01*
X58458630Y-190029761D01*
X58411011Y-189934523D01*
X58363392Y-189886904D01*
X58268154Y-189839285D01*
X58077678Y-189791666D01*
X57839583Y-189791666D01*
X57649107Y-189839285D01*
X57553869Y-189886904D01*
X57506250Y-189934523D01*
X57458630Y-190029761D01*
G04 #@! TO.C,R19*
X80810714Y-112163095D02*
X81477380Y-112163095D01*
X80429761Y-111925000D02*
X81144047Y-111686904D01*
X81144047Y-112305952D01*
X80477380Y-112591666D02*
X80477380Y-113258333D01*
X81477380Y-112829761D01*
X80477380Y-113829761D02*
X80477380Y-113925000D01*
X80525000Y-114020238D01*
X80572619Y-114067857D01*
X80667857Y-114115476D01*
X80858333Y-114163095D01*
X81096428Y-114163095D01*
X81286904Y-114115476D01*
X81382142Y-114067857D01*
X81429761Y-114020238D01*
X81477380Y-113925000D01*
X81477380Y-113829761D01*
X81429761Y-113734523D01*
X81382142Y-113686904D01*
X81286904Y-113639285D01*
X81096428Y-113591666D01*
X80858333Y-113591666D01*
X80667857Y-113639285D01*
X80572619Y-113686904D01*
X80525000Y-113734523D01*
X80477380Y-113829761D01*
G04 #@! TO.C,R20*
X90335714Y-131163095D02*
X91002380Y-131163095D01*
X89954761Y-130925000D02*
X90669047Y-130686904D01*
X90669047Y-131305952D01*
X90002380Y-131591666D02*
X90002380Y-132258333D01*
X91002380Y-131829761D01*
X90002380Y-132829761D02*
X90002380Y-132925000D01*
X90050000Y-133020238D01*
X90097619Y-133067857D01*
X90192857Y-133115476D01*
X90383333Y-133163095D01*
X90621428Y-133163095D01*
X90811904Y-133115476D01*
X90907142Y-133067857D01*
X90954761Y-133020238D01*
X91002380Y-132925000D01*
X91002380Y-132829761D01*
X90954761Y-132734523D01*
X90907142Y-132686904D01*
X90811904Y-132639285D01*
X90621428Y-132591666D01*
X90383333Y-132591666D01*
X90192857Y-132639285D01*
X90097619Y-132686904D01*
X90050000Y-132734523D01*
X90002380Y-132829761D01*
G04 #@! TO.C,R21*
X95098214Y-150263095D02*
X95764880Y-150263095D01*
X94717261Y-150025000D02*
X95431547Y-149786904D01*
X95431547Y-150405952D01*
X94764880Y-150691666D02*
X94764880Y-151358333D01*
X95764880Y-150929761D01*
X94764880Y-151929761D02*
X94764880Y-152025000D01*
X94812500Y-152120238D01*
X94860119Y-152167857D01*
X94955357Y-152215476D01*
X95145833Y-152263095D01*
X95383928Y-152263095D01*
X95574404Y-152215476D01*
X95669642Y-152167857D01*
X95717261Y-152120238D01*
X95764880Y-152025000D01*
X95764880Y-151929761D01*
X95717261Y-151834523D01*
X95669642Y-151786904D01*
X95574404Y-151739285D01*
X95383928Y-151691666D01*
X95145833Y-151691666D01*
X94955357Y-151739285D01*
X94860119Y-151786904D01*
X94812500Y-151834523D01*
X94764880Y-151929761D01*
G04 #@! TO.C,R22*
X85573214Y-169213095D02*
X86239880Y-169213095D01*
X85192261Y-168975000D02*
X85906547Y-168736904D01*
X85906547Y-169355952D01*
X85239880Y-169641666D02*
X85239880Y-170308333D01*
X86239880Y-169879761D01*
X85239880Y-170879761D02*
X85239880Y-170975000D01*
X85287500Y-171070238D01*
X85335119Y-171117857D01*
X85430357Y-171165476D01*
X85620833Y-171213095D01*
X85858928Y-171213095D01*
X86049404Y-171165476D01*
X86144642Y-171117857D01*
X86192261Y-171070238D01*
X86239880Y-170975000D01*
X86239880Y-170879761D01*
X86192261Y-170784523D01*
X86144642Y-170736904D01*
X86049404Y-170689285D01*
X85858928Y-170641666D01*
X85620833Y-170641666D01*
X85430357Y-170689285D01*
X85335119Y-170736904D01*
X85287500Y-170784523D01*
X85239880Y-170879761D01*
G04 #@! TO.C,R23*
X80016964Y-188338095D02*
X80683630Y-188338095D01*
X79636011Y-188100000D02*
X80350297Y-187861904D01*
X80350297Y-188480952D01*
X79683630Y-188766666D02*
X79683630Y-189433333D01*
X80683630Y-189004761D01*
X79683630Y-190004761D02*
X79683630Y-190100000D01*
X79731250Y-190195238D01*
X79778869Y-190242857D01*
X79874107Y-190290476D01*
X80064583Y-190338095D01*
X80302678Y-190338095D01*
X80493154Y-190290476D01*
X80588392Y-190242857D01*
X80636011Y-190195238D01*
X80683630Y-190100000D01*
X80683630Y-190004761D01*
X80636011Y-189909523D01*
X80588392Y-189861904D01*
X80493154Y-189814285D01*
X80302678Y-189766666D01*
X80064583Y-189766666D01*
X79874107Y-189814285D01*
X79778869Y-189861904D01*
X79731250Y-189909523D01*
X79683630Y-190004761D01*
G04 #@! TO.C,R24*
X99860714Y-111950595D02*
X100527380Y-111950595D01*
X99479761Y-111712500D02*
X100194047Y-111474404D01*
X100194047Y-112093452D01*
X99527380Y-112379166D02*
X99527380Y-113045833D01*
X100527380Y-112617261D01*
X99527380Y-113617261D02*
X99527380Y-113712500D01*
X99575000Y-113807738D01*
X99622619Y-113855357D01*
X99717857Y-113902976D01*
X99908333Y-113950595D01*
X100146428Y-113950595D01*
X100336904Y-113902976D01*
X100432142Y-113855357D01*
X100479761Y-113807738D01*
X100527380Y-113712500D01*
X100527380Y-113617261D01*
X100479761Y-113522023D01*
X100432142Y-113474404D01*
X100336904Y-113426785D01*
X100146428Y-113379166D01*
X99908333Y-113379166D01*
X99717857Y-113426785D01*
X99622619Y-113474404D01*
X99575000Y-113522023D01*
X99527380Y-113617261D01*
G04 #@! TO.C,R25*
X109385714Y-131000595D02*
X110052380Y-131000595D01*
X109004761Y-130762500D02*
X109719047Y-130524404D01*
X109719047Y-131143452D01*
X109052380Y-131429166D02*
X109052380Y-132095833D01*
X110052380Y-131667261D01*
X109052380Y-132667261D02*
X109052380Y-132762500D01*
X109100000Y-132857738D01*
X109147619Y-132905357D01*
X109242857Y-132952976D01*
X109433333Y-133000595D01*
X109671428Y-133000595D01*
X109861904Y-132952976D01*
X109957142Y-132905357D01*
X110004761Y-132857738D01*
X110052380Y-132762500D01*
X110052380Y-132667261D01*
X110004761Y-132572023D01*
X109957142Y-132524404D01*
X109861904Y-132476785D01*
X109671428Y-132429166D01*
X109433333Y-132429166D01*
X109242857Y-132476785D01*
X109147619Y-132524404D01*
X109100000Y-132572023D01*
X109052380Y-132667261D01*
G04 #@! TO.C,R26*
X114148214Y-150163095D02*
X114814880Y-150163095D01*
X113767261Y-149925000D02*
X114481547Y-149686904D01*
X114481547Y-150305952D01*
X113814880Y-150591666D02*
X113814880Y-151258333D01*
X114814880Y-150829761D01*
X113814880Y-151829761D02*
X113814880Y-151925000D01*
X113862500Y-152020238D01*
X113910119Y-152067857D01*
X114005357Y-152115476D01*
X114195833Y-152163095D01*
X114433928Y-152163095D01*
X114624404Y-152115476D01*
X114719642Y-152067857D01*
X114767261Y-152020238D01*
X114814880Y-151925000D01*
X114814880Y-151829761D01*
X114767261Y-151734523D01*
X114719642Y-151686904D01*
X114624404Y-151639285D01*
X114433928Y-151591666D01*
X114195833Y-151591666D01*
X114005357Y-151639285D01*
X113910119Y-151686904D01*
X113862500Y-151734523D01*
X113814880Y-151829761D01*
G04 #@! TO.C,R27*
X104623214Y-169253095D02*
X105289880Y-169253095D01*
X104242261Y-169015000D02*
X104956547Y-168776904D01*
X104956547Y-169395952D01*
X104289880Y-169681666D02*
X104289880Y-170348333D01*
X105289880Y-169919761D01*
X104289880Y-170919761D02*
X104289880Y-171015000D01*
X104337500Y-171110238D01*
X104385119Y-171157857D01*
X104480357Y-171205476D01*
X104670833Y-171253095D01*
X104908928Y-171253095D01*
X105099404Y-171205476D01*
X105194642Y-171157857D01*
X105242261Y-171110238D01*
X105289880Y-171015000D01*
X105289880Y-170919761D01*
X105242261Y-170824523D01*
X105194642Y-170776904D01*
X105099404Y-170729285D01*
X104908928Y-170681666D01*
X104670833Y-170681666D01*
X104480357Y-170729285D01*
X104385119Y-170776904D01*
X104337500Y-170824523D01*
X104289880Y-170919761D01*
G04 #@! TO.C,R29*
X118910714Y-112113095D02*
X119577380Y-112113095D01*
X118529761Y-111875000D02*
X119244047Y-111636904D01*
X119244047Y-112255952D01*
X118577380Y-112541666D02*
X118577380Y-113208333D01*
X119577380Y-112779761D01*
X118577380Y-113779761D02*
X118577380Y-113875000D01*
X118625000Y-113970238D01*
X118672619Y-114017857D01*
X118767857Y-114065476D01*
X118958333Y-114113095D01*
X119196428Y-114113095D01*
X119386904Y-114065476D01*
X119482142Y-114017857D01*
X119529761Y-113970238D01*
X119577380Y-113875000D01*
X119577380Y-113779761D01*
X119529761Y-113684523D01*
X119482142Y-113636904D01*
X119386904Y-113589285D01*
X119196428Y-113541666D01*
X118958333Y-113541666D01*
X118767857Y-113589285D01*
X118672619Y-113636904D01*
X118625000Y-113684523D01*
X118577380Y-113779761D01*
G04 #@! TO.C,R30*
X128435714Y-131000595D02*
X129102380Y-131000595D01*
X128054761Y-130762500D02*
X128769047Y-130524404D01*
X128769047Y-131143452D01*
X128102380Y-131429166D02*
X128102380Y-132095833D01*
X129102380Y-131667261D01*
X128102380Y-132667261D02*
X128102380Y-132762500D01*
X128150000Y-132857738D01*
X128197619Y-132905357D01*
X128292857Y-132952976D01*
X128483333Y-133000595D01*
X128721428Y-133000595D01*
X128911904Y-132952976D01*
X129007142Y-132905357D01*
X129054761Y-132857738D01*
X129102380Y-132762500D01*
X129102380Y-132667261D01*
X129054761Y-132572023D01*
X129007142Y-132524404D01*
X128911904Y-132476785D01*
X128721428Y-132429166D01*
X128483333Y-132429166D01*
X128292857Y-132476785D01*
X128197619Y-132524404D01*
X128150000Y-132572023D01*
X128102380Y-132667261D01*
G04 #@! TO.C,R31*
X133198214Y-150050595D02*
X133864880Y-150050595D01*
X132817261Y-149812500D02*
X133531547Y-149574404D01*
X133531547Y-150193452D01*
X132864880Y-150479166D02*
X132864880Y-151145833D01*
X133864880Y-150717261D01*
X132864880Y-151717261D02*
X132864880Y-151812500D01*
X132912500Y-151907738D01*
X132960119Y-151955357D01*
X133055357Y-152002976D01*
X133245833Y-152050595D01*
X133483928Y-152050595D01*
X133674404Y-152002976D01*
X133769642Y-151955357D01*
X133817261Y-151907738D01*
X133864880Y-151812500D01*
X133864880Y-151717261D01*
X133817261Y-151622023D01*
X133769642Y-151574404D01*
X133674404Y-151526785D01*
X133483928Y-151479166D01*
X133245833Y-151479166D01*
X133055357Y-151526785D01*
X132960119Y-151574404D01*
X132912500Y-151622023D01*
X132864880Y-151717261D01*
G04 #@! TO.C,R32*
X123673214Y-169363095D02*
X124339880Y-169363095D01*
X123292261Y-169125000D02*
X124006547Y-168886904D01*
X124006547Y-169505952D01*
X123339880Y-169791666D02*
X123339880Y-170458333D01*
X124339880Y-170029761D01*
X123339880Y-171029761D02*
X123339880Y-171125000D01*
X123387500Y-171220238D01*
X123435119Y-171267857D01*
X123530357Y-171315476D01*
X123720833Y-171363095D01*
X123958928Y-171363095D01*
X124149404Y-171315476D01*
X124244642Y-171267857D01*
X124292261Y-171220238D01*
X124339880Y-171125000D01*
X124339880Y-171029761D01*
X124292261Y-170934523D01*
X124244642Y-170886904D01*
X124149404Y-170839285D01*
X123958928Y-170791666D01*
X123720833Y-170791666D01*
X123530357Y-170839285D01*
X123435119Y-170886904D01*
X123387500Y-170934523D01*
X123339880Y-171029761D01*
G04 #@! TO.C,R33*
X137960714Y-112163095D02*
X138627380Y-112163095D01*
X137579761Y-111925000D02*
X138294047Y-111686904D01*
X138294047Y-112305952D01*
X137627380Y-112591666D02*
X137627380Y-113258333D01*
X138627380Y-112829761D01*
X137627380Y-113829761D02*
X137627380Y-113925000D01*
X137675000Y-114020238D01*
X137722619Y-114067857D01*
X137817857Y-114115476D01*
X138008333Y-114163095D01*
X138246428Y-114163095D01*
X138436904Y-114115476D01*
X138532142Y-114067857D01*
X138579761Y-114020238D01*
X138627380Y-113925000D01*
X138627380Y-113829761D01*
X138579761Y-113734523D01*
X138532142Y-113686904D01*
X138436904Y-113639285D01*
X138246428Y-113591666D01*
X138008333Y-113591666D01*
X137817857Y-113639285D01*
X137722619Y-113686904D01*
X137675000Y-113734523D01*
X137627380Y-113829761D01*
G04 #@! TO.C,R34*
X147485714Y-131188095D02*
X148152380Y-131188095D01*
X147104761Y-130950000D02*
X147819047Y-130711904D01*
X147819047Y-131330952D01*
X147152380Y-131616666D02*
X147152380Y-132283333D01*
X148152380Y-131854761D01*
X147152380Y-132854761D02*
X147152380Y-132950000D01*
X147200000Y-133045238D01*
X147247619Y-133092857D01*
X147342857Y-133140476D01*
X147533333Y-133188095D01*
X147771428Y-133188095D01*
X147961904Y-133140476D01*
X148057142Y-133092857D01*
X148104761Y-133045238D01*
X148152380Y-132950000D01*
X148152380Y-132854761D01*
X148104761Y-132759523D01*
X148057142Y-132711904D01*
X147961904Y-132664285D01*
X147771428Y-132616666D01*
X147533333Y-132616666D01*
X147342857Y-132664285D01*
X147247619Y-132711904D01*
X147200000Y-132759523D01*
X147152380Y-132854761D01*
G04 #@! TO.C,R35*
X152248214Y-150050595D02*
X152914880Y-150050595D01*
X151867261Y-149812500D02*
X152581547Y-149574404D01*
X152581547Y-150193452D01*
X151914880Y-150479166D02*
X151914880Y-151145833D01*
X152914880Y-150717261D01*
X151914880Y-151717261D02*
X151914880Y-151812500D01*
X151962500Y-151907738D01*
X152010119Y-151955357D01*
X152105357Y-152002976D01*
X152295833Y-152050595D01*
X152533928Y-152050595D01*
X152724404Y-152002976D01*
X152819642Y-151955357D01*
X152867261Y-151907738D01*
X152914880Y-151812500D01*
X152914880Y-151717261D01*
X152867261Y-151622023D01*
X152819642Y-151574404D01*
X152724404Y-151526785D01*
X152533928Y-151479166D01*
X152295833Y-151479166D01*
X152105357Y-151526785D01*
X152010119Y-151574404D01*
X151962500Y-151622023D01*
X151914880Y-151717261D01*
G04 #@! TO.C,R36*
X142723214Y-169213095D02*
X143389880Y-169213095D01*
X142342261Y-168975000D02*
X143056547Y-168736904D01*
X143056547Y-169355952D01*
X142389880Y-169641666D02*
X142389880Y-170308333D01*
X143389880Y-169879761D01*
X142389880Y-170879761D02*
X142389880Y-170975000D01*
X142437500Y-171070238D01*
X142485119Y-171117857D01*
X142580357Y-171165476D01*
X142770833Y-171213095D01*
X143008928Y-171213095D01*
X143199404Y-171165476D01*
X143294642Y-171117857D01*
X143342261Y-171070238D01*
X143389880Y-170975000D01*
X143389880Y-170879761D01*
X143342261Y-170784523D01*
X143294642Y-170736904D01*
X143199404Y-170689285D01*
X143008928Y-170641666D01*
X142770833Y-170641666D01*
X142580357Y-170689285D01*
X142485119Y-170736904D01*
X142437500Y-170784523D01*
X142389880Y-170879761D01*
G04 #@! TO.C,R37*
X157010714Y-112163095D02*
X157677380Y-112163095D01*
X156629761Y-111925000D02*
X157344047Y-111686904D01*
X157344047Y-112305952D01*
X156677380Y-112591666D02*
X156677380Y-113258333D01*
X157677380Y-112829761D01*
X156677380Y-113829761D02*
X156677380Y-113925000D01*
X156725000Y-114020238D01*
X156772619Y-114067857D01*
X156867857Y-114115476D01*
X157058333Y-114163095D01*
X157296428Y-114163095D01*
X157486904Y-114115476D01*
X157582142Y-114067857D01*
X157629761Y-114020238D01*
X157677380Y-113925000D01*
X157677380Y-113829761D01*
X157629761Y-113734523D01*
X157582142Y-113686904D01*
X157486904Y-113639285D01*
X157296428Y-113591666D01*
X157058333Y-113591666D01*
X156867857Y-113639285D01*
X156772619Y-113686904D01*
X156725000Y-113734523D01*
X156677380Y-113829761D01*
G04 #@! TO.C,R38*
X166535714Y-131213095D02*
X167202380Y-131213095D01*
X166154761Y-130975000D02*
X166869047Y-130736904D01*
X166869047Y-131355952D01*
X166202380Y-131641666D02*
X166202380Y-132308333D01*
X167202380Y-131879761D01*
X166202380Y-132879761D02*
X166202380Y-132975000D01*
X166250000Y-133070238D01*
X166297619Y-133117857D01*
X166392857Y-133165476D01*
X166583333Y-133213095D01*
X166821428Y-133213095D01*
X167011904Y-133165476D01*
X167107142Y-133117857D01*
X167154761Y-133070238D01*
X167202380Y-132975000D01*
X167202380Y-132879761D01*
X167154761Y-132784523D01*
X167107142Y-132736904D01*
X167011904Y-132689285D01*
X166821428Y-132641666D01*
X166583333Y-132641666D01*
X166392857Y-132689285D01*
X166297619Y-132736904D01*
X166250000Y-132784523D01*
X166202380Y-132879761D01*
G04 #@! TO.C,R39*
X171298214Y-150238095D02*
X171964880Y-150238095D01*
X170917261Y-150000000D02*
X171631547Y-149761904D01*
X171631547Y-150380952D01*
X170964880Y-150666666D02*
X170964880Y-151333333D01*
X171964880Y-150904761D01*
X170964880Y-151904761D02*
X170964880Y-152000000D01*
X171012500Y-152095238D01*
X171060119Y-152142857D01*
X171155357Y-152190476D01*
X171345833Y-152238095D01*
X171583928Y-152238095D01*
X171774404Y-152190476D01*
X171869642Y-152142857D01*
X171917261Y-152095238D01*
X171964880Y-152000000D01*
X171964880Y-151904761D01*
X171917261Y-151809523D01*
X171869642Y-151761904D01*
X171774404Y-151714285D01*
X171583928Y-151666666D01*
X171345833Y-151666666D01*
X171155357Y-151714285D01*
X171060119Y-151761904D01*
X171012500Y-151809523D01*
X170964880Y-151904761D01*
G04 #@! TO.C,R40*
X161773214Y-169313095D02*
X162439880Y-169313095D01*
X161392261Y-169075000D02*
X162106547Y-168836904D01*
X162106547Y-169455952D01*
X161439880Y-169741666D02*
X161439880Y-170408333D01*
X162439880Y-169979761D01*
X161439880Y-170979761D02*
X161439880Y-171075000D01*
X161487500Y-171170238D01*
X161535119Y-171217857D01*
X161630357Y-171265476D01*
X161820833Y-171313095D01*
X162058928Y-171313095D01*
X162249404Y-171265476D01*
X162344642Y-171217857D01*
X162392261Y-171170238D01*
X162439880Y-171075000D01*
X162439880Y-170979761D01*
X162392261Y-170884523D01*
X162344642Y-170836904D01*
X162249404Y-170789285D01*
X162058928Y-170741666D01*
X161820833Y-170741666D01*
X161630357Y-170789285D01*
X161535119Y-170836904D01*
X161487500Y-170884523D01*
X161439880Y-170979761D01*
G04 #@! TO.C,R41*
X166535714Y-188363095D02*
X167202380Y-188363095D01*
X166154761Y-188125000D02*
X166869047Y-187886904D01*
X166869047Y-188505952D01*
X166202380Y-188791666D02*
X166202380Y-189458333D01*
X167202380Y-189029761D01*
X166202380Y-190029761D02*
X166202380Y-190125000D01*
X166250000Y-190220238D01*
X166297619Y-190267857D01*
X166392857Y-190315476D01*
X166583333Y-190363095D01*
X166821428Y-190363095D01*
X167011904Y-190315476D01*
X167107142Y-190267857D01*
X167154761Y-190220238D01*
X167202380Y-190125000D01*
X167202380Y-190029761D01*
X167154761Y-189934523D01*
X167107142Y-189886904D01*
X167011904Y-189839285D01*
X166821428Y-189791666D01*
X166583333Y-189791666D01*
X166392857Y-189839285D01*
X166297619Y-189886904D01*
X166250000Y-189934523D01*
X166202380Y-190029761D01*
G04 #@! TO.C,R42*
X176060714Y-112113095D02*
X176727380Y-112113095D01*
X175679761Y-111875000D02*
X176394047Y-111636904D01*
X176394047Y-112255952D01*
X175727380Y-112541666D02*
X175727380Y-113208333D01*
X176727380Y-112779761D01*
X175727380Y-113779761D02*
X175727380Y-113875000D01*
X175775000Y-113970238D01*
X175822619Y-114017857D01*
X175917857Y-114065476D01*
X176108333Y-114113095D01*
X176346428Y-114113095D01*
X176536904Y-114065476D01*
X176632142Y-114017857D01*
X176679761Y-113970238D01*
X176727380Y-113875000D01*
X176727380Y-113779761D01*
X176679761Y-113684523D01*
X176632142Y-113636904D01*
X176536904Y-113589285D01*
X176346428Y-113541666D01*
X176108333Y-113541666D01*
X175917857Y-113589285D01*
X175822619Y-113636904D01*
X175775000Y-113684523D01*
X175727380Y-113779761D01*
G04 #@! TO.C,R43*
X185585714Y-131163095D02*
X186252380Y-131163095D01*
X185204761Y-130925000D02*
X185919047Y-130686904D01*
X185919047Y-131305952D01*
X185252380Y-131591666D02*
X185252380Y-132258333D01*
X186252380Y-131829761D01*
X185252380Y-132829761D02*
X185252380Y-132925000D01*
X185300000Y-133020238D01*
X185347619Y-133067857D01*
X185442857Y-133115476D01*
X185633333Y-133163095D01*
X185871428Y-133163095D01*
X186061904Y-133115476D01*
X186157142Y-133067857D01*
X186204761Y-133020238D01*
X186252380Y-132925000D01*
X186252380Y-132829761D01*
X186204761Y-132734523D01*
X186157142Y-132686904D01*
X186061904Y-132639285D01*
X185871428Y-132591666D01*
X185633333Y-132591666D01*
X185442857Y-132639285D01*
X185347619Y-132686904D01*
X185300000Y-132734523D01*
X185252380Y-132829761D01*
G04 #@! TO.C,R44*
X190348214Y-150050595D02*
X191014880Y-150050595D01*
X189967261Y-149812500D02*
X190681547Y-149574404D01*
X190681547Y-150193452D01*
X190014880Y-150479166D02*
X190014880Y-151145833D01*
X191014880Y-150717261D01*
X190014880Y-151717261D02*
X190014880Y-151812500D01*
X190062500Y-151907738D01*
X190110119Y-151955357D01*
X190205357Y-152002976D01*
X190395833Y-152050595D01*
X190633928Y-152050595D01*
X190824404Y-152002976D01*
X190919642Y-151955357D01*
X190967261Y-151907738D01*
X191014880Y-151812500D01*
X191014880Y-151717261D01*
X190967261Y-151622023D01*
X190919642Y-151574404D01*
X190824404Y-151526785D01*
X190633928Y-151479166D01*
X190395833Y-151479166D01*
X190205357Y-151526785D01*
X190110119Y-151574404D01*
X190062500Y-151622023D01*
X190014880Y-151717261D01*
G04 #@! TO.C,R45*
X180823214Y-169338095D02*
X181489880Y-169338095D01*
X180442261Y-169100000D02*
X181156547Y-168861904D01*
X181156547Y-169480952D01*
X180489880Y-169766666D02*
X180489880Y-170433333D01*
X181489880Y-170004761D01*
X180489880Y-171004761D02*
X180489880Y-171100000D01*
X180537500Y-171195238D01*
X180585119Y-171242857D01*
X180680357Y-171290476D01*
X180870833Y-171338095D01*
X181108928Y-171338095D01*
X181299404Y-171290476D01*
X181394642Y-171242857D01*
X181442261Y-171195238D01*
X181489880Y-171100000D01*
X181489880Y-171004761D01*
X181442261Y-170909523D01*
X181394642Y-170861904D01*
X181299404Y-170814285D01*
X181108928Y-170766666D01*
X180870833Y-170766666D01*
X180680357Y-170814285D01*
X180585119Y-170861904D01*
X180537500Y-170909523D01*
X180489880Y-171004761D01*
G04 #@! TO.C,R46*
X195110714Y-112163095D02*
X195777380Y-112163095D01*
X194729761Y-111925000D02*
X195444047Y-111686904D01*
X195444047Y-112305952D01*
X194777380Y-112591666D02*
X194777380Y-113258333D01*
X195777380Y-112829761D01*
X194777380Y-113829761D02*
X194777380Y-113925000D01*
X194825000Y-114020238D01*
X194872619Y-114067857D01*
X194967857Y-114115476D01*
X195158333Y-114163095D01*
X195396428Y-114163095D01*
X195586904Y-114115476D01*
X195682142Y-114067857D01*
X195729761Y-114020238D01*
X195777380Y-113925000D01*
X195777380Y-113829761D01*
X195729761Y-113734523D01*
X195682142Y-113686904D01*
X195586904Y-113639285D01*
X195396428Y-113591666D01*
X195158333Y-113591666D01*
X194967857Y-113639285D01*
X194872619Y-113686904D01*
X194825000Y-113734523D01*
X194777380Y-113829761D01*
G04 #@! TO.C,R47*
X204635714Y-131163095D02*
X205302380Y-131163095D01*
X204254761Y-130925000D02*
X204969047Y-130686904D01*
X204969047Y-131305952D01*
X204302380Y-131591666D02*
X204302380Y-132258333D01*
X205302380Y-131829761D01*
X204302380Y-132829761D02*
X204302380Y-132925000D01*
X204350000Y-133020238D01*
X204397619Y-133067857D01*
X204492857Y-133115476D01*
X204683333Y-133163095D01*
X204921428Y-133163095D01*
X205111904Y-133115476D01*
X205207142Y-133067857D01*
X205254761Y-133020238D01*
X205302380Y-132925000D01*
X205302380Y-132829761D01*
X205254761Y-132734523D01*
X205207142Y-132686904D01*
X205111904Y-132639285D01*
X204921428Y-132591666D01*
X204683333Y-132591666D01*
X204492857Y-132639285D01*
X204397619Y-132686904D01*
X204350000Y-132734523D01*
X204302380Y-132829761D01*
G04 #@! TO.C,R48*
X209398214Y-150263095D02*
X210064880Y-150263095D01*
X209017261Y-150025000D02*
X209731547Y-149786904D01*
X209731547Y-150405952D01*
X209064880Y-150691666D02*
X209064880Y-151358333D01*
X210064880Y-150929761D01*
X209064880Y-151929761D02*
X209064880Y-152025000D01*
X209112500Y-152120238D01*
X209160119Y-152167857D01*
X209255357Y-152215476D01*
X209445833Y-152263095D01*
X209683928Y-152263095D01*
X209874404Y-152215476D01*
X209969642Y-152167857D01*
X210017261Y-152120238D01*
X210064880Y-152025000D01*
X210064880Y-151929761D01*
X210017261Y-151834523D01*
X209969642Y-151786904D01*
X209874404Y-151739285D01*
X209683928Y-151691666D01*
X209445833Y-151691666D01*
X209255357Y-151739285D01*
X209160119Y-151786904D01*
X209112500Y-151834523D01*
X209064880Y-151929761D01*
G04 #@! TO.C,R49*
X199873214Y-169263095D02*
X200539880Y-169263095D01*
X199492261Y-169025000D02*
X200206547Y-168786904D01*
X200206547Y-169405952D01*
X199539880Y-169691666D02*
X199539880Y-170358333D01*
X200539880Y-169929761D01*
X199539880Y-170929761D02*
X199539880Y-171025000D01*
X199587500Y-171120238D01*
X199635119Y-171167857D01*
X199730357Y-171215476D01*
X199920833Y-171263095D01*
X200158928Y-171263095D01*
X200349404Y-171215476D01*
X200444642Y-171167857D01*
X200492261Y-171120238D01*
X200539880Y-171025000D01*
X200539880Y-170929761D01*
X200492261Y-170834523D01*
X200444642Y-170786904D01*
X200349404Y-170739285D01*
X200158928Y-170691666D01*
X199920833Y-170691666D01*
X199730357Y-170739285D01*
X199635119Y-170786904D01*
X199587500Y-170834523D01*
X199539880Y-170929761D01*
G04 #@! TO.C,R50*
X214160714Y-112163095D02*
X214827380Y-112163095D01*
X213779761Y-111925000D02*
X214494047Y-111686904D01*
X214494047Y-112305952D01*
X213827380Y-112591666D02*
X213827380Y-113258333D01*
X214827380Y-112829761D01*
X213827380Y-113829761D02*
X213827380Y-113925000D01*
X213875000Y-114020238D01*
X213922619Y-114067857D01*
X214017857Y-114115476D01*
X214208333Y-114163095D01*
X214446428Y-114163095D01*
X214636904Y-114115476D01*
X214732142Y-114067857D01*
X214779761Y-114020238D01*
X214827380Y-113925000D01*
X214827380Y-113829761D01*
X214779761Y-113734523D01*
X214732142Y-113686904D01*
X214636904Y-113639285D01*
X214446428Y-113591666D01*
X214208333Y-113591666D01*
X214017857Y-113639285D01*
X213922619Y-113686904D01*
X213875000Y-113734523D01*
X213827380Y-113829761D01*
G04 #@! TO.C,R51*
X223685714Y-131163095D02*
X224352380Y-131163095D01*
X223304761Y-130925000D02*
X224019047Y-130686904D01*
X224019047Y-131305952D01*
X223352380Y-131591666D02*
X223352380Y-132258333D01*
X224352380Y-131829761D01*
X223352380Y-132829761D02*
X223352380Y-132925000D01*
X223400000Y-133020238D01*
X223447619Y-133067857D01*
X223542857Y-133115476D01*
X223733333Y-133163095D01*
X223971428Y-133163095D01*
X224161904Y-133115476D01*
X224257142Y-133067857D01*
X224304761Y-133020238D01*
X224352380Y-132925000D01*
X224352380Y-132829761D01*
X224304761Y-132734523D01*
X224257142Y-132686904D01*
X224161904Y-132639285D01*
X223971428Y-132591666D01*
X223733333Y-132591666D01*
X223542857Y-132639285D01*
X223447619Y-132686904D01*
X223400000Y-132734523D01*
X223352380Y-132829761D01*
G04 #@! TO.C,R52*
X228257714Y-150238095D02*
X228924380Y-150238095D01*
X227876761Y-150000000D02*
X228591047Y-149761904D01*
X228591047Y-150380952D01*
X227924380Y-150666666D02*
X227924380Y-151333333D01*
X228924380Y-150904761D01*
X227924380Y-151904761D02*
X227924380Y-152000000D01*
X227972000Y-152095238D01*
X228019619Y-152142857D01*
X228114857Y-152190476D01*
X228305333Y-152238095D01*
X228543428Y-152238095D01*
X228733904Y-152190476D01*
X228829142Y-152142857D01*
X228876761Y-152095238D01*
X228924380Y-152000000D01*
X228924380Y-151904761D01*
X228876761Y-151809523D01*
X228829142Y-151761904D01*
X228733904Y-151714285D01*
X228543428Y-151666666D01*
X228305333Y-151666666D01*
X228114857Y-151714285D01*
X228019619Y-151761904D01*
X227972000Y-151809523D01*
X227924380Y-151904761D01*
G04 #@! TO.C,R53*
X218923214Y-169363095D02*
X219589880Y-169363095D01*
X218542261Y-169125000D02*
X219256547Y-168886904D01*
X219256547Y-169505952D01*
X218589880Y-169791666D02*
X218589880Y-170458333D01*
X219589880Y-170029761D01*
X218589880Y-171029761D02*
X218589880Y-171125000D01*
X218637500Y-171220238D01*
X218685119Y-171267857D01*
X218780357Y-171315476D01*
X218970833Y-171363095D01*
X219208928Y-171363095D01*
X219399404Y-171315476D01*
X219494642Y-171267857D01*
X219542261Y-171220238D01*
X219589880Y-171125000D01*
X219589880Y-171029761D01*
X219542261Y-170934523D01*
X219494642Y-170886904D01*
X219399404Y-170839285D01*
X219208928Y-170791666D01*
X218970833Y-170791666D01*
X218780357Y-170839285D01*
X218685119Y-170886904D01*
X218637500Y-170934523D01*
X218589880Y-171029761D01*
G04 #@! TO.C,R54*
X226066964Y-188263095D02*
X226733630Y-188263095D01*
X225686011Y-188025000D02*
X226400297Y-187786904D01*
X226400297Y-188405952D01*
X225733630Y-188691666D02*
X225733630Y-189358333D01*
X226733630Y-188929761D01*
X225733630Y-189929761D02*
X225733630Y-190025000D01*
X225781250Y-190120238D01*
X225828869Y-190167857D01*
X225924107Y-190215476D01*
X226114583Y-190263095D01*
X226352678Y-190263095D01*
X226543154Y-190215476D01*
X226638392Y-190167857D01*
X226686011Y-190120238D01*
X226733630Y-190025000D01*
X226733630Y-189929761D01*
X226686011Y-189834523D01*
X226638392Y-189786904D01*
X226543154Y-189739285D01*
X226352678Y-189691666D01*
X226114583Y-189691666D01*
X225924107Y-189739285D01*
X225828869Y-189786904D01*
X225781250Y-189834523D01*
X225733630Y-189929761D01*
G04 #@! TO.C,R55*
X233210714Y-112163095D02*
X233877380Y-112163095D01*
X232829761Y-111925000D02*
X233544047Y-111686904D01*
X233544047Y-112305952D01*
X232877380Y-112591666D02*
X232877380Y-113258333D01*
X233877380Y-112829761D01*
X232877380Y-113829761D02*
X232877380Y-113925000D01*
X232925000Y-114020238D01*
X232972619Y-114067857D01*
X233067857Y-114115476D01*
X233258333Y-114163095D01*
X233496428Y-114163095D01*
X233686904Y-114115476D01*
X233782142Y-114067857D01*
X233829761Y-114020238D01*
X233877380Y-113925000D01*
X233877380Y-113829761D01*
X233829761Y-113734523D01*
X233782142Y-113686904D01*
X233686904Y-113639285D01*
X233496428Y-113591666D01*
X233258333Y-113591666D01*
X233067857Y-113639285D01*
X232972619Y-113686904D01*
X232925000Y-113734523D01*
X232877380Y-113829761D01*
G04 #@! TO.C,R56*
X242735714Y-131163095D02*
X243402380Y-131163095D01*
X242354761Y-130925000D02*
X243069047Y-130686904D01*
X243069047Y-131305952D01*
X242402380Y-131591666D02*
X242402380Y-132258333D01*
X243402380Y-131829761D01*
X242402380Y-132829761D02*
X242402380Y-132925000D01*
X242450000Y-133020238D01*
X242497619Y-133067857D01*
X242592857Y-133115476D01*
X242783333Y-133163095D01*
X243021428Y-133163095D01*
X243211904Y-133115476D01*
X243307142Y-133067857D01*
X243354761Y-133020238D01*
X243402380Y-132925000D01*
X243402380Y-132829761D01*
X243354761Y-132734523D01*
X243307142Y-132686904D01*
X243211904Y-132639285D01*
X243021428Y-132591666D01*
X242783333Y-132591666D01*
X242592857Y-132639285D01*
X242497619Y-132686904D01*
X242450000Y-132734523D01*
X242402380Y-132829761D01*
G04 #@! TO.C,R57*
X247498214Y-150238095D02*
X248164880Y-150238095D01*
X247117261Y-150000000D02*
X247831547Y-149761904D01*
X247831547Y-150380952D01*
X247164880Y-150666666D02*
X247164880Y-151333333D01*
X248164880Y-150904761D01*
X247164880Y-151904761D02*
X247164880Y-152000000D01*
X247212500Y-152095238D01*
X247260119Y-152142857D01*
X247355357Y-152190476D01*
X247545833Y-152238095D01*
X247783928Y-152238095D01*
X247974404Y-152190476D01*
X248069642Y-152142857D01*
X248117261Y-152095238D01*
X248164880Y-152000000D01*
X248164880Y-151904761D01*
X248117261Y-151809523D01*
X248069642Y-151761904D01*
X247974404Y-151714285D01*
X247783928Y-151666666D01*
X247545833Y-151666666D01*
X247355357Y-151714285D01*
X247260119Y-151761904D01*
X247212500Y-151809523D01*
X247164880Y-151904761D01*
G04 #@! TO.C,R58*
X237973214Y-169100595D02*
X238639880Y-169100595D01*
X237592261Y-168862500D02*
X238306547Y-168624404D01*
X238306547Y-169243452D01*
X237639880Y-169529166D02*
X237639880Y-170195833D01*
X238639880Y-169767261D01*
X237639880Y-170767261D02*
X237639880Y-170862500D01*
X237687500Y-170957738D01*
X237735119Y-171005357D01*
X237830357Y-171052976D01*
X238020833Y-171100595D01*
X238258928Y-171100595D01*
X238449404Y-171052976D01*
X238544642Y-171005357D01*
X238592261Y-170957738D01*
X238639880Y-170862500D01*
X238639880Y-170767261D01*
X238592261Y-170672023D01*
X238544642Y-170624404D01*
X238449404Y-170576785D01*
X238258928Y-170529166D01*
X238020833Y-170529166D01*
X237830357Y-170576785D01*
X237735119Y-170624404D01*
X237687500Y-170672023D01*
X237639880Y-170767261D01*
G04 #@! TO.C,R59*
X247498214Y-188313095D02*
X248164880Y-188313095D01*
X247117261Y-188075000D02*
X247831547Y-187836904D01*
X247831547Y-188455952D01*
X247164880Y-188741666D02*
X247164880Y-189408333D01*
X248164880Y-188979761D01*
X247164880Y-189979761D02*
X247164880Y-190075000D01*
X247212500Y-190170238D01*
X247260119Y-190217857D01*
X247355357Y-190265476D01*
X247545833Y-190313095D01*
X247783928Y-190313095D01*
X247974404Y-190265476D01*
X248069642Y-190217857D01*
X248117261Y-190170238D01*
X248164880Y-190075000D01*
X248164880Y-189979761D01*
X248117261Y-189884523D01*
X248069642Y-189836904D01*
X247974404Y-189789285D01*
X247783928Y-189741666D01*
X247545833Y-189741666D01*
X247355357Y-189789285D01*
X247260119Y-189836904D01*
X247212500Y-189884523D01*
X247164880Y-189979761D01*
G04 #@! TO.C,R60*
X252260714Y-112088095D02*
X252927380Y-112088095D01*
X251879761Y-111850000D02*
X252594047Y-111611904D01*
X252594047Y-112230952D01*
X251927380Y-112516666D02*
X251927380Y-113183333D01*
X252927380Y-112754761D01*
X251927380Y-113754761D02*
X251927380Y-113850000D01*
X251975000Y-113945238D01*
X252022619Y-113992857D01*
X252117857Y-114040476D01*
X252308333Y-114088095D01*
X252546428Y-114088095D01*
X252736904Y-114040476D01*
X252832142Y-113992857D01*
X252879761Y-113945238D01*
X252927380Y-113850000D01*
X252927380Y-113754761D01*
X252879761Y-113659523D01*
X252832142Y-113611904D01*
X252736904Y-113564285D01*
X252546428Y-113516666D01*
X252308333Y-113516666D01*
X252117857Y-113564285D01*
X252022619Y-113611904D01*
X251975000Y-113659523D01*
X251927380Y-113754761D01*
G04 #@! TO.C,R61*
X261785714Y-131000595D02*
X262452380Y-131000595D01*
X261404761Y-130762500D02*
X262119047Y-130524404D01*
X262119047Y-131143452D01*
X261452380Y-131429166D02*
X261452380Y-132095833D01*
X262452380Y-131667261D01*
X261452380Y-132667261D02*
X261452380Y-132762500D01*
X261500000Y-132857738D01*
X261547619Y-132905357D01*
X261642857Y-132952976D01*
X261833333Y-133000595D01*
X262071428Y-133000595D01*
X262261904Y-132952976D01*
X262357142Y-132905357D01*
X262404761Y-132857738D01*
X262452380Y-132762500D01*
X262452380Y-132667261D01*
X262404761Y-132572023D01*
X262357142Y-132524404D01*
X262261904Y-132476785D01*
X262071428Y-132429166D01*
X261833333Y-132429166D01*
X261642857Y-132476785D01*
X261547619Y-132524404D01*
X261500000Y-132572023D01*
X261452380Y-132667261D01*
G04 #@! TO.C,R62*
X266548214Y-150188095D02*
X267214880Y-150188095D01*
X266167261Y-149950000D02*
X266881547Y-149711904D01*
X266881547Y-150330952D01*
X266214880Y-150616666D02*
X266214880Y-151283333D01*
X267214880Y-150854761D01*
X266214880Y-151854761D02*
X266214880Y-151950000D01*
X266262500Y-152045238D01*
X266310119Y-152092857D01*
X266405357Y-152140476D01*
X266595833Y-152188095D01*
X266833928Y-152188095D01*
X267024404Y-152140476D01*
X267119642Y-152092857D01*
X267167261Y-152045238D01*
X267214880Y-151950000D01*
X267214880Y-151854761D01*
X267167261Y-151759523D01*
X267119642Y-151711904D01*
X267024404Y-151664285D01*
X266833928Y-151616666D01*
X266595833Y-151616666D01*
X266405357Y-151664285D01*
X266310119Y-151711904D01*
X266262500Y-151759523D01*
X266214880Y-151854761D01*
G04 #@! TO.C,R63*
X257023214Y-169163095D02*
X257689880Y-169163095D01*
X256642261Y-168925000D02*
X257356547Y-168686904D01*
X257356547Y-169305952D01*
X256689880Y-169591666D02*
X256689880Y-170258333D01*
X257689880Y-169829761D01*
X256689880Y-170829761D02*
X256689880Y-170925000D01*
X256737500Y-171020238D01*
X256785119Y-171067857D01*
X256880357Y-171115476D01*
X257070833Y-171163095D01*
X257308928Y-171163095D01*
X257499404Y-171115476D01*
X257594642Y-171067857D01*
X257642261Y-171020238D01*
X257689880Y-170925000D01*
X257689880Y-170829761D01*
X257642261Y-170734523D01*
X257594642Y-170686904D01*
X257499404Y-170639285D01*
X257308928Y-170591666D01*
X257070833Y-170591666D01*
X256880357Y-170639285D01*
X256785119Y-170686904D01*
X256737500Y-170734523D01*
X256689880Y-170829761D01*
G04 #@! TO.C,R64*
X268929464Y-188338095D02*
X269596130Y-188338095D01*
X268548511Y-188100000D02*
X269262797Y-187861904D01*
X269262797Y-188480952D01*
X268596130Y-188766666D02*
X268596130Y-189433333D01*
X269596130Y-189004761D01*
X268596130Y-190004761D02*
X268596130Y-190100000D01*
X268643750Y-190195238D01*
X268691369Y-190242857D01*
X268786607Y-190290476D01*
X268977083Y-190338095D01*
X269215178Y-190338095D01*
X269405654Y-190290476D01*
X269500892Y-190242857D01*
X269548511Y-190195238D01*
X269596130Y-190100000D01*
X269596130Y-190004761D01*
X269548511Y-189909523D01*
X269500892Y-189861904D01*
X269405654Y-189814285D01*
X269215178Y-189766666D01*
X268977083Y-189766666D01*
X268786607Y-189814285D01*
X268691369Y-189861904D01*
X268643750Y-189909523D01*
X268596130Y-190004761D01*
G04 #@! TO.C,R65*
X271310714Y-112113095D02*
X271977380Y-112113095D01*
X270929761Y-111875000D02*
X271644047Y-111636904D01*
X271644047Y-112255952D01*
X270977380Y-112541666D02*
X270977380Y-113208333D01*
X271977380Y-112779761D01*
X270977380Y-113779761D02*
X270977380Y-113875000D01*
X271025000Y-113970238D01*
X271072619Y-114017857D01*
X271167857Y-114065476D01*
X271358333Y-114113095D01*
X271596428Y-114113095D01*
X271786904Y-114065476D01*
X271882142Y-114017857D01*
X271929761Y-113970238D01*
X271977380Y-113875000D01*
X271977380Y-113779761D01*
X271929761Y-113684523D01*
X271882142Y-113636904D01*
X271786904Y-113589285D01*
X271596428Y-113541666D01*
X271358333Y-113541666D01*
X271167857Y-113589285D01*
X271072619Y-113636904D01*
X271025000Y-113684523D01*
X270977380Y-113779761D01*
G04 #@! TO.C,R66*
X280835714Y-131163095D02*
X281502380Y-131163095D01*
X280454761Y-130925000D02*
X281169047Y-130686904D01*
X281169047Y-131305952D01*
X280502380Y-131591666D02*
X280502380Y-132258333D01*
X281502380Y-131829761D01*
X280502380Y-132829761D02*
X280502380Y-132925000D01*
X280550000Y-133020238D01*
X280597619Y-133067857D01*
X280692857Y-133115476D01*
X280883333Y-133163095D01*
X281121428Y-133163095D01*
X281311904Y-133115476D01*
X281407142Y-133067857D01*
X281454761Y-133020238D01*
X281502380Y-132925000D01*
X281502380Y-132829761D01*
X281454761Y-132734523D01*
X281407142Y-132686904D01*
X281311904Y-132639285D01*
X281121428Y-132591666D01*
X280883333Y-132591666D01*
X280692857Y-132639285D01*
X280597619Y-132686904D01*
X280550000Y-132734523D01*
X280502380Y-132829761D01*
G04 #@! TO.C,R67*
X286391964Y-151638095D02*
X287058630Y-151638095D01*
X286011011Y-151400000D02*
X286725297Y-151161904D01*
X286725297Y-151780952D01*
X286058630Y-152066666D02*
X286058630Y-152733333D01*
X287058630Y-152304761D01*
X286058630Y-153304761D02*
X286058630Y-153400000D01*
X286106250Y-153495238D01*
X286153869Y-153542857D01*
X286249107Y-153590476D01*
X286439583Y-153638095D01*
X286677678Y-153638095D01*
X286868154Y-153590476D01*
X286963392Y-153542857D01*
X287011011Y-153495238D01*
X287058630Y-153400000D01*
X287058630Y-153304761D01*
X287011011Y-153209523D01*
X286963392Y-153161904D01*
X286868154Y-153114285D01*
X286677678Y-153066666D01*
X286439583Y-153066666D01*
X286249107Y-153114285D01*
X286153869Y-153161904D01*
X286106250Y-153209523D01*
X286058630Y-153304761D01*
G04 #@! TO.C,R68*
X283216964Y-169238095D02*
X283883630Y-169238095D01*
X282836011Y-169000000D02*
X283550297Y-168761904D01*
X283550297Y-169380952D01*
X282883630Y-169666666D02*
X282883630Y-170333333D01*
X283883630Y-169904761D01*
X282883630Y-170904761D02*
X282883630Y-171000000D01*
X282931250Y-171095238D01*
X282978869Y-171142857D01*
X283074107Y-171190476D01*
X283264583Y-171238095D01*
X283502678Y-171238095D01*
X283693154Y-171190476D01*
X283788392Y-171142857D01*
X283836011Y-171095238D01*
X283883630Y-171000000D01*
X283883630Y-170904761D01*
X283836011Y-170809523D01*
X283788392Y-170761904D01*
X283693154Y-170714285D01*
X283502678Y-170666666D01*
X283264583Y-170666666D01*
X283074107Y-170714285D01*
X282978869Y-170761904D01*
X282931250Y-170809523D01*
X282883630Y-170904761D01*
G04 #@! TO.C,R69*
X295123214Y-193063095D02*
X295789880Y-193063095D01*
X294742261Y-192825000D02*
X295456547Y-192586904D01*
X295456547Y-193205952D01*
X294789880Y-193491666D02*
X294789880Y-194158333D01*
X295789880Y-193729761D01*
X294789880Y-194729761D02*
X294789880Y-194825000D01*
X294837500Y-194920238D01*
X294885119Y-194967857D01*
X294980357Y-195015476D01*
X295170833Y-195063095D01*
X295408928Y-195063095D01*
X295599404Y-195015476D01*
X295694642Y-194967857D01*
X295742261Y-194920238D01*
X295789880Y-194825000D01*
X295789880Y-194729761D01*
X295742261Y-194634523D01*
X295694642Y-194586904D01*
X295599404Y-194539285D01*
X295408928Y-194491666D01*
X295170833Y-194491666D01*
X294980357Y-194539285D01*
X294885119Y-194586904D01*
X294837500Y-194634523D01*
X294789880Y-194729761D01*
G04 #@! TO.C,R70*
X299885714Y-112163095D02*
X300552380Y-112163095D01*
X299504761Y-111925000D02*
X300219047Y-111686904D01*
X300219047Y-112305952D01*
X299552380Y-112591666D02*
X299552380Y-113258333D01*
X300552380Y-112829761D01*
X299552380Y-113829761D02*
X299552380Y-113925000D01*
X299600000Y-114020238D01*
X299647619Y-114067857D01*
X299742857Y-114115476D01*
X299933333Y-114163095D01*
X300171428Y-114163095D01*
X300361904Y-114115476D01*
X300457142Y-114067857D01*
X300504761Y-114020238D01*
X300552380Y-113925000D01*
X300552380Y-113829761D01*
X300504761Y-113734523D01*
X300457142Y-113686904D01*
X300361904Y-113639285D01*
X300171428Y-113591666D01*
X299933333Y-113591666D01*
X299742857Y-113639285D01*
X299647619Y-113686904D01*
X299600000Y-113734523D01*
X299552380Y-113829761D01*
G04 #@! TO.C,R71*
X308616964Y-131163095D02*
X309283630Y-131163095D01*
X308236011Y-130925000D02*
X308950297Y-130686904D01*
X308950297Y-131305952D01*
X308283630Y-131591666D02*
X308283630Y-132258333D01*
X309283630Y-131829761D01*
X308283630Y-132829761D02*
X308283630Y-132925000D01*
X308331250Y-133020238D01*
X308378869Y-133067857D01*
X308474107Y-133115476D01*
X308664583Y-133163095D01*
X308902678Y-133163095D01*
X309093154Y-133115476D01*
X309188392Y-133067857D01*
X309236011Y-133020238D01*
X309283630Y-132925000D01*
X309283630Y-132829761D01*
X309236011Y-132734523D01*
X309188392Y-132686904D01*
X309093154Y-132639285D01*
X308902678Y-132591666D01*
X308664583Y-132591666D01*
X308474107Y-132639285D01*
X308378869Y-132686904D01*
X308331250Y-132734523D01*
X308283630Y-132829761D01*
G04 #@! TO.C,R72*
X297504464Y-150263095D02*
X298171130Y-150263095D01*
X297123511Y-150025000D02*
X297837797Y-149786904D01*
X297837797Y-150405952D01*
X297171130Y-150691666D02*
X297171130Y-151358333D01*
X298171130Y-150929761D01*
X297171130Y-151929761D02*
X297171130Y-152025000D01*
X297218750Y-152120238D01*
X297266369Y-152167857D01*
X297361607Y-152215476D01*
X297552083Y-152263095D01*
X297790178Y-152263095D01*
X297980654Y-152215476D01*
X298075892Y-152167857D01*
X298123511Y-152120238D01*
X298171130Y-152025000D01*
X298171130Y-151929761D01*
X298123511Y-151834523D01*
X298075892Y-151786904D01*
X297980654Y-151739285D01*
X297790178Y-151691666D01*
X297552083Y-151691666D01*
X297361607Y-151739285D01*
X297266369Y-151786904D01*
X297218750Y-151834523D01*
X297171130Y-151929761D01*
G04 #@! TO.C,R73*
X314173214Y-173863095D02*
X314839880Y-173863095D01*
X313792261Y-173625000D02*
X314506547Y-173386904D01*
X314506547Y-174005952D01*
X313839880Y-174291666D02*
X313839880Y-174958333D01*
X314839880Y-174529761D01*
X313839880Y-175529761D02*
X313839880Y-175625000D01*
X313887500Y-175720238D01*
X313935119Y-175767857D01*
X314030357Y-175815476D01*
X314220833Y-175863095D01*
X314458928Y-175863095D01*
X314649404Y-175815476D01*
X314744642Y-175767857D01*
X314792261Y-175720238D01*
X314839880Y-175625000D01*
X314839880Y-175529761D01*
X314792261Y-175434523D01*
X314744642Y-175386904D01*
X314649404Y-175339285D01*
X314458928Y-175291666D01*
X314220833Y-175291666D01*
X314030357Y-175339285D01*
X313935119Y-175386904D01*
X313887500Y-175434523D01*
X313839880Y-175529761D01*
G04 #@! TO.C,R74*
X314173214Y-193063095D02*
X314839880Y-193063095D01*
X313792261Y-192825000D02*
X314506547Y-192586904D01*
X314506547Y-193205952D01*
X313839880Y-193491666D02*
X313839880Y-194158333D01*
X314839880Y-193729761D01*
X313839880Y-194729761D02*
X313839880Y-194825000D01*
X313887500Y-194920238D01*
X313935119Y-194967857D01*
X314030357Y-195015476D01*
X314220833Y-195063095D01*
X314458928Y-195063095D01*
X314649404Y-195015476D01*
X314744642Y-194967857D01*
X314792261Y-194920238D01*
X314839880Y-194825000D01*
X314839880Y-194729761D01*
X314792261Y-194634523D01*
X314744642Y-194586904D01*
X314649404Y-194539285D01*
X314458928Y-194491666D01*
X314220833Y-194491666D01*
X314030357Y-194539285D01*
X313935119Y-194586904D01*
X313887500Y-194634523D01*
X313839880Y-194729761D01*
G04 #@! TO.C,R75*
X311535714Y-112138095D02*
X312202380Y-112138095D01*
X311154761Y-111900000D02*
X311869047Y-111661904D01*
X311869047Y-112280952D01*
X311202380Y-112566666D02*
X311202380Y-113233333D01*
X312202380Y-112804761D01*
X311202380Y-113804761D02*
X311202380Y-113900000D01*
X311250000Y-113995238D01*
X311297619Y-114042857D01*
X311392857Y-114090476D01*
X311583333Y-114138095D01*
X311821428Y-114138095D01*
X312011904Y-114090476D01*
X312107142Y-114042857D01*
X312154761Y-113995238D01*
X312202380Y-113900000D01*
X312202380Y-113804761D01*
X312154761Y-113709523D01*
X312107142Y-113661904D01*
X312011904Y-113614285D01*
X311821428Y-113566666D01*
X311583333Y-113566666D01*
X311392857Y-113614285D01*
X311297619Y-113661904D01*
X311250000Y-113709523D01*
X311202380Y-113804761D01*
G04 #@! TO.C,R76*
X337985714Y-112063095D02*
X338652380Y-112063095D01*
X337604761Y-111825000D02*
X338319047Y-111586904D01*
X338319047Y-112205952D01*
X337652380Y-112491666D02*
X337652380Y-113158333D01*
X338652380Y-112729761D01*
X337652380Y-113729761D02*
X337652380Y-113825000D01*
X337700000Y-113920238D01*
X337747619Y-113967857D01*
X337842857Y-114015476D01*
X338033333Y-114063095D01*
X338271428Y-114063095D01*
X338461904Y-114015476D01*
X338557142Y-113967857D01*
X338604761Y-113920238D01*
X338652380Y-113825000D01*
X338652380Y-113729761D01*
X338604761Y-113634523D01*
X338557142Y-113586904D01*
X338461904Y-113539285D01*
X338271428Y-113491666D01*
X338033333Y-113491666D01*
X337842857Y-113539285D01*
X337747619Y-113586904D01*
X337700000Y-113634523D01*
X337652380Y-113729761D01*
G04 #@! TO.C,R77*
X337985714Y-131163095D02*
X338652380Y-131163095D01*
X337604761Y-130925000D02*
X338319047Y-130686904D01*
X338319047Y-131305952D01*
X337652380Y-131591666D02*
X337652380Y-132258333D01*
X338652380Y-131829761D01*
X337652380Y-132829761D02*
X337652380Y-132925000D01*
X337700000Y-133020238D01*
X337747619Y-133067857D01*
X337842857Y-133115476D01*
X338033333Y-133163095D01*
X338271428Y-133163095D01*
X338461904Y-133115476D01*
X338557142Y-133067857D01*
X338604761Y-133020238D01*
X338652380Y-132925000D01*
X338652380Y-132829761D01*
X338604761Y-132734523D01*
X338557142Y-132686904D01*
X338461904Y-132639285D01*
X338271428Y-132591666D01*
X338033333Y-132591666D01*
X337842857Y-132639285D01*
X337747619Y-132686904D01*
X337700000Y-132734523D01*
X337652380Y-132829761D01*
G04 #@! TO.C,R78*
X338835714Y-150263095D02*
X339502380Y-150263095D01*
X338454761Y-150025000D02*
X339169047Y-149786904D01*
X339169047Y-150405952D01*
X338502380Y-150691666D02*
X338502380Y-151358333D01*
X339502380Y-150929761D01*
X338502380Y-151929761D02*
X338502380Y-152025000D01*
X338550000Y-152120238D01*
X338597619Y-152167857D01*
X338692857Y-152215476D01*
X338883333Y-152263095D01*
X339121428Y-152263095D01*
X339311904Y-152215476D01*
X339407142Y-152167857D01*
X339454761Y-152120238D01*
X339502380Y-152025000D01*
X339502380Y-151929761D01*
X339454761Y-151834523D01*
X339407142Y-151786904D01*
X339311904Y-151739285D01*
X339121428Y-151691666D01*
X338883333Y-151691666D01*
X338692857Y-151739285D01*
X338597619Y-151786904D01*
X338550000Y-151834523D01*
X338502380Y-151929761D01*
G04 #@! TO.C,R79*
X337985714Y-169263095D02*
X338652380Y-169263095D01*
X337604761Y-169025000D02*
X338319047Y-168786904D01*
X338319047Y-169405952D01*
X337652380Y-169691666D02*
X337652380Y-170358333D01*
X338652380Y-169929761D01*
X337652380Y-170929761D02*
X337652380Y-171025000D01*
X337700000Y-171120238D01*
X337747619Y-171167857D01*
X337842857Y-171215476D01*
X338033333Y-171263095D01*
X338271428Y-171263095D01*
X338461904Y-171215476D01*
X338557142Y-171167857D01*
X338604761Y-171120238D01*
X338652380Y-171025000D01*
X338652380Y-170929761D01*
X338604761Y-170834523D01*
X338557142Y-170786904D01*
X338461904Y-170739285D01*
X338271428Y-170691666D01*
X338033333Y-170691666D01*
X337842857Y-170739285D01*
X337747619Y-170786904D01*
X337700000Y-170834523D01*
X337652380Y-170929761D01*
G04 #@! TO.C,R80*
X333223214Y-193038095D02*
X333889880Y-193038095D01*
X332842261Y-192800000D02*
X333556547Y-192561904D01*
X333556547Y-193180952D01*
X332889880Y-193466666D02*
X332889880Y-194133333D01*
X333889880Y-193704761D01*
X332889880Y-194704761D02*
X332889880Y-194800000D01*
X332937500Y-194895238D01*
X332985119Y-194942857D01*
X333080357Y-194990476D01*
X333270833Y-195038095D01*
X333508928Y-195038095D01*
X333699404Y-194990476D01*
X333794642Y-194942857D01*
X333842261Y-194895238D01*
X333889880Y-194800000D01*
X333889880Y-194704761D01*
X333842261Y-194609523D01*
X333794642Y-194561904D01*
X333699404Y-194514285D01*
X333508928Y-194466666D01*
X333270833Y-194466666D01*
X333080357Y-194514285D01*
X332985119Y-194561904D01*
X332937500Y-194609523D01*
X332889880Y-194704761D01*
G04 #@! TO.C,R81*
X357035714Y-112063095D02*
X357702380Y-112063095D01*
X356654761Y-111825000D02*
X357369047Y-111586904D01*
X357369047Y-112205952D01*
X356702380Y-112491666D02*
X356702380Y-113158333D01*
X357702380Y-112729761D01*
X356702380Y-113729761D02*
X356702380Y-113825000D01*
X356750000Y-113920238D01*
X356797619Y-113967857D01*
X356892857Y-114015476D01*
X357083333Y-114063095D01*
X357321428Y-114063095D01*
X357511904Y-114015476D01*
X357607142Y-113967857D01*
X357654761Y-113920238D01*
X357702380Y-113825000D01*
X357702380Y-113729761D01*
X357654761Y-113634523D01*
X357607142Y-113586904D01*
X357511904Y-113539285D01*
X357321428Y-113491666D01*
X357083333Y-113491666D01*
X356892857Y-113539285D01*
X356797619Y-113586904D01*
X356750000Y-113634523D01*
X356702380Y-113729761D01*
G04 #@! TO.C,R82*
X357035714Y-131163095D02*
X357702380Y-131163095D01*
X356654761Y-130925000D02*
X357369047Y-130686904D01*
X357369047Y-131305952D01*
X356702380Y-131591666D02*
X356702380Y-132258333D01*
X357702380Y-131829761D01*
X356702380Y-132829761D02*
X356702380Y-132925000D01*
X356750000Y-133020238D01*
X356797619Y-133067857D01*
X356892857Y-133115476D01*
X357083333Y-133163095D01*
X357321428Y-133163095D01*
X357511904Y-133115476D01*
X357607142Y-133067857D01*
X357654761Y-133020238D01*
X357702380Y-132925000D01*
X357702380Y-132829761D01*
X357654761Y-132734523D01*
X357607142Y-132686904D01*
X357511904Y-132639285D01*
X357321428Y-132591666D01*
X357083333Y-132591666D01*
X356892857Y-132639285D01*
X356797619Y-132686904D01*
X356750000Y-132734523D01*
X356702380Y-132829761D01*
G04 #@! TO.C,R83*
X357035714Y-150213095D02*
X357702380Y-150213095D01*
X356654761Y-149975000D02*
X357369047Y-149736904D01*
X357369047Y-150355952D01*
X356702380Y-150641666D02*
X356702380Y-151308333D01*
X357702380Y-150879761D01*
X356702380Y-151879761D02*
X356702380Y-151975000D01*
X356750000Y-152070238D01*
X356797619Y-152117857D01*
X356892857Y-152165476D01*
X357083333Y-152213095D01*
X357321428Y-152213095D01*
X357511904Y-152165476D01*
X357607142Y-152117857D01*
X357654761Y-152070238D01*
X357702380Y-151975000D01*
X357702380Y-151879761D01*
X357654761Y-151784523D01*
X357607142Y-151736904D01*
X357511904Y-151689285D01*
X357321428Y-151641666D01*
X357083333Y-151641666D01*
X356892857Y-151689285D01*
X356797619Y-151736904D01*
X356750000Y-151784523D01*
X356702380Y-151879761D01*
G04 #@! TO.C,R84*
X357035714Y-169263095D02*
X357702380Y-169263095D01*
X356654761Y-169025000D02*
X357369047Y-168786904D01*
X357369047Y-169405952D01*
X356702380Y-169691666D02*
X356702380Y-170358333D01*
X357702380Y-169929761D01*
X356702380Y-170929761D02*
X356702380Y-171025000D01*
X356750000Y-171120238D01*
X356797619Y-171167857D01*
X356892857Y-171215476D01*
X357083333Y-171263095D01*
X357321428Y-171263095D01*
X357511904Y-171215476D01*
X357607142Y-171167857D01*
X357654761Y-171120238D01*
X357702380Y-171025000D01*
X357702380Y-170929761D01*
X357654761Y-170834523D01*
X357607142Y-170786904D01*
X357511904Y-170739285D01*
X357321428Y-170691666D01*
X357083333Y-170691666D01*
X356892857Y-170739285D01*
X356797619Y-170786904D01*
X356750000Y-170834523D01*
X356702380Y-170929761D01*
G04 #@! TO.C,R85*
X357035714Y-188150595D02*
X357702380Y-188150595D01*
X356654761Y-187912500D02*
X357369047Y-187674404D01*
X357369047Y-188293452D01*
X356702380Y-188579166D02*
X356702380Y-189245833D01*
X357702380Y-188817261D01*
X356702380Y-189817261D02*
X356702380Y-189912500D01*
X356750000Y-190007738D01*
X356797619Y-190055357D01*
X356892857Y-190102976D01*
X357083333Y-190150595D01*
X357321428Y-190150595D01*
X357511904Y-190102976D01*
X357607142Y-190055357D01*
X357654761Y-190007738D01*
X357702380Y-189912500D01*
X357702380Y-189817261D01*
X357654761Y-189722023D01*
X357607142Y-189674404D01*
X357511904Y-189626785D01*
X357321428Y-189579166D01*
X357083333Y-189579166D01*
X356892857Y-189626785D01*
X356797619Y-189674404D01*
X356750000Y-189722023D01*
X356702380Y-189817261D01*
G04 #@! TO.C,R86*
X376085714Y-112063095D02*
X376752380Y-112063095D01*
X375704761Y-111825000D02*
X376419047Y-111586904D01*
X376419047Y-112205952D01*
X375752380Y-112491666D02*
X375752380Y-113158333D01*
X376752380Y-112729761D01*
X375752380Y-113729761D02*
X375752380Y-113825000D01*
X375800000Y-113920238D01*
X375847619Y-113967857D01*
X375942857Y-114015476D01*
X376133333Y-114063095D01*
X376371428Y-114063095D01*
X376561904Y-114015476D01*
X376657142Y-113967857D01*
X376704761Y-113920238D01*
X376752380Y-113825000D01*
X376752380Y-113729761D01*
X376704761Y-113634523D01*
X376657142Y-113586904D01*
X376561904Y-113539285D01*
X376371428Y-113491666D01*
X376133333Y-113491666D01*
X375942857Y-113539285D01*
X375847619Y-113586904D01*
X375800000Y-113634523D01*
X375752380Y-113729761D01*
G04 #@! TO.C,R87*
X376085714Y-131000595D02*
X376752380Y-131000595D01*
X375704761Y-130762500D02*
X376419047Y-130524404D01*
X376419047Y-131143452D01*
X375752380Y-131429166D02*
X375752380Y-132095833D01*
X376752380Y-131667261D01*
X375752380Y-132667261D02*
X375752380Y-132762500D01*
X375800000Y-132857738D01*
X375847619Y-132905357D01*
X375942857Y-132952976D01*
X376133333Y-133000595D01*
X376371428Y-133000595D01*
X376561904Y-132952976D01*
X376657142Y-132905357D01*
X376704761Y-132857738D01*
X376752380Y-132762500D01*
X376752380Y-132667261D01*
X376704761Y-132572023D01*
X376657142Y-132524404D01*
X376561904Y-132476785D01*
X376371428Y-132429166D01*
X376133333Y-132429166D01*
X375942857Y-132476785D01*
X375847619Y-132524404D01*
X375800000Y-132572023D01*
X375752380Y-132667261D01*
G04 #@! TO.C,R88*
X376085714Y-150238095D02*
X376752380Y-150238095D01*
X375704761Y-150000000D02*
X376419047Y-149761904D01*
X376419047Y-150380952D01*
X375752380Y-150666666D02*
X375752380Y-151333333D01*
X376752380Y-150904761D01*
X375752380Y-151904761D02*
X375752380Y-152000000D01*
X375800000Y-152095238D01*
X375847619Y-152142857D01*
X375942857Y-152190476D01*
X376133333Y-152238095D01*
X376371428Y-152238095D01*
X376561904Y-152190476D01*
X376657142Y-152142857D01*
X376704761Y-152095238D01*
X376752380Y-152000000D01*
X376752380Y-151904761D01*
X376704761Y-151809523D01*
X376657142Y-151761904D01*
X376561904Y-151714285D01*
X376371428Y-151666666D01*
X376133333Y-151666666D01*
X375942857Y-151714285D01*
X375847619Y-151761904D01*
X375800000Y-151809523D01*
X375752380Y-151904761D01*
G04 #@! TO.C,R89*
X376085714Y-169238095D02*
X376752380Y-169238095D01*
X375704761Y-169000000D02*
X376419047Y-168761904D01*
X376419047Y-169380952D01*
X375752380Y-169666666D02*
X375752380Y-170333333D01*
X376752380Y-169904761D01*
X375752380Y-170904761D02*
X375752380Y-171000000D01*
X375800000Y-171095238D01*
X375847619Y-171142857D01*
X375942857Y-171190476D01*
X376133333Y-171238095D01*
X376371428Y-171238095D01*
X376561904Y-171190476D01*
X376657142Y-171142857D01*
X376704761Y-171095238D01*
X376752380Y-171000000D01*
X376752380Y-170904761D01*
X376704761Y-170809523D01*
X376657142Y-170761904D01*
X376561904Y-170714285D01*
X376371428Y-170666666D01*
X376133333Y-170666666D01*
X375942857Y-170714285D01*
X375847619Y-170761904D01*
X375800000Y-170809523D01*
X375752380Y-170904761D01*
G04 #@! TO.C,R90*
X376085714Y-188263095D02*
X376752380Y-188263095D01*
X375704761Y-188025000D02*
X376419047Y-187786904D01*
X376419047Y-188405952D01*
X375752380Y-188691666D02*
X375752380Y-189358333D01*
X376752380Y-188929761D01*
X375752380Y-189929761D02*
X375752380Y-190025000D01*
X375800000Y-190120238D01*
X375847619Y-190167857D01*
X375942857Y-190215476D01*
X376133333Y-190263095D01*
X376371428Y-190263095D01*
X376561904Y-190215476D01*
X376657142Y-190167857D01*
X376704761Y-190120238D01*
X376752380Y-190025000D01*
X376752380Y-189929761D01*
X376704761Y-189834523D01*
X376657142Y-189786904D01*
X376561904Y-189739285D01*
X376371428Y-189691666D01*
X376133333Y-189691666D01*
X375942857Y-189739285D01*
X375847619Y-189786904D01*
X375800000Y-189834523D01*
X375752380Y-189929761D01*
G04 #@! TO.C,R91*
X395135714Y-188263095D02*
X395802380Y-188263095D01*
X394754761Y-188025000D02*
X395469047Y-187786904D01*
X395469047Y-188405952D01*
X394802380Y-188691666D02*
X394802380Y-189358333D01*
X395802380Y-188929761D01*
X394802380Y-189929761D02*
X394802380Y-190025000D01*
X394850000Y-190120238D01*
X394897619Y-190167857D01*
X394992857Y-190215476D01*
X395183333Y-190263095D01*
X395421428Y-190263095D01*
X395611904Y-190215476D01*
X395707142Y-190167857D01*
X395754761Y-190120238D01*
X395802380Y-190025000D01*
X395802380Y-189929761D01*
X395754761Y-189834523D01*
X395707142Y-189786904D01*
X395611904Y-189739285D01*
X395421428Y-189691666D01*
X395183333Y-189691666D01*
X394992857Y-189739285D01*
X394897619Y-189786904D01*
X394850000Y-189834523D01*
X394802380Y-189929761D01*
G04 #@! TO.C,R92*
X383229464Y-112163095D02*
X383896130Y-112163095D01*
X382848511Y-111925000D02*
X383562797Y-111686904D01*
X383562797Y-112305952D01*
X382896130Y-112591666D02*
X382896130Y-113258333D01*
X383896130Y-112829761D01*
X382896130Y-113829761D02*
X382896130Y-113925000D01*
X382943750Y-114020238D01*
X382991369Y-114067857D01*
X383086607Y-114115476D01*
X383277083Y-114163095D01*
X383515178Y-114163095D01*
X383705654Y-114115476D01*
X383800892Y-114067857D01*
X383848511Y-114020238D01*
X383896130Y-113925000D01*
X383896130Y-113829761D01*
X383848511Y-113734523D01*
X383800892Y-113686904D01*
X383705654Y-113639285D01*
X383515178Y-113591666D01*
X383277083Y-113591666D01*
X383086607Y-113639285D01*
X382991369Y-113686904D01*
X382943750Y-113734523D01*
X382896130Y-113829761D01*
G04 #@! TO.C,R93*
X383229464Y-131000595D02*
X383896130Y-131000595D01*
X382848511Y-130762500D02*
X383562797Y-130524404D01*
X383562797Y-131143452D01*
X382896130Y-131429166D02*
X382896130Y-132095833D01*
X383896130Y-131667261D01*
X382896130Y-132667261D02*
X382896130Y-132762500D01*
X382943750Y-132857738D01*
X382991369Y-132905357D01*
X383086607Y-132952976D01*
X383277083Y-133000595D01*
X383515178Y-133000595D01*
X383705654Y-132952976D01*
X383800892Y-132905357D01*
X383848511Y-132857738D01*
X383896130Y-132762500D01*
X383896130Y-132667261D01*
X383848511Y-132572023D01*
X383800892Y-132524404D01*
X383705654Y-132476785D01*
X383515178Y-132429166D01*
X383277083Y-132429166D01*
X383086607Y-132476785D01*
X382991369Y-132524404D01*
X382943750Y-132572023D01*
X382896130Y-132667261D01*
G04 #@! TO.C,R94*
X395135714Y-150238095D02*
X395802380Y-150238095D01*
X394754761Y-150000000D02*
X395469047Y-149761904D01*
X395469047Y-150380952D01*
X394802380Y-150666666D02*
X394802380Y-151333333D01*
X395802380Y-150904761D01*
X394802380Y-151904761D02*
X394802380Y-152000000D01*
X394850000Y-152095238D01*
X394897619Y-152142857D01*
X394992857Y-152190476D01*
X395183333Y-152238095D01*
X395421428Y-152238095D01*
X395611904Y-152190476D01*
X395707142Y-152142857D01*
X395754761Y-152095238D01*
X395802380Y-152000000D01*
X395802380Y-151904761D01*
X395754761Y-151809523D01*
X395707142Y-151761904D01*
X395611904Y-151714285D01*
X395421428Y-151666666D01*
X395183333Y-151666666D01*
X394992857Y-151714285D01*
X394897619Y-151761904D01*
X394850000Y-151809523D01*
X394802380Y-151904761D01*
G04 #@! TO.C,R95*
X378466964Y-169238095D02*
X379133630Y-169238095D01*
X378086011Y-169000000D02*
X378800297Y-168761904D01*
X378800297Y-169380952D01*
X378133630Y-169666666D02*
X378133630Y-170333333D01*
X379133630Y-169904761D01*
X378133630Y-170904761D02*
X378133630Y-171000000D01*
X378181250Y-171095238D01*
X378228869Y-171142857D01*
X378324107Y-171190476D01*
X378514583Y-171238095D01*
X378752678Y-171238095D01*
X378943154Y-171190476D01*
X379038392Y-171142857D01*
X379086011Y-171095238D01*
X379133630Y-171000000D01*
X379133630Y-170904761D01*
X379086011Y-170809523D01*
X379038392Y-170761904D01*
X378943154Y-170714285D01*
X378752678Y-170666666D01*
X378514583Y-170666666D01*
X378324107Y-170714285D01*
X378228869Y-170761904D01*
X378181250Y-170809523D01*
X378133630Y-170904761D01*
G04 #@! TO.C,U1*
X185961904Y-172502380D02*
X185961904Y-173311904D01*
X185914285Y-173407142D01*
X185866666Y-173454761D01*
X185771428Y-173502380D01*
X185580952Y-173502380D01*
X185485714Y-173454761D01*
X185438095Y-173407142D01*
X185390476Y-173311904D01*
X185390476Y-172502380D01*
X184390476Y-173502380D02*
X184961904Y-173502380D01*
X184676190Y-173502380D02*
X184676190Y-172502380D01*
X184771428Y-172645238D01*
X184866666Y-172740476D01*
X184961904Y-172788095D01*
G04 #@! TO.C,Y1*
X187319047Y-189302380D02*
X187890476Y-189302380D01*
X187604761Y-189302380D02*
X187604761Y-188302380D01*
X187700000Y-188445238D01*
X187795238Y-188540476D01*
X187890476Y-188588095D01*
X186461904Y-188302380D02*
X186652380Y-188302380D01*
X186747619Y-188350000D01*
X186795238Y-188397619D01*
X186890476Y-188540476D01*
X186938095Y-188730952D01*
X186938095Y-189111904D01*
X186890476Y-189207142D01*
X186842857Y-189254761D01*
X186747619Y-189302380D01*
X186557142Y-189302380D01*
X186461904Y-189254761D01*
X186414285Y-189207142D01*
X186366666Y-189111904D01*
X186366666Y-188873809D01*
X186414285Y-188778571D01*
X186461904Y-188730952D01*
X186557142Y-188683333D01*
X186747619Y-188683333D01*
X186842857Y-188730952D01*
X186890476Y-188778571D01*
X186938095Y-188873809D01*
X185938095Y-189302380D02*
X185938095Y-188302380D01*
X185604761Y-189016666D01*
X185271428Y-188302380D01*
X185271428Y-189302380D01*
X184795238Y-189302380D02*
X184795238Y-188302380D01*
X184366666Y-189302380D02*
X184366666Y-188778571D01*
X184414285Y-188683333D01*
X184509523Y-188635714D01*
X184652380Y-188635714D01*
X184747619Y-188683333D01*
X184795238Y-188730952D01*
X183985714Y-188635714D02*
X183461904Y-188635714D01*
X183985714Y-189302380D01*
X183461904Y-189302380D01*
G04 #@! TD*
M02*
