G04 #@! TF.GenerationSoftware,KiCad,Pcbnew,(5.1.8-0-10_14)*
G04 #@! TF.CreationDate,2021-04-06T12:11:46+01:00*
G04 #@! TF.ProjectId,cypher,63797068-6572-42e6-9b69-6361645f7063,rev?*
G04 #@! TF.SameCoordinates,Original*
G04 #@! TF.FileFunction,Soldermask,Bot*
G04 #@! TF.FilePolarity,Negative*
%FSLAX46Y46*%
G04 Gerber Fmt 4.6, Leading zero omitted, Abs format (unit mm)*
G04 Created by KiCad (PCBNEW (5.1.8-0-10_14)) date 2021-04-06 12:11:46*
%MOMM*%
%LPD*%
G01*
G04 APERTURE LIST*
%ADD10R,0.700000X1.000000*%
%ADD11R,0.700000X0.600000*%
%ADD12C,2.250000*%
%ADD13C,3.987800*%
%ADD14C,1.905000*%
%ADD15R,1.905000X1.905000*%
%ADD16C,1.750000*%
%ADD17C,3.048000*%
%ADD18R,1.700000X1.700000*%
%ADD19O,1.700000X1.700000*%
%ADD20C,0.650000*%
%ADD21R,0.300000X1.450000*%
%ADD22R,0.600000X1.450000*%
%ADD23C,0.100000*%
%ADD24R,0.900000X0.800000*%
G04 APERTURE END LIST*
D10*
X215877900Y-114986500D03*
D11*
X215877900Y-113286500D03*
X217877900Y-113286500D03*
X217877900Y-115186500D03*
D12*
X299292750Y-130295000D03*
D13*
X296752750Y-135375000D03*
D12*
X292942750Y-132835000D03*
D14*
X295482750Y-139455000D03*
D15*
X298022750Y-139455000D03*
D16*
X291672750Y-135375000D03*
X301832750Y-135375000D03*
G36*
G01*
X312760611Y-172996284D02*
X313123004Y-172633891D01*
G75*
G02*
X313432364Y-172633891I154680J-154680D01*
G01*
X313741723Y-172943250D01*
G75*
G02*
X313741723Y-173252610I-154680J-154680D01*
G01*
X313379330Y-173615003D01*
G75*
G02*
X313069970Y-173615003I-154680J154680D01*
G01*
X312760611Y-173305644D01*
G75*
G02*
X312760611Y-172996284I154680J154680D01*
G01*
G37*
G36*
G01*
X311646917Y-171882590D02*
X312009310Y-171520197D01*
G75*
G02*
X312318670Y-171520197I154680J-154680D01*
G01*
X312628029Y-171829556D01*
G75*
G02*
X312628029Y-172138916I-154680J-154680D01*
G01*
X312265636Y-172501309D01*
G75*
G02*
X311956276Y-172501309I-154680J154680D01*
G01*
X311646917Y-172191950D01*
G75*
G02*
X311646917Y-171882590I154680J154680D01*
G01*
G37*
G36*
G01*
X321033716Y-167579291D02*
X321396109Y-167941684D01*
G75*
G02*
X321396109Y-168251044I-154680J-154680D01*
G01*
X321086750Y-168560403D01*
G75*
G02*
X320777390Y-168560403I-154680J154680D01*
G01*
X320414997Y-168198010D01*
G75*
G02*
X320414997Y-167888650I154680J154680D01*
G01*
X320724356Y-167579291D01*
G75*
G02*
X321033716Y-167579291I154680J-154680D01*
G01*
G37*
G36*
G01*
X322147410Y-166465597D02*
X322509803Y-166827990D01*
G75*
G02*
X322509803Y-167137350I-154680J-154680D01*
G01*
X322200444Y-167446709D01*
G75*
G02*
X321891084Y-167446709I-154680J154680D01*
G01*
X321528691Y-167084316D01*
G75*
G02*
X321528691Y-166774956I154680J154680D01*
G01*
X321838050Y-166465597D01*
G75*
G02*
X322147410Y-166465597I154680J-154680D01*
G01*
G37*
G36*
G01*
X307159084Y-161223709D02*
X306796691Y-160861316D01*
G75*
G02*
X306796691Y-160551956I154680J154680D01*
G01*
X307106050Y-160242597D01*
G75*
G02*
X307415410Y-160242597I154680J-154680D01*
G01*
X307777803Y-160604990D01*
G75*
G02*
X307777803Y-160914350I-154680J-154680D01*
G01*
X307468444Y-161223709D01*
G75*
G02*
X307159084Y-161223709I-154680J154680D01*
G01*
G37*
G36*
G01*
X306045390Y-162337403D02*
X305682997Y-161975010D01*
G75*
G02*
X305682997Y-161665650I154680J154680D01*
G01*
X305992356Y-161356291D01*
G75*
G02*
X306301716Y-161356291I154680J-154680D01*
G01*
X306664109Y-161718684D01*
G75*
G02*
X306664109Y-162028044I-154680J-154680D01*
G01*
X306354750Y-162337403D01*
G75*
G02*
X306045390Y-162337403I-154680J154680D01*
G01*
G37*
G36*
G01*
X321571956Y-156592163D02*
X321209563Y-156954556D01*
G75*
G02*
X320900203Y-156954556I-154680J154680D01*
G01*
X320590844Y-156645197D01*
G75*
G02*
X320590844Y-156335837I154680J154680D01*
G01*
X320953237Y-155973444D01*
G75*
G02*
X321262597Y-155973444I154680J-154680D01*
G01*
X321571956Y-156282803D01*
G75*
G02*
X321571956Y-156592163I-154680J-154680D01*
G01*
G37*
G36*
G01*
X322685650Y-157705857D02*
X322323257Y-158068250D01*
G75*
G02*
X322013897Y-158068250I-154680J154680D01*
G01*
X321704538Y-157758891D01*
G75*
G02*
X321704538Y-157449531I154680J154680D01*
G01*
X322066931Y-157087138D01*
G75*
G02*
X322376291Y-157087138I154680J-154680D01*
G01*
X322685650Y-157396497D01*
G75*
G02*
X322685650Y-157705857I-154680J-154680D01*
G01*
G37*
G36*
G01*
X319496691Y-155241684D02*
X319859084Y-154879291D01*
G75*
G02*
X320168444Y-154879291I154680J-154680D01*
G01*
X320477803Y-155188650D01*
G75*
G02*
X320477803Y-155498010I-154680J-154680D01*
G01*
X320115410Y-155860403D01*
G75*
G02*
X319806050Y-155860403I-154680J154680D01*
G01*
X319496691Y-155551044D01*
G75*
G02*
X319496691Y-155241684I154680J154680D01*
G01*
G37*
G36*
G01*
X318382997Y-154127990D02*
X318745390Y-153765597D01*
G75*
G02*
X319054750Y-153765597I154680J-154680D01*
G01*
X319364109Y-154074956D01*
G75*
G02*
X319364109Y-154384316I-154680J-154680D01*
G01*
X319001716Y-154746709D01*
G75*
G02*
X318692356Y-154746709I-154680J154680D01*
G01*
X318382997Y-154437350D01*
G75*
G02*
X318382997Y-154127990I154680J154680D01*
G01*
G37*
G36*
G01*
X315364150Y-153258000D02*
X315876650Y-153258000D01*
G75*
G02*
X316095400Y-153476750I0J-218750D01*
G01*
X316095400Y-153914250D01*
G75*
G02*
X315876650Y-154133000I-218750J0D01*
G01*
X315364150Y-154133000D01*
G75*
G02*
X315145400Y-153914250I0J218750D01*
G01*
X315145400Y-153476750D01*
G75*
G02*
X315364150Y-153258000I218750J0D01*
G01*
G37*
G36*
G01*
X315364150Y-151683000D02*
X315876650Y-151683000D01*
G75*
G02*
X316095400Y-151901750I0J-218750D01*
G01*
X316095400Y-152339250D01*
G75*
G02*
X315876650Y-152558000I-218750J0D01*
G01*
X315364150Y-152558000D01*
G75*
G02*
X315145400Y-152339250I0J218750D01*
G01*
X315145400Y-151901750D01*
G75*
G02*
X315364150Y-151683000I218750J0D01*
G01*
G37*
G36*
G01*
X306283109Y-166576316D02*
X305920716Y-166938709D01*
G75*
G02*
X305611356Y-166938709I-154680J154680D01*
G01*
X305301997Y-166629350D01*
G75*
G02*
X305301997Y-166319990I154680J154680D01*
G01*
X305664390Y-165957597D01*
G75*
G02*
X305973750Y-165957597I154680J-154680D01*
G01*
X306283109Y-166266956D01*
G75*
G02*
X306283109Y-166576316I-154680J-154680D01*
G01*
G37*
G36*
G01*
X307396803Y-167690010D02*
X307034410Y-168052403D01*
G75*
G02*
X306725050Y-168052403I-154680J154680D01*
G01*
X306415691Y-167743044D01*
G75*
G02*
X306415691Y-167433684I154680J154680D01*
G01*
X306778084Y-167071291D01*
G75*
G02*
X307087444Y-167071291I154680J-154680D01*
G01*
X307396803Y-167380650D01*
G75*
G02*
X307396803Y-167690010I-154680J-154680D01*
G01*
G37*
G36*
G01*
X312066650Y-152558000D02*
X311554150Y-152558000D01*
G75*
G02*
X311335400Y-152339250I0J218750D01*
G01*
X311335400Y-151901750D01*
G75*
G02*
X311554150Y-151683000I218750J0D01*
G01*
X312066650Y-151683000D01*
G75*
G02*
X312285400Y-151901750I0J-218750D01*
G01*
X312285400Y-152339250D01*
G75*
G02*
X312066650Y-152558000I-218750J0D01*
G01*
G37*
G36*
G01*
X312066650Y-154133000D02*
X311554150Y-154133000D01*
G75*
G02*
X311335400Y-153914250I0J218750D01*
G01*
X311335400Y-153476750D01*
G75*
G02*
X311554150Y-153258000I218750J0D01*
G01*
X312066650Y-153258000D01*
G75*
G02*
X312285400Y-153476750I0J-218750D01*
G01*
X312285400Y-153914250D01*
G75*
G02*
X312066650Y-154133000I-218750J0D01*
G01*
G37*
D12*
X163569650Y-187452000D03*
D13*
X161029650Y-192532000D03*
D12*
X157219650Y-189992000D03*
D14*
X162799650Y-197612000D03*
D15*
X160259650Y-197612000D03*
D16*
X155949650Y-192532000D03*
X166109650Y-192532000D03*
D12*
X120707150Y-187452000D03*
D13*
X118167150Y-192532000D03*
D12*
X114357150Y-189992000D03*
D14*
X116897150Y-197612000D03*
D15*
X119437150Y-197612000D03*
D16*
X113087150Y-192532000D03*
X123247150Y-192532000D03*
D17*
X106229150Y-199517000D03*
X130105150Y-199517000D03*
D13*
X106229150Y-184277000D03*
X130105150Y-184277000D03*
G36*
G01*
X221389000Y-107061950D02*
X221389000Y-107974450D01*
G75*
G02*
X221145250Y-108218200I-243750J0D01*
G01*
X220657750Y-108218200D01*
G75*
G02*
X220414000Y-107974450I0J243750D01*
G01*
X220414000Y-107061950D01*
G75*
G02*
X220657750Y-106818200I243750J0D01*
G01*
X221145250Y-106818200D01*
G75*
G02*
X221389000Y-107061950I0J-243750D01*
G01*
G37*
G36*
G01*
X219514000Y-107061950D02*
X219514000Y-107974450D01*
G75*
G02*
X219270250Y-108218200I-243750J0D01*
G01*
X218782750Y-108218200D01*
G75*
G02*
X218539000Y-107974450I0J243750D01*
G01*
X218539000Y-107061950D01*
G75*
G02*
X218782750Y-106818200I243750J0D01*
G01*
X219270250Y-106818200D01*
G75*
G02*
X219514000Y-107061950I0J-243750D01*
G01*
G37*
D18*
X337718400Y-186055000D03*
D19*
X337718400Y-188595000D03*
X337718400Y-191135000D03*
D18*
X295173400Y-181229000D03*
D19*
X292633400Y-181229000D03*
X295173400Y-183769000D03*
X292633400Y-183769000D03*
X295173400Y-186309000D03*
X292633400Y-186309000D03*
G36*
G01*
X49468750Y-154431250D02*
X48956250Y-154431250D01*
G75*
G02*
X48737500Y-154212500I0J218750D01*
G01*
X48737500Y-153775000D01*
G75*
G02*
X48956250Y-153556250I218750J0D01*
G01*
X49468750Y-153556250D01*
G75*
G02*
X49687500Y-153775000I0J-218750D01*
G01*
X49687500Y-154212500D01*
G75*
G02*
X49468750Y-154431250I-218750J0D01*
G01*
G37*
G36*
G01*
X49468750Y-156006250D02*
X48956250Y-156006250D01*
G75*
G02*
X48737500Y-155787500I0J218750D01*
G01*
X48737500Y-155350000D01*
G75*
G02*
X48956250Y-155131250I218750J0D01*
G01*
X49468750Y-155131250D01*
G75*
G02*
X49687500Y-155350000I0J-218750D01*
G01*
X49687500Y-155787500D01*
G75*
G02*
X49468750Y-156006250I-218750J0D01*
G01*
G37*
G36*
G01*
X66137500Y-170293750D02*
X65625000Y-170293750D01*
G75*
G02*
X65406250Y-170075000I0J218750D01*
G01*
X65406250Y-169637500D01*
G75*
G02*
X65625000Y-169418750I218750J0D01*
G01*
X66137500Y-169418750D01*
G75*
G02*
X66356250Y-169637500I0J-218750D01*
G01*
X66356250Y-170075000D01*
G75*
G02*
X66137500Y-170293750I-218750J0D01*
G01*
G37*
G36*
G01*
X66137500Y-168718750D02*
X65625000Y-168718750D01*
G75*
G02*
X65406250Y-168500000I0J218750D01*
G01*
X65406250Y-168062500D01*
G75*
G02*
X65625000Y-167843750I218750J0D01*
G01*
X66137500Y-167843750D01*
G75*
G02*
X66356250Y-168062500I0J-218750D01*
G01*
X66356250Y-168500000D01*
G75*
G02*
X66137500Y-168718750I-218750J0D01*
G01*
G37*
G36*
G01*
X47087500Y-192531250D02*
X46575000Y-192531250D01*
G75*
G02*
X46356250Y-192312500I0J218750D01*
G01*
X46356250Y-191875000D01*
G75*
G02*
X46575000Y-191656250I218750J0D01*
G01*
X47087500Y-191656250D01*
G75*
G02*
X47306250Y-191875000I0J-218750D01*
G01*
X47306250Y-192312500D01*
G75*
G02*
X47087500Y-192531250I-218750J0D01*
G01*
G37*
G36*
G01*
X47087500Y-194106250D02*
X46575000Y-194106250D01*
G75*
G02*
X46356250Y-193887500I0J218750D01*
G01*
X46356250Y-193450000D01*
G75*
G02*
X46575000Y-193231250I218750J0D01*
G01*
X47087500Y-193231250D01*
G75*
G02*
X47306250Y-193450000I0J-218750D01*
G01*
X47306250Y-193887500D01*
G75*
G02*
X47087500Y-194106250I-218750J0D01*
G01*
G37*
G36*
G01*
X44611000Y-117650000D02*
X44098500Y-117650000D01*
G75*
G02*
X43879750Y-117431250I0J218750D01*
G01*
X43879750Y-116993750D01*
G75*
G02*
X44098500Y-116775000I218750J0D01*
G01*
X44611000Y-116775000D01*
G75*
G02*
X44829750Y-116993750I0J-218750D01*
G01*
X44829750Y-117431250D01*
G75*
G02*
X44611000Y-117650000I-218750J0D01*
G01*
G37*
G36*
G01*
X44611000Y-116075000D02*
X44098500Y-116075000D01*
G75*
G02*
X43879750Y-115856250I0J218750D01*
G01*
X43879750Y-115418750D01*
G75*
G02*
X44098500Y-115200000I218750J0D01*
G01*
X44611000Y-115200000D01*
G75*
G02*
X44829750Y-115418750I0J-218750D01*
G01*
X44829750Y-115856250D01*
G75*
G02*
X44611000Y-116075000I-218750J0D01*
G01*
G37*
G36*
G01*
X47087500Y-135225000D02*
X46575000Y-135225000D01*
G75*
G02*
X46356250Y-135006250I0J218750D01*
G01*
X46356250Y-134568750D01*
G75*
G02*
X46575000Y-134350000I218750J0D01*
G01*
X47087500Y-134350000D01*
G75*
G02*
X47306250Y-134568750I0J-218750D01*
G01*
X47306250Y-135006250D01*
G75*
G02*
X47087500Y-135225000I-218750J0D01*
G01*
G37*
G36*
G01*
X47087500Y-136800000D02*
X46575000Y-136800000D01*
G75*
G02*
X46356250Y-136581250I0J218750D01*
G01*
X46356250Y-136143750D01*
G75*
G02*
X46575000Y-135925000I218750J0D01*
G01*
X47087500Y-135925000D01*
G75*
G02*
X47306250Y-136143750I0J-218750D01*
G01*
X47306250Y-136581250D01*
G75*
G02*
X47087500Y-136800000I-218750J0D01*
G01*
G37*
G36*
G01*
X94712500Y-194106250D02*
X94200000Y-194106250D01*
G75*
G02*
X93981250Y-193887500I0J218750D01*
G01*
X93981250Y-193450000D01*
G75*
G02*
X94200000Y-193231250I218750J0D01*
G01*
X94712500Y-193231250D01*
G75*
G02*
X94931250Y-193450000I0J-218750D01*
G01*
X94931250Y-193887500D01*
G75*
G02*
X94712500Y-194106250I-218750J0D01*
G01*
G37*
G36*
G01*
X94712500Y-192531250D02*
X94200000Y-192531250D01*
G75*
G02*
X93981250Y-192312500I0J218750D01*
G01*
X93981250Y-191875000D01*
G75*
G02*
X94200000Y-191656250I218750J0D01*
G01*
X94712500Y-191656250D01*
G75*
G02*
X94931250Y-191875000I0J-218750D01*
G01*
X94931250Y-192312500D01*
G75*
G02*
X94712500Y-192531250I-218750J0D01*
G01*
G37*
G36*
G01*
X66137500Y-173481250D02*
X65625000Y-173481250D01*
G75*
G02*
X65406250Y-173262500I0J218750D01*
G01*
X65406250Y-172825000D01*
G75*
G02*
X65625000Y-172606250I218750J0D01*
G01*
X66137500Y-172606250D01*
G75*
G02*
X66356250Y-172825000I0J-218750D01*
G01*
X66356250Y-173262500D01*
G75*
G02*
X66137500Y-173481250I-218750J0D01*
G01*
G37*
G36*
G01*
X66137500Y-175056250D02*
X65625000Y-175056250D01*
G75*
G02*
X65406250Y-174837500I0J218750D01*
G01*
X65406250Y-174400000D01*
G75*
G02*
X65625000Y-174181250I218750J0D01*
G01*
X66137500Y-174181250D01*
G75*
G02*
X66356250Y-174400000I0J-218750D01*
G01*
X66356250Y-174837500D01*
G75*
G02*
X66137500Y-175056250I-218750J0D01*
G01*
G37*
G36*
G01*
X61375000Y-116100000D02*
X60862500Y-116100000D01*
G75*
G02*
X60643750Y-115881250I0J218750D01*
G01*
X60643750Y-115443750D01*
G75*
G02*
X60862500Y-115225000I218750J0D01*
G01*
X61375000Y-115225000D01*
G75*
G02*
X61593750Y-115443750I0J-218750D01*
G01*
X61593750Y-115881250D01*
G75*
G02*
X61375000Y-116100000I-218750J0D01*
G01*
G37*
G36*
G01*
X61375000Y-117675000D02*
X60862500Y-117675000D01*
G75*
G02*
X60643750Y-117456250I0J218750D01*
G01*
X60643750Y-117018750D01*
G75*
G02*
X60862500Y-116800000I218750J0D01*
G01*
X61375000Y-116800000D01*
G75*
G02*
X61593750Y-117018750I0J-218750D01*
G01*
X61593750Y-117456250D01*
G75*
G02*
X61375000Y-117675000I-218750J0D01*
G01*
G37*
G36*
G01*
X70900000Y-135381250D02*
X70387500Y-135381250D01*
G75*
G02*
X70168750Y-135162500I0J218750D01*
G01*
X70168750Y-134725000D01*
G75*
G02*
X70387500Y-134506250I218750J0D01*
G01*
X70900000Y-134506250D01*
G75*
G02*
X71118750Y-134725000I0J-218750D01*
G01*
X71118750Y-135162500D01*
G75*
G02*
X70900000Y-135381250I-218750J0D01*
G01*
G37*
G36*
G01*
X70900000Y-136956250D02*
X70387500Y-136956250D01*
G75*
G02*
X70168750Y-136737500I0J218750D01*
G01*
X70168750Y-136300000D01*
G75*
G02*
X70387500Y-136081250I218750J0D01*
G01*
X70900000Y-136081250D01*
G75*
G02*
X71118750Y-136300000I0J-218750D01*
G01*
X71118750Y-136737500D01*
G75*
G02*
X70900000Y-136956250I-218750J0D01*
G01*
G37*
G36*
G01*
X75662500Y-156006250D02*
X75150000Y-156006250D01*
G75*
G02*
X74931250Y-155787500I0J218750D01*
G01*
X74931250Y-155350000D01*
G75*
G02*
X75150000Y-155131250I218750J0D01*
G01*
X75662500Y-155131250D01*
G75*
G02*
X75881250Y-155350000I0J-218750D01*
G01*
X75881250Y-155787500D01*
G75*
G02*
X75662500Y-156006250I-218750J0D01*
G01*
G37*
G36*
G01*
X75662500Y-154431250D02*
X75150000Y-154431250D01*
G75*
G02*
X74931250Y-154212500I0J218750D01*
G01*
X74931250Y-153775000D01*
G75*
G02*
X75150000Y-153556250I218750J0D01*
G01*
X75662500Y-153556250D01*
G75*
G02*
X75881250Y-153775000I0J-218750D01*
G01*
X75881250Y-154212500D01*
G75*
G02*
X75662500Y-154431250I-218750J0D01*
G01*
G37*
G36*
G01*
X92331250Y-192531250D02*
X91818750Y-192531250D01*
G75*
G02*
X91600000Y-192312500I0J218750D01*
G01*
X91600000Y-191875000D01*
G75*
G02*
X91818750Y-191656250I218750J0D01*
G01*
X92331250Y-191656250D01*
G75*
G02*
X92550000Y-191875000I0J-218750D01*
G01*
X92550000Y-192312500D01*
G75*
G02*
X92331250Y-192531250I-218750J0D01*
G01*
G37*
G36*
G01*
X92331250Y-194106250D02*
X91818750Y-194106250D01*
G75*
G02*
X91600000Y-193887500I0J218750D01*
G01*
X91600000Y-193450000D01*
G75*
G02*
X91818750Y-193231250I218750J0D01*
G01*
X92331250Y-193231250D01*
G75*
G02*
X92550000Y-193450000I0J-218750D01*
G01*
X92550000Y-193887500D01*
G75*
G02*
X92331250Y-194106250I-218750J0D01*
G01*
G37*
G36*
G01*
X80425000Y-117625000D02*
X79912500Y-117625000D01*
G75*
G02*
X79693750Y-117406250I0J218750D01*
G01*
X79693750Y-116968750D01*
G75*
G02*
X79912500Y-116750000I218750J0D01*
G01*
X80425000Y-116750000D01*
G75*
G02*
X80643750Y-116968750I0J-218750D01*
G01*
X80643750Y-117406250D01*
G75*
G02*
X80425000Y-117625000I-218750J0D01*
G01*
G37*
G36*
G01*
X80425000Y-116050000D02*
X79912500Y-116050000D01*
G75*
G02*
X79693750Y-115831250I0J218750D01*
G01*
X79693750Y-115393750D01*
G75*
G02*
X79912500Y-115175000I218750J0D01*
G01*
X80425000Y-115175000D01*
G75*
G02*
X80643750Y-115393750I0J-218750D01*
G01*
X80643750Y-115831250D01*
G75*
G02*
X80425000Y-116050000I-218750J0D01*
G01*
G37*
G36*
G01*
X89950000Y-136956250D02*
X89437500Y-136956250D01*
G75*
G02*
X89218750Y-136737500I0J218750D01*
G01*
X89218750Y-136300000D01*
G75*
G02*
X89437500Y-136081250I218750J0D01*
G01*
X89950000Y-136081250D01*
G75*
G02*
X90168750Y-136300000I0J-218750D01*
G01*
X90168750Y-136737500D01*
G75*
G02*
X89950000Y-136956250I-218750J0D01*
G01*
G37*
G36*
G01*
X89950000Y-135381250D02*
X89437500Y-135381250D01*
G75*
G02*
X89218750Y-135162500I0J218750D01*
G01*
X89218750Y-134725000D01*
G75*
G02*
X89437500Y-134506250I218750J0D01*
G01*
X89950000Y-134506250D01*
G75*
G02*
X90168750Y-134725000I0J-218750D01*
G01*
X90168750Y-135162500D01*
G75*
G02*
X89950000Y-135381250I-218750J0D01*
G01*
G37*
G36*
G01*
X94712500Y-154431250D02*
X94200000Y-154431250D01*
G75*
G02*
X93981250Y-154212500I0J218750D01*
G01*
X93981250Y-153775000D01*
G75*
G02*
X94200000Y-153556250I218750J0D01*
G01*
X94712500Y-153556250D01*
G75*
G02*
X94931250Y-153775000I0J-218750D01*
G01*
X94931250Y-154212500D01*
G75*
G02*
X94712500Y-154431250I-218750J0D01*
G01*
G37*
G36*
G01*
X94712500Y-156006250D02*
X94200000Y-156006250D01*
G75*
G02*
X93981250Y-155787500I0J218750D01*
G01*
X93981250Y-155350000D01*
G75*
G02*
X94200000Y-155131250I218750J0D01*
G01*
X94712500Y-155131250D01*
G75*
G02*
X94931250Y-155350000I0J-218750D01*
G01*
X94931250Y-155787500D01*
G75*
G02*
X94712500Y-156006250I-218750J0D01*
G01*
G37*
G36*
G01*
X85187500Y-175056250D02*
X84675000Y-175056250D01*
G75*
G02*
X84456250Y-174837500I0J218750D01*
G01*
X84456250Y-174400000D01*
G75*
G02*
X84675000Y-174181250I218750J0D01*
G01*
X85187500Y-174181250D01*
G75*
G02*
X85406250Y-174400000I0J-218750D01*
G01*
X85406250Y-174837500D01*
G75*
G02*
X85187500Y-175056250I-218750J0D01*
G01*
G37*
G36*
G01*
X85187500Y-173481250D02*
X84675000Y-173481250D01*
G75*
G02*
X84456250Y-173262500I0J218750D01*
G01*
X84456250Y-172825000D01*
G75*
G02*
X84675000Y-172606250I218750J0D01*
G01*
X85187500Y-172606250D01*
G75*
G02*
X85406250Y-172825000I0J-218750D01*
G01*
X85406250Y-173262500D01*
G75*
G02*
X85187500Y-173481250I-218750J0D01*
G01*
G37*
G36*
G01*
X113762500Y-156006250D02*
X113250000Y-156006250D01*
G75*
G02*
X113031250Y-155787500I0J218750D01*
G01*
X113031250Y-155350000D01*
G75*
G02*
X113250000Y-155131250I218750J0D01*
G01*
X113762500Y-155131250D01*
G75*
G02*
X113981250Y-155350000I0J-218750D01*
G01*
X113981250Y-155787500D01*
G75*
G02*
X113762500Y-156006250I-218750J0D01*
G01*
G37*
G36*
G01*
X113762500Y-154431250D02*
X113250000Y-154431250D01*
G75*
G02*
X113031250Y-154212500I0J218750D01*
G01*
X113031250Y-153775000D01*
G75*
G02*
X113250000Y-153556250I218750J0D01*
G01*
X113762500Y-153556250D01*
G75*
G02*
X113981250Y-153775000I0J-218750D01*
G01*
X113981250Y-154212500D01*
G75*
G02*
X113762500Y-154431250I-218750J0D01*
G01*
G37*
G36*
G01*
X131917150Y-192975750D02*
X131404650Y-192975750D01*
G75*
G02*
X131185900Y-192757000I0J218750D01*
G01*
X131185900Y-192319500D01*
G75*
G02*
X131404650Y-192100750I218750J0D01*
G01*
X131917150Y-192100750D01*
G75*
G02*
X132135900Y-192319500I0J-218750D01*
G01*
X132135900Y-192757000D01*
G75*
G02*
X131917150Y-192975750I-218750J0D01*
G01*
G37*
G36*
G01*
X131917150Y-194550750D02*
X131404650Y-194550750D01*
G75*
G02*
X131185900Y-194332000I0J218750D01*
G01*
X131185900Y-193894500D01*
G75*
G02*
X131404650Y-193675750I218750J0D01*
G01*
X131917150Y-193675750D01*
G75*
G02*
X132135900Y-193894500I0J-218750D01*
G01*
X132135900Y-194332000D01*
G75*
G02*
X131917150Y-194550750I-218750J0D01*
G01*
G37*
G36*
G01*
X99475000Y-116200000D02*
X98962500Y-116200000D01*
G75*
G02*
X98743750Y-115981250I0J218750D01*
G01*
X98743750Y-115543750D01*
G75*
G02*
X98962500Y-115325000I218750J0D01*
G01*
X99475000Y-115325000D01*
G75*
G02*
X99693750Y-115543750I0J-218750D01*
G01*
X99693750Y-115981250D01*
G75*
G02*
X99475000Y-116200000I-218750J0D01*
G01*
G37*
G36*
G01*
X99475000Y-117775000D02*
X98962500Y-117775000D01*
G75*
G02*
X98743750Y-117556250I0J218750D01*
G01*
X98743750Y-117118750D01*
G75*
G02*
X98962500Y-116900000I218750J0D01*
G01*
X99475000Y-116900000D01*
G75*
G02*
X99693750Y-117118750I0J-218750D01*
G01*
X99693750Y-117556250D01*
G75*
G02*
X99475000Y-117775000I-218750J0D01*
G01*
G37*
G36*
G01*
X109000000Y-135381250D02*
X108487500Y-135381250D01*
G75*
G02*
X108268750Y-135162500I0J218750D01*
G01*
X108268750Y-134725000D01*
G75*
G02*
X108487500Y-134506250I218750J0D01*
G01*
X109000000Y-134506250D01*
G75*
G02*
X109218750Y-134725000I0J-218750D01*
G01*
X109218750Y-135162500D01*
G75*
G02*
X109000000Y-135381250I-218750J0D01*
G01*
G37*
G36*
G01*
X109000000Y-136956250D02*
X108487500Y-136956250D01*
G75*
G02*
X108268750Y-136737500I0J218750D01*
G01*
X108268750Y-136300000D01*
G75*
G02*
X108487500Y-136081250I218750J0D01*
G01*
X109000000Y-136081250D01*
G75*
G02*
X109218750Y-136300000I0J-218750D01*
G01*
X109218750Y-136737500D01*
G75*
G02*
X109000000Y-136956250I-218750J0D01*
G01*
G37*
G36*
G01*
X104237500Y-173481250D02*
X103725000Y-173481250D01*
G75*
G02*
X103506250Y-173262500I0J218750D01*
G01*
X103506250Y-172825000D01*
G75*
G02*
X103725000Y-172606250I218750J0D01*
G01*
X104237500Y-172606250D01*
G75*
G02*
X104456250Y-172825000I0J-218750D01*
G01*
X104456250Y-173262500D01*
G75*
G02*
X104237500Y-173481250I-218750J0D01*
G01*
G37*
G36*
G01*
X104237500Y-175056250D02*
X103725000Y-175056250D01*
G75*
G02*
X103506250Y-174837500I0J218750D01*
G01*
X103506250Y-174400000D01*
G75*
G02*
X103725000Y-174181250I218750J0D01*
G01*
X104237500Y-174181250D01*
G75*
G02*
X104456250Y-174400000I0J-218750D01*
G01*
X104456250Y-174837500D01*
G75*
G02*
X104237500Y-175056250I-218750J0D01*
G01*
G37*
G36*
G01*
X118525000Y-117625000D02*
X118012500Y-117625000D01*
G75*
G02*
X117793750Y-117406250I0J218750D01*
G01*
X117793750Y-116968750D01*
G75*
G02*
X118012500Y-116750000I218750J0D01*
G01*
X118525000Y-116750000D01*
G75*
G02*
X118743750Y-116968750I0J-218750D01*
G01*
X118743750Y-117406250D01*
G75*
G02*
X118525000Y-117625000I-218750J0D01*
G01*
G37*
G36*
G01*
X118525000Y-116050000D02*
X118012500Y-116050000D01*
G75*
G02*
X117793750Y-115831250I0J218750D01*
G01*
X117793750Y-115393750D01*
G75*
G02*
X118012500Y-115175000I218750J0D01*
G01*
X118525000Y-115175000D01*
G75*
G02*
X118743750Y-115393750I0J-218750D01*
G01*
X118743750Y-115831250D01*
G75*
G02*
X118525000Y-116050000I-218750J0D01*
G01*
G37*
G36*
G01*
X128050000Y-136956250D02*
X127537500Y-136956250D01*
G75*
G02*
X127318750Y-136737500I0J218750D01*
G01*
X127318750Y-136300000D01*
G75*
G02*
X127537500Y-136081250I218750J0D01*
G01*
X128050000Y-136081250D01*
G75*
G02*
X128268750Y-136300000I0J-218750D01*
G01*
X128268750Y-136737500D01*
G75*
G02*
X128050000Y-136956250I-218750J0D01*
G01*
G37*
G36*
G01*
X128050000Y-135381250D02*
X127537500Y-135381250D01*
G75*
G02*
X127318750Y-135162500I0J218750D01*
G01*
X127318750Y-134725000D01*
G75*
G02*
X127537500Y-134506250I218750J0D01*
G01*
X128050000Y-134506250D01*
G75*
G02*
X128268750Y-134725000I0J-218750D01*
G01*
X128268750Y-135162500D01*
G75*
G02*
X128050000Y-135381250I-218750J0D01*
G01*
G37*
G36*
G01*
X132812500Y-156006250D02*
X132300000Y-156006250D01*
G75*
G02*
X132081250Y-155787500I0J218750D01*
G01*
X132081250Y-155350000D01*
G75*
G02*
X132300000Y-155131250I218750J0D01*
G01*
X132812500Y-155131250D01*
G75*
G02*
X133031250Y-155350000I0J-218750D01*
G01*
X133031250Y-155787500D01*
G75*
G02*
X132812500Y-156006250I-218750J0D01*
G01*
G37*
G36*
G01*
X132812500Y-154431250D02*
X132300000Y-154431250D01*
G75*
G02*
X132081250Y-154212500I0J218750D01*
G01*
X132081250Y-153775000D01*
G75*
G02*
X132300000Y-153556250I218750J0D01*
G01*
X132812500Y-153556250D01*
G75*
G02*
X133031250Y-153775000I0J-218750D01*
G01*
X133031250Y-154212500D01*
G75*
G02*
X132812500Y-154431250I-218750J0D01*
G01*
G37*
G36*
G01*
X123287500Y-174695000D02*
X122775000Y-174695000D01*
G75*
G02*
X122556250Y-174476250I0J218750D01*
G01*
X122556250Y-174038750D01*
G75*
G02*
X122775000Y-173820000I218750J0D01*
G01*
X123287500Y-173820000D01*
G75*
G02*
X123506250Y-174038750I0J-218750D01*
G01*
X123506250Y-174476250D01*
G75*
G02*
X123287500Y-174695000I-218750J0D01*
G01*
G37*
G36*
G01*
X123287500Y-173120000D02*
X122775000Y-173120000D01*
G75*
G02*
X122556250Y-172901250I0J218750D01*
G01*
X122556250Y-172463750D01*
G75*
G02*
X122775000Y-172245000I218750J0D01*
G01*
X123287500Y-172245000D01*
G75*
G02*
X123506250Y-172463750I0J-218750D01*
G01*
X123506250Y-172901250D01*
G75*
G02*
X123287500Y-173120000I-218750J0D01*
G01*
G37*
G36*
G01*
X142337500Y-173481250D02*
X141825000Y-173481250D01*
G75*
G02*
X141606250Y-173262500I0J218750D01*
G01*
X141606250Y-172825000D01*
G75*
G02*
X141825000Y-172606250I218750J0D01*
G01*
X142337500Y-172606250D01*
G75*
G02*
X142556250Y-172825000I0J-218750D01*
G01*
X142556250Y-173262500D01*
G75*
G02*
X142337500Y-173481250I-218750J0D01*
G01*
G37*
G36*
G01*
X142337500Y-175056250D02*
X141825000Y-175056250D01*
G75*
G02*
X141606250Y-174837500I0J218750D01*
G01*
X141606250Y-174400000D01*
G75*
G02*
X141825000Y-174181250I218750J0D01*
G01*
X142337500Y-174181250D01*
G75*
G02*
X142556250Y-174400000I0J-218750D01*
G01*
X142556250Y-174837500D01*
G75*
G02*
X142337500Y-175056250I-218750J0D01*
G01*
G37*
G36*
G01*
X137575000Y-116100000D02*
X137062500Y-116100000D01*
G75*
G02*
X136843750Y-115881250I0J218750D01*
G01*
X136843750Y-115443750D01*
G75*
G02*
X137062500Y-115225000I218750J0D01*
G01*
X137575000Y-115225000D01*
G75*
G02*
X137793750Y-115443750I0J-218750D01*
G01*
X137793750Y-115881250D01*
G75*
G02*
X137575000Y-116100000I-218750J0D01*
G01*
G37*
G36*
G01*
X137575000Y-117675000D02*
X137062500Y-117675000D01*
G75*
G02*
X136843750Y-117456250I0J218750D01*
G01*
X136843750Y-117018750D01*
G75*
G02*
X137062500Y-116800000I218750J0D01*
G01*
X137575000Y-116800000D01*
G75*
G02*
X137793750Y-117018750I0J-218750D01*
G01*
X137793750Y-117456250D01*
G75*
G02*
X137575000Y-117675000I-218750J0D01*
G01*
G37*
G36*
G01*
X147100000Y-136956250D02*
X146587500Y-136956250D01*
G75*
G02*
X146368750Y-136737500I0J218750D01*
G01*
X146368750Y-136300000D01*
G75*
G02*
X146587500Y-136081250I218750J0D01*
G01*
X147100000Y-136081250D01*
G75*
G02*
X147318750Y-136300000I0J-218750D01*
G01*
X147318750Y-136737500D01*
G75*
G02*
X147100000Y-136956250I-218750J0D01*
G01*
G37*
G36*
G01*
X147100000Y-135381250D02*
X146587500Y-135381250D01*
G75*
G02*
X146368750Y-135162500I0J218750D01*
G01*
X146368750Y-134725000D01*
G75*
G02*
X146587500Y-134506250I218750J0D01*
G01*
X147100000Y-134506250D01*
G75*
G02*
X147318750Y-134725000I0J-218750D01*
G01*
X147318750Y-135162500D01*
G75*
G02*
X147100000Y-135381250I-218750J0D01*
G01*
G37*
G36*
G01*
X151862500Y-154431250D02*
X151350000Y-154431250D01*
G75*
G02*
X151131250Y-154212500I0J218750D01*
G01*
X151131250Y-153775000D01*
G75*
G02*
X151350000Y-153556250I218750J0D01*
G01*
X151862500Y-153556250D01*
G75*
G02*
X152081250Y-153775000I0J-218750D01*
G01*
X152081250Y-154212500D01*
G75*
G02*
X151862500Y-154431250I-218750J0D01*
G01*
G37*
G36*
G01*
X151862500Y-156006250D02*
X151350000Y-156006250D01*
G75*
G02*
X151131250Y-155787500I0J218750D01*
G01*
X151131250Y-155350000D01*
G75*
G02*
X151350000Y-155131250I218750J0D01*
G01*
X151862500Y-155131250D01*
G75*
G02*
X152081250Y-155350000I0J-218750D01*
G01*
X152081250Y-155787500D01*
G75*
G02*
X151862500Y-156006250I-218750J0D01*
G01*
G37*
G36*
G01*
X169223400Y-194106250D02*
X168710900Y-194106250D01*
G75*
G02*
X168492150Y-193887500I0J218750D01*
G01*
X168492150Y-193450000D01*
G75*
G02*
X168710900Y-193231250I218750J0D01*
G01*
X169223400Y-193231250D01*
G75*
G02*
X169442150Y-193450000I0J-218750D01*
G01*
X169442150Y-193887500D01*
G75*
G02*
X169223400Y-194106250I-218750J0D01*
G01*
G37*
G36*
G01*
X169223400Y-192531250D02*
X168710900Y-192531250D01*
G75*
G02*
X168492150Y-192312500I0J218750D01*
G01*
X168492150Y-191875000D01*
G75*
G02*
X168710900Y-191656250I218750J0D01*
G01*
X169223400Y-191656250D01*
G75*
G02*
X169442150Y-191875000I0J-218750D01*
G01*
X169442150Y-192312500D01*
G75*
G02*
X169223400Y-192531250I-218750J0D01*
G01*
G37*
G36*
G01*
X161387500Y-175056250D02*
X160875000Y-175056250D01*
G75*
G02*
X160656250Y-174837500I0J218750D01*
G01*
X160656250Y-174400000D01*
G75*
G02*
X160875000Y-174181250I218750J0D01*
G01*
X161387500Y-174181250D01*
G75*
G02*
X161606250Y-174400000I0J-218750D01*
G01*
X161606250Y-174837500D01*
G75*
G02*
X161387500Y-175056250I-218750J0D01*
G01*
G37*
G36*
G01*
X161387500Y-173481250D02*
X160875000Y-173481250D01*
G75*
G02*
X160656250Y-173262500I0J218750D01*
G01*
X160656250Y-172825000D01*
G75*
G02*
X160875000Y-172606250I218750J0D01*
G01*
X161387500Y-172606250D01*
G75*
G02*
X161606250Y-172825000I0J-218750D01*
G01*
X161606250Y-173262500D01*
G75*
G02*
X161387500Y-173481250I-218750J0D01*
G01*
G37*
G36*
G01*
X156625000Y-117725000D02*
X156112500Y-117725000D01*
G75*
G02*
X155893750Y-117506250I0J218750D01*
G01*
X155893750Y-117068750D01*
G75*
G02*
X156112500Y-116850000I218750J0D01*
G01*
X156625000Y-116850000D01*
G75*
G02*
X156843750Y-117068750I0J-218750D01*
G01*
X156843750Y-117506250D01*
G75*
G02*
X156625000Y-117725000I-218750J0D01*
G01*
G37*
G36*
G01*
X156625000Y-116150000D02*
X156112500Y-116150000D01*
G75*
G02*
X155893750Y-115931250I0J218750D01*
G01*
X155893750Y-115493750D01*
G75*
G02*
X156112500Y-115275000I218750J0D01*
G01*
X156625000Y-115275000D01*
G75*
G02*
X156843750Y-115493750I0J-218750D01*
G01*
X156843750Y-115931250D01*
G75*
G02*
X156625000Y-116150000I-218750J0D01*
G01*
G37*
G36*
G01*
X166150000Y-135381250D02*
X165637500Y-135381250D01*
G75*
G02*
X165418750Y-135162500I0J218750D01*
G01*
X165418750Y-134725000D01*
G75*
G02*
X165637500Y-134506250I218750J0D01*
G01*
X166150000Y-134506250D01*
G75*
G02*
X166368750Y-134725000I0J-218750D01*
G01*
X166368750Y-135162500D01*
G75*
G02*
X166150000Y-135381250I-218750J0D01*
G01*
G37*
G36*
G01*
X166150000Y-136956250D02*
X165637500Y-136956250D01*
G75*
G02*
X165418750Y-136737500I0J218750D01*
G01*
X165418750Y-136300000D01*
G75*
G02*
X165637500Y-136081250I218750J0D01*
G01*
X166150000Y-136081250D01*
G75*
G02*
X166368750Y-136300000I0J-218750D01*
G01*
X166368750Y-136737500D01*
G75*
G02*
X166150000Y-136956250I-218750J0D01*
G01*
G37*
G36*
G01*
X170912500Y-154431250D02*
X170400000Y-154431250D01*
G75*
G02*
X170181250Y-154212500I0J218750D01*
G01*
X170181250Y-153775000D01*
G75*
G02*
X170400000Y-153556250I218750J0D01*
G01*
X170912500Y-153556250D01*
G75*
G02*
X171131250Y-153775000I0J-218750D01*
G01*
X171131250Y-154212500D01*
G75*
G02*
X170912500Y-154431250I-218750J0D01*
G01*
G37*
G36*
G01*
X170912500Y-156006250D02*
X170400000Y-156006250D01*
G75*
G02*
X170181250Y-155787500I0J218750D01*
G01*
X170181250Y-155350000D01*
G75*
G02*
X170400000Y-155131250I218750J0D01*
G01*
X170912500Y-155131250D01*
G75*
G02*
X171131250Y-155350000I0J-218750D01*
G01*
X171131250Y-155787500D01*
G75*
G02*
X170912500Y-156006250I-218750J0D01*
G01*
G37*
G36*
G01*
X180437500Y-173481250D02*
X179925000Y-173481250D01*
G75*
G02*
X179706250Y-173262500I0J218750D01*
G01*
X179706250Y-172825000D01*
G75*
G02*
X179925000Y-172606250I218750J0D01*
G01*
X180437500Y-172606250D01*
G75*
G02*
X180656250Y-172825000I0J-218750D01*
G01*
X180656250Y-173262500D01*
G75*
G02*
X180437500Y-173481250I-218750J0D01*
G01*
G37*
G36*
G01*
X180437500Y-175056250D02*
X179925000Y-175056250D01*
G75*
G02*
X179706250Y-174837500I0J218750D01*
G01*
X179706250Y-174400000D01*
G75*
G02*
X179925000Y-174181250I218750J0D01*
G01*
X180437500Y-174181250D01*
G75*
G02*
X180656250Y-174400000I0J-218750D01*
G01*
X180656250Y-174837500D01*
G75*
G02*
X180437500Y-175056250I-218750J0D01*
G01*
G37*
G36*
G01*
X175675000Y-116150000D02*
X175162500Y-116150000D01*
G75*
G02*
X174943750Y-115931250I0J218750D01*
G01*
X174943750Y-115493750D01*
G75*
G02*
X175162500Y-115275000I218750J0D01*
G01*
X175675000Y-115275000D01*
G75*
G02*
X175893750Y-115493750I0J-218750D01*
G01*
X175893750Y-115931250D01*
G75*
G02*
X175675000Y-116150000I-218750J0D01*
G01*
G37*
G36*
G01*
X175675000Y-117725000D02*
X175162500Y-117725000D01*
G75*
G02*
X174943750Y-117506250I0J218750D01*
G01*
X174943750Y-117068750D01*
G75*
G02*
X175162500Y-116850000I218750J0D01*
G01*
X175675000Y-116850000D01*
G75*
G02*
X175893750Y-117068750I0J-218750D01*
G01*
X175893750Y-117506250D01*
G75*
G02*
X175675000Y-117725000I-218750J0D01*
G01*
G37*
G36*
G01*
X185200000Y-136956250D02*
X184687500Y-136956250D01*
G75*
G02*
X184468750Y-136737500I0J218750D01*
G01*
X184468750Y-136300000D01*
G75*
G02*
X184687500Y-136081250I218750J0D01*
G01*
X185200000Y-136081250D01*
G75*
G02*
X185418750Y-136300000I0J-218750D01*
G01*
X185418750Y-136737500D01*
G75*
G02*
X185200000Y-136956250I-218750J0D01*
G01*
G37*
G36*
G01*
X185200000Y-135381250D02*
X184687500Y-135381250D01*
G75*
G02*
X184468750Y-135162500I0J218750D01*
G01*
X184468750Y-134725000D01*
G75*
G02*
X184687500Y-134506250I218750J0D01*
G01*
X185200000Y-134506250D01*
G75*
G02*
X185418750Y-134725000I0J-218750D01*
G01*
X185418750Y-135162500D01*
G75*
G02*
X185200000Y-135381250I-218750J0D01*
G01*
G37*
G36*
G01*
X189962500Y-156006250D02*
X189450000Y-156006250D01*
G75*
G02*
X189231250Y-155787500I0J218750D01*
G01*
X189231250Y-155350000D01*
G75*
G02*
X189450000Y-155131250I218750J0D01*
G01*
X189962500Y-155131250D01*
G75*
G02*
X190181250Y-155350000I0J-218750D01*
G01*
X190181250Y-155787500D01*
G75*
G02*
X189962500Y-156006250I-218750J0D01*
G01*
G37*
G36*
G01*
X189962500Y-154431250D02*
X189450000Y-154431250D01*
G75*
G02*
X189231250Y-154212500I0J218750D01*
G01*
X189231250Y-153775000D01*
G75*
G02*
X189450000Y-153556250I218750J0D01*
G01*
X189962500Y-153556250D01*
G75*
G02*
X190181250Y-153775000I0J-218750D01*
G01*
X190181250Y-154212500D01*
G75*
G02*
X189962500Y-154431250I-218750J0D01*
G01*
G37*
G36*
G01*
X199487500Y-175056250D02*
X198975000Y-175056250D01*
G75*
G02*
X198756250Y-174837500I0J218750D01*
G01*
X198756250Y-174400000D01*
G75*
G02*
X198975000Y-174181250I218750J0D01*
G01*
X199487500Y-174181250D01*
G75*
G02*
X199706250Y-174400000I0J-218750D01*
G01*
X199706250Y-174837500D01*
G75*
G02*
X199487500Y-175056250I-218750J0D01*
G01*
G37*
G36*
G01*
X199487500Y-173481250D02*
X198975000Y-173481250D01*
G75*
G02*
X198756250Y-173262500I0J218750D01*
G01*
X198756250Y-172825000D01*
G75*
G02*
X198975000Y-172606250I218750J0D01*
G01*
X199487500Y-172606250D01*
G75*
G02*
X199706250Y-172825000I0J-218750D01*
G01*
X199706250Y-173262500D01*
G75*
G02*
X199487500Y-173481250I-218750J0D01*
G01*
G37*
G36*
G01*
X194725000Y-117750000D02*
X194212500Y-117750000D01*
G75*
G02*
X193993750Y-117531250I0J218750D01*
G01*
X193993750Y-117093750D01*
G75*
G02*
X194212500Y-116875000I218750J0D01*
G01*
X194725000Y-116875000D01*
G75*
G02*
X194943750Y-117093750I0J-218750D01*
G01*
X194943750Y-117531250D01*
G75*
G02*
X194725000Y-117750000I-218750J0D01*
G01*
G37*
G36*
G01*
X194725000Y-116175000D02*
X194212500Y-116175000D01*
G75*
G02*
X193993750Y-115956250I0J218750D01*
G01*
X193993750Y-115518750D01*
G75*
G02*
X194212500Y-115300000I218750J0D01*
G01*
X194725000Y-115300000D01*
G75*
G02*
X194943750Y-115518750I0J-218750D01*
G01*
X194943750Y-115956250D01*
G75*
G02*
X194725000Y-116175000I-218750J0D01*
G01*
G37*
G36*
G01*
X204250000Y-135381250D02*
X203737500Y-135381250D01*
G75*
G02*
X203518750Y-135162500I0J218750D01*
G01*
X203518750Y-134725000D01*
G75*
G02*
X203737500Y-134506250I218750J0D01*
G01*
X204250000Y-134506250D01*
G75*
G02*
X204468750Y-134725000I0J-218750D01*
G01*
X204468750Y-135162500D01*
G75*
G02*
X204250000Y-135381250I-218750J0D01*
G01*
G37*
G36*
G01*
X204250000Y-136956250D02*
X203737500Y-136956250D01*
G75*
G02*
X203518750Y-136737500I0J218750D01*
G01*
X203518750Y-136300000D01*
G75*
G02*
X203737500Y-136081250I218750J0D01*
G01*
X204250000Y-136081250D01*
G75*
G02*
X204468750Y-136300000I0J-218750D01*
G01*
X204468750Y-136737500D01*
G75*
G02*
X204250000Y-136956250I-218750J0D01*
G01*
G37*
G36*
G01*
X209012500Y-156006250D02*
X208500000Y-156006250D01*
G75*
G02*
X208281250Y-155787500I0J218750D01*
G01*
X208281250Y-155350000D01*
G75*
G02*
X208500000Y-155131250I218750J0D01*
G01*
X209012500Y-155131250D01*
G75*
G02*
X209231250Y-155350000I0J-218750D01*
G01*
X209231250Y-155787500D01*
G75*
G02*
X209012500Y-156006250I-218750J0D01*
G01*
G37*
G36*
G01*
X209012500Y-154431250D02*
X208500000Y-154431250D01*
G75*
G02*
X208281250Y-154212500I0J218750D01*
G01*
X208281250Y-153775000D01*
G75*
G02*
X208500000Y-153556250I218750J0D01*
G01*
X209012500Y-153556250D01*
G75*
G02*
X209231250Y-153775000I0J-218750D01*
G01*
X209231250Y-154212500D01*
G75*
G02*
X209012500Y-154431250I-218750J0D01*
G01*
G37*
G36*
G01*
X209475000Y-192150000D02*
X208962500Y-192150000D01*
G75*
G02*
X208743750Y-191931250I0J218750D01*
G01*
X208743750Y-191493750D01*
G75*
G02*
X208962500Y-191275000I218750J0D01*
G01*
X209475000Y-191275000D01*
G75*
G02*
X209693750Y-191493750I0J-218750D01*
G01*
X209693750Y-191931250D01*
G75*
G02*
X209475000Y-192150000I-218750J0D01*
G01*
G37*
G36*
G01*
X209475000Y-193725000D02*
X208962500Y-193725000D01*
G75*
G02*
X208743750Y-193506250I0J218750D01*
G01*
X208743750Y-193068750D01*
G75*
G02*
X208962500Y-192850000I218750J0D01*
G01*
X209475000Y-192850000D01*
G75*
G02*
X209693750Y-193068750I0J-218750D01*
G01*
X209693750Y-193506250D01*
G75*
G02*
X209475000Y-193725000I-218750J0D01*
G01*
G37*
G36*
G01*
X218537500Y-175056250D02*
X218025000Y-175056250D01*
G75*
G02*
X217806250Y-174837500I0J218750D01*
G01*
X217806250Y-174400000D01*
G75*
G02*
X218025000Y-174181250I218750J0D01*
G01*
X218537500Y-174181250D01*
G75*
G02*
X218756250Y-174400000I0J-218750D01*
G01*
X218756250Y-174837500D01*
G75*
G02*
X218537500Y-175056250I-218750J0D01*
G01*
G37*
G36*
G01*
X218537500Y-173481250D02*
X218025000Y-173481250D01*
G75*
G02*
X217806250Y-173262500I0J218750D01*
G01*
X217806250Y-172825000D01*
G75*
G02*
X218025000Y-172606250I218750J0D01*
G01*
X218537500Y-172606250D01*
G75*
G02*
X218756250Y-172825000I0J-218750D01*
G01*
X218756250Y-173262500D01*
G75*
G02*
X218537500Y-173481250I-218750J0D01*
G01*
G37*
G36*
G01*
X228062500Y-154431250D02*
X227550000Y-154431250D01*
G75*
G02*
X227331250Y-154212500I0J218750D01*
G01*
X227331250Y-153775000D01*
G75*
G02*
X227550000Y-153556250I218750J0D01*
G01*
X228062500Y-153556250D01*
G75*
G02*
X228281250Y-153775000I0J-218750D01*
G01*
X228281250Y-154212500D01*
G75*
G02*
X228062500Y-154431250I-218750J0D01*
G01*
G37*
G36*
G01*
X228062500Y-156006250D02*
X227550000Y-156006250D01*
G75*
G02*
X227331250Y-155787500I0J218750D01*
G01*
X227331250Y-155350000D01*
G75*
G02*
X227550000Y-155131250I218750J0D01*
G01*
X228062500Y-155131250D01*
G75*
G02*
X228281250Y-155350000I0J-218750D01*
G01*
X228281250Y-155787500D01*
G75*
G02*
X228062500Y-156006250I-218750J0D01*
G01*
G37*
G36*
G01*
X198693750Y-116150000D02*
X198181250Y-116150000D01*
G75*
G02*
X197962500Y-115931250I0J218750D01*
G01*
X197962500Y-115493750D01*
G75*
G02*
X198181250Y-115275000I218750J0D01*
G01*
X198693750Y-115275000D01*
G75*
G02*
X198912500Y-115493750I0J-218750D01*
G01*
X198912500Y-115931250D01*
G75*
G02*
X198693750Y-116150000I-218750J0D01*
G01*
G37*
G36*
G01*
X198693750Y-117725000D02*
X198181250Y-117725000D01*
G75*
G02*
X197962500Y-117506250I0J218750D01*
G01*
X197962500Y-117068750D01*
G75*
G02*
X198181250Y-116850000I218750J0D01*
G01*
X198693750Y-116850000D01*
G75*
G02*
X198912500Y-117068750I0J-218750D01*
G01*
X198912500Y-117506250D01*
G75*
G02*
X198693750Y-117725000I-218750J0D01*
G01*
G37*
G36*
G01*
X223300000Y-136956250D02*
X222787500Y-136956250D01*
G75*
G02*
X222568750Y-136737500I0J218750D01*
G01*
X222568750Y-136300000D01*
G75*
G02*
X222787500Y-136081250I218750J0D01*
G01*
X223300000Y-136081250D01*
G75*
G02*
X223518750Y-136300000I0J-218750D01*
G01*
X223518750Y-136737500D01*
G75*
G02*
X223300000Y-136956250I-218750J0D01*
G01*
G37*
G36*
G01*
X223300000Y-135381250D02*
X222787500Y-135381250D01*
G75*
G02*
X222568750Y-135162500I0J218750D01*
G01*
X222568750Y-134725000D01*
G75*
G02*
X222787500Y-134506250I218750J0D01*
G01*
X223300000Y-134506250D01*
G75*
G02*
X223518750Y-134725000I0J-218750D01*
G01*
X223518750Y-135162500D01*
G75*
G02*
X223300000Y-135381250I-218750J0D01*
G01*
G37*
G36*
G01*
X248375000Y-192350000D02*
X247862500Y-192350000D01*
G75*
G02*
X247643750Y-192131250I0J218750D01*
G01*
X247643750Y-191693750D01*
G75*
G02*
X247862500Y-191475000I218750J0D01*
G01*
X248375000Y-191475000D01*
G75*
G02*
X248593750Y-191693750I0J-218750D01*
G01*
X248593750Y-192131250D01*
G75*
G02*
X248375000Y-192350000I-218750J0D01*
G01*
G37*
G36*
G01*
X248375000Y-193925000D02*
X247862500Y-193925000D01*
G75*
G02*
X247643750Y-193706250I0J218750D01*
G01*
X247643750Y-193268750D01*
G75*
G02*
X247862500Y-193050000I218750J0D01*
G01*
X248375000Y-193050000D01*
G75*
G02*
X248593750Y-193268750I0J-218750D01*
G01*
X248593750Y-193706250D01*
G75*
G02*
X248375000Y-193925000I-218750J0D01*
G01*
G37*
G36*
G01*
X232825000Y-117525000D02*
X232312500Y-117525000D01*
G75*
G02*
X232093750Y-117306250I0J218750D01*
G01*
X232093750Y-116868750D01*
G75*
G02*
X232312500Y-116650000I218750J0D01*
G01*
X232825000Y-116650000D01*
G75*
G02*
X233043750Y-116868750I0J-218750D01*
G01*
X233043750Y-117306250D01*
G75*
G02*
X232825000Y-117525000I-218750J0D01*
G01*
G37*
G36*
G01*
X232825000Y-115950000D02*
X232312500Y-115950000D01*
G75*
G02*
X232093750Y-115731250I0J218750D01*
G01*
X232093750Y-115293750D01*
G75*
G02*
X232312500Y-115075000I218750J0D01*
G01*
X232825000Y-115075000D01*
G75*
G02*
X233043750Y-115293750I0J-218750D01*
G01*
X233043750Y-115731250D01*
G75*
G02*
X232825000Y-115950000I-218750J0D01*
G01*
G37*
G36*
G01*
X247112500Y-156006250D02*
X246600000Y-156006250D01*
G75*
G02*
X246381250Y-155787500I0J218750D01*
G01*
X246381250Y-155350000D01*
G75*
G02*
X246600000Y-155131250I218750J0D01*
G01*
X247112500Y-155131250D01*
G75*
G02*
X247331250Y-155350000I0J-218750D01*
G01*
X247331250Y-155787500D01*
G75*
G02*
X247112500Y-156006250I-218750J0D01*
G01*
G37*
G36*
G01*
X247112500Y-154431250D02*
X246600000Y-154431250D01*
G75*
G02*
X246381250Y-154212500I0J218750D01*
G01*
X246381250Y-153775000D01*
G75*
G02*
X246600000Y-153556250I218750J0D01*
G01*
X247112500Y-153556250D01*
G75*
G02*
X247331250Y-153775000I0J-218750D01*
G01*
X247331250Y-154212500D01*
G75*
G02*
X247112500Y-154431250I-218750J0D01*
G01*
G37*
G36*
G01*
X242350000Y-135381250D02*
X241837500Y-135381250D01*
G75*
G02*
X241618750Y-135162500I0J218750D01*
G01*
X241618750Y-134725000D01*
G75*
G02*
X241837500Y-134506250I218750J0D01*
G01*
X242350000Y-134506250D01*
G75*
G02*
X242568750Y-134725000I0J-218750D01*
G01*
X242568750Y-135162500D01*
G75*
G02*
X242350000Y-135381250I-218750J0D01*
G01*
G37*
G36*
G01*
X242350000Y-136956250D02*
X241837500Y-136956250D01*
G75*
G02*
X241618750Y-136737500I0J218750D01*
G01*
X241618750Y-136300000D01*
G75*
G02*
X241837500Y-136081250I218750J0D01*
G01*
X242350000Y-136081250D01*
G75*
G02*
X242568750Y-136300000I0J-218750D01*
G01*
X242568750Y-136737500D01*
G75*
G02*
X242350000Y-136956250I-218750J0D01*
G01*
G37*
G36*
G01*
X237587500Y-175056250D02*
X237075000Y-175056250D01*
G75*
G02*
X236856250Y-174837500I0J218750D01*
G01*
X236856250Y-174400000D01*
G75*
G02*
X237075000Y-174181250I218750J0D01*
G01*
X237587500Y-174181250D01*
G75*
G02*
X237806250Y-174400000I0J-218750D01*
G01*
X237806250Y-174837500D01*
G75*
G02*
X237587500Y-175056250I-218750J0D01*
G01*
G37*
G36*
G01*
X237587500Y-173481250D02*
X237075000Y-173481250D01*
G75*
G02*
X236856250Y-173262500I0J218750D01*
G01*
X236856250Y-172825000D01*
G75*
G02*
X237075000Y-172606250I218750J0D01*
G01*
X237587500Y-172606250D01*
G75*
G02*
X237806250Y-172825000I0J-218750D01*
G01*
X237806250Y-173262500D01*
G75*
G02*
X237587500Y-173481250I-218750J0D01*
G01*
G37*
G36*
G01*
X269875000Y-193925000D02*
X269362500Y-193925000D01*
G75*
G02*
X269143750Y-193706250I0J218750D01*
G01*
X269143750Y-193268750D01*
G75*
G02*
X269362500Y-193050000I218750J0D01*
G01*
X269875000Y-193050000D01*
G75*
G02*
X270093750Y-193268750I0J-218750D01*
G01*
X270093750Y-193706250D01*
G75*
G02*
X269875000Y-193925000I-218750J0D01*
G01*
G37*
G36*
G01*
X269875000Y-192350000D02*
X269362500Y-192350000D01*
G75*
G02*
X269143750Y-192131250I0J218750D01*
G01*
X269143750Y-191693750D01*
G75*
G02*
X269362500Y-191475000I218750J0D01*
G01*
X269875000Y-191475000D01*
G75*
G02*
X270093750Y-191693750I0J-218750D01*
G01*
X270093750Y-192131250D01*
G75*
G02*
X269875000Y-192350000I-218750J0D01*
G01*
G37*
G36*
G01*
X251875000Y-115950000D02*
X251362500Y-115950000D01*
G75*
G02*
X251143750Y-115731250I0J218750D01*
G01*
X251143750Y-115293750D01*
G75*
G02*
X251362500Y-115075000I218750J0D01*
G01*
X251875000Y-115075000D01*
G75*
G02*
X252093750Y-115293750I0J-218750D01*
G01*
X252093750Y-115731250D01*
G75*
G02*
X251875000Y-115950000I-218750J0D01*
G01*
G37*
G36*
G01*
X251875000Y-117525000D02*
X251362500Y-117525000D01*
G75*
G02*
X251143750Y-117306250I0J218750D01*
G01*
X251143750Y-116868750D01*
G75*
G02*
X251362500Y-116650000I218750J0D01*
G01*
X251875000Y-116650000D01*
G75*
G02*
X252093750Y-116868750I0J-218750D01*
G01*
X252093750Y-117306250D01*
G75*
G02*
X251875000Y-117525000I-218750J0D01*
G01*
G37*
G36*
G01*
X261400000Y-136956250D02*
X260887500Y-136956250D01*
G75*
G02*
X260668750Y-136737500I0J218750D01*
G01*
X260668750Y-136300000D01*
G75*
G02*
X260887500Y-136081250I218750J0D01*
G01*
X261400000Y-136081250D01*
G75*
G02*
X261618750Y-136300000I0J-218750D01*
G01*
X261618750Y-136737500D01*
G75*
G02*
X261400000Y-136956250I-218750J0D01*
G01*
G37*
G36*
G01*
X261400000Y-135381250D02*
X260887500Y-135381250D01*
G75*
G02*
X260668750Y-135162500I0J218750D01*
G01*
X260668750Y-134725000D01*
G75*
G02*
X260887500Y-134506250I218750J0D01*
G01*
X261400000Y-134506250D01*
G75*
G02*
X261618750Y-134725000I0J-218750D01*
G01*
X261618750Y-135162500D01*
G75*
G02*
X261400000Y-135381250I-218750J0D01*
G01*
G37*
G36*
G01*
X266162500Y-154431250D02*
X265650000Y-154431250D01*
G75*
G02*
X265431250Y-154212500I0J218750D01*
G01*
X265431250Y-153775000D01*
G75*
G02*
X265650000Y-153556250I218750J0D01*
G01*
X266162500Y-153556250D01*
G75*
G02*
X266381250Y-153775000I0J-218750D01*
G01*
X266381250Y-154212500D01*
G75*
G02*
X266162500Y-154431250I-218750J0D01*
G01*
G37*
G36*
G01*
X266162500Y-156006250D02*
X265650000Y-156006250D01*
G75*
G02*
X265431250Y-155787500I0J218750D01*
G01*
X265431250Y-155350000D01*
G75*
G02*
X265650000Y-155131250I218750J0D01*
G01*
X266162500Y-155131250D01*
G75*
G02*
X266381250Y-155350000I0J-218750D01*
G01*
X266381250Y-155787500D01*
G75*
G02*
X266162500Y-156006250I-218750J0D01*
G01*
G37*
G36*
G01*
X257675000Y-172950000D02*
X257162500Y-172950000D01*
G75*
G02*
X256943750Y-172731250I0J218750D01*
G01*
X256943750Y-172293750D01*
G75*
G02*
X257162500Y-172075000I218750J0D01*
G01*
X257675000Y-172075000D01*
G75*
G02*
X257893750Y-172293750I0J-218750D01*
G01*
X257893750Y-172731250D01*
G75*
G02*
X257675000Y-172950000I-218750J0D01*
G01*
G37*
G36*
G01*
X257675000Y-174525000D02*
X257162500Y-174525000D01*
G75*
G02*
X256943750Y-174306250I0J218750D01*
G01*
X256943750Y-173868750D01*
G75*
G02*
X257162500Y-173650000I218750J0D01*
G01*
X257675000Y-173650000D01*
G75*
G02*
X257893750Y-173868750I0J-218750D01*
G01*
X257893750Y-174306250D01*
G75*
G02*
X257675000Y-174525000I-218750J0D01*
G01*
G37*
G36*
G01*
X294737500Y-197293750D02*
X294225000Y-197293750D01*
G75*
G02*
X294006250Y-197075000I0J218750D01*
G01*
X294006250Y-196637500D01*
G75*
G02*
X294225000Y-196418750I218750J0D01*
G01*
X294737500Y-196418750D01*
G75*
G02*
X294956250Y-196637500I0J-218750D01*
G01*
X294956250Y-197075000D01*
G75*
G02*
X294737500Y-197293750I-218750J0D01*
G01*
G37*
G36*
G01*
X294737500Y-198868750D02*
X294225000Y-198868750D01*
G75*
G02*
X294006250Y-198650000I0J218750D01*
G01*
X294006250Y-198212500D01*
G75*
G02*
X294225000Y-197993750I218750J0D01*
G01*
X294737500Y-197993750D01*
G75*
G02*
X294956250Y-198212500I0J-218750D01*
G01*
X294956250Y-198650000D01*
G75*
G02*
X294737500Y-198868750I-218750J0D01*
G01*
G37*
G36*
G01*
X280450000Y-135381250D02*
X279937500Y-135381250D01*
G75*
G02*
X279718750Y-135162500I0J218750D01*
G01*
X279718750Y-134725000D01*
G75*
G02*
X279937500Y-134506250I218750J0D01*
G01*
X280450000Y-134506250D01*
G75*
G02*
X280668750Y-134725000I0J-218750D01*
G01*
X280668750Y-135162500D01*
G75*
G02*
X280450000Y-135381250I-218750J0D01*
G01*
G37*
G36*
G01*
X280450000Y-136956250D02*
X279937500Y-136956250D01*
G75*
G02*
X279718750Y-136737500I0J218750D01*
G01*
X279718750Y-136300000D01*
G75*
G02*
X279937500Y-136081250I218750J0D01*
G01*
X280450000Y-136081250D01*
G75*
G02*
X280668750Y-136300000I0J-218750D01*
G01*
X280668750Y-136737500D01*
G75*
G02*
X280450000Y-136956250I-218750J0D01*
G01*
G37*
G36*
G01*
X284125000Y-175300000D02*
X283612500Y-175300000D01*
G75*
G02*
X283393750Y-175081250I0J218750D01*
G01*
X283393750Y-174643750D01*
G75*
G02*
X283612500Y-174425000I218750J0D01*
G01*
X284125000Y-174425000D01*
G75*
G02*
X284343750Y-174643750I0J-218750D01*
G01*
X284343750Y-175081250D01*
G75*
G02*
X284125000Y-175300000I-218750J0D01*
G01*
G37*
G36*
G01*
X284125000Y-173725000D02*
X283612500Y-173725000D01*
G75*
G02*
X283393750Y-173506250I0J218750D01*
G01*
X283393750Y-173068750D01*
G75*
G02*
X283612500Y-172850000I218750J0D01*
G01*
X284125000Y-172850000D01*
G75*
G02*
X284343750Y-173068750I0J-218750D01*
G01*
X284343750Y-173506250D01*
G75*
G02*
X284125000Y-173725000I-218750J0D01*
G01*
G37*
G36*
G01*
X270925000Y-117525000D02*
X270412500Y-117525000D01*
G75*
G02*
X270193750Y-117306250I0J218750D01*
G01*
X270193750Y-116868750D01*
G75*
G02*
X270412500Y-116650000I218750J0D01*
G01*
X270925000Y-116650000D01*
G75*
G02*
X271143750Y-116868750I0J-218750D01*
G01*
X271143750Y-117306250D01*
G75*
G02*
X270925000Y-117525000I-218750J0D01*
G01*
G37*
G36*
G01*
X270925000Y-115950000D02*
X270412500Y-115950000D01*
G75*
G02*
X270193750Y-115731250I0J218750D01*
G01*
X270193750Y-115293750D01*
G75*
G02*
X270412500Y-115075000I218750J0D01*
G01*
X270925000Y-115075000D01*
G75*
G02*
X271143750Y-115293750I0J-218750D01*
G01*
X271143750Y-115731250D01*
G75*
G02*
X270925000Y-115950000I-218750J0D01*
G01*
G37*
G36*
G01*
X282831250Y-159025000D02*
X282318750Y-159025000D01*
G75*
G02*
X282100000Y-158806250I0J218750D01*
G01*
X282100000Y-158368750D01*
G75*
G02*
X282318750Y-158150000I218750J0D01*
G01*
X282831250Y-158150000D01*
G75*
G02*
X283050000Y-158368750I0J-218750D01*
G01*
X283050000Y-158806250D01*
G75*
G02*
X282831250Y-159025000I-218750J0D01*
G01*
G37*
G36*
G01*
X282831250Y-157450000D02*
X282318750Y-157450000D01*
G75*
G02*
X282100000Y-157231250I0J218750D01*
G01*
X282100000Y-156793750D01*
G75*
G02*
X282318750Y-156575000I218750J0D01*
G01*
X282831250Y-156575000D01*
G75*
G02*
X283050000Y-156793750I0J-218750D01*
G01*
X283050000Y-157231250D01*
G75*
G02*
X282831250Y-157450000I-218750J0D01*
G01*
G37*
G36*
G01*
X274893750Y-115950000D02*
X274381250Y-115950000D01*
G75*
G02*
X274162500Y-115731250I0J218750D01*
G01*
X274162500Y-115293750D01*
G75*
G02*
X274381250Y-115075000I218750J0D01*
G01*
X274893750Y-115075000D01*
G75*
G02*
X275112500Y-115293750I0J-218750D01*
G01*
X275112500Y-115731250D01*
G75*
G02*
X274893750Y-115950000I-218750J0D01*
G01*
G37*
G36*
G01*
X274893750Y-117525000D02*
X274381250Y-117525000D01*
G75*
G02*
X274162500Y-117306250I0J218750D01*
G01*
X274162500Y-116868750D01*
G75*
G02*
X274381250Y-116650000I218750J0D01*
G01*
X274893750Y-116650000D01*
G75*
G02*
X275112500Y-116868750I0J-218750D01*
G01*
X275112500Y-117306250D01*
G75*
G02*
X274893750Y-117525000I-218750J0D01*
G01*
G37*
G36*
G01*
X307437500Y-148081250D02*
X306925000Y-148081250D01*
G75*
G02*
X306706250Y-147862500I0J218750D01*
G01*
X306706250Y-147425000D01*
G75*
G02*
X306925000Y-147206250I218750J0D01*
G01*
X307437500Y-147206250D01*
G75*
G02*
X307656250Y-147425000I0J-218750D01*
G01*
X307656250Y-147862500D01*
G75*
G02*
X307437500Y-148081250I-218750J0D01*
G01*
G37*
G36*
G01*
X307437500Y-149656250D02*
X306925000Y-149656250D01*
G75*
G02*
X306706250Y-149437500I0J218750D01*
G01*
X306706250Y-149000000D01*
G75*
G02*
X306925000Y-148781250I218750J0D01*
G01*
X307437500Y-148781250D01*
G75*
G02*
X307656250Y-149000000I0J-218750D01*
G01*
X307656250Y-149437500D01*
G75*
G02*
X307437500Y-149656250I-218750J0D01*
G01*
G37*
G36*
G01*
X313787500Y-177825000D02*
X313275000Y-177825000D01*
G75*
G02*
X313056250Y-177606250I0J218750D01*
G01*
X313056250Y-177168750D01*
G75*
G02*
X313275000Y-176950000I218750J0D01*
G01*
X313787500Y-176950000D01*
G75*
G02*
X314006250Y-177168750I0J-218750D01*
G01*
X314006250Y-177606250D01*
G75*
G02*
X313787500Y-177825000I-218750J0D01*
G01*
G37*
G36*
G01*
X313787500Y-179400000D02*
X313275000Y-179400000D01*
G75*
G02*
X313056250Y-179181250I0J218750D01*
G01*
X313056250Y-178743750D01*
G75*
G02*
X313275000Y-178525000I218750J0D01*
G01*
X313787500Y-178525000D01*
G75*
G02*
X314006250Y-178743750I0J-218750D01*
G01*
X314006250Y-179181250D01*
G75*
G02*
X313787500Y-179400000I-218750J0D01*
G01*
G37*
G36*
G01*
X313787500Y-198868750D02*
X313275000Y-198868750D01*
G75*
G02*
X313056250Y-198650000I0J218750D01*
G01*
X313056250Y-198212500D01*
G75*
G02*
X313275000Y-197993750I218750J0D01*
G01*
X313787500Y-197993750D01*
G75*
G02*
X314006250Y-198212500I0J-218750D01*
G01*
X314006250Y-198650000D01*
G75*
G02*
X313787500Y-198868750I-218750J0D01*
G01*
G37*
G36*
G01*
X313787500Y-197293750D02*
X313275000Y-197293750D01*
G75*
G02*
X313056250Y-197075000I0J218750D01*
G01*
X313056250Y-196637500D01*
G75*
G02*
X313275000Y-196418750I218750J0D01*
G01*
X313787500Y-196418750D01*
G75*
G02*
X314006250Y-196637500I0J-218750D01*
G01*
X314006250Y-197075000D01*
G75*
G02*
X313787500Y-197293750I-218750J0D01*
G01*
G37*
G36*
G01*
X304262500Y-137750000D02*
X303750000Y-137750000D01*
G75*
G02*
X303531250Y-137531250I0J218750D01*
G01*
X303531250Y-137093750D01*
G75*
G02*
X303750000Y-136875000I218750J0D01*
G01*
X304262500Y-136875000D01*
G75*
G02*
X304481250Y-137093750I0J-218750D01*
G01*
X304481250Y-137531250D01*
G75*
G02*
X304262500Y-137750000I-218750J0D01*
G01*
G37*
G36*
G01*
X304262500Y-136175000D02*
X303750000Y-136175000D01*
G75*
G02*
X303531250Y-135956250I0J218750D01*
G01*
X303531250Y-135518750D01*
G75*
G02*
X303750000Y-135300000I218750J0D01*
G01*
X304262500Y-135300000D01*
G75*
G02*
X304481250Y-135518750I0J-218750D01*
G01*
X304481250Y-135956250D01*
G75*
G02*
X304262500Y-136175000I-218750J0D01*
G01*
G37*
G36*
G01*
X309025000Y-110762500D02*
X308512500Y-110762500D01*
G75*
G02*
X308293750Y-110543750I0J218750D01*
G01*
X308293750Y-110106250D01*
G75*
G02*
X308512500Y-109887500I218750J0D01*
G01*
X309025000Y-109887500D01*
G75*
G02*
X309243750Y-110106250I0J-218750D01*
G01*
X309243750Y-110543750D01*
G75*
G02*
X309025000Y-110762500I-218750J0D01*
G01*
G37*
G36*
G01*
X309025000Y-109187500D02*
X308512500Y-109187500D01*
G75*
G02*
X308293750Y-108968750I0J218750D01*
G01*
X308293750Y-108531250D01*
G75*
G02*
X308512500Y-108312500I218750J0D01*
G01*
X309025000Y-108312500D01*
G75*
G02*
X309243750Y-108531250I0J-218750D01*
G01*
X309243750Y-108968750D01*
G75*
G02*
X309025000Y-109187500I-218750J0D01*
G01*
G37*
G36*
G01*
X337600000Y-115950000D02*
X337087500Y-115950000D01*
G75*
G02*
X336868750Y-115731250I0J218750D01*
G01*
X336868750Y-115293750D01*
G75*
G02*
X337087500Y-115075000I218750J0D01*
G01*
X337600000Y-115075000D01*
G75*
G02*
X337818750Y-115293750I0J-218750D01*
G01*
X337818750Y-115731250D01*
G75*
G02*
X337600000Y-115950000I-218750J0D01*
G01*
G37*
G36*
G01*
X337600000Y-117525000D02*
X337087500Y-117525000D01*
G75*
G02*
X336868750Y-117306250I0J218750D01*
G01*
X336868750Y-116868750D01*
G75*
G02*
X337087500Y-116650000I218750J0D01*
G01*
X337600000Y-116650000D01*
G75*
G02*
X337818750Y-116868750I0J-218750D01*
G01*
X337818750Y-117306250D01*
G75*
G02*
X337600000Y-117525000I-218750J0D01*
G01*
G37*
G36*
G01*
X337600000Y-156006250D02*
X337087500Y-156006250D01*
G75*
G02*
X336868750Y-155787500I0J218750D01*
G01*
X336868750Y-155350000D01*
G75*
G02*
X337087500Y-155131250I218750J0D01*
G01*
X337600000Y-155131250D01*
G75*
G02*
X337818750Y-155350000I0J-218750D01*
G01*
X337818750Y-155787500D01*
G75*
G02*
X337600000Y-156006250I-218750J0D01*
G01*
G37*
G36*
G01*
X337600000Y-154431250D02*
X337087500Y-154431250D01*
G75*
G02*
X336868750Y-154212500I0J218750D01*
G01*
X336868750Y-153775000D01*
G75*
G02*
X337087500Y-153556250I218750J0D01*
G01*
X337600000Y-153556250D01*
G75*
G02*
X337818750Y-153775000I0J-218750D01*
G01*
X337818750Y-154212500D01*
G75*
G02*
X337600000Y-154431250I-218750J0D01*
G01*
G37*
G36*
G01*
X337600000Y-135381250D02*
X337087500Y-135381250D01*
G75*
G02*
X336868750Y-135162500I0J218750D01*
G01*
X336868750Y-134725000D01*
G75*
G02*
X337087500Y-134506250I218750J0D01*
G01*
X337600000Y-134506250D01*
G75*
G02*
X337818750Y-134725000I0J-218750D01*
G01*
X337818750Y-135162500D01*
G75*
G02*
X337600000Y-135381250I-218750J0D01*
G01*
G37*
G36*
G01*
X337600000Y-136956250D02*
X337087500Y-136956250D01*
G75*
G02*
X336868750Y-136737500I0J218750D01*
G01*
X336868750Y-136300000D01*
G75*
G02*
X337087500Y-136081250I218750J0D01*
G01*
X337600000Y-136081250D01*
G75*
G02*
X337818750Y-136300000I0J-218750D01*
G01*
X337818750Y-136737500D01*
G75*
G02*
X337600000Y-136956250I-218750J0D01*
G01*
G37*
G36*
G01*
X337600000Y-173481250D02*
X337087500Y-173481250D01*
G75*
G02*
X336868750Y-173262500I0J218750D01*
G01*
X336868750Y-172825000D01*
G75*
G02*
X337087500Y-172606250I218750J0D01*
G01*
X337600000Y-172606250D01*
G75*
G02*
X337818750Y-172825000I0J-218750D01*
G01*
X337818750Y-173262500D01*
G75*
G02*
X337600000Y-173481250I-218750J0D01*
G01*
G37*
G36*
G01*
X337600000Y-175056250D02*
X337087500Y-175056250D01*
G75*
G02*
X336868750Y-174837500I0J218750D01*
G01*
X336868750Y-174400000D01*
G75*
G02*
X337087500Y-174181250I218750J0D01*
G01*
X337600000Y-174181250D01*
G75*
G02*
X337818750Y-174400000I0J-218750D01*
G01*
X337818750Y-174837500D01*
G75*
G02*
X337600000Y-175056250I-218750J0D01*
G01*
G37*
G36*
G01*
X332837500Y-197293750D02*
X332325000Y-197293750D01*
G75*
G02*
X332106250Y-197075000I0J218750D01*
G01*
X332106250Y-196637500D01*
G75*
G02*
X332325000Y-196418750I218750J0D01*
G01*
X332837500Y-196418750D01*
G75*
G02*
X333056250Y-196637500I0J-218750D01*
G01*
X333056250Y-197075000D01*
G75*
G02*
X332837500Y-197293750I-218750J0D01*
G01*
G37*
G36*
G01*
X332837500Y-198868750D02*
X332325000Y-198868750D01*
G75*
G02*
X332106250Y-198650000I0J218750D01*
G01*
X332106250Y-198212500D01*
G75*
G02*
X332325000Y-197993750I218750J0D01*
G01*
X332837500Y-197993750D01*
G75*
G02*
X333056250Y-198212500I0J-218750D01*
G01*
X333056250Y-198650000D01*
G75*
G02*
X332837500Y-198868750I-218750J0D01*
G01*
G37*
G36*
G01*
X356650000Y-156006250D02*
X356137500Y-156006250D01*
G75*
G02*
X355918750Y-155787500I0J218750D01*
G01*
X355918750Y-155350000D01*
G75*
G02*
X356137500Y-155131250I218750J0D01*
G01*
X356650000Y-155131250D01*
G75*
G02*
X356868750Y-155350000I0J-218750D01*
G01*
X356868750Y-155787500D01*
G75*
G02*
X356650000Y-156006250I-218750J0D01*
G01*
G37*
G36*
G01*
X356650000Y-154431250D02*
X356137500Y-154431250D01*
G75*
G02*
X355918750Y-154212500I0J218750D01*
G01*
X355918750Y-153775000D01*
G75*
G02*
X356137500Y-153556250I218750J0D01*
G01*
X356650000Y-153556250D01*
G75*
G02*
X356868750Y-153775000I0J-218750D01*
G01*
X356868750Y-154212500D01*
G75*
G02*
X356650000Y-154431250I-218750J0D01*
G01*
G37*
G36*
G01*
X356650000Y-117640000D02*
X356137500Y-117640000D01*
G75*
G02*
X355918750Y-117421250I0J218750D01*
G01*
X355918750Y-116983750D01*
G75*
G02*
X356137500Y-116765000I218750J0D01*
G01*
X356650000Y-116765000D01*
G75*
G02*
X356868750Y-116983750I0J-218750D01*
G01*
X356868750Y-117421250D01*
G75*
G02*
X356650000Y-117640000I-218750J0D01*
G01*
G37*
G36*
G01*
X356650000Y-116065000D02*
X356137500Y-116065000D01*
G75*
G02*
X355918750Y-115846250I0J218750D01*
G01*
X355918750Y-115408750D01*
G75*
G02*
X356137500Y-115190000I218750J0D01*
G01*
X356650000Y-115190000D01*
G75*
G02*
X356868750Y-115408750I0J-218750D01*
G01*
X356868750Y-115846250D01*
G75*
G02*
X356650000Y-116065000I-218750J0D01*
G01*
G37*
G36*
G01*
X356650000Y-135381250D02*
X356137500Y-135381250D01*
G75*
G02*
X355918750Y-135162500I0J218750D01*
G01*
X355918750Y-134725000D01*
G75*
G02*
X356137500Y-134506250I218750J0D01*
G01*
X356650000Y-134506250D01*
G75*
G02*
X356868750Y-134725000I0J-218750D01*
G01*
X356868750Y-135162500D01*
G75*
G02*
X356650000Y-135381250I-218750J0D01*
G01*
G37*
G36*
G01*
X356650000Y-136956250D02*
X356137500Y-136956250D01*
G75*
G02*
X355918750Y-136737500I0J218750D01*
G01*
X355918750Y-136300000D01*
G75*
G02*
X356137500Y-136081250I218750J0D01*
G01*
X356650000Y-136081250D01*
G75*
G02*
X356868750Y-136300000I0J-218750D01*
G01*
X356868750Y-136737500D01*
G75*
G02*
X356650000Y-136956250I-218750J0D01*
G01*
G37*
G36*
G01*
X356650000Y-175056250D02*
X356137500Y-175056250D01*
G75*
G02*
X355918750Y-174837500I0J218750D01*
G01*
X355918750Y-174400000D01*
G75*
G02*
X356137500Y-174181250I218750J0D01*
G01*
X356650000Y-174181250D01*
G75*
G02*
X356868750Y-174400000I0J-218750D01*
G01*
X356868750Y-174837500D01*
G75*
G02*
X356650000Y-175056250I-218750J0D01*
G01*
G37*
G36*
G01*
X356650000Y-173481250D02*
X356137500Y-173481250D01*
G75*
G02*
X355918750Y-173262500I0J218750D01*
G01*
X355918750Y-172825000D01*
G75*
G02*
X356137500Y-172606250I218750J0D01*
G01*
X356650000Y-172606250D01*
G75*
G02*
X356868750Y-172825000I0J-218750D01*
G01*
X356868750Y-173262500D01*
G75*
G02*
X356650000Y-173481250I-218750J0D01*
G01*
G37*
G36*
G01*
X356650000Y-194106250D02*
X356137500Y-194106250D01*
G75*
G02*
X355918750Y-193887500I0J218750D01*
G01*
X355918750Y-193450000D01*
G75*
G02*
X356137500Y-193231250I218750J0D01*
G01*
X356650000Y-193231250D01*
G75*
G02*
X356868750Y-193450000I0J-218750D01*
G01*
X356868750Y-193887500D01*
G75*
G02*
X356650000Y-194106250I-218750J0D01*
G01*
G37*
G36*
G01*
X356650000Y-192531250D02*
X356137500Y-192531250D01*
G75*
G02*
X355918750Y-192312500I0J218750D01*
G01*
X355918750Y-191875000D01*
G75*
G02*
X356137500Y-191656250I218750J0D01*
G01*
X356650000Y-191656250D01*
G75*
G02*
X356868750Y-191875000I0J-218750D01*
G01*
X356868750Y-192312500D01*
G75*
G02*
X356650000Y-192531250I-218750J0D01*
G01*
G37*
G36*
G01*
X375700000Y-136956250D02*
X375187500Y-136956250D01*
G75*
G02*
X374968750Y-136737500I0J218750D01*
G01*
X374968750Y-136300000D01*
G75*
G02*
X375187500Y-136081250I218750J0D01*
G01*
X375700000Y-136081250D01*
G75*
G02*
X375918750Y-136300000I0J-218750D01*
G01*
X375918750Y-136737500D01*
G75*
G02*
X375700000Y-136956250I-218750J0D01*
G01*
G37*
G36*
G01*
X375700000Y-135381250D02*
X375187500Y-135381250D01*
G75*
G02*
X374968750Y-135162500I0J218750D01*
G01*
X374968750Y-134725000D01*
G75*
G02*
X375187500Y-134506250I218750J0D01*
G01*
X375700000Y-134506250D01*
G75*
G02*
X375918750Y-134725000I0J-218750D01*
G01*
X375918750Y-135162500D01*
G75*
G02*
X375700000Y-135381250I-218750J0D01*
G01*
G37*
G36*
G01*
X375700000Y-151243750D02*
X375187500Y-151243750D01*
G75*
G02*
X374968750Y-151025000I0J218750D01*
G01*
X374968750Y-150587500D01*
G75*
G02*
X375187500Y-150368750I218750J0D01*
G01*
X375700000Y-150368750D01*
G75*
G02*
X375918750Y-150587500I0J-218750D01*
G01*
X375918750Y-151025000D01*
G75*
G02*
X375700000Y-151243750I-218750J0D01*
G01*
G37*
G36*
G01*
X375700000Y-149668750D02*
X375187500Y-149668750D01*
G75*
G02*
X374968750Y-149450000I0J218750D01*
G01*
X374968750Y-149012500D01*
G75*
G02*
X375187500Y-148793750I218750J0D01*
G01*
X375700000Y-148793750D01*
G75*
G02*
X375918750Y-149012500I0J-218750D01*
G01*
X375918750Y-149450000D01*
G75*
G02*
X375700000Y-149668750I-218750J0D01*
G01*
G37*
G36*
G01*
X375700000Y-192531250D02*
X375187500Y-192531250D01*
G75*
G02*
X374968750Y-192312500I0J218750D01*
G01*
X374968750Y-191875000D01*
G75*
G02*
X375187500Y-191656250I218750J0D01*
G01*
X375700000Y-191656250D01*
G75*
G02*
X375918750Y-191875000I0J-218750D01*
G01*
X375918750Y-192312500D01*
G75*
G02*
X375700000Y-192531250I-218750J0D01*
G01*
G37*
G36*
G01*
X375700000Y-194106250D02*
X375187500Y-194106250D01*
G75*
G02*
X374968750Y-193887500I0J218750D01*
G01*
X374968750Y-193450000D01*
G75*
G02*
X375187500Y-193231250I218750J0D01*
G01*
X375700000Y-193231250D01*
G75*
G02*
X375918750Y-193450000I0J-218750D01*
G01*
X375918750Y-193887500D01*
G75*
G02*
X375700000Y-194106250I-218750J0D01*
G01*
G37*
G36*
G01*
X375700000Y-115950000D02*
X375187500Y-115950000D01*
G75*
G02*
X374968750Y-115731250I0J218750D01*
G01*
X374968750Y-115293750D01*
G75*
G02*
X375187500Y-115075000I218750J0D01*
G01*
X375700000Y-115075000D01*
G75*
G02*
X375918750Y-115293750I0J-218750D01*
G01*
X375918750Y-115731250D01*
G75*
G02*
X375700000Y-115950000I-218750J0D01*
G01*
G37*
G36*
G01*
X375700000Y-117525000D02*
X375187500Y-117525000D01*
G75*
G02*
X374968750Y-117306250I0J218750D01*
G01*
X374968750Y-116868750D01*
G75*
G02*
X375187500Y-116650000I218750J0D01*
G01*
X375700000Y-116650000D01*
G75*
G02*
X375918750Y-116868750I0J-218750D01*
G01*
X375918750Y-117306250D01*
G75*
G02*
X375700000Y-117525000I-218750J0D01*
G01*
G37*
G36*
G01*
X375700000Y-173481250D02*
X375187500Y-173481250D01*
G75*
G02*
X374968750Y-173262500I0J218750D01*
G01*
X374968750Y-172825000D01*
G75*
G02*
X375187500Y-172606250I218750J0D01*
G01*
X375700000Y-172606250D01*
G75*
G02*
X375918750Y-172825000I0J-218750D01*
G01*
X375918750Y-173262500D01*
G75*
G02*
X375700000Y-173481250I-218750J0D01*
G01*
G37*
G36*
G01*
X375700000Y-175056250D02*
X375187500Y-175056250D01*
G75*
G02*
X374968750Y-174837500I0J218750D01*
G01*
X374968750Y-174400000D01*
G75*
G02*
X375187500Y-174181250I218750J0D01*
G01*
X375700000Y-174181250D01*
G75*
G02*
X375918750Y-174400000I0J-218750D01*
G01*
X375918750Y-174837500D01*
G75*
G02*
X375700000Y-175056250I-218750J0D01*
G01*
G37*
G36*
G01*
X375700000Y-189343750D02*
X375187500Y-189343750D01*
G75*
G02*
X374968750Y-189125000I0J218750D01*
G01*
X374968750Y-188687500D01*
G75*
G02*
X375187500Y-188468750I218750J0D01*
G01*
X375700000Y-188468750D01*
G75*
G02*
X375918750Y-188687500I0J-218750D01*
G01*
X375918750Y-189125000D01*
G75*
G02*
X375700000Y-189343750I-218750J0D01*
G01*
G37*
G36*
G01*
X375700000Y-187768750D02*
X375187500Y-187768750D01*
G75*
G02*
X374968750Y-187550000I0J218750D01*
G01*
X374968750Y-187112500D01*
G75*
G02*
X375187500Y-186893750I218750J0D01*
G01*
X375700000Y-186893750D01*
G75*
G02*
X375918750Y-187112500I0J-218750D01*
G01*
X375918750Y-187550000D01*
G75*
G02*
X375700000Y-187768750I-218750J0D01*
G01*
G37*
G36*
G01*
X380462500Y-117625000D02*
X379950000Y-117625000D01*
G75*
G02*
X379731250Y-117406250I0J218750D01*
G01*
X379731250Y-116968750D01*
G75*
G02*
X379950000Y-116750000I218750J0D01*
G01*
X380462500Y-116750000D01*
G75*
G02*
X380681250Y-116968750I0J-218750D01*
G01*
X380681250Y-117406250D01*
G75*
G02*
X380462500Y-117625000I-218750J0D01*
G01*
G37*
G36*
G01*
X380462500Y-116050000D02*
X379950000Y-116050000D01*
G75*
G02*
X379731250Y-115831250I0J218750D01*
G01*
X379731250Y-115393750D01*
G75*
G02*
X379950000Y-115175000I218750J0D01*
G01*
X380462500Y-115175000D01*
G75*
G02*
X380681250Y-115393750I0J-218750D01*
G01*
X380681250Y-115831250D01*
G75*
G02*
X380462500Y-116050000I-218750J0D01*
G01*
G37*
G36*
G01*
X375700000Y-140937500D02*
X375187500Y-140937500D01*
G75*
G02*
X374968750Y-140718750I0J218750D01*
G01*
X374968750Y-140281250D01*
G75*
G02*
X375187500Y-140062500I218750J0D01*
G01*
X375700000Y-140062500D01*
G75*
G02*
X375918750Y-140281250I0J-218750D01*
G01*
X375918750Y-140718750D01*
G75*
G02*
X375700000Y-140937500I-218750J0D01*
G01*
G37*
G36*
G01*
X375700000Y-142512500D02*
X375187500Y-142512500D01*
G75*
G02*
X374968750Y-142293750I0J218750D01*
G01*
X374968750Y-141856250D01*
G75*
G02*
X375187500Y-141637500I218750J0D01*
G01*
X375700000Y-141637500D01*
G75*
G02*
X375918750Y-141856250I0J-218750D01*
G01*
X375918750Y-142293750D01*
G75*
G02*
X375700000Y-142512500I-218750J0D01*
G01*
G37*
G36*
G01*
X379668750Y-149668750D02*
X379156250Y-149668750D01*
G75*
G02*
X378937500Y-149450000I0J218750D01*
G01*
X378937500Y-149012500D01*
G75*
G02*
X379156250Y-148793750I218750J0D01*
G01*
X379668750Y-148793750D01*
G75*
G02*
X379887500Y-149012500I0J-218750D01*
G01*
X379887500Y-149450000D01*
G75*
G02*
X379668750Y-149668750I-218750J0D01*
G01*
G37*
G36*
G01*
X379668750Y-151243750D02*
X379156250Y-151243750D01*
G75*
G02*
X378937500Y-151025000I0J218750D01*
G01*
X378937500Y-150587500D01*
G75*
G02*
X379156250Y-150368750I218750J0D01*
G01*
X379668750Y-150368750D01*
G75*
G02*
X379887500Y-150587500I0J-218750D01*
G01*
X379887500Y-151025000D01*
G75*
G02*
X379668750Y-151243750I-218750J0D01*
G01*
G37*
G36*
G01*
X378875000Y-181406250D02*
X378362500Y-181406250D01*
G75*
G02*
X378143750Y-181187500I0J218750D01*
G01*
X378143750Y-180750000D01*
G75*
G02*
X378362500Y-180531250I218750J0D01*
G01*
X378875000Y-180531250D01*
G75*
G02*
X379093750Y-180750000I0J-218750D01*
G01*
X379093750Y-181187500D01*
G75*
G02*
X378875000Y-181406250I-218750J0D01*
G01*
G37*
G36*
G01*
X378875000Y-179831250D02*
X378362500Y-179831250D01*
G75*
G02*
X378143750Y-179612500I0J218750D01*
G01*
X378143750Y-179175000D01*
G75*
G02*
X378362500Y-178956250I218750J0D01*
G01*
X378875000Y-178956250D01*
G75*
G02*
X379093750Y-179175000I0J-218750D01*
G01*
X379093750Y-179612500D01*
G75*
G02*
X378875000Y-179831250I-218750J0D01*
G01*
G37*
G36*
G01*
X207323400Y-193757000D02*
X206810900Y-193757000D01*
G75*
G02*
X206592150Y-193538250I0J218750D01*
G01*
X206592150Y-193100750D01*
G75*
G02*
X206810900Y-192882000I218750J0D01*
G01*
X207323400Y-192882000D01*
G75*
G02*
X207542150Y-193100750I0J-218750D01*
G01*
X207542150Y-193538250D01*
G75*
G02*
X207323400Y-193757000I-218750J0D01*
G01*
G37*
G36*
G01*
X207323400Y-192182000D02*
X206810900Y-192182000D01*
G75*
G02*
X206592150Y-191963250I0J218750D01*
G01*
X206592150Y-191525750D01*
G75*
G02*
X206810900Y-191307000I218750J0D01*
G01*
X207323400Y-191307000D01*
G75*
G02*
X207542150Y-191525750I0J-218750D01*
G01*
X207542150Y-191963250D01*
G75*
G02*
X207323400Y-192182000I-218750J0D01*
G01*
G37*
D13*
X58661750Y-181730000D03*
X34785750Y-181730000D03*
D17*
X58661750Y-166490000D03*
X34785750Y-166490000D03*
D16*
X51803750Y-173475000D03*
X41643750Y-173475000D03*
D15*
X47993750Y-178555000D03*
D14*
X45453750Y-178555000D03*
D12*
X42913750Y-170935000D03*
D13*
X46723750Y-173475000D03*
D12*
X49263750Y-168395000D03*
X42120250Y-187445000D03*
D13*
X39580250Y-192525000D03*
D12*
X35770250Y-189985000D03*
D14*
X40850250Y-197605000D03*
D15*
X38310250Y-197605000D03*
D16*
X34500250Y-192525000D03*
X44660250Y-192525000D03*
X42278750Y-154425000D03*
X32118750Y-154425000D03*
D15*
X38468750Y-159505000D03*
D14*
X35928750Y-159505000D03*
D12*
X33388750Y-151885000D03*
D13*
X37198750Y-154425000D03*
D12*
X39738750Y-149345000D03*
D16*
X39898750Y-116325000D03*
X29738750Y-116325000D03*
D15*
X36088750Y-121405000D03*
D14*
X33548750Y-121405000D03*
D12*
X31008750Y-113785000D03*
D13*
X34818750Y-116325000D03*
D12*
X37358750Y-111245000D03*
X42121250Y-130295000D03*
D13*
X39581250Y-135375000D03*
D12*
X35771250Y-132835000D03*
D14*
X38311250Y-140455000D03*
D15*
X40851250Y-140455000D03*
D16*
X34501250Y-135375000D03*
X44661250Y-135375000D03*
D12*
X44501250Y-149345000D03*
D13*
X41961250Y-154425000D03*
D12*
X38151250Y-151885000D03*
D14*
X43231250Y-159505000D03*
D15*
X40691250Y-159505000D03*
D16*
X36881250Y-154425000D03*
X47041250Y-154425000D03*
X42278750Y-173475000D03*
X32118750Y-173475000D03*
D15*
X38468750Y-178555000D03*
D14*
X35928750Y-178555000D03*
D12*
X33388750Y-170935000D03*
D13*
X37198750Y-173475000D03*
D12*
X39738750Y-168395000D03*
D16*
X42278750Y-192525000D03*
X32118750Y-192525000D03*
D15*
X38468750Y-197605000D03*
D14*
X35928750Y-197605000D03*
D12*
X33388750Y-189985000D03*
D13*
X37198750Y-192525000D03*
D12*
X39738750Y-187445000D03*
D16*
X58948750Y-116325000D03*
X48788750Y-116325000D03*
D15*
X55138750Y-121405000D03*
D14*
X52598750Y-121405000D03*
D12*
X50058750Y-113785000D03*
D13*
X53868750Y-116325000D03*
D12*
X56408750Y-111245000D03*
X65931250Y-130295000D03*
D13*
X63391250Y-135375000D03*
D12*
X59581250Y-132835000D03*
D14*
X62121250Y-140455000D03*
D15*
X64661250Y-140455000D03*
D16*
X58311250Y-135375000D03*
X68471250Y-135375000D03*
D12*
X70693750Y-149345000D03*
D13*
X68153750Y-154425000D03*
D12*
X64343750Y-151885000D03*
D14*
X66883750Y-159505000D03*
D15*
X69423750Y-159505000D03*
D16*
X63073750Y-154425000D03*
X73233750Y-154425000D03*
X63708750Y-173475000D03*
X53548750Y-173475000D03*
D15*
X59898750Y-178555000D03*
D14*
X57358750Y-178555000D03*
D12*
X54818750Y-170935000D03*
D13*
X58628750Y-173475000D03*
D12*
X61168750Y-168395000D03*
X61169950Y-187445000D03*
D13*
X58629950Y-192525000D03*
D12*
X54819950Y-189985000D03*
D14*
X57359950Y-197605000D03*
D15*
X59899950Y-197605000D03*
D16*
X53549950Y-192525000D03*
X63709950Y-192525000D03*
X73235250Y-192525000D03*
X63075250Y-192525000D03*
D15*
X69425250Y-197605000D03*
D14*
X66885250Y-197605000D03*
D12*
X64345250Y-189985000D03*
D13*
X68155250Y-192525000D03*
D12*
X70695250Y-187445000D03*
X75458750Y-111245000D03*
D13*
X72918750Y-116325000D03*
D12*
X69108750Y-113785000D03*
D14*
X71648750Y-121405000D03*
D15*
X74188750Y-121405000D03*
D16*
X67838750Y-116325000D03*
X77998750Y-116325000D03*
X87521250Y-135375000D03*
X77361250Y-135375000D03*
D15*
X83711250Y-140455000D03*
D14*
X81171250Y-140455000D03*
D12*
X78631250Y-132835000D03*
D13*
X82441250Y-135375000D03*
D12*
X84981250Y-130295000D03*
D16*
X92283750Y-154425000D03*
X82123750Y-154425000D03*
D15*
X88473750Y-159505000D03*
D14*
X85933750Y-159505000D03*
D12*
X83393750Y-151885000D03*
D13*
X87203750Y-154425000D03*
D12*
X89743750Y-149345000D03*
X80219250Y-168395000D03*
D13*
X77679250Y-173475000D03*
D12*
X73869250Y-170935000D03*
D14*
X76409250Y-178555000D03*
D15*
X78949250Y-178555000D03*
D16*
X72599250Y-173475000D03*
X82759250Y-173475000D03*
D12*
X82601250Y-187445000D03*
D13*
X80061250Y-192525000D03*
D12*
X76251250Y-189985000D03*
D14*
X78791250Y-197605000D03*
D15*
X81331250Y-197605000D03*
D16*
X74981250Y-192525000D03*
X85141250Y-192525000D03*
X97048750Y-116325000D03*
X86888750Y-116325000D03*
D15*
X93238750Y-121405000D03*
D14*
X90698750Y-121405000D03*
D12*
X88158750Y-113785000D03*
D13*
X91968750Y-116325000D03*
D12*
X94508750Y-111245000D03*
X104031250Y-130295000D03*
D13*
X101491250Y-135375000D03*
D12*
X97681250Y-132835000D03*
D14*
X100221250Y-140455000D03*
D15*
X102761250Y-140455000D03*
D16*
X96411250Y-135375000D03*
X106571250Y-135375000D03*
D12*
X108793750Y-149345000D03*
D13*
X106253750Y-154425000D03*
D12*
X102443750Y-151885000D03*
D14*
X104983750Y-159505000D03*
D15*
X107523750Y-159505000D03*
D16*
X101173750Y-154425000D03*
X111333750Y-154425000D03*
D12*
X99268750Y-168395000D03*
D13*
X96728750Y-173475000D03*
D12*
X92918750Y-170935000D03*
D14*
X95458750Y-178555000D03*
D15*
X97998750Y-178555000D03*
D16*
X91648750Y-173475000D03*
X101808750Y-173475000D03*
X89903750Y-192525000D03*
X79743750Y-192525000D03*
D15*
X83553750Y-197605000D03*
D14*
X86093750Y-197605000D03*
D12*
X81013750Y-189985000D03*
D13*
X84823750Y-192525000D03*
D12*
X87363750Y-187445000D03*
X113558750Y-111245000D03*
D13*
X111018750Y-116325000D03*
D12*
X107208750Y-113785000D03*
D14*
X109748750Y-121405000D03*
D15*
X112288750Y-121405000D03*
D16*
X105938750Y-116325000D03*
X116098750Y-116325000D03*
X125621250Y-135375000D03*
X115461250Y-135375000D03*
D15*
X121811250Y-140455000D03*
D14*
X119271250Y-140455000D03*
D12*
X116731250Y-132835000D03*
D13*
X120541250Y-135375000D03*
D12*
X123081250Y-130295000D03*
D16*
X130383750Y-154425000D03*
X120223750Y-154425000D03*
D15*
X126573750Y-159505000D03*
D14*
X124033750Y-159505000D03*
D12*
X121493750Y-151885000D03*
D13*
X125303750Y-154425000D03*
D12*
X127843750Y-149345000D03*
D16*
X120858750Y-173475000D03*
X110698750Y-173475000D03*
D15*
X117048750Y-178555000D03*
D14*
X114508750Y-178555000D03*
D12*
X111968750Y-170935000D03*
D13*
X115778750Y-173475000D03*
D12*
X118318750Y-168395000D03*
D16*
X135148750Y-116325000D03*
X124988750Y-116325000D03*
D15*
X131338750Y-121405000D03*
D14*
X128798750Y-121405000D03*
D12*
X126258750Y-113785000D03*
D13*
X130068750Y-116325000D03*
D12*
X132608750Y-111245000D03*
X142131250Y-130295000D03*
D13*
X139591250Y-135375000D03*
D12*
X135781250Y-132835000D03*
D14*
X138321250Y-140455000D03*
D15*
X140861250Y-140455000D03*
D16*
X134511250Y-135375000D03*
X144671250Y-135375000D03*
D12*
X146898750Y-149345000D03*
D13*
X144358750Y-154425000D03*
D12*
X140548750Y-151885000D03*
D14*
X143088750Y-159505000D03*
D15*
X145628750Y-159505000D03*
D16*
X139278750Y-154425000D03*
X149438750Y-154425000D03*
X139908750Y-173475000D03*
X129748750Y-173475000D03*
D15*
X136098750Y-178555000D03*
D14*
X133558750Y-178555000D03*
D12*
X131018750Y-170935000D03*
D13*
X134828750Y-173475000D03*
D12*
X137368750Y-168395000D03*
X158801250Y-187445000D03*
D13*
X156261250Y-192525000D03*
D12*
X152451250Y-189985000D03*
D14*
X157531250Y-197605000D03*
D15*
X154991250Y-197605000D03*
D16*
X151181250Y-192525000D03*
X161341250Y-192525000D03*
D17*
X106261350Y-199510000D03*
X206261150Y-199510000D03*
D13*
X106261350Y-184270000D03*
X206261150Y-184270000D03*
D12*
X151658750Y-111245000D03*
D13*
X149118750Y-116325000D03*
D12*
X145308750Y-113785000D03*
D14*
X147848750Y-121405000D03*
D15*
X150388750Y-121405000D03*
D16*
X144038750Y-116325000D03*
X154198750Y-116325000D03*
D12*
X161181250Y-130295000D03*
D13*
X158641250Y-135375000D03*
D12*
X154831250Y-132835000D03*
D14*
X157371250Y-140455000D03*
D15*
X159911250Y-140455000D03*
D16*
X153561250Y-135375000D03*
X163721250Y-135375000D03*
X168488750Y-154425000D03*
X158328750Y-154425000D03*
D15*
X164678750Y-159505000D03*
D14*
X162138750Y-159505000D03*
D12*
X159598750Y-151885000D03*
D13*
X163408750Y-154425000D03*
D12*
X165948750Y-149345000D03*
X156418750Y-168395000D03*
D13*
X153878750Y-173475000D03*
D12*
X150068750Y-170935000D03*
D14*
X152608750Y-178555000D03*
D15*
X155148750Y-178555000D03*
D16*
X148798750Y-173475000D03*
X158958750Y-173475000D03*
D12*
X161182750Y-187445000D03*
D13*
X158642750Y-192525000D03*
D12*
X154832750Y-189985000D03*
D14*
X157372750Y-197605000D03*
D15*
X159912750Y-197605000D03*
D16*
X153562750Y-192525000D03*
X163722750Y-192525000D03*
D17*
X101492750Y-199510000D03*
X196742750Y-199510000D03*
D13*
X101492750Y-184270000D03*
X196742750Y-184270000D03*
D16*
X173248750Y-116325000D03*
X163088750Y-116325000D03*
D15*
X169438750Y-121405000D03*
D14*
X166898750Y-121405000D03*
D12*
X164358750Y-113785000D03*
D13*
X168168750Y-116325000D03*
D12*
X170708750Y-111245000D03*
D16*
X182771250Y-135375000D03*
X172611250Y-135375000D03*
D15*
X178961250Y-140455000D03*
D14*
X176421250Y-140455000D03*
D12*
X173881250Y-132835000D03*
D13*
X177691250Y-135375000D03*
D12*
X180231250Y-130295000D03*
X184998750Y-149345000D03*
D13*
X182458750Y-154425000D03*
D12*
X178648750Y-151885000D03*
D14*
X181188750Y-159505000D03*
D15*
X183728750Y-159505000D03*
D16*
X177378750Y-154425000D03*
X187538750Y-154425000D03*
X178008750Y-173475000D03*
X167848750Y-173475000D03*
D15*
X174198750Y-178555000D03*
D14*
X171658750Y-178555000D03*
D12*
X169118750Y-170935000D03*
D13*
X172928750Y-173475000D03*
D12*
X175468750Y-168395000D03*
X189758750Y-111245000D03*
D13*
X187218750Y-116325000D03*
D12*
X183408750Y-113785000D03*
D14*
X185948750Y-121405000D03*
D15*
X188488750Y-121405000D03*
D16*
X182138750Y-116325000D03*
X192298750Y-116325000D03*
D12*
X199281250Y-130295000D03*
D13*
X196741250Y-135375000D03*
D12*
X192931250Y-132835000D03*
D14*
X195471250Y-140455000D03*
D15*
X198011250Y-140455000D03*
D16*
X191661250Y-135375000D03*
X201821250Y-135375000D03*
X206588750Y-154425000D03*
X196428750Y-154425000D03*
D15*
X202778750Y-159505000D03*
D14*
X200238750Y-159505000D03*
D12*
X197698750Y-151885000D03*
D13*
X201508750Y-154425000D03*
D12*
X204048750Y-149345000D03*
X194518750Y-168395000D03*
D13*
X191978750Y-173475000D03*
D12*
X188168750Y-170935000D03*
D14*
X190708750Y-178555000D03*
D15*
X193248750Y-178555000D03*
D16*
X186898750Y-173475000D03*
X197058750Y-173475000D03*
X211348750Y-116325000D03*
X201188750Y-116325000D03*
D15*
X207538750Y-121405000D03*
D14*
X204998750Y-121405000D03*
D12*
X202458750Y-113785000D03*
D13*
X206268750Y-116325000D03*
D12*
X208808750Y-111245000D03*
D16*
X220871250Y-135375000D03*
X210711250Y-135375000D03*
D15*
X217061250Y-140455000D03*
D14*
X214521250Y-140455000D03*
D12*
X211981250Y-132835000D03*
D13*
X215791250Y-135375000D03*
D12*
X218331250Y-130295000D03*
X223098750Y-149345000D03*
D13*
X220558750Y-154425000D03*
D12*
X216748750Y-151885000D03*
D14*
X219288750Y-159505000D03*
D15*
X221828750Y-159505000D03*
D16*
X215478750Y-154425000D03*
X225638750Y-154425000D03*
X216108750Y-173475000D03*
X205948750Y-173475000D03*
D15*
X212298750Y-178555000D03*
D14*
X209758750Y-178555000D03*
D12*
X207218750Y-170935000D03*
D13*
X211028750Y-173475000D03*
D12*
X213568750Y-168395000D03*
X220713750Y-187445000D03*
D13*
X218173750Y-192525000D03*
D12*
X214363750Y-189985000D03*
D14*
X216903750Y-197605000D03*
D15*
X219443750Y-197605000D03*
D16*
X213093750Y-192525000D03*
X223253750Y-192525000D03*
X235160250Y-192525000D03*
X225000250Y-192525000D03*
D15*
X231350250Y-197605000D03*
D14*
X228810250Y-197605000D03*
D12*
X226270250Y-189985000D03*
D13*
X230080250Y-192525000D03*
D12*
X232620250Y-187445000D03*
X227858750Y-111245000D03*
D13*
X225318750Y-116325000D03*
D12*
X221508750Y-113785000D03*
D14*
X224048750Y-121405000D03*
D15*
X226588750Y-121405000D03*
D16*
X220238750Y-116325000D03*
X230398750Y-116325000D03*
D12*
X237381250Y-130295000D03*
D13*
X234841250Y-135375000D03*
D12*
X231031250Y-132835000D03*
D14*
X233571250Y-140455000D03*
D15*
X236111250Y-140455000D03*
D16*
X229761250Y-135375000D03*
X239921250Y-135375000D03*
X244688750Y-154425000D03*
X234528750Y-154425000D03*
D15*
X240878750Y-159505000D03*
D14*
X238338750Y-159505000D03*
D12*
X235798750Y-151885000D03*
D13*
X239608750Y-154425000D03*
D12*
X242148750Y-149345000D03*
D16*
X235158750Y-173475000D03*
X224998750Y-173475000D03*
D15*
X231348750Y-178555000D03*
D14*
X228808750Y-178555000D03*
D12*
X226268750Y-170935000D03*
D13*
X230078750Y-173475000D03*
D12*
X232618750Y-168395000D03*
X242144750Y-187445000D03*
D13*
X239604750Y-192525000D03*
D12*
X235794750Y-189985000D03*
D14*
X238334750Y-197605000D03*
D15*
X240874750Y-197605000D03*
D16*
X234524750Y-192525000D03*
X244684750Y-192525000D03*
D12*
X261195250Y-187445000D03*
D13*
X258655250Y-192525000D03*
D12*
X254845250Y-189985000D03*
D14*
X257385250Y-197605000D03*
D15*
X259925250Y-197605000D03*
D16*
X253575250Y-192525000D03*
X263735250Y-192525000D03*
X249448750Y-116325000D03*
X239288750Y-116325000D03*
D15*
X245638750Y-121405000D03*
D14*
X243098750Y-121405000D03*
D12*
X240558750Y-113785000D03*
D13*
X244368750Y-116325000D03*
D12*
X246908750Y-111245000D03*
D16*
X258971250Y-135375000D03*
X248811250Y-135375000D03*
D15*
X255161250Y-140455000D03*
D14*
X252621250Y-140455000D03*
D12*
X250081250Y-132835000D03*
D13*
X253891250Y-135375000D03*
D12*
X256431250Y-130295000D03*
D16*
X263738750Y-154425000D03*
X253578750Y-154425000D03*
D15*
X259928750Y-159505000D03*
D14*
X257388750Y-159505000D03*
D12*
X254848750Y-151885000D03*
D13*
X258658750Y-154425000D03*
D12*
X261198750Y-149345000D03*
X251668750Y-168395000D03*
D13*
X249128750Y-173475000D03*
D12*
X245318750Y-170935000D03*
D14*
X247858750Y-178555000D03*
D15*
X250398750Y-178555000D03*
D16*
X244048750Y-173475000D03*
X254208750Y-173475000D03*
D12*
X263575750Y-187445000D03*
D13*
X261035750Y-192525000D03*
D12*
X257225750Y-189985000D03*
D14*
X262305750Y-197605000D03*
D15*
X259765750Y-197605000D03*
D16*
X255955750Y-192525000D03*
X266115750Y-192525000D03*
X268498750Y-116325000D03*
X258338750Y-116325000D03*
D15*
X264688750Y-121405000D03*
D14*
X262148750Y-121405000D03*
D12*
X259608750Y-113785000D03*
D13*
X263418750Y-116325000D03*
D12*
X265958750Y-111245000D03*
X275480250Y-130295000D03*
D13*
X272940250Y-135375000D03*
D12*
X269130250Y-132835000D03*
D14*
X271670250Y-140455000D03*
D15*
X274210250Y-140455000D03*
D16*
X267860250Y-135375000D03*
X278020250Y-135375000D03*
X282788750Y-154425000D03*
X272628750Y-154425000D03*
D15*
X278978750Y-159505000D03*
D14*
X276438750Y-159505000D03*
D12*
X273898750Y-151885000D03*
D13*
X277708750Y-154425000D03*
D12*
X280248750Y-149345000D03*
X277862250Y-168395000D03*
D13*
X275322250Y-173475000D03*
D12*
X271512250Y-170935000D03*
D14*
X274052250Y-178555000D03*
D15*
X276592250Y-178555000D03*
D16*
X270242250Y-173475000D03*
X280402250Y-173475000D03*
X292308750Y-197285000D03*
X282148750Y-197285000D03*
D15*
X288498750Y-202365000D03*
D14*
X285958750Y-202365000D03*
D12*
X283418750Y-194745000D03*
D13*
X287228750Y-197285000D03*
D12*
X289768750Y-192205000D03*
X285008750Y-111245000D03*
D13*
X282468750Y-116325000D03*
D12*
X278658750Y-113785000D03*
D14*
X281198750Y-121405000D03*
D15*
X283738750Y-121405000D03*
D16*
X277388750Y-116325000D03*
X287548750Y-116325000D03*
D12*
X301680250Y-139820000D03*
D13*
X299140250Y-144900000D03*
D12*
X295330250Y-142360000D03*
D14*
X297870250Y-149980000D03*
D15*
X300410250Y-149980000D03*
D16*
X294060250Y-144900000D03*
X304220250Y-144900000D03*
D17*
X306125250Y-156838000D03*
X306125250Y-132962000D03*
D13*
X290885250Y-156838000D03*
X290885250Y-132962000D03*
D12*
X294533250Y-111245000D03*
D13*
X291993250Y-116325000D03*
D12*
X288183250Y-113785000D03*
D14*
X290723250Y-121405000D03*
D15*
X293263250Y-121405000D03*
D16*
X286913250Y-116325000D03*
X297073250Y-116325000D03*
D17*
X280055250Y-109340000D03*
X303931250Y-109340000D03*
D13*
X280055250Y-124580000D03*
X303931250Y-124580000D03*
D12*
X292154750Y-149345000D03*
D13*
X289614750Y-154425000D03*
D12*
X285804750Y-151885000D03*
D14*
X288344750Y-159505000D03*
D15*
X290884750Y-159505000D03*
D16*
X284534750Y-154425000D03*
X294694750Y-154425000D03*
D17*
X277676750Y-147440000D03*
X301552750Y-147440000D03*
D13*
X277676750Y-162680000D03*
X301552750Y-162680000D03*
D16*
X311198750Y-178125000D03*
X301038750Y-178125000D03*
D15*
X307388750Y-183205000D03*
D14*
X304848750Y-183205000D03*
D12*
X302308750Y-175585000D03*
D13*
X306118750Y-178125000D03*
D12*
X308658750Y-173045000D03*
X308818750Y-192205000D03*
D13*
X306278750Y-197285000D03*
D12*
X302468750Y-194745000D03*
D14*
X305008750Y-202365000D03*
D15*
X307548750Y-202365000D03*
D16*
X301198750Y-197285000D03*
X311358750Y-197285000D03*
X306598750Y-116325000D03*
X296438750Y-116325000D03*
D15*
X302788750Y-121405000D03*
D14*
X300248750Y-121405000D03*
D12*
X297708750Y-113785000D03*
D13*
X301518750Y-116325000D03*
D12*
X304058750Y-111245000D03*
X332638750Y-111245000D03*
D13*
X330098750Y-116325000D03*
D12*
X326288750Y-113785000D03*
D14*
X328828750Y-121405000D03*
D15*
X331368750Y-121405000D03*
D16*
X325018750Y-116325000D03*
X335178750Y-116325000D03*
X335178750Y-135375000D03*
X325018750Y-135375000D03*
D15*
X331368750Y-140455000D03*
D14*
X328828750Y-140455000D03*
D12*
X326288750Y-132835000D03*
D13*
X330098750Y-135375000D03*
D12*
X332638750Y-130295000D03*
D16*
X335178750Y-154425000D03*
X325018750Y-154425000D03*
D15*
X331368750Y-159505000D03*
D14*
X328828750Y-159505000D03*
D12*
X326288750Y-151885000D03*
D13*
X330098750Y-154425000D03*
D12*
X332638750Y-149345000D03*
X332638750Y-168395000D03*
D13*
X330098750Y-173475000D03*
D12*
X326288750Y-170935000D03*
D14*
X328828750Y-178555000D03*
D15*
X331368750Y-178555000D03*
D16*
X325018750Y-173475000D03*
X335178750Y-173475000D03*
D12*
X327868750Y-192205000D03*
D13*
X325328750Y-197285000D03*
D12*
X321518750Y-194745000D03*
D14*
X324058750Y-202365000D03*
D15*
X326598750Y-202365000D03*
D16*
X320248750Y-197285000D03*
X330408750Y-197285000D03*
X354228750Y-116325000D03*
X344068750Y-116325000D03*
D15*
X350418750Y-121405000D03*
D14*
X347878750Y-121405000D03*
D12*
X345338750Y-113785000D03*
D13*
X349148750Y-116325000D03*
D12*
X351688750Y-111245000D03*
X351688750Y-130295000D03*
D13*
X349148750Y-135375000D03*
D12*
X345338750Y-132835000D03*
D14*
X347878750Y-140455000D03*
D15*
X350418750Y-140455000D03*
D16*
X344068750Y-135375000D03*
X354228750Y-135375000D03*
D12*
X351688750Y-149345000D03*
D13*
X349148750Y-154425000D03*
D12*
X345338750Y-151885000D03*
D14*
X347878750Y-159505000D03*
D15*
X350418750Y-159505000D03*
D16*
X344068750Y-154425000D03*
X354228750Y-154425000D03*
D12*
X351688750Y-168395000D03*
D13*
X349148750Y-173475000D03*
D12*
X345338750Y-170935000D03*
D14*
X347878750Y-178555000D03*
D15*
X350418750Y-178555000D03*
D16*
X344068750Y-173475000D03*
X354228750Y-173475000D03*
X354228750Y-192525000D03*
X344068750Y-192525000D03*
D15*
X350418750Y-197605000D03*
D14*
X347878750Y-197605000D03*
D12*
X345338750Y-189985000D03*
D13*
X349148750Y-192525000D03*
D12*
X351688750Y-187445000D03*
X370738750Y-111245000D03*
D13*
X368198750Y-116325000D03*
D12*
X364388750Y-113785000D03*
D14*
X366928750Y-121405000D03*
D15*
X369468750Y-121405000D03*
D16*
X363118750Y-116325000D03*
X373278750Y-116325000D03*
X373278750Y-135375000D03*
X363118750Y-135375000D03*
D15*
X369468750Y-140455000D03*
D14*
X366928750Y-140455000D03*
D12*
X364388750Y-132835000D03*
D13*
X368198750Y-135375000D03*
D12*
X370738750Y-130295000D03*
X370738750Y-149345000D03*
D13*
X368198750Y-154425000D03*
D12*
X364388750Y-151885000D03*
D14*
X366928750Y-159505000D03*
D15*
X369468750Y-159505000D03*
D16*
X363118750Y-154425000D03*
X373278750Y-154425000D03*
D12*
X370738750Y-168395000D03*
D13*
X368198750Y-173475000D03*
D12*
X364388750Y-170935000D03*
D14*
X366928750Y-178555000D03*
D15*
X369468750Y-178555000D03*
D16*
X363118750Y-173475000D03*
X373278750Y-173475000D03*
X373278750Y-192525000D03*
X363118750Y-192525000D03*
D15*
X369468750Y-197605000D03*
D14*
X366928750Y-197605000D03*
D12*
X364388750Y-189985000D03*
D13*
X368198750Y-192525000D03*
D12*
X370738750Y-187445000D03*
D16*
X392328750Y-135372000D03*
X382168750Y-135372000D03*
D15*
X388518750Y-140452000D03*
D14*
X385978750Y-140452000D03*
D12*
X383438750Y-132832000D03*
D13*
X387248750Y-135372000D03*
D12*
X389788750Y-130292000D03*
X389788750Y-168395000D03*
D13*
X387248750Y-173475000D03*
D12*
X383438750Y-170935000D03*
D14*
X385978750Y-178555000D03*
D15*
X388518750Y-178555000D03*
D16*
X382168750Y-173475000D03*
X392328750Y-173475000D03*
D12*
X389788750Y-187445000D03*
D13*
X387248750Y-192525000D03*
D12*
X383438750Y-189985000D03*
D14*
X385978750Y-197605000D03*
D15*
X388518750Y-197605000D03*
D16*
X382168750Y-192525000D03*
X392328750Y-192525000D03*
X392328750Y-116325000D03*
X382168750Y-116325000D03*
D15*
X388518750Y-121405000D03*
D14*
X385978750Y-121405000D03*
D12*
X383438750Y-113785000D03*
D13*
X387248750Y-116325000D03*
D12*
X389788750Y-111245000D03*
X382168750Y-142355000D03*
D13*
X387248750Y-144895000D03*
D12*
X384708750Y-148705000D03*
D14*
X392328750Y-146165000D03*
D15*
X392328750Y-143625000D03*
D16*
X387248750Y-149975000D03*
X387248750Y-139815000D03*
D17*
X394233750Y-156833000D03*
X394233750Y-132957000D03*
D13*
X378993750Y-156833000D03*
X378993750Y-132957000D03*
D12*
X389788750Y-149345000D03*
D13*
X387248750Y-154425000D03*
D12*
X383438750Y-151885000D03*
D14*
X385978750Y-159505000D03*
D15*
X388518750Y-159505000D03*
D16*
X382168750Y-154425000D03*
X392328750Y-154425000D03*
D13*
X378993750Y-171057000D03*
X378993750Y-194933000D03*
D17*
X394233750Y-171057000D03*
X394233750Y-194933000D03*
D16*
X387248750Y-177915000D03*
X387248750Y-188075000D03*
D15*
X392328750Y-181725000D03*
D14*
X392328750Y-184265000D03*
D12*
X384708750Y-186805000D03*
D13*
X387248750Y-182995000D03*
D12*
X382168750Y-180455000D03*
X154044650Y-187452000D03*
D13*
X151504650Y-192532000D03*
D12*
X147694650Y-189992000D03*
D14*
X150234650Y-197612000D03*
D15*
X152774650Y-197612000D03*
D16*
X146424650Y-192532000D03*
X156584650Y-192532000D03*
D13*
X206305150Y-184277000D03*
X182429150Y-184277000D03*
D17*
X206305150Y-199517000D03*
X182429150Y-199517000D03*
D16*
X199447150Y-192532000D03*
X189287150Y-192532000D03*
D15*
X195637150Y-197612000D03*
D14*
X193097150Y-197612000D03*
D12*
X190557150Y-189992000D03*
D13*
X194367150Y-192532000D03*
D12*
X196907150Y-187452000D03*
G36*
G01*
X313590650Y-152558000D02*
X313078150Y-152558000D01*
G75*
G02*
X312859400Y-152339250I0J218750D01*
G01*
X312859400Y-151901750D01*
G75*
G02*
X313078150Y-151683000I218750J0D01*
G01*
X313590650Y-151683000D01*
G75*
G02*
X313809400Y-151901750I0J-218750D01*
G01*
X313809400Y-152339250D01*
G75*
G02*
X313590650Y-152558000I-218750J0D01*
G01*
G37*
G36*
G01*
X313590650Y-154133000D02*
X313078150Y-154133000D01*
G75*
G02*
X312859400Y-153914250I0J218750D01*
G01*
X312859400Y-153476750D01*
G75*
G02*
X313078150Y-153258000I218750J0D01*
G01*
X313590650Y-153258000D01*
G75*
G02*
X313809400Y-153476750I0J-218750D01*
G01*
X313809400Y-153914250D01*
G75*
G02*
X313590650Y-154133000I-218750J0D01*
G01*
G37*
G36*
G01*
X315011590Y-174402403D02*
X314649197Y-174040010D01*
G75*
G02*
X314649197Y-173730650I154680J154680D01*
G01*
X314958556Y-173421291D01*
G75*
G02*
X315267916Y-173421291I154680J-154680D01*
G01*
X315630309Y-173783684D01*
G75*
G02*
X315630309Y-174093044I-154680J-154680D01*
G01*
X315320950Y-174402403D01*
G75*
G02*
X315011590Y-174402403I-154680J154680D01*
G01*
G37*
G36*
G01*
X316125284Y-173288709D02*
X315762891Y-172926316D01*
G75*
G02*
X315762891Y-172616956I154680J154680D01*
G01*
X316072250Y-172307597D01*
G75*
G02*
X316381610Y-172307597I154680J-154680D01*
G01*
X316744003Y-172669990D01*
G75*
G02*
X316744003Y-172979350I-154680J-154680D01*
G01*
X316434644Y-173288709D01*
G75*
G02*
X316125284Y-173288709I-154680J154680D01*
G01*
G37*
G36*
G01*
X317396150Y-126854500D02*
X317908650Y-126854500D01*
G75*
G02*
X318127400Y-127073250I0J-218750D01*
G01*
X318127400Y-127510750D01*
G75*
G02*
X317908650Y-127729500I-218750J0D01*
G01*
X317396150Y-127729500D01*
G75*
G02*
X317177400Y-127510750I0J218750D01*
G01*
X317177400Y-127073250D01*
G75*
G02*
X317396150Y-126854500I218750J0D01*
G01*
G37*
G36*
G01*
X317396150Y-128429500D02*
X317908650Y-128429500D01*
G75*
G02*
X318127400Y-128648250I0J-218750D01*
G01*
X318127400Y-129085750D01*
G75*
G02*
X317908650Y-129304500I-218750J0D01*
G01*
X317396150Y-129304500D01*
G75*
G02*
X317177400Y-129085750I0J218750D01*
G01*
X317177400Y-128648250D01*
G75*
G02*
X317396150Y-128429500I218750J0D01*
G01*
G37*
G36*
G01*
X38637500Y-121125000D02*
X39150000Y-121125000D01*
G75*
G02*
X39368750Y-121343750I0J-218750D01*
G01*
X39368750Y-121781250D01*
G75*
G02*
X39150000Y-122000000I-218750J0D01*
G01*
X38637500Y-122000000D01*
G75*
G02*
X38418750Y-121781250I0J218750D01*
G01*
X38418750Y-121343750D01*
G75*
G02*
X38637500Y-121125000I218750J0D01*
G01*
G37*
G36*
G01*
X38637500Y-122700000D02*
X39150000Y-122700000D01*
G75*
G02*
X39368750Y-122918750I0J-218750D01*
G01*
X39368750Y-123356250D01*
G75*
G02*
X39150000Y-123575000I-218750J0D01*
G01*
X38637500Y-123575000D01*
G75*
G02*
X38418750Y-123356250I0J218750D01*
G01*
X38418750Y-122918750D01*
G75*
G02*
X38637500Y-122700000I218750J0D01*
G01*
G37*
G36*
G01*
X43400000Y-141750000D02*
X43912500Y-141750000D01*
G75*
G02*
X44131250Y-141968750I0J-218750D01*
G01*
X44131250Y-142406250D01*
G75*
G02*
X43912500Y-142625000I-218750J0D01*
G01*
X43400000Y-142625000D01*
G75*
G02*
X43181250Y-142406250I0J218750D01*
G01*
X43181250Y-141968750D01*
G75*
G02*
X43400000Y-141750000I218750J0D01*
G01*
G37*
G36*
G01*
X43400000Y-140175000D02*
X43912500Y-140175000D01*
G75*
G02*
X44131250Y-140393750I0J-218750D01*
G01*
X44131250Y-140831250D01*
G75*
G02*
X43912500Y-141050000I-218750J0D01*
G01*
X43400000Y-141050000D01*
G75*
G02*
X43181250Y-140831250I0J218750D01*
G01*
X43181250Y-140393750D01*
G75*
G02*
X43400000Y-140175000I218750J0D01*
G01*
G37*
G36*
G01*
X45781250Y-159225000D02*
X46293750Y-159225000D01*
G75*
G02*
X46512500Y-159443750I0J-218750D01*
G01*
X46512500Y-159881250D01*
G75*
G02*
X46293750Y-160100000I-218750J0D01*
G01*
X45781250Y-160100000D01*
G75*
G02*
X45562500Y-159881250I0J218750D01*
G01*
X45562500Y-159443750D01*
G75*
G02*
X45781250Y-159225000I218750J0D01*
G01*
G37*
G36*
G01*
X45781250Y-160800000D02*
X46293750Y-160800000D01*
G75*
G02*
X46512500Y-161018750I0J-218750D01*
G01*
X46512500Y-161456250D01*
G75*
G02*
X46293750Y-161675000I-218750J0D01*
G01*
X45781250Y-161675000D01*
G75*
G02*
X45562500Y-161456250I0J218750D01*
G01*
X45562500Y-161018750D01*
G75*
G02*
X45781250Y-160800000I218750J0D01*
G01*
G37*
G36*
G01*
X50543750Y-179900000D02*
X51056250Y-179900000D01*
G75*
G02*
X51275000Y-180118750I0J-218750D01*
G01*
X51275000Y-180556250D01*
G75*
G02*
X51056250Y-180775000I-218750J0D01*
G01*
X50543750Y-180775000D01*
G75*
G02*
X50325000Y-180556250I0J218750D01*
G01*
X50325000Y-180118750D01*
G75*
G02*
X50543750Y-179900000I218750J0D01*
G01*
G37*
G36*
G01*
X50543750Y-178325000D02*
X51056250Y-178325000D01*
G75*
G02*
X51275000Y-178543750I0J-218750D01*
G01*
X51275000Y-178981250D01*
G75*
G02*
X51056250Y-179200000I-218750J0D01*
G01*
X50543750Y-179200000D01*
G75*
G02*
X50325000Y-178981250I0J218750D01*
G01*
X50325000Y-178543750D01*
G75*
G02*
X50543750Y-178325000I218750J0D01*
G01*
G37*
G36*
G01*
X43400000Y-199000000D02*
X43912500Y-199000000D01*
G75*
G02*
X44131250Y-199218750I0J-218750D01*
G01*
X44131250Y-199656250D01*
G75*
G02*
X43912500Y-199875000I-218750J0D01*
G01*
X43400000Y-199875000D01*
G75*
G02*
X43181250Y-199656250I0J218750D01*
G01*
X43181250Y-199218750D01*
G75*
G02*
X43400000Y-199000000I218750J0D01*
G01*
G37*
G36*
G01*
X43400000Y-197425000D02*
X43912500Y-197425000D01*
G75*
G02*
X44131250Y-197643750I0J-218750D01*
G01*
X44131250Y-198081250D01*
G75*
G02*
X43912500Y-198300000I-218750J0D01*
G01*
X43400000Y-198300000D01*
G75*
G02*
X43181250Y-198081250I0J218750D01*
G01*
X43181250Y-197643750D01*
G75*
G02*
X43400000Y-197425000I218750J0D01*
G01*
G37*
G36*
G01*
X57687500Y-122775000D02*
X58200000Y-122775000D01*
G75*
G02*
X58418750Y-122993750I0J-218750D01*
G01*
X58418750Y-123431250D01*
G75*
G02*
X58200000Y-123650000I-218750J0D01*
G01*
X57687500Y-123650000D01*
G75*
G02*
X57468750Y-123431250I0J218750D01*
G01*
X57468750Y-122993750D01*
G75*
G02*
X57687500Y-122775000I218750J0D01*
G01*
G37*
G36*
G01*
X57687500Y-121200000D02*
X58200000Y-121200000D01*
G75*
G02*
X58418750Y-121418750I0J-218750D01*
G01*
X58418750Y-121856250D01*
G75*
G02*
X58200000Y-122075000I-218750J0D01*
G01*
X57687500Y-122075000D01*
G75*
G02*
X57468750Y-121856250I0J218750D01*
G01*
X57468750Y-121418750D01*
G75*
G02*
X57687500Y-121200000I218750J0D01*
G01*
G37*
G36*
G01*
X67212500Y-140225000D02*
X67725000Y-140225000D01*
G75*
G02*
X67943750Y-140443750I0J-218750D01*
G01*
X67943750Y-140881250D01*
G75*
G02*
X67725000Y-141100000I-218750J0D01*
G01*
X67212500Y-141100000D01*
G75*
G02*
X66993750Y-140881250I0J218750D01*
G01*
X66993750Y-140443750D01*
G75*
G02*
X67212500Y-140225000I218750J0D01*
G01*
G37*
G36*
G01*
X67212500Y-141800000D02*
X67725000Y-141800000D01*
G75*
G02*
X67943750Y-142018750I0J-218750D01*
G01*
X67943750Y-142456250D01*
G75*
G02*
X67725000Y-142675000I-218750J0D01*
G01*
X67212500Y-142675000D01*
G75*
G02*
X66993750Y-142456250I0J218750D01*
G01*
X66993750Y-142018750D01*
G75*
G02*
X67212500Y-141800000I218750J0D01*
G01*
G37*
G36*
G01*
X71975000Y-159300000D02*
X72487500Y-159300000D01*
G75*
G02*
X72706250Y-159518750I0J-218750D01*
G01*
X72706250Y-159956250D01*
G75*
G02*
X72487500Y-160175000I-218750J0D01*
G01*
X71975000Y-160175000D01*
G75*
G02*
X71756250Y-159956250I0J218750D01*
G01*
X71756250Y-159518750D01*
G75*
G02*
X71975000Y-159300000I218750J0D01*
G01*
G37*
G36*
G01*
X71975000Y-160875000D02*
X72487500Y-160875000D01*
G75*
G02*
X72706250Y-161093750I0J-218750D01*
G01*
X72706250Y-161531250D01*
G75*
G02*
X72487500Y-161750000I-218750J0D01*
G01*
X71975000Y-161750000D01*
G75*
G02*
X71756250Y-161531250I0J218750D01*
G01*
X71756250Y-161093750D01*
G75*
G02*
X71975000Y-160875000I218750J0D01*
G01*
G37*
G36*
G01*
X62450000Y-178275000D02*
X62962500Y-178275000D01*
G75*
G02*
X63181250Y-178493750I0J-218750D01*
G01*
X63181250Y-178931250D01*
G75*
G02*
X62962500Y-179150000I-218750J0D01*
G01*
X62450000Y-179150000D01*
G75*
G02*
X62231250Y-178931250I0J218750D01*
G01*
X62231250Y-178493750D01*
G75*
G02*
X62450000Y-178275000I218750J0D01*
G01*
G37*
G36*
G01*
X62450000Y-179850000D02*
X62962500Y-179850000D01*
G75*
G02*
X63181250Y-180068750I0J-218750D01*
G01*
X63181250Y-180506250D01*
G75*
G02*
X62962500Y-180725000I-218750J0D01*
G01*
X62450000Y-180725000D01*
G75*
G02*
X62231250Y-180506250I0J218750D01*
G01*
X62231250Y-180068750D01*
G75*
G02*
X62450000Y-179850000I218750J0D01*
G01*
G37*
G36*
G01*
X53718750Y-197425000D02*
X54231250Y-197425000D01*
G75*
G02*
X54450000Y-197643750I0J-218750D01*
G01*
X54450000Y-198081250D01*
G75*
G02*
X54231250Y-198300000I-218750J0D01*
G01*
X53718750Y-198300000D01*
G75*
G02*
X53500000Y-198081250I0J218750D01*
G01*
X53500000Y-197643750D01*
G75*
G02*
X53718750Y-197425000I218750J0D01*
G01*
G37*
G36*
G01*
X53718750Y-199000000D02*
X54231250Y-199000000D01*
G75*
G02*
X54450000Y-199218750I0J-218750D01*
G01*
X54450000Y-199656250D01*
G75*
G02*
X54231250Y-199875000I-218750J0D01*
G01*
X53718750Y-199875000D01*
G75*
G02*
X53500000Y-199656250I0J218750D01*
G01*
X53500000Y-199218750D01*
G75*
G02*
X53718750Y-199000000I218750J0D01*
G01*
G37*
G36*
G01*
X76737500Y-121225000D02*
X77250000Y-121225000D01*
G75*
G02*
X77468750Y-121443750I0J-218750D01*
G01*
X77468750Y-121881250D01*
G75*
G02*
X77250000Y-122100000I-218750J0D01*
G01*
X76737500Y-122100000D01*
G75*
G02*
X76518750Y-121881250I0J218750D01*
G01*
X76518750Y-121443750D01*
G75*
G02*
X76737500Y-121225000I218750J0D01*
G01*
G37*
G36*
G01*
X76737500Y-122800000D02*
X77250000Y-122800000D01*
G75*
G02*
X77468750Y-123018750I0J-218750D01*
G01*
X77468750Y-123456250D01*
G75*
G02*
X77250000Y-123675000I-218750J0D01*
G01*
X76737500Y-123675000D01*
G75*
G02*
X76518750Y-123456250I0J218750D01*
G01*
X76518750Y-123018750D01*
G75*
G02*
X76737500Y-122800000I218750J0D01*
G01*
G37*
G36*
G01*
X86262500Y-140225000D02*
X86775000Y-140225000D01*
G75*
G02*
X86993750Y-140443750I0J-218750D01*
G01*
X86993750Y-140881250D01*
G75*
G02*
X86775000Y-141100000I-218750J0D01*
G01*
X86262500Y-141100000D01*
G75*
G02*
X86043750Y-140881250I0J218750D01*
G01*
X86043750Y-140443750D01*
G75*
G02*
X86262500Y-140225000I218750J0D01*
G01*
G37*
G36*
G01*
X86262500Y-141800000D02*
X86775000Y-141800000D01*
G75*
G02*
X86993750Y-142018750I0J-218750D01*
G01*
X86993750Y-142456250D01*
G75*
G02*
X86775000Y-142675000I-218750J0D01*
G01*
X86262500Y-142675000D01*
G75*
G02*
X86043750Y-142456250I0J218750D01*
G01*
X86043750Y-142018750D01*
G75*
G02*
X86262500Y-141800000I218750J0D01*
G01*
G37*
G36*
G01*
X91025000Y-160900000D02*
X91537500Y-160900000D01*
G75*
G02*
X91756250Y-161118750I0J-218750D01*
G01*
X91756250Y-161556250D01*
G75*
G02*
X91537500Y-161775000I-218750J0D01*
G01*
X91025000Y-161775000D01*
G75*
G02*
X90806250Y-161556250I0J218750D01*
G01*
X90806250Y-161118750D01*
G75*
G02*
X91025000Y-160900000I218750J0D01*
G01*
G37*
G36*
G01*
X91025000Y-159325000D02*
X91537500Y-159325000D01*
G75*
G02*
X91756250Y-159543750I0J-218750D01*
G01*
X91756250Y-159981250D01*
G75*
G02*
X91537500Y-160200000I-218750J0D01*
G01*
X91025000Y-160200000D01*
G75*
G02*
X90806250Y-159981250I0J218750D01*
G01*
X90806250Y-159543750D01*
G75*
G02*
X91025000Y-159325000I218750J0D01*
G01*
G37*
G36*
G01*
X81500000Y-179850000D02*
X82012500Y-179850000D01*
G75*
G02*
X82231250Y-180068750I0J-218750D01*
G01*
X82231250Y-180506250D01*
G75*
G02*
X82012500Y-180725000I-218750J0D01*
G01*
X81500000Y-180725000D01*
G75*
G02*
X81281250Y-180506250I0J218750D01*
G01*
X81281250Y-180068750D01*
G75*
G02*
X81500000Y-179850000I218750J0D01*
G01*
G37*
G36*
G01*
X81500000Y-178275000D02*
X82012500Y-178275000D01*
G75*
G02*
X82231250Y-178493750I0J-218750D01*
G01*
X82231250Y-178931250D01*
G75*
G02*
X82012500Y-179150000I-218750J0D01*
G01*
X81500000Y-179150000D01*
G75*
G02*
X81281250Y-178931250I0J218750D01*
G01*
X81281250Y-178493750D01*
G75*
G02*
X81500000Y-178275000I218750J0D01*
G01*
G37*
G36*
G01*
X75943750Y-198975000D02*
X76456250Y-198975000D01*
G75*
G02*
X76675000Y-199193750I0J-218750D01*
G01*
X76675000Y-199631250D01*
G75*
G02*
X76456250Y-199850000I-218750J0D01*
G01*
X75943750Y-199850000D01*
G75*
G02*
X75725000Y-199631250I0J218750D01*
G01*
X75725000Y-199193750D01*
G75*
G02*
X75943750Y-198975000I218750J0D01*
G01*
G37*
G36*
G01*
X75943750Y-197400000D02*
X76456250Y-197400000D01*
G75*
G02*
X76675000Y-197618750I0J-218750D01*
G01*
X76675000Y-198056250D01*
G75*
G02*
X76456250Y-198275000I-218750J0D01*
G01*
X75943750Y-198275000D01*
G75*
G02*
X75725000Y-198056250I0J218750D01*
G01*
X75725000Y-197618750D01*
G75*
G02*
X75943750Y-197400000I218750J0D01*
G01*
G37*
G36*
G01*
X95781150Y-121203000D02*
X96293650Y-121203000D01*
G75*
G02*
X96512400Y-121421750I0J-218750D01*
G01*
X96512400Y-121859250D01*
G75*
G02*
X96293650Y-122078000I-218750J0D01*
G01*
X95781150Y-122078000D01*
G75*
G02*
X95562400Y-121859250I0J218750D01*
G01*
X95562400Y-121421750D01*
G75*
G02*
X95781150Y-121203000I218750J0D01*
G01*
G37*
G36*
G01*
X95781150Y-122778000D02*
X96293650Y-122778000D01*
G75*
G02*
X96512400Y-122996750I0J-218750D01*
G01*
X96512400Y-123434250D01*
G75*
G02*
X96293650Y-123653000I-218750J0D01*
G01*
X95781150Y-123653000D01*
G75*
G02*
X95562400Y-123434250I0J218750D01*
G01*
X95562400Y-122996750D01*
G75*
G02*
X95781150Y-122778000I218750J0D01*
G01*
G37*
G36*
G01*
X105312500Y-140062500D02*
X105825000Y-140062500D01*
G75*
G02*
X106043750Y-140281250I0J-218750D01*
G01*
X106043750Y-140718750D01*
G75*
G02*
X105825000Y-140937500I-218750J0D01*
G01*
X105312500Y-140937500D01*
G75*
G02*
X105093750Y-140718750I0J218750D01*
G01*
X105093750Y-140281250D01*
G75*
G02*
X105312500Y-140062500I218750J0D01*
G01*
G37*
G36*
G01*
X105312500Y-141637500D02*
X105825000Y-141637500D01*
G75*
G02*
X106043750Y-141856250I0J-218750D01*
G01*
X106043750Y-142293750D01*
G75*
G02*
X105825000Y-142512500I-218750J0D01*
G01*
X105312500Y-142512500D01*
G75*
G02*
X105093750Y-142293750I0J218750D01*
G01*
X105093750Y-141856250D01*
G75*
G02*
X105312500Y-141637500I218750J0D01*
G01*
G37*
G36*
G01*
X110075000Y-159225000D02*
X110587500Y-159225000D01*
G75*
G02*
X110806250Y-159443750I0J-218750D01*
G01*
X110806250Y-159881250D01*
G75*
G02*
X110587500Y-160100000I-218750J0D01*
G01*
X110075000Y-160100000D01*
G75*
G02*
X109856250Y-159881250I0J218750D01*
G01*
X109856250Y-159443750D01*
G75*
G02*
X110075000Y-159225000I218750J0D01*
G01*
G37*
G36*
G01*
X110075000Y-160800000D02*
X110587500Y-160800000D01*
G75*
G02*
X110806250Y-161018750I0J-218750D01*
G01*
X110806250Y-161456250D01*
G75*
G02*
X110587500Y-161675000I-218750J0D01*
G01*
X110075000Y-161675000D01*
G75*
G02*
X109856250Y-161456250I0J218750D01*
G01*
X109856250Y-161018750D01*
G75*
G02*
X110075000Y-160800000I218750J0D01*
G01*
G37*
G36*
G01*
X100550000Y-178315000D02*
X101062500Y-178315000D01*
G75*
G02*
X101281250Y-178533750I0J-218750D01*
G01*
X101281250Y-178971250D01*
G75*
G02*
X101062500Y-179190000I-218750J0D01*
G01*
X100550000Y-179190000D01*
G75*
G02*
X100331250Y-178971250I0J218750D01*
G01*
X100331250Y-178533750D01*
G75*
G02*
X100550000Y-178315000I218750J0D01*
G01*
G37*
G36*
G01*
X100550000Y-179890000D02*
X101062500Y-179890000D01*
G75*
G02*
X101281250Y-180108750I0J-218750D01*
G01*
X101281250Y-180546250D01*
G75*
G02*
X101062500Y-180765000I-218750J0D01*
G01*
X100550000Y-180765000D01*
G75*
G02*
X100331250Y-180546250I0J218750D01*
G01*
X100331250Y-180108750D01*
G75*
G02*
X100550000Y-179890000I218750J0D01*
G01*
G37*
G36*
G01*
X206615750Y-109598750D02*
X206615750Y-110111250D01*
G75*
G02*
X206397000Y-110330000I-218750J0D01*
G01*
X205959500Y-110330000D01*
G75*
G02*
X205740750Y-110111250I0J218750D01*
G01*
X205740750Y-109598750D01*
G75*
G02*
X205959500Y-109380000I218750J0D01*
G01*
X206397000Y-109380000D01*
G75*
G02*
X206615750Y-109598750I0J-218750D01*
G01*
G37*
G36*
G01*
X205040750Y-109598750D02*
X205040750Y-110111250D01*
G75*
G02*
X204822000Y-110330000I-218750J0D01*
G01*
X204384500Y-110330000D01*
G75*
G02*
X204165750Y-110111250I0J218750D01*
G01*
X204165750Y-109598750D01*
G75*
G02*
X204384500Y-109380000I218750J0D01*
G01*
X204822000Y-109380000D01*
G75*
G02*
X205040750Y-109598750I0J-218750D01*
G01*
G37*
G36*
G01*
X114837500Y-122750000D02*
X115350000Y-122750000D01*
G75*
G02*
X115568750Y-122968750I0J-218750D01*
G01*
X115568750Y-123406250D01*
G75*
G02*
X115350000Y-123625000I-218750J0D01*
G01*
X114837500Y-123625000D01*
G75*
G02*
X114618750Y-123406250I0J218750D01*
G01*
X114618750Y-122968750D01*
G75*
G02*
X114837500Y-122750000I218750J0D01*
G01*
G37*
G36*
G01*
X114837500Y-121175000D02*
X115350000Y-121175000D01*
G75*
G02*
X115568750Y-121393750I0J-218750D01*
G01*
X115568750Y-121831250D01*
G75*
G02*
X115350000Y-122050000I-218750J0D01*
G01*
X114837500Y-122050000D01*
G75*
G02*
X114618750Y-121831250I0J218750D01*
G01*
X114618750Y-121393750D01*
G75*
G02*
X114837500Y-121175000I218750J0D01*
G01*
G37*
G36*
G01*
X124362500Y-141637500D02*
X124875000Y-141637500D01*
G75*
G02*
X125093750Y-141856250I0J-218750D01*
G01*
X125093750Y-142293750D01*
G75*
G02*
X124875000Y-142512500I-218750J0D01*
G01*
X124362500Y-142512500D01*
G75*
G02*
X124143750Y-142293750I0J218750D01*
G01*
X124143750Y-141856250D01*
G75*
G02*
X124362500Y-141637500I218750J0D01*
G01*
G37*
G36*
G01*
X124362500Y-140062500D02*
X124875000Y-140062500D01*
G75*
G02*
X125093750Y-140281250I0J-218750D01*
G01*
X125093750Y-140718750D01*
G75*
G02*
X124875000Y-140937500I-218750J0D01*
G01*
X124362500Y-140937500D01*
G75*
G02*
X124143750Y-140718750I0J218750D01*
G01*
X124143750Y-140281250D01*
G75*
G02*
X124362500Y-140062500I218750J0D01*
G01*
G37*
G36*
G01*
X129125000Y-160878000D02*
X129637500Y-160878000D01*
G75*
G02*
X129856250Y-161096750I0J-218750D01*
G01*
X129856250Y-161534250D01*
G75*
G02*
X129637500Y-161753000I-218750J0D01*
G01*
X129125000Y-161753000D01*
G75*
G02*
X128906250Y-161534250I0J218750D01*
G01*
X128906250Y-161096750D01*
G75*
G02*
X129125000Y-160878000I218750J0D01*
G01*
G37*
G36*
G01*
X129125000Y-159303000D02*
X129637500Y-159303000D01*
G75*
G02*
X129856250Y-159521750I0J-218750D01*
G01*
X129856250Y-159959250D01*
G75*
G02*
X129637500Y-160178000I-218750J0D01*
G01*
X129125000Y-160178000D01*
G75*
G02*
X128906250Y-159959250I0J218750D01*
G01*
X128906250Y-159521750D01*
G75*
G02*
X129125000Y-159303000I218750J0D01*
G01*
G37*
G36*
G01*
X119600000Y-178226000D02*
X120112500Y-178226000D01*
G75*
G02*
X120331250Y-178444750I0J-218750D01*
G01*
X120331250Y-178882250D01*
G75*
G02*
X120112500Y-179101000I-218750J0D01*
G01*
X119600000Y-179101000D01*
G75*
G02*
X119381250Y-178882250I0J218750D01*
G01*
X119381250Y-178444750D01*
G75*
G02*
X119600000Y-178226000I218750J0D01*
G01*
G37*
G36*
G01*
X119600000Y-179801000D02*
X120112500Y-179801000D01*
G75*
G02*
X120331250Y-180019750I0J-218750D01*
G01*
X120331250Y-180457250D01*
G75*
G02*
X120112500Y-180676000I-218750J0D01*
G01*
X119600000Y-180676000D01*
G75*
G02*
X119381250Y-180457250I0J218750D01*
G01*
X119381250Y-180019750D01*
G75*
G02*
X119600000Y-179801000I218750J0D01*
G01*
G37*
G36*
G01*
X133887500Y-122800000D02*
X134400000Y-122800000D01*
G75*
G02*
X134618750Y-123018750I0J-218750D01*
G01*
X134618750Y-123456250D01*
G75*
G02*
X134400000Y-123675000I-218750J0D01*
G01*
X133887500Y-123675000D01*
G75*
G02*
X133668750Y-123456250I0J218750D01*
G01*
X133668750Y-123018750D01*
G75*
G02*
X133887500Y-122800000I218750J0D01*
G01*
G37*
G36*
G01*
X133887500Y-121225000D02*
X134400000Y-121225000D01*
G75*
G02*
X134618750Y-121443750I0J-218750D01*
G01*
X134618750Y-121881250D01*
G75*
G02*
X134400000Y-122100000I-218750J0D01*
G01*
X133887500Y-122100000D01*
G75*
G02*
X133668750Y-121881250I0J218750D01*
G01*
X133668750Y-121443750D01*
G75*
G02*
X133887500Y-121225000I218750J0D01*
G01*
G37*
G36*
G01*
X143412500Y-140250000D02*
X143925000Y-140250000D01*
G75*
G02*
X144143750Y-140468750I0J-218750D01*
G01*
X144143750Y-140906250D01*
G75*
G02*
X143925000Y-141125000I-218750J0D01*
G01*
X143412500Y-141125000D01*
G75*
G02*
X143193750Y-140906250I0J218750D01*
G01*
X143193750Y-140468750D01*
G75*
G02*
X143412500Y-140250000I218750J0D01*
G01*
G37*
G36*
G01*
X143412500Y-141825000D02*
X143925000Y-141825000D01*
G75*
G02*
X144143750Y-142043750I0J-218750D01*
G01*
X144143750Y-142481250D01*
G75*
G02*
X143925000Y-142700000I-218750J0D01*
G01*
X143412500Y-142700000D01*
G75*
G02*
X143193750Y-142481250I0J218750D01*
G01*
X143193750Y-142043750D01*
G75*
G02*
X143412500Y-141825000I218750J0D01*
G01*
G37*
G36*
G01*
X148175000Y-160878000D02*
X148687500Y-160878000D01*
G75*
G02*
X148906250Y-161096750I0J-218750D01*
G01*
X148906250Y-161534250D01*
G75*
G02*
X148687500Y-161753000I-218750J0D01*
G01*
X148175000Y-161753000D01*
G75*
G02*
X147956250Y-161534250I0J218750D01*
G01*
X147956250Y-161096750D01*
G75*
G02*
X148175000Y-160878000I218750J0D01*
G01*
G37*
G36*
G01*
X148175000Y-159303000D02*
X148687500Y-159303000D01*
G75*
G02*
X148906250Y-159521750I0J-218750D01*
G01*
X148906250Y-159959250D01*
G75*
G02*
X148687500Y-160178000I-218750J0D01*
G01*
X148175000Y-160178000D01*
G75*
G02*
X147956250Y-159959250I0J218750D01*
G01*
X147956250Y-159521750D01*
G75*
G02*
X148175000Y-159303000I218750J0D01*
G01*
G37*
G36*
G01*
X138650000Y-179850000D02*
X139162500Y-179850000D01*
G75*
G02*
X139381250Y-180068750I0J-218750D01*
G01*
X139381250Y-180506250D01*
G75*
G02*
X139162500Y-180725000I-218750J0D01*
G01*
X138650000Y-180725000D01*
G75*
G02*
X138431250Y-180506250I0J218750D01*
G01*
X138431250Y-180068750D01*
G75*
G02*
X138650000Y-179850000I218750J0D01*
G01*
G37*
G36*
G01*
X138650000Y-178275000D02*
X139162500Y-178275000D01*
G75*
G02*
X139381250Y-178493750I0J-218750D01*
G01*
X139381250Y-178931250D01*
G75*
G02*
X139162500Y-179150000I-218750J0D01*
G01*
X138650000Y-179150000D01*
G75*
G02*
X138431250Y-178931250I0J218750D01*
G01*
X138431250Y-178493750D01*
G75*
G02*
X138650000Y-178275000I218750J0D01*
G01*
G37*
G36*
G01*
X152937500Y-121225000D02*
X153450000Y-121225000D01*
G75*
G02*
X153668750Y-121443750I0J-218750D01*
G01*
X153668750Y-121881250D01*
G75*
G02*
X153450000Y-122100000I-218750J0D01*
G01*
X152937500Y-122100000D01*
G75*
G02*
X152718750Y-121881250I0J218750D01*
G01*
X152718750Y-121443750D01*
G75*
G02*
X152937500Y-121225000I218750J0D01*
G01*
G37*
G36*
G01*
X152937500Y-122800000D02*
X153450000Y-122800000D01*
G75*
G02*
X153668750Y-123018750I0J-218750D01*
G01*
X153668750Y-123456250D01*
G75*
G02*
X153450000Y-123675000I-218750J0D01*
G01*
X152937500Y-123675000D01*
G75*
G02*
X152718750Y-123456250I0J218750D01*
G01*
X152718750Y-123018750D01*
G75*
G02*
X152937500Y-122800000I218750J0D01*
G01*
G37*
G36*
G01*
X162462500Y-140275000D02*
X162975000Y-140275000D01*
G75*
G02*
X163193750Y-140493750I0J-218750D01*
G01*
X163193750Y-140931250D01*
G75*
G02*
X162975000Y-141150000I-218750J0D01*
G01*
X162462500Y-141150000D01*
G75*
G02*
X162243750Y-140931250I0J218750D01*
G01*
X162243750Y-140493750D01*
G75*
G02*
X162462500Y-140275000I218750J0D01*
G01*
G37*
G36*
G01*
X162462500Y-141850000D02*
X162975000Y-141850000D01*
G75*
G02*
X163193750Y-142068750I0J-218750D01*
G01*
X163193750Y-142506250D01*
G75*
G02*
X162975000Y-142725000I-218750J0D01*
G01*
X162462500Y-142725000D01*
G75*
G02*
X162243750Y-142506250I0J218750D01*
G01*
X162243750Y-142068750D01*
G75*
G02*
X162462500Y-141850000I218750J0D01*
G01*
G37*
G36*
G01*
X167225000Y-159300000D02*
X167737500Y-159300000D01*
G75*
G02*
X167956250Y-159518750I0J-218750D01*
G01*
X167956250Y-159956250D01*
G75*
G02*
X167737500Y-160175000I-218750J0D01*
G01*
X167225000Y-160175000D01*
G75*
G02*
X167006250Y-159956250I0J218750D01*
G01*
X167006250Y-159518750D01*
G75*
G02*
X167225000Y-159300000I218750J0D01*
G01*
G37*
G36*
G01*
X167225000Y-160875000D02*
X167737500Y-160875000D01*
G75*
G02*
X167956250Y-161093750I0J-218750D01*
G01*
X167956250Y-161531250D01*
G75*
G02*
X167737500Y-161750000I-218750J0D01*
G01*
X167225000Y-161750000D01*
G75*
G02*
X167006250Y-161531250I0J218750D01*
G01*
X167006250Y-161093750D01*
G75*
G02*
X167225000Y-160875000I218750J0D01*
G01*
G37*
G36*
G01*
X157700000Y-179950000D02*
X158212500Y-179950000D01*
G75*
G02*
X158431250Y-180168750I0J-218750D01*
G01*
X158431250Y-180606250D01*
G75*
G02*
X158212500Y-180825000I-218750J0D01*
G01*
X157700000Y-180825000D01*
G75*
G02*
X157481250Y-180606250I0J218750D01*
G01*
X157481250Y-180168750D01*
G75*
G02*
X157700000Y-179950000I218750J0D01*
G01*
G37*
G36*
G01*
X157700000Y-178375000D02*
X158212500Y-178375000D01*
G75*
G02*
X158431250Y-178593750I0J-218750D01*
G01*
X158431250Y-179031250D01*
G75*
G02*
X158212500Y-179250000I-218750J0D01*
G01*
X157700000Y-179250000D01*
G75*
G02*
X157481250Y-179031250I0J218750D01*
G01*
X157481250Y-178593750D01*
G75*
G02*
X157700000Y-178375000I218750J0D01*
G01*
G37*
G36*
G01*
X166329650Y-197657000D02*
X166842150Y-197657000D01*
G75*
G02*
X167060900Y-197875750I0J-218750D01*
G01*
X167060900Y-198313250D01*
G75*
G02*
X166842150Y-198532000I-218750J0D01*
G01*
X166329650Y-198532000D01*
G75*
G02*
X166110900Y-198313250I0J218750D01*
G01*
X166110900Y-197875750D01*
G75*
G02*
X166329650Y-197657000I218750J0D01*
G01*
G37*
G36*
G01*
X166329650Y-199232000D02*
X166842150Y-199232000D01*
G75*
G02*
X167060900Y-199450750I0J-218750D01*
G01*
X167060900Y-199888250D01*
G75*
G02*
X166842150Y-200107000I-218750J0D01*
G01*
X166329650Y-200107000D01*
G75*
G02*
X166110900Y-199888250I0J218750D01*
G01*
X166110900Y-199450750D01*
G75*
G02*
X166329650Y-199232000I218750J0D01*
G01*
G37*
G36*
G01*
X171987500Y-122750000D02*
X172500000Y-122750000D01*
G75*
G02*
X172718750Y-122968750I0J-218750D01*
G01*
X172718750Y-123406250D01*
G75*
G02*
X172500000Y-123625000I-218750J0D01*
G01*
X171987500Y-123625000D01*
G75*
G02*
X171768750Y-123406250I0J218750D01*
G01*
X171768750Y-122968750D01*
G75*
G02*
X171987500Y-122750000I218750J0D01*
G01*
G37*
G36*
G01*
X171987500Y-121175000D02*
X172500000Y-121175000D01*
G75*
G02*
X172718750Y-121393750I0J-218750D01*
G01*
X172718750Y-121831250D01*
G75*
G02*
X172500000Y-122050000I-218750J0D01*
G01*
X171987500Y-122050000D01*
G75*
G02*
X171768750Y-121831250I0J218750D01*
G01*
X171768750Y-121393750D01*
G75*
G02*
X171987500Y-121175000I218750J0D01*
G01*
G37*
G36*
G01*
X181512500Y-140225000D02*
X182025000Y-140225000D01*
G75*
G02*
X182243750Y-140443750I0J-218750D01*
G01*
X182243750Y-140881250D01*
G75*
G02*
X182025000Y-141100000I-218750J0D01*
G01*
X181512500Y-141100000D01*
G75*
G02*
X181293750Y-140881250I0J218750D01*
G01*
X181293750Y-140443750D01*
G75*
G02*
X181512500Y-140225000I218750J0D01*
G01*
G37*
G36*
G01*
X181512500Y-141800000D02*
X182025000Y-141800000D01*
G75*
G02*
X182243750Y-142018750I0J-218750D01*
G01*
X182243750Y-142456250D01*
G75*
G02*
X182025000Y-142675000I-218750J0D01*
G01*
X181512500Y-142675000D01*
G75*
G02*
X181293750Y-142456250I0J218750D01*
G01*
X181293750Y-142018750D01*
G75*
G02*
X181512500Y-141800000I218750J0D01*
G01*
G37*
G36*
G01*
X186275000Y-159303000D02*
X186787500Y-159303000D01*
G75*
G02*
X187006250Y-159521750I0J-218750D01*
G01*
X187006250Y-159959250D01*
G75*
G02*
X186787500Y-160178000I-218750J0D01*
G01*
X186275000Y-160178000D01*
G75*
G02*
X186056250Y-159959250I0J218750D01*
G01*
X186056250Y-159521750D01*
G75*
G02*
X186275000Y-159303000I218750J0D01*
G01*
G37*
G36*
G01*
X186275000Y-160878000D02*
X186787500Y-160878000D01*
G75*
G02*
X187006250Y-161096750I0J-218750D01*
G01*
X187006250Y-161534250D01*
G75*
G02*
X186787500Y-161753000I-218750J0D01*
G01*
X186275000Y-161753000D01*
G75*
G02*
X186056250Y-161534250I0J218750D01*
G01*
X186056250Y-161096750D01*
G75*
G02*
X186275000Y-160878000I218750J0D01*
G01*
G37*
G36*
G01*
X176750000Y-179975000D02*
X177262500Y-179975000D01*
G75*
G02*
X177481250Y-180193750I0J-218750D01*
G01*
X177481250Y-180631250D01*
G75*
G02*
X177262500Y-180850000I-218750J0D01*
G01*
X176750000Y-180850000D01*
G75*
G02*
X176531250Y-180631250I0J218750D01*
G01*
X176531250Y-180193750D01*
G75*
G02*
X176750000Y-179975000I218750J0D01*
G01*
G37*
G36*
G01*
X176750000Y-178400000D02*
X177262500Y-178400000D01*
G75*
G02*
X177481250Y-178618750I0J-218750D01*
G01*
X177481250Y-179056250D01*
G75*
G02*
X177262500Y-179275000I-218750J0D01*
G01*
X176750000Y-179275000D01*
G75*
G02*
X176531250Y-179056250I0J218750D01*
G01*
X176531250Y-178618750D01*
G75*
G02*
X176750000Y-178400000I218750J0D01*
G01*
G37*
G36*
G01*
X191037500Y-122800000D02*
X191550000Y-122800000D01*
G75*
G02*
X191768750Y-123018750I0J-218750D01*
G01*
X191768750Y-123456250D01*
G75*
G02*
X191550000Y-123675000I-218750J0D01*
G01*
X191037500Y-123675000D01*
G75*
G02*
X190818750Y-123456250I0J218750D01*
G01*
X190818750Y-123018750D01*
G75*
G02*
X191037500Y-122800000I218750J0D01*
G01*
G37*
G36*
G01*
X191037500Y-121225000D02*
X191550000Y-121225000D01*
G75*
G02*
X191768750Y-121443750I0J-218750D01*
G01*
X191768750Y-121881250D01*
G75*
G02*
X191550000Y-122100000I-218750J0D01*
G01*
X191037500Y-122100000D01*
G75*
G02*
X190818750Y-121881250I0J218750D01*
G01*
X190818750Y-121443750D01*
G75*
G02*
X191037500Y-121225000I218750J0D01*
G01*
G37*
G36*
G01*
X200562500Y-141800000D02*
X201075000Y-141800000D01*
G75*
G02*
X201293750Y-142018750I0J-218750D01*
G01*
X201293750Y-142456250D01*
G75*
G02*
X201075000Y-142675000I-218750J0D01*
G01*
X200562500Y-142675000D01*
G75*
G02*
X200343750Y-142456250I0J218750D01*
G01*
X200343750Y-142018750D01*
G75*
G02*
X200562500Y-141800000I218750J0D01*
G01*
G37*
G36*
G01*
X200562500Y-140225000D02*
X201075000Y-140225000D01*
G75*
G02*
X201293750Y-140443750I0J-218750D01*
G01*
X201293750Y-140881250D01*
G75*
G02*
X201075000Y-141100000I-218750J0D01*
G01*
X200562500Y-141100000D01*
G75*
G02*
X200343750Y-140881250I0J218750D01*
G01*
X200343750Y-140443750D01*
G75*
G02*
X200562500Y-140225000I218750J0D01*
G01*
G37*
G36*
G01*
X205325000Y-159325000D02*
X205837500Y-159325000D01*
G75*
G02*
X206056250Y-159543750I0J-218750D01*
G01*
X206056250Y-159981250D01*
G75*
G02*
X205837500Y-160200000I-218750J0D01*
G01*
X205325000Y-160200000D01*
G75*
G02*
X205106250Y-159981250I0J218750D01*
G01*
X205106250Y-159543750D01*
G75*
G02*
X205325000Y-159325000I218750J0D01*
G01*
G37*
G36*
G01*
X205325000Y-160900000D02*
X205837500Y-160900000D01*
G75*
G02*
X206056250Y-161118750I0J-218750D01*
G01*
X206056250Y-161556250D01*
G75*
G02*
X205837500Y-161775000I-218750J0D01*
G01*
X205325000Y-161775000D01*
G75*
G02*
X205106250Y-161556250I0J218750D01*
G01*
X205106250Y-161118750D01*
G75*
G02*
X205325000Y-160900000I218750J0D01*
G01*
G37*
G36*
G01*
X195800000Y-179900000D02*
X196312500Y-179900000D01*
G75*
G02*
X196531250Y-180118750I0J-218750D01*
G01*
X196531250Y-180556250D01*
G75*
G02*
X196312500Y-180775000I-218750J0D01*
G01*
X195800000Y-180775000D01*
G75*
G02*
X195581250Y-180556250I0J218750D01*
G01*
X195581250Y-180118750D01*
G75*
G02*
X195800000Y-179900000I218750J0D01*
G01*
G37*
G36*
G01*
X195800000Y-178325000D02*
X196312500Y-178325000D01*
G75*
G02*
X196531250Y-178543750I0J-218750D01*
G01*
X196531250Y-178981250D01*
G75*
G02*
X196312500Y-179200000I-218750J0D01*
G01*
X195800000Y-179200000D01*
G75*
G02*
X195581250Y-178981250I0J218750D01*
G01*
X195581250Y-178543750D01*
G75*
G02*
X195800000Y-178325000I218750J0D01*
G01*
G37*
G36*
G01*
X210087500Y-121225000D02*
X210600000Y-121225000D01*
G75*
G02*
X210818750Y-121443750I0J-218750D01*
G01*
X210818750Y-121881250D01*
G75*
G02*
X210600000Y-122100000I-218750J0D01*
G01*
X210087500Y-122100000D01*
G75*
G02*
X209868750Y-121881250I0J218750D01*
G01*
X209868750Y-121443750D01*
G75*
G02*
X210087500Y-121225000I218750J0D01*
G01*
G37*
G36*
G01*
X210087500Y-122800000D02*
X210600000Y-122800000D01*
G75*
G02*
X210818750Y-123018750I0J-218750D01*
G01*
X210818750Y-123456250D01*
G75*
G02*
X210600000Y-123675000I-218750J0D01*
G01*
X210087500Y-123675000D01*
G75*
G02*
X209868750Y-123456250I0J218750D01*
G01*
X209868750Y-123018750D01*
G75*
G02*
X210087500Y-122800000I218750J0D01*
G01*
G37*
G36*
G01*
X219612500Y-141800000D02*
X220125000Y-141800000D01*
G75*
G02*
X220343750Y-142018750I0J-218750D01*
G01*
X220343750Y-142456250D01*
G75*
G02*
X220125000Y-142675000I-218750J0D01*
G01*
X219612500Y-142675000D01*
G75*
G02*
X219393750Y-142456250I0J218750D01*
G01*
X219393750Y-142018750D01*
G75*
G02*
X219612500Y-141800000I218750J0D01*
G01*
G37*
G36*
G01*
X219612500Y-140225000D02*
X220125000Y-140225000D01*
G75*
G02*
X220343750Y-140443750I0J-218750D01*
G01*
X220343750Y-140881250D01*
G75*
G02*
X220125000Y-141100000I-218750J0D01*
G01*
X219612500Y-141100000D01*
G75*
G02*
X219393750Y-140881250I0J218750D01*
G01*
X219393750Y-140443750D01*
G75*
G02*
X219612500Y-140225000I218750J0D01*
G01*
G37*
G36*
G01*
X224184500Y-160875000D02*
X224697000Y-160875000D01*
G75*
G02*
X224915750Y-161093750I0J-218750D01*
G01*
X224915750Y-161531250D01*
G75*
G02*
X224697000Y-161750000I-218750J0D01*
G01*
X224184500Y-161750000D01*
G75*
G02*
X223965750Y-161531250I0J218750D01*
G01*
X223965750Y-161093750D01*
G75*
G02*
X224184500Y-160875000I218750J0D01*
G01*
G37*
G36*
G01*
X224184500Y-159300000D02*
X224697000Y-159300000D01*
G75*
G02*
X224915750Y-159518750I0J-218750D01*
G01*
X224915750Y-159956250D01*
G75*
G02*
X224697000Y-160175000I-218750J0D01*
G01*
X224184500Y-160175000D01*
G75*
G02*
X223965750Y-159956250I0J218750D01*
G01*
X223965750Y-159518750D01*
G75*
G02*
X224184500Y-159300000I218750J0D01*
G01*
G37*
G36*
G01*
X214850000Y-178353000D02*
X215362500Y-178353000D01*
G75*
G02*
X215581250Y-178571750I0J-218750D01*
G01*
X215581250Y-179009250D01*
G75*
G02*
X215362500Y-179228000I-218750J0D01*
G01*
X214850000Y-179228000D01*
G75*
G02*
X214631250Y-179009250I0J218750D01*
G01*
X214631250Y-178571750D01*
G75*
G02*
X214850000Y-178353000I218750J0D01*
G01*
G37*
G36*
G01*
X214850000Y-179928000D02*
X215362500Y-179928000D01*
G75*
G02*
X215581250Y-180146750I0J-218750D01*
G01*
X215581250Y-180584250D01*
G75*
G02*
X215362500Y-180803000I-218750J0D01*
G01*
X214850000Y-180803000D01*
G75*
G02*
X214631250Y-180584250I0J218750D01*
G01*
X214631250Y-180146750D01*
G75*
G02*
X214850000Y-179928000I218750J0D01*
G01*
G37*
G36*
G01*
X221993750Y-197325000D02*
X222506250Y-197325000D01*
G75*
G02*
X222725000Y-197543750I0J-218750D01*
G01*
X222725000Y-197981250D01*
G75*
G02*
X222506250Y-198200000I-218750J0D01*
G01*
X221993750Y-198200000D01*
G75*
G02*
X221775000Y-197981250I0J218750D01*
G01*
X221775000Y-197543750D01*
G75*
G02*
X221993750Y-197325000I218750J0D01*
G01*
G37*
G36*
G01*
X221993750Y-198900000D02*
X222506250Y-198900000D01*
G75*
G02*
X222725000Y-199118750I0J-218750D01*
G01*
X222725000Y-199556250D01*
G75*
G02*
X222506250Y-199775000I-218750J0D01*
G01*
X221993750Y-199775000D01*
G75*
G02*
X221775000Y-199556250I0J218750D01*
G01*
X221775000Y-199118750D01*
G75*
G02*
X221993750Y-198900000I218750J0D01*
G01*
G37*
G36*
G01*
X229137500Y-121225000D02*
X229650000Y-121225000D01*
G75*
G02*
X229868750Y-121443750I0J-218750D01*
G01*
X229868750Y-121881250D01*
G75*
G02*
X229650000Y-122100000I-218750J0D01*
G01*
X229137500Y-122100000D01*
G75*
G02*
X228918750Y-121881250I0J218750D01*
G01*
X228918750Y-121443750D01*
G75*
G02*
X229137500Y-121225000I218750J0D01*
G01*
G37*
G36*
G01*
X229137500Y-122800000D02*
X229650000Y-122800000D01*
G75*
G02*
X229868750Y-123018750I0J-218750D01*
G01*
X229868750Y-123456250D01*
G75*
G02*
X229650000Y-123675000I-218750J0D01*
G01*
X229137500Y-123675000D01*
G75*
G02*
X228918750Y-123456250I0J218750D01*
G01*
X228918750Y-123018750D01*
G75*
G02*
X229137500Y-122800000I218750J0D01*
G01*
G37*
G36*
G01*
X238662500Y-140225000D02*
X239175000Y-140225000D01*
G75*
G02*
X239393750Y-140443750I0J-218750D01*
G01*
X239393750Y-140881250D01*
G75*
G02*
X239175000Y-141100000I-218750J0D01*
G01*
X238662500Y-141100000D01*
G75*
G02*
X238443750Y-140881250I0J218750D01*
G01*
X238443750Y-140443750D01*
G75*
G02*
X238662500Y-140225000I218750J0D01*
G01*
G37*
G36*
G01*
X238662500Y-141800000D02*
X239175000Y-141800000D01*
G75*
G02*
X239393750Y-142018750I0J-218750D01*
G01*
X239393750Y-142456250D01*
G75*
G02*
X239175000Y-142675000I-218750J0D01*
G01*
X238662500Y-142675000D01*
G75*
G02*
X238443750Y-142456250I0J218750D01*
G01*
X238443750Y-142018750D01*
G75*
G02*
X238662500Y-141800000I218750J0D01*
G01*
G37*
G36*
G01*
X243425000Y-160875000D02*
X243937500Y-160875000D01*
G75*
G02*
X244156250Y-161093750I0J-218750D01*
G01*
X244156250Y-161531250D01*
G75*
G02*
X243937500Y-161750000I-218750J0D01*
G01*
X243425000Y-161750000D01*
G75*
G02*
X243206250Y-161531250I0J218750D01*
G01*
X243206250Y-161093750D01*
G75*
G02*
X243425000Y-160875000I218750J0D01*
G01*
G37*
G36*
G01*
X243425000Y-159300000D02*
X243937500Y-159300000D01*
G75*
G02*
X244156250Y-159518750I0J-218750D01*
G01*
X244156250Y-159956250D01*
G75*
G02*
X243937500Y-160175000I-218750J0D01*
G01*
X243425000Y-160175000D01*
G75*
G02*
X243206250Y-159956250I0J218750D01*
G01*
X243206250Y-159518750D01*
G75*
G02*
X243425000Y-159300000I218750J0D01*
G01*
G37*
G36*
G01*
X233900000Y-178162500D02*
X234412500Y-178162500D01*
G75*
G02*
X234631250Y-178381250I0J-218750D01*
G01*
X234631250Y-178818750D01*
G75*
G02*
X234412500Y-179037500I-218750J0D01*
G01*
X233900000Y-179037500D01*
G75*
G02*
X233681250Y-178818750I0J218750D01*
G01*
X233681250Y-178381250D01*
G75*
G02*
X233900000Y-178162500I218750J0D01*
G01*
G37*
G36*
G01*
X233900000Y-179737500D02*
X234412500Y-179737500D01*
G75*
G02*
X234631250Y-179956250I0J-218750D01*
G01*
X234631250Y-180393750D01*
G75*
G02*
X234412500Y-180612500I-218750J0D01*
G01*
X233900000Y-180612500D01*
G75*
G02*
X233681250Y-180393750I0J218750D01*
G01*
X233681250Y-179956250D01*
G75*
G02*
X233900000Y-179737500I218750J0D01*
G01*
G37*
G36*
G01*
X243425000Y-198950000D02*
X243937500Y-198950000D01*
G75*
G02*
X244156250Y-199168750I0J-218750D01*
G01*
X244156250Y-199606250D01*
G75*
G02*
X243937500Y-199825000I-218750J0D01*
G01*
X243425000Y-199825000D01*
G75*
G02*
X243206250Y-199606250I0J218750D01*
G01*
X243206250Y-199168750D01*
G75*
G02*
X243425000Y-198950000I218750J0D01*
G01*
G37*
G36*
G01*
X243425000Y-197375000D02*
X243937500Y-197375000D01*
G75*
G02*
X244156250Y-197593750I0J-218750D01*
G01*
X244156250Y-198031250D01*
G75*
G02*
X243937500Y-198250000I-218750J0D01*
G01*
X243425000Y-198250000D01*
G75*
G02*
X243206250Y-198031250I0J218750D01*
G01*
X243206250Y-197593750D01*
G75*
G02*
X243425000Y-197375000I218750J0D01*
G01*
G37*
G36*
G01*
X248187500Y-122725000D02*
X248700000Y-122725000D01*
G75*
G02*
X248918750Y-122943750I0J-218750D01*
G01*
X248918750Y-123381250D01*
G75*
G02*
X248700000Y-123600000I-218750J0D01*
G01*
X248187500Y-123600000D01*
G75*
G02*
X247968750Y-123381250I0J218750D01*
G01*
X247968750Y-122943750D01*
G75*
G02*
X248187500Y-122725000I218750J0D01*
G01*
G37*
G36*
G01*
X248187500Y-121150000D02*
X248700000Y-121150000D01*
G75*
G02*
X248918750Y-121368750I0J-218750D01*
G01*
X248918750Y-121806250D01*
G75*
G02*
X248700000Y-122025000I-218750J0D01*
G01*
X248187500Y-122025000D01*
G75*
G02*
X247968750Y-121806250I0J218750D01*
G01*
X247968750Y-121368750D01*
G75*
G02*
X248187500Y-121150000I218750J0D01*
G01*
G37*
G36*
G01*
X257712500Y-141637500D02*
X258225000Y-141637500D01*
G75*
G02*
X258443750Y-141856250I0J-218750D01*
G01*
X258443750Y-142293750D01*
G75*
G02*
X258225000Y-142512500I-218750J0D01*
G01*
X257712500Y-142512500D01*
G75*
G02*
X257493750Y-142293750I0J218750D01*
G01*
X257493750Y-141856250D01*
G75*
G02*
X257712500Y-141637500I218750J0D01*
G01*
G37*
G36*
G01*
X257712500Y-140062500D02*
X258225000Y-140062500D01*
G75*
G02*
X258443750Y-140281250I0J-218750D01*
G01*
X258443750Y-140718750D01*
G75*
G02*
X258225000Y-140937500I-218750J0D01*
G01*
X257712500Y-140937500D01*
G75*
G02*
X257493750Y-140718750I0J218750D01*
G01*
X257493750Y-140281250D01*
G75*
G02*
X257712500Y-140062500I218750J0D01*
G01*
G37*
G36*
G01*
X262475000Y-159250000D02*
X262987500Y-159250000D01*
G75*
G02*
X263206250Y-159468750I0J-218750D01*
G01*
X263206250Y-159906250D01*
G75*
G02*
X262987500Y-160125000I-218750J0D01*
G01*
X262475000Y-160125000D01*
G75*
G02*
X262256250Y-159906250I0J218750D01*
G01*
X262256250Y-159468750D01*
G75*
G02*
X262475000Y-159250000I218750J0D01*
G01*
G37*
G36*
G01*
X262475000Y-160825000D02*
X262987500Y-160825000D01*
G75*
G02*
X263206250Y-161043750I0J-218750D01*
G01*
X263206250Y-161481250D01*
G75*
G02*
X262987500Y-161700000I-218750J0D01*
G01*
X262475000Y-161700000D01*
G75*
G02*
X262256250Y-161481250I0J218750D01*
G01*
X262256250Y-161043750D01*
G75*
G02*
X262475000Y-160825000I218750J0D01*
G01*
G37*
G36*
G01*
X252950000Y-179800000D02*
X253462500Y-179800000D01*
G75*
G02*
X253681250Y-180018750I0J-218750D01*
G01*
X253681250Y-180456250D01*
G75*
G02*
X253462500Y-180675000I-218750J0D01*
G01*
X252950000Y-180675000D01*
G75*
G02*
X252731250Y-180456250I0J218750D01*
G01*
X252731250Y-180018750D01*
G75*
G02*
X252950000Y-179800000I218750J0D01*
G01*
G37*
G36*
G01*
X252950000Y-178225000D02*
X253462500Y-178225000D01*
G75*
G02*
X253681250Y-178443750I0J-218750D01*
G01*
X253681250Y-178881250D01*
G75*
G02*
X253462500Y-179100000I-218750J0D01*
G01*
X252950000Y-179100000D01*
G75*
G02*
X252731250Y-178881250I0J218750D01*
G01*
X252731250Y-178443750D01*
G75*
G02*
X252950000Y-178225000I218750J0D01*
G01*
G37*
G36*
G01*
X264856250Y-197400000D02*
X265368750Y-197400000D01*
G75*
G02*
X265587500Y-197618750I0J-218750D01*
G01*
X265587500Y-198056250D01*
G75*
G02*
X265368750Y-198275000I-218750J0D01*
G01*
X264856250Y-198275000D01*
G75*
G02*
X264637500Y-198056250I0J218750D01*
G01*
X264637500Y-197618750D01*
G75*
G02*
X264856250Y-197400000I218750J0D01*
G01*
G37*
G36*
G01*
X264856250Y-198975000D02*
X265368750Y-198975000D01*
G75*
G02*
X265587500Y-199193750I0J-218750D01*
G01*
X265587500Y-199631250D01*
G75*
G02*
X265368750Y-199850000I-218750J0D01*
G01*
X264856250Y-199850000D01*
G75*
G02*
X264637500Y-199631250I0J218750D01*
G01*
X264637500Y-199193750D01*
G75*
G02*
X264856250Y-198975000I218750J0D01*
G01*
G37*
G36*
G01*
X267237500Y-122750000D02*
X267750000Y-122750000D01*
G75*
G02*
X267968750Y-122968750I0J-218750D01*
G01*
X267968750Y-123406250D01*
G75*
G02*
X267750000Y-123625000I-218750J0D01*
G01*
X267237500Y-123625000D01*
G75*
G02*
X267018750Y-123406250I0J218750D01*
G01*
X267018750Y-122968750D01*
G75*
G02*
X267237500Y-122750000I218750J0D01*
G01*
G37*
G36*
G01*
X267237500Y-121175000D02*
X267750000Y-121175000D01*
G75*
G02*
X267968750Y-121393750I0J-218750D01*
G01*
X267968750Y-121831250D01*
G75*
G02*
X267750000Y-122050000I-218750J0D01*
G01*
X267237500Y-122050000D01*
G75*
G02*
X267018750Y-121831250I0J218750D01*
G01*
X267018750Y-121393750D01*
G75*
G02*
X267237500Y-121175000I218750J0D01*
G01*
G37*
G36*
G01*
X276762500Y-140225000D02*
X277275000Y-140225000D01*
G75*
G02*
X277493750Y-140443750I0J-218750D01*
G01*
X277493750Y-140881250D01*
G75*
G02*
X277275000Y-141100000I-218750J0D01*
G01*
X276762500Y-141100000D01*
G75*
G02*
X276543750Y-140881250I0J218750D01*
G01*
X276543750Y-140443750D01*
G75*
G02*
X276762500Y-140225000I218750J0D01*
G01*
G37*
G36*
G01*
X276762500Y-141800000D02*
X277275000Y-141800000D01*
G75*
G02*
X277493750Y-142018750I0J-218750D01*
G01*
X277493750Y-142456250D01*
G75*
G02*
X277275000Y-142675000I-218750J0D01*
G01*
X276762500Y-142675000D01*
G75*
G02*
X276543750Y-142456250I0J218750D01*
G01*
X276543750Y-142018750D01*
G75*
G02*
X276762500Y-141800000I218750J0D01*
G01*
G37*
G36*
G01*
X282318750Y-160700000D02*
X282831250Y-160700000D01*
G75*
G02*
X283050000Y-160918750I0J-218750D01*
G01*
X283050000Y-161356250D01*
G75*
G02*
X282831250Y-161575000I-218750J0D01*
G01*
X282318750Y-161575000D01*
G75*
G02*
X282100000Y-161356250I0J218750D01*
G01*
X282100000Y-160918750D01*
G75*
G02*
X282318750Y-160700000I218750J0D01*
G01*
G37*
G36*
G01*
X282318750Y-162275000D02*
X282831250Y-162275000D01*
G75*
G02*
X283050000Y-162493750I0J-218750D01*
G01*
X283050000Y-162931250D01*
G75*
G02*
X282831250Y-163150000I-218750J0D01*
G01*
X282318750Y-163150000D01*
G75*
G02*
X282100000Y-162931250I0J218750D01*
G01*
X282100000Y-162493750D01*
G75*
G02*
X282318750Y-162275000I218750J0D01*
G01*
G37*
G36*
G01*
X279143750Y-178226000D02*
X279656250Y-178226000D01*
G75*
G02*
X279875000Y-178444750I0J-218750D01*
G01*
X279875000Y-178882250D01*
G75*
G02*
X279656250Y-179101000I-218750J0D01*
G01*
X279143750Y-179101000D01*
G75*
G02*
X278925000Y-178882250I0J218750D01*
G01*
X278925000Y-178444750D01*
G75*
G02*
X279143750Y-178226000I218750J0D01*
G01*
G37*
G36*
G01*
X279143750Y-179801000D02*
X279656250Y-179801000D01*
G75*
G02*
X279875000Y-180019750I0J-218750D01*
G01*
X279875000Y-180457250D01*
G75*
G02*
X279656250Y-180676000I-218750J0D01*
G01*
X279143750Y-180676000D01*
G75*
G02*
X278925000Y-180457250I0J218750D01*
G01*
X278925000Y-180019750D01*
G75*
G02*
X279143750Y-179801000I218750J0D01*
G01*
G37*
G36*
G01*
X291050000Y-203700000D02*
X291562500Y-203700000D01*
G75*
G02*
X291781250Y-203918750I0J-218750D01*
G01*
X291781250Y-204356250D01*
G75*
G02*
X291562500Y-204575000I-218750J0D01*
G01*
X291050000Y-204575000D01*
G75*
G02*
X290831250Y-204356250I0J218750D01*
G01*
X290831250Y-203918750D01*
G75*
G02*
X291050000Y-203700000I218750J0D01*
G01*
G37*
G36*
G01*
X291050000Y-202125000D02*
X291562500Y-202125000D01*
G75*
G02*
X291781250Y-202343750I0J-218750D01*
G01*
X291781250Y-202781250D01*
G75*
G02*
X291562500Y-203000000I-218750J0D01*
G01*
X291050000Y-203000000D01*
G75*
G02*
X290831250Y-202781250I0J218750D01*
G01*
X290831250Y-202343750D01*
G75*
G02*
X291050000Y-202125000I218750J0D01*
G01*
G37*
G36*
G01*
X295812500Y-121225000D02*
X296325000Y-121225000D01*
G75*
G02*
X296543750Y-121443750I0J-218750D01*
G01*
X296543750Y-121881250D01*
G75*
G02*
X296325000Y-122100000I-218750J0D01*
G01*
X295812500Y-122100000D01*
G75*
G02*
X295593750Y-121881250I0J218750D01*
G01*
X295593750Y-121443750D01*
G75*
G02*
X295812500Y-121225000I218750J0D01*
G01*
G37*
G36*
G01*
X295812500Y-122800000D02*
X296325000Y-122800000D01*
G75*
G02*
X296543750Y-123018750I0J-218750D01*
G01*
X296543750Y-123456250D01*
G75*
G02*
X296325000Y-123675000I-218750J0D01*
G01*
X295812500Y-123675000D01*
G75*
G02*
X295593750Y-123456250I0J218750D01*
G01*
X295593750Y-123018750D01*
G75*
G02*
X295812500Y-122800000I218750J0D01*
G01*
G37*
G36*
G01*
X304543750Y-141800000D02*
X305056250Y-141800000D01*
G75*
G02*
X305275000Y-142018750I0J-218750D01*
G01*
X305275000Y-142456250D01*
G75*
G02*
X305056250Y-142675000I-218750J0D01*
G01*
X304543750Y-142675000D01*
G75*
G02*
X304325000Y-142456250I0J218750D01*
G01*
X304325000Y-142018750D01*
G75*
G02*
X304543750Y-141800000I218750J0D01*
G01*
G37*
G36*
G01*
X304543750Y-140225000D02*
X305056250Y-140225000D01*
G75*
G02*
X305275000Y-140443750I0J-218750D01*
G01*
X305275000Y-140881250D01*
G75*
G02*
X305056250Y-141100000I-218750J0D01*
G01*
X304543750Y-141100000D01*
G75*
G02*
X304325000Y-140881250I0J218750D01*
G01*
X304325000Y-140443750D01*
G75*
G02*
X304543750Y-140225000I218750J0D01*
G01*
G37*
G36*
G01*
X293431250Y-159325000D02*
X293943750Y-159325000D01*
G75*
G02*
X294162500Y-159543750I0J-218750D01*
G01*
X294162500Y-159981250D01*
G75*
G02*
X293943750Y-160200000I-218750J0D01*
G01*
X293431250Y-160200000D01*
G75*
G02*
X293212500Y-159981250I0J218750D01*
G01*
X293212500Y-159543750D01*
G75*
G02*
X293431250Y-159325000I218750J0D01*
G01*
G37*
G36*
G01*
X293431250Y-160900000D02*
X293943750Y-160900000D01*
G75*
G02*
X294162500Y-161118750I0J-218750D01*
G01*
X294162500Y-161556250D01*
G75*
G02*
X293943750Y-161775000I-218750J0D01*
G01*
X293431250Y-161775000D01*
G75*
G02*
X293212500Y-161556250I0J218750D01*
G01*
X293212500Y-161118750D01*
G75*
G02*
X293431250Y-160900000I218750J0D01*
G01*
G37*
G36*
G01*
X310100000Y-182925000D02*
X310612500Y-182925000D01*
G75*
G02*
X310831250Y-183143750I0J-218750D01*
G01*
X310831250Y-183581250D01*
G75*
G02*
X310612500Y-183800000I-218750J0D01*
G01*
X310100000Y-183800000D01*
G75*
G02*
X309881250Y-183581250I0J218750D01*
G01*
X309881250Y-183143750D01*
G75*
G02*
X310100000Y-182925000I218750J0D01*
G01*
G37*
G36*
G01*
X310100000Y-184500000D02*
X310612500Y-184500000D01*
G75*
G02*
X310831250Y-184718750I0J-218750D01*
G01*
X310831250Y-185156250D01*
G75*
G02*
X310612500Y-185375000I-218750J0D01*
G01*
X310100000Y-185375000D01*
G75*
G02*
X309881250Y-185156250I0J218750D01*
G01*
X309881250Y-184718750D01*
G75*
G02*
X310100000Y-184500000I218750J0D01*
G01*
G37*
G36*
G01*
X310100000Y-203700000D02*
X310612500Y-203700000D01*
G75*
G02*
X310831250Y-203918750I0J-218750D01*
G01*
X310831250Y-204356250D01*
G75*
G02*
X310612500Y-204575000I-218750J0D01*
G01*
X310100000Y-204575000D01*
G75*
G02*
X309881250Y-204356250I0J218750D01*
G01*
X309881250Y-203918750D01*
G75*
G02*
X310100000Y-203700000I218750J0D01*
G01*
G37*
G36*
G01*
X310100000Y-202125000D02*
X310612500Y-202125000D01*
G75*
G02*
X310831250Y-202343750I0J-218750D01*
G01*
X310831250Y-202781250D01*
G75*
G02*
X310612500Y-203000000I-218750J0D01*
G01*
X310100000Y-203000000D01*
G75*
G02*
X309881250Y-202781250I0J218750D01*
G01*
X309881250Y-202343750D01*
G75*
G02*
X310100000Y-202125000I218750J0D01*
G01*
G37*
G36*
G01*
X307462500Y-122775000D02*
X307975000Y-122775000D01*
G75*
G02*
X308193750Y-122993750I0J-218750D01*
G01*
X308193750Y-123431250D01*
G75*
G02*
X307975000Y-123650000I-218750J0D01*
G01*
X307462500Y-123650000D01*
G75*
G02*
X307243750Y-123431250I0J218750D01*
G01*
X307243750Y-122993750D01*
G75*
G02*
X307462500Y-122775000I218750J0D01*
G01*
G37*
G36*
G01*
X307462500Y-121200000D02*
X307975000Y-121200000D01*
G75*
G02*
X308193750Y-121418750I0J-218750D01*
G01*
X308193750Y-121856250D01*
G75*
G02*
X307975000Y-122075000I-218750J0D01*
G01*
X307462500Y-122075000D01*
G75*
G02*
X307243750Y-121856250I0J218750D01*
G01*
X307243750Y-121418750D01*
G75*
G02*
X307462500Y-121200000I218750J0D01*
G01*
G37*
G36*
G01*
X333912500Y-122700000D02*
X334425000Y-122700000D01*
G75*
G02*
X334643750Y-122918750I0J-218750D01*
G01*
X334643750Y-123356250D01*
G75*
G02*
X334425000Y-123575000I-218750J0D01*
G01*
X333912500Y-123575000D01*
G75*
G02*
X333693750Y-123356250I0J218750D01*
G01*
X333693750Y-122918750D01*
G75*
G02*
X333912500Y-122700000I218750J0D01*
G01*
G37*
G36*
G01*
X333912500Y-121125000D02*
X334425000Y-121125000D01*
G75*
G02*
X334643750Y-121343750I0J-218750D01*
G01*
X334643750Y-121781250D01*
G75*
G02*
X334425000Y-122000000I-218750J0D01*
G01*
X333912500Y-122000000D01*
G75*
G02*
X333693750Y-121781250I0J218750D01*
G01*
X333693750Y-121343750D01*
G75*
G02*
X333912500Y-121125000I218750J0D01*
G01*
G37*
G36*
G01*
X333912500Y-141800000D02*
X334425000Y-141800000D01*
G75*
G02*
X334643750Y-142018750I0J-218750D01*
G01*
X334643750Y-142456250D01*
G75*
G02*
X334425000Y-142675000I-218750J0D01*
G01*
X333912500Y-142675000D01*
G75*
G02*
X333693750Y-142456250I0J218750D01*
G01*
X333693750Y-142018750D01*
G75*
G02*
X333912500Y-141800000I218750J0D01*
G01*
G37*
G36*
G01*
X333912500Y-140225000D02*
X334425000Y-140225000D01*
G75*
G02*
X334643750Y-140443750I0J-218750D01*
G01*
X334643750Y-140881250D01*
G75*
G02*
X334425000Y-141100000I-218750J0D01*
G01*
X333912500Y-141100000D01*
G75*
G02*
X333693750Y-140881250I0J218750D01*
G01*
X333693750Y-140443750D01*
G75*
G02*
X333912500Y-140225000I218750J0D01*
G01*
G37*
G36*
G01*
X334762500Y-160900000D02*
X335275000Y-160900000D01*
G75*
G02*
X335493750Y-161118750I0J-218750D01*
G01*
X335493750Y-161556250D01*
G75*
G02*
X335275000Y-161775000I-218750J0D01*
G01*
X334762500Y-161775000D01*
G75*
G02*
X334543750Y-161556250I0J218750D01*
G01*
X334543750Y-161118750D01*
G75*
G02*
X334762500Y-160900000I218750J0D01*
G01*
G37*
G36*
G01*
X334762500Y-159325000D02*
X335275000Y-159325000D01*
G75*
G02*
X335493750Y-159543750I0J-218750D01*
G01*
X335493750Y-159981250D01*
G75*
G02*
X335275000Y-160200000I-218750J0D01*
G01*
X334762500Y-160200000D01*
G75*
G02*
X334543750Y-159981250I0J218750D01*
G01*
X334543750Y-159543750D01*
G75*
G02*
X334762500Y-159325000I218750J0D01*
G01*
G37*
G36*
G01*
X333912500Y-179900000D02*
X334425000Y-179900000D01*
G75*
G02*
X334643750Y-180118750I0J-218750D01*
G01*
X334643750Y-180556250D01*
G75*
G02*
X334425000Y-180775000I-218750J0D01*
G01*
X333912500Y-180775000D01*
G75*
G02*
X333693750Y-180556250I0J218750D01*
G01*
X333693750Y-180118750D01*
G75*
G02*
X333912500Y-179900000I218750J0D01*
G01*
G37*
G36*
G01*
X333912500Y-178325000D02*
X334425000Y-178325000D01*
G75*
G02*
X334643750Y-178543750I0J-218750D01*
G01*
X334643750Y-178981250D01*
G75*
G02*
X334425000Y-179200000I-218750J0D01*
G01*
X333912500Y-179200000D01*
G75*
G02*
X333693750Y-178981250I0J218750D01*
G01*
X333693750Y-178543750D01*
G75*
G02*
X333912500Y-178325000I218750J0D01*
G01*
G37*
G36*
G01*
X329150000Y-202100000D02*
X329662500Y-202100000D01*
G75*
G02*
X329881250Y-202318750I0J-218750D01*
G01*
X329881250Y-202756250D01*
G75*
G02*
X329662500Y-202975000I-218750J0D01*
G01*
X329150000Y-202975000D01*
G75*
G02*
X328931250Y-202756250I0J218750D01*
G01*
X328931250Y-202318750D01*
G75*
G02*
X329150000Y-202100000I218750J0D01*
G01*
G37*
G36*
G01*
X329150000Y-203675000D02*
X329662500Y-203675000D01*
G75*
G02*
X329881250Y-203893750I0J-218750D01*
G01*
X329881250Y-204331250D01*
G75*
G02*
X329662500Y-204550000I-218750J0D01*
G01*
X329150000Y-204550000D01*
G75*
G02*
X328931250Y-204331250I0J218750D01*
G01*
X328931250Y-203893750D01*
G75*
G02*
X329150000Y-203675000I218750J0D01*
G01*
G37*
G36*
G01*
X352962500Y-122700000D02*
X353475000Y-122700000D01*
G75*
G02*
X353693750Y-122918750I0J-218750D01*
G01*
X353693750Y-123356250D01*
G75*
G02*
X353475000Y-123575000I-218750J0D01*
G01*
X352962500Y-123575000D01*
G75*
G02*
X352743750Y-123356250I0J218750D01*
G01*
X352743750Y-122918750D01*
G75*
G02*
X352962500Y-122700000I218750J0D01*
G01*
G37*
G36*
G01*
X352962500Y-121125000D02*
X353475000Y-121125000D01*
G75*
G02*
X353693750Y-121343750I0J-218750D01*
G01*
X353693750Y-121781250D01*
G75*
G02*
X353475000Y-122000000I-218750J0D01*
G01*
X352962500Y-122000000D01*
G75*
G02*
X352743750Y-121781250I0J218750D01*
G01*
X352743750Y-121343750D01*
G75*
G02*
X352962500Y-121125000I218750J0D01*
G01*
G37*
G36*
G01*
X352962500Y-140225000D02*
X353475000Y-140225000D01*
G75*
G02*
X353693750Y-140443750I0J-218750D01*
G01*
X353693750Y-140881250D01*
G75*
G02*
X353475000Y-141100000I-218750J0D01*
G01*
X352962500Y-141100000D01*
G75*
G02*
X352743750Y-140881250I0J218750D01*
G01*
X352743750Y-140443750D01*
G75*
G02*
X352962500Y-140225000I218750J0D01*
G01*
G37*
G36*
G01*
X352962500Y-141800000D02*
X353475000Y-141800000D01*
G75*
G02*
X353693750Y-142018750I0J-218750D01*
G01*
X353693750Y-142456250D01*
G75*
G02*
X353475000Y-142675000I-218750J0D01*
G01*
X352962500Y-142675000D01*
G75*
G02*
X352743750Y-142456250I0J218750D01*
G01*
X352743750Y-142018750D01*
G75*
G02*
X352962500Y-141800000I218750J0D01*
G01*
G37*
G36*
G01*
X352962500Y-159275000D02*
X353475000Y-159275000D01*
G75*
G02*
X353693750Y-159493750I0J-218750D01*
G01*
X353693750Y-159931250D01*
G75*
G02*
X353475000Y-160150000I-218750J0D01*
G01*
X352962500Y-160150000D01*
G75*
G02*
X352743750Y-159931250I0J218750D01*
G01*
X352743750Y-159493750D01*
G75*
G02*
X352962500Y-159275000I218750J0D01*
G01*
G37*
G36*
G01*
X352962500Y-160850000D02*
X353475000Y-160850000D01*
G75*
G02*
X353693750Y-161068750I0J-218750D01*
G01*
X353693750Y-161506250D01*
G75*
G02*
X353475000Y-161725000I-218750J0D01*
G01*
X352962500Y-161725000D01*
G75*
G02*
X352743750Y-161506250I0J218750D01*
G01*
X352743750Y-161068750D01*
G75*
G02*
X352962500Y-160850000I218750J0D01*
G01*
G37*
G36*
G01*
X352962500Y-179900000D02*
X353475000Y-179900000D01*
G75*
G02*
X353693750Y-180118750I0J-218750D01*
G01*
X353693750Y-180556250D01*
G75*
G02*
X353475000Y-180775000I-218750J0D01*
G01*
X352962500Y-180775000D01*
G75*
G02*
X352743750Y-180556250I0J218750D01*
G01*
X352743750Y-180118750D01*
G75*
G02*
X352962500Y-179900000I218750J0D01*
G01*
G37*
G36*
G01*
X352962500Y-178325000D02*
X353475000Y-178325000D01*
G75*
G02*
X353693750Y-178543750I0J-218750D01*
G01*
X353693750Y-178981250D01*
G75*
G02*
X353475000Y-179200000I-218750J0D01*
G01*
X352962500Y-179200000D01*
G75*
G02*
X352743750Y-178981250I0J218750D01*
G01*
X352743750Y-178543750D01*
G75*
G02*
X352962500Y-178325000I218750J0D01*
G01*
G37*
G36*
G01*
X352962500Y-198787500D02*
X353475000Y-198787500D01*
G75*
G02*
X353693750Y-199006250I0J-218750D01*
G01*
X353693750Y-199443750D01*
G75*
G02*
X353475000Y-199662500I-218750J0D01*
G01*
X352962500Y-199662500D01*
G75*
G02*
X352743750Y-199443750I0J218750D01*
G01*
X352743750Y-199006250D01*
G75*
G02*
X352962500Y-198787500I218750J0D01*
G01*
G37*
G36*
G01*
X352962500Y-197212500D02*
X353475000Y-197212500D01*
G75*
G02*
X353693750Y-197431250I0J-218750D01*
G01*
X353693750Y-197868750D01*
G75*
G02*
X353475000Y-198087500I-218750J0D01*
G01*
X352962500Y-198087500D01*
G75*
G02*
X352743750Y-197868750I0J218750D01*
G01*
X352743750Y-197431250D01*
G75*
G02*
X352962500Y-197212500I218750J0D01*
G01*
G37*
G36*
G01*
X372012500Y-121125000D02*
X372525000Y-121125000D01*
G75*
G02*
X372743750Y-121343750I0J-218750D01*
G01*
X372743750Y-121781250D01*
G75*
G02*
X372525000Y-122000000I-218750J0D01*
G01*
X372012500Y-122000000D01*
G75*
G02*
X371793750Y-121781250I0J218750D01*
G01*
X371793750Y-121343750D01*
G75*
G02*
X372012500Y-121125000I218750J0D01*
G01*
G37*
G36*
G01*
X372012500Y-122700000D02*
X372525000Y-122700000D01*
G75*
G02*
X372743750Y-122918750I0J-218750D01*
G01*
X372743750Y-123356250D01*
G75*
G02*
X372525000Y-123575000I-218750J0D01*
G01*
X372012500Y-123575000D01*
G75*
G02*
X371793750Y-123356250I0J218750D01*
G01*
X371793750Y-122918750D01*
G75*
G02*
X372012500Y-122700000I218750J0D01*
G01*
G37*
G36*
G01*
X372012500Y-141637500D02*
X372525000Y-141637500D01*
G75*
G02*
X372743750Y-141856250I0J-218750D01*
G01*
X372743750Y-142293750D01*
G75*
G02*
X372525000Y-142512500I-218750J0D01*
G01*
X372012500Y-142512500D01*
G75*
G02*
X371793750Y-142293750I0J218750D01*
G01*
X371793750Y-141856250D01*
G75*
G02*
X372012500Y-141637500I218750J0D01*
G01*
G37*
G36*
G01*
X372012500Y-140062500D02*
X372525000Y-140062500D01*
G75*
G02*
X372743750Y-140281250I0J-218750D01*
G01*
X372743750Y-140718750D01*
G75*
G02*
X372525000Y-140937500I-218750J0D01*
G01*
X372012500Y-140937500D01*
G75*
G02*
X371793750Y-140718750I0J218750D01*
G01*
X371793750Y-140281250D01*
G75*
G02*
X372012500Y-140062500I218750J0D01*
G01*
G37*
G36*
G01*
X372012500Y-159300000D02*
X372525000Y-159300000D01*
G75*
G02*
X372743750Y-159518750I0J-218750D01*
G01*
X372743750Y-159956250D01*
G75*
G02*
X372525000Y-160175000I-218750J0D01*
G01*
X372012500Y-160175000D01*
G75*
G02*
X371793750Y-159956250I0J218750D01*
G01*
X371793750Y-159518750D01*
G75*
G02*
X372012500Y-159300000I218750J0D01*
G01*
G37*
G36*
G01*
X372012500Y-160875000D02*
X372525000Y-160875000D01*
G75*
G02*
X372743750Y-161093750I0J-218750D01*
G01*
X372743750Y-161531250D01*
G75*
G02*
X372525000Y-161750000I-218750J0D01*
G01*
X372012500Y-161750000D01*
G75*
G02*
X371793750Y-161531250I0J218750D01*
G01*
X371793750Y-161093750D01*
G75*
G02*
X372012500Y-160875000I218750J0D01*
G01*
G37*
G36*
G01*
X372012500Y-178300000D02*
X372525000Y-178300000D01*
G75*
G02*
X372743750Y-178518750I0J-218750D01*
G01*
X372743750Y-178956250D01*
G75*
G02*
X372525000Y-179175000I-218750J0D01*
G01*
X372012500Y-179175000D01*
G75*
G02*
X371793750Y-178956250I0J218750D01*
G01*
X371793750Y-178518750D01*
G75*
G02*
X372012500Y-178300000I218750J0D01*
G01*
G37*
G36*
G01*
X372012500Y-179875000D02*
X372525000Y-179875000D01*
G75*
G02*
X372743750Y-180093750I0J-218750D01*
G01*
X372743750Y-180531250D01*
G75*
G02*
X372525000Y-180750000I-218750J0D01*
G01*
X372012500Y-180750000D01*
G75*
G02*
X371793750Y-180531250I0J218750D01*
G01*
X371793750Y-180093750D01*
G75*
G02*
X372012500Y-179875000I218750J0D01*
G01*
G37*
G36*
G01*
X372012500Y-198900000D02*
X372525000Y-198900000D01*
G75*
G02*
X372743750Y-199118750I0J-218750D01*
G01*
X372743750Y-199556250D01*
G75*
G02*
X372525000Y-199775000I-218750J0D01*
G01*
X372012500Y-199775000D01*
G75*
G02*
X371793750Y-199556250I0J218750D01*
G01*
X371793750Y-199118750D01*
G75*
G02*
X372012500Y-198900000I218750J0D01*
G01*
G37*
G36*
G01*
X372012500Y-197325000D02*
X372525000Y-197325000D01*
G75*
G02*
X372743750Y-197543750I0J-218750D01*
G01*
X372743750Y-197981250D01*
G75*
G02*
X372525000Y-198200000I-218750J0D01*
G01*
X372012500Y-198200000D01*
G75*
G02*
X371793750Y-197981250I0J218750D01*
G01*
X371793750Y-197543750D01*
G75*
G02*
X372012500Y-197325000I218750J0D01*
G01*
G37*
G36*
G01*
X391062500Y-198900000D02*
X391575000Y-198900000D01*
G75*
G02*
X391793750Y-199118750I0J-218750D01*
G01*
X391793750Y-199556250D01*
G75*
G02*
X391575000Y-199775000I-218750J0D01*
G01*
X391062500Y-199775000D01*
G75*
G02*
X390843750Y-199556250I0J218750D01*
G01*
X390843750Y-199118750D01*
G75*
G02*
X391062500Y-198900000I218750J0D01*
G01*
G37*
G36*
G01*
X391062500Y-197325000D02*
X391575000Y-197325000D01*
G75*
G02*
X391793750Y-197543750I0J-218750D01*
G01*
X391793750Y-197981250D01*
G75*
G02*
X391575000Y-198200000I-218750J0D01*
G01*
X391062500Y-198200000D01*
G75*
G02*
X390843750Y-197981250I0J218750D01*
G01*
X390843750Y-197543750D01*
G75*
G02*
X391062500Y-197325000I218750J0D01*
G01*
G37*
G36*
G01*
X379156250Y-121225000D02*
X379668750Y-121225000D01*
G75*
G02*
X379887500Y-121443750I0J-218750D01*
G01*
X379887500Y-121881250D01*
G75*
G02*
X379668750Y-122100000I-218750J0D01*
G01*
X379156250Y-122100000D01*
G75*
G02*
X378937500Y-121881250I0J218750D01*
G01*
X378937500Y-121443750D01*
G75*
G02*
X379156250Y-121225000I218750J0D01*
G01*
G37*
G36*
G01*
X379156250Y-122800000D02*
X379668750Y-122800000D01*
G75*
G02*
X379887500Y-123018750I0J-218750D01*
G01*
X379887500Y-123456250D01*
G75*
G02*
X379668750Y-123675000I-218750J0D01*
G01*
X379156250Y-123675000D01*
G75*
G02*
X378937500Y-123456250I0J218750D01*
G01*
X378937500Y-123018750D01*
G75*
G02*
X379156250Y-122800000I218750J0D01*
G01*
G37*
G36*
G01*
X379156250Y-140062500D02*
X379668750Y-140062500D01*
G75*
G02*
X379887500Y-140281250I0J-218750D01*
G01*
X379887500Y-140718750D01*
G75*
G02*
X379668750Y-140937500I-218750J0D01*
G01*
X379156250Y-140937500D01*
G75*
G02*
X378937500Y-140718750I0J218750D01*
G01*
X378937500Y-140281250D01*
G75*
G02*
X379156250Y-140062500I218750J0D01*
G01*
G37*
G36*
G01*
X379156250Y-141637500D02*
X379668750Y-141637500D01*
G75*
G02*
X379887500Y-141856250I0J-218750D01*
G01*
X379887500Y-142293750D01*
G75*
G02*
X379668750Y-142512500I-218750J0D01*
G01*
X379156250Y-142512500D01*
G75*
G02*
X378937500Y-142293750I0J218750D01*
G01*
X378937500Y-141856250D01*
G75*
G02*
X379156250Y-141637500I218750J0D01*
G01*
G37*
G36*
G01*
X391062500Y-160875000D02*
X391575000Y-160875000D01*
G75*
G02*
X391793750Y-161093750I0J-218750D01*
G01*
X391793750Y-161531250D01*
G75*
G02*
X391575000Y-161750000I-218750J0D01*
G01*
X391062500Y-161750000D01*
G75*
G02*
X390843750Y-161531250I0J218750D01*
G01*
X390843750Y-161093750D01*
G75*
G02*
X391062500Y-160875000I218750J0D01*
G01*
G37*
G36*
G01*
X391062500Y-159300000D02*
X391575000Y-159300000D01*
G75*
G02*
X391793750Y-159518750I0J-218750D01*
G01*
X391793750Y-159956250D01*
G75*
G02*
X391575000Y-160175000I-218750J0D01*
G01*
X391062500Y-160175000D01*
G75*
G02*
X390843750Y-159956250I0J218750D01*
G01*
X390843750Y-159518750D01*
G75*
G02*
X391062500Y-159300000I218750J0D01*
G01*
G37*
G36*
G01*
X374393750Y-179875000D02*
X374906250Y-179875000D01*
G75*
G02*
X375125000Y-180093750I0J-218750D01*
G01*
X375125000Y-180531250D01*
G75*
G02*
X374906250Y-180750000I-218750J0D01*
G01*
X374393750Y-180750000D01*
G75*
G02*
X374175000Y-180531250I0J218750D01*
G01*
X374175000Y-180093750D01*
G75*
G02*
X374393750Y-179875000I218750J0D01*
G01*
G37*
G36*
G01*
X374393750Y-178300000D02*
X374906250Y-178300000D01*
G75*
G02*
X375125000Y-178518750I0J-218750D01*
G01*
X375125000Y-178956250D01*
G75*
G02*
X374906250Y-179175000I-218750J0D01*
G01*
X374393750Y-179175000D01*
G75*
G02*
X374175000Y-178956250I0J218750D01*
G01*
X374175000Y-178518750D01*
G75*
G02*
X374393750Y-178300000I218750J0D01*
G01*
G37*
G36*
G01*
X220345750Y-109603250D02*
X220345750Y-109090750D01*
G75*
G02*
X220564500Y-108872000I218750J0D01*
G01*
X221002000Y-108872000D01*
G75*
G02*
X221220750Y-109090750I0J-218750D01*
G01*
X221220750Y-109603250D01*
G75*
G02*
X221002000Y-109822000I-218750J0D01*
G01*
X220564500Y-109822000D01*
G75*
G02*
X220345750Y-109603250I0J218750D01*
G01*
G37*
G36*
G01*
X218770750Y-109603250D02*
X218770750Y-109090750D01*
G75*
G02*
X218989500Y-108872000I218750J0D01*
G01*
X219427000Y-108872000D01*
G75*
G02*
X219645750Y-109090750I0J-218750D01*
G01*
X219645750Y-109603250D01*
G75*
G02*
X219427000Y-109822000I-218750J0D01*
G01*
X218989500Y-109822000D01*
G75*
G02*
X218770750Y-109603250I0J218750D01*
G01*
G37*
G36*
G01*
X126642150Y-199232000D02*
X127154650Y-199232000D01*
G75*
G02*
X127373400Y-199450750I0J-218750D01*
G01*
X127373400Y-199888250D01*
G75*
G02*
X127154650Y-200107000I-218750J0D01*
G01*
X126642150Y-200107000D01*
G75*
G02*
X126423400Y-199888250I0J218750D01*
G01*
X126423400Y-199450750D01*
G75*
G02*
X126642150Y-199232000I218750J0D01*
G01*
G37*
G36*
G01*
X126642150Y-197657000D02*
X127154650Y-197657000D01*
G75*
G02*
X127373400Y-197875750I0J-218750D01*
G01*
X127373400Y-198313250D01*
G75*
G02*
X127154650Y-198532000I-218750J0D01*
G01*
X126642150Y-198532000D01*
G75*
G02*
X126423400Y-198313250I0J218750D01*
G01*
X126423400Y-197875750D01*
G75*
G02*
X126642150Y-197657000I218750J0D01*
G01*
G37*
G36*
G01*
X185379650Y-196863250D02*
X185892150Y-196863250D01*
G75*
G02*
X186110900Y-197082000I0J-218750D01*
G01*
X186110900Y-197519500D01*
G75*
G02*
X185892150Y-197738250I-218750J0D01*
G01*
X185379650Y-197738250D01*
G75*
G02*
X185160900Y-197519500I0J218750D01*
G01*
X185160900Y-197082000D01*
G75*
G02*
X185379650Y-196863250I218750J0D01*
G01*
G37*
G36*
G01*
X185379650Y-198438250D02*
X185892150Y-198438250D01*
G75*
G02*
X186110900Y-198657000I0J-218750D01*
G01*
X186110900Y-199094500D01*
G75*
G02*
X185892150Y-199313250I-218750J0D01*
G01*
X185379650Y-199313250D01*
G75*
G02*
X185160900Y-199094500I0J218750D01*
G01*
X185160900Y-198657000D01*
G75*
G02*
X185379650Y-198438250I218750J0D01*
G01*
G37*
D18*
X104444800Y-192532000D03*
D19*
X101904800Y-192532000D03*
G36*
G01*
X310088221Y-163780223D02*
X313411623Y-160456821D01*
G75*
G02*
X313765177Y-160456821I176777J-176777D01*
G01*
X317088579Y-163780223D01*
G75*
G02*
X317088579Y-164133777I-176777J-176777D01*
G01*
X313765177Y-167457179D01*
G75*
G02*
X313411623Y-167457179I-176777J176777D01*
G01*
X310088221Y-164133777D01*
G75*
G02*
X310088221Y-163780223I176777J176777D01*
G01*
G37*
G36*
G01*
X309036400Y-163028922D02*
X309124788Y-162940534D01*
G75*
G02*
X309213176Y-162940534I44194J-44194D01*
G01*
X309884928Y-163612286D01*
G75*
G02*
X309884928Y-163700674I-44194J-44194D01*
G01*
X309796540Y-163789062D01*
G75*
G02*
X309708152Y-163789062I-44194J44194D01*
G01*
X309036400Y-163117310D01*
G75*
G02*
X309036400Y-163028922I44194J44194D01*
G01*
G37*
G36*
G01*
X309389954Y-162675369D02*
X309478342Y-162586981D01*
G75*
G02*
X309566730Y-162586981I44194J-44194D01*
G01*
X310238482Y-163258733D01*
G75*
G02*
X310238482Y-163347121I-44194J-44194D01*
G01*
X310150094Y-163435509D01*
G75*
G02*
X310061706Y-163435509I-44194J44194D01*
G01*
X309389954Y-162763757D01*
G75*
G02*
X309389954Y-162675369I44194J44194D01*
G01*
G37*
G36*
G01*
X309743507Y-162321815D02*
X309831895Y-162233427D01*
G75*
G02*
X309920283Y-162233427I44194J-44194D01*
G01*
X310592035Y-162905179D01*
G75*
G02*
X310592035Y-162993567I-44194J-44194D01*
G01*
X310503647Y-163081955D01*
G75*
G02*
X310415259Y-163081955I-44194J44194D01*
G01*
X309743507Y-162410203D01*
G75*
G02*
X309743507Y-162321815I44194J44194D01*
G01*
G37*
G36*
G01*
X310097060Y-161968262D02*
X310185448Y-161879874D01*
G75*
G02*
X310273836Y-161879874I44194J-44194D01*
G01*
X310945588Y-162551626D01*
G75*
G02*
X310945588Y-162640014I-44194J-44194D01*
G01*
X310857200Y-162728402D01*
G75*
G02*
X310768812Y-162728402I-44194J44194D01*
G01*
X310097060Y-162056650D01*
G75*
G02*
X310097060Y-161968262I44194J44194D01*
G01*
G37*
G36*
G01*
X310450614Y-161614709D02*
X310539002Y-161526321D01*
G75*
G02*
X310627390Y-161526321I44194J-44194D01*
G01*
X311299142Y-162198073D01*
G75*
G02*
X311299142Y-162286461I-44194J-44194D01*
G01*
X311210754Y-162374849D01*
G75*
G02*
X311122366Y-162374849I-44194J44194D01*
G01*
X310450614Y-161703097D01*
G75*
G02*
X310450614Y-161614709I44194J44194D01*
G01*
G37*
G36*
G01*
X310804167Y-161261155D02*
X310892555Y-161172767D01*
G75*
G02*
X310980943Y-161172767I44194J-44194D01*
G01*
X311652695Y-161844519D01*
G75*
G02*
X311652695Y-161932907I-44194J-44194D01*
G01*
X311564307Y-162021295D01*
G75*
G02*
X311475919Y-162021295I-44194J44194D01*
G01*
X310804167Y-161349543D01*
G75*
G02*
X310804167Y-161261155I44194J44194D01*
G01*
G37*
G36*
G01*
X311157721Y-160907602D02*
X311246109Y-160819214D01*
G75*
G02*
X311334497Y-160819214I44194J-44194D01*
G01*
X312006249Y-161490966D01*
G75*
G02*
X312006249Y-161579354I-44194J-44194D01*
G01*
X311917861Y-161667742D01*
G75*
G02*
X311829473Y-161667742I-44194J44194D01*
G01*
X311157721Y-160995990D01*
G75*
G02*
X311157721Y-160907602I44194J44194D01*
G01*
G37*
G36*
G01*
X311511274Y-160554048D02*
X311599662Y-160465660D01*
G75*
G02*
X311688050Y-160465660I44194J-44194D01*
G01*
X312359802Y-161137412D01*
G75*
G02*
X312359802Y-161225800I-44194J-44194D01*
G01*
X312271414Y-161314188D01*
G75*
G02*
X312183026Y-161314188I-44194J44194D01*
G01*
X311511274Y-160642436D01*
G75*
G02*
X311511274Y-160554048I44194J44194D01*
G01*
G37*
G36*
G01*
X311864827Y-160200495D02*
X311953215Y-160112107D01*
G75*
G02*
X312041603Y-160112107I44194J-44194D01*
G01*
X312713355Y-160783859D01*
G75*
G02*
X312713355Y-160872247I-44194J-44194D01*
G01*
X312624967Y-160960635D01*
G75*
G02*
X312536579Y-160960635I-44194J44194D01*
G01*
X311864827Y-160288883D01*
G75*
G02*
X311864827Y-160200495I44194J44194D01*
G01*
G37*
G36*
G01*
X312218381Y-159846942D02*
X312306769Y-159758554D01*
G75*
G02*
X312395157Y-159758554I44194J-44194D01*
G01*
X313066909Y-160430306D01*
G75*
G02*
X313066909Y-160518694I-44194J-44194D01*
G01*
X312978521Y-160607082D01*
G75*
G02*
X312890133Y-160607082I-44194J44194D01*
G01*
X312218381Y-159935330D01*
G75*
G02*
X312218381Y-159846942I44194J44194D01*
G01*
G37*
G36*
G01*
X312571934Y-159493388D02*
X312660322Y-159405000D01*
G75*
G02*
X312748710Y-159405000I44194J-44194D01*
G01*
X313420462Y-160076752D01*
G75*
G02*
X313420462Y-160165140I-44194J-44194D01*
G01*
X313332074Y-160253528D01*
G75*
G02*
X313243686Y-160253528I-44194J44194D01*
G01*
X312571934Y-159581776D01*
G75*
G02*
X312571934Y-159493388I44194J44194D01*
G01*
G37*
G36*
G01*
X313756338Y-160076752D02*
X314428090Y-159405000D01*
G75*
G02*
X314516478Y-159405000I44194J-44194D01*
G01*
X314604866Y-159493388D01*
G75*
G02*
X314604866Y-159581776I-44194J-44194D01*
G01*
X313933114Y-160253528D01*
G75*
G02*
X313844726Y-160253528I-44194J44194D01*
G01*
X313756338Y-160165140D01*
G75*
G02*
X313756338Y-160076752I44194J44194D01*
G01*
G37*
G36*
G01*
X314109891Y-160430306D02*
X314781643Y-159758554D01*
G75*
G02*
X314870031Y-159758554I44194J-44194D01*
G01*
X314958419Y-159846942D01*
G75*
G02*
X314958419Y-159935330I-44194J-44194D01*
G01*
X314286667Y-160607082D01*
G75*
G02*
X314198279Y-160607082I-44194J44194D01*
G01*
X314109891Y-160518694D01*
G75*
G02*
X314109891Y-160430306I44194J44194D01*
G01*
G37*
G36*
G01*
X314463445Y-160783859D02*
X315135197Y-160112107D01*
G75*
G02*
X315223585Y-160112107I44194J-44194D01*
G01*
X315311973Y-160200495D01*
G75*
G02*
X315311973Y-160288883I-44194J-44194D01*
G01*
X314640221Y-160960635D01*
G75*
G02*
X314551833Y-160960635I-44194J44194D01*
G01*
X314463445Y-160872247D01*
G75*
G02*
X314463445Y-160783859I44194J44194D01*
G01*
G37*
G36*
G01*
X314816998Y-161137412D02*
X315488750Y-160465660D01*
G75*
G02*
X315577138Y-160465660I44194J-44194D01*
G01*
X315665526Y-160554048D01*
G75*
G02*
X315665526Y-160642436I-44194J-44194D01*
G01*
X314993774Y-161314188D01*
G75*
G02*
X314905386Y-161314188I-44194J44194D01*
G01*
X314816998Y-161225800D01*
G75*
G02*
X314816998Y-161137412I44194J44194D01*
G01*
G37*
G36*
G01*
X315170551Y-161490966D02*
X315842303Y-160819214D01*
G75*
G02*
X315930691Y-160819214I44194J-44194D01*
G01*
X316019079Y-160907602D01*
G75*
G02*
X316019079Y-160995990I-44194J-44194D01*
G01*
X315347327Y-161667742D01*
G75*
G02*
X315258939Y-161667742I-44194J44194D01*
G01*
X315170551Y-161579354D01*
G75*
G02*
X315170551Y-161490966I44194J44194D01*
G01*
G37*
G36*
G01*
X315524105Y-161844519D02*
X316195857Y-161172767D01*
G75*
G02*
X316284245Y-161172767I44194J-44194D01*
G01*
X316372633Y-161261155D01*
G75*
G02*
X316372633Y-161349543I-44194J-44194D01*
G01*
X315700881Y-162021295D01*
G75*
G02*
X315612493Y-162021295I-44194J44194D01*
G01*
X315524105Y-161932907D01*
G75*
G02*
X315524105Y-161844519I44194J44194D01*
G01*
G37*
G36*
G01*
X315877658Y-162198073D02*
X316549410Y-161526321D01*
G75*
G02*
X316637798Y-161526321I44194J-44194D01*
G01*
X316726186Y-161614709D01*
G75*
G02*
X316726186Y-161703097I-44194J-44194D01*
G01*
X316054434Y-162374849D01*
G75*
G02*
X315966046Y-162374849I-44194J44194D01*
G01*
X315877658Y-162286461D01*
G75*
G02*
X315877658Y-162198073I44194J44194D01*
G01*
G37*
G36*
G01*
X316231212Y-162551626D02*
X316902964Y-161879874D01*
G75*
G02*
X316991352Y-161879874I44194J-44194D01*
G01*
X317079740Y-161968262D01*
G75*
G02*
X317079740Y-162056650I-44194J-44194D01*
G01*
X316407988Y-162728402D01*
G75*
G02*
X316319600Y-162728402I-44194J44194D01*
G01*
X316231212Y-162640014D01*
G75*
G02*
X316231212Y-162551626I44194J44194D01*
G01*
G37*
G36*
G01*
X316584765Y-162905179D02*
X317256517Y-162233427D01*
G75*
G02*
X317344905Y-162233427I44194J-44194D01*
G01*
X317433293Y-162321815D01*
G75*
G02*
X317433293Y-162410203I-44194J-44194D01*
G01*
X316761541Y-163081955D01*
G75*
G02*
X316673153Y-163081955I-44194J44194D01*
G01*
X316584765Y-162993567D01*
G75*
G02*
X316584765Y-162905179I44194J44194D01*
G01*
G37*
G36*
G01*
X316938318Y-163258733D02*
X317610070Y-162586981D01*
G75*
G02*
X317698458Y-162586981I44194J-44194D01*
G01*
X317786846Y-162675369D01*
G75*
G02*
X317786846Y-162763757I-44194J-44194D01*
G01*
X317115094Y-163435509D01*
G75*
G02*
X317026706Y-163435509I-44194J44194D01*
G01*
X316938318Y-163347121D01*
G75*
G02*
X316938318Y-163258733I44194J44194D01*
G01*
G37*
G36*
G01*
X317291872Y-163612286D02*
X317963624Y-162940534D01*
G75*
G02*
X318052012Y-162940534I44194J-44194D01*
G01*
X318140400Y-163028922D01*
G75*
G02*
X318140400Y-163117310I-44194J-44194D01*
G01*
X317468648Y-163789062D01*
G75*
G02*
X317380260Y-163789062I-44194J44194D01*
G01*
X317291872Y-163700674D01*
G75*
G02*
X317291872Y-163612286I44194J44194D01*
G01*
G37*
G36*
G01*
X317291872Y-164213326D02*
X317380260Y-164124938D01*
G75*
G02*
X317468648Y-164124938I44194J-44194D01*
G01*
X318140400Y-164796690D01*
G75*
G02*
X318140400Y-164885078I-44194J-44194D01*
G01*
X318052012Y-164973466D01*
G75*
G02*
X317963624Y-164973466I-44194J44194D01*
G01*
X317291872Y-164301714D01*
G75*
G02*
X317291872Y-164213326I44194J44194D01*
G01*
G37*
G36*
G01*
X316938318Y-164566879D02*
X317026706Y-164478491D01*
G75*
G02*
X317115094Y-164478491I44194J-44194D01*
G01*
X317786846Y-165150243D01*
G75*
G02*
X317786846Y-165238631I-44194J-44194D01*
G01*
X317698458Y-165327019D01*
G75*
G02*
X317610070Y-165327019I-44194J44194D01*
G01*
X316938318Y-164655267D01*
G75*
G02*
X316938318Y-164566879I44194J44194D01*
G01*
G37*
G36*
G01*
X316584765Y-164920433D02*
X316673153Y-164832045D01*
G75*
G02*
X316761541Y-164832045I44194J-44194D01*
G01*
X317433293Y-165503797D01*
G75*
G02*
X317433293Y-165592185I-44194J-44194D01*
G01*
X317344905Y-165680573D01*
G75*
G02*
X317256517Y-165680573I-44194J44194D01*
G01*
X316584765Y-165008821D01*
G75*
G02*
X316584765Y-164920433I44194J44194D01*
G01*
G37*
G36*
G01*
X316231212Y-165273986D02*
X316319600Y-165185598D01*
G75*
G02*
X316407988Y-165185598I44194J-44194D01*
G01*
X317079740Y-165857350D01*
G75*
G02*
X317079740Y-165945738I-44194J-44194D01*
G01*
X316991352Y-166034126D01*
G75*
G02*
X316902964Y-166034126I-44194J44194D01*
G01*
X316231212Y-165362374D01*
G75*
G02*
X316231212Y-165273986I44194J44194D01*
G01*
G37*
G36*
G01*
X315877658Y-165627539D02*
X315966046Y-165539151D01*
G75*
G02*
X316054434Y-165539151I44194J-44194D01*
G01*
X316726186Y-166210903D01*
G75*
G02*
X316726186Y-166299291I-44194J-44194D01*
G01*
X316637798Y-166387679D01*
G75*
G02*
X316549410Y-166387679I-44194J44194D01*
G01*
X315877658Y-165715927D01*
G75*
G02*
X315877658Y-165627539I44194J44194D01*
G01*
G37*
G36*
G01*
X315524105Y-165981093D02*
X315612493Y-165892705D01*
G75*
G02*
X315700881Y-165892705I44194J-44194D01*
G01*
X316372633Y-166564457D01*
G75*
G02*
X316372633Y-166652845I-44194J-44194D01*
G01*
X316284245Y-166741233D01*
G75*
G02*
X316195857Y-166741233I-44194J44194D01*
G01*
X315524105Y-166069481D01*
G75*
G02*
X315524105Y-165981093I44194J44194D01*
G01*
G37*
G36*
G01*
X315170551Y-166334646D02*
X315258939Y-166246258D01*
G75*
G02*
X315347327Y-166246258I44194J-44194D01*
G01*
X316019079Y-166918010D01*
G75*
G02*
X316019079Y-167006398I-44194J-44194D01*
G01*
X315930691Y-167094786D01*
G75*
G02*
X315842303Y-167094786I-44194J44194D01*
G01*
X315170551Y-166423034D01*
G75*
G02*
X315170551Y-166334646I44194J44194D01*
G01*
G37*
G36*
G01*
X314816998Y-166688200D02*
X314905386Y-166599812D01*
G75*
G02*
X314993774Y-166599812I44194J-44194D01*
G01*
X315665526Y-167271564D01*
G75*
G02*
X315665526Y-167359952I-44194J-44194D01*
G01*
X315577138Y-167448340D01*
G75*
G02*
X315488750Y-167448340I-44194J44194D01*
G01*
X314816998Y-166776588D01*
G75*
G02*
X314816998Y-166688200I44194J44194D01*
G01*
G37*
G36*
G01*
X314463445Y-167041753D02*
X314551833Y-166953365D01*
G75*
G02*
X314640221Y-166953365I44194J-44194D01*
G01*
X315311973Y-167625117D01*
G75*
G02*
X315311973Y-167713505I-44194J-44194D01*
G01*
X315223585Y-167801893D01*
G75*
G02*
X315135197Y-167801893I-44194J44194D01*
G01*
X314463445Y-167130141D01*
G75*
G02*
X314463445Y-167041753I44194J44194D01*
G01*
G37*
G36*
G01*
X314109891Y-167395306D02*
X314198279Y-167306918D01*
G75*
G02*
X314286667Y-167306918I44194J-44194D01*
G01*
X314958419Y-167978670D01*
G75*
G02*
X314958419Y-168067058I-44194J-44194D01*
G01*
X314870031Y-168155446D01*
G75*
G02*
X314781643Y-168155446I-44194J44194D01*
G01*
X314109891Y-167483694D01*
G75*
G02*
X314109891Y-167395306I44194J44194D01*
G01*
G37*
G36*
G01*
X313756338Y-167748860D02*
X313844726Y-167660472D01*
G75*
G02*
X313933114Y-167660472I44194J-44194D01*
G01*
X314604866Y-168332224D01*
G75*
G02*
X314604866Y-168420612I-44194J-44194D01*
G01*
X314516478Y-168509000D01*
G75*
G02*
X314428090Y-168509000I-44194J44194D01*
G01*
X313756338Y-167837248D01*
G75*
G02*
X313756338Y-167748860I44194J44194D01*
G01*
G37*
G36*
G01*
X312571934Y-168332224D02*
X313243686Y-167660472D01*
G75*
G02*
X313332074Y-167660472I44194J-44194D01*
G01*
X313420462Y-167748860D01*
G75*
G02*
X313420462Y-167837248I-44194J-44194D01*
G01*
X312748710Y-168509000D01*
G75*
G02*
X312660322Y-168509000I-44194J44194D01*
G01*
X312571934Y-168420612D01*
G75*
G02*
X312571934Y-168332224I44194J44194D01*
G01*
G37*
G36*
G01*
X312218381Y-167978670D02*
X312890133Y-167306918D01*
G75*
G02*
X312978521Y-167306918I44194J-44194D01*
G01*
X313066909Y-167395306D01*
G75*
G02*
X313066909Y-167483694I-44194J-44194D01*
G01*
X312395157Y-168155446D01*
G75*
G02*
X312306769Y-168155446I-44194J44194D01*
G01*
X312218381Y-168067058D01*
G75*
G02*
X312218381Y-167978670I44194J44194D01*
G01*
G37*
G36*
G01*
X311864827Y-167625117D02*
X312536579Y-166953365D01*
G75*
G02*
X312624967Y-166953365I44194J-44194D01*
G01*
X312713355Y-167041753D01*
G75*
G02*
X312713355Y-167130141I-44194J-44194D01*
G01*
X312041603Y-167801893D01*
G75*
G02*
X311953215Y-167801893I-44194J44194D01*
G01*
X311864827Y-167713505D01*
G75*
G02*
X311864827Y-167625117I44194J44194D01*
G01*
G37*
G36*
G01*
X311511274Y-167271564D02*
X312183026Y-166599812D01*
G75*
G02*
X312271414Y-166599812I44194J-44194D01*
G01*
X312359802Y-166688200D01*
G75*
G02*
X312359802Y-166776588I-44194J-44194D01*
G01*
X311688050Y-167448340D01*
G75*
G02*
X311599662Y-167448340I-44194J44194D01*
G01*
X311511274Y-167359952D01*
G75*
G02*
X311511274Y-167271564I44194J44194D01*
G01*
G37*
G36*
G01*
X311157721Y-166918010D02*
X311829473Y-166246258D01*
G75*
G02*
X311917861Y-166246258I44194J-44194D01*
G01*
X312006249Y-166334646D01*
G75*
G02*
X312006249Y-166423034I-44194J-44194D01*
G01*
X311334497Y-167094786D01*
G75*
G02*
X311246109Y-167094786I-44194J44194D01*
G01*
X311157721Y-167006398D01*
G75*
G02*
X311157721Y-166918010I44194J44194D01*
G01*
G37*
G36*
G01*
X310804167Y-166564457D02*
X311475919Y-165892705D01*
G75*
G02*
X311564307Y-165892705I44194J-44194D01*
G01*
X311652695Y-165981093D01*
G75*
G02*
X311652695Y-166069481I-44194J-44194D01*
G01*
X310980943Y-166741233D01*
G75*
G02*
X310892555Y-166741233I-44194J44194D01*
G01*
X310804167Y-166652845D01*
G75*
G02*
X310804167Y-166564457I44194J44194D01*
G01*
G37*
G36*
G01*
X310450614Y-166210903D02*
X311122366Y-165539151D01*
G75*
G02*
X311210754Y-165539151I44194J-44194D01*
G01*
X311299142Y-165627539D01*
G75*
G02*
X311299142Y-165715927I-44194J-44194D01*
G01*
X310627390Y-166387679D01*
G75*
G02*
X310539002Y-166387679I-44194J44194D01*
G01*
X310450614Y-166299291D01*
G75*
G02*
X310450614Y-166210903I44194J44194D01*
G01*
G37*
G36*
G01*
X310097060Y-165857350D02*
X310768812Y-165185598D01*
G75*
G02*
X310857200Y-165185598I44194J-44194D01*
G01*
X310945588Y-165273986D01*
G75*
G02*
X310945588Y-165362374I-44194J-44194D01*
G01*
X310273836Y-166034126D01*
G75*
G02*
X310185448Y-166034126I-44194J44194D01*
G01*
X310097060Y-165945738D01*
G75*
G02*
X310097060Y-165857350I44194J44194D01*
G01*
G37*
G36*
G01*
X309743507Y-165503797D02*
X310415259Y-164832045D01*
G75*
G02*
X310503647Y-164832045I44194J-44194D01*
G01*
X310592035Y-164920433D01*
G75*
G02*
X310592035Y-165008821I-44194J-44194D01*
G01*
X309920283Y-165680573D01*
G75*
G02*
X309831895Y-165680573I-44194J44194D01*
G01*
X309743507Y-165592185D01*
G75*
G02*
X309743507Y-165503797I44194J44194D01*
G01*
G37*
G36*
G01*
X309389954Y-165150243D02*
X310061706Y-164478491D01*
G75*
G02*
X310150094Y-164478491I44194J-44194D01*
G01*
X310238482Y-164566879D01*
G75*
G02*
X310238482Y-164655267I-44194J-44194D01*
G01*
X309566730Y-165327019D01*
G75*
G02*
X309478342Y-165327019I-44194J44194D01*
G01*
X309389954Y-165238631D01*
G75*
G02*
X309389954Y-165150243I44194J44194D01*
G01*
G37*
G36*
G01*
X309036400Y-164796690D02*
X309708152Y-164124938D01*
G75*
G02*
X309796540Y-164124938I44194J-44194D01*
G01*
X309884928Y-164213326D01*
G75*
G02*
X309884928Y-164301714I-44194J-44194D01*
G01*
X309213176Y-164973466D01*
G75*
G02*
X309124788Y-164973466I-44194J44194D01*
G01*
X309036400Y-164885078D01*
G75*
G02*
X309036400Y-164796690I44194J44194D01*
G01*
G37*
D20*
X207834750Y-106691000D03*
X213614750Y-106691000D03*
D21*
X210474750Y-108136000D03*
X210974750Y-108136000D03*
X211474750Y-108136000D03*
X209974750Y-108136000D03*
X211974750Y-108136000D03*
X209474750Y-108136000D03*
X212474750Y-108136000D03*
X208974750Y-108136000D03*
D22*
X208274750Y-108136000D03*
X213174750Y-108136000D03*
X207499750Y-108136000D03*
X213949750Y-108136000D03*
D23*
G36*
X319679284Y-158773726D02*
G01*
X318972177Y-159480833D01*
X318159004Y-158667660D01*
X318866111Y-157960553D01*
X319679284Y-158773726D01*
G37*
G36*
X318441847Y-157536289D02*
G01*
X317734740Y-158243396D01*
X316921567Y-157430223D01*
X317628674Y-156723116D01*
X318441847Y-157536289D01*
G37*
G36*
X319431796Y-156546340D02*
G01*
X318724689Y-157253447D01*
X317911516Y-156440274D01*
X318618623Y-155733167D01*
X319431796Y-156546340D01*
G37*
G36*
X320669233Y-157783777D02*
G01*
X319962126Y-158490884D01*
X319148953Y-157677711D01*
X319856060Y-156970604D01*
X320669233Y-157783777D01*
G37*
D12*
X151657750Y-187445000D03*
D13*
X149117750Y-192525000D03*
D12*
X145307750Y-189985000D03*
D14*
X150387750Y-197605000D03*
D15*
X147847750Y-197605000D03*
D16*
X144037750Y-192525000D03*
X154197750Y-192525000D03*
D17*
X91967750Y-199510000D03*
X206267750Y-199510000D03*
D13*
X91967750Y-184270000D03*
X206267750Y-184270000D03*
D12*
X192144650Y-187452000D03*
D13*
X189604650Y-192532000D03*
D12*
X185794650Y-189992000D03*
D14*
X190874650Y-197612000D03*
D15*
X188334650Y-197612000D03*
D16*
X184524650Y-192532000D03*
X194684650Y-192532000D03*
D17*
X177666650Y-199517000D03*
X201542650Y-199517000D03*
D13*
X177666650Y-184277000D03*
X201542650Y-184277000D03*
D12*
X125469650Y-187452000D03*
D13*
X122929650Y-192532000D03*
D12*
X119119650Y-189992000D03*
D14*
X124199650Y-197612000D03*
D15*
X121659650Y-197612000D03*
D16*
X117849650Y-192532000D03*
X128009650Y-192532000D03*
D17*
X110991650Y-199517000D03*
X134867650Y-199517000D03*
D13*
X110991650Y-184277000D03*
X134867650Y-184277000D03*
D12*
X63550750Y-187445000D03*
D13*
X61010750Y-192525000D03*
D12*
X57200750Y-189985000D03*
D14*
X62280750Y-197605000D03*
D15*
X59740750Y-197605000D03*
D16*
X55930750Y-192525000D03*
X66090750Y-192525000D03*
G36*
G01*
X216181650Y-118700000D02*
X215669150Y-118700000D01*
G75*
G02*
X215450400Y-118481250I0J218750D01*
G01*
X215450400Y-118043750D01*
G75*
G02*
X215669150Y-117825000I218750J0D01*
G01*
X216181650Y-117825000D01*
G75*
G02*
X216400400Y-118043750I0J-218750D01*
G01*
X216400400Y-118481250D01*
G75*
G02*
X216181650Y-118700000I-218750J0D01*
G01*
G37*
G36*
G01*
X216181650Y-117125000D02*
X215669150Y-117125000D01*
G75*
G02*
X215450400Y-116906250I0J218750D01*
G01*
X215450400Y-116468750D01*
G75*
G02*
X215669150Y-116250000I218750J0D01*
G01*
X216181650Y-116250000D01*
G75*
G02*
X216400400Y-116468750I0J-218750D01*
G01*
X216400400Y-116906250D01*
G75*
G02*
X216181650Y-117125000I-218750J0D01*
G01*
G37*
G36*
G01*
X218086650Y-117125000D02*
X217574150Y-117125000D01*
G75*
G02*
X217355400Y-116906250I0J218750D01*
G01*
X217355400Y-116468750D01*
G75*
G02*
X217574150Y-116250000I218750J0D01*
G01*
X218086650Y-116250000D01*
G75*
G02*
X218305400Y-116468750I0J-218750D01*
G01*
X218305400Y-116906250D01*
G75*
G02*
X218086650Y-117125000I-218750J0D01*
G01*
G37*
G36*
G01*
X218086650Y-118700000D02*
X217574150Y-118700000D01*
G75*
G02*
X217355400Y-118481250I0J218750D01*
G01*
X217355400Y-118043750D01*
G75*
G02*
X217574150Y-117825000I218750J0D01*
G01*
X218086650Y-117825000D01*
G75*
G02*
X218305400Y-118043750I0J-218750D01*
G01*
X218305400Y-118481250D01*
G75*
G02*
X218086650Y-118700000I-218750J0D01*
G01*
G37*
D24*
X315350400Y-126177000D03*
X315350400Y-128077000D03*
X313350400Y-127127000D03*
M02*
