G04 #@! TF.GenerationSoftware,KiCad,Pcbnew,(5.0.0)*
G04 #@! TF.CreationDate,2018-12-28T22:23:35+01:00*
G04 #@! TF.ProjectId,cypher,6379706865722E6B696361645F706362,rev?*
G04 #@! TF.SameCoordinates,Original*
G04 #@! TF.FileFunction,Soldermask,Top*
G04 #@! TF.FilePolarity,Negative*
%FSLAX46Y46*%
G04 Gerber Fmt 4.6, Leading zero omitted, Abs format (unit mm)*
G04 Created by KiCad (PCBNEW (5.0.0)) date 12/28/18 22:23:35*
%MOMM*%
%LPD*%
G01*
G04 APERTURE LIST*
%ADD10C,2.150000*%
%ADD11C,4.387800*%
%ADD12C,3.448000*%
%ADD13C,2.200000*%
%ADD14R,2.200000X2.200000*%
%ADD15O,1.900000X3.000000*%
%ADD16R,2.100000X1.400000*%
G04 APERTURE END LIST*
D10*
G04 #@! TO.C,MX65*
X268497000Y-183000000D03*
X258337000Y-183000000D03*
D11*
X263417000Y-183000000D03*
G04 #@! TD*
G04 #@! TO.C,MX98*
X381375000Y-123432000D03*
X381375000Y-147308000D03*
D12*
X396615000Y-123432000D03*
X396615000Y-147308000D03*
D10*
X389630000Y-130290000D03*
X389630000Y-140450000D03*
D11*
X389630000Y-135370000D03*
G04 #@! TD*
G04 #@! TO.C,MX100*
X381375000Y-161532000D03*
X381375000Y-185408000D03*
D12*
X396615000Y-161532000D03*
X396615000Y-185408000D03*
D10*
X389630000Y-168390000D03*
X389630000Y-178550000D03*
D11*
X389630000Y-173470000D03*
G04 #@! TD*
D13*
G04 #@! TO.C,D1*
X319440000Y-103600000D03*
D14*
X316900000Y-103600000D03*
G04 #@! TD*
D13*
G04 #@! TO.C,D2*
X319440000Y-106800000D03*
D14*
X316900000Y-106800000D03*
G04 #@! TD*
D13*
G04 #@! TO.C,D3*
X319440000Y-110000000D03*
D14*
X316900000Y-110000000D03*
G04 #@! TD*
D10*
G04 #@! TO.C,MX5*
X47042500Y-125850000D03*
X36882500Y-125850000D03*
D11*
X41962500Y-125850000D03*
G04 #@! TD*
G04 #@! TO.C,MX72*
X293266500Y-123437000D03*
X293266500Y-147313000D03*
D12*
X308506500Y-123437000D03*
X308506500Y-147313000D03*
D10*
X301521500Y-140455000D03*
X301521500Y-130295000D03*
D11*
X301521500Y-135375000D03*
G04 #@! TD*
G04 #@! TO.C,MX34*
X208642400Y-174745000D03*
X108642600Y-174745000D03*
D12*
X208642400Y-189985000D03*
X108642600Y-189985000D03*
D10*
X163722500Y-183000000D03*
X153562500Y-183000000D03*
D11*
X158642500Y-183000000D03*
G04 #@! TD*
D10*
G04 #@! TO.C,MX2*
X47041500Y-183000000D03*
X36881500Y-183000000D03*
D11*
X41961500Y-183000000D03*
G04 #@! TD*
D10*
G04 #@! TO.C,MX25*
X92285000Y-183000000D03*
X82125000Y-183000000D03*
D11*
X87205000Y-183000000D03*
G04 #@! TD*
D10*
G04 #@! TO.C,MX9*
X68472000Y-183000000D03*
X58312000Y-183000000D03*
D11*
X63392000Y-183000000D03*
G04 #@! TD*
D10*
G04 #@! TO.C,MX6*
X49422500Y-144900000D03*
X39262500Y-144900000D03*
D11*
X44342500Y-144900000D03*
G04 #@! TD*
D15*
G04 #@! TO.C,J1*
X216830000Y-93575000D03*
X209530000Y-93575000D03*
X216830000Y-98375000D03*
X209530000Y-98375000D03*
G04 #@! TD*
D11*
G04 #@! TO.C,MX1*
X61043000Y-172205000D03*
X37167000Y-172205000D03*
D12*
X61043000Y-156965000D03*
X37167000Y-156965000D03*
D10*
X54185000Y-163950000D03*
X44025000Y-163950000D03*
D11*
X49105000Y-163950000D03*
G04 #@! TD*
D10*
G04 #@! TO.C,MX3*
X44660000Y-144900000D03*
X34500000Y-144900000D03*
D11*
X39580000Y-144900000D03*
G04 #@! TD*
D10*
G04 #@! TO.C,MX4*
X42280000Y-106800000D03*
X32120000Y-106800000D03*
D11*
X37200000Y-106800000D03*
G04 #@! TD*
D10*
G04 #@! TO.C,MX7*
X44660000Y-163950000D03*
X34500000Y-163950000D03*
D11*
X39580000Y-163950000D03*
G04 #@! TD*
D10*
G04 #@! TO.C,MX8*
X44660000Y-183000000D03*
X34500000Y-183000000D03*
D11*
X39580000Y-183000000D03*
G04 #@! TD*
D10*
G04 #@! TO.C,MX10*
X61330000Y-106800000D03*
X51170000Y-106800000D03*
D11*
X56250000Y-106800000D03*
G04 #@! TD*
D10*
G04 #@! TO.C,MX11*
X70852500Y-125850000D03*
X60692500Y-125850000D03*
D11*
X65772500Y-125850000D03*
G04 #@! TD*
D10*
G04 #@! TO.C,MX12*
X75615000Y-144900000D03*
X65455000Y-144900000D03*
D11*
X70535000Y-144900000D03*
G04 #@! TD*
D10*
G04 #@! TO.C,MX13*
X66090000Y-163950000D03*
X55930000Y-163950000D03*
D11*
X61010000Y-163950000D03*
G04 #@! TD*
D10*
G04 #@! TO.C,MX14*
X66091200Y-183000000D03*
X55931200Y-183000000D03*
D11*
X61011200Y-183000000D03*
G04 #@! TD*
D10*
G04 #@! TO.C,MX15*
X75616500Y-183000000D03*
X65456500Y-183000000D03*
D11*
X70536500Y-183000000D03*
G04 #@! TD*
D10*
G04 #@! TO.C,MX16*
X80380000Y-106800000D03*
X70220000Y-106800000D03*
D11*
X75300000Y-106800000D03*
G04 #@! TD*
D10*
G04 #@! TO.C,MX17*
X89902500Y-125850000D03*
X79742500Y-125850000D03*
D11*
X84822500Y-125850000D03*
G04 #@! TD*
D10*
G04 #@! TO.C,MX18*
X94665000Y-144900000D03*
X84505000Y-144900000D03*
D11*
X89585000Y-144900000D03*
G04 #@! TD*
D10*
G04 #@! TO.C,MX19*
X85140500Y-163950000D03*
X74980500Y-163950000D03*
D11*
X80060500Y-163950000D03*
G04 #@! TD*
D10*
G04 #@! TO.C,MX20*
X87522500Y-183000000D03*
X77362500Y-183000000D03*
D11*
X82442500Y-183000000D03*
G04 #@! TD*
D10*
G04 #@! TO.C,MX21*
X99430000Y-106800000D03*
X89270000Y-106800000D03*
D11*
X94350000Y-106800000D03*
G04 #@! TD*
D10*
G04 #@! TO.C,MX22*
X108952500Y-125850000D03*
X98792500Y-125850000D03*
D11*
X103872500Y-125850000D03*
G04 #@! TD*
D10*
G04 #@! TO.C,MX23*
X113715000Y-144900000D03*
X103555000Y-144900000D03*
D11*
X108635000Y-144900000D03*
G04 #@! TD*
D10*
G04 #@! TO.C,MX24*
X104190000Y-163950000D03*
X94030000Y-163950000D03*
D11*
X99110000Y-163950000D03*
G04 #@! TD*
D10*
G04 #@! TO.C,MX26*
X118480000Y-106800000D03*
X108320000Y-106800000D03*
D11*
X113400000Y-106800000D03*
G04 #@! TD*
D10*
G04 #@! TO.C,MX27*
X128002500Y-125850000D03*
X117842500Y-125850000D03*
D11*
X122922500Y-125850000D03*
G04 #@! TD*
D10*
G04 #@! TO.C,MX28*
X132765000Y-144900000D03*
X122605000Y-144900000D03*
D11*
X127685000Y-144900000D03*
G04 #@! TD*
D10*
G04 #@! TO.C,MX29*
X123240000Y-163950000D03*
X113080000Y-163950000D03*
D11*
X118160000Y-163950000D03*
G04 #@! TD*
D10*
G04 #@! TO.C,MX30*
X137530000Y-106800000D03*
X127370000Y-106800000D03*
D11*
X132450000Y-106800000D03*
G04 #@! TD*
D10*
G04 #@! TO.C,MX31*
X147052500Y-125850000D03*
X136892500Y-125850000D03*
D11*
X141972500Y-125850000D03*
G04 #@! TD*
D10*
G04 #@! TO.C,MX32*
X151820000Y-144900000D03*
X141660000Y-144900000D03*
D11*
X146740000Y-144900000D03*
G04 #@! TD*
D10*
G04 #@! TO.C,MX33*
X142290000Y-163950000D03*
X132130000Y-163950000D03*
D11*
X137210000Y-163950000D03*
G04 #@! TD*
G04 #@! TO.C,MX35*
X208649000Y-174745000D03*
X94349000Y-174745000D03*
D12*
X208649000Y-189985000D03*
X94349000Y-189985000D03*
D10*
X156579000Y-183000000D03*
X146419000Y-183000000D03*
D11*
X151499000Y-183000000D03*
G04 #@! TD*
D10*
G04 #@! TO.C,MX36*
X156580000Y-106800000D03*
X146420000Y-106800000D03*
D11*
X151500000Y-106800000D03*
G04 #@! TD*
D10*
G04 #@! TO.C,MX37*
X166102500Y-125850000D03*
X155942500Y-125850000D03*
D11*
X161022500Y-125850000D03*
G04 #@! TD*
D10*
G04 #@! TO.C,MX38*
X170870000Y-144900000D03*
X160710000Y-144900000D03*
D11*
X165790000Y-144900000D03*
G04 #@! TD*
D10*
G04 #@! TO.C,MX39*
X161340000Y-163950000D03*
X151180000Y-163950000D03*
D11*
X156260000Y-163950000D03*
G04 #@! TD*
G04 #@! TO.C,MX40*
X199124000Y-174745000D03*
X103874000Y-174745000D03*
D12*
X199124000Y-189985000D03*
X103874000Y-189985000D03*
D10*
X166104000Y-183000000D03*
X155944000Y-183000000D03*
D11*
X161024000Y-183000000D03*
G04 #@! TD*
D10*
G04 #@! TO.C,MX41*
X175630000Y-106800000D03*
X165470000Y-106800000D03*
D11*
X170550000Y-106800000D03*
G04 #@! TD*
D10*
G04 #@! TO.C,MX42*
X185152500Y-125850000D03*
X174992500Y-125850000D03*
D11*
X180072500Y-125850000D03*
G04 #@! TD*
D10*
G04 #@! TO.C,MX43*
X189920000Y-144900000D03*
X179760000Y-144900000D03*
D11*
X184840000Y-144900000D03*
G04 #@! TD*
D10*
G04 #@! TO.C,MX44*
X180390000Y-163950000D03*
X170230000Y-163950000D03*
D11*
X175310000Y-163950000D03*
G04 #@! TD*
D10*
G04 #@! TO.C,MX45*
X194680000Y-106800000D03*
X184520000Y-106800000D03*
D11*
X189600000Y-106800000D03*
G04 #@! TD*
D10*
G04 #@! TO.C,MX46*
X204202500Y-125850000D03*
X194042500Y-125850000D03*
D11*
X199122500Y-125850000D03*
G04 #@! TD*
D10*
G04 #@! TO.C,MX47*
X208970000Y-144900000D03*
X198810000Y-144900000D03*
D11*
X203890000Y-144900000D03*
G04 #@! TD*
D10*
G04 #@! TO.C,MX48*
X199440000Y-163950000D03*
X189280000Y-163950000D03*
D11*
X194360000Y-163950000D03*
G04 #@! TD*
D10*
G04 #@! TO.C,MX49*
X213730000Y-106800000D03*
X203570000Y-106800000D03*
D11*
X208650000Y-106800000D03*
G04 #@! TD*
D10*
G04 #@! TO.C,MX50*
X223252500Y-125850000D03*
X213092500Y-125850000D03*
D11*
X218172500Y-125850000D03*
G04 #@! TD*
D10*
G04 #@! TO.C,MX51*
X228020000Y-144900000D03*
X217860000Y-144900000D03*
D11*
X222940000Y-144900000D03*
G04 #@! TD*
D10*
G04 #@! TO.C,MX52*
X218490000Y-163950000D03*
X208330000Y-163950000D03*
D11*
X213410000Y-163950000D03*
G04 #@! TD*
D10*
G04 #@! TO.C,MX53*
X225635000Y-183000000D03*
X215475000Y-183000000D03*
D11*
X220555000Y-183000000D03*
G04 #@! TD*
D10*
G04 #@! TO.C,MX54*
X237541500Y-183000000D03*
X227381500Y-183000000D03*
D11*
X232461500Y-183000000D03*
G04 #@! TD*
D10*
G04 #@! TO.C,MX55*
X232780000Y-106800000D03*
X222620000Y-106800000D03*
D11*
X227700000Y-106800000D03*
G04 #@! TD*
D10*
G04 #@! TO.C,MX56*
X242302500Y-125850000D03*
X232142500Y-125850000D03*
D11*
X237222500Y-125850000D03*
G04 #@! TD*
D10*
G04 #@! TO.C,MX57*
X247070000Y-144900000D03*
X236910000Y-144900000D03*
D11*
X241990000Y-144900000D03*
G04 #@! TD*
D10*
G04 #@! TO.C,MX58*
X237540000Y-163950000D03*
X227380000Y-163950000D03*
D11*
X232460000Y-163950000D03*
G04 #@! TD*
D10*
G04 #@! TO.C,MX59*
X247066000Y-183000000D03*
X236906000Y-183000000D03*
D11*
X241986000Y-183000000D03*
G04 #@! TD*
D10*
G04 #@! TO.C,MX60*
X266116500Y-183000000D03*
X255956500Y-183000000D03*
D11*
X261036500Y-183000000D03*
G04 #@! TD*
D10*
G04 #@! TO.C,MX61*
X251830000Y-106800000D03*
X241670000Y-106800000D03*
D11*
X246750000Y-106800000D03*
G04 #@! TD*
D10*
G04 #@! TO.C,MX62*
X261352500Y-125850000D03*
X251192500Y-125850000D03*
D11*
X256272500Y-125850000D03*
G04 #@! TD*
D10*
G04 #@! TO.C,MX63*
X266120000Y-144900000D03*
X255960000Y-144900000D03*
D11*
X261040000Y-144900000D03*
G04 #@! TD*
D10*
G04 #@! TO.C,MX64*
X256590000Y-163950000D03*
X246430000Y-163950000D03*
D11*
X251510000Y-163950000D03*
G04 #@! TD*
D10*
G04 #@! TO.C,MX66*
X270880000Y-106800000D03*
X260720000Y-106800000D03*
D11*
X265800000Y-106800000D03*
G04 #@! TD*
D10*
G04 #@! TO.C,MX67*
X280401500Y-125850000D03*
X270241500Y-125850000D03*
D11*
X275321500Y-125850000D03*
G04 #@! TD*
D10*
G04 #@! TO.C,MX68*
X285170000Y-144900000D03*
X275010000Y-144900000D03*
D11*
X280090000Y-144900000D03*
G04 #@! TD*
D10*
G04 #@! TO.C,MX69*
X282783500Y-163950000D03*
X272623500Y-163950000D03*
D11*
X277703500Y-163950000D03*
G04 #@! TD*
D10*
G04 #@! TO.C,MX70*
X294690000Y-187760000D03*
X284530000Y-187760000D03*
D11*
X289610000Y-187760000D03*
G04 #@! TD*
D10*
G04 #@! TO.C,MX71*
X289930000Y-106800000D03*
X279770000Y-106800000D03*
D11*
X284850000Y-106800000D03*
G04 #@! TD*
G04 #@! TO.C,MX73*
X306312500Y-115055000D03*
X282436500Y-115055000D03*
D12*
X306312500Y-99815000D03*
X282436500Y-99815000D03*
D10*
X299454500Y-106800000D03*
X289294500Y-106800000D03*
D11*
X294374500Y-106800000D03*
G04 #@! TD*
D10*
G04 #@! TO.C,MX74*
X304214000Y-125850000D03*
X294054000Y-125850000D03*
D11*
X299134000Y-125850000D03*
G04 #@! TD*
G04 #@! TO.C,MX75*
X303934000Y-153155000D03*
X280058000Y-153155000D03*
D12*
X303934000Y-137915000D03*
X280058000Y-137915000D03*
D10*
X297076000Y-144900000D03*
X286916000Y-144900000D03*
D11*
X291996000Y-144900000D03*
G04 #@! TD*
D10*
G04 #@! TO.C,MX76*
X313580000Y-168600000D03*
X303420000Y-168600000D03*
D11*
X308500000Y-168600000D03*
G04 #@! TD*
D10*
G04 #@! TO.C,MX77*
X313740000Y-187760000D03*
X303580000Y-187760000D03*
D11*
X308660000Y-187760000D03*
G04 #@! TD*
D10*
G04 #@! TO.C,MX78*
X308980000Y-106800000D03*
X298820000Y-106800000D03*
D11*
X303900000Y-106800000D03*
G04 #@! TD*
D10*
G04 #@! TO.C,MX79*
X337560000Y-106800000D03*
X327400000Y-106800000D03*
D11*
X332480000Y-106800000D03*
G04 #@! TD*
D10*
G04 #@! TO.C,MX80*
X337560000Y-125850000D03*
X327400000Y-125850000D03*
D11*
X332480000Y-125850000D03*
G04 #@! TD*
D10*
G04 #@! TO.C,MX81*
X337560000Y-144900000D03*
X327400000Y-144900000D03*
D11*
X332480000Y-144900000D03*
G04 #@! TD*
D10*
G04 #@! TO.C,MX82*
X337560000Y-163950000D03*
X327400000Y-163950000D03*
D11*
X332480000Y-163950000D03*
G04 #@! TD*
D10*
G04 #@! TO.C,MX83*
X332790000Y-187760000D03*
X322630000Y-187760000D03*
D11*
X327710000Y-187760000D03*
G04 #@! TD*
D10*
G04 #@! TO.C,MX84*
X356610000Y-106800000D03*
X346450000Y-106800000D03*
D11*
X351530000Y-106800000D03*
G04 #@! TD*
D10*
G04 #@! TO.C,MX85*
X356610000Y-125850000D03*
X346450000Y-125850000D03*
D11*
X351530000Y-125850000D03*
G04 #@! TD*
D10*
G04 #@! TO.C,MX86*
X356610000Y-144900000D03*
X346450000Y-144900000D03*
D11*
X351530000Y-144900000D03*
G04 #@! TD*
D10*
G04 #@! TO.C,MX87*
X356610000Y-163950000D03*
X346450000Y-163950000D03*
D11*
X351530000Y-163950000D03*
G04 #@! TD*
D10*
G04 #@! TO.C,MX88*
X356610000Y-183000000D03*
X346450000Y-183000000D03*
D11*
X351530000Y-183000000D03*
G04 #@! TD*
D10*
G04 #@! TO.C,MX89*
X375660000Y-106800000D03*
X365500000Y-106800000D03*
D11*
X370580000Y-106800000D03*
G04 #@! TD*
D10*
G04 #@! TO.C,MX90*
X375660000Y-125850000D03*
X365500000Y-125850000D03*
D11*
X370580000Y-125850000D03*
G04 #@! TD*
D10*
G04 #@! TO.C,MX91*
X375660000Y-144900000D03*
X365500000Y-144900000D03*
D11*
X370580000Y-144900000D03*
G04 #@! TD*
D10*
G04 #@! TO.C,MX92*
X375660000Y-163950000D03*
X365500000Y-163950000D03*
D11*
X370580000Y-163950000D03*
G04 #@! TD*
D10*
G04 #@! TO.C,MX93*
X375660000Y-183000000D03*
X365500000Y-183000000D03*
D11*
X370580000Y-183000000D03*
G04 #@! TD*
D10*
G04 #@! TO.C,MX94*
X394710000Y-125847000D03*
X384550000Y-125847000D03*
D11*
X389630000Y-125847000D03*
G04 #@! TD*
D10*
G04 #@! TO.C,MX95*
X394710000Y-163950000D03*
X384550000Y-163950000D03*
D11*
X389630000Y-163950000D03*
G04 #@! TD*
D10*
G04 #@! TO.C,MX96*
X394710000Y-183000000D03*
X384550000Y-183000000D03*
D11*
X389630000Y-183000000D03*
G04 #@! TD*
D10*
G04 #@! TO.C,MX97*
X394710000Y-106800000D03*
X384550000Y-106800000D03*
D11*
X389630000Y-106800000D03*
G04 #@! TD*
D10*
G04 #@! TO.C,MX99*
X394710000Y-144900000D03*
X384550000Y-144900000D03*
D11*
X389630000Y-144900000D03*
G04 #@! TD*
D16*
G04 #@! TO.C,SW1*
X132750000Y-184600000D03*
X126450000Y-184600000D03*
X132750000Y-180800000D03*
X126450000Y-180800000D03*
G04 #@! TD*
M02*
