M48
METRIC,TZ
T1C0.400
T2C0.700
T3C0.900
T4C1.000
T5C1.040
T6C1.470
%
G90
G05
T1
X45.974Y-175.133
X51.943Y-187.706
X53.289Y-192.532
X56.261Y-152.146
X74.168Y-192.278
X80.645Y-152.4
X99.517Y-192.634
X104.013Y-152.4
X114.808Y-172.339
X122.555Y-152.4
X134.747Y-184.658
X134.874Y-195.224
X138.811Y-190.881
X141.224Y-192.278
X141.986Y-181.356
X142.367Y-152.273
X152.4Y-172.212
X160.528Y-152.146
X164.973Y-172.339
X170.688Y-180.213
X170.815Y-183.134
X171.704Y-183.769
X171.958Y-175.133
X175.26Y-177.038
X175.387Y-193.04
X175.641Y-173.482
X176.149Y-172.466
X176.149Y-179.705
X176.911Y-178.943
X176.911Y-180.467
X177.292Y-174.117
X179.832Y-152.273
X183.261Y-168.148
X187.325Y-164.211
X187.579Y-169.164
X188.341Y-169.926
X188.4Y-177.038
X188.468Y-170.942
X192.405Y-158.242
X192.913Y-176.276
X193.421Y-179.705
X195.58Y-151.892
X195.58Y-173.609
X195.834Y-185.166
X196.342Y-171.958
X196.469Y-174.498
X196.977Y-173.101
X198.882Y-151.892
X200.447Y-166.497
X200.787Y-179.578
X201.422Y-190.373
X201.676Y-175.387
X201.93Y-174.244
X202.057Y-185.039
X202.184Y-172.466
X203.454Y-191.516
X204.724Y-184.15
X205.232Y-185.039
X206.248Y-185.42
X206.375Y-189.23
X206.756Y-184.404
X207.01Y-166.497
X209.296Y-109.601
X209.296Y-185.674
X209.55Y-128.778
X209.845Y-147.574
X212.217Y-150.241
X212.725Y-128.778
X213.106Y-182.372
X215.646Y-150.241
X216.408Y-113.919
X216.662Y-147.574
X219.13Y-151.88
X220.599Y-113.919
X233.807Y-152.781
X241.935Y-165.481
X251.968Y-181.737
X256.667Y-152.781
X273.939Y-152.908
X274.955Y-164.744
X275.082Y-152.908
X292.735Y-154.178
X306.705Y-158.369
X308.483Y-157.861
X310.388Y-156.718
X312.547Y-112.014
X313.563Y-156.337
X322.453Y-148.463
X322.58Y-142.24
T3
X316.9Y-106.8
X319.44Y-106.8
X316.9Y-103.6
X319.44Y-103.6
X316.9Y-110.
X319.44Y-110.
T4
X212.93Y-186.76
X212.93Y-189.3
X212.93Y-191.84
X215.47Y-186.76
X215.47Y-189.3
X215.47Y-191.84
T5
X35.93Y-111.88
X38.47Y-111.88
X74.03Y-111.88
X76.57Y-111.88
X38.31Y-169.03
X40.85Y-169.03
X188.33Y-111.88
X190.87Y-111.88
X212.14Y-169.03
X214.68Y-169.03
X245.48Y-111.88
X248.02Y-111.88
X102.602Y-130.93
X105.142Y-130.93
X388.36Y-149.98
X390.9Y-149.98
X197.852Y-130.93
X200.392Y-130.93
X140.702Y-130.93
X143.243Y-130.93
X331.21Y-130.93
X333.75Y-130.93
X174.04Y-169.03
X176.58Y-169.03
X135.94Y-169.03
X138.48Y-169.03
X331.21Y-169.03
X333.75Y-169.03
X62.122Y-188.08
X64.662Y-188.08
X43.072Y-149.98
X45.612Y-149.98
X259.767Y-188.08
X262.306Y-188.08
X64.502Y-130.93
X67.043Y-130.93
X178.802Y-130.93
X181.343Y-130.93
X290.726Y-149.98
X293.266Y-149.98
X159.752Y-130.93
X162.292Y-130.93
X388.36Y-188.08
X390.9Y-188.08
X231.19Y-169.03
X233.73Y-169.03
X81.172Y-188.08
X83.712Y-188.08
X369.31Y-188.08
X371.85Y-188.08
X276.433Y-169.03
X278.974Y-169.03
X97.84Y-169.03
X100.38Y-169.03
X157.373Y-188.08
X159.912Y-188.08
X369.31Y-130.93
X371.85Y-130.93
X259.77Y-149.98
X262.31Y-149.98
X126.415Y-149.98
X128.955Y-149.98
X388.36Y-169.03
X390.9Y-169.03
X38.31Y-149.98
X40.85Y-149.98
X69.266Y-188.08
X71.806Y-188.08
X221.67Y-149.98
X224.21Y-149.98
X38.31Y-188.08
X40.85Y-188.08
X219.285Y-188.08
X221.825Y-188.08
X154.99Y-169.03
X157.53Y-169.03
X183.57Y-149.98
X186.11Y-149.98
X112.13Y-111.88
X114.67Y-111.88
X296.441Y-134.105
X296.441Y-136.645
X369.31Y-111.88
X371.85Y-111.88
X193.09Y-169.03
X195.63Y-169.03
X107.365Y-149.98
X109.905Y-149.98
X394.71Y-172.2
X394.71Y-174.74
X93.08Y-111.88
X95.62Y-111.88
X350.26Y-130.93
X352.8Y-130.93
X59.741Y-188.08
X62.281Y-188.08
X159.754Y-188.08
X162.294Y-188.08
X54.98Y-111.88
X57.52Y-111.88
X202.62Y-149.98
X205.16Y-149.98
X283.58Y-111.88
X286.12Y-111.88
X40.692Y-130.93
X43.232Y-130.93
X388.36Y-111.88
X390.9Y-111.88
X231.191Y-188.08
X233.731Y-188.08
X88.315Y-149.98
X90.855Y-149.98
X350.26Y-188.08
X352.8Y-188.08
X278.82Y-149.98
X281.36Y-149.98
X116.89Y-169.03
X119.43Y-169.03
X350.26Y-169.03
X352.8Y-169.03
X145.47Y-149.98
X148.01Y-149.98
X302.63Y-111.88
X305.17Y-111.88
X59.74Y-169.03
X62.28Y-169.03
X240.72Y-149.98
X243.26Y-149.98
X297.864Y-130.93
X300.404Y-130.93
X388.36Y-130.927
X390.9Y-130.927
X264.53Y-111.88
X267.07Y-111.88
X169.28Y-111.88
X171.82Y-111.88
X83.552Y-130.93
X86.093Y-130.93
X350.26Y-149.98
X352.8Y-149.98
X274.051Y-130.93
X276.591Y-130.93
X78.79Y-169.03
X81.331Y-169.03
X369.31Y-149.98
X371.85Y-149.98
X85.935Y-188.08
X88.475Y-188.08
X40.691Y-188.08
X43.231Y-188.08
X207.38Y-111.88
X209.92Y-111.88
X293.104Y-111.88
X295.644Y-111.88
X307.39Y-192.84
X309.93Y-192.84
X255.002Y-130.93
X257.542Y-130.93
X288.34Y-192.84
X290.88Y-192.84
X150.23Y-111.88
X152.77Y-111.88
X307.23Y-173.68
X309.77Y-173.68
X235.952Y-130.93
X238.492Y-130.93
X150.229Y-188.08
X152.769Y-188.08
X369.31Y-169.03
X371.85Y-169.03
X326.44Y-192.84
X328.98Y-192.84
X47.835Y-169.03
X50.375Y-169.03
X69.265Y-149.98
X71.805Y-149.98
X164.52Y-149.98
X167.06Y-149.98
X226.43Y-111.88
X228.97Y-111.88
X394.71Y-134.1
X394.71Y-136.64
X216.903Y-130.93
X219.442Y-130.93
X331.21Y-149.98
X333.75Y-149.98
X240.716Y-188.08
X243.256Y-188.08
X131.18Y-111.88
X133.72Y-111.88
X262.147Y-188.08
X264.687Y-188.08
X331.21Y-111.88
X333.75Y-111.88
X250.24Y-169.03
X252.78Y-169.03
X121.652Y-130.93
X124.192Y-130.93
X350.26Y-111.88
X352.8Y-111.88
T6
X57.2Y-161.41
X63.55Y-158.87
X238.18Y-142.36
X244.53Y-139.82
X295.324Y-123.31
X301.674Y-120.77
X385.82Y-123.307
X392.17Y-120.767
X261.99Y-104.26
X268.34Y-101.72
X166.74Y-104.26
X173.09Y-101.72
X81.013Y-123.31
X87.362Y-120.77
X347.72Y-142.36
X354.07Y-139.82
X271.512Y-123.31
X277.861Y-120.77
X76.251Y-161.41
X82.6Y-158.87
X366.77Y-142.36
X373.12Y-139.82
X83.395Y-180.46
X89.745Y-177.92
X38.151Y-180.46
X44.502Y-177.92
X204.84Y-104.26
X211.19Y-101.72
X290.565Y-104.26
X296.914Y-101.72
X304.85Y-185.22
X311.2Y-182.68
X252.462Y-123.31
X258.812Y-120.77
X285.8Y-185.22
X292.15Y-182.68
X147.69Y-104.26
X154.04Y-101.72
X304.69Y-166.06
X311.04Y-163.52
X233.412Y-123.31
X239.762Y-120.77
X147.689Y-180.46
X154.039Y-177.92
X366.77Y-161.41
X373.12Y-158.87
X323.9Y-185.22
X330.25Y-182.68
X45.295Y-161.41
X51.645Y-158.87
X66.725Y-142.36
X73.075Y-139.82
X161.98Y-142.36
X168.33Y-139.82
X223.89Y-104.26
X230.24Y-101.72
X384.55Y-132.83
X387.09Y-139.18
X214.362Y-123.31
X220.712Y-120.77
X328.67Y-142.36
X335.02Y-139.82
X238.176Y-180.46
X244.526Y-177.92
X128.64Y-104.26
X134.99Y-101.72
X259.607Y-180.46
X265.957Y-177.92
X328.67Y-104.26
X335.02Y-101.72
X247.7Y-161.41
X254.05Y-158.87
X119.112Y-123.31
X125.462Y-120.77
X347.72Y-104.26
X354.07Y-101.72
X33.39Y-104.26
X39.74Y-101.72
X71.49Y-104.26
X77.84Y-101.72
X35.77Y-161.41
X42.12Y-158.87
X185.79Y-104.26
X192.14Y-101.72
X209.6Y-161.41
X215.95Y-158.87
X242.94Y-104.26
X249.29Y-101.72
X100.062Y-123.31
X106.412Y-120.77
X385.82Y-142.36
X392.17Y-139.82
X195.312Y-123.31
X201.662Y-120.77
X138.162Y-123.31
X144.512Y-120.77
X328.67Y-123.31
X335.02Y-120.77
X171.5Y-161.41
X177.85Y-158.87
X133.4Y-161.41
X139.75Y-158.87
X328.67Y-161.41
X335.02Y-158.87
X59.582Y-180.46
X65.932Y-177.92
X40.532Y-142.36
X46.883Y-139.82
X257.226Y-180.46
X263.577Y-177.92
X61.962Y-123.31
X68.312Y-120.77
X176.262Y-123.31
X182.612Y-120.77
X288.186Y-142.36
X294.536Y-139.82
X157.213Y-123.31
X163.562Y-120.77
X385.82Y-180.46
X392.17Y-177.92
X228.65Y-161.41
X235.Y-158.87
X78.632Y-180.46
X84.983Y-177.92
X366.77Y-180.46
X373.12Y-177.92
X273.893Y-161.41
X280.243Y-158.87
X95.3Y-161.41
X101.65Y-158.87
X154.832Y-180.46
X161.183Y-177.92
X366.77Y-123.31
X373.12Y-120.77
X257.23Y-142.36
X263.58Y-139.82
X123.875Y-142.36
X130.225Y-139.82
X385.82Y-161.41
X392.17Y-158.87
X35.77Y-142.36
X42.12Y-139.82
X66.727Y-180.46
X73.076Y-177.92
X219.13Y-142.36
X225.48Y-139.82
X35.77Y-180.46
X42.12Y-177.92
X216.745Y-180.46
X223.095Y-177.92
X152.45Y-161.41
X158.8Y-158.87
X181.03Y-142.36
X187.38Y-139.82
X109.59Y-104.26
X115.94Y-101.72
X304.061Y-131.565
X306.601Y-137.915
X366.77Y-104.26
X373.12Y-101.72
X190.55Y-161.41
X196.9Y-158.87
X104.825Y-142.36
X111.175Y-139.82
X384.55Y-170.93
X387.09Y-177.28
X90.54Y-104.26
X96.89Y-101.72
X347.72Y-123.31
X354.07Y-120.77
X57.201Y-180.46
X63.551Y-177.92
X157.214Y-180.46
X163.564Y-177.92
X52.44Y-104.26
X58.79Y-101.72
X200.08Y-142.36
X206.43Y-139.82
X281.04Y-104.26
X287.39Y-101.72
X38.152Y-123.31
X44.502Y-120.77
X385.82Y-104.26
X392.17Y-101.72
X228.651Y-180.46
X235.001Y-177.92
X85.775Y-142.36
X92.125Y-139.82
X347.72Y-180.46
X354.07Y-177.92
X276.28Y-142.36
X282.63Y-139.82
X114.35Y-161.41
X120.7Y-158.87
X347.72Y-161.41
X354.07Y-158.87
X142.93Y-142.36
X149.28Y-139.82
X300.09Y-104.26
X306.44Y-101.72
T2
X209.53Y-93.075G85X209.53Y-94.075
G05
X209.53Y-97.875G85X209.53Y-98.875
G05
X216.83Y-93.075G85X216.83Y-94.075
G05
X216.83Y-97.875G85X216.83Y-98.875
G05
T0
M30
