M48
; DRILL file {KiCad (5.1.8-0-10_14)} date Tuesday, April 06, 2021 at 12:11:48 PM
; FORMAT={-:-/ absolute / metric / decimal}
; #@! TF.CreationDate,2021-04-06T12:11:48+01:00
; #@! TF.GenerationSoftware,Kicad,Pcbnew,(5.1.8-0-10_14)
; #@! TF.FileFunction,Plated,1,2,PTH
FMAT,2
METRIC
T1C0.400
T2C0.600
T3C1.000
T4C1.040
T5C1.470
%
G90
G05
T1
X32.442Y-125.857
X40.38Y-126.651
X40.38Y-144.907
X42.697Y-133.858
X42.761Y-164.751
X45.566Y-142.188
X48.079Y-199.438
X51.102Y-161.312
X52.603Y-180.34
X54.819Y-163.139
X68.955Y-165.544
X210.782Y-111.379
X211.353Y-123.19
X217.64Y-109.728
X218.846Y-112.268
X219.456Y-119.253
X220.751Y-123.19
X222.91Y-109.093
X235.799Y-160.716
X242.786Y-130.619
X246.151Y-194.691
X254.05Y-162.204
X260.248Y-129.826
X269.011Y-162.687
X271.043Y-118.364
X274.853Y-161.798
X276.631Y-190.881
X278.917Y-118.237
X279.298Y-129.826
X280.06Y-156.972
X281.076Y-163.068
X283.87Y-172.085
X283.997Y-158.623
X284.124Y-164.084
X285.14Y-163.449
X285.648Y-140.144
X288.03Y-109.188
X289.001Y-173.609
X291.643Y-178.384
X291.808Y-173.609
X292.151Y-169.901
X292.557Y-167.869
X292.76Y-173.609
X293.713Y-167.831
X294.665Y-173.609
X294.792Y-167.831
X295.364Y-170.117
X295.605Y-150.901
X295.872Y-167.831
X296.012Y-163.805
X296.113Y-153.645
X296.951Y-167.831
X297.078Y-188.849
X298.285Y-167.831
X298.399Y-161.417
X298.761Y-175.482
X298.92Y-170.307
X299.06Y-156.591
X300.063Y-170.434
X300.787Y-154.762
X301.269Y-170.307
X302.412Y-153.187
X302.793Y-143.002
X303.174Y-186.817
X303.682Y-156.388
X303.886Y-152.273
X304.444Y-148.869
X305.714Y-174.879
X306.222Y-159.69
X307.137Y-164.363
X307.719Y-125.377
X307.873Y-150.685
X308.762Y-138.176
X309.461Y-188.563
X309.559Y-154.086
X310.083Y-159.588
X310.286Y-123.698
X310.286Y-157.861
X310.921Y-121.031
X311.302Y-150.241
X311.404Y-158.572
X312.166Y-157.81
X312.217Y-156.743
X312.572Y-155.766
X312.572Y-170.688
X313.207Y-109.22
X313.969Y-148.971
X314.096Y-171.069
X314.579Y-155.981
X315.62Y-129.413
X315.62Y-155.905
X316.636Y-154.432
X317.144Y-151.892
X318.008Y-112.395
X318.008Y-115.748
X318.059Y-119.151
X318.414Y-177.876
X318.605Y-172.085
X318.808Y-152.032
X318.922Y-122.707
X319.278Y-185.039
X319.684Y-172.085
X320.446Y-154.432
X320.7Y-172.085
X320.751Y-121.437
X321.056Y-164.973
X321.081Y-143.256
X321.716Y-151.79
X321.716Y-172.06
X322.072Y-141.707
X322.097Y-163.258
X322.224Y-138.176
X322.224Y-143.078
X322.783Y-172.085
X323.433Y-128.077
X324.51Y-178.562
X325.323Y-185.293
X325.399Y-175.895
X325.526Y-181.585
X327.05Y-142.875
X327.05Y-162.179
X327.05Y-181.737
X327.05Y-187.96
X328.955Y-129.794
X336.702Y-204.216
X337.845Y-164.719
X339.242Y-126.492
X340.512Y-113.03
X341.211Y-182.213
X342.189Y-188.951
X344.475Y-183.82
X345.18Y-202.057
X349.148Y-146.685
X351.485Y-143.485
X355.498Y-185.388
X364.389Y-185.039
X376.733Y-181.483
X376.885Y-174.879
X376.961Y-136.779
X377.469Y-142.113
X380.136Y-176.403
X383.896Y-138.049
X383.946Y-179.959
X384.454Y-123.19
X384.709Y-183.921
X392.582Y-108.839
T3
X337.718Y-186.055
X337.718Y-188.595
X337.718Y-191.135
X292.633Y-181.229
X292.633Y-183.769
X292.633Y-186.309
X295.173Y-181.229
X295.173Y-183.769
X295.173Y-186.309
X101.905Y-192.532
X104.445Y-192.532
T4
X176.421Y-140.455
X178.961Y-140.455
X328.829Y-159.505
X331.369Y-159.505
X162.139Y-159.505
X164.679Y-159.505
X285.959Y-202.365
X288.499Y-202.365
X160.26Y-197.612
X162.8Y-197.612
X392.329Y-181.725
X392.329Y-184.265
X219.289Y-159.505
X221.829Y-159.505
X247.859Y-178.555
X250.399Y-178.555
X38.311Y-140.455
X40.851Y-140.455
X347.879Y-159.505
X350.419Y-159.505
X147.848Y-197.605
X150.388Y-197.605
X119.271Y-140.455
X121.811Y-140.455
X57.359Y-178.555
X59.899Y-178.555
X104.984Y-159.505
X107.524Y-159.505
X385.979Y-121.405
X388.519Y-121.405
X228.81Y-197.605
X231.35Y-197.605
X190.709Y-178.555
X193.249Y-178.555
X71.649Y-121.405
X74.189Y-121.405
X147.849Y-121.405
X150.389Y-121.405
X276.439Y-159.505
X278.979Y-159.505
X138.321Y-140.455
X140.861Y-140.455
X66.884Y-159.505
X69.424Y-159.505
X366.929Y-178.555
X369.469Y-178.555
X35.929Y-159.505
X38.469Y-159.505
X76.409Y-178.555
X78.949Y-178.555
X181.189Y-159.505
X183.729Y-159.505
X143.089Y-159.505
X145.629Y-159.505
X152.609Y-178.555
X155.149Y-178.555
X228.809Y-178.555
X231.349Y-178.555
X347.879Y-121.405
X350.419Y-121.405
X385.979Y-178.555
X388.519Y-178.555
X259.766Y-197.605
X262.306Y-197.605
X150.235Y-197.612
X152.775Y-197.612
X157.373Y-197.605
X159.913Y-197.605
X195.471Y-140.455
X198.011Y-140.455
X121.66Y-197.612
X124.2Y-197.612
X95.459Y-178.555
X97.999Y-178.555
X328.829Y-121.405
X331.369Y-121.405
X392.329Y-143.625
X392.329Y-146.165
X224.049Y-121.405
X226.589Y-121.405
X52.599Y-121.405
X55.139Y-121.405
X366.929Y-140.455
X369.469Y-140.455
X288.345Y-159.505
X290.885Y-159.505
X204.999Y-121.405
X207.539Y-121.405
X252.621Y-140.455
X255.161Y-140.455
X233.571Y-140.455
X236.111Y-140.455
X328.829Y-178.555
X331.369Y-178.555
X281.199Y-121.405
X283.739Y-121.405
X366.929Y-197.605
X369.469Y-197.605
X90.699Y-121.405
X93.239Y-121.405
X209.759Y-178.555
X212.299Y-178.555
X40.691Y-159.505
X43.231Y-159.505
X78.791Y-197.605
X81.331Y-197.605
X347.879Y-178.555
X350.419Y-178.555
X124.034Y-159.505
X126.574Y-159.505
X133.559Y-178.555
X136.099Y-178.555
X57.36Y-197.605
X59.9Y-197.605
X35.929Y-178.555
X38.469Y-178.555
X114.509Y-178.555
X117.049Y-178.555
X81.171Y-140.455
X83.711Y-140.455
X328.829Y-140.455
X331.369Y-140.455
X157.371Y-140.455
X159.911Y-140.455
X274.052Y-178.555
X276.592Y-178.555
X385.979Y-159.505
X388.519Y-159.505
X33.549Y-121.405
X36.089Y-121.405
X171.659Y-178.555
X174.199Y-178.555
X238.339Y-159.505
X240.879Y-159.505
X238.335Y-197.605
X240.875Y-197.605
X297.87Y-149.98
X300.41Y-149.98
X347.879Y-140.455
X350.419Y-140.455
X188.335Y-197.612
X190.875Y-197.612
X100.221Y-140.455
X102.761Y-140.455
X305.009Y-202.365
X307.549Y-202.365
X385.979Y-197.605
X388.519Y-197.605
X262.149Y-121.405
X264.689Y-121.405
X116.897Y-197.612
X119.437Y-197.612
X45.454Y-178.555
X47.994Y-178.555
X193.097Y-197.612
X195.637Y-197.612
X154.991Y-197.605
X157.531Y-197.605
X200.239Y-159.505
X202.779Y-159.505
X257.385Y-197.605
X259.925Y-197.605
X66.885Y-197.605
X69.425Y-197.605
X166.899Y-121.405
X169.439Y-121.405
X271.67Y-140.455
X274.21Y-140.455
X59.741Y-197.605
X62.281Y-197.605
X83.554Y-197.605
X86.094Y-197.605
X295.483Y-139.455
X298.023Y-139.455
X62.121Y-140.455
X64.661Y-140.455
X38.31Y-197.605
X40.85Y-197.605
X214.521Y-140.455
X217.061Y-140.455
X257.389Y-159.505
X259.929Y-159.505
X85.934Y-159.505
X88.474Y-159.505
X304.849Y-183.205
X307.389Y-183.205
X109.749Y-121.405
X112.289Y-121.405
X324.059Y-202.365
X326.599Y-202.365
X385.979Y-140.452
X388.519Y-140.452
X216.904Y-197.605
X219.444Y-197.605
X347.879Y-197.605
X350.419Y-197.605
X185.949Y-121.405
X188.489Y-121.405
X290.723Y-121.405
X293.263Y-121.405
X300.249Y-121.405
X302.789Y-121.405
X35.929Y-197.605
X38.469Y-197.605
X366.929Y-121.405
X369.469Y-121.405
X128.799Y-121.405
X131.339Y-121.405
X366.929Y-159.505
X369.469Y-159.505
X243.099Y-121.405
X245.639Y-121.405
T5
X78.631Y-132.835
X84.981Y-130.295
X326.289Y-132.835
X332.639Y-130.295
X154.831Y-132.835
X161.181Y-130.295
X271.512Y-170.935
X277.862Y-168.395
X383.439Y-151.885
X389.789Y-149.345
X31.009Y-113.785
X37.359Y-111.245
X169.119Y-170.935
X175.469Y-168.395
X235.799Y-151.885
X242.149Y-149.345
X235.795Y-189.985
X242.145Y-187.445
X295.33Y-142.36
X301.68Y-139.82
X345.339Y-132.835
X351.689Y-130.295
X185.795Y-189.992
X192.145Y-187.452
X97.681Y-132.835
X104.031Y-130.295
X302.469Y-194.745
X308.819Y-192.205
X383.439Y-189.985
X389.789Y-187.445
X259.609Y-113.785
X265.959Y-111.245
X114.357Y-189.992
X120.707Y-187.452
X42.914Y-170.935
X49.264Y-168.395
X190.557Y-189.992
X196.907Y-187.452
X152.451Y-189.985
X158.801Y-187.445
X197.699Y-151.885
X204.049Y-149.345
X254.845Y-189.985
X261.195Y-187.445
X64.345Y-189.985
X70.695Y-187.445
X164.359Y-113.785
X170.709Y-111.245
X269.13Y-132.835
X275.48Y-130.295
X57.201Y-189.985
X63.551Y-187.445
X81.014Y-189.985
X87.364Y-187.445
X292.943Y-132.835
X299.293Y-130.295
X59.581Y-132.835
X65.931Y-130.295
X35.77Y-189.985
X42.12Y-187.445
X211.981Y-132.835
X218.331Y-130.295
X254.849Y-151.885
X261.199Y-149.345
X83.394Y-151.885
X89.744Y-149.345
X302.309Y-175.585
X308.659Y-173.045
X107.209Y-113.785
X113.559Y-111.245
X321.519Y-194.745
X327.869Y-192.205
X383.439Y-132.832
X389.789Y-130.292
X214.364Y-189.985
X220.714Y-187.445
X345.339Y-189.985
X351.689Y-187.445
X183.409Y-113.785
X189.759Y-111.245
X288.183Y-113.785
X294.533Y-111.245
X297.709Y-113.785
X304.059Y-111.245
X33.389Y-189.985
X39.739Y-187.445
X364.389Y-113.785
X370.739Y-111.245
X126.259Y-113.785
X132.609Y-111.245
X364.389Y-151.885
X370.739Y-149.345
X240.559Y-113.785
X246.909Y-111.245
X173.881Y-132.835
X180.231Y-130.295
X326.289Y-151.885
X332.639Y-149.345
X159.599Y-151.885
X165.949Y-149.345
X283.419Y-194.745
X289.769Y-192.205
X157.22Y-189.992
X163.57Y-187.452
X382.169Y-180.455
X384.709Y-186.805
X216.749Y-151.885
X223.099Y-149.345
X245.319Y-170.935
X251.669Y-168.395
X35.771Y-132.835
X42.121Y-130.295
X345.339Y-151.885
X351.689Y-149.345
X145.308Y-189.985
X151.658Y-187.445
X116.731Y-132.835
X123.081Y-130.295
X54.819Y-170.935
X61.169Y-168.395
X102.444Y-151.885
X108.794Y-149.345
X383.439Y-113.785
X389.789Y-111.245
X226.27Y-189.985
X232.62Y-187.445
X188.169Y-170.935
X194.519Y-168.395
X69.109Y-113.785
X75.459Y-111.245
X145.309Y-113.785
X151.659Y-111.245
X273.899Y-151.885
X280.249Y-149.345
X135.781Y-132.835
X142.131Y-130.295
X64.344Y-151.885
X70.694Y-149.345
X364.389Y-170.935
X370.739Y-168.395
X33.389Y-151.885
X39.739Y-149.345
X73.869Y-170.935
X80.219Y-168.395
X178.649Y-151.885
X184.999Y-149.345
X140.549Y-151.885
X146.899Y-149.345
X150.069Y-170.935
X156.419Y-168.395
X226.269Y-170.935
X232.619Y-168.395
X345.339Y-113.785
X351.689Y-111.245
X383.439Y-170.935
X389.789Y-168.395
X257.226Y-189.985
X263.576Y-187.445
X147.695Y-189.992
X154.045Y-187.452
X154.833Y-189.985
X161.183Y-187.445
X192.931Y-132.835
X199.281Y-130.295
X119.12Y-189.992
X125.47Y-187.452
X92.919Y-170.935
X99.269Y-168.395
X326.289Y-113.785
X332.639Y-111.245
X382.169Y-142.355
X384.709Y-148.705
X221.509Y-113.785
X227.859Y-111.245
X50.059Y-113.785
X56.409Y-111.245
X364.389Y-132.835
X370.739Y-130.295
X285.805Y-151.885
X292.155Y-149.345
X202.459Y-113.785
X208.809Y-111.245
X250.081Y-132.835
X256.431Y-130.295
X231.031Y-132.835
X237.381Y-130.295
X326.289Y-170.935
X332.639Y-168.395
X278.659Y-113.785
X285.009Y-111.245
X364.389Y-189.985
X370.739Y-187.445
X88.159Y-113.785
X94.509Y-111.245
X207.219Y-170.935
X213.569Y-168.395
X38.151Y-151.885
X44.501Y-149.345
X76.251Y-189.985
X82.601Y-187.445
X345.339Y-170.935
X351.689Y-168.395
X121.494Y-151.885
X127.844Y-149.345
X131.019Y-170.935
X137.369Y-168.395
X54.82Y-189.985
X61.17Y-187.445
X33.389Y-170.935
X39.739Y-168.395
X111.969Y-170.935
X118.319Y-168.395
T2
G00X206.405Y-102.741
M15
G01X206.405Y-103.341
M16
G05
G00X206.405Y-106.671
M15
G01X206.405Y-107.771
M16
G05
G00X215.045Y-102.741
M15
G01X215.045Y-103.341
M16
G05
G00X215.045Y-106.671
M15
G01X215.045Y-107.771
M16
G05
T0
M30
