G04 #@! TF.GenerationSoftware,KiCad,Pcbnew,(5.0.0)*
G04 #@! TF.CreationDate,2018-12-28T22:23:35+01:00*
G04 #@! TF.ProjectId,cypher,6379706865722E6B696361645F706362,rev?*
G04 #@! TF.SameCoordinates,Original*
G04 #@! TF.FileFunction,Legend,Bot*
G04 #@! TF.FilePolarity,Positive*
%FSLAX46Y46*%
G04 Gerber Fmt 4.6, Leading zero omitted, Abs format (unit mm)*
G04 Created by KiCad (PCBNEW (5.0.0)) date 12/28/18 22:23:35*
%MOMM*%
%LPD*%
G01*
G04 APERTURE LIST*
%ADD10C,0.300000*%
%ADD11C,0.075000*%
%ADD12C,0.250000*%
%ADD13C,0.120000*%
%ADD14C,0.150000*%
G04 APERTURE END LIST*
D10*
X129817857Y-181878571D02*
X130317857Y-181164285D01*
X130675000Y-181878571D02*
X130675000Y-180378571D01*
X130103571Y-180378571D01*
X129960714Y-180450000D01*
X129889285Y-180521428D01*
X129817857Y-180664285D01*
X129817857Y-180878571D01*
X129889285Y-181021428D01*
X129960714Y-181092857D01*
X130103571Y-181164285D01*
X130675000Y-181164285D01*
X128603571Y-181807142D02*
X128746428Y-181878571D01*
X129032142Y-181878571D01*
X129175000Y-181807142D01*
X129246428Y-181664285D01*
X129246428Y-181092857D01*
X129175000Y-180950000D01*
X129032142Y-180878571D01*
X128746428Y-180878571D01*
X128603571Y-180950000D01*
X128532142Y-181092857D01*
X128532142Y-181235714D01*
X129246428Y-181378571D01*
X128032142Y-180878571D02*
X127675000Y-181878571D01*
X127317857Y-180878571D01*
X126746428Y-181735714D02*
X126675000Y-181807142D01*
X126746428Y-181878571D01*
X126817857Y-181807142D01*
X126746428Y-181735714D01*
X126746428Y-181878571D01*
X124960714Y-180521428D02*
X124889285Y-180450000D01*
X124746428Y-180378571D01*
X124389285Y-180378571D01*
X124246428Y-180450000D01*
X124175000Y-180521428D01*
X124103571Y-180664285D01*
X124103571Y-180807142D01*
X124175000Y-181021428D01*
X125032142Y-181878571D01*
X124103571Y-181878571D01*
X130720357Y-178478571D02*
X130559642Y-179478571D01*
X130184642Y-178764285D01*
X129988214Y-179478571D01*
X129577500Y-178478571D01*
X128550714Y-179407142D02*
X128702500Y-179478571D01*
X128988214Y-179478571D01*
X129122142Y-179407142D01*
X129175714Y-179264285D01*
X129104285Y-178692857D01*
X129015000Y-178550000D01*
X128863214Y-178478571D01*
X128577500Y-178478571D01*
X128443571Y-178550000D01*
X128390000Y-178692857D01*
X128407857Y-178835714D01*
X129140000Y-178978571D01*
X127907857Y-179407142D02*
X127773928Y-179478571D01*
X127488214Y-179478571D01*
X127336428Y-179407142D01*
X127247142Y-179264285D01*
X127238214Y-179192857D01*
X127291785Y-179050000D01*
X127425714Y-178978571D01*
X127640000Y-178978571D01*
X127773928Y-178907142D01*
X127827500Y-178764285D01*
X127818571Y-178692857D01*
X127729285Y-178550000D01*
X127577500Y-178478571D01*
X127363214Y-178478571D01*
X127229285Y-178550000D01*
X126720357Y-178478571D02*
X126148928Y-178478571D01*
X126443571Y-177978571D02*
X126604285Y-179264285D01*
X126550714Y-179407142D01*
X126416785Y-179478571D01*
X126273928Y-179478571D01*
X125863214Y-178478571D02*
X125291785Y-178478571D01*
X125773928Y-179478571D02*
X125613214Y-178192857D01*
X125523928Y-178050000D01*
X125372142Y-177978571D01*
X125229285Y-177978571D01*
X124702500Y-179478571D02*
X124836428Y-179407142D01*
X124898928Y-179335714D01*
X124952500Y-179192857D01*
X124898928Y-178764285D01*
X124809642Y-178621428D01*
X124729285Y-178550000D01*
X124577500Y-178478571D01*
X124363214Y-178478571D01*
X124229285Y-178550000D01*
X124166785Y-178621428D01*
X124113214Y-178764285D01*
X124166785Y-179192857D01*
X124256071Y-179335714D01*
X124336428Y-179407142D01*
X124488214Y-179478571D01*
X124702500Y-179478571D01*
X123702500Y-179478571D02*
X122791785Y-178478571D01*
X123577500Y-178478571D02*
X122916785Y-179478571D01*
X122434642Y-178478571D02*
X121863214Y-178478571D01*
X122157857Y-177978571D02*
X122318571Y-179264285D01*
X122265000Y-179407142D01*
X122131071Y-179478571D01*
X121988214Y-179478571D01*
X121488214Y-179478571D02*
X121363214Y-178478571D01*
X121398928Y-178764285D02*
X121309642Y-178621428D01*
X121229285Y-178550000D01*
X121077500Y-178478571D01*
X120934642Y-178478571D01*
X120345357Y-179478571D02*
X120479285Y-179407142D01*
X120541785Y-179335714D01*
X120595357Y-179192857D01*
X120541785Y-178764285D01*
X120452500Y-178621428D01*
X120372142Y-178550000D01*
X120220357Y-178478571D01*
X120006071Y-178478571D01*
X119872142Y-178550000D01*
X119809642Y-178621428D01*
X119756071Y-178764285D01*
X119809642Y-179192857D01*
X119898928Y-179335714D01*
X119979285Y-179407142D01*
X120131071Y-179478571D01*
X120345357Y-179478571D01*
X119291785Y-178478571D02*
X118720357Y-178478571D01*
X119015000Y-177978571D02*
X119175714Y-179264285D01*
X119122142Y-179407142D01*
X118988214Y-179478571D01*
X118845357Y-179478571D01*
X129817857Y-176935714D02*
X129889285Y-177007142D01*
X130103571Y-177078571D01*
X130246428Y-177078571D01*
X130460714Y-177007142D01*
X130603571Y-176864285D01*
X130675000Y-176721428D01*
X130746428Y-176435714D01*
X130746428Y-176221428D01*
X130675000Y-175935714D01*
X130603571Y-175792857D01*
X130460714Y-175650000D01*
X130246428Y-175578571D01*
X130103571Y-175578571D01*
X129889285Y-175650000D01*
X129817857Y-175721428D01*
X129317857Y-176078571D02*
X128960714Y-177078571D01*
X128603571Y-176078571D02*
X128960714Y-177078571D01*
X129103571Y-177435714D01*
X129175000Y-177507142D01*
X129317857Y-177578571D01*
X128032142Y-176078571D02*
X128032142Y-177578571D01*
X128032142Y-176150000D02*
X127889285Y-176078571D01*
X127603571Y-176078571D01*
X127460714Y-176150000D01*
X127389285Y-176221428D01*
X127317857Y-176364285D01*
X127317857Y-176792857D01*
X127389285Y-176935714D01*
X127460714Y-177007142D01*
X127603571Y-177078571D01*
X127889285Y-177078571D01*
X128032142Y-177007142D01*
X126675000Y-177078571D02*
X126675000Y-175578571D01*
X126032142Y-177078571D02*
X126032142Y-176292857D01*
X126103571Y-176150000D01*
X126246428Y-176078571D01*
X126460714Y-176078571D01*
X126603571Y-176150000D01*
X126675000Y-176221428D01*
X124746428Y-177007142D02*
X124889285Y-177078571D01*
X125175000Y-177078571D01*
X125317857Y-177007142D01*
X125389285Y-176864285D01*
X125389285Y-176292857D01*
X125317857Y-176150000D01*
X125175000Y-176078571D01*
X124889285Y-176078571D01*
X124746428Y-176150000D01*
X124675000Y-176292857D01*
X124675000Y-176435714D01*
X125389285Y-176578571D01*
X124032142Y-177078571D02*
X124032142Y-176078571D01*
X124032142Y-176364285D02*
X123960714Y-176221428D01*
X123889285Y-176150000D01*
X123746428Y-176078571D01*
X123603571Y-176078571D01*
X121960714Y-177078571D02*
X121960714Y-175578571D01*
X121389285Y-175578571D01*
X121246428Y-175650000D01*
X121175000Y-175721428D01*
X121103571Y-175864285D01*
X121103571Y-176078571D01*
X121175000Y-176221428D01*
X121246428Y-176292857D01*
X121389285Y-176364285D01*
X121960714Y-176364285D01*
X119603571Y-176935714D02*
X119675000Y-177007142D01*
X119889285Y-177078571D01*
X120032142Y-177078571D01*
X120246428Y-177007142D01*
X120389285Y-176864285D01*
X120460714Y-176721428D01*
X120532142Y-176435714D01*
X120532142Y-176221428D01*
X120460714Y-175935714D01*
X120389285Y-175792857D01*
X120246428Y-175650000D01*
X120032142Y-175578571D01*
X119889285Y-175578571D01*
X119675000Y-175650000D01*
X119603571Y-175721428D01*
X118460714Y-176292857D02*
X118246428Y-176364285D01*
X118175000Y-176435714D01*
X118103571Y-176578571D01*
X118103571Y-176792857D01*
X118175000Y-176935714D01*
X118246428Y-177007142D01*
X118389285Y-177078571D01*
X118960714Y-177078571D01*
X118960714Y-175578571D01*
X118460714Y-175578571D01*
X118317857Y-175650000D01*
X118246428Y-175721428D01*
X118175000Y-175864285D01*
X118175000Y-176007142D01*
X118246428Y-176150000D01*
X118317857Y-176221428D01*
X118460714Y-176292857D01*
X118960714Y-176292857D01*
D11*
G04 #@! TO.C,C8*
X198550000Y-180250000D02*
X198900000Y-180550000D01*
X199250000Y-180250000D02*
X198550000Y-180250000D01*
X198900000Y-180550000D02*
X199250000Y-180250000D01*
X199250000Y-180550000D02*
X198550000Y-180550000D01*
G04 #@! TO.C,D4*
X52450000Y-144700000D02*
X52800000Y-145000000D01*
X53150000Y-144700000D02*
X52450000Y-144700000D01*
X52800000Y-145000000D02*
X53150000Y-144700000D01*
X53150000Y-145000000D02*
X52450000Y-145000000D01*
G04 #@! TO.C,D5*
X69090000Y-158775000D02*
X69440000Y-159075000D01*
X69790000Y-158775000D02*
X69090000Y-158775000D01*
X69440000Y-159075000D02*
X69790000Y-158775000D01*
X69790000Y-159075000D02*
X69090000Y-159075000D01*
G04 #@! TO.C,D6*
X51150000Y-182850000D02*
X51500000Y-183150000D01*
X51850000Y-182850000D02*
X51150000Y-182850000D01*
X51500000Y-183150000D02*
X51850000Y-182850000D01*
X51850000Y-183150000D02*
X51150000Y-183150000D01*
G04 #@! TO.C,D7*
X46450000Y-106750000D02*
X46800000Y-107050000D01*
X47150000Y-106750000D02*
X46450000Y-106750000D01*
X46800000Y-107050000D02*
X47150000Y-106750000D01*
X47150000Y-107050000D02*
X46450000Y-107050000D01*
G04 #@! TO.C,D8*
X50050000Y-125900000D02*
X50400000Y-126200000D01*
X50750000Y-125900000D02*
X50050000Y-125900000D01*
X50400000Y-126200000D02*
X50750000Y-125900000D01*
X50750000Y-126200000D02*
X50050000Y-126200000D01*
G04 #@! TO.C,D9*
X97550000Y-182725000D02*
X97900000Y-183025000D01*
X98250000Y-182725000D02*
X97550000Y-182725000D01*
X97900000Y-183025000D02*
X98250000Y-182725000D01*
X98250000Y-183025000D02*
X97550000Y-183025000D01*
G04 #@! TO.C,D10*
X69090000Y-163810000D02*
X69440000Y-164110000D01*
X69790000Y-163810000D02*
X69090000Y-163810000D01*
X69440000Y-164110000D02*
X69790000Y-163810000D01*
X69790000Y-164110000D02*
X69090000Y-164110000D01*
G04 #@! TO.C,D11*
X64350000Y-106725000D02*
X64700000Y-107025000D01*
X65050000Y-106725000D02*
X64350000Y-106725000D01*
X64700000Y-107025000D02*
X65050000Y-106725000D01*
X65050000Y-107025000D02*
X64350000Y-107025000D01*
G04 #@! TO.C,D12*
X73840000Y-125725000D02*
X74190000Y-126025000D01*
X74540000Y-125725000D02*
X73840000Y-125725000D01*
X74190000Y-126025000D02*
X74540000Y-125725000D01*
X74540000Y-126025000D02*
X73840000Y-126025000D01*
G04 #@! TO.C,D13*
X78540000Y-144710000D02*
X78890000Y-145010000D01*
X79240000Y-144710000D02*
X78540000Y-144710000D01*
X78890000Y-145010000D02*
X79240000Y-144710000D01*
X79240000Y-145010000D02*
X78540000Y-145010000D01*
G04 #@! TO.C,D14*
X95290000Y-182835000D02*
X95640000Y-183135000D01*
X95990000Y-182835000D02*
X95290000Y-182835000D01*
X95640000Y-183135000D02*
X95990000Y-182835000D01*
X95990000Y-183135000D02*
X95290000Y-183135000D01*
G04 #@! TO.C,D15*
X83400000Y-106725000D02*
X83750000Y-107025000D01*
X84100000Y-106725000D02*
X83400000Y-106725000D01*
X83750000Y-107025000D02*
X84100000Y-106725000D01*
X84100000Y-107025000D02*
X83400000Y-107025000D01*
G04 #@! TO.C,D16*
X92820000Y-125725000D02*
X93170000Y-126025000D01*
X93520000Y-125725000D02*
X92820000Y-125725000D01*
X93170000Y-126025000D02*
X93520000Y-125725000D01*
X93520000Y-126025000D02*
X92820000Y-126025000D01*
G04 #@! TO.C,D17*
X97600000Y-144675000D02*
X97950000Y-144975000D01*
X98300000Y-144675000D02*
X97600000Y-144675000D01*
X97950000Y-144975000D02*
X98300000Y-144675000D01*
X98300000Y-144975000D02*
X97600000Y-144975000D01*
G04 #@! TO.C,D18*
X87800000Y-163950000D02*
X88150000Y-164250000D01*
X88500000Y-163950000D02*
X87800000Y-163950000D01*
X88150000Y-164250000D02*
X88500000Y-163950000D01*
X88500000Y-164250000D02*
X87800000Y-164250000D01*
G04 #@! TO.C,D19*
X116750000Y-144925000D02*
X117100000Y-145225000D01*
X117450000Y-144925000D02*
X116750000Y-144925000D01*
X117100000Y-145225000D02*
X117450000Y-144925000D01*
X117450000Y-145225000D02*
X116750000Y-145225000D01*
G04 #@! TO.C,D21*
X102250000Y-106875000D02*
X102600000Y-107175000D01*
X102950000Y-106875000D02*
X102250000Y-106875000D01*
X102600000Y-107175000D02*
X102950000Y-106875000D01*
X102950000Y-107175000D02*
X102250000Y-107175000D01*
G04 #@! TO.C,D22*
X113100000Y-125825000D02*
X113450000Y-126125000D01*
X113800000Y-125825000D02*
X113100000Y-125825000D01*
X113450000Y-126125000D02*
X113800000Y-125825000D01*
X113800000Y-126125000D02*
X113100000Y-126125000D01*
G04 #@! TO.C,D23*
X107150000Y-163825000D02*
X107500000Y-164125000D01*
X107850000Y-163825000D02*
X107150000Y-163825000D01*
X107500000Y-164125000D02*
X107850000Y-163825000D01*
X107850000Y-164125000D02*
X107150000Y-164125000D01*
G04 #@! TO.C,D24*
X121550000Y-106725000D02*
X121900000Y-107025000D01*
X122250000Y-106725000D02*
X121550000Y-106725000D01*
X121900000Y-107025000D02*
X122250000Y-106725000D01*
X122250000Y-107025000D02*
X121550000Y-107025000D01*
G04 #@! TO.C,D25*
X131000000Y-125650000D02*
X131350000Y-125950000D01*
X131700000Y-125650000D02*
X131000000Y-125650000D01*
X131350000Y-125950000D02*
X131700000Y-125650000D01*
X131700000Y-125950000D02*
X131000000Y-125950000D01*
G04 #@! TO.C,D26*
X135700000Y-144770000D02*
X136050000Y-145070000D01*
X136400000Y-144770000D02*
X135700000Y-144770000D01*
X136050000Y-145070000D02*
X136400000Y-144770000D01*
X136400000Y-145070000D02*
X135700000Y-145070000D01*
G04 #@! TO.C,D27*
X126180000Y-163795000D02*
X126530000Y-164095000D01*
X126880000Y-163795000D02*
X126180000Y-163795000D01*
X126530000Y-164095000D02*
X126880000Y-163795000D01*
X126880000Y-164095000D02*
X126180000Y-164095000D01*
G04 #@! TO.C,D28*
X145225000Y-163825000D02*
X145575000Y-164125000D01*
X145925000Y-163825000D02*
X145225000Y-163825000D01*
X145575000Y-164125000D02*
X145925000Y-163825000D01*
X145925000Y-164125000D02*
X145225000Y-164125000D01*
G04 #@! TO.C,D29*
X140500000Y-106775000D02*
X140850000Y-107075000D01*
X141200000Y-106775000D02*
X140500000Y-106775000D01*
X140850000Y-107075000D02*
X141200000Y-106775000D01*
X141200000Y-107075000D02*
X140500000Y-107075000D01*
G04 #@! TO.C,D30*
X149950000Y-125625000D02*
X150300000Y-125925000D01*
X150650000Y-125625000D02*
X149950000Y-125625000D01*
X150300000Y-125925000D02*
X150650000Y-125625000D01*
X150650000Y-125925000D02*
X149950000Y-125925000D01*
G04 #@! TO.C,D31*
X154850000Y-144825000D02*
X155200000Y-145125000D01*
X155550000Y-144825000D02*
X154850000Y-144825000D01*
X155200000Y-145125000D02*
X155550000Y-144825000D01*
X155550000Y-145125000D02*
X154850000Y-145125000D01*
G04 #@! TO.C,D32*
X169250000Y-182850000D02*
X169600000Y-183150000D01*
X169950000Y-182850000D02*
X169250000Y-182850000D01*
X169600000Y-183150000D02*
X169950000Y-182850000D01*
X169950000Y-183150000D02*
X169250000Y-183150000D01*
G04 #@! TO.C,D33*
X164280000Y-163805000D02*
X164630000Y-164105000D01*
X164980000Y-163805000D02*
X164280000Y-163805000D01*
X164630000Y-164105000D02*
X164980000Y-163805000D01*
X164980000Y-164105000D02*
X164280000Y-164105000D01*
G04 #@! TO.C,D34*
X161050000Y-106825000D02*
X161400000Y-107125000D01*
X161750000Y-106825000D02*
X161050000Y-106825000D01*
X161400000Y-107125000D02*
X161750000Y-106825000D01*
X161750000Y-107125000D02*
X161050000Y-107125000D01*
G04 #@! TO.C,D35*
X169075000Y-125825000D02*
X169425000Y-126125000D01*
X169775000Y-125825000D02*
X169075000Y-125825000D01*
X169425000Y-126125000D02*
X169775000Y-125825000D01*
X169775000Y-126125000D02*
X169075000Y-126125000D01*
G04 #@! TO.C,D36*
X173925000Y-144825000D02*
X174275000Y-145125000D01*
X174625000Y-144825000D02*
X173925000Y-144825000D01*
X174275000Y-145125000D02*
X174625000Y-144825000D01*
X174625000Y-145125000D02*
X173925000Y-145125000D01*
G04 #@! TO.C,D37*
X183325000Y-163800000D02*
X183675000Y-164100000D01*
X184025000Y-163800000D02*
X183325000Y-163800000D01*
X183675000Y-164100000D02*
X184025000Y-163800000D01*
X184025000Y-164100000D02*
X183325000Y-164100000D01*
G04 #@! TO.C,D38*
X178600000Y-106825000D02*
X178950000Y-107125000D01*
X179300000Y-106825000D02*
X178600000Y-106825000D01*
X178950000Y-107125000D02*
X179300000Y-106825000D01*
X179300000Y-107125000D02*
X178600000Y-107125000D01*
G04 #@! TO.C,D39*
X188150000Y-125605000D02*
X188500000Y-125905000D01*
X188850000Y-125605000D02*
X188150000Y-125605000D01*
X188500000Y-125905000D02*
X188850000Y-125605000D01*
X188850000Y-125905000D02*
X188150000Y-125905000D01*
G04 #@! TO.C,D40*
X192875000Y-144825000D02*
X193225000Y-145125000D01*
X193575000Y-144825000D02*
X192875000Y-144825000D01*
X193225000Y-145125000D02*
X193575000Y-144825000D01*
X193575000Y-145125000D02*
X192875000Y-145125000D01*
G04 #@! TO.C,D41*
X202375000Y-163800000D02*
X202725000Y-164100000D01*
X203075000Y-163800000D02*
X202375000Y-163800000D01*
X202725000Y-164100000D02*
X203075000Y-163800000D01*
X203075000Y-164100000D02*
X202375000Y-164100000D01*
G04 #@! TO.C,D42*
X196900000Y-106850000D02*
X197250000Y-107150000D01*
X197600000Y-106850000D02*
X196900000Y-106850000D01*
X197250000Y-107150000D02*
X197600000Y-106850000D01*
X197600000Y-107150000D02*
X196900000Y-107150000D01*
G04 #@! TO.C,D43*
X207150000Y-125625000D02*
X207500000Y-125925000D01*
X207850000Y-125625000D02*
X207150000Y-125625000D01*
X207500000Y-125925000D02*
X207850000Y-125625000D01*
X207850000Y-125925000D02*
X207150000Y-125925000D01*
G04 #@! TO.C,D44*
X212050000Y-144825000D02*
X212400000Y-145125000D01*
X212750000Y-144825000D02*
X212050000Y-144825000D01*
X212400000Y-145125000D02*
X212750000Y-144825000D01*
X212750000Y-145125000D02*
X212050000Y-145125000D01*
G04 #@! TO.C,D45*
X211250000Y-182825000D02*
X211600000Y-183125000D01*
X211950000Y-182825000D02*
X211250000Y-182825000D01*
X211600000Y-183125000D02*
X211950000Y-182825000D01*
X211950000Y-183125000D02*
X211250000Y-183125000D01*
G04 #@! TO.C,D46*
X221550000Y-163825000D02*
X221900000Y-164125000D01*
X222250000Y-163825000D02*
X221550000Y-163825000D01*
X221900000Y-164125000D02*
X222250000Y-163825000D01*
X222250000Y-164125000D02*
X221550000Y-164125000D01*
G04 #@! TO.C,D47*
X231150000Y-144850000D02*
X231500000Y-145150000D01*
X231850000Y-144850000D02*
X231150000Y-144850000D01*
X231500000Y-145150000D02*
X231850000Y-144850000D01*
X231850000Y-145150000D02*
X231150000Y-145150000D01*
G04 #@! TO.C,D48*
X198950000Y-106825000D02*
X199300000Y-107125000D01*
X199650000Y-106825000D02*
X198950000Y-106825000D01*
X199300000Y-107125000D02*
X199650000Y-106825000D01*
X199650000Y-107125000D02*
X198950000Y-107125000D01*
G04 #@! TO.C,D49*
X226350000Y-125625000D02*
X226700000Y-125925000D01*
X227050000Y-125625000D02*
X226350000Y-125625000D01*
X226700000Y-125925000D02*
X227050000Y-125625000D01*
X227050000Y-125925000D02*
X226350000Y-125925000D01*
G04 #@! TO.C,D50*
X250150000Y-183025000D02*
X250500000Y-183325000D01*
X250850000Y-183025000D02*
X250150000Y-183025000D01*
X250500000Y-183325000D02*
X250850000Y-183025000D01*
X250850000Y-183325000D02*
X250150000Y-183325000D01*
G04 #@! TO.C,D51*
X235850000Y-106625000D02*
X236200000Y-106925000D01*
X236550000Y-106625000D02*
X235850000Y-106625000D01*
X236200000Y-106925000D02*
X236550000Y-106625000D01*
X236550000Y-106925000D02*
X235850000Y-106925000D01*
G04 #@! TO.C,D52*
X250050000Y-144690000D02*
X250400000Y-144990000D01*
X250750000Y-144690000D02*
X250050000Y-144690000D01*
X250400000Y-144990000D02*
X250750000Y-144690000D01*
X250750000Y-144990000D02*
X250050000Y-144990000D01*
G04 #@! TO.C,D53*
X245250000Y-125825000D02*
X245600000Y-126125000D01*
X245950000Y-125825000D02*
X245250000Y-125825000D01*
X245600000Y-126125000D02*
X245950000Y-125825000D01*
X245950000Y-126125000D02*
X245250000Y-126125000D01*
G04 #@! TO.C,D54*
X240550000Y-163725000D02*
X240900000Y-164025000D01*
X241250000Y-163725000D02*
X240550000Y-163725000D01*
X240900000Y-164025000D02*
X241250000Y-163725000D01*
X241250000Y-164025000D02*
X240550000Y-164025000D01*
G04 #@! TO.C,D55*
X271650000Y-183025000D02*
X272000000Y-183325000D01*
X272350000Y-183025000D02*
X271650000Y-183025000D01*
X272000000Y-183325000D02*
X272350000Y-183025000D01*
X272350000Y-183325000D02*
X271650000Y-183325000D01*
G04 #@! TO.C,D56*
X254750000Y-106625000D02*
X255100000Y-106925000D01*
X255450000Y-106625000D02*
X254750000Y-106625000D01*
X255100000Y-106925000D02*
X255450000Y-106625000D01*
X255450000Y-106925000D02*
X254750000Y-106925000D01*
G04 #@! TO.C,D57*
X264350000Y-125825000D02*
X264700000Y-126125000D01*
X265050000Y-125825000D02*
X264350000Y-125825000D01*
X264700000Y-126125000D02*
X265050000Y-125825000D01*
X265050000Y-126125000D02*
X264350000Y-126125000D01*
G04 #@! TO.C,D58*
X269250000Y-144725000D02*
X269600000Y-145025000D01*
X269950000Y-144725000D02*
X269250000Y-144725000D01*
X269600000Y-145025000D02*
X269950000Y-144725000D01*
X269950000Y-145025000D02*
X269250000Y-145025000D01*
G04 #@! TO.C,D59*
X259450000Y-163625000D02*
X259800000Y-163925000D01*
X260150000Y-163625000D02*
X259450000Y-163625000D01*
X259800000Y-163925000D02*
X260150000Y-163625000D01*
X260150000Y-163925000D02*
X259450000Y-163925000D01*
G04 #@! TO.C,D60*
X297750000Y-187825000D02*
X298100000Y-188125000D01*
X298450000Y-187825000D02*
X297750000Y-187825000D01*
X298100000Y-188125000D02*
X298450000Y-187825000D01*
X298450000Y-188125000D02*
X297750000Y-188125000D01*
G04 #@! TO.C,D61*
X283350000Y-125825000D02*
X283700000Y-126125000D01*
X284050000Y-125825000D02*
X283350000Y-125825000D01*
X283700000Y-126125000D02*
X284050000Y-125825000D01*
X284050000Y-126125000D02*
X283350000Y-126125000D01*
G04 #@! TO.C,D62*
X285900000Y-164400000D02*
X286250000Y-164700000D01*
X286600000Y-164400000D02*
X285900000Y-164400000D01*
X286250000Y-164700000D02*
X286600000Y-164400000D01*
X286600000Y-164700000D02*
X285900000Y-164700000D01*
G04 #@! TO.C,D63*
X273810000Y-106625000D02*
X274160000Y-106925000D01*
X274510000Y-106625000D02*
X273810000Y-106625000D01*
X274160000Y-106925000D02*
X274510000Y-106625000D01*
X274510000Y-106925000D02*
X273810000Y-106925000D01*
G04 #@! TO.C,D64*
X285850000Y-148125000D02*
X286200000Y-148425000D01*
X286550000Y-148125000D02*
X285850000Y-148125000D01*
X286200000Y-148425000D02*
X286550000Y-148125000D01*
X286550000Y-148425000D02*
X285850000Y-148425000D01*
G04 #@! TO.C,D65*
X276150000Y-106625000D02*
X276500000Y-106925000D01*
X276850000Y-106625000D02*
X276150000Y-106625000D01*
X276500000Y-106925000D02*
X276850000Y-106625000D01*
X276850000Y-106925000D02*
X276150000Y-106925000D01*
G04 #@! TO.C,D66*
X304800000Y-148175000D02*
X305150000Y-148475000D01*
X305500000Y-148175000D02*
X304800000Y-148175000D01*
X305150000Y-148475000D02*
X305500000Y-148175000D01*
X305500000Y-148475000D02*
X304800000Y-148475000D01*
G04 #@! TO.C,D67*
X316550000Y-168500000D02*
X316900000Y-168800000D01*
X317250000Y-168500000D02*
X316550000Y-168500000D01*
X316900000Y-168800000D02*
X317250000Y-168500000D01*
X317250000Y-168800000D02*
X316550000Y-168800000D01*
G04 #@! TO.C,D68*
X317850000Y-187825000D02*
X318200000Y-188125000D01*
X318550000Y-187825000D02*
X317850000Y-187825000D01*
X318200000Y-188125000D02*
X318550000Y-187825000D01*
X318550000Y-188125000D02*
X317850000Y-188125000D01*
G04 #@! TO.C,D69*
X306850000Y-127325000D02*
X307200000Y-127625000D01*
X307550000Y-127325000D02*
X306850000Y-127325000D01*
X307200000Y-127625000D02*
X307550000Y-127325000D01*
X307550000Y-127625000D02*
X306850000Y-127625000D01*
G04 #@! TO.C,D70*
X310325000Y-99875000D02*
X310675000Y-100175000D01*
X311025000Y-99875000D02*
X310325000Y-99875000D01*
X310675000Y-100175000D02*
X311025000Y-99875000D01*
X311025000Y-100175000D02*
X310325000Y-100175000D01*
G04 #@! TO.C,D71*
X340550000Y-106625000D02*
X340900000Y-106925000D01*
X341250000Y-106625000D02*
X340550000Y-106625000D01*
X340900000Y-106925000D02*
X341250000Y-106625000D01*
X341250000Y-106925000D02*
X340550000Y-106925000D01*
G04 #@! TO.C,D72*
X340625000Y-144950000D02*
X340975000Y-145250000D01*
X341325000Y-144950000D02*
X340625000Y-144950000D01*
X340975000Y-145250000D02*
X341325000Y-144950000D01*
X341325000Y-145250000D02*
X340625000Y-145250000D01*
G04 #@! TO.C,D73*
X340600000Y-125800000D02*
X340950000Y-126100000D01*
X341300000Y-125800000D02*
X340600000Y-125800000D01*
X340950000Y-126100000D02*
X341300000Y-125800000D01*
X341300000Y-126100000D02*
X340600000Y-126100000D01*
G04 #@! TO.C,D74*
X341550000Y-163825000D02*
X341900000Y-164125000D01*
X342250000Y-163825000D02*
X341550000Y-163825000D01*
X341900000Y-164125000D02*
X342250000Y-163825000D01*
X342250000Y-164125000D02*
X341550000Y-164125000D01*
G04 #@! TO.C,D75*
X336100000Y-187850000D02*
X336450000Y-188150000D01*
X336800000Y-187850000D02*
X336100000Y-187850000D01*
X336450000Y-188150000D02*
X336800000Y-187850000D01*
X336800000Y-188150000D02*
X336100000Y-188150000D01*
G04 #@! TO.C,D76*
X359750000Y-144945000D02*
X360100000Y-145245000D01*
X360450000Y-144945000D02*
X359750000Y-144945000D01*
X360100000Y-145245000D02*
X360450000Y-144945000D01*
X360450000Y-145245000D02*
X359750000Y-145245000D01*
G04 #@! TO.C,D77*
X359620000Y-106740000D02*
X359970000Y-107040000D01*
X360320000Y-106740000D02*
X359620000Y-106740000D01*
X359970000Y-107040000D02*
X360320000Y-106740000D01*
X360320000Y-107040000D02*
X359620000Y-107040000D01*
G04 #@! TO.C,D78*
X359750000Y-125750000D02*
X360100000Y-126050000D01*
X360450000Y-125750000D02*
X359750000Y-125750000D01*
X360100000Y-126050000D02*
X360450000Y-125750000D01*
X360450000Y-126050000D02*
X359750000Y-126050000D01*
G04 #@! TO.C,D79*
X359575000Y-163850000D02*
X359925000Y-164150000D01*
X360275000Y-163850000D02*
X359575000Y-163850000D01*
X359925000Y-164150000D02*
X360275000Y-163850000D01*
X360275000Y-164150000D02*
X359575000Y-164150000D01*
G04 #@! TO.C,D80*
X359650000Y-182825000D02*
X360000000Y-183125000D01*
X360350000Y-182825000D02*
X359650000Y-182825000D01*
X360000000Y-183125000D02*
X360350000Y-182825000D01*
X360350000Y-183125000D02*
X359650000Y-183125000D01*
G04 #@! TO.C,D81*
X377150000Y-121725000D02*
X377500000Y-122025000D01*
X377850000Y-121725000D02*
X377150000Y-121725000D01*
X377500000Y-122025000D02*
X377850000Y-121725000D01*
X377850000Y-122025000D02*
X377150000Y-122025000D01*
G04 #@! TO.C,D82*
X377750000Y-140725000D02*
X378100000Y-141025000D01*
X378450000Y-140725000D02*
X377750000Y-140725000D01*
X378100000Y-141025000D02*
X378450000Y-140725000D01*
X378450000Y-141025000D02*
X377750000Y-141025000D01*
G04 #@! TO.C,D83*
X377850000Y-182450000D02*
X378200000Y-182750000D01*
X378550000Y-182450000D02*
X377850000Y-182450000D01*
X378200000Y-182750000D02*
X378550000Y-182450000D01*
X378550000Y-182750000D02*
X377850000Y-182750000D01*
G04 #@! TO.C,D84*
X378350000Y-106625000D02*
X378700000Y-106925000D01*
X379050000Y-106625000D02*
X378350000Y-106625000D01*
X378700000Y-106925000D02*
X379050000Y-106625000D01*
X379050000Y-106925000D02*
X378350000Y-106925000D01*
G04 #@! TO.C,D85*
X377150000Y-159725000D02*
X377500000Y-160025000D01*
X377850000Y-159725000D02*
X377150000Y-159725000D01*
X377500000Y-160025000D02*
X377850000Y-159725000D01*
X377850000Y-160025000D02*
X377150000Y-160025000D01*
G04 #@! TO.C,D86*
X381250000Y-179825000D02*
X381600000Y-180125000D01*
X381950000Y-179825000D02*
X381250000Y-179825000D01*
X381600000Y-180125000D02*
X381950000Y-179825000D01*
X381950000Y-180125000D02*
X381250000Y-180125000D01*
G04 #@! TO.C,D87*
X381550000Y-106725000D02*
X381900000Y-107025000D01*
X382250000Y-106725000D02*
X381550000Y-106725000D01*
X381900000Y-107025000D02*
X382250000Y-106725000D01*
X382250000Y-107025000D02*
X381550000Y-107025000D01*
G04 #@! TO.C,D88*
X378200000Y-133725000D02*
X378550000Y-134025000D01*
X378900000Y-133725000D02*
X378200000Y-133725000D01*
X378550000Y-134025000D02*
X378900000Y-133725000D01*
X378900000Y-134025000D02*
X378200000Y-134025000D01*
G04 #@! TO.C,D89*
X380160000Y-140700000D02*
X380510000Y-141000000D01*
X380860000Y-140700000D02*
X380160000Y-140700000D01*
X380510000Y-141000000D02*
X380860000Y-140700000D01*
X380860000Y-141000000D02*
X380160000Y-141000000D01*
G04 #@! TO.C,D90*
X379350000Y-174750000D02*
X379700000Y-175050000D01*
X380050000Y-174750000D02*
X379350000Y-174750000D01*
X379700000Y-175050000D02*
X380050000Y-174750000D01*
X380050000Y-175050000D02*
X379350000Y-175050000D01*
D12*
G04 #@! TO.C,J2*
X216700000Y-190550000D02*
X211700000Y-190550000D01*
X211700000Y-190550000D02*
X211700000Y-193050000D01*
X211700000Y-193050000D02*
X216700000Y-193050000D01*
X216700000Y-193050000D02*
X216700000Y-190550000D01*
D13*
G04 #@! TO.C,C1*
X196610000Y-175838748D02*
X196610000Y-176361252D01*
X195190000Y-175838748D02*
X195190000Y-176361252D01*
G04 #@! TO.C,C2*
X181035000Y-191613748D02*
X181035000Y-192136252D01*
X179615000Y-191613748D02*
X179615000Y-192136252D01*
G04 #@! TO.C,C3*
X191860000Y-191563748D02*
X191860000Y-192086252D01*
X190440000Y-191563748D02*
X190440000Y-192086252D01*
G04 #@! TO.C,C4*
X172790000Y-184861252D02*
X172790000Y-184338748D01*
X174210000Y-184861252D02*
X174210000Y-184338748D01*
G04 #@! TO.C,C5*
X198190000Y-184636252D02*
X198190000Y-184113748D01*
X199610000Y-184636252D02*
X199610000Y-184113748D01*
G04 #@! TO.C,C6*
X183210000Y-169863748D02*
X183210000Y-170386252D01*
X181790000Y-169863748D02*
X181790000Y-170386252D01*
G04 #@! TO.C,C7*
X194690000Y-191936252D02*
X194690000Y-191413748D01*
X196110000Y-191936252D02*
X196110000Y-191413748D01*
G04 #@! TO.C,F1*
X215190000Y-107061252D02*
X215190000Y-106538748D01*
X216610000Y-107061252D02*
X216610000Y-106538748D01*
G04 #@! TO.C,Q1*
X315790000Y-144100000D02*
X315790000Y-150110000D01*
X322610000Y-146350000D02*
X322610000Y-150110000D01*
X315790000Y-150110000D02*
X317050000Y-150110000D01*
X322610000Y-150110000D02*
X321350000Y-150110000D01*
G04 #@! TO.C,R1*
X219770000Y-103286252D02*
X219770000Y-102763748D01*
X221190000Y-103286252D02*
X221190000Y-102763748D01*
G04 #@! TO.C,R2*
X217790000Y-103286252D02*
X217790000Y-102763748D01*
X219210000Y-103286252D02*
X219210000Y-102763748D01*
G04 #@! TO.C,R3*
X135890000Y-183836252D02*
X135890000Y-183313748D01*
X137310000Y-183836252D02*
X137310000Y-183313748D01*
G04 #@! TO.C,R4*
X173363748Y-175790000D02*
X173886252Y-175790000D01*
X173363748Y-177210000D02*
X173886252Y-177210000D01*
G04 #@! TO.C,R5*
X316086252Y-141510000D02*
X315563748Y-141510000D01*
X316086252Y-140090000D02*
X315563748Y-140090000D01*
G04 #@! TO.C,R6*
X313636252Y-104310000D02*
X313113748Y-104310000D01*
X313636252Y-102890000D02*
X313113748Y-102890000D01*
G04 #@! TO.C,R7*
X313586252Y-107520000D02*
X313063748Y-107520000D01*
X313586252Y-106100000D02*
X313063748Y-106100000D01*
G04 #@! TO.C,R8*
X313586252Y-110710000D02*
X313063748Y-110710000D01*
X313586252Y-109290000D02*
X313063748Y-109290000D01*
G04 #@! TO.C,R9*
X42910000Y-112563748D02*
X42910000Y-113086252D01*
X41490000Y-112563748D02*
X41490000Y-113086252D01*
G04 #@! TO.C,R10*
X47610000Y-131613748D02*
X47610000Y-132136252D01*
X46190000Y-131613748D02*
X46190000Y-132136252D01*
G04 #@! TO.C,R11*
X50110000Y-150663748D02*
X50110000Y-151186252D01*
X48690000Y-150663748D02*
X48690000Y-151186252D01*
G04 #@! TO.C,R12*
X54710000Y-169763748D02*
X54710000Y-170286252D01*
X53290000Y-169763748D02*
X53290000Y-170286252D01*
G04 #@! TO.C,R13*
X47510000Y-188863748D02*
X47510000Y-189386252D01*
X46090000Y-188863748D02*
X46090000Y-189386252D01*
G04 #@! TO.C,R14*
X61810000Y-112638748D02*
X61810000Y-113161252D01*
X60390000Y-112638748D02*
X60390000Y-113161252D01*
G04 #@! TO.C,R15*
X71560000Y-131663748D02*
X71560000Y-132186252D01*
X70140000Y-131663748D02*
X70140000Y-132186252D01*
G04 #@! TO.C,R16*
X76410000Y-150738748D02*
X76410000Y-151261252D01*
X74990000Y-150738748D02*
X74990000Y-151261252D01*
G04 #@! TO.C,R17*
X66710000Y-169713748D02*
X66710000Y-170236252D01*
X65290000Y-169713748D02*
X65290000Y-170236252D01*
G04 #@! TO.C,R18*
X56310000Y-188863748D02*
X56310000Y-189386252D01*
X54890000Y-188863748D02*
X54890000Y-189386252D01*
G04 #@! TO.C,R19*
X81010000Y-112663748D02*
X81010000Y-113186252D01*
X79590000Y-112663748D02*
X79590000Y-113186252D01*
G04 #@! TO.C,R20*
X90510000Y-131663748D02*
X90510000Y-132186252D01*
X89090000Y-131663748D02*
X89090000Y-132186252D01*
G04 #@! TO.C,R21*
X95410000Y-150763748D02*
X95410000Y-151286252D01*
X93990000Y-150763748D02*
X93990000Y-151286252D01*
G04 #@! TO.C,R22*
X85710000Y-169713748D02*
X85710000Y-170236252D01*
X84290000Y-169713748D02*
X84290000Y-170236252D01*
G04 #@! TO.C,R23*
X78910000Y-188838748D02*
X78910000Y-189361252D01*
X77490000Y-188838748D02*
X77490000Y-189361252D01*
G04 #@! TO.C,R24*
X99910000Y-112563748D02*
X99910000Y-113086252D01*
X98490000Y-112563748D02*
X98490000Y-113086252D01*
G04 #@! TO.C,R25*
X109410000Y-131638748D02*
X109410000Y-132161252D01*
X107990000Y-131638748D02*
X107990000Y-132161252D01*
G04 #@! TO.C,R26*
X114410000Y-150663748D02*
X114410000Y-151186252D01*
X112990000Y-150663748D02*
X112990000Y-151186252D01*
G04 #@! TO.C,R27*
X104210000Y-169753748D02*
X104210000Y-170276252D01*
X102790000Y-169753748D02*
X102790000Y-170276252D01*
G04 #@! TO.C,R29*
X119260000Y-112613748D02*
X119260000Y-113136252D01*
X117840000Y-112613748D02*
X117840000Y-113136252D01*
G04 #@! TO.C,R30*
X128635000Y-131663748D02*
X128635000Y-132186252D01*
X127215000Y-131663748D02*
X127215000Y-132186252D01*
G04 #@! TO.C,R31*
X133410000Y-150713748D02*
X133410000Y-151236252D01*
X131990000Y-150713748D02*
X131990000Y-151236252D01*
G04 #@! TO.C,R32*
X123810000Y-169863748D02*
X123810000Y-170386252D01*
X122390000Y-169863748D02*
X122390000Y-170386252D01*
G04 #@! TO.C,R33*
X138110000Y-112663748D02*
X138110000Y-113186252D01*
X136690000Y-112663748D02*
X136690000Y-113186252D01*
G04 #@! TO.C,R34*
X147710000Y-131688748D02*
X147710000Y-132211252D01*
X146290000Y-131688748D02*
X146290000Y-132211252D01*
G04 #@! TO.C,R35*
X152410000Y-150663748D02*
X152410000Y-151186252D01*
X150990000Y-150663748D02*
X150990000Y-151186252D01*
G04 #@! TO.C,R36*
X142810000Y-169713748D02*
X142810000Y-170236252D01*
X141390000Y-169713748D02*
X141390000Y-170236252D01*
G04 #@! TO.C,R37*
X157310000Y-112663748D02*
X157310000Y-113186252D01*
X155890000Y-112663748D02*
X155890000Y-113186252D01*
G04 #@! TO.C,R38*
X166760000Y-131713748D02*
X166760000Y-132236252D01*
X165340000Y-131713748D02*
X165340000Y-132236252D01*
G04 #@! TO.C,R39*
X171285000Y-150738748D02*
X171285000Y-151261252D01*
X169865000Y-150738748D02*
X169865000Y-151261252D01*
G04 #@! TO.C,R40*
X161960000Y-169813748D02*
X161960000Y-170336252D01*
X160540000Y-169813748D02*
X160540000Y-170336252D01*
G04 #@! TO.C,R41*
X167010000Y-188863748D02*
X167010000Y-189386252D01*
X165590000Y-188863748D02*
X165590000Y-189386252D01*
G04 #@! TO.C,R42*
X176310000Y-112613748D02*
X176310000Y-113136252D01*
X174890000Y-112613748D02*
X174890000Y-113136252D01*
G04 #@! TO.C,R43*
X185710000Y-131663748D02*
X185710000Y-132186252D01*
X184290000Y-131663748D02*
X184290000Y-132186252D01*
G04 #@! TO.C,R44*
X190710000Y-150763748D02*
X190710000Y-151286252D01*
X189290000Y-150763748D02*
X189290000Y-151286252D01*
G04 #@! TO.C,R45*
X180985000Y-169838748D02*
X180985000Y-170361252D01*
X179565000Y-169838748D02*
X179565000Y-170361252D01*
G04 #@! TO.C,R46*
X195510000Y-112663748D02*
X195510000Y-113186252D01*
X194090000Y-112663748D02*
X194090000Y-113186252D01*
G04 #@! TO.C,R47*
X204910000Y-131663748D02*
X204910000Y-132186252D01*
X203490000Y-131663748D02*
X203490000Y-132186252D01*
G04 #@! TO.C,R48*
X209810000Y-150763748D02*
X209810000Y-151286252D01*
X208390000Y-150763748D02*
X208390000Y-151286252D01*
G04 #@! TO.C,R49*
X199810000Y-169763748D02*
X199810000Y-170286252D01*
X198390000Y-169763748D02*
X198390000Y-170286252D01*
G04 #@! TO.C,R50*
X214410000Y-112663748D02*
X214410000Y-113186252D01*
X212990000Y-112663748D02*
X212990000Y-113186252D01*
G04 #@! TO.C,R51*
X223810000Y-131663748D02*
X223810000Y-132186252D01*
X222390000Y-131663748D02*
X222390000Y-132186252D01*
G04 #@! TO.C,R52*
X228710000Y-150738748D02*
X228710000Y-151261252D01*
X227290000Y-150738748D02*
X227290000Y-151261252D01*
G04 #@! TO.C,R53*
X219310000Y-169863748D02*
X219310000Y-170386252D01*
X217890000Y-169863748D02*
X217890000Y-170386252D01*
G04 #@! TO.C,R54*
X226310000Y-188763748D02*
X226310000Y-189286252D01*
X224890000Y-188763748D02*
X224890000Y-189286252D01*
G04 #@! TO.C,R55*
X233610000Y-112663748D02*
X233610000Y-113186252D01*
X232190000Y-112663748D02*
X232190000Y-113186252D01*
G04 #@! TO.C,R56*
X242910000Y-131663748D02*
X242910000Y-132186252D01*
X241490000Y-131663748D02*
X241490000Y-132186252D01*
G04 #@! TO.C,R57*
X247685000Y-150738748D02*
X247685000Y-151261252D01*
X246265000Y-150738748D02*
X246265000Y-151261252D01*
G04 #@! TO.C,R58*
X238230000Y-169803748D02*
X238230000Y-170326252D01*
X236810000Y-169803748D02*
X236810000Y-170326252D01*
G04 #@! TO.C,R59*
X247710000Y-188813748D02*
X247710000Y-189336252D01*
X246290000Y-188813748D02*
X246290000Y-189336252D01*
G04 #@! TO.C,R60*
X252460000Y-112588748D02*
X252460000Y-113111252D01*
X251040000Y-112588748D02*
X251040000Y-113111252D01*
G04 #@! TO.C,R61*
X262010000Y-131638748D02*
X262010000Y-132161252D01*
X260590000Y-131638748D02*
X260590000Y-132161252D01*
G04 #@! TO.C,R62*
X266560000Y-150688748D02*
X266560000Y-151211252D01*
X265140000Y-150688748D02*
X265140000Y-151211252D01*
G04 #@! TO.C,R63*
X257200000Y-169663748D02*
X257200000Y-170186252D01*
X255780000Y-169663748D02*
X255780000Y-170186252D01*
G04 #@! TO.C,R64*
X268810000Y-188838748D02*
X268810000Y-189361252D01*
X267390000Y-188838748D02*
X267390000Y-189361252D01*
G04 #@! TO.C,R65*
X271610000Y-112613748D02*
X271610000Y-113136252D01*
X270190000Y-112613748D02*
X270190000Y-113136252D01*
G04 #@! TO.C,R66*
X281210000Y-131663748D02*
X281210000Y-132186252D01*
X279790000Y-131663748D02*
X279790000Y-132186252D01*
G04 #@! TO.C,R67*
X285110000Y-153038748D02*
X285110000Y-153561252D01*
X283690000Y-153038748D02*
X283690000Y-153561252D01*
G04 #@! TO.C,R68*
X283510000Y-169738748D02*
X283510000Y-170261252D01*
X282090000Y-169738748D02*
X282090000Y-170261252D01*
G04 #@! TO.C,R69*
X295310000Y-193563748D02*
X295310000Y-194086252D01*
X293890000Y-193563748D02*
X293890000Y-194086252D01*
G04 #@! TO.C,R70*
X299610000Y-112663748D02*
X299610000Y-113186252D01*
X298190000Y-112663748D02*
X298190000Y-113186252D01*
G04 #@! TO.C,R71*
X311610000Y-131663748D02*
X311610000Y-132186252D01*
X310190000Y-131663748D02*
X310190000Y-132186252D01*
G04 #@! TO.C,R72*
X298010000Y-150763748D02*
X298010000Y-151286252D01*
X296590000Y-150763748D02*
X296590000Y-151286252D01*
G04 #@! TO.C,R73*
X314410000Y-174438748D02*
X314410000Y-174961252D01*
X312990000Y-174438748D02*
X312990000Y-174961252D01*
G04 #@! TO.C,R74*
X314810000Y-193563748D02*
X314810000Y-194086252D01*
X313390000Y-193563748D02*
X313390000Y-194086252D01*
G04 #@! TO.C,R75*
X310810000Y-112638748D02*
X310810000Y-113161252D01*
X309390000Y-112638748D02*
X309390000Y-113161252D01*
G04 #@! TO.C,R76*
X338210000Y-112563748D02*
X338210000Y-113086252D01*
X336790000Y-112563748D02*
X336790000Y-113086252D01*
G04 #@! TO.C,R77*
X338210000Y-131663748D02*
X338210000Y-132186252D01*
X336790000Y-131663748D02*
X336790000Y-132186252D01*
G04 #@! TO.C,R78*
X338110000Y-150763748D02*
X338110000Y-151286252D01*
X336690000Y-150763748D02*
X336690000Y-151286252D01*
G04 #@! TO.C,R79*
X338510000Y-169763748D02*
X338510000Y-170286252D01*
X337090000Y-169763748D02*
X337090000Y-170286252D01*
G04 #@! TO.C,R80*
X333335000Y-193538748D02*
X333335000Y-194061252D01*
X331915000Y-193538748D02*
X331915000Y-194061252D01*
G04 #@! TO.C,R81*
X357410000Y-112563748D02*
X357410000Y-113086252D01*
X355990000Y-112563748D02*
X355990000Y-113086252D01*
G04 #@! TO.C,R82*
X357210000Y-131663748D02*
X357210000Y-132186252D01*
X355790000Y-131663748D02*
X355790000Y-132186252D01*
G04 #@! TO.C,R83*
X357110000Y-150713748D02*
X357110000Y-151236252D01*
X355690000Y-150713748D02*
X355690000Y-151236252D01*
G04 #@! TO.C,R84*
X357310000Y-169763748D02*
X357310000Y-170286252D01*
X355890000Y-169763748D02*
X355890000Y-170286252D01*
G04 #@! TO.C,R85*
X357210000Y-188863748D02*
X357210000Y-189386252D01*
X355790000Y-188863748D02*
X355790000Y-189386252D01*
G04 #@! TO.C,R86*
X376410000Y-112563748D02*
X376410000Y-113086252D01*
X374990000Y-112563748D02*
X374990000Y-113086252D01*
G04 #@! TO.C,R87*
X375310000Y-131688748D02*
X375310000Y-132211252D01*
X373890000Y-131688748D02*
X373890000Y-132211252D01*
G04 #@! TO.C,R88*
X376410000Y-150738748D02*
X376410000Y-151261252D01*
X374990000Y-150738748D02*
X374990000Y-151261252D01*
G04 #@! TO.C,R89*
X375910000Y-169738748D02*
X375910000Y-170261252D01*
X374490000Y-169738748D02*
X374490000Y-170261252D01*
G04 #@! TO.C,R90*
X376260000Y-188763748D02*
X376260000Y-189286252D01*
X374840000Y-188763748D02*
X374840000Y-189286252D01*
G04 #@! TO.C,R91*
X394510000Y-188763748D02*
X394510000Y-189286252D01*
X393090000Y-188763748D02*
X393090000Y-189286252D01*
G04 #@! TO.C,R92*
X394910000Y-112663748D02*
X394910000Y-113186252D01*
X393490000Y-112663748D02*
X393490000Y-113186252D01*
G04 #@! TO.C,R93*
X379210000Y-129463748D02*
X379210000Y-129986252D01*
X377790000Y-129463748D02*
X377790000Y-129986252D01*
G04 #@! TO.C,R94*
X394760000Y-150738748D02*
X394760000Y-151261252D01*
X393340000Y-150738748D02*
X393340000Y-151261252D01*
G04 #@! TO.C,R95*
X378310000Y-169738748D02*
X378310000Y-170261252D01*
X376890000Y-169738748D02*
X376890000Y-170261252D01*
D14*
G04 #@! TO.C,U1*
X190375000Y-175900000D02*
X191650000Y-175900000D01*
X180025000Y-175325000D02*
X180700000Y-175325000D01*
X180025000Y-185675000D02*
X180700000Y-185675000D01*
X190375000Y-185675000D02*
X189700000Y-185675000D01*
X190375000Y-175325000D02*
X189700000Y-175325000D01*
X190375000Y-185675000D02*
X190375000Y-185000000D01*
X180025000Y-185675000D02*
X180025000Y-185000000D01*
X180025000Y-175325000D02*
X180025000Y-176000000D01*
X190375000Y-175325000D02*
X190375000Y-175900000D01*
D13*
G04 #@! TO.C,Y1*
X183000000Y-189650000D02*
X188400000Y-189650000D01*
X183000000Y-194150000D02*
X183000000Y-189650000D01*
G04 #@! TO.C,J2*
D14*
X219871428Y-186577380D02*
X219871428Y-185577380D01*
X219538095Y-186291666D01*
X219204761Y-185577380D01*
X219204761Y-186577380D01*
X218728571Y-186577380D02*
X218728571Y-185577380D01*
X218300000Y-186529761D02*
X218157142Y-186577380D01*
X217919047Y-186577380D01*
X217823809Y-186529761D01*
X217776190Y-186482142D01*
X217728571Y-186386904D01*
X217728571Y-186291666D01*
X217776190Y-186196428D01*
X217823809Y-186148809D01*
X217919047Y-186101190D01*
X218109523Y-186053571D01*
X218204761Y-186005952D01*
X218252380Y-185958333D01*
X218300000Y-185863095D01*
X218300000Y-185767857D01*
X218252380Y-185672619D01*
X218204761Y-185625000D01*
X218109523Y-185577380D01*
X217871428Y-185577380D01*
X217728571Y-185625000D01*
X217109523Y-185577380D02*
X216919047Y-185577380D01*
X216823809Y-185625000D01*
X216728571Y-185720238D01*
X216680952Y-185910714D01*
X216680952Y-186244047D01*
X216728571Y-186434523D01*
X216823809Y-186529761D01*
X216919047Y-186577380D01*
X217109523Y-186577380D01*
X217204761Y-186529761D01*
X217300000Y-186434523D01*
X217347619Y-186244047D01*
X217347619Y-185910714D01*
X217300000Y-185720238D01*
X217204761Y-185625000D01*
X217109523Y-185577380D01*
G04 #@! TO.C,C1*
X194607142Y-175933333D02*
X194654761Y-175885714D01*
X194702380Y-175742857D01*
X194702380Y-175647619D01*
X194654761Y-175504761D01*
X194559523Y-175409523D01*
X194464285Y-175361904D01*
X194273809Y-175314285D01*
X194130952Y-175314285D01*
X193940476Y-175361904D01*
X193845238Y-175409523D01*
X193750000Y-175504761D01*
X193702380Y-175647619D01*
X193702380Y-175742857D01*
X193750000Y-175885714D01*
X193797619Y-175933333D01*
X194702380Y-176885714D02*
X194702380Y-176314285D01*
X194702380Y-176600000D02*
X193702380Y-176600000D01*
X193845238Y-176504761D01*
X193940476Y-176409523D01*
X193988095Y-176314285D01*
G04 #@! TO.C,C2*
X179032142Y-191708333D02*
X179079761Y-191660714D01*
X179127380Y-191517857D01*
X179127380Y-191422619D01*
X179079761Y-191279761D01*
X178984523Y-191184523D01*
X178889285Y-191136904D01*
X178698809Y-191089285D01*
X178555952Y-191089285D01*
X178365476Y-191136904D01*
X178270238Y-191184523D01*
X178175000Y-191279761D01*
X178127380Y-191422619D01*
X178127380Y-191517857D01*
X178175000Y-191660714D01*
X178222619Y-191708333D01*
X178222619Y-192089285D02*
X178175000Y-192136904D01*
X178127380Y-192232142D01*
X178127380Y-192470238D01*
X178175000Y-192565476D01*
X178222619Y-192613095D01*
X178317857Y-192660714D01*
X178413095Y-192660714D01*
X178555952Y-192613095D01*
X179127380Y-192041666D01*
X179127380Y-192660714D01*
G04 #@! TO.C,C3*
X189857142Y-191658333D02*
X189904761Y-191610714D01*
X189952380Y-191467857D01*
X189952380Y-191372619D01*
X189904761Y-191229761D01*
X189809523Y-191134523D01*
X189714285Y-191086904D01*
X189523809Y-191039285D01*
X189380952Y-191039285D01*
X189190476Y-191086904D01*
X189095238Y-191134523D01*
X189000000Y-191229761D01*
X188952380Y-191372619D01*
X188952380Y-191467857D01*
X189000000Y-191610714D01*
X189047619Y-191658333D01*
X188952380Y-191991666D02*
X188952380Y-192610714D01*
X189333333Y-192277380D01*
X189333333Y-192420238D01*
X189380952Y-192515476D01*
X189428571Y-192563095D01*
X189523809Y-192610714D01*
X189761904Y-192610714D01*
X189857142Y-192563095D01*
X189904761Y-192515476D01*
X189952380Y-192420238D01*
X189952380Y-192134523D01*
X189904761Y-192039285D01*
X189857142Y-191991666D01*
G04 #@! TO.C,C4*
X175507142Y-184433333D02*
X175554761Y-184385714D01*
X175602380Y-184242857D01*
X175602380Y-184147619D01*
X175554761Y-184004761D01*
X175459523Y-183909523D01*
X175364285Y-183861904D01*
X175173809Y-183814285D01*
X175030952Y-183814285D01*
X174840476Y-183861904D01*
X174745238Y-183909523D01*
X174650000Y-184004761D01*
X174602380Y-184147619D01*
X174602380Y-184242857D01*
X174650000Y-184385714D01*
X174697619Y-184433333D01*
X174935714Y-185290476D02*
X175602380Y-185290476D01*
X174554761Y-185052380D02*
X175269047Y-184814285D01*
X175269047Y-185433333D01*
G04 #@! TO.C,C5*
X200907142Y-184208333D02*
X200954761Y-184160714D01*
X201002380Y-184017857D01*
X201002380Y-183922619D01*
X200954761Y-183779761D01*
X200859523Y-183684523D01*
X200764285Y-183636904D01*
X200573809Y-183589285D01*
X200430952Y-183589285D01*
X200240476Y-183636904D01*
X200145238Y-183684523D01*
X200050000Y-183779761D01*
X200002380Y-183922619D01*
X200002380Y-184017857D01*
X200050000Y-184160714D01*
X200097619Y-184208333D01*
X200002380Y-185113095D02*
X200002380Y-184636904D01*
X200478571Y-184589285D01*
X200430952Y-184636904D01*
X200383333Y-184732142D01*
X200383333Y-184970238D01*
X200430952Y-185065476D01*
X200478571Y-185113095D01*
X200573809Y-185160714D01*
X200811904Y-185160714D01*
X200907142Y-185113095D01*
X200954761Y-185065476D01*
X201002380Y-184970238D01*
X201002380Y-184732142D01*
X200954761Y-184636904D01*
X200907142Y-184589285D01*
G04 #@! TO.C,C6*
X181207142Y-169958333D02*
X181254761Y-169910714D01*
X181302380Y-169767857D01*
X181302380Y-169672619D01*
X181254761Y-169529761D01*
X181159523Y-169434523D01*
X181064285Y-169386904D01*
X180873809Y-169339285D01*
X180730952Y-169339285D01*
X180540476Y-169386904D01*
X180445238Y-169434523D01*
X180350000Y-169529761D01*
X180302380Y-169672619D01*
X180302380Y-169767857D01*
X180350000Y-169910714D01*
X180397619Y-169958333D01*
X180302380Y-170815476D02*
X180302380Y-170625000D01*
X180350000Y-170529761D01*
X180397619Y-170482142D01*
X180540476Y-170386904D01*
X180730952Y-170339285D01*
X181111904Y-170339285D01*
X181207142Y-170386904D01*
X181254761Y-170434523D01*
X181302380Y-170529761D01*
X181302380Y-170720238D01*
X181254761Y-170815476D01*
X181207142Y-170863095D01*
X181111904Y-170910714D01*
X180873809Y-170910714D01*
X180778571Y-170863095D01*
X180730952Y-170815476D01*
X180683333Y-170720238D01*
X180683333Y-170529761D01*
X180730952Y-170434523D01*
X180778571Y-170386904D01*
X180873809Y-170339285D01*
G04 #@! TO.C,C7*
X197407142Y-191508333D02*
X197454761Y-191460714D01*
X197502380Y-191317857D01*
X197502380Y-191222619D01*
X197454761Y-191079761D01*
X197359523Y-190984523D01*
X197264285Y-190936904D01*
X197073809Y-190889285D01*
X196930952Y-190889285D01*
X196740476Y-190936904D01*
X196645238Y-190984523D01*
X196550000Y-191079761D01*
X196502380Y-191222619D01*
X196502380Y-191317857D01*
X196550000Y-191460714D01*
X196597619Y-191508333D01*
X196502380Y-191841666D02*
X196502380Y-192508333D01*
X197502380Y-192079761D01*
G04 #@! TO.C,F1*
X217478571Y-106466666D02*
X217478571Y-106133333D01*
X218002380Y-106133333D02*
X217002380Y-106133333D01*
X217002380Y-106609523D01*
X218002380Y-107514285D02*
X218002380Y-106942857D01*
X218002380Y-107228571D02*
X217002380Y-107228571D01*
X217145238Y-107133333D01*
X217240476Y-107038095D01*
X217288095Y-106942857D01*
G04 #@! TO.C,J1*
X213513333Y-93827380D02*
X213513333Y-94541666D01*
X213560952Y-94684523D01*
X213656190Y-94779761D01*
X213799047Y-94827380D01*
X213894285Y-94827380D01*
X212513333Y-94827380D02*
X213084761Y-94827380D01*
X212799047Y-94827380D02*
X212799047Y-93827380D01*
X212894285Y-93970238D01*
X212989523Y-94065476D01*
X213084761Y-94113095D01*
G04 #@! TO.C,Q1*
X315247619Y-148104761D02*
X315200000Y-148009523D01*
X315104761Y-147914285D01*
X314961904Y-147771428D01*
X314914285Y-147676190D01*
X314914285Y-147580952D01*
X315152380Y-147628571D02*
X315104761Y-147533333D01*
X315009523Y-147438095D01*
X314819047Y-147390476D01*
X314485714Y-147390476D01*
X314295238Y-147438095D01*
X314200000Y-147533333D01*
X314152380Y-147628571D01*
X314152380Y-147819047D01*
X314200000Y-147914285D01*
X314295238Y-148009523D01*
X314485714Y-148057142D01*
X314819047Y-148057142D01*
X315009523Y-148009523D01*
X315104761Y-147914285D01*
X315152380Y-147819047D01*
X315152380Y-147628571D01*
X315152380Y-149009523D02*
X315152380Y-148438095D01*
X315152380Y-148723809D02*
X314152380Y-148723809D01*
X314295238Y-148628571D01*
X314390476Y-148533333D01*
X314438095Y-148438095D01*
G04 #@! TO.C,R1*
X222582380Y-102858333D02*
X222106190Y-102525000D01*
X222582380Y-102286904D02*
X221582380Y-102286904D01*
X221582380Y-102667857D01*
X221630000Y-102763095D01*
X221677619Y-102810714D01*
X221772857Y-102858333D01*
X221915714Y-102858333D01*
X222010952Y-102810714D01*
X222058571Y-102763095D01*
X222106190Y-102667857D01*
X222106190Y-102286904D01*
X222582380Y-103810714D02*
X222582380Y-103239285D01*
X222582380Y-103525000D02*
X221582380Y-103525000D01*
X221725238Y-103429761D01*
X221820476Y-103334523D01*
X221868095Y-103239285D01*
G04 #@! TO.C,R2*
X220602380Y-102858333D02*
X220126190Y-102525000D01*
X220602380Y-102286904D02*
X219602380Y-102286904D01*
X219602380Y-102667857D01*
X219650000Y-102763095D01*
X219697619Y-102810714D01*
X219792857Y-102858333D01*
X219935714Y-102858333D01*
X220030952Y-102810714D01*
X220078571Y-102763095D01*
X220126190Y-102667857D01*
X220126190Y-102286904D01*
X219697619Y-103239285D02*
X219650000Y-103286904D01*
X219602380Y-103382142D01*
X219602380Y-103620238D01*
X219650000Y-103715476D01*
X219697619Y-103763095D01*
X219792857Y-103810714D01*
X219888095Y-103810714D01*
X220030952Y-103763095D01*
X220602380Y-103191666D01*
X220602380Y-103810714D01*
G04 #@! TO.C,R3*
X138702380Y-183408333D02*
X138226190Y-183075000D01*
X138702380Y-182836904D02*
X137702380Y-182836904D01*
X137702380Y-183217857D01*
X137750000Y-183313095D01*
X137797619Y-183360714D01*
X137892857Y-183408333D01*
X138035714Y-183408333D01*
X138130952Y-183360714D01*
X138178571Y-183313095D01*
X138226190Y-183217857D01*
X138226190Y-182836904D01*
X137702380Y-183741666D02*
X137702380Y-184360714D01*
X138083333Y-184027380D01*
X138083333Y-184170238D01*
X138130952Y-184265476D01*
X138178571Y-184313095D01*
X138273809Y-184360714D01*
X138511904Y-184360714D01*
X138607142Y-184313095D01*
X138654761Y-184265476D01*
X138702380Y-184170238D01*
X138702380Y-183884523D01*
X138654761Y-183789285D01*
X138607142Y-183741666D01*
G04 #@! TO.C,R4*
X173791666Y-178602380D02*
X174125000Y-178126190D01*
X174363095Y-178602380D02*
X174363095Y-177602380D01*
X173982142Y-177602380D01*
X173886904Y-177650000D01*
X173839285Y-177697619D01*
X173791666Y-177792857D01*
X173791666Y-177935714D01*
X173839285Y-178030952D01*
X173886904Y-178078571D01*
X173982142Y-178126190D01*
X174363095Y-178126190D01*
X172934523Y-177935714D02*
X172934523Y-178602380D01*
X173172619Y-177554761D02*
X173410714Y-178269047D01*
X172791666Y-178269047D01*
G04 #@! TO.C,R5*
X315991666Y-139602380D02*
X316325000Y-139126190D01*
X316563095Y-139602380D02*
X316563095Y-138602380D01*
X316182142Y-138602380D01*
X316086904Y-138650000D01*
X316039285Y-138697619D01*
X315991666Y-138792857D01*
X315991666Y-138935714D01*
X316039285Y-139030952D01*
X316086904Y-139078571D01*
X316182142Y-139126190D01*
X316563095Y-139126190D01*
X315086904Y-138602380D02*
X315563095Y-138602380D01*
X315610714Y-139078571D01*
X315563095Y-139030952D01*
X315467857Y-138983333D01*
X315229761Y-138983333D01*
X315134523Y-139030952D01*
X315086904Y-139078571D01*
X315039285Y-139173809D01*
X315039285Y-139411904D01*
X315086904Y-139507142D01*
X315134523Y-139554761D01*
X315229761Y-139602380D01*
X315467857Y-139602380D01*
X315563095Y-139554761D01*
X315610714Y-139507142D01*
G04 #@! TO.C,R6*
X313541666Y-102402380D02*
X313875000Y-101926190D01*
X314113095Y-102402380D02*
X314113095Y-101402380D01*
X313732142Y-101402380D01*
X313636904Y-101450000D01*
X313589285Y-101497619D01*
X313541666Y-101592857D01*
X313541666Y-101735714D01*
X313589285Y-101830952D01*
X313636904Y-101878571D01*
X313732142Y-101926190D01*
X314113095Y-101926190D01*
X312684523Y-101402380D02*
X312875000Y-101402380D01*
X312970238Y-101450000D01*
X313017857Y-101497619D01*
X313113095Y-101640476D01*
X313160714Y-101830952D01*
X313160714Y-102211904D01*
X313113095Y-102307142D01*
X313065476Y-102354761D01*
X312970238Y-102402380D01*
X312779761Y-102402380D01*
X312684523Y-102354761D01*
X312636904Y-102307142D01*
X312589285Y-102211904D01*
X312589285Y-101973809D01*
X312636904Y-101878571D01*
X312684523Y-101830952D01*
X312779761Y-101783333D01*
X312970238Y-101783333D01*
X313065476Y-101830952D01*
X313113095Y-101878571D01*
X313160714Y-101973809D01*
G04 #@! TO.C,R7*
X313491666Y-105612380D02*
X313825000Y-105136190D01*
X314063095Y-105612380D02*
X314063095Y-104612380D01*
X313682142Y-104612380D01*
X313586904Y-104660000D01*
X313539285Y-104707619D01*
X313491666Y-104802857D01*
X313491666Y-104945714D01*
X313539285Y-105040952D01*
X313586904Y-105088571D01*
X313682142Y-105136190D01*
X314063095Y-105136190D01*
X313158333Y-104612380D02*
X312491666Y-104612380D01*
X312920238Y-105612380D01*
G04 #@! TO.C,R8*
X313491666Y-108802380D02*
X313825000Y-108326190D01*
X314063095Y-108802380D02*
X314063095Y-107802380D01*
X313682142Y-107802380D01*
X313586904Y-107850000D01*
X313539285Y-107897619D01*
X313491666Y-107992857D01*
X313491666Y-108135714D01*
X313539285Y-108230952D01*
X313586904Y-108278571D01*
X313682142Y-108326190D01*
X314063095Y-108326190D01*
X312920238Y-108230952D02*
X313015476Y-108183333D01*
X313063095Y-108135714D01*
X313110714Y-108040476D01*
X313110714Y-107992857D01*
X313063095Y-107897619D01*
X313015476Y-107850000D01*
X312920238Y-107802380D01*
X312729761Y-107802380D01*
X312634523Y-107850000D01*
X312586904Y-107897619D01*
X312539285Y-107992857D01*
X312539285Y-108040476D01*
X312586904Y-108135714D01*
X312634523Y-108183333D01*
X312729761Y-108230952D01*
X312920238Y-108230952D01*
X313015476Y-108278571D01*
X313063095Y-108326190D01*
X313110714Y-108421428D01*
X313110714Y-108611904D01*
X313063095Y-108707142D01*
X313015476Y-108754761D01*
X312920238Y-108802380D01*
X312729761Y-108802380D01*
X312634523Y-108754761D01*
X312586904Y-108707142D01*
X312539285Y-108611904D01*
X312539285Y-108421428D01*
X312586904Y-108326190D01*
X312634523Y-108278571D01*
X312729761Y-108230952D01*
G04 #@! TO.C,R9*
X41002380Y-112658333D02*
X40526190Y-112325000D01*
X41002380Y-112086904D02*
X40002380Y-112086904D01*
X40002380Y-112467857D01*
X40050000Y-112563095D01*
X40097619Y-112610714D01*
X40192857Y-112658333D01*
X40335714Y-112658333D01*
X40430952Y-112610714D01*
X40478571Y-112563095D01*
X40526190Y-112467857D01*
X40526190Y-112086904D01*
X41002380Y-113134523D02*
X41002380Y-113325000D01*
X40954761Y-113420238D01*
X40907142Y-113467857D01*
X40764285Y-113563095D01*
X40573809Y-113610714D01*
X40192857Y-113610714D01*
X40097619Y-113563095D01*
X40050000Y-113515476D01*
X40002380Y-113420238D01*
X40002380Y-113229761D01*
X40050000Y-113134523D01*
X40097619Y-113086904D01*
X40192857Y-113039285D01*
X40430952Y-113039285D01*
X40526190Y-113086904D01*
X40573809Y-113134523D01*
X40621428Y-113229761D01*
X40621428Y-113420238D01*
X40573809Y-113515476D01*
X40526190Y-113563095D01*
X40430952Y-113610714D01*
G04 #@! TO.C,R10*
X45702380Y-131232142D02*
X45226190Y-130898809D01*
X45702380Y-130660714D02*
X44702380Y-130660714D01*
X44702380Y-131041666D01*
X44750000Y-131136904D01*
X44797619Y-131184523D01*
X44892857Y-131232142D01*
X45035714Y-131232142D01*
X45130952Y-131184523D01*
X45178571Y-131136904D01*
X45226190Y-131041666D01*
X45226190Y-130660714D01*
X45702380Y-132184523D02*
X45702380Y-131613095D01*
X45702380Y-131898809D02*
X44702380Y-131898809D01*
X44845238Y-131803571D01*
X44940476Y-131708333D01*
X44988095Y-131613095D01*
X44702380Y-132803571D02*
X44702380Y-132898809D01*
X44750000Y-132994047D01*
X44797619Y-133041666D01*
X44892857Y-133089285D01*
X45083333Y-133136904D01*
X45321428Y-133136904D01*
X45511904Y-133089285D01*
X45607142Y-133041666D01*
X45654761Y-132994047D01*
X45702380Y-132898809D01*
X45702380Y-132803571D01*
X45654761Y-132708333D01*
X45607142Y-132660714D01*
X45511904Y-132613095D01*
X45321428Y-132565476D01*
X45083333Y-132565476D01*
X44892857Y-132613095D01*
X44797619Y-132660714D01*
X44750000Y-132708333D01*
X44702380Y-132803571D01*
G04 #@! TO.C,R11*
X48202380Y-150282142D02*
X47726190Y-149948809D01*
X48202380Y-149710714D02*
X47202380Y-149710714D01*
X47202380Y-150091666D01*
X47250000Y-150186904D01*
X47297619Y-150234523D01*
X47392857Y-150282142D01*
X47535714Y-150282142D01*
X47630952Y-150234523D01*
X47678571Y-150186904D01*
X47726190Y-150091666D01*
X47726190Y-149710714D01*
X48202380Y-151234523D02*
X48202380Y-150663095D01*
X48202380Y-150948809D02*
X47202380Y-150948809D01*
X47345238Y-150853571D01*
X47440476Y-150758333D01*
X47488095Y-150663095D01*
X48202380Y-152186904D02*
X48202380Y-151615476D01*
X48202380Y-151901190D02*
X47202380Y-151901190D01*
X47345238Y-151805952D01*
X47440476Y-151710714D01*
X47488095Y-151615476D01*
G04 #@! TO.C,R12*
X52802380Y-169382142D02*
X52326190Y-169048809D01*
X52802380Y-168810714D02*
X51802380Y-168810714D01*
X51802380Y-169191666D01*
X51850000Y-169286904D01*
X51897619Y-169334523D01*
X51992857Y-169382142D01*
X52135714Y-169382142D01*
X52230952Y-169334523D01*
X52278571Y-169286904D01*
X52326190Y-169191666D01*
X52326190Y-168810714D01*
X52802380Y-170334523D02*
X52802380Y-169763095D01*
X52802380Y-170048809D02*
X51802380Y-170048809D01*
X51945238Y-169953571D01*
X52040476Y-169858333D01*
X52088095Y-169763095D01*
X51897619Y-170715476D02*
X51850000Y-170763095D01*
X51802380Y-170858333D01*
X51802380Y-171096428D01*
X51850000Y-171191666D01*
X51897619Y-171239285D01*
X51992857Y-171286904D01*
X52088095Y-171286904D01*
X52230952Y-171239285D01*
X52802380Y-170667857D01*
X52802380Y-171286904D01*
G04 #@! TO.C,R13*
X45602380Y-188482142D02*
X45126190Y-188148809D01*
X45602380Y-187910714D02*
X44602380Y-187910714D01*
X44602380Y-188291666D01*
X44650000Y-188386904D01*
X44697619Y-188434523D01*
X44792857Y-188482142D01*
X44935714Y-188482142D01*
X45030952Y-188434523D01*
X45078571Y-188386904D01*
X45126190Y-188291666D01*
X45126190Y-187910714D01*
X45602380Y-189434523D02*
X45602380Y-188863095D01*
X45602380Y-189148809D02*
X44602380Y-189148809D01*
X44745238Y-189053571D01*
X44840476Y-188958333D01*
X44888095Y-188863095D01*
X44602380Y-189767857D02*
X44602380Y-190386904D01*
X44983333Y-190053571D01*
X44983333Y-190196428D01*
X45030952Y-190291666D01*
X45078571Y-190339285D01*
X45173809Y-190386904D01*
X45411904Y-190386904D01*
X45507142Y-190339285D01*
X45554761Y-190291666D01*
X45602380Y-190196428D01*
X45602380Y-189910714D01*
X45554761Y-189815476D01*
X45507142Y-189767857D01*
G04 #@! TO.C,R14*
X59902380Y-112257142D02*
X59426190Y-111923809D01*
X59902380Y-111685714D02*
X58902380Y-111685714D01*
X58902380Y-112066666D01*
X58950000Y-112161904D01*
X58997619Y-112209523D01*
X59092857Y-112257142D01*
X59235714Y-112257142D01*
X59330952Y-112209523D01*
X59378571Y-112161904D01*
X59426190Y-112066666D01*
X59426190Y-111685714D01*
X59902380Y-113209523D02*
X59902380Y-112638095D01*
X59902380Y-112923809D02*
X58902380Y-112923809D01*
X59045238Y-112828571D01*
X59140476Y-112733333D01*
X59188095Y-112638095D01*
X59235714Y-114066666D02*
X59902380Y-114066666D01*
X58854761Y-113828571D02*
X59569047Y-113590476D01*
X59569047Y-114209523D01*
G04 #@! TO.C,R15*
X69652380Y-131282142D02*
X69176190Y-130948809D01*
X69652380Y-130710714D02*
X68652380Y-130710714D01*
X68652380Y-131091666D01*
X68700000Y-131186904D01*
X68747619Y-131234523D01*
X68842857Y-131282142D01*
X68985714Y-131282142D01*
X69080952Y-131234523D01*
X69128571Y-131186904D01*
X69176190Y-131091666D01*
X69176190Y-130710714D01*
X69652380Y-132234523D02*
X69652380Y-131663095D01*
X69652380Y-131948809D02*
X68652380Y-131948809D01*
X68795238Y-131853571D01*
X68890476Y-131758333D01*
X68938095Y-131663095D01*
X68652380Y-133139285D02*
X68652380Y-132663095D01*
X69128571Y-132615476D01*
X69080952Y-132663095D01*
X69033333Y-132758333D01*
X69033333Y-132996428D01*
X69080952Y-133091666D01*
X69128571Y-133139285D01*
X69223809Y-133186904D01*
X69461904Y-133186904D01*
X69557142Y-133139285D01*
X69604761Y-133091666D01*
X69652380Y-132996428D01*
X69652380Y-132758333D01*
X69604761Y-132663095D01*
X69557142Y-132615476D01*
G04 #@! TO.C,R16*
X74502380Y-150357142D02*
X74026190Y-150023809D01*
X74502380Y-149785714D02*
X73502380Y-149785714D01*
X73502380Y-150166666D01*
X73550000Y-150261904D01*
X73597619Y-150309523D01*
X73692857Y-150357142D01*
X73835714Y-150357142D01*
X73930952Y-150309523D01*
X73978571Y-150261904D01*
X74026190Y-150166666D01*
X74026190Y-149785714D01*
X74502380Y-151309523D02*
X74502380Y-150738095D01*
X74502380Y-151023809D02*
X73502380Y-151023809D01*
X73645238Y-150928571D01*
X73740476Y-150833333D01*
X73788095Y-150738095D01*
X73502380Y-152166666D02*
X73502380Y-151976190D01*
X73550000Y-151880952D01*
X73597619Y-151833333D01*
X73740476Y-151738095D01*
X73930952Y-151690476D01*
X74311904Y-151690476D01*
X74407142Y-151738095D01*
X74454761Y-151785714D01*
X74502380Y-151880952D01*
X74502380Y-152071428D01*
X74454761Y-152166666D01*
X74407142Y-152214285D01*
X74311904Y-152261904D01*
X74073809Y-152261904D01*
X73978571Y-152214285D01*
X73930952Y-152166666D01*
X73883333Y-152071428D01*
X73883333Y-151880952D01*
X73930952Y-151785714D01*
X73978571Y-151738095D01*
X74073809Y-151690476D01*
G04 #@! TO.C,R17*
X64802380Y-169332142D02*
X64326190Y-168998809D01*
X64802380Y-168760714D02*
X63802380Y-168760714D01*
X63802380Y-169141666D01*
X63850000Y-169236904D01*
X63897619Y-169284523D01*
X63992857Y-169332142D01*
X64135714Y-169332142D01*
X64230952Y-169284523D01*
X64278571Y-169236904D01*
X64326190Y-169141666D01*
X64326190Y-168760714D01*
X64802380Y-170284523D02*
X64802380Y-169713095D01*
X64802380Y-169998809D02*
X63802380Y-169998809D01*
X63945238Y-169903571D01*
X64040476Y-169808333D01*
X64088095Y-169713095D01*
X63802380Y-170617857D02*
X63802380Y-171284523D01*
X64802380Y-170855952D01*
G04 #@! TO.C,R18*
X54402380Y-188482142D02*
X53926190Y-188148809D01*
X54402380Y-187910714D02*
X53402380Y-187910714D01*
X53402380Y-188291666D01*
X53450000Y-188386904D01*
X53497619Y-188434523D01*
X53592857Y-188482142D01*
X53735714Y-188482142D01*
X53830952Y-188434523D01*
X53878571Y-188386904D01*
X53926190Y-188291666D01*
X53926190Y-187910714D01*
X54402380Y-189434523D02*
X54402380Y-188863095D01*
X54402380Y-189148809D02*
X53402380Y-189148809D01*
X53545238Y-189053571D01*
X53640476Y-188958333D01*
X53688095Y-188863095D01*
X53830952Y-190005952D02*
X53783333Y-189910714D01*
X53735714Y-189863095D01*
X53640476Y-189815476D01*
X53592857Y-189815476D01*
X53497619Y-189863095D01*
X53450000Y-189910714D01*
X53402380Y-190005952D01*
X53402380Y-190196428D01*
X53450000Y-190291666D01*
X53497619Y-190339285D01*
X53592857Y-190386904D01*
X53640476Y-190386904D01*
X53735714Y-190339285D01*
X53783333Y-190291666D01*
X53830952Y-190196428D01*
X53830952Y-190005952D01*
X53878571Y-189910714D01*
X53926190Y-189863095D01*
X54021428Y-189815476D01*
X54211904Y-189815476D01*
X54307142Y-189863095D01*
X54354761Y-189910714D01*
X54402380Y-190005952D01*
X54402380Y-190196428D01*
X54354761Y-190291666D01*
X54307142Y-190339285D01*
X54211904Y-190386904D01*
X54021428Y-190386904D01*
X53926190Y-190339285D01*
X53878571Y-190291666D01*
X53830952Y-190196428D01*
G04 #@! TO.C,R19*
X79102380Y-112282142D02*
X78626190Y-111948809D01*
X79102380Y-111710714D02*
X78102380Y-111710714D01*
X78102380Y-112091666D01*
X78150000Y-112186904D01*
X78197619Y-112234523D01*
X78292857Y-112282142D01*
X78435714Y-112282142D01*
X78530952Y-112234523D01*
X78578571Y-112186904D01*
X78626190Y-112091666D01*
X78626190Y-111710714D01*
X79102380Y-113234523D02*
X79102380Y-112663095D01*
X79102380Y-112948809D02*
X78102380Y-112948809D01*
X78245238Y-112853571D01*
X78340476Y-112758333D01*
X78388095Y-112663095D01*
X79102380Y-113710714D02*
X79102380Y-113901190D01*
X79054761Y-113996428D01*
X79007142Y-114044047D01*
X78864285Y-114139285D01*
X78673809Y-114186904D01*
X78292857Y-114186904D01*
X78197619Y-114139285D01*
X78150000Y-114091666D01*
X78102380Y-113996428D01*
X78102380Y-113805952D01*
X78150000Y-113710714D01*
X78197619Y-113663095D01*
X78292857Y-113615476D01*
X78530952Y-113615476D01*
X78626190Y-113663095D01*
X78673809Y-113710714D01*
X78721428Y-113805952D01*
X78721428Y-113996428D01*
X78673809Y-114091666D01*
X78626190Y-114139285D01*
X78530952Y-114186904D01*
G04 #@! TO.C,R20*
X88602380Y-131282142D02*
X88126190Y-130948809D01*
X88602380Y-130710714D02*
X87602380Y-130710714D01*
X87602380Y-131091666D01*
X87650000Y-131186904D01*
X87697619Y-131234523D01*
X87792857Y-131282142D01*
X87935714Y-131282142D01*
X88030952Y-131234523D01*
X88078571Y-131186904D01*
X88126190Y-131091666D01*
X88126190Y-130710714D01*
X87697619Y-131663095D02*
X87650000Y-131710714D01*
X87602380Y-131805952D01*
X87602380Y-132044047D01*
X87650000Y-132139285D01*
X87697619Y-132186904D01*
X87792857Y-132234523D01*
X87888095Y-132234523D01*
X88030952Y-132186904D01*
X88602380Y-131615476D01*
X88602380Y-132234523D01*
X87602380Y-132853571D02*
X87602380Y-132948809D01*
X87650000Y-133044047D01*
X87697619Y-133091666D01*
X87792857Y-133139285D01*
X87983333Y-133186904D01*
X88221428Y-133186904D01*
X88411904Y-133139285D01*
X88507142Y-133091666D01*
X88554761Y-133044047D01*
X88602380Y-132948809D01*
X88602380Y-132853571D01*
X88554761Y-132758333D01*
X88507142Y-132710714D01*
X88411904Y-132663095D01*
X88221428Y-132615476D01*
X87983333Y-132615476D01*
X87792857Y-132663095D01*
X87697619Y-132710714D01*
X87650000Y-132758333D01*
X87602380Y-132853571D01*
G04 #@! TO.C,R21*
X93502380Y-150382142D02*
X93026190Y-150048809D01*
X93502380Y-149810714D02*
X92502380Y-149810714D01*
X92502380Y-150191666D01*
X92550000Y-150286904D01*
X92597619Y-150334523D01*
X92692857Y-150382142D01*
X92835714Y-150382142D01*
X92930952Y-150334523D01*
X92978571Y-150286904D01*
X93026190Y-150191666D01*
X93026190Y-149810714D01*
X92597619Y-150763095D02*
X92550000Y-150810714D01*
X92502380Y-150905952D01*
X92502380Y-151144047D01*
X92550000Y-151239285D01*
X92597619Y-151286904D01*
X92692857Y-151334523D01*
X92788095Y-151334523D01*
X92930952Y-151286904D01*
X93502380Y-150715476D01*
X93502380Y-151334523D01*
X93502380Y-152286904D02*
X93502380Y-151715476D01*
X93502380Y-152001190D02*
X92502380Y-152001190D01*
X92645238Y-151905952D01*
X92740476Y-151810714D01*
X92788095Y-151715476D01*
G04 #@! TO.C,R22*
X83802380Y-169332142D02*
X83326190Y-168998809D01*
X83802380Y-168760714D02*
X82802380Y-168760714D01*
X82802380Y-169141666D01*
X82850000Y-169236904D01*
X82897619Y-169284523D01*
X82992857Y-169332142D01*
X83135714Y-169332142D01*
X83230952Y-169284523D01*
X83278571Y-169236904D01*
X83326190Y-169141666D01*
X83326190Y-168760714D01*
X82897619Y-169713095D02*
X82850000Y-169760714D01*
X82802380Y-169855952D01*
X82802380Y-170094047D01*
X82850000Y-170189285D01*
X82897619Y-170236904D01*
X82992857Y-170284523D01*
X83088095Y-170284523D01*
X83230952Y-170236904D01*
X83802380Y-169665476D01*
X83802380Y-170284523D01*
X82897619Y-170665476D02*
X82850000Y-170713095D01*
X82802380Y-170808333D01*
X82802380Y-171046428D01*
X82850000Y-171141666D01*
X82897619Y-171189285D01*
X82992857Y-171236904D01*
X83088095Y-171236904D01*
X83230952Y-171189285D01*
X83802380Y-170617857D01*
X83802380Y-171236904D01*
G04 #@! TO.C,R23*
X77002380Y-188457142D02*
X76526190Y-188123809D01*
X77002380Y-187885714D02*
X76002380Y-187885714D01*
X76002380Y-188266666D01*
X76050000Y-188361904D01*
X76097619Y-188409523D01*
X76192857Y-188457142D01*
X76335714Y-188457142D01*
X76430952Y-188409523D01*
X76478571Y-188361904D01*
X76526190Y-188266666D01*
X76526190Y-187885714D01*
X76097619Y-188838095D02*
X76050000Y-188885714D01*
X76002380Y-188980952D01*
X76002380Y-189219047D01*
X76050000Y-189314285D01*
X76097619Y-189361904D01*
X76192857Y-189409523D01*
X76288095Y-189409523D01*
X76430952Y-189361904D01*
X77002380Y-188790476D01*
X77002380Y-189409523D01*
X76002380Y-189742857D02*
X76002380Y-190361904D01*
X76383333Y-190028571D01*
X76383333Y-190171428D01*
X76430952Y-190266666D01*
X76478571Y-190314285D01*
X76573809Y-190361904D01*
X76811904Y-190361904D01*
X76907142Y-190314285D01*
X76954761Y-190266666D01*
X77002380Y-190171428D01*
X77002380Y-189885714D01*
X76954761Y-189790476D01*
X76907142Y-189742857D01*
G04 #@! TO.C,R24*
X98002380Y-112182142D02*
X97526190Y-111848809D01*
X98002380Y-111610714D02*
X97002380Y-111610714D01*
X97002380Y-111991666D01*
X97050000Y-112086904D01*
X97097619Y-112134523D01*
X97192857Y-112182142D01*
X97335714Y-112182142D01*
X97430952Y-112134523D01*
X97478571Y-112086904D01*
X97526190Y-111991666D01*
X97526190Y-111610714D01*
X97097619Y-112563095D02*
X97050000Y-112610714D01*
X97002380Y-112705952D01*
X97002380Y-112944047D01*
X97050000Y-113039285D01*
X97097619Y-113086904D01*
X97192857Y-113134523D01*
X97288095Y-113134523D01*
X97430952Y-113086904D01*
X98002380Y-112515476D01*
X98002380Y-113134523D01*
X97335714Y-113991666D02*
X98002380Y-113991666D01*
X96954761Y-113753571D02*
X97669047Y-113515476D01*
X97669047Y-114134523D01*
G04 #@! TO.C,R25*
X107502380Y-131257142D02*
X107026190Y-130923809D01*
X107502380Y-130685714D02*
X106502380Y-130685714D01*
X106502380Y-131066666D01*
X106550000Y-131161904D01*
X106597619Y-131209523D01*
X106692857Y-131257142D01*
X106835714Y-131257142D01*
X106930952Y-131209523D01*
X106978571Y-131161904D01*
X107026190Y-131066666D01*
X107026190Y-130685714D01*
X106597619Y-131638095D02*
X106550000Y-131685714D01*
X106502380Y-131780952D01*
X106502380Y-132019047D01*
X106550000Y-132114285D01*
X106597619Y-132161904D01*
X106692857Y-132209523D01*
X106788095Y-132209523D01*
X106930952Y-132161904D01*
X107502380Y-131590476D01*
X107502380Y-132209523D01*
X106502380Y-133114285D02*
X106502380Y-132638095D01*
X106978571Y-132590476D01*
X106930952Y-132638095D01*
X106883333Y-132733333D01*
X106883333Y-132971428D01*
X106930952Y-133066666D01*
X106978571Y-133114285D01*
X107073809Y-133161904D01*
X107311904Y-133161904D01*
X107407142Y-133114285D01*
X107454761Y-133066666D01*
X107502380Y-132971428D01*
X107502380Y-132733333D01*
X107454761Y-132638095D01*
X107407142Y-132590476D01*
G04 #@! TO.C,R26*
X112502380Y-150282142D02*
X112026190Y-149948809D01*
X112502380Y-149710714D02*
X111502380Y-149710714D01*
X111502380Y-150091666D01*
X111550000Y-150186904D01*
X111597619Y-150234523D01*
X111692857Y-150282142D01*
X111835714Y-150282142D01*
X111930952Y-150234523D01*
X111978571Y-150186904D01*
X112026190Y-150091666D01*
X112026190Y-149710714D01*
X111597619Y-150663095D02*
X111550000Y-150710714D01*
X111502380Y-150805952D01*
X111502380Y-151044047D01*
X111550000Y-151139285D01*
X111597619Y-151186904D01*
X111692857Y-151234523D01*
X111788095Y-151234523D01*
X111930952Y-151186904D01*
X112502380Y-150615476D01*
X112502380Y-151234523D01*
X111502380Y-152091666D02*
X111502380Y-151901190D01*
X111550000Y-151805952D01*
X111597619Y-151758333D01*
X111740476Y-151663095D01*
X111930952Y-151615476D01*
X112311904Y-151615476D01*
X112407142Y-151663095D01*
X112454761Y-151710714D01*
X112502380Y-151805952D01*
X112502380Y-151996428D01*
X112454761Y-152091666D01*
X112407142Y-152139285D01*
X112311904Y-152186904D01*
X112073809Y-152186904D01*
X111978571Y-152139285D01*
X111930952Y-152091666D01*
X111883333Y-151996428D01*
X111883333Y-151805952D01*
X111930952Y-151710714D01*
X111978571Y-151663095D01*
X112073809Y-151615476D01*
G04 #@! TO.C,R27*
X102302380Y-169372142D02*
X101826190Y-169038809D01*
X102302380Y-168800714D02*
X101302380Y-168800714D01*
X101302380Y-169181666D01*
X101350000Y-169276904D01*
X101397619Y-169324523D01*
X101492857Y-169372142D01*
X101635714Y-169372142D01*
X101730952Y-169324523D01*
X101778571Y-169276904D01*
X101826190Y-169181666D01*
X101826190Y-168800714D01*
X101397619Y-169753095D02*
X101350000Y-169800714D01*
X101302380Y-169895952D01*
X101302380Y-170134047D01*
X101350000Y-170229285D01*
X101397619Y-170276904D01*
X101492857Y-170324523D01*
X101588095Y-170324523D01*
X101730952Y-170276904D01*
X102302380Y-169705476D01*
X102302380Y-170324523D01*
X101302380Y-170657857D02*
X101302380Y-171324523D01*
X102302380Y-170895952D01*
G04 #@! TO.C,R29*
X117352380Y-112232142D02*
X116876190Y-111898809D01*
X117352380Y-111660714D02*
X116352380Y-111660714D01*
X116352380Y-112041666D01*
X116400000Y-112136904D01*
X116447619Y-112184523D01*
X116542857Y-112232142D01*
X116685714Y-112232142D01*
X116780952Y-112184523D01*
X116828571Y-112136904D01*
X116876190Y-112041666D01*
X116876190Y-111660714D01*
X116447619Y-112613095D02*
X116400000Y-112660714D01*
X116352380Y-112755952D01*
X116352380Y-112994047D01*
X116400000Y-113089285D01*
X116447619Y-113136904D01*
X116542857Y-113184523D01*
X116638095Y-113184523D01*
X116780952Y-113136904D01*
X117352380Y-112565476D01*
X117352380Y-113184523D01*
X117352380Y-113660714D02*
X117352380Y-113851190D01*
X117304761Y-113946428D01*
X117257142Y-113994047D01*
X117114285Y-114089285D01*
X116923809Y-114136904D01*
X116542857Y-114136904D01*
X116447619Y-114089285D01*
X116400000Y-114041666D01*
X116352380Y-113946428D01*
X116352380Y-113755952D01*
X116400000Y-113660714D01*
X116447619Y-113613095D01*
X116542857Y-113565476D01*
X116780952Y-113565476D01*
X116876190Y-113613095D01*
X116923809Y-113660714D01*
X116971428Y-113755952D01*
X116971428Y-113946428D01*
X116923809Y-114041666D01*
X116876190Y-114089285D01*
X116780952Y-114136904D01*
G04 #@! TO.C,R30*
X126727380Y-131282142D02*
X126251190Y-130948809D01*
X126727380Y-130710714D02*
X125727380Y-130710714D01*
X125727380Y-131091666D01*
X125775000Y-131186904D01*
X125822619Y-131234523D01*
X125917857Y-131282142D01*
X126060714Y-131282142D01*
X126155952Y-131234523D01*
X126203571Y-131186904D01*
X126251190Y-131091666D01*
X126251190Y-130710714D01*
X125727380Y-131615476D02*
X125727380Y-132234523D01*
X126108333Y-131901190D01*
X126108333Y-132044047D01*
X126155952Y-132139285D01*
X126203571Y-132186904D01*
X126298809Y-132234523D01*
X126536904Y-132234523D01*
X126632142Y-132186904D01*
X126679761Y-132139285D01*
X126727380Y-132044047D01*
X126727380Y-131758333D01*
X126679761Y-131663095D01*
X126632142Y-131615476D01*
X125727380Y-132853571D02*
X125727380Y-132948809D01*
X125775000Y-133044047D01*
X125822619Y-133091666D01*
X125917857Y-133139285D01*
X126108333Y-133186904D01*
X126346428Y-133186904D01*
X126536904Y-133139285D01*
X126632142Y-133091666D01*
X126679761Y-133044047D01*
X126727380Y-132948809D01*
X126727380Y-132853571D01*
X126679761Y-132758333D01*
X126632142Y-132710714D01*
X126536904Y-132663095D01*
X126346428Y-132615476D01*
X126108333Y-132615476D01*
X125917857Y-132663095D01*
X125822619Y-132710714D01*
X125775000Y-132758333D01*
X125727380Y-132853571D01*
G04 #@! TO.C,R31*
X131502380Y-150332142D02*
X131026190Y-149998809D01*
X131502380Y-149760714D02*
X130502380Y-149760714D01*
X130502380Y-150141666D01*
X130550000Y-150236904D01*
X130597619Y-150284523D01*
X130692857Y-150332142D01*
X130835714Y-150332142D01*
X130930952Y-150284523D01*
X130978571Y-150236904D01*
X131026190Y-150141666D01*
X131026190Y-149760714D01*
X130502380Y-150665476D02*
X130502380Y-151284523D01*
X130883333Y-150951190D01*
X130883333Y-151094047D01*
X130930952Y-151189285D01*
X130978571Y-151236904D01*
X131073809Y-151284523D01*
X131311904Y-151284523D01*
X131407142Y-151236904D01*
X131454761Y-151189285D01*
X131502380Y-151094047D01*
X131502380Y-150808333D01*
X131454761Y-150713095D01*
X131407142Y-150665476D01*
X131502380Y-152236904D02*
X131502380Y-151665476D01*
X131502380Y-151951190D02*
X130502380Y-151951190D01*
X130645238Y-151855952D01*
X130740476Y-151760714D01*
X130788095Y-151665476D01*
G04 #@! TO.C,R32*
X121902380Y-169482142D02*
X121426190Y-169148809D01*
X121902380Y-168910714D02*
X120902380Y-168910714D01*
X120902380Y-169291666D01*
X120950000Y-169386904D01*
X120997619Y-169434523D01*
X121092857Y-169482142D01*
X121235714Y-169482142D01*
X121330952Y-169434523D01*
X121378571Y-169386904D01*
X121426190Y-169291666D01*
X121426190Y-168910714D01*
X120902380Y-169815476D02*
X120902380Y-170434523D01*
X121283333Y-170101190D01*
X121283333Y-170244047D01*
X121330952Y-170339285D01*
X121378571Y-170386904D01*
X121473809Y-170434523D01*
X121711904Y-170434523D01*
X121807142Y-170386904D01*
X121854761Y-170339285D01*
X121902380Y-170244047D01*
X121902380Y-169958333D01*
X121854761Y-169863095D01*
X121807142Y-169815476D01*
X120997619Y-170815476D02*
X120950000Y-170863095D01*
X120902380Y-170958333D01*
X120902380Y-171196428D01*
X120950000Y-171291666D01*
X120997619Y-171339285D01*
X121092857Y-171386904D01*
X121188095Y-171386904D01*
X121330952Y-171339285D01*
X121902380Y-170767857D01*
X121902380Y-171386904D01*
G04 #@! TO.C,R33*
X136202380Y-112282142D02*
X135726190Y-111948809D01*
X136202380Y-111710714D02*
X135202380Y-111710714D01*
X135202380Y-112091666D01*
X135250000Y-112186904D01*
X135297619Y-112234523D01*
X135392857Y-112282142D01*
X135535714Y-112282142D01*
X135630952Y-112234523D01*
X135678571Y-112186904D01*
X135726190Y-112091666D01*
X135726190Y-111710714D01*
X135202380Y-112615476D02*
X135202380Y-113234523D01*
X135583333Y-112901190D01*
X135583333Y-113044047D01*
X135630952Y-113139285D01*
X135678571Y-113186904D01*
X135773809Y-113234523D01*
X136011904Y-113234523D01*
X136107142Y-113186904D01*
X136154761Y-113139285D01*
X136202380Y-113044047D01*
X136202380Y-112758333D01*
X136154761Y-112663095D01*
X136107142Y-112615476D01*
X135202380Y-113567857D02*
X135202380Y-114186904D01*
X135583333Y-113853571D01*
X135583333Y-113996428D01*
X135630952Y-114091666D01*
X135678571Y-114139285D01*
X135773809Y-114186904D01*
X136011904Y-114186904D01*
X136107142Y-114139285D01*
X136154761Y-114091666D01*
X136202380Y-113996428D01*
X136202380Y-113710714D01*
X136154761Y-113615476D01*
X136107142Y-113567857D01*
G04 #@! TO.C,R34*
X145802380Y-131307142D02*
X145326190Y-130973809D01*
X145802380Y-130735714D02*
X144802380Y-130735714D01*
X144802380Y-131116666D01*
X144850000Y-131211904D01*
X144897619Y-131259523D01*
X144992857Y-131307142D01*
X145135714Y-131307142D01*
X145230952Y-131259523D01*
X145278571Y-131211904D01*
X145326190Y-131116666D01*
X145326190Y-130735714D01*
X144802380Y-131640476D02*
X144802380Y-132259523D01*
X145183333Y-131926190D01*
X145183333Y-132069047D01*
X145230952Y-132164285D01*
X145278571Y-132211904D01*
X145373809Y-132259523D01*
X145611904Y-132259523D01*
X145707142Y-132211904D01*
X145754761Y-132164285D01*
X145802380Y-132069047D01*
X145802380Y-131783333D01*
X145754761Y-131688095D01*
X145707142Y-131640476D01*
X145135714Y-133116666D02*
X145802380Y-133116666D01*
X144754761Y-132878571D02*
X145469047Y-132640476D01*
X145469047Y-133259523D01*
G04 #@! TO.C,R35*
X150502380Y-150282142D02*
X150026190Y-149948809D01*
X150502380Y-149710714D02*
X149502380Y-149710714D01*
X149502380Y-150091666D01*
X149550000Y-150186904D01*
X149597619Y-150234523D01*
X149692857Y-150282142D01*
X149835714Y-150282142D01*
X149930952Y-150234523D01*
X149978571Y-150186904D01*
X150026190Y-150091666D01*
X150026190Y-149710714D01*
X149502380Y-150615476D02*
X149502380Y-151234523D01*
X149883333Y-150901190D01*
X149883333Y-151044047D01*
X149930952Y-151139285D01*
X149978571Y-151186904D01*
X150073809Y-151234523D01*
X150311904Y-151234523D01*
X150407142Y-151186904D01*
X150454761Y-151139285D01*
X150502380Y-151044047D01*
X150502380Y-150758333D01*
X150454761Y-150663095D01*
X150407142Y-150615476D01*
X149502380Y-152139285D02*
X149502380Y-151663095D01*
X149978571Y-151615476D01*
X149930952Y-151663095D01*
X149883333Y-151758333D01*
X149883333Y-151996428D01*
X149930952Y-152091666D01*
X149978571Y-152139285D01*
X150073809Y-152186904D01*
X150311904Y-152186904D01*
X150407142Y-152139285D01*
X150454761Y-152091666D01*
X150502380Y-151996428D01*
X150502380Y-151758333D01*
X150454761Y-151663095D01*
X150407142Y-151615476D01*
G04 #@! TO.C,R36*
X140902380Y-169332142D02*
X140426190Y-168998809D01*
X140902380Y-168760714D02*
X139902380Y-168760714D01*
X139902380Y-169141666D01*
X139950000Y-169236904D01*
X139997619Y-169284523D01*
X140092857Y-169332142D01*
X140235714Y-169332142D01*
X140330952Y-169284523D01*
X140378571Y-169236904D01*
X140426190Y-169141666D01*
X140426190Y-168760714D01*
X139902380Y-169665476D02*
X139902380Y-170284523D01*
X140283333Y-169951190D01*
X140283333Y-170094047D01*
X140330952Y-170189285D01*
X140378571Y-170236904D01*
X140473809Y-170284523D01*
X140711904Y-170284523D01*
X140807142Y-170236904D01*
X140854761Y-170189285D01*
X140902380Y-170094047D01*
X140902380Y-169808333D01*
X140854761Y-169713095D01*
X140807142Y-169665476D01*
X139902380Y-171141666D02*
X139902380Y-170951190D01*
X139950000Y-170855952D01*
X139997619Y-170808333D01*
X140140476Y-170713095D01*
X140330952Y-170665476D01*
X140711904Y-170665476D01*
X140807142Y-170713095D01*
X140854761Y-170760714D01*
X140902380Y-170855952D01*
X140902380Y-171046428D01*
X140854761Y-171141666D01*
X140807142Y-171189285D01*
X140711904Y-171236904D01*
X140473809Y-171236904D01*
X140378571Y-171189285D01*
X140330952Y-171141666D01*
X140283333Y-171046428D01*
X140283333Y-170855952D01*
X140330952Y-170760714D01*
X140378571Y-170713095D01*
X140473809Y-170665476D01*
G04 #@! TO.C,R37*
X155402380Y-112282142D02*
X154926190Y-111948809D01*
X155402380Y-111710714D02*
X154402380Y-111710714D01*
X154402380Y-112091666D01*
X154450000Y-112186904D01*
X154497619Y-112234523D01*
X154592857Y-112282142D01*
X154735714Y-112282142D01*
X154830952Y-112234523D01*
X154878571Y-112186904D01*
X154926190Y-112091666D01*
X154926190Y-111710714D01*
X154402380Y-112615476D02*
X154402380Y-113234523D01*
X154783333Y-112901190D01*
X154783333Y-113044047D01*
X154830952Y-113139285D01*
X154878571Y-113186904D01*
X154973809Y-113234523D01*
X155211904Y-113234523D01*
X155307142Y-113186904D01*
X155354761Y-113139285D01*
X155402380Y-113044047D01*
X155402380Y-112758333D01*
X155354761Y-112663095D01*
X155307142Y-112615476D01*
X154402380Y-113567857D02*
X154402380Y-114234523D01*
X155402380Y-113805952D01*
G04 #@! TO.C,R38*
X164852380Y-131332142D02*
X164376190Y-130998809D01*
X164852380Y-130760714D02*
X163852380Y-130760714D01*
X163852380Y-131141666D01*
X163900000Y-131236904D01*
X163947619Y-131284523D01*
X164042857Y-131332142D01*
X164185714Y-131332142D01*
X164280952Y-131284523D01*
X164328571Y-131236904D01*
X164376190Y-131141666D01*
X164376190Y-130760714D01*
X163852380Y-131665476D02*
X163852380Y-132284523D01*
X164233333Y-131951190D01*
X164233333Y-132094047D01*
X164280952Y-132189285D01*
X164328571Y-132236904D01*
X164423809Y-132284523D01*
X164661904Y-132284523D01*
X164757142Y-132236904D01*
X164804761Y-132189285D01*
X164852380Y-132094047D01*
X164852380Y-131808333D01*
X164804761Y-131713095D01*
X164757142Y-131665476D01*
X164280952Y-132855952D02*
X164233333Y-132760714D01*
X164185714Y-132713095D01*
X164090476Y-132665476D01*
X164042857Y-132665476D01*
X163947619Y-132713095D01*
X163900000Y-132760714D01*
X163852380Y-132855952D01*
X163852380Y-133046428D01*
X163900000Y-133141666D01*
X163947619Y-133189285D01*
X164042857Y-133236904D01*
X164090476Y-133236904D01*
X164185714Y-133189285D01*
X164233333Y-133141666D01*
X164280952Y-133046428D01*
X164280952Y-132855952D01*
X164328571Y-132760714D01*
X164376190Y-132713095D01*
X164471428Y-132665476D01*
X164661904Y-132665476D01*
X164757142Y-132713095D01*
X164804761Y-132760714D01*
X164852380Y-132855952D01*
X164852380Y-133046428D01*
X164804761Y-133141666D01*
X164757142Y-133189285D01*
X164661904Y-133236904D01*
X164471428Y-133236904D01*
X164376190Y-133189285D01*
X164328571Y-133141666D01*
X164280952Y-133046428D01*
G04 #@! TO.C,R39*
X169377380Y-150357142D02*
X168901190Y-150023809D01*
X169377380Y-149785714D02*
X168377380Y-149785714D01*
X168377380Y-150166666D01*
X168425000Y-150261904D01*
X168472619Y-150309523D01*
X168567857Y-150357142D01*
X168710714Y-150357142D01*
X168805952Y-150309523D01*
X168853571Y-150261904D01*
X168901190Y-150166666D01*
X168901190Y-149785714D01*
X168377380Y-150690476D02*
X168377380Y-151309523D01*
X168758333Y-150976190D01*
X168758333Y-151119047D01*
X168805952Y-151214285D01*
X168853571Y-151261904D01*
X168948809Y-151309523D01*
X169186904Y-151309523D01*
X169282142Y-151261904D01*
X169329761Y-151214285D01*
X169377380Y-151119047D01*
X169377380Y-150833333D01*
X169329761Y-150738095D01*
X169282142Y-150690476D01*
X169377380Y-151785714D02*
X169377380Y-151976190D01*
X169329761Y-152071428D01*
X169282142Y-152119047D01*
X169139285Y-152214285D01*
X168948809Y-152261904D01*
X168567857Y-152261904D01*
X168472619Y-152214285D01*
X168425000Y-152166666D01*
X168377380Y-152071428D01*
X168377380Y-151880952D01*
X168425000Y-151785714D01*
X168472619Y-151738095D01*
X168567857Y-151690476D01*
X168805952Y-151690476D01*
X168901190Y-151738095D01*
X168948809Y-151785714D01*
X168996428Y-151880952D01*
X168996428Y-152071428D01*
X168948809Y-152166666D01*
X168901190Y-152214285D01*
X168805952Y-152261904D01*
G04 #@! TO.C,R40*
X160052380Y-169432142D02*
X159576190Y-169098809D01*
X160052380Y-168860714D02*
X159052380Y-168860714D01*
X159052380Y-169241666D01*
X159100000Y-169336904D01*
X159147619Y-169384523D01*
X159242857Y-169432142D01*
X159385714Y-169432142D01*
X159480952Y-169384523D01*
X159528571Y-169336904D01*
X159576190Y-169241666D01*
X159576190Y-168860714D01*
X159385714Y-170289285D02*
X160052380Y-170289285D01*
X159004761Y-170051190D02*
X159719047Y-169813095D01*
X159719047Y-170432142D01*
X159052380Y-171003571D02*
X159052380Y-171098809D01*
X159100000Y-171194047D01*
X159147619Y-171241666D01*
X159242857Y-171289285D01*
X159433333Y-171336904D01*
X159671428Y-171336904D01*
X159861904Y-171289285D01*
X159957142Y-171241666D01*
X160004761Y-171194047D01*
X160052380Y-171098809D01*
X160052380Y-171003571D01*
X160004761Y-170908333D01*
X159957142Y-170860714D01*
X159861904Y-170813095D01*
X159671428Y-170765476D01*
X159433333Y-170765476D01*
X159242857Y-170813095D01*
X159147619Y-170860714D01*
X159100000Y-170908333D01*
X159052380Y-171003571D01*
G04 #@! TO.C,R41*
X165102380Y-188482142D02*
X164626190Y-188148809D01*
X165102380Y-187910714D02*
X164102380Y-187910714D01*
X164102380Y-188291666D01*
X164150000Y-188386904D01*
X164197619Y-188434523D01*
X164292857Y-188482142D01*
X164435714Y-188482142D01*
X164530952Y-188434523D01*
X164578571Y-188386904D01*
X164626190Y-188291666D01*
X164626190Y-187910714D01*
X164435714Y-189339285D02*
X165102380Y-189339285D01*
X164054761Y-189101190D02*
X164769047Y-188863095D01*
X164769047Y-189482142D01*
X165102380Y-190386904D02*
X165102380Y-189815476D01*
X165102380Y-190101190D02*
X164102380Y-190101190D01*
X164245238Y-190005952D01*
X164340476Y-189910714D01*
X164388095Y-189815476D01*
G04 #@! TO.C,R42*
X174402380Y-112232142D02*
X173926190Y-111898809D01*
X174402380Y-111660714D02*
X173402380Y-111660714D01*
X173402380Y-112041666D01*
X173450000Y-112136904D01*
X173497619Y-112184523D01*
X173592857Y-112232142D01*
X173735714Y-112232142D01*
X173830952Y-112184523D01*
X173878571Y-112136904D01*
X173926190Y-112041666D01*
X173926190Y-111660714D01*
X173735714Y-113089285D02*
X174402380Y-113089285D01*
X173354761Y-112851190D02*
X174069047Y-112613095D01*
X174069047Y-113232142D01*
X173497619Y-113565476D02*
X173450000Y-113613095D01*
X173402380Y-113708333D01*
X173402380Y-113946428D01*
X173450000Y-114041666D01*
X173497619Y-114089285D01*
X173592857Y-114136904D01*
X173688095Y-114136904D01*
X173830952Y-114089285D01*
X174402380Y-113517857D01*
X174402380Y-114136904D01*
G04 #@! TO.C,R43*
X183802380Y-131282142D02*
X183326190Y-130948809D01*
X183802380Y-130710714D02*
X182802380Y-130710714D01*
X182802380Y-131091666D01*
X182850000Y-131186904D01*
X182897619Y-131234523D01*
X182992857Y-131282142D01*
X183135714Y-131282142D01*
X183230952Y-131234523D01*
X183278571Y-131186904D01*
X183326190Y-131091666D01*
X183326190Y-130710714D01*
X183135714Y-132139285D02*
X183802380Y-132139285D01*
X182754761Y-131901190D02*
X183469047Y-131663095D01*
X183469047Y-132282142D01*
X182802380Y-132567857D02*
X182802380Y-133186904D01*
X183183333Y-132853571D01*
X183183333Y-132996428D01*
X183230952Y-133091666D01*
X183278571Y-133139285D01*
X183373809Y-133186904D01*
X183611904Y-133186904D01*
X183707142Y-133139285D01*
X183754761Y-133091666D01*
X183802380Y-132996428D01*
X183802380Y-132710714D01*
X183754761Y-132615476D01*
X183707142Y-132567857D01*
G04 #@! TO.C,R44*
X188802380Y-150382142D02*
X188326190Y-150048809D01*
X188802380Y-149810714D02*
X187802380Y-149810714D01*
X187802380Y-150191666D01*
X187850000Y-150286904D01*
X187897619Y-150334523D01*
X187992857Y-150382142D01*
X188135714Y-150382142D01*
X188230952Y-150334523D01*
X188278571Y-150286904D01*
X188326190Y-150191666D01*
X188326190Y-149810714D01*
X188135714Y-151239285D02*
X188802380Y-151239285D01*
X187754761Y-151001190D02*
X188469047Y-150763095D01*
X188469047Y-151382142D01*
X188135714Y-152191666D02*
X188802380Y-152191666D01*
X187754761Y-151953571D02*
X188469047Y-151715476D01*
X188469047Y-152334523D01*
G04 #@! TO.C,R45*
X179077380Y-169457142D02*
X178601190Y-169123809D01*
X179077380Y-168885714D02*
X178077380Y-168885714D01*
X178077380Y-169266666D01*
X178125000Y-169361904D01*
X178172619Y-169409523D01*
X178267857Y-169457142D01*
X178410714Y-169457142D01*
X178505952Y-169409523D01*
X178553571Y-169361904D01*
X178601190Y-169266666D01*
X178601190Y-168885714D01*
X178410714Y-170314285D02*
X179077380Y-170314285D01*
X178029761Y-170076190D02*
X178744047Y-169838095D01*
X178744047Y-170457142D01*
X178077380Y-171314285D02*
X178077380Y-170838095D01*
X178553571Y-170790476D01*
X178505952Y-170838095D01*
X178458333Y-170933333D01*
X178458333Y-171171428D01*
X178505952Y-171266666D01*
X178553571Y-171314285D01*
X178648809Y-171361904D01*
X178886904Y-171361904D01*
X178982142Y-171314285D01*
X179029761Y-171266666D01*
X179077380Y-171171428D01*
X179077380Y-170933333D01*
X179029761Y-170838095D01*
X178982142Y-170790476D01*
G04 #@! TO.C,R46*
X193602380Y-112282142D02*
X193126190Y-111948809D01*
X193602380Y-111710714D02*
X192602380Y-111710714D01*
X192602380Y-112091666D01*
X192650000Y-112186904D01*
X192697619Y-112234523D01*
X192792857Y-112282142D01*
X192935714Y-112282142D01*
X193030952Y-112234523D01*
X193078571Y-112186904D01*
X193126190Y-112091666D01*
X193126190Y-111710714D01*
X192935714Y-113139285D02*
X193602380Y-113139285D01*
X192554761Y-112901190D02*
X193269047Y-112663095D01*
X193269047Y-113282142D01*
X192602380Y-114091666D02*
X192602380Y-113901190D01*
X192650000Y-113805952D01*
X192697619Y-113758333D01*
X192840476Y-113663095D01*
X193030952Y-113615476D01*
X193411904Y-113615476D01*
X193507142Y-113663095D01*
X193554761Y-113710714D01*
X193602380Y-113805952D01*
X193602380Y-113996428D01*
X193554761Y-114091666D01*
X193507142Y-114139285D01*
X193411904Y-114186904D01*
X193173809Y-114186904D01*
X193078571Y-114139285D01*
X193030952Y-114091666D01*
X192983333Y-113996428D01*
X192983333Y-113805952D01*
X193030952Y-113710714D01*
X193078571Y-113663095D01*
X193173809Y-113615476D01*
G04 #@! TO.C,R47*
X203002380Y-131282142D02*
X202526190Y-130948809D01*
X203002380Y-130710714D02*
X202002380Y-130710714D01*
X202002380Y-131091666D01*
X202050000Y-131186904D01*
X202097619Y-131234523D01*
X202192857Y-131282142D01*
X202335714Y-131282142D01*
X202430952Y-131234523D01*
X202478571Y-131186904D01*
X202526190Y-131091666D01*
X202526190Y-130710714D01*
X202335714Y-132139285D02*
X203002380Y-132139285D01*
X201954761Y-131901190D02*
X202669047Y-131663095D01*
X202669047Y-132282142D01*
X202002380Y-132567857D02*
X202002380Y-133234523D01*
X203002380Y-132805952D01*
G04 #@! TO.C,R48*
X207902380Y-150382142D02*
X207426190Y-150048809D01*
X207902380Y-149810714D02*
X206902380Y-149810714D01*
X206902380Y-150191666D01*
X206950000Y-150286904D01*
X206997619Y-150334523D01*
X207092857Y-150382142D01*
X207235714Y-150382142D01*
X207330952Y-150334523D01*
X207378571Y-150286904D01*
X207426190Y-150191666D01*
X207426190Y-149810714D01*
X207235714Y-151239285D02*
X207902380Y-151239285D01*
X206854761Y-151001190D02*
X207569047Y-150763095D01*
X207569047Y-151382142D01*
X207330952Y-151905952D02*
X207283333Y-151810714D01*
X207235714Y-151763095D01*
X207140476Y-151715476D01*
X207092857Y-151715476D01*
X206997619Y-151763095D01*
X206950000Y-151810714D01*
X206902380Y-151905952D01*
X206902380Y-152096428D01*
X206950000Y-152191666D01*
X206997619Y-152239285D01*
X207092857Y-152286904D01*
X207140476Y-152286904D01*
X207235714Y-152239285D01*
X207283333Y-152191666D01*
X207330952Y-152096428D01*
X207330952Y-151905952D01*
X207378571Y-151810714D01*
X207426190Y-151763095D01*
X207521428Y-151715476D01*
X207711904Y-151715476D01*
X207807142Y-151763095D01*
X207854761Y-151810714D01*
X207902380Y-151905952D01*
X207902380Y-152096428D01*
X207854761Y-152191666D01*
X207807142Y-152239285D01*
X207711904Y-152286904D01*
X207521428Y-152286904D01*
X207426190Y-152239285D01*
X207378571Y-152191666D01*
X207330952Y-152096428D01*
G04 #@! TO.C,R49*
X197902380Y-169382142D02*
X197426190Y-169048809D01*
X197902380Y-168810714D02*
X196902380Y-168810714D01*
X196902380Y-169191666D01*
X196950000Y-169286904D01*
X196997619Y-169334523D01*
X197092857Y-169382142D01*
X197235714Y-169382142D01*
X197330952Y-169334523D01*
X197378571Y-169286904D01*
X197426190Y-169191666D01*
X197426190Y-168810714D01*
X197235714Y-170239285D02*
X197902380Y-170239285D01*
X196854761Y-170001190D02*
X197569047Y-169763095D01*
X197569047Y-170382142D01*
X197902380Y-170810714D02*
X197902380Y-171001190D01*
X197854761Y-171096428D01*
X197807142Y-171144047D01*
X197664285Y-171239285D01*
X197473809Y-171286904D01*
X197092857Y-171286904D01*
X196997619Y-171239285D01*
X196950000Y-171191666D01*
X196902380Y-171096428D01*
X196902380Y-170905952D01*
X196950000Y-170810714D01*
X196997619Y-170763095D01*
X197092857Y-170715476D01*
X197330952Y-170715476D01*
X197426190Y-170763095D01*
X197473809Y-170810714D01*
X197521428Y-170905952D01*
X197521428Y-171096428D01*
X197473809Y-171191666D01*
X197426190Y-171239285D01*
X197330952Y-171286904D01*
G04 #@! TO.C,R50*
X212502380Y-112282142D02*
X212026190Y-111948809D01*
X212502380Y-111710714D02*
X211502380Y-111710714D01*
X211502380Y-112091666D01*
X211550000Y-112186904D01*
X211597619Y-112234523D01*
X211692857Y-112282142D01*
X211835714Y-112282142D01*
X211930952Y-112234523D01*
X211978571Y-112186904D01*
X212026190Y-112091666D01*
X212026190Y-111710714D01*
X211502380Y-113186904D02*
X211502380Y-112710714D01*
X211978571Y-112663095D01*
X211930952Y-112710714D01*
X211883333Y-112805952D01*
X211883333Y-113044047D01*
X211930952Y-113139285D01*
X211978571Y-113186904D01*
X212073809Y-113234523D01*
X212311904Y-113234523D01*
X212407142Y-113186904D01*
X212454761Y-113139285D01*
X212502380Y-113044047D01*
X212502380Y-112805952D01*
X212454761Y-112710714D01*
X212407142Y-112663095D01*
X211502380Y-113853571D02*
X211502380Y-113948809D01*
X211550000Y-114044047D01*
X211597619Y-114091666D01*
X211692857Y-114139285D01*
X211883333Y-114186904D01*
X212121428Y-114186904D01*
X212311904Y-114139285D01*
X212407142Y-114091666D01*
X212454761Y-114044047D01*
X212502380Y-113948809D01*
X212502380Y-113853571D01*
X212454761Y-113758333D01*
X212407142Y-113710714D01*
X212311904Y-113663095D01*
X212121428Y-113615476D01*
X211883333Y-113615476D01*
X211692857Y-113663095D01*
X211597619Y-113710714D01*
X211550000Y-113758333D01*
X211502380Y-113853571D01*
G04 #@! TO.C,R51*
X221902380Y-131282142D02*
X221426190Y-130948809D01*
X221902380Y-130710714D02*
X220902380Y-130710714D01*
X220902380Y-131091666D01*
X220950000Y-131186904D01*
X220997619Y-131234523D01*
X221092857Y-131282142D01*
X221235714Y-131282142D01*
X221330952Y-131234523D01*
X221378571Y-131186904D01*
X221426190Y-131091666D01*
X221426190Y-130710714D01*
X220902380Y-132186904D02*
X220902380Y-131710714D01*
X221378571Y-131663095D01*
X221330952Y-131710714D01*
X221283333Y-131805952D01*
X221283333Y-132044047D01*
X221330952Y-132139285D01*
X221378571Y-132186904D01*
X221473809Y-132234523D01*
X221711904Y-132234523D01*
X221807142Y-132186904D01*
X221854761Y-132139285D01*
X221902380Y-132044047D01*
X221902380Y-131805952D01*
X221854761Y-131710714D01*
X221807142Y-131663095D01*
X221902380Y-133186904D02*
X221902380Y-132615476D01*
X221902380Y-132901190D02*
X220902380Y-132901190D01*
X221045238Y-132805952D01*
X221140476Y-132710714D01*
X221188095Y-132615476D01*
G04 #@! TO.C,R52*
X226802380Y-150357142D02*
X226326190Y-150023809D01*
X226802380Y-149785714D02*
X225802380Y-149785714D01*
X225802380Y-150166666D01*
X225850000Y-150261904D01*
X225897619Y-150309523D01*
X225992857Y-150357142D01*
X226135714Y-150357142D01*
X226230952Y-150309523D01*
X226278571Y-150261904D01*
X226326190Y-150166666D01*
X226326190Y-149785714D01*
X225802380Y-151261904D02*
X225802380Y-150785714D01*
X226278571Y-150738095D01*
X226230952Y-150785714D01*
X226183333Y-150880952D01*
X226183333Y-151119047D01*
X226230952Y-151214285D01*
X226278571Y-151261904D01*
X226373809Y-151309523D01*
X226611904Y-151309523D01*
X226707142Y-151261904D01*
X226754761Y-151214285D01*
X226802380Y-151119047D01*
X226802380Y-150880952D01*
X226754761Y-150785714D01*
X226707142Y-150738095D01*
X225897619Y-151690476D02*
X225850000Y-151738095D01*
X225802380Y-151833333D01*
X225802380Y-152071428D01*
X225850000Y-152166666D01*
X225897619Y-152214285D01*
X225992857Y-152261904D01*
X226088095Y-152261904D01*
X226230952Y-152214285D01*
X226802380Y-151642857D01*
X226802380Y-152261904D01*
G04 #@! TO.C,R53*
X217402380Y-169482142D02*
X216926190Y-169148809D01*
X217402380Y-168910714D02*
X216402380Y-168910714D01*
X216402380Y-169291666D01*
X216450000Y-169386904D01*
X216497619Y-169434523D01*
X216592857Y-169482142D01*
X216735714Y-169482142D01*
X216830952Y-169434523D01*
X216878571Y-169386904D01*
X216926190Y-169291666D01*
X216926190Y-168910714D01*
X216402380Y-170386904D02*
X216402380Y-169910714D01*
X216878571Y-169863095D01*
X216830952Y-169910714D01*
X216783333Y-170005952D01*
X216783333Y-170244047D01*
X216830952Y-170339285D01*
X216878571Y-170386904D01*
X216973809Y-170434523D01*
X217211904Y-170434523D01*
X217307142Y-170386904D01*
X217354761Y-170339285D01*
X217402380Y-170244047D01*
X217402380Y-170005952D01*
X217354761Y-169910714D01*
X217307142Y-169863095D01*
X216402380Y-170767857D02*
X216402380Y-171386904D01*
X216783333Y-171053571D01*
X216783333Y-171196428D01*
X216830952Y-171291666D01*
X216878571Y-171339285D01*
X216973809Y-171386904D01*
X217211904Y-171386904D01*
X217307142Y-171339285D01*
X217354761Y-171291666D01*
X217402380Y-171196428D01*
X217402380Y-170910714D01*
X217354761Y-170815476D01*
X217307142Y-170767857D01*
G04 #@! TO.C,R54*
X224402380Y-188382142D02*
X223926190Y-188048809D01*
X224402380Y-187810714D02*
X223402380Y-187810714D01*
X223402380Y-188191666D01*
X223450000Y-188286904D01*
X223497619Y-188334523D01*
X223592857Y-188382142D01*
X223735714Y-188382142D01*
X223830952Y-188334523D01*
X223878571Y-188286904D01*
X223926190Y-188191666D01*
X223926190Y-187810714D01*
X223402380Y-189286904D02*
X223402380Y-188810714D01*
X223878571Y-188763095D01*
X223830952Y-188810714D01*
X223783333Y-188905952D01*
X223783333Y-189144047D01*
X223830952Y-189239285D01*
X223878571Y-189286904D01*
X223973809Y-189334523D01*
X224211904Y-189334523D01*
X224307142Y-189286904D01*
X224354761Y-189239285D01*
X224402380Y-189144047D01*
X224402380Y-188905952D01*
X224354761Y-188810714D01*
X224307142Y-188763095D01*
X223735714Y-190191666D02*
X224402380Y-190191666D01*
X223354761Y-189953571D02*
X224069047Y-189715476D01*
X224069047Y-190334523D01*
G04 #@! TO.C,R55*
X231702380Y-112282142D02*
X231226190Y-111948809D01*
X231702380Y-111710714D02*
X230702380Y-111710714D01*
X230702380Y-112091666D01*
X230750000Y-112186904D01*
X230797619Y-112234523D01*
X230892857Y-112282142D01*
X231035714Y-112282142D01*
X231130952Y-112234523D01*
X231178571Y-112186904D01*
X231226190Y-112091666D01*
X231226190Y-111710714D01*
X230702380Y-113186904D02*
X230702380Y-112710714D01*
X231178571Y-112663095D01*
X231130952Y-112710714D01*
X231083333Y-112805952D01*
X231083333Y-113044047D01*
X231130952Y-113139285D01*
X231178571Y-113186904D01*
X231273809Y-113234523D01*
X231511904Y-113234523D01*
X231607142Y-113186904D01*
X231654761Y-113139285D01*
X231702380Y-113044047D01*
X231702380Y-112805952D01*
X231654761Y-112710714D01*
X231607142Y-112663095D01*
X230702380Y-114139285D02*
X230702380Y-113663095D01*
X231178571Y-113615476D01*
X231130952Y-113663095D01*
X231083333Y-113758333D01*
X231083333Y-113996428D01*
X231130952Y-114091666D01*
X231178571Y-114139285D01*
X231273809Y-114186904D01*
X231511904Y-114186904D01*
X231607142Y-114139285D01*
X231654761Y-114091666D01*
X231702380Y-113996428D01*
X231702380Y-113758333D01*
X231654761Y-113663095D01*
X231607142Y-113615476D01*
G04 #@! TO.C,R56*
X241002380Y-131282142D02*
X240526190Y-130948809D01*
X241002380Y-130710714D02*
X240002380Y-130710714D01*
X240002380Y-131091666D01*
X240050000Y-131186904D01*
X240097619Y-131234523D01*
X240192857Y-131282142D01*
X240335714Y-131282142D01*
X240430952Y-131234523D01*
X240478571Y-131186904D01*
X240526190Y-131091666D01*
X240526190Y-130710714D01*
X240002380Y-132186904D02*
X240002380Y-131710714D01*
X240478571Y-131663095D01*
X240430952Y-131710714D01*
X240383333Y-131805952D01*
X240383333Y-132044047D01*
X240430952Y-132139285D01*
X240478571Y-132186904D01*
X240573809Y-132234523D01*
X240811904Y-132234523D01*
X240907142Y-132186904D01*
X240954761Y-132139285D01*
X241002380Y-132044047D01*
X241002380Y-131805952D01*
X240954761Y-131710714D01*
X240907142Y-131663095D01*
X240002380Y-133091666D02*
X240002380Y-132901190D01*
X240050000Y-132805952D01*
X240097619Y-132758333D01*
X240240476Y-132663095D01*
X240430952Y-132615476D01*
X240811904Y-132615476D01*
X240907142Y-132663095D01*
X240954761Y-132710714D01*
X241002380Y-132805952D01*
X241002380Y-132996428D01*
X240954761Y-133091666D01*
X240907142Y-133139285D01*
X240811904Y-133186904D01*
X240573809Y-133186904D01*
X240478571Y-133139285D01*
X240430952Y-133091666D01*
X240383333Y-132996428D01*
X240383333Y-132805952D01*
X240430952Y-132710714D01*
X240478571Y-132663095D01*
X240573809Y-132615476D01*
G04 #@! TO.C,R57*
X245777380Y-150357142D02*
X245301190Y-150023809D01*
X245777380Y-149785714D02*
X244777380Y-149785714D01*
X244777380Y-150166666D01*
X244825000Y-150261904D01*
X244872619Y-150309523D01*
X244967857Y-150357142D01*
X245110714Y-150357142D01*
X245205952Y-150309523D01*
X245253571Y-150261904D01*
X245301190Y-150166666D01*
X245301190Y-149785714D01*
X244777380Y-151261904D02*
X244777380Y-150785714D01*
X245253571Y-150738095D01*
X245205952Y-150785714D01*
X245158333Y-150880952D01*
X245158333Y-151119047D01*
X245205952Y-151214285D01*
X245253571Y-151261904D01*
X245348809Y-151309523D01*
X245586904Y-151309523D01*
X245682142Y-151261904D01*
X245729761Y-151214285D01*
X245777380Y-151119047D01*
X245777380Y-150880952D01*
X245729761Y-150785714D01*
X245682142Y-150738095D01*
X244777380Y-151642857D02*
X244777380Y-152309523D01*
X245777380Y-151880952D01*
G04 #@! TO.C,R58*
X236322380Y-169422142D02*
X235846190Y-169088809D01*
X236322380Y-168850714D02*
X235322380Y-168850714D01*
X235322380Y-169231666D01*
X235370000Y-169326904D01*
X235417619Y-169374523D01*
X235512857Y-169422142D01*
X235655714Y-169422142D01*
X235750952Y-169374523D01*
X235798571Y-169326904D01*
X235846190Y-169231666D01*
X235846190Y-168850714D01*
X235322380Y-170326904D02*
X235322380Y-169850714D01*
X235798571Y-169803095D01*
X235750952Y-169850714D01*
X235703333Y-169945952D01*
X235703333Y-170184047D01*
X235750952Y-170279285D01*
X235798571Y-170326904D01*
X235893809Y-170374523D01*
X236131904Y-170374523D01*
X236227142Y-170326904D01*
X236274761Y-170279285D01*
X236322380Y-170184047D01*
X236322380Y-169945952D01*
X236274761Y-169850714D01*
X236227142Y-169803095D01*
X235750952Y-170945952D02*
X235703333Y-170850714D01*
X235655714Y-170803095D01*
X235560476Y-170755476D01*
X235512857Y-170755476D01*
X235417619Y-170803095D01*
X235370000Y-170850714D01*
X235322380Y-170945952D01*
X235322380Y-171136428D01*
X235370000Y-171231666D01*
X235417619Y-171279285D01*
X235512857Y-171326904D01*
X235560476Y-171326904D01*
X235655714Y-171279285D01*
X235703333Y-171231666D01*
X235750952Y-171136428D01*
X235750952Y-170945952D01*
X235798571Y-170850714D01*
X235846190Y-170803095D01*
X235941428Y-170755476D01*
X236131904Y-170755476D01*
X236227142Y-170803095D01*
X236274761Y-170850714D01*
X236322380Y-170945952D01*
X236322380Y-171136428D01*
X236274761Y-171231666D01*
X236227142Y-171279285D01*
X236131904Y-171326904D01*
X235941428Y-171326904D01*
X235846190Y-171279285D01*
X235798571Y-171231666D01*
X235750952Y-171136428D01*
G04 #@! TO.C,R59*
X245802380Y-188432142D02*
X245326190Y-188098809D01*
X245802380Y-187860714D02*
X244802380Y-187860714D01*
X244802380Y-188241666D01*
X244850000Y-188336904D01*
X244897619Y-188384523D01*
X244992857Y-188432142D01*
X245135714Y-188432142D01*
X245230952Y-188384523D01*
X245278571Y-188336904D01*
X245326190Y-188241666D01*
X245326190Y-187860714D01*
X244802380Y-189336904D02*
X244802380Y-188860714D01*
X245278571Y-188813095D01*
X245230952Y-188860714D01*
X245183333Y-188955952D01*
X245183333Y-189194047D01*
X245230952Y-189289285D01*
X245278571Y-189336904D01*
X245373809Y-189384523D01*
X245611904Y-189384523D01*
X245707142Y-189336904D01*
X245754761Y-189289285D01*
X245802380Y-189194047D01*
X245802380Y-188955952D01*
X245754761Y-188860714D01*
X245707142Y-188813095D01*
X245802380Y-189860714D02*
X245802380Y-190051190D01*
X245754761Y-190146428D01*
X245707142Y-190194047D01*
X245564285Y-190289285D01*
X245373809Y-190336904D01*
X244992857Y-190336904D01*
X244897619Y-190289285D01*
X244850000Y-190241666D01*
X244802380Y-190146428D01*
X244802380Y-189955952D01*
X244850000Y-189860714D01*
X244897619Y-189813095D01*
X244992857Y-189765476D01*
X245230952Y-189765476D01*
X245326190Y-189813095D01*
X245373809Y-189860714D01*
X245421428Y-189955952D01*
X245421428Y-190146428D01*
X245373809Y-190241666D01*
X245326190Y-190289285D01*
X245230952Y-190336904D01*
G04 #@! TO.C,R60*
X250552380Y-112207142D02*
X250076190Y-111873809D01*
X250552380Y-111635714D02*
X249552380Y-111635714D01*
X249552380Y-112016666D01*
X249600000Y-112111904D01*
X249647619Y-112159523D01*
X249742857Y-112207142D01*
X249885714Y-112207142D01*
X249980952Y-112159523D01*
X250028571Y-112111904D01*
X250076190Y-112016666D01*
X250076190Y-111635714D01*
X249552380Y-113064285D02*
X249552380Y-112873809D01*
X249600000Y-112778571D01*
X249647619Y-112730952D01*
X249790476Y-112635714D01*
X249980952Y-112588095D01*
X250361904Y-112588095D01*
X250457142Y-112635714D01*
X250504761Y-112683333D01*
X250552380Y-112778571D01*
X250552380Y-112969047D01*
X250504761Y-113064285D01*
X250457142Y-113111904D01*
X250361904Y-113159523D01*
X250123809Y-113159523D01*
X250028571Y-113111904D01*
X249980952Y-113064285D01*
X249933333Y-112969047D01*
X249933333Y-112778571D01*
X249980952Y-112683333D01*
X250028571Y-112635714D01*
X250123809Y-112588095D01*
X249552380Y-113778571D02*
X249552380Y-113873809D01*
X249600000Y-113969047D01*
X249647619Y-114016666D01*
X249742857Y-114064285D01*
X249933333Y-114111904D01*
X250171428Y-114111904D01*
X250361904Y-114064285D01*
X250457142Y-114016666D01*
X250504761Y-113969047D01*
X250552380Y-113873809D01*
X250552380Y-113778571D01*
X250504761Y-113683333D01*
X250457142Y-113635714D01*
X250361904Y-113588095D01*
X250171428Y-113540476D01*
X249933333Y-113540476D01*
X249742857Y-113588095D01*
X249647619Y-113635714D01*
X249600000Y-113683333D01*
X249552380Y-113778571D01*
G04 #@! TO.C,R61*
X260102380Y-131257142D02*
X259626190Y-130923809D01*
X260102380Y-130685714D02*
X259102380Y-130685714D01*
X259102380Y-131066666D01*
X259150000Y-131161904D01*
X259197619Y-131209523D01*
X259292857Y-131257142D01*
X259435714Y-131257142D01*
X259530952Y-131209523D01*
X259578571Y-131161904D01*
X259626190Y-131066666D01*
X259626190Y-130685714D01*
X259102380Y-132114285D02*
X259102380Y-131923809D01*
X259150000Y-131828571D01*
X259197619Y-131780952D01*
X259340476Y-131685714D01*
X259530952Y-131638095D01*
X259911904Y-131638095D01*
X260007142Y-131685714D01*
X260054761Y-131733333D01*
X260102380Y-131828571D01*
X260102380Y-132019047D01*
X260054761Y-132114285D01*
X260007142Y-132161904D01*
X259911904Y-132209523D01*
X259673809Y-132209523D01*
X259578571Y-132161904D01*
X259530952Y-132114285D01*
X259483333Y-132019047D01*
X259483333Y-131828571D01*
X259530952Y-131733333D01*
X259578571Y-131685714D01*
X259673809Y-131638095D01*
X260102380Y-133161904D02*
X260102380Y-132590476D01*
X260102380Y-132876190D02*
X259102380Y-132876190D01*
X259245238Y-132780952D01*
X259340476Y-132685714D01*
X259388095Y-132590476D01*
G04 #@! TO.C,R62*
X264652380Y-150307142D02*
X264176190Y-149973809D01*
X264652380Y-149735714D02*
X263652380Y-149735714D01*
X263652380Y-150116666D01*
X263700000Y-150211904D01*
X263747619Y-150259523D01*
X263842857Y-150307142D01*
X263985714Y-150307142D01*
X264080952Y-150259523D01*
X264128571Y-150211904D01*
X264176190Y-150116666D01*
X264176190Y-149735714D01*
X263652380Y-151164285D02*
X263652380Y-150973809D01*
X263700000Y-150878571D01*
X263747619Y-150830952D01*
X263890476Y-150735714D01*
X264080952Y-150688095D01*
X264461904Y-150688095D01*
X264557142Y-150735714D01*
X264604761Y-150783333D01*
X264652380Y-150878571D01*
X264652380Y-151069047D01*
X264604761Y-151164285D01*
X264557142Y-151211904D01*
X264461904Y-151259523D01*
X264223809Y-151259523D01*
X264128571Y-151211904D01*
X264080952Y-151164285D01*
X264033333Y-151069047D01*
X264033333Y-150878571D01*
X264080952Y-150783333D01*
X264128571Y-150735714D01*
X264223809Y-150688095D01*
X263747619Y-151640476D02*
X263700000Y-151688095D01*
X263652380Y-151783333D01*
X263652380Y-152021428D01*
X263700000Y-152116666D01*
X263747619Y-152164285D01*
X263842857Y-152211904D01*
X263938095Y-152211904D01*
X264080952Y-152164285D01*
X264652380Y-151592857D01*
X264652380Y-152211904D01*
G04 #@! TO.C,R63*
X255292380Y-169282142D02*
X254816190Y-168948809D01*
X255292380Y-168710714D02*
X254292380Y-168710714D01*
X254292380Y-169091666D01*
X254340000Y-169186904D01*
X254387619Y-169234523D01*
X254482857Y-169282142D01*
X254625714Y-169282142D01*
X254720952Y-169234523D01*
X254768571Y-169186904D01*
X254816190Y-169091666D01*
X254816190Y-168710714D01*
X254292380Y-170139285D02*
X254292380Y-169948809D01*
X254340000Y-169853571D01*
X254387619Y-169805952D01*
X254530476Y-169710714D01*
X254720952Y-169663095D01*
X255101904Y-169663095D01*
X255197142Y-169710714D01*
X255244761Y-169758333D01*
X255292380Y-169853571D01*
X255292380Y-170044047D01*
X255244761Y-170139285D01*
X255197142Y-170186904D01*
X255101904Y-170234523D01*
X254863809Y-170234523D01*
X254768571Y-170186904D01*
X254720952Y-170139285D01*
X254673333Y-170044047D01*
X254673333Y-169853571D01*
X254720952Y-169758333D01*
X254768571Y-169710714D01*
X254863809Y-169663095D01*
X254292380Y-170567857D02*
X254292380Y-171186904D01*
X254673333Y-170853571D01*
X254673333Y-170996428D01*
X254720952Y-171091666D01*
X254768571Y-171139285D01*
X254863809Y-171186904D01*
X255101904Y-171186904D01*
X255197142Y-171139285D01*
X255244761Y-171091666D01*
X255292380Y-170996428D01*
X255292380Y-170710714D01*
X255244761Y-170615476D01*
X255197142Y-170567857D01*
G04 #@! TO.C,R64*
X266902380Y-188457142D02*
X266426190Y-188123809D01*
X266902380Y-187885714D02*
X265902380Y-187885714D01*
X265902380Y-188266666D01*
X265950000Y-188361904D01*
X265997619Y-188409523D01*
X266092857Y-188457142D01*
X266235714Y-188457142D01*
X266330952Y-188409523D01*
X266378571Y-188361904D01*
X266426190Y-188266666D01*
X266426190Y-187885714D01*
X265902380Y-189314285D02*
X265902380Y-189123809D01*
X265950000Y-189028571D01*
X265997619Y-188980952D01*
X266140476Y-188885714D01*
X266330952Y-188838095D01*
X266711904Y-188838095D01*
X266807142Y-188885714D01*
X266854761Y-188933333D01*
X266902380Y-189028571D01*
X266902380Y-189219047D01*
X266854761Y-189314285D01*
X266807142Y-189361904D01*
X266711904Y-189409523D01*
X266473809Y-189409523D01*
X266378571Y-189361904D01*
X266330952Y-189314285D01*
X266283333Y-189219047D01*
X266283333Y-189028571D01*
X266330952Y-188933333D01*
X266378571Y-188885714D01*
X266473809Y-188838095D01*
X266235714Y-190266666D02*
X266902380Y-190266666D01*
X265854761Y-190028571D02*
X266569047Y-189790476D01*
X266569047Y-190409523D01*
G04 #@! TO.C,R65*
X269702380Y-112232142D02*
X269226190Y-111898809D01*
X269702380Y-111660714D02*
X268702380Y-111660714D01*
X268702380Y-112041666D01*
X268750000Y-112136904D01*
X268797619Y-112184523D01*
X268892857Y-112232142D01*
X269035714Y-112232142D01*
X269130952Y-112184523D01*
X269178571Y-112136904D01*
X269226190Y-112041666D01*
X269226190Y-111660714D01*
X268702380Y-113089285D02*
X268702380Y-112898809D01*
X268750000Y-112803571D01*
X268797619Y-112755952D01*
X268940476Y-112660714D01*
X269130952Y-112613095D01*
X269511904Y-112613095D01*
X269607142Y-112660714D01*
X269654761Y-112708333D01*
X269702380Y-112803571D01*
X269702380Y-112994047D01*
X269654761Y-113089285D01*
X269607142Y-113136904D01*
X269511904Y-113184523D01*
X269273809Y-113184523D01*
X269178571Y-113136904D01*
X269130952Y-113089285D01*
X269083333Y-112994047D01*
X269083333Y-112803571D01*
X269130952Y-112708333D01*
X269178571Y-112660714D01*
X269273809Y-112613095D01*
X268702380Y-114089285D02*
X268702380Y-113613095D01*
X269178571Y-113565476D01*
X269130952Y-113613095D01*
X269083333Y-113708333D01*
X269083333Y-113946428D01*
X269130952Y-114041666D01*
X269178571Y-114089285D01*
X269273809Y-114136904D01*
X269511904Y-114136904D01*
X269607142Y-114089285D01*
X269654761Y-114041666D01*
X269702380Y-113946428D01*
X269702380Y-113708333D01*
X269654761Y-113613095D01*
X269607142Y-113565476D01*
G04 #@! TO.C,R66*
X279302380Y-131282142D02*
X278826190Y-130948809D01*
X279302380Y-130710714D02*
X278302380Y-130710714D01*
X278302380Y-131091666D01*
X278350000Y-131186904D01*
X278397619Y-131234523D01*
X278492857Y-131282142D01*
X278635714Y-131282142D01*
X278730952Y-131234523D01*
X278778571Y-131186904D01*
X278826190Y-131091666D01*
X278826190Y-130710714D01*
X278302380Y-132139285D02*
X278302380Y-131948809D01*
X278350000Y-131853571D01*
X278397619Y-131805952D01*
X278540476Y-131710714D01*
X278730952Y-131663095D01*
X279111904Y-131663095D01*
X279207142Y-131710714D01*
X279254761Y-131758333D01*
X279302380Y-131853571D01*
X279302380Y-132044047D01*
X279254761Y-132139285D01*
X279207142Y-132186904D01*
X279111904Y-132234523D01*
X278873809Y-132234523D01*
X278778571Y-132186904D01*
X278730952Y-132139285D01*
X278683333Y-132044047D01*
X278683333Y-131853571D01*
X278730952Y-131758333D01*
X278778571Y-131710714D01*
X278873809Y-131663095D01*
X278302380Y-133091666D02*
X278302380Y-132901190D01*
X278350000Y-132805952D01*
X278397619Y-132758333D01*
X278540476Y-132663095D01*
X278730952Y-132615476D01*
X279111904Y-132615476D01*
X279207142Y-132663095D01*
X279254761Y-132710714D01*
X279302380Y-132805952D01*
X279302380Y-132996428D01*
X279254761Y-133091666D01*
X279207142Y-133139285D01*
X279111904Y-133186904D01*
X278873809Y-133186904D01*
X278778571Y-133139285D01*
X278730952Y-133091666D01*
X278683333Y-132996428D01*
X278683333Y-132805952D01*
X278730952Y-132710714D01*
X278778571Y-132663095D01*
X278873809Y-132615476D01*
G04 #@! TO.C,R67*
X283202380Y-152657142D02*
X282726190Y-152323809D01*
X283202380Y-152085714D02*
X282202380Y-152085714D01*
X282202380Y-152466666D01*
X282250000Y-152561904D01*
X282297619Y-152609523D01*
X282392857Y-152657142D01*
X282535714Y-152657142D01*
X282630952Y-152609523D01*
X282678571Y-152561904D01*
X282726190Y-152466666D01*
X282726190Y-152085714D01*
X282202380Y-153514285D02*
X282202380Y-153323809D01*
X282250000Y-153228571D01*
X282297619Y-153180952D01*
X282440476Y-153085714D01*
X282630952Y-153038095D01*
X283011904Y-153038095D01*
X283107142Y-153085714D01*
X283154761Y-153133333D01*
X283202380Y-153228571D01*
X283202380Y-153419047D01*
X283154761Y-153514285D01*
X283107142Y-153561904D01*
X283011904Y-153609523D01*
X282773809Y-153609523D01*
X282678571Y-153561904D01*
X282630952Y-153514285D01*
X282583333Y-153419047D01*
X282583333Y-153228571D01*
X282630952Y-153133333D01*
X282678571Y-153085714D01*
X282773809Y-153038095D01*
X282202380Y-153942857D02*
X282202380Y-154609523D01*
X283202380Y-154180952D01*
G04 #@! TO.C,R68*
X281602380Y-169357142D02*
X281126190Y-169023809D01*
X281602380Y-168785714D02*
X280602380Y-168785714D01*
X280602380Y-169166666D01*
X280650000Y-169261904D01*
X280697619Y-169309523D01*
X280792857Y-169357142D01*
X280935714Y-169357142D01*
X281030952Y-169309523D01*
X281078571Y-169261904D01*
X281126190Y-169166666D01*
X281126190Y-168785714D01*
X280602380Y-170214285D02*
X280602380Y-170023809D01*
X280650000Y-169928571D01*
X280697619Y-169880952D01*
X280840476Y-169785714D01*
X281030952Y-169738095D01*
X281411904Y-169738095D01*
X281507142Y-169785714D01*
X281554761Y-169833333D01*
X281602380Y-169928571D01*
X281602380Y-170119047D01*
X281554761Y-170214285D01*
X281507142Y-170261904D01*
X281411904Y-170309523D01*
X281173809Y-170309523D01*
X281078571Y-170261904D01*
X281030952Y-170214285D01*
X280983333Y-170119047D01*
X280983333Y-169928571D01*
X281030952Y-169833333D01*
X281078571Y-169785714D01*
X281173809Y-169738095D01*
X281030952Y-170880952D02*
X280983333Y-170785714D01*
X280935714Y-170738095D01*
X280840476Y-170690476D01*
X280792857Y-170690476D01*
X280697619Y-170738095D01*
X280650000Y-170785714D01*
X280602380Y-170880952D01*
X280602380Y-171071428D01*
X280650000Y-171166666D01*
X280697619Y-171214285D01*
X280792857Y-171261904D01*
X280840476Y-171261904D01*
X280935714Y-171214285D01*
X280983333Y-171166666D01*
X281030952Y-171071428D01*
X281030952Y-170880952D01*
X281078571Y-170785714D01*
X281126190Y-170738095D01*
X281221428Y-170690476D01*
X281411904Y-170690476D01*
X281507142Y-170738095D01*
X281554761Y-170785714D01*
X281602380Y-170880952D01*
X281602380Y-171071428D01*
X281554761Y-171166666D01*
X281507142Y-171214285D01*
X281411904Y-171261904D01*
X281221428Y-171261904D01*
X281126190Y-171214285D01*
X281078571Y-171166666D01*
X281030952Y-171071428D01*
G04 #@! TO.C,R69*
X293402380Y-193182142D02*
X292926190Y-192848809D01*
X293402380Y-192610714D02*
X292402380Y-192610714D01*
X292402380Y-192991666D01*
X292450000Y-193086904D01*
X292497619Y-193134523D01*
X292592857Y-193182142D01*
X292735714Y-193182142D01*
X292830952Y-193134523D01*
X292878571Y-193086904D01*
X292926190Y-192991666D01*
X292926190Y-192610714D01*
X292402380Y-194039285D02*
X292402380Y-193848809D01*
X292450000Y-193753571D01*
X292497619Y-193705952D01*
X292640476Y-193610714D01*
X292830952Y-193563095D01*
X293211904Y-193563095D01*
X293307142Y-193610714D01*
X293354761Y-193658333D01*
X293402380Y-193753571D01*
X293402380Y-193944047D01*
X293354761Y-194039285D01*
X293307142Y-194086904D01*
X293211904Y-194134523D01*
X292973809Y-194134523D01*
X292878571Y-194086904D01*
X292830952Y-194039285D01*
X292783333Y-193944047D01*
X292783333Y-193753571D01*
X292830952Y-193658333D01*
X292878571Y-193610714D01*
X292973809Y-193563095D01*
X293402380Y-194610714D02*
X293402380Y-194801190D01*
X293354761Y-194896428D01*
X293307142Y-194944047D01*
X293164285Y-195039285D01*
X292973809Y-195086904D01*
X292592857Y-195086904D01*
X292497619Y-195039285D01*
X292450000Y-194991666D01*
X292402380Y-194896428D01*
X292402380Y-194705952D01*
X292450000Y-194610714D01*
X292497619Y-194563095D01*
X292592857Y-194515476D01*
X292830952Y-194515476D01*
X292926190Y-194563095D01*
X292973809Y-194610714D01*
X293021428Y-194705952D01*
X293021428Y-194896428D01*
X292973809Y-194991666D01*
X292926190Y-195039285D01*
X292830952Y-195086904D01*
G04 #@! TO.C,R70*
X297702380Y-112282142D02*
X297226190Y-111948809D01*
X297702380Y-111710714D02*
X296702380Y-111710714D01*
X296702380Y-112091666D01*
X296750000Y-112186904D01*
X296797619Y-112234523D01*
X296892857Y-112282142D01*
X297035714Y-112282142D01*
X297130952Y-112234523D01*
X297178571Y-112186904D01*
X297226190Y-112091666D01*
X297226190Y-111710714D01*
X296702380Y-112615476D02*
X296702380Y-113282142D01*
X297702380Y-112853571D01*
X296702380Y-113853571D02*
X296702380Y-113948809D01*
X296750000Y-114044047D01*
X296797619Y-114091666D01*
X296892857Y-114139285D01*
X297083333Y-114186904D01*
X297321428Y-114186904D01*
X297511904Y-114139285D01*
X297607142Y-114091666D01*
X297654761Y-114044047D01*
X297702380Y-113948809D01*
X297702380Y-113853571D01*
X297654761Y-113758333D01*
X297607142Y-113710714D01*
X297511904Y-113663095D01*
X297321428Y-113615476D01*
X297083333Y-113615476D01*
X296892857Y-113663095D01*
X296797619Y-113710714D01*
X296750000Y-113758333D01*
X296702380Y-113853571D01*
G04 #@! TO.C,R71*
X309702380Y-131282142D02*
X309226190Y-130948809D01*
X309702380Y-130710714D02*
X308702380Y-130710714D01*
X308702380Y-131091666D01*
X308750000Y-131186904D01*
X308797619Y-131234523D01*
X308892857Y-131282142D01*
X309035714Y-131282142D01*
X309130952Y-131234523D01*
X309178571Y-131186904D01*
X309226190Y-131091666D01*
X309226190Y-130710714D01*
X308702380Y-131615476D02*
X308702380Y-132282142D01*
X309702380Y-131853571D01*
X309702380Y-133186904D02*
X309702380Y-132615476D01*
X309702380Y-132901190D02*
X308702380Y-132901190D01*
X308845238Y-132805952D01*
X308940476Y-132710714D01*
X308988095Y-132615476D01*
G04 #@! TO.C,R72*
X296102380Y-150382142D02*
X295626190Y-150048809D01*
X296102380Y-149810714D02*
X295102380Y-149810714D01*
X295102380Y-150191666D01*
X295150000Y-150286904D01*
X295197619Y-150334523D01*
X295292857Y-150382142D01*
X295435714Y-150382142D01*
X295530952Y-150334523D01*
X295578571Y-150286904D01*
X295626190Y-150191666D01*
X295626190Y-149810714D01*
X295102380Y-150715476D02*
X295102380Y-151382142D01*
X296102380Y-150953571D01*
X295197619Y-151715476D02*
X295150000Y-151763095D01*
X295102380Y-151858333D01*
X295102380Y-152096428D01*
X295150000Y-152191666D01*
X295197619Y-152239285D01*
X295292857Y-152286904D01*
X295388095Y-152286904D01*
X295530952Y-152239285D01*
X296102380Y-151667857D01*
X296102380Y-152286904D01*
G04 #@! TO.C,R73*
X312502380Y-174057142D02*
X312026190Y-173723809D01*
X312502380Y-173485714D02*
X311502380Y-173485714D01*
X311502380Y-173866666D01*
X311550000Y-173961904D01*
X311597619Y-174009523D01*
X311692857Y-174057142D01*
X311835714Y-174057142D01*
X311930952Y-174009523D01*
X311978571Y-173961904D01*
X312026190Y-173866666D01*
X312026190Y-173485714D01*
X311502380Y-174390476D02*
X311502380Y-175057142D01*
X312502380Y-174628571D01*
X311502380Y-175342857D02*
X311502380Y-175961904D01*
X311883333Y-175628571D01*
X311883333Y-175771428D01*
X311930952Y-175866666D01*
X311978571Y-175914285D01*
X312073809Y-175961904D01*
X312311904Y-175961904D01*
X312407142Y-175914285D01*
X312454761Y-175866666D01*
X312502380Y-175771428D01*
X312502380Y-175485714D01*
X312454761Y-175390476D01*
X312407142Y-175342857D01*
G04 #@! TO.C,R74*
X312902380Y-193182142D02*
X312426190Y-192848809D01*
X312902380Y-192610714D02*
X311902380Y-192610714D01*
X311902380Y-192991666D01*
X311950000Y-193086904D01*
X311997619Y-193134523D01*
X312092857Y-193182142D01*
X312235714Y-193182142D01*
X312330952Y-193134523D01*
X312378571Y-193086904D01*
X312426190Y-192991666D01*
X312426190Y-192610714D01*
X311902380Y-193515476D02*
X311902380Y-194182142D01*
X312902380Y-193753571D01*
X312235714Y-194991666D02*
X312902380Y-194991666D01*
X311854761Y-194753571D02*
X312569047Y-194515476D01*
X312569047Y-195134523D01*
G04 #@! TO.C,R75*
X308902380Y-112257142D02*
X308426190Y-111923809D01*
X308902380Y-111685714D02*
X307902380Y-111685714D01*
X307902380Y-112066666D01*
X307950000Y-112161904D01*
X307997619Y-112209523D01*
X308092857Y-112257142D01*
X308235714Y-112257142D01*
X308330952Y-112209523D01*
X308378571Y-112161904D01*
X308426190Y-112066666D01*
X308426190Y-111685714D01*
X307902380Y-112590476D02*
X307902380Y-113257142D01*
X308902380Y-112828571D01*
X307902380Y-114114285D02*
X307902380Y-113638095D01*
X308378571Y-113590476D01*
X308330952Y-113638095D01*
X308283333Y-113733333D01*
X308283333Y-113971428D01*
X308330952Y-114066666D01*
X308378571Y-114114285D01*
X308473809Y-114161904D01*
X308711904Y-114161904D01*
X308807142Y-114114285D01*
X308854761Y-114066666D01*
X308902380Y-113971428D01*
X308902380Y-113733333D01*
X308854761Y-113638095D01*
X308807142Y-113590476D01*
G04 #@! TO.C,R76*
X336302380Y-112182142D02*
X335826190Y-111848809D01*
X336302380Y-111610714D02*
X335302380Y-111610714D01*
X335302380Y-111991666D01*
X335350000Y-112086904D01*
X335397619Y-112134523D01*
X335492857Y-112182142D01*
X335635714Y-112182142D01*
X335730952Y-112134523D01*
X335778571Y-112086904D01*
X335826190Y-111991666D01*
X335826190Y-111610714D01*
X335302380Y-112515476D02*
X335302380Y-113182142D01*
X336302380Y-112753571D01*
X335302380Y-113991666D02*
X335302380Y-113801190D01*
X335350000Y-113705952D01*
X335397619Y-113658333D01*
X335540476Y-113563095D01*
X335730952Y-113515476D01*
X336111904Y-113515476D01*
X336207142Y-113563095D01*
X336254761Y-113610714D01*
X336302380Y-113705952D01*
X336302380Y-113896428D01*
X336254761Y-113991666D01*
X336207142Y-114039285D01*
X336111904Y-114086904D01*
X335873809Y-114086904D01*
X335778571Y-114039285D01*
X335730952Y-113991666D01*
X335683333Y-113896428D01*
X335683333Y-113705952D01*
X335730952Y-113610714D01*
X335778571Y-113563095D01*
X335873809Y-113515476D01*
G04 #@! TO.C,R77*
X336302380Y-131282142D02*
X335826190Y-130948809D01*
X336302380Y-130710714D02*
X335302380Y-130710714D01*
X335302380Y-131091666D01*
X335350000Y-131186904D01*
X335397619Y-131234523D01*
X335492857Y-131282142D01*
X335635714Y-131282142D01*
X335730952Y-131234523D01*
X335778571Y-131186904D01*
X335826190Y-131091666D01*
X335826190Y-130710714D01*
X335302380Y-131615476D02*
X335302380Y-132282142D01*
X336302380Y-131853571D01*
X335302380Y-132567857D02*
X335302380Y-133234523D01*
X336302380Y-132805952D01*
G04 #@! TO.C,R78*
X336202380Y-150382142D02*
X335726190Y-150048809D01*
X336202380Y-149810714D02*
X335202380Y-149810714D01*
X335202380Y-150191666D01*
X335250000Y-150286904D01*
X335297619Y-150334523D01*
X335392857Y-150382142D01*
X335535714Y-150382142D01*
X335630952Y-150334523D01*
X335678571Y-150286904D01*
X335726190Y-150191666D01*
X335726190Y-149810714D01*
X335202380Y-150715476D02*
X335202380Y-151382142D01*
X336202380Y-150953571D01*
X335630952Y-151905952D02*
X335583333Y-151810714D01*
X335535714Y-151763095D01*
X335440476Y-151715476D01*
X335392857Y-151715476D01*
X335297619Y-151763095D01*
X335250000Y-151810714D01*
X335202380Y-151905952D01*
X335202380Y-152096428D01*
X335250000Y-152191666D01*
X335297619Y-152239285D01*
X335392857Y-152286904D01*
X335440476Y-152286904D01*
X335535714Y-152239285D01*
X335583333Y-152191666D01*
X335630952Y-152096428D01*
X335630952Y-151905952D01*
X335678571Y-151810714D01*
X335726190Y-151763095D01*
X335821428Y-151715476D01*
X336011904Y-151715476D01*
X336107142Y-151763095D01*
X336154761Y-151810714D01*
X336202380Y-151905952D01*
X336202380Y-152096428D01*
X336154761Y-152191666D01*
X336107142Y-152239285D01*
X336011904Y-152286904D01*
X335821428Y-152286904D01*
X335726190Y-152239285D01*
X335678571Y-152191666D01*
X335630952Y-152096428D01*
G04 #@! TO.C,R79*
X336602380Y-169382142D02*
X336126190Y-169048809D01*
X336602380Y-168810714D02*
X335602380Y-168810714D01*
X335602380Y-169191666D01*
X335650000Y-169286904D01*
X335697619Y-169334523D01*
X335792857Y-169382142D01*
X335935714Y-169382142D01*
X336030952Y-169334523D01*
X336078571Y-169286904D01*
X336126190Y-169191666D01*
X336126190Y-168810714D01*
X335602380Y-169715476D02*
X335602380Y-170382142D01*
X336602380Y-169953571D01*
X336602380Y-170810714D02*
X336602380Y-171001190D01*
X336554761Y-171096428D01*
X336507142Y-171144047D01*
X336364285Y-171239285D01*
X336173809Y-171286904D01*
X335792857Y-171286904D01*
X335697619Y-171239285D01*
X335650000Y-171191666D01*
X335602380Y-171096428D01*
X335602380Y-170905952D01*
X335650000Y-170810714D01*
X335697619Y-170763095D01*
X335792857Y-170715476D01*
X336030952Y-170715476D01*
X336126190Y-170763095D01*
X336173809Y-170810714D01*
X336221428Y-170905952D01*
X336221428Y-171096428D01*
X336173809Y-171191666D01*
X336126190Y-171239285D01*
X336030952Y-171286904D01*
G04 #@! TO.C,R80*
X331427380Y-193157142D02*
X330951190Y-192823809D01*
X331427380Y-192585714D02*
X330427380Y-192585714D01*
X330427380Y-192966666D01*
X330475000Y-193061904D01*
X330522619Y-193109523D01*
X330617857Y-193157142D01*
X330760714Y-193157142D01*
X330855952Y-193109523D01*
X330903571Y-193061904D01*
X330951190Y-192966666D01*
X330951190Y-192585714D01*
X330855952Y-193728571D02*
X330808333Y-193633333D01*
X330760714Y-193585714D01*
X330665476Y-193538095D01*
X330617857Y-193538095D01*
X330522619Y-193585714D01*
X330475000Y-193633333D01*
X330427380Y-193728571D01*
X330427380Y-193919047D01*
X330475000Y-194014285D01*
X330522619Y-194061904D01*
X330617857Y-194109523D01*
X330665476Y-194109523D01*
X330760714Y-194061904D01*
X330808333Y-194014285D01*
X330855952Y-193919047D01*
X330855952Y-193728571D01*
X330903571Y-193633333D01*
X330951190Y-193585714D01*
X331046428Y-193538095D01*
X331236904Y-193538095D01*
X331332142Y-193585714D01*
X331379761Y-193633333D01*
X331427380Y-193728571D01*
X331427380Y-193919047D01*
X331379761Y-194014285D01*
X331332142Y-194061904D01*
X331236904Y-194109523D01*
X331046428Y-194109523D01*
X330951190Y-194061904D01*
X330903571Y-194014285D01*
X330855952Y-193919047D01*
X330427380Y-194728571D02*
X330427380Y-194823809D01*
X330475000Y-194919047D01*
X330522619Y-194966666D01*
X330617857Y-195014285D01*
X330808333Y-195061904D01*
X331046428Y-195061904D01*
X331236904Y-195014285D01*
X331332142Y-194966666D01*
X331379761Y-194919047D01*
X331427380Y-194823809D01*
X331427380Y-194728571D01*
X331379761Y-194633333D01*
X331332142Y-194585714D01*
X331236904Y-194538095D01*
X331046428Y-194490476D01*
X330808333Y-194490476D01*
X330617857Y-194538095D01*
X330522619Y-194585714D01*
X330475000Y-194633333D01*
X330427380Y-194728571D01*
G04 #@! TO.C,R81*
X355502380Y-112182142D02*
X355026190Y-111848809D01*
X355502380Y-111610714D02*
X354502380Y-111610714D01*
X354502380Y-111991666D01*
X354550000Y-112086904D01*
X354597619Y-112134523D01*
X354692857Y-112182142D01*
X354835714Y-112182142D01*
X354930952Y-112134523D01*
X354978571Y-112086904D01*
X355026190Y-111991666D01*
X355026190Y-111610714D01*
X354930952Y-112753571D02*
X354883333Y-112658333D01*
X354835714Y-112610714D01*
X354740476Y-112563095D01*
X354692857Y-112563095D01*
X354597619Y-112610714D01*
X354550000Y-112658333D01*
X354502380Y-112753571D01*
X354502380Y-112944047D01*
X354550000Y-113039285D01*
X354597619Y-113086904D01*
X354692857Y-113134523D01*
X354740476Y-113134523D01*
X354835714Y-113086904D01*
X354883333Y-113039285D01*
X354930952Y-112944047D01*
X354930952Y-112753571D01*
X354978571Y-112658333D01*
X355026190Y-112610714D01*
X355121428Y-112563095D01*
X355311904Y-112563095D01*
X355407142Y-112610714D01*
X355454761Y-112658333D01*
X355502380Y-112753571D01*
X355502380Y-112944047D01*
X355454761Y-113039285D01*
X355407142Y-113086904D01*
X355311904Y-113134523D01*
X355121428Y-113134523D01*
X355026190Y-113086904D01*
X354978571Y-113039285D01*
X354930952Y-112944047D01*
X355502380Y-114086904D02*
X355502380Y-113515476D01*
X355502380Y-113801190D02*
X354502380Y-113801190D01*
X354645238Y-113705952D01*
X354740476Y-113610714D01*
X354788095Y-113515476D01*
G04 #@! TO.C,R82*
X355302380Y-131282142D02*
X354826190Y-130948809D01*
X355302380Y-130710714D02*
X354302380Y-130710714D01*
X354302380Y-131091666D01*
X354350000Y-131186904D01*
X354397619Y-131234523D01*
X354492857Y-131282142D01*
X354635714Y-131282142D01*
X354730952Y-131234523D01*
X354778571Y-131186904D01*
X354826190Y-131091666D01*
X354826190Y-130710714D01*
X354730952Y-131853571D02*
X354683333Y-131758333D01*
X354635714Y-131710714D01*
X354540476Y-131663095D01*
X354492857Y-131663095D01*
X354397619Y-131710714D01*
X354350000Y-131758333D01*
X354302380Y-131853571D01*
X354302380Y-132044047D01*
X354350000Y-132139285D01*
X354397619Y-132186904D01*
X354492857Y-132234523D01*
X354540476Y-132234523D01*
X354635714Y-132186904D01*
X354683333Y-132139285D01*
X354730952Y-132044047D01*
X354730952Y-131853571D01*
X354778571Y-131758333D01*
X354826190Y-131710714D01*
X354921428Y-131663095D01*
X355111904Y-131663095D01*
X355207142Y-131710714D01*
X355254761Y-131758333D01*
X355302380Y-131853571D01*
X355302380Y-132044047D01*
X355254761Y-132139285D01*
X355207142Y-132186904D01*
X355111904Y-132234523D01*
X354921428Y-132234523D01*
X354826190Y-132186904D01*
X354778571Y-132139285D01*
X354730952Y-132044047D01*
X354397619Y-132615476D02*
X354350000Y-132663095D01*
X354302380Y-132758333D01*
X354302380Y-132996428D01*
X354350000Y-133091666D01*
X354397619Y-133139285D01*
X354492857Y-133186904D01*
X354588095Y-133186904D01*
X354730952Y-133139285D01*
X355302380Y-132567857D01*
X355302380Y-133186904D01*
G04 #@! TO.C,R83*
X355202380Y-150332142D02*
X354726190Y-149998809D01*
X355202380Y-149760714D02*
X354202380Y-149760714D01*
X354202380Y-150141666D01*
X354250000Y-150236904D01*
X354297619Y-150284523D01*
X354392857Y-150332142D01*
X354535714Y-150332142D01*
X354630952Y-150284523D01*
X354678571Y-150236904D01*
X354726190Y-150141666D01*
X354726190Y-149760714D01*
X354630952Y-150903571D02*
X354583333Y-150808333D01*
X354535714Y-150760714D01*
X354440476Y-150713095D01*
X354392857Y-150713095D01*
X354297619Y-150760714D01*
X354250000Y-150808333D01*
X354202380Y-150903571D01*
X354202380Y-151094047D01*
X354250000Y-151189285D01*
X354297619Y-151236904D01*
X354392857Y-151284523D01*
X354440476Y-151284523D01*
X354535714Y-151236904D01*
X354583333Y-151189285D01*
X354630952Y-151094047D01*
X354630952Y-150903571D01*
X354678571Y-150808333D01*
X354726190Y-150760714D01*
X354821428Y-150713095D01*
X355011904Y-150713095D01*
X355107142Y-150760714D01*
X355154761Y-150808333D01*
X355202380Y-150903571D01*
X355202380Y-151094047D01*
X355154761Y-151189285D01*
X355107142Y-151236904D01*
X355011904Y-151284523D01*
X354821428Y-151284523D01*
X354726190Y-151236904D01*
X354678571Y-151189285D01*
X354630952Y-151094047D01*
X354202380Y-151617857D02*
X354202380Y-152236904D01*
X354583333Y-151903571D01*
X354583333Y-152046428D01*
X354630952Y-152141666D01*
X354678571Y-152189285D01*
X354773809Y-152236904D01*
X355011904Y-152236904D01*
X355107142Y-152189285D01*
X355154761Y-152141666D01*
X355202380Y-152046428D01*
X355202380Y-151760714D01*
X355154761Y-151665476D01*
X355107142Y-151617857D01*
G04 #@! TO.C,R84*
X355402380Y-169382142D02*
X354926190Y-169048809D01*
X355402380Y-168810714D02*
X354402380Y-168810714D01*
X354402380Y-169191666D01*
X354450000Y-169286904D01*
X354497619Y-169334523D01*
X354592857Y-169382142D01*
X354735714Y-169382142D01*
X354830952Y-169334523D01*
X354878571Y-169286904D01*
X354926190Y-169191666D01*
X354926190Y-168810714D01*
X354830952Y-169953571D02*
X354783333Y-169858333D01*
X354735714Y-169810714D01*
X354640476Y-169763095D01*
X354592857Y-169763095D01*
X354497619Y-169810714D01*
X354450000Y-169858333D01*
X354402380Y-169953571D01*
X354402380Y-170144047D01*
X354450000Y-170239285D01*
X354497619Y-170286904D01*
X354592857Y-170334523D01*
X354640476Y-170334523D01*
X354735714Y-170286904D01*
X354783333Y-170239285D01*
X354830952Y-170144047D01*
X354830952Y-169953571D01*
X354878571Y-169858333D01*
X354926190Y-169810714D01*
X355021428Y-169763095D01*
X355211904Y-169763095D01*
X355307142Y-169810714D01*
X355354761Y-169858333D01*
X355402380Y-169953571D01*
X355402380Y-170144047D01*
X355354761Y-170239285D01*
X355307142Y-170286904D01*
X355211904Y-170334523D01*
X355021428Y-170334523D01*
X354926190Y-170286904D01*
X354878571Y-170239285D01*
X354830952Y-170144047D01*
X354735714Y-171191666D02*
X355402380Y-171191666D01*
X354354761Y-170953571D02*
X355069047Y-170715476D01*
X355069047Y-171334523D01*
G04 #@! TO.C,R85*
X355302380Y-188482142D02*
X354826190Y-188148809D01*
X355302380Y-187910714D02*
X354302380Y-187910714D01*
X354302380Y-188291666D01*
X354350000Y-188386904D01*
X354397619Y-188434523D01*
X354492857Y-188482142D01*
X354635714Y-188482142D01*
X354730952Y-188434523D01*
X354778571Y-188386904D01*
X354826190Y-188291666D01*
X354826190Y-187910714D01*
X354730952Y-189053571D02*
X354683333Y-188958333D01*
X354635714Y-188910714D01*
X354540476Y-188863095D01*
X354492857Y-188863095D01*
X354397619Y-188910714D01*
X354350000Y-188958333D01*
X354302380Y-189053571D01*
X354302380Y-189244047D01*
X354350000Y-189339285D01*
X354397619Y-189386904D01*
X354492857Y-189434523D01*
X354540476Y-189434523D01*
X354635714Y-189386904D01*
X354683333Y-189339285D01*
X354730952Y-189244047D01*
X354730952Y-189053571D01*
X354778571Y-188958333D01*
X354826190Y-188910714D01*
X354921428Y-188863095D01*
X355111904Y-188863095D01*
X355207142Y-188910714D01*
X355254761Y-188958333D01*
X355302380Y-189053571D01*
X355302380Y-189244047D01*
X355254761Y-189339285D01*
X355207142Y-189386904D01*
X355111904Y-189434523D01*
X354921428Y-189434523D01*
X354826190Y-189386904D01*
X354778571Y-189339285D01*
X354730952Y-189244047D01*
X354302380Y-190339285D02*
X354302380Y-189863095D01*
X354778571Y-189815476D01*
X354730952Y-189863095D01*
X354683333Y-189958333D01*
X354683333Y-190196428D01*
X354730952Y-190291666D01*
X354778571Y-190339285D01*
X354873809Y-190386904D01*
X355111904Y-190386904D01*
X355207142Y-190339285D01*
X355254761Y-190291666D01*
X355302380Y-190196428D01*
X355302380Y-189958333D01*
X355254761Y-189863095D01*
X355207142Y-189815476D01*
G04 #@! TO.C,R86*
X374502380Y-112182142D02*
X374026190Y-111848809D01*
X374502380Y-111610714D02*
X373502380Y-111610714D01*
X373502380Y-111991666D01*
X373550000Y-112086904D01*
X373597619Y-112134523D01*
X373692857Y-112182142D01*
X373835714Y-112182142D01*
X373930952Y-112134523D01*
X373978571Y-112086904D01*
X374026190Y-111991666D01*
X374026190Y-111610714D01*
X373930952Y-112753571D02*
X373883333Y-112658333D01*
X373835714Y-112610714D01*
X373740476Y-112563095D01*
X373692857Y-112563095D01*
X373597619Y-112610714D01*
X373550000Y-112658333D01*
X373502380Y-112753571D01*
X373502380Y-112944047D01*
X373550000Y-113039285D01*
X373597619Y-113086904D01*
X373692857Y-113134523D01*
X373740476Y-113134523D01*
X373835714Y-113086904D01*
X373883333Y-113039285D01*
X373930952Y-112944047D01*
X373930952Y-112753571D01*
X373978571Y-112658333D01*
X374026190Y-112610714D01*
X374121428Y-112563095D01*
X374311904Y-112563095D01*
X374407142Y-112610714D01*
X374454761Y-112658333D01*
X374502380Y-112753571D01*
X374502380Y-112944047D01*
X374454761Y-113039285D01*
X374407142Y-113086904D01*
X374311904Y-113134523D01*
X374121428Y-113134523D01*
X374026190Y-113086904D01*
X373978571Y-113039285D01*
X373930952Y-112944047D01*
X373502380Y-113991666D02*
X373502380Y-113801190D01*
X373550000Y-113705952D01*
X373597619Y-113658333D01*
X373740476Y-113563095D01*
X373930952Y-113515476D01*
X374311904Y-113515476D01*
X374407142Y-113563095D01*
X374454761Y-113610714D01*
X374502380Y-113705952D01*
X374502380Y-113896428D01*
X374454761Y-113991666D01*
X374407142Y-114039285D01*
X374311904Y-114086904D01*
X374073809Y-114086904D01*
X373978571Y-114039285D01*
X373930952Y-113991666D01*
X373883333Y-113896428D01*
X373883333Y-113705952D01*
X373930952Y-113610714D01*
X373978571Y-113563095D01*
X374073809Y-113515476D01*
G04 #@! TO.C,R87*
X373402380Y-131307142D02*
X372926190Y-130973809D01*
X373402380Y-130735714D02*
X372402380Y-130735714D01*
X372402380Y-131116666D01*
X372450000Y-131211904D01*
X372497619Y-131259523D01*
X372592857Y-131307142D01*
X372735714Y-131307142D01*
X372830952Y-131259523D01*
X372878571Y-131211904D01*
X372926190Y-131116666D01*
X372926190Y-130735714D01*
X372830952Y-131878571D02*
X372783333Y-131783333D01*
X372735714Y-131735714D01*
X372640476Y-131688095D01*
X372592857Y-131688095D01*
X372497619Y-131735714D01*
X372450000Y-131783333D01*
X372402380Y-131878571D01*
X372402380Y-132069047D01*
X372450000Y-132164285D01*
X372497619Y-132211904D01*
X372592857Y-132259523D01*
X372640476Y-132259523D01*
X372735714Y-132211904D01*
X372783333Y-132164285D01*
X372830952Y-132069047D01*
X372830952Y-131878571D01*
X372878571Y-131783333D01*
X372926190Y-131735714D01*
X373021428Y-131688095D01*
X373211904Y-131688095D01*
X373307142Y-131735714D01*
X373354761Y-131783333D01*
X373402380Y-131878571D01*
X373402380Y-132069047D01*
X373354761Y-132164285D01*
X373307142Y-132211904D01*
X373211904Y-132259523D01*
X373021428Y-132259523D01*
X372926190Y-132211904D01*
X372878571Y-132164285D01*
X372830952Y-132069047D01*
X372402380Y-132592857D02*
X372402380Y-133259523D01*
X373402380Y-132830952D01*
G04 #@! TO.C,R88*
X374502380Y-150357142D02*
X374026190Y-150023809D01*
X374502380Y-149785714D02*
X373502380Y-149785714D01*
X373502380Y-150166666D01*
X373550000Y-150261904D01*
X373597619Y-150309523D01*
X373692857Y-150357142D01*
X373835714Y-150357142D01*
X373930952Y-150309523D01*
X373978571Y-150261904D01*
X374026190Y-150166666D01*
X374026190Y-149785714D01*
X373930952Y-150928571D02*
X373883333Y-150833333D01*
X373835714Y-150785714D01*
X373740476Y-150738095D01*
X373692857Y-150738095D01*
X373597619Y-150785714D01*
X373550000Y-150833333D01*
X373502380Y-150928571D01*
X373502380Y-151119047D01*
X373550000Y-151214285D01*
X373597619Y-151261904D01*
X373692857Y-151309523D01*
X373740476Y-151309523D01*
X373835714Y-151261904D01*
X373883333Y-151214285D01*
X373930952Y-151119047D01*
X373930952Y-150928571D01*
X373978571Y-150833333D01*
X374026190Y-150785714D01*
X374121428Y-150738095D01*
X374311904Y-150738095D01*
X374407142Y-150785714D01*
X374454761Y-150833333D01*
X374502380Y-150928571D01*
X374502380Y-151119047D01*
X374454761Y-151214285D01*
X374407142Y-151261904D01*
X374311904Y-151309523D01*
X374121428Y-151309523D01*
X374026190Y-151261904D01*
X373978571Y-151214285D01*
X373930952Y-151119047D01*
X373930952Y-151880952D02*
X373883333Y-151785714D01*
X373835714Y-151738095D01*
X373740476Y-151690476D01*
X373692857Y-151690476D01*
X373597619Y-151738095D01*
X373550000Y-151785714D01*
X373502380Y-151880952D01*
X373502380Y-152071428D01*
X373550000Y-152166666D01*
X373597619Y-152214285D01*
X373692857Y-152261904D01*
X373740476Y-152261904D01*
X373835714Y-152214285D01*
X373883333Y-152166666D01*
X373930952Y-152071428D01*
X373930952Y-151880952D01*
X373978571Y-151785714D01*
X374026190Y-151738095D01*
X374121428Y-151690476D01*
X374311904Y-151690476D01*
X374407142Y-151738095D01*
X374454761Y-151785714D01*
X374502380Y-151880952D01*
X374502380Y-152071428D01*
X374454761Y-152166666D01*
X374407142Y-152214285D01*
X374311904Y-152261904D01*
X374121428Y-152261904D01*
X374026190Y-152214285D01*
X373978571Y-152166666D01*
X373930952Y-152071428D01*
G04 #@! TO.C,R89*
X374002380Y-169357142D02*
X373526190Y-169023809D01*
X374002380Y-168785714D02*
X373002380Y-168785714D01*
X373002380Y-169166666D01*
X373050000Y-169261904D01*
X373097619Y-169309523D01*
X373192857Y-169357142D01*
X373335714Y-169357142D01*
X373430952Y-169309523D01*
X373478571Y-169261904D01*
X373526190Y-169166666D01*
X373526190Y-168785714D01*
X373430952Y-169928571D02*
X373383333Y-169833333D01*
X373335714Y-169785714D01*
X373240476Y-169738095D01*
X373192857Y-169738095D01*
X373097619Y-169785714D01*
X373050000Y-169833333D01*
X373002380Y-169928571D01*
X373002380Y-170119047D01*
X373050000Y-170214285D01*
X373097619Y-170261904D01*
X373192857Y-170309523D01*
X373240476Y-170309523D01*
X373335714Y-170261904D01*
X373383333Y-170214285D01*
X373430952Y-170119047D01*
X373430952Y-169928571D01*
X373478571Y-169833333D01*
X373526190Y-169785714D01*
X373621428Y-169738095D01*
X373811904Y-169738095D01*
X373907142Y-169785714D01*
X373954761Y-169833333D01*
X374002380Y-169928571D01*
X374002380Y-170119047D01*
X373954761Y-170214285D01*
X373907142Y-170261904D01*
X373811904Y-170309523D01*
X373621428Y-170309523D01*
X373526190Y-170261904D01*
X373478571Y-170214285D01*
X373430952Y-170119047D01*
X374002380Y-170785714D02*
X374002380Y-170976190D01*
X373954761Y-171071428D01*
X373907142Y-171119047D01*
X373764285Y-171214285D01*
X373573809Y-171261904D01*
X373192857Y-171261904D01*
X373097619Y-171214285D01*
X373050000Y-171166666D01*
X373002380Y-171071428D01*
X373002380Y-170880952D01*
X373050000Y-170785714D01*
X373097619Y-170738095D01*
X373192857Y-170690476D01*
X373430952Y-170690476D01*
X373526190Y-170738095D01*
X373573809Y-170785714D01*
X373621428Y-170880952D01*
X373621428Y-171071428D01*
X373573809Y-171166666D01*
X373526190Y-171214285D01*
X373430952Y-171261904D01*
G04 #@! TO.C,R90*
X374352380Y-188382142D02*
X373876190Y-188048809D01*
X374352380Y-187810714D02*
X373352380Y-187810714D01*
X373352380Y-188191666D01*
X373400000Y-188286904D01*
X373447619Y-188334523D01*
X373542857Y-188382142D01*
X373685714Y-188382142D01*
X373780952Y-188334523D01*
X373828571Y-188286904D01*
X373876190Y-188191666D01*
X373876190Y-187810714D01*
X374352380Y-188858333D02*
X374352380Y-189048809D01*
X374304761Y-189144047D01*
X374257142Y-189191666D01*
X374114285Y-189286904D01*
X373923809Y-189334523D01*
X373542857Y-189334523D01*
X373447619Y-189286904D01*
X373400000Y-189239285D01*
X373352380Y-189144047D01*
X373352380Y-188953571D01*
X373400000Y-188858333D01*
X373447619Y-188810714D01*
X373542857Y-188763095D01*
X373780952Y-188763095D01*
X373876190Y-188810714D01*
X373923809Y-188858333D01*
X373971428Y-188953571D01*
X373971428Y-189144047D01*
X373923809Y-189239285D01*
X373876190Y-189286904D01*
X373780952Y-189334523D01*
X373352380Y-189953571D02*
X373352380Y-190048809D01*
X373400000Y-190144047D01*
X373447619Y-190191666D01*
X373542857Y-190239285D01*
X373733333Y-190286904D01*
X373971428Y-190286904D01*
X374161904Y-190239285D01*
X374257142Y-190191666D01*
X374304761Y-190144047D01*
X374352380Y-190048809D01*
X374352380Y-189953571D01*
X374304761Y-189858333D01*
X374257142Y-189810714D01*
X374161904Y-189763095D01*
X373971428Y-189715476D01*
X373733333Y-189715476D01*
X373542857Y-189763095D01*
X373447619Y-189810714D01*
X373400000Y-189858333D01*
X373352380Y-189953571D01*
G04 #@! TO.C,R91*
X392602380Y-188382142D02*
X392126190Y-188048809D01*
X392602380Y-187810714D02*
X391602380Y-187810714D01*
X391602380Y-188191666D01*
X391650000Y-188286904D01*
X391697619Y-188334523D01*
X391792857Y-188382142D01*
X391935714Y-188382142D01*
X392030952Y-188334523D01*
X392078571Y-188286904D01*
X392126190Y-188191666D01*
X392126190Y-187810714D01*
X392602380Y-188858333D02*
X392602380Y-189048809D01*
X392554761Y-189144047D01*
X392507142Y-189191666D01*
X392364285Y-189286904D01*
X392173809Y-189334523D01*
X391792857Y-189334523D01*
X391697619Y-189286904D01*
X391650000Y-189239285D01*
X391602380Y-189144047D01*
X391602380Y-188953571D01*
X391650000Y-188858333D01*
X391697619Y-188810714D01*
X391792857Y-188763095D01*
X392030952Y-188763095D01*
X392126190Y-188810714D01*
X392173809Y-188858333D01*
X392221428Y-188953571D01*
X392221428Y-189144047D01*
X392173809Y-189239285D01*
X392126190Y-189286904D01*
X392030952Y-189334523D01*
X392602380Y-190286904D02*
X392602380Y-189715476D01*
X392602380Y-190001190D02*
X391602380Y-190001190D01*
X391745238Y-189905952D01*
X391840476Y-189810714D01*
X391888095Y-189715476D01*
G04 #@! TO.C,R92*
X393002380Y-112282142D02*
X392526190Y-111948809D01*
X393002380Y-111710714D02*
X392002380Y-111710714D01*
X392002380Y-112091666D01*
X392050000Y-112186904D01*
X392097619Y-112234523D01*
X392192857Y-112282142D01*
X392335714Y-112282142D01*
X392430952Y-112234523D01*
X392478571Y-112186904D01*
X392526190Y-112091666D01*
X392526190Y-111710714D01*
X393002380Y-112758333D02*
X393002380Y-112948809D01*
X392954761Y-113044047D01*
X392907142Y-113091666D01*
X392764285Y-113186904D01*
X392573809Y-113234523D01*
X392192857Y-113234523D01*
X392097619Y-113186904D01*
X392050000Y-113139285D01*
X392002380Y-113044047D01*
X392002380Y-112853571D01*
X392050000Y-112758333D01*
X392097619Y-112710714D01*
X392192857Y-112663095D01*
X392430952Y-112663095D01*
X392526190Y-112710714D01*
X392573809Y-112758333D01*
X392621428Y-112853571D01*
X392621428Y-113044047D01*
X392573809Y-113139285D01*
X392526190Y-113186904D01*
X392430952Y-113234523D01*
X392097619Y-113615476D02*
X392050000Y-113663095D01*
X392002380Y-113758333D01*
X392002380Y-113996428D01*
X392050000Y-114091666D01*
X392097619Y-114139285D01*
X392192857Y-114186904D01*
X392288095Y-114186904D01*
X392430952Y-114139285D01*
X393002380Y-113567857D01*
X393002380Y-114186904D01*
G04 #@! TO.C,R93*
X377302380Y-129082142D02*
X376826190Y-128748809D01*
X377302380Y-128510714D02*
X376302380Y-128510714D01*
X376302380Y-128891666D01*
X376350000Y-128986904D01*
X376397619Y-129034523D01*
X376492857Y-129082142D01*
X376635714Y-129082142D01*
X376730952Y-129034523D01*
X376778571Y-128986904D01*
X376826190Y-128891666D01*
X376826190Y-128510714D01*
X377302380Y-129558333D02*
X377302380Y-129748809D01*
X377254761Y-129844047D01*
X377207142Y-129891666D01*
X377064285Y-129986904D01*
X376873809Y-130034523D01*
X376492857Y-130034523D01*
X376397619Y-129986904D01*
X376350000Y-129939285D01*
X376302380Y-129844047D01*
X376302380Y-129653571D01*
X376350000Y-129558333D01*
X376397619Y-129510714D01*
X376492857Y-129463095D01*
X376730952Y-129463095D01*
X376826190Y-129510714D01*
X376873809Y-129558333D01*
X376921428Y-129653571D01*
X376921428Y-129844047D01*
X376873809Y-129939285D01*
X376826190Y-129986904D01*
X376730952Y-130034523D01*
X376302380Y-130367857D02*
X376302380Y-130986904D01*
X376683333Y-130653571D01*
X376683333Y-130796428D01*
X376730952Y-130891666D01*
X376778571Y-130939285D01*
X376873809Y-130986904D01*
X377111904Y-130986904D01*
X377207142Y-130939285D01*
X377254761Y-130891666D01*
X377302380Y-130796428D01*
X377302380Y-130510714D01*
X377254761Y-130415476D01*
X377207142Y-130367857D01*
G04 #@! TO.C,R94*
X392852380Y-150357142D02*
X392376190Y-150023809D01*
X392852380Y-149785714D02*
X391852380Y-149785714D01*
X391852380Y-150166666D01*
X391900000Y-150261904D01*
X391947619Y-150309523D01*
X392042857Y-150357142D01*
X392185714Y-150357142D01*
X392280952Y-150309523D01*
X392328571Y-150261904D01*
X392376190Y-150166666D01*
X392376190Y-149785714D01*
X392852380Y-150833333D02*
X392852380Y-151023809D01*
X392804761Y-151119047D01*
X392757142Y-151166666D01*
X392614285Y-151261904D01*
X392423809Y-151309523D01*
X392042857Y-151309523D01*
X391947619Y-151261904D01*
X391900000Y-151214285D01*
X391852380Y-151119047D01*
X391852380Y-150928571D01*
X391900000Y-150833333D01*
X391947619Y-150785714D01*
X392042857Y-150738095D01*
X392280952Y-150738095D01*
X392376190Y-150785714D01*
X392423809Y-150833333D01*
X392471428Y-150928571D01*
X392471428Y-151119047D01*
X392423809Y-151214285D01*
X392376190Y-151261904D01*
X392280952Y-151309523D01*
X392185714Y-152166666D02*
X392852380Y-152166666D01*
X391804761Y-151928571D02*
X392519047Y-151690476D01*
X392519047Y-152309523D01*
G04 #@! TO.C,R95*
X376402380Y-169357142D02*
X375926190Y-169023809D01*
X376402380Y-168785714D02*
X375402380Y-168785714D01*
X375402380Y-169166666D01*
X375450000Y-169261904D01*
X375497619Y-169309523D01*
X375592857Y-169357142D01*
X375735714Y-169357142D01*
X375830952Y-169309523D01*
X375878571Y-169261904D01*
X375926190Y-169166666D01*
X375926190Y-168785714D01*
X376402380Y-169833333D02*
X376402380Y-170023809D01*
X376354761Y-170119047D01*
X376307142Y-170166666D01*
X376164285Y-170261904D01*
X375973809Y-170309523D01*
X375592857Y-170309523D01*
X375497619Y-170261904D01*
X375450000Y-170214285D01*
X375402380Y-170119047D01*
X375402380Y-169928571D01*
X375450000Y-169833333D01*
X375497619Y-169785714D01*
X375592857Y-169738095D01*
X375830952Y-169738095D01*
X375926190Y-169785714D01*
X375973809Y-169833333D01*
X376021428Y-169928571D01*
X376021428Y-170119047D01*
X375973809Y-170214285D01*
X375926190Y-170261904D01*
X375830952Y-170309523D01*
X375402380Y-171214285D02*
X375402380Y-170738095D01*
X375878571Y-170690476D01*
X375830952Y-170738095D01*
X375783333Y-170833333D01*
X375783333Y-171071428D01*
X375830952Y-171166666D01*
X375878571Y-171214285D01*
X375973809Y-171261904D01*
X376211904Y-171261904D01*
X376307142Y-171214285D01*
X376354761Y-171166666D01*
X376402380Y-171071428D01*
X376402380Y-170833333D01*
X376354761Y-170738095D01*
X376307142Y-170690476D01*
G04 #@! TO.C,U1*
X185961904Y-172502380D02*
X185961904Y-173311904D01*
X185914285Y-173407142D01*
X185866666Y-173454761D01*
X185771428Y-173502380D01*
X185580952Y-173502380D01*
X185485714Y-173454761D01*
X185438095Y-173407142D01*
X185390476Y-173311904D01*
X185390476Y-172502380D01*
X184390476Y-173502380D02*
X184961904Y-173502380D01*
X184676190Y-173502380D02*
X184676190Y-172502380D01*
X184771428Y-172645238D01*
X184866666Y-172740476D01*
X184961904Y-172788095D01*
G04 #@! TO.C,Y1*
X186176190Y-194926190D02*
X186176190Y-195402380D01*
X186509523Y-194402380D02*
X186176190Y-194926190D01*
X185842857Y-194402380D01*
X184985714Y-195402380D02*
X185557142Y-195402380D01*
X185271428Y-195402380D02*
X185271428Y-194402380D01*
X185366666Y-194545238D01*
X185461904Y-194640476D01*
X185557142Y-194688095D01*
G04 #@! TD*
M02*
