G04 #@! TF.GenerationSoftware,KiCad,Pcbnew,(5.1.8-0-10_14)*
G04 #@! TF.CreationDate,2021-04-06T12:11:46+01:00*
G04 #@! TF.ProjectId,cypher,63797068-6572-42e6-9b69-6361645f7063,rev?*
G04 #@! TF.SameCoordinates,Original*
G04 #@! TF.FileFunction,Paste,Top*
G04 #@! TF.FilePolarity,Positive*
%FSLAX46Y46*%
G04 Gerber Fmt 4.6, Leading zero omitted, Abs format (unit mm)*
G04 Created by KiCad (PCBNEW (5.1.8-0-10_14)) date 2021-04-06 12:11:46*
%MOMM*%
%LPD*%
G01*
G04 APERTURE LIST*
%ADD10R,0.700000X0.700000*%
G04 APERTURE END LIST*
G36*
G01*
X319839050Y-114585200D02*
X319326550Y-114585200D01*
G75*
G02*
X319107800Y-114366450I0J218750D01*
G01*
X319107800Y-113928950D01*
G75*
G02*
X319326550Y-113710200I218750J0D01*
G01*
X319839050Y-113710200D01*
G75*
G02*
X320057800Y-113928950I0J-218750D01*
G01*
X320057800Y-114366450D01*
G75*
G02*
X319839050Y-114585200I-218750J0D01*
G01*
G37*
G36*
G01*
X319839050Y-113010200D02*
X319326550Y-113010200D01*
G75*
G02*
X319107800Y-112791450I0J218750D01*
G01*
X319107800Y-112353950D01*
G75*
G02*
X319326550Y-112135200I218750J0D01*
G01*
X319839050Y-112135200D01*
G75*
G02*
X320057800Y-112353950I0J-218750D01*
G01*
X320057800Y-112791450D01*
G75*
G02*
X319839050Y-113010200I-218750J0D01*
G01*
G37*
G36*
G01*
X319839050Y-117734800D02*
X319326550Y-117734800D01*
G75*
G02*
X319107800Y-117516050I0J218750D01*
G01*
X319107800Y-117078550D01*
G75*
G02*
X319326550Y-116859800I218750J0D01*
G01*
X319839050Y-116859800D01*
G75*
G02*
X320057800Y-117078550I0J-218750D01*
G01*
X320057800Y-117516050D01*
G75*
G02*
X319839050Y-117734800I-218750J0D01*
G01*
G37*
G36*
G01*
X319839050Y-116159800D02*
X319326550Y-116159800D01*
G75*
G02*
X319107800Y-115941050I0J218750D01*
G01*
X319107800Y-115503550D01*
G75*
G02*
X319326550Y-115284800I218750J0D01*
G01*
X319839050Y-115284800D01*
G75*
G02*
X320057800Y-115503550I0J-218750D01*
G01*
X320057800Y-115941050D01*
G75*
G02*
X319839050Y-116159800I-218750J0D01*
G01*
G37*
G36*
G01*
X319839050Y-119309400D02*
X319326550Y-119309400D01*
G75*
G02*
X319107800Y-119090650I0J218750D01*
G01*
X319107800Y-118653150D01*
G75*
G02*
X319326550Y-118434400I218750J0D01*
G01*
X319839050Y-118434400D01*
G75*
G02*
X320057800Y-118653150I0J-218750D01*
G01*
X320057800Y-119090650D01*
G75*
G02*
X319839050Y-119309400I-218750J0D01*
G01*
G37*
G36*
G01*
X319839050Y-120884400D02*
X319326550Y-120884400D01*
G75*
G02*
X319107800Y-120665650I0J218750D01*
G01*
X319107800Y-120228150D01*
G75*
G02*
X319326550Y-120009400I218750J0D01*
G01*
X319839050Y-120009400D01*
G75*
G02*
X320057800Y-120228150I0J-218750D01*
G01*
X320057800Y-120665650D01*
G75*
G02*
X319839050Y-120884400I-218750J0D01*
G01*
G37*
D10*
X316738600Y-113707000D03*
X316738600Y-112607000D03*
X314908600Y-112607000D03*
X314908600Y-113707000D03*
X314895900Y-116882000D03*
X314895900Y-115782000D03*
X316725900Y-115782000D03*
X316725900Y-116882000D03*
X316738600Y-120057000D03*
X316738600Y-118957000D03*
X314908600Y-118957000D03*
X314908600Y-120057000D03*
M02*
